%TF.GenerationSoftware,KiCad,Pcbnew,8.0.3*%
%TF.CreationDate,2024-12-03T01:45:02+08:00*%
%TF.ProjectId,PH-AC,50482d41-432e-46b6-9963-61645f706362,Rev2.3*%
%TF.SameCoordinates,PX405f7e0PY328b740*%
%TF.FileFunction,NonPlated,1,2,NPTH,Drill*%
%TF.FilePolarity,Positive*%
%FSLAX46Y46*%
G04 Gerber Fmt 4.6, Leading zero omitted, Abs format (unit mm)*
G04 Created by KiCad (PCBNEW 8.0.3) date 2024-12-03 01:45:02*
%MOMM*%
%LPD*%
G01*
G04 APERTURE LIST*
%TA.AperFunction,ComponentDrill*%
%ADD10C,0.650000*%
%TD*%
%TA.AperFunction,ComponentDrill*%
%ADD11C,1.750000*%
%TD*%
%TA.AperFunction,ComponentDrill*%
%ADD12C,3.050000*%
%TD*%
%TA.AperFunction,ComponentDrill*%
%ADD13C,4.000000*%
%TD*%
%TA.AperFunction,ComponentDrill*%
%ADD14C,10.000000*%
%TD*%
G04 APERTURE END LIST*
D10*
%TO.C,J1*%
X83360000Y-3855000D03*
X89140000Y-3855000D03*
D11*
%TO.C,SW1*%
X31670000Y-40575000D03*
X41830000Y-40575000D03*
%TO.C,SW5*%
X48170000Y-82575000D03*
X58330000Y-82575000D03*
%TO.C,SW2*%
X64670000Y-40575000D03*
X74830000Y-40575000D03*
%TO.C,SW0*%
X81170000Y-16575000D03*
X91330000Y-16575000D03*
%TO.C,SW3*%
X97670000Y-40575000D03*
X107830000Y-40575000D03*
%TO.C,SW6*%
X114170000Y-82575000D03*
X124330000Y-82575000D03*
%TO.C,SW4*%
X130670000Y-40575000D03*
X140830000Y-40575000D03*
D12*
%TO.C,SW1*%
X32940000Y-38035000D03*
X39290000Y-35495000D03*
%TO.C,SW5*%
X49440000Y-80035000D03*
X55790000Y-77495000D03*
%TO.C,SW2*%
X65940000Y-38035000D03*
X72290000Y-35495000D03*
%TO.C,SW0*%
X82440000Y-14035000D03*
X88790000Y-11495000D03*
%TO.C,SW3*%
X98940000Y-38035000D03*
X105290000Y-35495000D03*
%TO.C,SW6*%
X115440000Y-80035000D03*
X121790000Y-77495000D03*
%TO.C,SW4*%
X131940000Y-38035000D03*
X138290000Y-35495000D03*
D13*
%TO.C,SW1*%
X36750000Y-40575000D03*
%TO.C,SW5*%
X53250000Y-82575000D03*
%TO.C,SW2*%
X69750000Y-40575000D03*
%TO.C,SW0*%
X86250000Y-16575000D03*
%TO.C,SW3*%
X102750000Y-40575000D03*
%TO.C,SW6*%
X119250000Y-82575000D03*
%TO.C,SW4*%
X135750000Y-40575000D03*
D14*
%TO.C,H3*%
X6250000Y-47575000D03*
%TO.C,H5*%
X21250000Y-73575000D03*
%TO.C,H1*%
X27250000Y-11575000D03*
%TO.C,H7*%
X71250000Y-62575000D03*
%TO.C,H8*%
X101250000Y-62575000D03*
%TO.C,H2*%
X145250000Y-11575000D03*
%TO.C,H6*%
X151250000Y-73575000D03*
%TO.C,H4*%
X166250000Y-47575000D03*
M02*
