%TF.GenerationSoftware,KiCad,Pcbnew,8.0.3*%
%TF.CreationDate,2024-09-11T20:25:14+08:00*%
%TF.ProjectId,PH-AC,50482d41-432e-46b6-9963-61645f706362,rev?*%
%TF.SameCoordinates,PX405f7e0PY328b740*%
%TF.FileFunction,Legend,Bot*%
%TF.FilePolarity,Positive*%
%FSLAX46Y46*%
G04 Gerber Fmt 4.6, Leading zero omitted, Abs format (unit mm)*
G04 Created by KiCad (PCBNEW 8.0.3) date 2024-09-11 20:25:14*
%MOMM*%
%LPD*%
G01*
G04 APERTURE LIST*
%ADD10C,0.150000*%
%ADD11C,0.400000*%
%ADD12C,0.175000*%
%ADD13C,0.120000*%
G04 APERTURE END LIST*
D10*
X83509649Y-6914866D02*
X82976316Y-6914866D01*
X82642982Y-6914866D02*
X82109649Y-6914866D01*
X81809648Y-6981533D02*
X81476315Y-6981533D01*
X81876315Y-7181533D02*
X81642982Y-6481533D01*
X81642982Y-6481533D02*
X81409648Y-7181533D01*
X81176315Y-6714866D02*
X81176315Y-7181533D01*
X81176315Y-6781533D02*
X81142982Y-6748200D01*
X81142982Y-6748200D02*
X81076315Y-6714866D01*
X81076315Y-6714866D02*
X80976315Y-6714866D01*
X80976315Y-6714866D02*
X80909648Y-6748200D01*
X80909648Y-6748200D02*
X80876315Y-6814866D01*
X80876315Y-6814866D02*
X80876315Y-7181533D01*
X80242982Y-7148200D02*
X80309649Y-7181533D01*
X80309649Y-7181533D02*
X80442982Y-7181533D01*
X80442982Y-7181533D02*
X80509649Y-7148200D01*
X80509649Y-7148200D02*
X80542982Y-7114866D01*
X80542982Y-7114866D02*
X80576315Y-7048200D01*
X80576315Y-7048200D02*
X80576315Y-6848200D01*
X80576315Y-6848200D02*
X80542982Y-6781533D01*
X80542982Y-6781533D02*
X80509649Y-6748200D01*
X80509649Y-6748200D02*
X80442982Y-6714866D01*
X80442982Y-6714866D02*
X80309649Y-6714866D01*
X80309649Y-6714866D02*
X80242982Y-6748200D01*
X79642982Y-7181533D02*
X79642982Y-6814866D01*
X79642982Y-6814866D02*
X79676315Y-6748200D01*
X79676315Y-6748200D02*
X79742982Y-6714866D01*
X79742982Y-6714866D02*
X79876315Y-6714866D01*
X79876315Y-6714866D02*
X79942982Y-6748200D01*
X79642982Y-7148200D02*
X79709649Y-7181533D01*
X79709649Y-7181533D02*
X79876315Y-7181533D01*
X79876315Y-7181533D02*
X79942982Y-7148200D01*
X79942982Y-7148200D02*
X79976315Y-7081533D01*
X79976315Y-7081533D02*
X79976315Y-7014866D01*
X79976315Y-7014866D02*
X79942982Y-6948200D01*
X79942982Y-6948200D02*
X79876315Y-6914866D01*
X79876315Y-6914866D02*
X79709649Y-6914866D01*
X79709649Y-6914866D02*
X79642982Y-6881533D01*
X79009649Y-7181533D02*
X79009649Y-6481533D01*
X79009649Y-7148200D02*
X79076316Y-7181533D01*
X79076316Y-7181533D02*
X79209649Y-7181533D01*
X79209649Y-7181533D02*
X79276316Y-7148200D01*
X79276316Y-7148200D02*
X79309649Y-7114866D01*
X79309649Y-7114866D02*
X79342982Y-7048200D01*
X79342982Y-7048200D02*
X79342982Y-6848200D01*
X79342982Y-6848200D02*
X79309649Y-6781533D01*
X79309649Y-6781533D02*
X79276316Y-6748200D01*
X79276316Y-6748200D02*
X79209649Y-6714866D01*
X79209649Y-6714866D02*
X79076316Y-6714866D01*
X79076316Y-6714866D02*
X79009649Y-6748200D01*
X78409649Y-7148200D02*
X78476316Y-7181533D01*
X78476316Y-7181533D02*
X78609649Y-7181533D01*
X78609649Y-7181533D02*
X78676316Y-7148200D01*
X78676316Y-7148200D02*
X78709649Y-7081533D01*
X78709649Y-7081533D02*
X78709649Y-6814866D01*
X78709649Y-6814866D02*
X78676316Y-6748200D01*
X78676316Y-6748200D02*
X78609649Y-6714866D01*
X78609649Y-6714866D02*
X78476316Y-6714866D01*
X78476316Y-6714866D02*
X78409649Y-6748200D01*
X78409649Y-6748200D02*
X78376316Y-6814866D01*
X78376316Y-6814866D02*
X78376316Y-6881533D01*
X78376316Y-6881533D02*
X78709649Y-6948200D01*
X77242983Y-7148200D02*
X77309650Y-7181533D01*
X77309650Y-7181533D02*
X77442983Y-7181533D01*
X77442983Y-7181533D02*
X77509650Y-7148200D01*
X77509650Y-7148200D02*
X77542983Y-7114866D01*
X77542983Y-7114866D02*
X77576316Y-7048200D01*
X77576316Y-7048200D02*
X77576316Y-6848200D01*
X77576316Y-6848200D02*
X77542983Y-6781533D01*
X77542983Y-6781533D02*
X77509650Y-6748200D01*
X77509650Y-6748200D02*
X77442983Y-6714866D01*
X77442983Y-6714866D02*
X77309650Y-6714866D01*
X77309650Y-6714866D02*
X77242983Y-6748200D01*
X76842983Y-7181533D02*
X76909650Y-7148200D01*
X76909650Y-7148200D02*
X76942983Y-7114866D01*
X76942983Y-7114866D02*
X76976316Y-7048200D01*
X76976316Y-7048200D02*
X76976316Y-6848200D01*
X76976316Y-6848200D02*
X76942983Y-6781533D01*
X76942983Y-6781533D02*
X76909650Y-6748200D01*
X76909650Y-6748200D02*
X76842983Y-6714866D01*
X76842983Y-6714866D02*
X76742983Y-6714866D01*
X76742983Y-6714866D02*
X76676316Y-6748200D01*
X76676316Y-6748200D02*
X76642983Y-6781533D01*
X76642983Y-6781533D02*
X76609650Y-6848200D01*
X76609650Y-6848200D02*
X76609650Y-7048200D01*
X76609650Y-7048200D02*
X76642983Y-7114866D01*
X76642983Y-7114866D02*
X76676316Y-7148200D01*
X76676316Y-7148200D02*
X76742983Y-7181533D01*
X76742983Y-7181533D02*
X76842983Y-7181533D01*
X76309650Y-6714866D02*
X76309650Y-7181533D01*
X76309650Y-6781533D02*
X76276317Y-6748200D01*
X76276317Y-6748200D02*
X76209650Y-6714866D01*
X76209650Y-6714866D02*
X76109650Y-6714866D01*
X76109650Y-6714866D02*
X76042983Y-6748200D01*
X76042983Y-6748200D02*
X76009650Y-6814866D01*
X76009650Y-6814866D02*
X76009650Y-7181533D01*
X75776317Y-6714866D02*
X75509650Y-6714866D01*
X75676317Y-6481533D02*
X75676317Y-7081533D01*
X75676317Y-7081533D02*
X75642984Y-7148200D01*
X75642984Y-7148200D02*
X75576317Y-7181533D01*
X75576317Y-7181533D02*
X75509650Y-7181533D01*
X75276317Y-7181533D02*
X75276317Y-6714866D01*
X75276317Y-6848200D02*
X75242984Y-6781533D01*
X75242984Y-6781533D02*
X75209650Y-6748200D01*
X75209650Y-6748200D02*
X75142984Y-6714866D01*
X75142984Y-6714866D02*
X75076317Y-6714866D01*
X74742984Y-7181533D02*
X74809651Y-7148200D01*
X74809651Y-7148200D02*
X74842984Y-7114866D01*
X74842984Y-7114866D02*
X74876317Y-7048200D01*
X74876317Y-7048200D02*
X74876317Y-6848200D01*
X74876317Y-6848200D02*
X74842984Y-6781533D01*
X74842984Y-6781533D02*
X74809651Y-6748200D01*
X74809651Y-6748200D02*
X74742984Y-6714866D01*
X74742984Y-6714866D02*
X74642984Y-6714866D01*
X74642984Y-6714866D02*
X74576317Y-6748200D01*
X74576317Y-6748200D02*
X74542984Y-6781533D01*
X74542984Y-6781533D02*
X74509651Y-6848200D01*
X74509651Y-6848200D02*
X74509651Y-7048200D01*
X74509651Y-7048200D02*
X74542984Y-7114866D01*
X74542984Y-7114866D02*
X74576317Y-7148200D01*
X74576317Y-7148200D02*
X74642984Y-7181533D01*
X74642984Y-7181533D02*
X74742984Y-7181533D01*
X74109651Y-7181533D02*
X74176318Y-7148200D01*
X74176318Y-7148200D02*
X74209651Y-7081533D01*
X74209651Y-7081533D02*
X74209651Y-6481533D01*
X73742984Y-7181533D02*
X73809651Y-7148200D01*
X73809651Y-7148200D02*
X73842984Y-7081533D01*
X73842984Y-7081533D02*
X73842984Y-6481533D01*
X73209650Y-7148200D02*
X73276317Y-7181533D01*
X73276317Y-7181533D02*
X73409650Y-7181533D01*
X73409650Y-7181533D02*
X73476317Y-7148200D01*
X73476317Y-7148200D02*
X73509650Y-7081533D01*
X73509650Y-7081533D02*
X73509650Y-6814866D01*
X73509650Y-6814866D02*
X73476317Y-6748200D01*
X73476317Y-6748200D02*
X73409650Y-6714866D01*
X73409650Y-6714866D02*
X73276317Y-6714866D01*
X73276317Y-6714866D02*
X73209650Y-6748200D01*
X73209650Y-6748200D02*
X73176317Y-6814866D01*
X73176317Y-6814866D02*
X73176317Y-6881533D01*
X73176317Y-6881533D02*
X73509650Y-6948200D01*
X72876317Y-7181533D02*
X72876317Y-6714866D01*
X72876317Y-6848200D02*
X72842984Y-6781533D01*
X72842984Y-6781533D02*
X72809650Y-6748200D01*
X72809650Y-6748200D02*
X72742984Y-6714866D01*
X72742984Y-6714866D02*
X72676317Y-6714866D01*
X72009651Y-6714866D02*
X71742984Y-6714866D01*
X71909651Y-7181533D02*
X71909651Y-6581533D01*
X71909651Y-6581533D02*
X71876318Y-6514866D01*
X71876318Y-6514866D02*
X71809651Y-6481533D01*
X71809651Y-6481533D02*
X71742984Y-6481533D01*
X71409651Y-7181533D02*
X71476318Y-7148200D01*
X71476318Y-7148200D02*
X71509651Y-7114866D01*
X71509651Y-7114866D02*
X71542984Y-7048200D01*
X71542984Y-7048200D02*
X71542984Y-6848200D01*
X71542984Y-6848200D02*
X71509651Y-6781533D01*
X71509651Y-6781533D02*
X71476318Y-6748200D01*
X71476318Y-6748200D02*
X71409651Y-6714866D01*
X71409651Y-6714866D02*
X71309651Y-6714866D01*
X71309651Y-6714866D02*
X71242984Y-6748200D01*
X71242984Y-6748200D02*
X71209651Y-6781533D01*
X71209651Y-6781533D02*
X71176318Y-6848200D01*
X71176318Y-6848200D02*
X71176318Y-7048200D01*
X71176318Y-7048200D02*
X71209651Y-7114866D01*
X71209651Y-7114866D02*
X71242984Y-7148200D01*
X71242984Y-7148200D02*
X71309651Y-7181533D01*
X71309651Y-7181533D02*
X71409651Y-7181533D01*
X70876318Y-7181533D02*
X70876318Y-6714866D01*
X70876318Y-6848200D02*
X70842985Y-6781533D01*
X70842985Y-6781533D02*
X70809651Y-6748200D01*
X70809651Y-6748200D02*
X70742985Y-6714866D01*
X70742985Y-6714866D02*
X70676318Y-6714866D01*
X69542985Y-6514866D02*
X69609652Y-6481533D01*
X69609652Y-6481533D02*
X69709652Y-6481533D01*
X69709652Y-6481533D02*
X69809652Y-6514866D01*
X69809652Y-6514866D02*
X69876319Y-6581533D01*
X69876319Y-6581533D02*
X69909652Y-6648200D01*
X69909652Y-6648200D02*
X69942985Y-6781533D01*
X69942985Y-6781533D02*
X69942985Y-6881533D01*
X69942985Y-6881533D02*
X69909652Y-7014866D01*
X69909652Y-7014866D02*
X69876319Y-7081533D01*
X69876319Y-7081533D02*
X69809652Y-7148200D01*
X69809652Y-7148200D02*
X69709652Y-7181533D01*
X69709652Y-7181533D02*
X69642985Y-7181533D01*
X69642985Y-7181533D02*
X69542985Y-7148200D01*
X69542985Y-7148200D02*
X69509652Y-7114866D01*
X69509652Y-7114866D02*
X69509652Y-6881533D01*
X69509652Y-6881533D02*
X69642985Y-6881533D01*
X68942985Y-7148200D02*
X69009652Y-7181533D01*
X69009652Y-7181533D02*
X69142985Y-7181533D01*
X69142985Y-7181533D02*
X69209652Y-7148200D01*
X69209652Y-7148200D02*
X69242985Y-7081533D01*
X69242985Y-7081533D02*
X69242985Y-6814866D01*
X69242985Y-6814866D02*
X69209652Y-6748200D01*
X69209652Y-6748200D02*
X69142985Y-6714866D01*
X69142985Y-6714866D02*
X69009652Y-6714866D01*
X69009652Y-6714866D02*
X68942985Y-6748200D01*
X68942985Y-6748200D02*
X68909652Y-6814866D01*
X68909652Y-6814866D02*
X68909652Y-6881533D01*
X68909652Y-6881533D02*
X69242985Y-6948200D01*
X68609652Y-6714866D02*
X68609652Y-7181533D01*
X68609652Y-6781533D02*
X68576319Y-6748200D01*
X68576319Y-6748200D02*
X68509652Y-6714866D01*
X68509652Y-6714866D02*
X68409652Y-6714866D01*
X68409652Y-6714866D02*
X68342985Y-6748200D01*
X68342985Y-6748200D02*
X68309652Y-6814866D01*
X68309652Y-6814866D02*
X68309652Y-7181533D01*
X68009652Y-7148200D02*
X67942986Y-7181533D01*
X67942986Y-7181533D02*
X67809652Y-7181533D01*
X67809652Y-7181533D02*
X67742986Y-7148200D01*
X67742986Y-7148200D02*
X67709652Y-7081533D01*
X67709652Y-7081533D02*
X67709652Y-7048200D01*
X67709652Y-7048200D02*
X67742986Y-6981533D01*
X67742986Y-6981533D02*
X67809652Y-6948200D01*
X67809652Y-6948200D02*
X67909652Y-6948200D01*
X67909652Y-6948200D02*
X67976319Y-6914866D01*
X67976319Y-6914866D02*
X68009652Y-6848200D01*
X68009652Y-6848200D02*
X68009652Y-6814866D01*
X68009652Y-6814866D02*
X67976319Y-6748200D01*
X67976319Y-6748200D02*
X67909652Y-6714866D01*
X67909652Y-6714866D02*
X67809652Y-6714866D01*
X67809652Y-6714866D02*
X67742986Y-6748200D01*
X67409652Y-7181533D02*
X67409652Y-6481533D01*
X67109652Y-7181533D02*
X67109652Y-6814866D01*
X67109652Y-6814866D02*
X67142985Y-6748200D01*
X67142985Y-6748200D02*
X67209652Y-6714866D01*
X67209652Y-6714866D02*
X67309652Y-6714866D01*
X67309652Y-6714866D02*
X67376319Y-6748200D01*
X67376319Y-6748200D02*
X67409652Y-6781533D01*
X66776319Y-7181533D02*
X66776319Y-6714866D01*
X66776319Y-6481533D02*
X66809652Y-6514866D01*
X66809652Y-6514866D02*
X66776319Y-6548200D01*
X66776319Y-6548200D02*
X66742986Y-6514866D01*
X66742986Y-6514866D02*
X66776319Y-6481533D01*
X66776319Y-6481533D02*
X66776319Y-6548200D01*
X66442986Y-6714866D02*
X66442986Y-7181533D01*
X66442986Y-6781533D02*
X66409653Y-6748200D01*
X66409653Y-6748200D02*
X66342986Y-6714866D01*
X66342986Y-6714866D02*
X66242986Y-6714866D01*
X66242986Y-6714866D02*
X66176319Y-6748200D01*
X66176319Y-6748200D02*
X66142986Y-6814866D01*
X66142986Y-6814866D02*
X66142986Y-7181533D01*
X65809653Y-6914866D02*
X65276320Y-6914866D01*
X64942986Y-7181533D02*
X64942986Y-6714866D01*
X64942986Y-6481533D02*
X64976319Y-6514866D01*
X64976319Y-6514866D02*
X64942986Y-6548200D01*
X64942986Y-6548200D02*
X64909653Y-6514866D01*
X64909653Y-6514866D02*
X64942986Y-6481533D01*
X64942986Y-6481533D02*
X64942986Y-6548200D01*
X64609653Y-7181533D02*
X64609653Y-6714866D01*
X64609653Y-6781533D02*
X64576320Y-6748200D01*
X64576320Y-6748200D02*
X64509653Y-6714866D01*
X64509653Y-6714866D02*
X64409653Y-6714866D01*
X64409653Y-6714866D02*
X64342986Y-6748200D01*
X64342986Y-6748200D02*
X64309653Y-6814866D01*
X64309653Y-6814866D02*
X64309653Y-7181533D01*
X64309653Y-6814866D02*
X64276320Y-6748200D01*
X64276320Y-6748200D02*
X64209653Y-6714866D01*
X64209653Y-6714866D02*
X64109653Y-6714866D01*
X64109653Y-6714866D02*
X64042986Y-6748200D01*
X64042986Y-6748200D02*
X64009653Y-6814866D01*
X64009653Y-6814866D02*
X64009653Y-7181533D01*
X63676320Y-6714866D02*
X63676320Y-7414866D01*
X63676320Y-6748200D02*
X63609653Y-6714866D01*
X63609653Y-6714866D02*
X63476320Y-6714866D01*
X63476320Y-6714866D02*
X63409653Y-6748200D01*
X63409653Y-6748200D02*
X63376320Y-6781533D01*
X63376320Y-6781533D02*
X63342987Y-6848200D01*
X63342987Y-6848200D02*
X63342987Y-7048200D01*
X63342987Y-7048200D02*
X63376320Y-7114866D01*
X63376320Y-7114866D02*
X63409653Y-7148200D01*
X63409653Y-7148200D02*
X63476320Y-7181533D01*
X63476320Y-7181533D02*
X63609653Y-7181533D01*
X63609653Y-7181533D02*
X63676320Y-7148200D01*
X62742987Y-7181533D02*
X62742987Y-6814866D01*
X62742987Y-6814866D02*
X62776320Y-6748200D01*
X62776320Y-6748200D02*
X62842987Y-6714866D01*
X62842987Y-6714866D02*
X62976320Y-6714866D01*
X62976320Y-6714866D02*
X63042987Y-6748200D01*
X62742987Y-7148200D02*
X62809654Y-7181533D01*
X62809654Y-7181533D02*
X62976320Y-7181533D01*
X62976320Y-7181533D02*
X63042987Y-7148200D01*
X63042987Y-7148200D02*
X63076320Y-7081533D01*
X63076320Y-7081533D02*
X63076320Y-7014866D01*
X63076320Y-7014866D02*
X63042987Y-6948200D01*
X63042987Y-6948200D02*
X62976320Y-6914866D01*
X62976320Y-6914866D02*
X62809654Y-6914866D01*
X62809654Y-6914866D02*
X62742987Y-6881533D01*
X62109654Y-7148200D02*
X62176321Y-7181533D01*
X62176321Y-7181533D02*
X62309654Y-7181533D01*
X62309654Y-7181533D02*
X62376321Y-7148200D01*
X62376321Y-7148200D02*
X62409654Y-7114866D01*
X62409654Y-7114866D02*
X62442987Y-7048200D01*
X62442987Y-7048200D02*
X62442987Y-6848200D01*
X62442987Y-6848200D02*
X62409654Y-6781533D01*
X62409654Y-6781533D02*
X62376321Y-6748200D01*
X62376321Y-6748200D02*
X62309654Y-6714866D01*
X62309654Y-6714866D02*
X62176321Y-6714866D01*
X62176321Y-6714866D02*
X62109654Y-6748200D01*
X61909654Y-6714866D02*
X61642987Y-6714866D01*
X61809654Y-6481533D02*
X61809654Y-7081533D01*
X61809654Y-7081533D02*
X61776321Y-7148200D01*
X61776321Y-7148200D02*
X61709654Y-7181533D01*
X61709654Y-7181533D02*
X61642987Y-7181533D01*
X61409654Y-6914866D02*
X60876321Y-6914866D01*
X60442987Y-7181533D02*
X60509654Y-7148200D01*
X60509654Y-7148200D02*
X60542987Y-7081533D01*
X60542987Y-7081533D02*
X60542987Y-6481533D01*
X60176320Y-7181533D02*
X60176320Y-6714866D01*
X60176320Y-6481533D02*
X60209653Y-6514866D01*
X60209653Y-6514866D02*
X60176320Y-6548200D01*
X60176320Y-6548200D02*
X60142987Y-6514866D01*
X60142987Y-6514866D02*
X60176320Y-6481533D01*
X60176320Y-6481533D02*
X60176320Y-6548200D01*
X59842987Y-7181533D02*
X59842987Y-6481533D01*
X59776320Y-6914866D02*
X59576320Y-7181533D01*
X59576320Y-6714866D02*
X59842987Y-6981533D01*
X59009653Y-7148200D02*
X59076320Y-7181533D01*
X59076320Y-7181533D02*
X59209653Y-7181533D01*
X59209653Y-7181533D02*
X59276320Y-7148200D01*
X59276320Y-7148200D02*
X59309653Y-7081533D01*
X59309653Y-7081533D02*
X59309653Y-6814866D01*
X59309653Y-6814866D02*
X59276320Y-6748200D01*
X59276320Y-6748200D02*
X59209653Y-6714866D01*
X59209653Y-6714866D02*
X59076320Y-6714866D01*
X59076320Y-6714866D02*
X59009653Y-6748200D01*
X59009653Y-6748200D02*
X58976320Y-6814866D01*
X58976320Y-6814866D02*
X58976320Y-6881533D01*
X58976320Y-6881533D02*
X59309653Y-6948200D01*
X57842987Y-6714866D02*
X57842987Y-7281533D01*
X57842987Y-7281533D02*
X57876320Y-7348200D01*
X57876320Y-7348200D02*
X57909654Y-7381533D01*
X57909654Y-7381533D02*
X57976320Y-7414866D01*
X57976320Y-7414866D02*
X58076320Y-7414866D01*
X58076320Y-7414866D02*
X58142987Y-7381533D01*
X57842987Y-7148200D02*
X57909654Y-7181533D01*
X57909654Y-7181533D02*
X58042987Y-7181533D01*
X58042987Y-7181533D02*
X58109654Y-7148200D01*
X58109654Y-7148200D02*
X58142987Y-7114866D01*
X58142987Y-7114866D02*
X58176320Y-7048200D01*
X58176320Y-7048200D02*
X58176320Y-6848200D01*
X58176320Y-6848200D02*
X58142987Y-6781533D01*
X58142987Y-6781533D02*
X58109654Y-6748200D01*
X58109654Y-6748200D02*
X58042987Y-6714866D01*
X58042987Y-6714866D02*
X57909654Y-6714866D01*
X57909654Y-6714866D02*
X57842987Y-6748200D01*
X57209654Y-7181533D02*
X57209654Y-6814866D01*
X57209654Y-6814866D02*
X57242987Y-6748200D01*
X57242987Y-6748200D02*
X57309654Y-6714866D01*
X57309654Y-6714866D02*
X57442987Y-6714866D01*
X57442987Y-6714866D02*
X57509654Y-6748200D01*
X57209654Y-7148200D02*
X57276321Y-7181533D01*
X57276321Y-7181533D02*
X57442987Y-7181533D01*
X57442987Y-7181533D02*
X57509654Y-7148200D01*
X57509654Y-7148200D02*
X57542987Y-7081533D01*
X57542987Y-7081533D02*
X57542987Y-7014866D01*
X57542987Y-7014866D02*
X57509654Y-6948200D01*
X57509654Y-6948200D02*
X57442987Y-6914866D01*
X57442987Y-6914866D02*
X57276321Y-6914866D01*
X57276321Y-6914866D02*
X57209654Y-6881533D01*
X56876321Y-7181533D02*
X56876321Y-6714866D01*
X56876321Y-6781533D02*
X56842988Y-6748200D01*
X56842988Y-6748200D02*
X56776321Y-6714866D01*
X56776321Y-6714866D02*
X56676321Y-6714866D01*
X56676321Y-6714866D02*
X56609654Y-6748200D01*
X56609654Y-6748200D02*
X56576321Y-6814866D01*
X56576321Y-6814866D02*
X56576321Y-7181533D01*
X56576321Y-6814866D02*
X56542988Y-6748200D01*
X56542988Y-6748200D02*
X56476321Y-6714866D01*
X56476321Y-6714866D02*
X56376321Y-6714866D01*
X56376321Y-6714866D02*
X56309654Y-6748200D01*
X56309654Y-6748200D02*
X56276321Y-6814866D01*
X56276321Y-6814866D02*
X56276321Y-7181533D01*
X55676321Y-7148200D02*
X55742988Y-7181533D01*
X55742988Y-7181533D02*
X55876321Y-7181533D01*
X55876321Y-7181533D02*
X55942988Y-7148200D01*
X55942988Y-7148200D02*
X55976321Y-7081533D01*
X55976321Y-7081533D02*
X55976321Y-6814866D01*
X55976321Y-6814866D02*
X55942988Y-6748200D01*
X55942988Y-6748200D02*
X55876321Y-6714866D01*
X55876321Y-6714866D02*
X55742988Y-6714866D01*
X55742988Y-6714866D02*
X55676321Y-6748200D01*
X55676321Y-6748200D02*
X55642988Y-6814866D01*
X55642988Y-6814866D02*
X55642988Y-6881533D01*
X55642988Y-6881533D02*
X55976321Y-6948200D01*
X55376321Y-7148200D02*
X55309655Y-7181533D01*
X55309655Y-7181533D02*
X55176321Y-7181533D01*
X55176321Y-7181533D02*
X55109655Y-7148200D01*
X55109655Y-7148200D02*
X55076321Y-7081533D01*
X55076321Y-7081533D02*
X55076321Y-7048200D01*
X55076321Y-7048200D02*
X55109655Y-6981533D01*
X55109655Y-6981533D02*
X55176321Y-6948200D01*
X55176321Y-6948200D02*
X55276321Y-6948200D01*
X55276321Y-6948200D02*
X55342988Y-6914866D01*
X55342988Y-6914866D02*
X55376321Y-6848200D01*
X55376321Y-6848200D02*
X55376321Y-6814866D01*
X55376321Y-6814866D02*
X55342988Y-6748200D01*
X55342988Y-6748200D02*
X55276321Y-6714866D01*
X55276321Y-6714866D02*
X55176321Y-6714866D01*
X55176321Y-6714866D02*
X55109655Y-6748200D01*
X54776321Y-7114866D02*
X54742988Y-7148200D01*
X54742988Y-7148200D02*
X54776321Y-7181533D01*
X54776321Y-7181533D02*
X54809654Y-7148200D01*
X54809654Y-7148200D02*
X54776321Y-7114866D01*
X54776321Y-7114866D02*
X54776321Y-7181533D01*
D11*
X74485652Y-5334438D02*
X74485652Y-3334438D01*
X74485652Y-3334438D02*
X73723747Y-3334438D01*
X73723747Y-3334438D02*
X73533271Y-3429676D01*
X73533271Y-3429676D02*
X73438033Y-3524914D01*
X73438033Y-3524914D02*
X73342795Y-3715390D01*
X73342795Y-3715390D02*
X73342795Y-4001104D01*
X73342795Y-4001104D02*
X73438033Y-4191580D01*
X73438033Y-4191580D02*
X73533271Y-4286819D01*
X73533271Y-4286819D02*
X73723747Y-4382057D01*
X73723747Y-4382057D02*
X74485652Y-4382057D01*
X72485652Y-5334438D02*
X72485652Y-3334438D01*
X72485652Y-4286819D02*
X71342795Y-4286819D01*
X71342795Y-5334438D02*
X71342795Y-3334438D01*
X70390414Y-4572533D02*
X68866605Y-4572533D01*
X68009462Y-4763009D02*
X67057081Y-4763009D01*
X68199938Y-5334438D02*
X67533272Y-3334438D01*
X67533272Y-3334438D02*
X66866605Y-5334438D01*
X65057081Y-5143961D02*
X65152319Y-5239200D01*
X65152319Y-5239200D02*
X65438033Y-5334438D01*
X65438033Y-5334438D02*
X65628509Y-5334438D01*
X65628509Y-5334438D02*
X65914224Y-5239200D01*
X65914224Y-5239200D02*
X66104700Y-5048723D01*
X66104700Y-5048723D02*
X66199938Y-4858247D01*
X66199938Y-4858247D02*
X66295176Y-4477295D01*
X66295176Y-4477295D02*
X66295176Y-4191580D01*
X66295176Y-4191580D02*
X66199938Y-3810628D01*
X66199938Y-3810628D02*
X66104700Y-3620152D01*
X66104700Y-3620152D02*
X65914224Y-3429676D01*
X65914224Y-3429676D02*
X65628509Y-3334438D01*
X65628509Y-3334438D02*
X65438033Y-3334438D01*
X65438033Y-3334438D02*
X65152319Y-3429676D01*
X65152319Y-3429676D02*
X65057081Y-3524914D01*
D12*
X66131297Y-16468519D02*
X65940821Y-16468519D01*
X65940821Y-16468519D02*
X65845583Y-16516138D01*
X65845583Y-16516138D02*
X65750345Y-16611376D01*
X65750345Y-16611376D02*
X65702726Y-16801852D01*
X65702726Y-16801852D02*
X65702726Y-17135185D01*
X65702726Y-17135185D02*
X65750345Y-17325661D01*
X65750345Y-17325661D02*
X65845583Y-17420900D01*
X65845583Y-17420900D02*
X65940821Y-17468519D01*
X65940821Y-17468519D02*
X66131297Y-17468519D01*
X66131297Y-17468519D02*
X66226535Y-17420900D01*
X66226535Y-17420900D02*
X66321773Y-17325661D01*
X66321773Y-17325661D02*
X66369392Y-17135185D01*
X66369392Y-17135185D02*
X66369392Y-16801852D01*
X66369392Y-16801852D02*
X66321773Y-16611376D01*
X66321773Y-16611376D02*
X66226535Y-16516138D01*
X66226535Y-16516138D02*
X66131297Y-16468519D01*
X65417011Y-16801852D02*
X65036059Y-16801852D01*
X65274154Y-17468519D02*
X65274154Y-16611376D01*
X65274154Y-16611376D02*
X65226535Y-16516138D01*
X65226535Y-16516138D02*
X65131297Y-16468519D01*
X65131297Y-16468519D02*
X65036059Y-16468519D01*
X64845582Y-16801852D02*
X64464630Y-16801852D01*
X64702725Y-17468519D02*
X64702725Y-16611376D01*
X64702725Y-16611376D02*
X64655106Y-16516138D01*
X64655106Y-16516138D02*
X64559868Y-16468519D01*
X64559868Y-16468519D02*
X64464630Y-16468519D01*
X64131296Y-17468519D02*
X64131296Y-16801852D01*
X64131296Y-16468519D02*
X64178915Y-16516138D01*
X64178915Y-16516138D02*
X64131296Y-16563757D01*
X64131296Y-16563757D02*
X64083677Y-16516138D01*
X64083677Y-16516138D02*
X64131296Y-16468519D01*
X64131296Y-16468519D02*
X64131296Y-16563757D01*
X63226535Y-17420900D02*
X63321773Y-17468519D01*
X63321773Y-17468519D02*
X63512249Y-17468519D01*
X63512249Y-17468519D02*
X63607487Y-17420900D01*
X63607487Y-17420900D02*
X63655106Y-17373280D01*
X63655106Y-17373280D02*
X63702725Y-17278042D01*
X63702725Y-17278042D02*
X63702725Y-16992328D01*
X63702725Y-16992328D02*
X63655106Y-16897090D01*
X63655106Y-16897090D02*
X63607487Y-16849471D01*
X63607487Y-16849471D02*
X63512249Y-16801852D01*
X63512249Y-16801852D02*
X63321773Y-16801852D01*
X63321773Y-16801852D02*
X63226535Y-16849471D01*
X62797963Y-17468519D02*
X62797963Y-16801852D01*
X62797963Y-16468519D02*
X62845582Y-16516138D01*
X62845582Y-16516138D02*
X62797963Y-16563757D01*
X62797963Y-16563757D02*
X62750344Y-16516138D01*
X62750344Y-16516138D02*
X62797963Y-16468519D01*
X62797963Y-16468519D02*
X62797963Y-16563757D01*
X61893202Y-17468519D02*
X61893202Y-16944709D01*
X61893202Y-16944709D02*
X61940821Y-16849471D01*
X61940821Y-16849471D02*
X62036059Y-16801852D01*
X62036059Y-16801852D02*
X62226535Y-16801852D01*
X62226535Y-16801852D02*
X62321773Y-16849471D01*
X61893202Y-17420900D02*
X61988440Y-17468519D01*
X61988440Y-17468519D02*
X62226535Y-17468519D01*
X62226535Y-17468519D02*
X62321773Y-17420900D01*
X62321773Y-17420900D02*
X62369392Y-17325661D01*
X62369392Y-17325661D02*
X62369392Y-17230423D01*
X62369392Y-17230423D02*
X62321773Y-17135185D01*
X62321773Y-17135185D02*
X62226535Y-17087566D01*
X62226535Y-17087566D02*
X61988440Y-17087566D01*
X61988440Y-17087566D02*
X61893202Y-17039947D01*
X61274154Y-17468519D02*
X61369392Y-17420900D01*
X61369392Y-17420900D02*
X61417011Y-17325661D01*
X61417011Y-17325661D02*
X61417011Y-16468519D01*
X60226534Y-16468519D02*
X59988439Y-17468519D01*
X59988439Y-17468519D02*
X59797963Y-16754233D01*
X59797963Y-16754233D02*
X59607487Y-17468519D01*
X59607487Y-17468519D02*
X59369392Y-16468519D01*
X58607487Y-17420900D02*
X58702725Y-17468519D01*
X58702725Y-17468519D02*
X58893201Y-17468519D01*
X58893201Y-17468519D02*
X58988439Y-17420900D01*
X58988439Y-17420900D02*
X59036058Y-17325661D01*
X59036058Y-17325661D02*
X59036058Y-16944709D01*
X59036058Y-16944709D02*
X58988439Y-16849471D01*
X58988439Y-16849471D02*
X58893201Y-16801852D01*
X58893201Y-16801852D02*
X58702725Y-16801852D01*
X58702725Y-16801852D02*
X58607487Y-16849471D01*
X58607487Y-16849471D02*
X58559868Y-16944709D01*
X58559868Y-16944709D02*
X58559868Y-17039947D01*
X58559868Y-17039947D02*
X59036058Y-17135185D01*
X58131296Y-17468519D02*
X58131296Y-16468519D01*
X58131296Y-16849471D02*
X58036058Y-16801852D01*
X58036058Y-16801852D02*
X57845582Y-16801852D01*
X57845582Y-16801852D02*
X57750344Y-16849471D01*
X57750344Y-16849471D02*
X57702725Y-16897090D01*
X57702725Y-16897090D02*
X57655106Y-16992328D01*
X57655106Y-16992328D02*
X57655106Y-17278042D01*
X57655106Y-17278042D02*
X57702725Y-17373280D01*
X57702725Y-17373280D02*
X57750344Y-17420900D01*
X57750344Y-17420900D02*
X57845582Y-17468519D01*
X57845582Y-17468519D02*
X58036058Y-17468519D01*
X58036058Y-17468519D02*
X58131296Y-17420900D01*
X57274153Y-17420900D02*
X57178915Y-17468519D01*
X57178915Y-17468519D02*
X56988439Y-17468519D01*
X56988439Y-17468519D02*
X56893201Y-17420900D01*
X56893201Y-17420900D02*
X56845582Y-17325661D01*
X56845582Y-17325661D02*
X56845582Y-17278042D01*
X56845582Y-17278042D02*
X56893201Y-17182804D01*
X56893201Y-17182804D02*
X56988439Y-17135185D01*
X56988439Y-17135185D02*
X57131296Y-17135185D01*
X57131296Y-17135185D02*
X57226534Y-17087566D01*
X57226534Y-17087566D02*
X57274153Y-16992328D01*
X57274153Y-16992328D02*
X57274153Y-16944709D01*
X57274153Y-16944709D02*
X57226534Y-16849471D01*
X57226534Y-16849471D02*
X57131296Y-16801852D01*
X57131296Y-16801852D02*
X56988439Y-16801852D01*
X56988439Y-16801852D02*
X56893201Y-16849471D01*
X56417010Y-17468519D02*
X56417010Y-16801852D01*
X56417010Y-16468519D02*
X56464629Y-16516138D01*
X56464629Y-16516138D02*
X56417010Y-16563757D01*
X56417010Y-16563757D02*
X56369391Y-16516138D01*
X56369391Y-16516138D02*
X56417010Y-16468519D01*
X56417010Y-16468519D02*
X56417010Y-16563757D01*
X56083677Y-16801852D02*
X55702725Y-16801852D01*
X55940820Y-16468519D02*
X55940820Y-17325661D01*
X55940820Y-17325661D02*
X55893201Y-17420900D01*
X55893201Y-17420900D02*
X55797963Y-17468519D01*
X55797963Y-17468519D02*
X55702725Y-17468519D01*
X54988439Y-17420900D02*
X55083677Y-17468519D01*
X55083677Y-17468519D02*
X55274153Y-17468519D01*
X55274153Y-17468519D02*
X55369391Y-17420900D01*
X55369391Y-17420900D02*
X55417010Y-17325661D01*
X55417010Y-17325661D02*
X55417010Y-16944709D01*
X55417010Y-16944709D02*
X55369391Y-16849471D01*
X55369391Y-16849471D02*
X55274153Y-16801852D01*
X55274153Y-16801852D02*
X55083677Y-16801852D01*
X55083677Y-16801852D02*
X54988439Y-16849471D01*
X54988439Y-16849471D02*
X54940820Y-16944709D01*
X54940820Y-16944709D02*
X54940820Y-17039947D01*
X54940820Y-17039947D02*
X55417010Y-17135185D01*
D13*
X82912719Y-21758093D02*
X82579386Y-21758093D01*
X82979386Y-21958093D02*
X82746053Y-21258093D01*
X82746053Y-21258093D02*
X82512719Y-21958093D01*
X82179386Y-21958093D02*
X82246053Y-21924760D01*
X82246053Y-21924760D02*
X82279386Y-21858093D01*
X82279386Y-21858093D02*
X82279386Y-21258093D01*
X82012719Y-21491426D02*
X81746052Y-21491426D01*
X81912719Y-21258093D02*
X81912719Y-21858093D01*
X81912719Y-21858093D02*
X81879386Y-21924760D01*
X81879386Y-21924760D02*
X81812719Y-21958093D01*
X81812719Y-21958093D02*
X81746052Y-21958093D01*
X81512719Y-21691426D02*
X80979386Y-21691426D01*
X80512719Y-21258093D02*
X80446052Y-21258093D01*
X80446052Y-21258093D02*
X80379385Y-21291426D01*
X80379385Y-21291426D02*
X80346052Y-21324760D01*
X80346052Y-21324760D02*
X80312719Y-21391426D01*
X80312719Y-21391426D02*
X80279385Y-21524760D01*
X80279385Y-21524760D02*
X80279385Y-21691426D01*
X80279385Y-21691426D02*
X80312719Y-21824760D01*
X80312719Y-21824760D02*
X80346052Y-21891426D01*
X80346052Y-21891426D02*
X80379385Y-21924760D01*
X80379385Y-21924760D02*
X80446052Y-21958093D01*
X80446052Y-21958093D02*
X80512719Y-21958093D01*
X80512719Y-21958093D02*
X80579385Y-21924760D01*
X80579385Y-21924760D02*
X80612719Y-21891426D01*
X80612719Y-21891426D02*
X80646052Y-21824760D01*
X80646052Y-21824760D02*
X80679385Y-21691426D01*
X80679385Y-21691426D02*
X80679385Y-21524760D01*
X80679385Y-21524760D02*
X80646052Y-21391426D01*
X80646052Y-21391426D02*
X80612719Y-21324760D01*
X80612719Y-21324760D02*
X80579385Y-21291426D01*
X80579385Y-21291426D02*
X80512719Y-21258093D01*
X79612718Y-21958093D02*
X80012718Y-21958093D01*
X79812718Y-21958093D02*
X79812718Y-21258093D01*
X79812718Y-21258093D02*
X79879385Y-21358093D01*
X79879385Y-21358093D02*
X79946052Y-21424760D01*
X79946052Y-21424760D02*
X80012718Y-21458093D01*
X79279385Y-21958093D02*
X79146051Y-21958093D01*
X79146051Y-21958093D02*
X79079385Y-21924760D01*
X79079385Y-21924760D02*
X79046051Y-21891426D01*
X79046051Y-21891426D02*
X78979385Y-21791426D01*
X78979385Y-21791426D02*
X78946051Y-21658093D01*
X78946051Y-21658093D02*
X78946051Y-21391426D01*
X78946051Y-21391426D02*
X78979385Y-21324760D01*
X78979385Y-21324760D02*
X79012718Y-21291426D01*
X79012718Y-21291426D02*
X79079385Y-21258093D01*
X79079385Y-21258093D02*
X79212718Y-21258093D01*
X79212718Y-21258093D02*
X79279385Y-21291426D01*
X79279385Y-21291426D02*
X79312718Y-21324760D01*
X79312718Y-21324760D02*
X79346051Y-21391426D01*
X79346051Y-21391426D02*
X79346051Y-21558093D01*
X79346051Y-21558093D02*
X79312718Y-21624760D01*
X79312718Y-21624760D02*
X79279385Y-21658093D01*
X79279385Y-21658093D02*
X79212718Y-21691426D01*
X79212718Y-21691426D02*
X79079385Y-21691426D01*
X79079385Y-21691426D02*
X79012718Y-21658093D01*
X79012718Y-21658093D02*
X78979385Y-21624760D01*
X78979385Y-21624760D02*
X78946051Y-21558093D01*
X78279384Y-21958093D02*
X78679384Y-21958093D01*
X78479384Y-21958093D02*
X78479384Y-21258093D01*
X78479384Y-21258093D02*
X78546051Y-21358093D01*
X78546051Y-21358093D02*
X78612718Y-21424760D01*
X78612718Y-21424760D02*
X78679384Y-21458093D01*
X82979386Y-20191426D02*
X82979386Y-20658093D01*
X82979386Y-20258093D02*
X82946053Y-20224760D01*
X82946053Y-20224760D02*
X82879386Y-20191426D01*
X82879386Y-20191426D02*
X82779386Y-20191426D01*
X82779386Y-20191426D02*
X82712719Y-20224760D01*
X82712719Y-20224760D02*
X82679386Y-20291426D01*
X82679386Y-20291426D02*
X82679386Y-20658093D01*
X82246053Y-20658093D02*
X82312720Y-20624760D01*
X82312720Y-20624760D02*
X82346053Y-20591426D01*
X82346053Y-20591426D02*
X82379386Y-20524760D01*
X82379386Y-20524760D02*
X82379386Y-20324760D01*
X82379386Y-20324760D02*
X82346053Y-20258093D01*
X82346053Y-20258093D02*
X82312720Y-20224760D01*
X82312720Y-20224760D02*
X82246053Y-20191426D01*
X82246053Y-20191426D02*
X82146053Y-20191426D01*
X82146053Y-20191426D02*
X82079386Y-20224760D01*
X82079386Y-20224760D02*
X82046053Y-20258093D01*
X82046053Y-20258093D02*
X82012720Y-20324760D01*
X82012720Y-20324760D02*
X82012720Y-20524760D01*
X82012720Y-20524760D02*
X82046053Y-20591426D01*
X82046053Y-20591426D02*
X82079386Y-20624760D01*
X82079386Y-20624760D02*
X82146053Y-20658093D01*
X82146053Y-20658093D02*
X82246053Y-20658093D01*
X81712720Y-20191426D02*
X81712720Y-20658093D01*
X81712720Y-20258093D02*
X81679387Y-20224760D01*
X81679387Y-20224760D02*
X81612720Y-20191426D01*
X81612720Y-20191426D02*
X81512720Y-20191426D01*
X81512720Y-20191426D02*
X81446053Y-20224760D01*
X81446053Y-20224760D02*
X81412720Y-20291426D01*
X81412720Y-20291426D02*
X81412720Y-20658093D01*
X80779387Y-20658093D02*
X80779387Y-20291426D01*
X80779387Y-20291426D02*
X80812720Y-20224760D01*
X80812720Y-20224760D02*
X80879387Y-20191426D01*
X80879387Y-20191426D02*
X81012720Y-20191426D01*
X81012720Y-20191426D02*
X81079387Y-20224760D01*
X80779387Y-20624760D02*
X80846054Y-20658093D01*
X80846054Y-20658093D02*
X81012720Y-20658093D01*
X81012720Y-20658093D02*
X81079387Y-20624760D01*
X81079387Y-20624760D02*
X81112720Y-20558093D01*
X81112720Y-20558093D02*
X81112720Y-20491426D01*
X81112720Y-20491426D02*
X81079387Y-20424760D01*
X81079387Y-20424760D02*
X81012720Y-20391426D01*
X81012720Y-20391426D02*
X80846054Y-20391426D01*
X80846054Y-20391426D02*
X80779387Y-20358093D01*
X80446054Y-20658093D02*
X80446054Y-20191426D01*
X80446054Y-20258093D02*
X80412721Y-20224760D01*
X80412721Y-20224760D02*
X80346054Y-20191426D01*
X80346054Y-20191426D02*
X80246054Y-20191426D01*
X80246054Y-20191426D02*
X80179387Y-20224760D01*
X80179387Y-20224760D02*
X80146054Y-20291426D01*
X80146054Y-20291426D02*
X80146054Y-20658093D01*
X80146054Y-20291426D02*
X80112721Y-20224760D01*
X80112721Y-20224760D02*
X80046054Y-20191426D01*
X80046054Y-20191426D02*
X79946054Y-20191426D01*
X79946054Y-20191426D02*
X79879387Y-20224760D01*
X79879387Y-20224760D02*
X79846054Y-20291426D01*
X79846054Y-20291426D02*
X79846054Y-20658093D01*
X79246054Y-20624760D02*
X79312721Y-20658093D01*
X79312721Y-20658093D02*
X79446054Y-20658093D01*
X79446054Y-20658093D02*
X79512721Y-20624760D01*
X79512721Y-20624760D02*
X79546054Y-20558093D01*
X79546054Y-20558093D02*
X79546054Y-20291426D01*
X79546054Y-20291426D02*
X79512721Y-20224760D01*
X79512721Y-20224760D02*
X79446054Y-20191426D01*
X79446054Y-20191426D02*
X79312721Y-20191426D01*
X79312721Y-20191426D02*
X79246054Y-20224760D01*
X79246054Y-20224760D02*
X79212721Y-20291426D01*
X79212721Y-20291426D02*
X79212721Y-20358093D01*
X79212721Y-20358093D02*
X79546054Y-20424760D01*
X79079388Y-20724760D02*
X78546054Y-20724760D01*
X77979388Y-20591426D02*
X78012721Y-20624760D01*
X78012721Y-20624760D02*
X78112721Y-20658093D01*
X78112721Y-20658093D02*
X78179388Y-20658093D01*
X78179388Y-20658093D02*
X78279388Y-20624760D01*
X78279388Y-20624760D02*
X78346055Y-20558093D01*
X78346055Y-20558093D02*
X78379388Y-20491426D01*
X78379388Y-20491426D02*
X78412721Y-20358093D01*
X78412721Y-20358093D02*
X78412721Y-20258093D01*
X78412721Y-20258093D02*
X78379388Y-20124760D01*
X78379388Y-20124760D02*
X78346055Y-20058093D01*
X78346055Y-20058093D02*
X78279388Y-19991426D01*
X78279388Y-19991426D02*
X78179388Y-19958093D01*
X78179388Y-19958093D02*
X78112721Y-19958093D01*
X78112721Y-19958093D02*
X78012721Y-19991426D01*
X78012721Y-19991426D02*
X77979388Y-20024760D01*
X83029386Y-19383093D02*
X83029386Y-18683093D01*
X83029386Y-18683093D02*
X82796053Y-19183093D01*
X82796053Y-19183093D02*
X82562719Y-18683093D01*
X82562719Y-18683093D02*
X82562719Y-19383093D01*
X82229386Y-19383093D02*
X82229386Y-18916426D01*
X82229386Y-18683093D02*
X82262719Y-18716426D01*
X82262719Y-18716426D02*
X82229386Y-18749760D01*
X82229386Y-18749760D02*
X82196053Y-18716426D01*
X82196053Y-18716426D02*
X82229386Y-18683093D01*
X82229386Y-18683093D02*
X82229386Y-18749760D01*
X81596053Y-19349760D02*
X81662720Y-19383093D01*
X81662720Y-19383093D02*
X81796053Y-19383093D01*
X81796053Y-19383093D02*
X81862720Y-19349760D01*
X81862720Y-19349760D02*
X81896053Y-19316426D01*
X81896053Y-19316426D02*
X81929386Y-19249760D01*
X81929386Y-19249760D02*
X81929386Y-19049760D01*
X81929386Y-19049760D02*
X81896053Y-18983093D01*
X81896053Y-18983093D02*
X81862720Y-18949760D01*
X81862720Y-18949760D02*
X81796053Y-18916426D01*
X81796053Y-18916426D02*
X81662720Y-18916426D01*
X81662720Y-18916426D02*
X81596053Y-18949760D01*
X81296053Y-19383093D02*
X81296053Y-18683093D01*
X80996053Y-19383093D02*
X80996053Y-19016426D01*
X80996053Y-19016426D02*
X81029386Y-18949760D01*
X81029386Y-18949760D02*
X81096053Y-18916426D01*
X81096053Y-18916426D02*
X81196053Y-18916426D01*
X81196053Y-18916426D02*
X81262720Y-18949760D01*
X81262720Y-18949760D02*
X81296053Y-18983093D01*
X80362720Y-19383093D02*
X80362720Y-19016426D01*
X80362720Y-19016426D02*
X80396053Y-18949760D01*
X80396053Y-18949760D02*
X80462720Y-18916426D01*
X80462720Y-18916426D02*
X80596053Y-18916426D01*
X80596053Y-18916426D02*
X80662720Y-18949760D01*
X80362720Y-19349760D02*
X80429387Y-19383093D01*
X80429387Y-19383093D02*
X80596053Y-19383093D01*
X80596053Y-19383093D02*
X80662720Y-19349760D01*
X80662720Y-19349760D02*
X80696053Y-19283093D01*
X80696053Y-19283093D02*
X80696053Y-19216426D01*
X80696053Y-19216426D02*
X80662720Y-19149760D01*
X80662720Y-19149760D02*
X80596053Y-19116426D01*
X80596053Y-19116426D02*
X80429387Y-19116426D01*
X80429387Y-19116426D02*
X80362720Y-19083093D01*
X79762720Y-19349760D02*
X79829387Y-19383093D01*
X79829387Y-19383093D02*
X79962720Y-19383093D01*
X79962720Y-19383093D02*
X80029387Y-19349760D01*
X80029387Y-19349760D02*
X80062720Y-19283093D01*
X80062720Y-19283093D02*
X80062720Y-19016426D01*
X80062720Y-19016426D02*
X80029387Y-18949760D01*
X80029387Y-18949760D02*
X79962720Y-18916426D01*
X79962720Y-18916426D02*
X79829387Y-18916426D01*
X79829387Y-18916426D02*
X79762720Y-18949760D01*
X79762720Y-18949760D02*
X79729387Y-19016426D01*
X79729387Y-19016426D02*
X79729387Y-19083093D01*
X79729387Y-19083093D02*
X80062720Y-19149760D01*
X79329387Y-19383093D02*
X79396054Y-19349760D01*
X79396054Y-19349760D02*
X79429387Y-19283093D01*
X79429387Y-19283093D02*
X79429387Y-18683093D01*
X79096053Y-19183093D02*
X78762720Y-19183093D01*
X79162720Y-19383093D02*
X78929387Y-18683093D01*
X78929387Y-18683093D02*
X78696053Y-19383093D01*
X78362720Y-19383093D02*
X78429387Y-19349760D01*
X78429387Y-19349760D02*
X78462720Y-19283093D01*
X78462720Y-19283093D02*
X78462720Y-18683093D01*
X78196053Y-18916426D02*
X77929386Y-18916426D01*
X78096053Y-18683093D02*
X78096053Y-19283093D01*
X78096053Y-19283093D02*
X78062720Y-19349760D01*
X78062720Y-19349760D02*
X77996053Y-19383093D01*
X77996053Y-19383093D02*
X77929386Y-19383093D01*
X77696053Y-19383093D02*
X77696053Y-18916426D01*
X77696053Y-18983093D02*
X77662720Y-18949760D01*
X77662720Y-18949760D02*
X77596053Y-18916426D01*
X77596053Y-18916426D02*
X77496053Y-18916426D01*
X77496053Y-18916426D02*
X77429386Y-18949760D01*
X77429386Y-18949760D02*
X77396053Y-19016426D01*
X77396053Y-19016426D02*
X77396053Y-19383093D01*
X77396053Y-19016426D02*
X77362720Y-18949760D01*
X77362720Y-18949760D02*
X77296053Y-18916426D01*
X77296053Y-18916426D02*
X77196053Y-18916426D01*
X77196053Y-18916426D02*
X77129386Y-18949760D01*
X77129386Y-18949760D02*
X77096053Y-19016426D01*
X77096053Y-19016426D02*
X77096053Y-19383093D01*
X76462720Y-19383093D02*
X76462720Y-19016426D01*
X76462720Y-19016426D02*
X76496053Y-18949760D01*
X76496053Y-18949760D02*
X76562720Y-18916426D01*
X76562720Y-18916426D02*
X76696053Y-18916426D01*
X76696053Y-18916426D02*
X76762720Y-18949760D01*
X76462720Y-19349760D02*
X76529387Y-19383093D01*
X76529387Y-19383093D02*
X76696053Y-19383093D01*
X76696053Y-19383093D02*
X76762720Y-19349760D01*
X76762720Y-19349760D02*
X76796053Y-19283093D01*
X76796053Y-19283093D02*
X76796053Y-19216426D01*
X76796053Y-19216426D02*
X76762720Y-19149760D01*
X76762720Y-19149760D02*
X76696053Y-19116426D01*
X76696053Y-19116426D02*
X76529387Y-19116426D01*
X76529387Y-19116426D02*
X76462720Y-19083093D01*
X76129387Y-18916426D02*
X76129387Y-19383093D01*
X76129387Y-18983093D02*
X76096054Y-18949760D01*
X76096054Y-18949760D02*
X76029387Y-18916426D01*
X76029387Y-18916426D02*
X75929387Y-18916426D01*
X75929387Y-18916426D02*
X75862720Y-18949760D01*
X75862720Y-18949760D02*
X75829387Y-19016426D01*
X75829387Y-19016426D02*
X75829387Y-19383093D01*
X75496054Y-18916426D02*
X75496054Y-19383093D01*
X75496054Y-18983093D02*
X75462721Y-18949760D01*
X75462721Y-18949760D02*
X75396054Y-18916426D01*
X75396054Y-18916426D02*
X75296054Y-18916426D01*
X75296054Y-18916426D02*
X75229387Y-18949760D01*
X75229387Y-18949760D02*
X75196054Y-19016426D01*
X75196054Y-19016426D02*
X75196054Y-19383093D01*
D12*
X83139630Y-16293519D02*
X82568202Y-16293519D01*
X82853916Y-17293519D02*
X82853916Y-16293519D01*
X81853916Y-17245900D02*
X81949154Y-17293519D01*
X81949154Y-17293519D02*
X82139630Y-17293519D01*
X82139630Y-17293519D02*
X82234868Y-17245900D01*
X82234868Y-17245900D02*
X82282487Y-17150661D01*
X82282487Y-17150661D02*
X82282487Y-16769709D01*
X82282487Y-16769709D02*
X82234868Y-16674471D01*
X82234868Y-16674471D02*
X82139630Y-16626852D01*
X82139630Y-16626852D02*
X81949154Y-16626852D01*
X81949154Y-16626852D02*
X81853916Y-16674471D01*
X81853916Y-16674471D02*
X81806297Y-16769709D01*
X81806297Y-16769709D02*
X81806297Y-16864947D01*
X81806297Y-16864947D02*
X82282487Y-16960185D01*
X80949154Y-17293519D02*
X80949154Y-16769709D01*
X80949154Y-16769709D02*
X80996773Y-16674471D01*
X80996773Y-16674471D02*
X81092011Y-16626852D01*
X81092011Y-16626852D02*
X81282487Y-16626852D01*
X81282487Y-16626852D02*
X81377725Y-16674471D01*
X80949154Y-17245900D02*
X81044392Y-17293519D01*
X81044392Y-17293519D02*
X81282487Y-17293519D01*
X81282487Y-17293519D02*
X81377725Y-17245900D01*
X81377725Y-17245900D02*
X81425344Y-17150661D01*
X81425344Y-17150661D02*
X81425344Y-17055423D01*
X81425344Y-17055423D02*
X81377725Y-16960185D01*
X81377725Y-16960185D02*
X81282487Y-16912566D01*
X81282487Y-16912566D02*
X81044392Y-16912566D01*
X81044392Y-16912566D02*
X80949154Y-16864947D01*
X80472963Y-17293519D02*
X80472963Y-16626852D01*
X80472963Y-16722090D02*
X80425344Y-16674471D01*
X80425344Y-16674471D02*
X80330106Y-16626852D01*
X80330106Y-16626852D02*
X80187249Y-16626852D01*
X80187249Y-16626852D02*
X80092011Y-16674471D01*
X80092011Y-16674471D02*
X80044392Y-16769709D01*
X80044392Y-16769709D02*
X80044392Y-17293519D01*
X80044392Y-16769709D02*
X79996773Y-16674471D01*
X79996773Y-16674471D02*
X79901535Y-16626852D01*
X79901535Y-16626852D02*
X79758678Y-16626852D01*
X79758678Y-16626852D02*
X79663439Y-16674471D01*
X79663439Y-16674471D02*
X79615820Y-16769709D01*
X79615820Y-16769709D02*
X79615820Y-17293519D01*
X78377725Y-17293519D02*
X78377725Y-16293519D01*
X78377725Y-16293519D02*
X77996773Y-16293519D01*
X77996773Y-16293519D02*
X77901535Y-16341138D01*
X77901535Y-16341138D02*
X77853916Y-16388757D01*
X77853916Y-16388757D02*
X77806297Y-16483995D01*
X77806297Y-16483995D02*
X77806297Y-16626852D01*
X77806297Y-16626852D02*
X77853916Y-16722090D01*
X77853916Y-16722090D02*
X77901535Y-16769709D01*
X77901535Y-16769709D02*
X77996773Y-16817328D01*
X77996773Y-16817328D02*
X78377725Y-16817328D01*
X77377725Y-17293519D02*
X77377725Y-16293519D01*
X77377725Y-16769709D02*
X76806297Y-16769709D01*
X76806297Y-17293519D02*
X76806297Y-16293519D01*
X76330106Y-17293519D02*
X76330106Y-16293519D01*
X76330106Y-16293519D02*
X76092011Y-16293519D01*
X76092011Y-16293519D02*
X75949154Y-16341138D01*
X75949154Y-16341138D02*
X75853916Y-16436376D01*
X75853916Y-16436376D02*
X75806297Y-16531614D01*
X75806297Y-16531614D02*
X75758678Y-16722090D01*
X75758678Y-16722090D02*
X75758678Y-16864947D01*
X75758678Y-16864947D02*
X75806297Y-17055423D01*
X75806297Y-17055423D02*
X75853916Y-17150661D01*
X75853916Y-17150661D02*
X75949154Y-17245900D01*
X75949154Y-17245900D02*
X76092011Y-17293519D01*
X76092011Y-17293519D02*
X76330106Y-17293519D01*
X74949154Y-17245900D02*
X75044392Y-17293519D01*
X75044392Y-17293519D02*
X75234868Y-17293519D01*
X75234868Y-17293519D02*
X75330106Y-17245900D01*
X75330106Y-17245900D02*
X75377725Y-17150661D01*
X75377725Y-17150661D02*
X75377725Y-16769709D01*
X75377725Y-16769709D02*
X75330106Y-16674471D01*
X75330106Y-16674471D02*
X75234868Y-16626852D01*
X75234868Y-16626852D02*
X75044392Y-16626852D01*
X75044392Y-16626852D02*
X74949154Y-16674471D01*
X74949154Y-16674471D02*
X74901535Y-16769709D01*
X74901535Y-16769709D02*
X74901535Y-16864947D01*
X74901535Y-16864947D02*
X75377725Y-16960185D01*
X74520582Y-17245900D02*
X74425344Y-17293519D01*
X74425344Y-17293519D02*
X74234868Y-17293519D01*
X74234868Y-17293519D02*
X74139630Y-17245900D01*
X74139630Y-17245900D02*
X74092011Y-17150661D01*
X74092011Y-17150661D02*
X74092011Y-17103042D01*
X74092011Y-17103042D02*
X74139630Y-17007804D01*
X74139630Y-17007804D02*
X74234868Y-16960185D01*
X74234868Y-16960185D02*
X74377725Y-16960185D01*
X74377725Y-16960185D02*
X74472963Y-16912566D01*
X74472963Y-16912566D02*
X74520582Y-16817328D01*
X74520582Y-16817328D02*
X74520582Y-16769709D01*
X74520582Y-16769709D02*
X74472963Y-16674471D01*
X74472963Y-16674471D02*
X74377725Y-16626852D01*
X74377725Y-16626852D02*
X74234868Y-16626852D01*
X74234868Y-16626852D02*
X74139630Y-16674471D01*
X73663439Y-17293519D02*
X73663439Y-16626852D01*
X73663439Y-16293519D02*
X73711058Y-16341138D01*
X73711058Y-16341138D02*
X73663439Y-16388757D01*
X73663439Y-16388757D02*
X73615820Y-16341138D01*
X73615820Y-16341138D02*
X73663439Y-16293519D01*
X73663439Y-16293519D02*
X73663439Y-16388757D01*
X72758678Y-16626852D02*
X72758678Y-17436376D01*
X72758678Y-17436376D02*
X72806297Y-17531614D01*
X72806297Y-17531614D02*
X72853916Y-17579233D01*
X72853916Y-17579233D02*
X72949154Y-17626852D01*
X72949154Y-17626852D02*
X73092011Y-17626852D01*
X73092011Y-17626852D02*
X73187249Y-17579233D01*
X72758678Y-17245900D02*
X72853916Y-17293519D01*
X72853916Y-17293519D02*
X73044392Y-17293519D01*
X73044392Y-17293519D02*
X73139630Y-17245900D01*
X73139630Y-17245900D02*
X73187249Y-17198280D01*
X73187249Y-17198280D02*
X73234868Y-17103042D01*
X73234868Y-17103042D02*
X73234868Y-16817328D01*
X73234868Y-16817328D02*
X73187249Y-16722090D01*
X73187249Y-16722090D02*
X73139630Y-16674471D01*
X73139630Y-16674471D02*
X73044392Y-16626852D01*
X73044392Y-16626852D02*
X72853916Y-16626852D01*
X72853916Y-16626852D02*
X72758678Y-16674471D01*
X72282487Y-16626852D02*
X72282487Y-17293519D01*
X72282487Y-16722090D02*
X72234868Y-16674471D01*
X72234868Y-16674471D02*
X72139630Y-16626852D01*
X72139630Y-16626852D02*
X71996773Y-16626852D01*
X71996773Y-16626852D02*
X71901535Y-16674471D01*
X71901535Y-16674471D02*
X71853916Y-16769709D01*
X71853916Y-16769709D02*
X71853916Y-17293519D01*
X150983333Y-21204733D02*
X150983333Y-21704733D01*
X150983333Y-21704733D02*
X151016666Y-21804733D01*
X151016666Y-21804733D02*
X151083333Y-21871400D01*
X151083333Y-21871400D02*
X151183333Y-21904733D01*
X151183333Y-21904733D02*
X151250000Y-21904733D01*
X150650000Y-21904733D02*
X150650000Y-21204733D01*
X150650000Y-21204733D02*
X150383333Y-21204733D01*
X150383333Y-21204733D02*
X150316667Y-21238066D01*
X150316667Y-21238066D02*
X150283333Y-21271400D01*
X150283333Y-21271400D02*
X150250000Y-21338066D01*
X150250000Y-21338066D02*
X150250000Y-21438066D01*
X150250000Y-21438066D02*
X150283333Y-21504733D01*
X150283333Y-21504733D02*
X150316667Y-21538066D01*
X150316667Y-21538066D02*
X150383333Y-21571400D01*
X150383333Y-21571400D02*
X150650000Y-21571400D01*
X149583333Y-21904733D02*
X149983333Y-21904733D01*
X149783333Y-21904733D02*
X149783333Y-21204733D01*
X149783333Y-21204733D02*
X149850000Y-21304733D01*
X149850000Y-21304733D02*
X149916667Y-21371400D01*
X149916667Y-21371400D02*
X149983333Y-21404733D01*
X138375000Y-8523066D02*
X138408333Y-8556400D01*
X138408333Y-8556400D02*
X138508333Y-8589733D01*
X138508333Y-8589733D02*
X138575000Y-8589733D01*
X138575000Y-8589733D02*
X138675000Y-8556400D01*
X138675000Y-8556400D02*
X138741667Y-8489733D01*
X138741667Y-8489733D02*
X138775000Y-8423066D01*
X138775000Y-8423066D02*
X138808333Y-8289733D01*
X138808333Y-8289733D02*
X138808333Y-8189733D01*
X138808333Y-8189733D02*
X138775000Y-8056400D01*
X138775000Y-8056400D02*
X138741667Y-7989733D01*
X138741667Y-7989733D02*
X138675000Y-7923066D01*
X138675000Y-7923066D02*
X138575000Y-7889733D01*
X138575000Y-7889733D02*
X138508333Y-7889733D01*
X138508333Y-7889733D02*
X138408333Y-7923066D01*
X138408333Y-7923066D02*
X138375000Y-7956400D01*
X137708333Y-8589733D02*
X138108333Y-8589733D01*
X137908333Y-8589733D02*
X137908333Y-7889733D01*
X137908333Y-7889733D02*
X137975000Y-7989733D01*
X137975000Y-7989733D02*
X138041667Y-8056400D01*
X138041667Y-8056400D02*
X138108333Y-8089733D01*
X137041666Y-8589733D02*
X137441666Y-8589733D01*
X137241666Y-8589733D02*
X137241666Y-7889733D01*
X137241666Y-7889733D02*
X137308333Y-7989733D01*
X137308333Y-7989733D02*
X137375000Y-8056400D01*
X137375000Y-8056400D02*
X137441666Y-8089733D01*
X142966666Y-15298066D02*
X142999999Y-15331400D01*
X142999999Y-15331400D02*
X143099999Y-15364733D01*
X143099999Y-15364733D02*
X143166666Y-15364733D01*
X143166666Y-15364733D02*
X143266666Y-15331400D01*
X143266666Y-15331400D02*
X143333333Y-15264733D01*
X143333333Y-15264733D02*
X143366666Y-15198066D01*
X143366666Y-15198066D02*
X143399999Y-15064733D01*
X143399999Y-15064733D02*
X143399999Y-14964733D01*
X143399999Y-14964733D02*
X143366666Y-14831400D01*
X143366666Y-14831400D02*
X143333333Y-14764733D01*
X143333333Y-14764733D02*
X143266666Y-14698066D01*
X143266666Y-14698066D02*
X143166666Y-14664733D01*
X143166666Y-14664733D02*
X143099999Y-14664733D01*
X143099999Y-14664733D02*
X142999999Y-14698066D01*
X142999999Y-14698066D02*
X142966666Y-14731400D01*
X142733333Y-14664733D02*
X142266666Y-14664733D01*
X142266666Y-14664733D02*
X142566666Y-15364733D01*
X116333333Y-4114733D02*
X116333333Y-4681400D01*
X116333333Y-4681400D02*
X116300000Y-4748066D01*
X116300000Y-4748066D02*
X116266666Y-4781400D01*
X116266666Y-4781400D02*
X116200000Y-4814733D01*
X116200000Y-4814733D02*
X116066666Y-4814733D01*
X116066666Y-4814733D02*
X116000000Y-4781400D01*
X116000000Y-4781400D02*
X115966666Y-4748066D01*
X115966666Y-4748066D02*
X115933333Y-4681400D01*
X115933333Y-4681400D02*
X115933333Y-4114733D01*
X115633333Y-4181400D02*
X115600000Y-4148066D01*
X115600000Y-4148066D02*
X115533333Y-4114733D01*
X115533333Y-4114733D02*
X115366667Y-4114733D01*
X115366667Y-4114733D02*
X115300000Y-4148066D01*
X115300000Y-4148066D02*
X115266667Y-4181400D01*
X115266667Y-4181400D02*
X115233333Y-4248066D01*
X115233333Y-4248066D02*
X115233333Y-4314733D01*
X115233333Y-4314733D02*
X115266667Y-4414733D01*
X115266667Y-4414733D02*
X115666667Y-4814733D01*
X115666667Y-4814733D02*
X115233333Y-4814733D01*
X140666666Y-11523066D02*
X140699999Y-11556400D01*
X140699999Y-11556400D02*
X140799999Y-11589733D01*
X140799999Y-11589733D02*
X140866666Y-11589733D01*
X140866666Y-11589733D02*
X140966666Y-11556400D01*
X140966666Y-11556400D02*
X141033333Y-11489733D01*
X141033333Y-11489733D02*
X141066666Y-11423066D01*
X141066666Y-11423066D02*
X141099999Y-11289733D01*
X141099999Y-11289733D02*
X141099999Y-11189733D01*
X141099999Y-11189733D02*
X141066666Y-11056400D01*
X141066666Y-11056400D02*
X141033333Y-10989733D01*
X141033333Y-10989733D02*
X140966666Y-10923066D01*
X140966666Y-10923066D02*
X140866666Y-10889733D01*
X140866666Y-10889733D02*
X140799999Y-10889733D01*
X140799999Y-10889733D02*
X140699999Y-10923066D01*
X140699999Y-10923066D02*
X140666666Y-10956400D01*
X140333333Y-11589733D02*
X140199999Y-11589733D01*
X140199999Y-11589733D02*
X140133333Y-11556400D01*
X140133333Y-11556400D02*
X140099999Y-11523066D01*
X140099999Y-11523066D02*
X140033333Y-11423066D01*
X140033333Y-11423066D02*
X139999999Y-11289733D01*
X139999999Y-11289733D02*
X139999999Y-11023066D01*
X139999999Y-11023066D02*
X140033333Y-10956400D01*
X140033333Y-10956400D02*
X140066666Y-10923066D01*
X140066666Y-10923066D02*
X140133333Y-10889733D01*
X140133333Y-10889733D02*
X140266666Y-10889733D01*
X140266666Y-10889733D02*
X140333333Y-10923066D01*
X140333333Y-10923066D02*
X140366666Y-10956400D01*
X140366666Y-10956400D02*
X140399999Y-11023066D01*
X140399999Y-11023066D02*
X140399999Y-11189733D01*
X140399999Y-11189733D02*
X140366666Y-11256400D01*
X140366666Y-11256400D02*
X140333333Y-11289733D01*
X140333333Y-11289733D02*
X140266666Y-11323066D01*
X140266666Y-11323066D02*
X140133333Y-11323066D01*
X140133333Y-11323066D02*
X140066666Y-11289733D01*
X140066666Y-11289733D02*
X140033333Y-11256400D01*
X140033333Y-11256400D02*
X139999999Y-11189733D01*
X124650000Y-14339733D02*
X124883333Y-14006400D01*
X125050000Y-14339733D02*
X125050000Y-13639733D01*
X125050000Y-13639733D02*
X124783333Y-13639733D01*
X124783333Y-13639733D02*
X124716667Y-13673066D01*
X124716667Y-13673066D02*
X124683333Y-13706400D01*
X124683333Y-13706400D02*
X124650000Y-13773066D01*
X124650000Y-13773066D02*
X124650000Y-13873066D01*
X124650000Y-13873066D02*
X124683333Y-13939733D01*
X124683333Y-13939733D02*
X124716667Y-13973066D01*
X124716667Y-13973066D02*
X124783333Y-14006400D01*
X124783333Y-14006400D02*
X125050000Y-14006400D01*
X123983333Y-14339733D02*
X124383333Y-14339733D01*
X124183333Y-14339733D02*
X124183333Y-13639733D01*
X124183333Y-13639733D02*
X124250000Y-13739733D01*
X124250000Y-13739733D02*
X124316667Y-13806400D01*
X124316667Y-13806400D02*
X124383333Y-13839733D01*
X123716666Y-13706400D02*
X123683333Y-13673066D01*
X123683333Y-13673066D02*
X123616666Y-13639733D01*
X123616666Y-13639733D02*
X123450000Y-13639733D01*
X123450000Y-13639733D02*
X123383333Y-13673066D01*
X123383333Y-13673066D02*
X123350000Y-13706400D01*
X123350000Y-13706400D02*
X123316666Y-13773066D01*
X123316666Y-13773066D02*
X123316666Y-13839733D01*
X123316666Y-13839733D02*
X123350000Y-13939733D01*
X123350000Y-13939733D02*
X123750000Y-14339733D01*
X123750000Y-14339733D02*
X123316666Y-14339733D01*
X136048066Y-8933333D02*
X136081400Y-8900000D01*
X136081400Y-8900000D02*
X136114733Y-8800000D01*
X136114733Y-8800000D02*
X136114733Y-8733333D01*
X136114733Y-8733333D02*
X136081400Y-8633333D01*
X136081400Y-8633333D02*
X136014733Y-8566667D01*
X136014733Y-8566667D02*
X135948066Y-8533333D01*
X135948066Y-8533333D02*
X135814733Y-8500000D01*
X135814733Y-8500000D02*
X135714733Y-8500000D01*
X135714733Y-8500000D02*
X135581400Y-8533333D01*
X135581400Y-8533333D02*
X135514733Y-8566667D01*
X135514733Y-8566667D02*
X135448066Y-8633333D01*
X135448066Y-8633333D02*
X135414733Y-8733333D01*
X135414733Y-8733333D02*
X135414733Y-8800000D01*
X135414733Y-8800000D02*
X135448066Y-8900000D01*
X135448066Y-8900000D02*
X135481400Y-8933333D01*
X135414733Y-9533333D02*
X135414733Y-9400000D01*
X135414733Y-9400000D02*
X135448066Y-9333333D01*
X135448066Y-9333333D02*
X135481400Y-9300000D01*
X135481400Y-9300000D02*
X135581400Y-9233333D01*
X135581400Y-9233333D02*
X135714733Y-9200000D01*
X135714733Y-9200000D02*
X135981400Y-9200000D01*
X135981400Y-9200000D02*
X136048066Y-9233333D01*
X136048066Y-9233333D02*
X136081400Y-9266667D01*
X136081400Y-9266667D02*
X136114733Y-9333333D01*
X136114733Y-9333333D02*
X136114733Y-9466667D01*
X136114733Y-9466667D02*
X136081400Y-9533333D01*
X136081400Y-9533333D02*
X136048066Y-9566667D01*
X136048066Y-9566667D02*
X135981400Y-9600000D01*
X135981400Y-9600000D02*
X135814733Y-9600000D01*
X135814733Y-9600000D02*
X135748066Y-9566667D01*
X135748066Y-9566667D02*
X135714733Y-9533333D01*
X135714733Y-9533333D02*
X135681400Y-9466667D01*
X135681400Y-9466667D02*
X135681400Y-9333333D01*
X135681400Y-9333333D02*
X135714733Y-9266667D01*
X135714733Y-9266667D02*
X135748066Y-9233333D01*
X135748066Y-9233333D02*
X135814733Y-9200000D01*
X122916666Y-13723066D02*
X122949999Y-13756400D01*
X122949999Y-13756400D02*
X123049999Y-13789733D01*
X123049999Y-13789733D02*
X123116666Y-13789733D01*
X123116666Y-13789733D02*
X123216666Y-13756400D01*
X123216666Y-13756400D02*
X123283333Y-13689733D01*
X123283333Y-13689733D02*
X123316666Y-13623066D01*
X123316666Y-13623066D02*
X123349999Y-13489733D01*
X123349999Y-13489733D02*
X123349999Y-13389733D01*
X123349999Y-13389733D02*
X123316666Y-13256400D01*
X123316666Y-13256400D02*
X123283333Y-13189733D01*
X123283333Y-13189733D02*
X123216666Y-13123066D01*
X123216666Y-13123066D02*
X123116666Y-13089733D01*
X123116666Y-13089733D02*
X123049999Y-13089733D01*
X123049999Y-13089733D02*
X122949999Y-13123066D01*
X122949999Y-13123066D02*
X122916666Y-13156400D01*
X122683333Y-13089733D02*
X122249999Y-13089733D01*
X122249999Y-13089733D02*
X122483333Y-13356400D01*
X122483333Y-13356400D02*
X122383333Y-13356400D01*
X122383333Y-13356400D02*
X122316666Y-13389733D01*
X122316666Y-13389733D02*
X122283333Y-13423066D01*
X122283333Y-13423066D02*
X122249999Y-13489733D01*
X122249999Y-13489733D02*
X122249999Y-13656400D01*
X122249999Y-13656400D02*
X122283333Y-13723066D01*
X122283333Y-13723066D02*
X122316666Y-13756400D01*
X122316666Y-13756400D02*
X122383333Y-13789733D01*
X122383333Y-13789733D02*
X122583333Y-13789733D01*
X122583333Y-13789733D02*
X122649999Y-13756400D01*
X122649999Y-13756400D02*
X122683333Y-13723066D01*
X100358333Y-2789733D02*
X100358333Y-3289733D01*
X100358333Y-3289733D02*
X100391666Y-3389733D01*
X100391666Y-3389733D02*
X100458333Y-3456400D01*
X100458333Y-3456400D02*
X100558333Y-3489733D01*
X100558333Y-3489733D02*
X100625000Y-3489733D01*
X99658333Y-3489733D02*
X100058333Y-3489733D01*
X99858333Y-3489733D02*
X99858333Y-2789733D01*
X99858333Y-2789733D02*
X99925000Y-2889733D01*
X99925000Y-2889733D02*
X99991667Y-2956400D01*
X99991667Y-2956400D02*
X100058333Y-2989733D01*
X139925000Y-5164733D02*
X140158333Y-4831400D01*
X140325000Y-5164733D02*
X140325000Y-4464733D01*
X140325000Y-4464733D02*
X140058333Y-4464733D01*
X140058333Y-4464733D02*
X139991667Y-4498066D01*
X139991667Y-4498066D02*
X139958333Y-4531400D01*
X139958333Y-4531400D02*
X139925000Y-4598066D01*
X139925000Y-4598066D02*
X139925000Y-4698066D01*
X139925000Y-4698066D02*
X139958333Y-4764733D01*
X139958333Y-4764733D02*
X139991667Y-4798066D01*
X139991667Y-4798066D02*
X140058333Y-4831400D01*
X140058333Y-4831400D02*
X140325000Y-4831400D01*
X139258333Y-5164733D02*
X139658333Y-5164733D01*
X139458333Y-5164733D02*
X139458333Y-4464733D01*
X139458333Y-4464733D02*
X139525000Y-4564733D01*
X139525000Y-4564733D02*
X139591667Y-4631400D01*
X139591667Y-4631400D02*
X139658333Y-4664733D01*
X139025000Y-4464733D02*
X138591666Y-4464733D01*
X138591666Y-4464733D02*
X138825000Y-4731400D01*
X138825000Y-4731400D02*
X138725000Y-4731400D01*
X138725000Y-4731400D02*
X138658333Y-4764733D01*
X138658333Y-4764733D02*
X138625000Y-4798066D01*
X138625000Y-4798066D02*
X138591666Y-4864733D01*
X138591666Y-4864733D02*
X138591666Y-5031400D01*
X138591666Y-5031400D02*
X138625000Y-5098066D01*
X138625000Y-5098066D02*
X138658333Y-5131400D01*
X138658333Y-5131400D02*
X138725000Y-5164733D01*
X138725000Y-5164733D02*
X138925000Y-5164733D01*
X138925000Y-5164733D02*
X138991666Y-5131400D01*
X138991666Y-5131400D02*
X139025000Y-5098066D01*
X124931400Y-19191667D02*
X125264733Y-19191667D01*
X124564733Y-18958333D02*
X124931400Y-19191667D01*
X124931400Y-19191667D02*
X124564733Y-19425000D01*
X125264733Y-20025000D02*
X125264733Y-19625000D01*
X125264733Y-19825000D02*
X124564733Y-19825000D01*
X124564733Y-19825000D02*
X124664733Y-19758333D01*
X124664733Y-19758333D02*
X124731400Y-19691667D01*
X124731400Y-19691667D02*
X124764733Y-19625000D01*
X149150000Y-17598066D02*
X149183333Y-17631400D01*
X149183333Y-17631400D02*
X149283333Y-17664733D01*
X149283333Y-17664733D02*
X149350000Y-17664733D01*
X149350000Y-17664733D02*
X149450000Y-17631400D01*
X149450000Y-17631400D02*
X149516667Y-17564733D01*
X149516667Y-17564733D02*
X149550000Y-17498066D01*
X149550000Y-17498066D02*
X149583333Y-17364733D01*
X149583333Y-17364733D02*
X149583333Y-17264733D01*
X149583333Y-17264733D02*
X149550000Y-17131400D01*
X149550000Y-17131400D02*
X149516667Y-17064733D01*
X149516667Y-17064733D02*
X149450000Y-16998066D01*
X149450000Y-16998066D02*
X149350000Y-16964733D01*
X149350000Y-16964733D02*
X149283333Y-16964733D01*
X149283333Y-16964733D02*
X149183333Y-16998066D01*
X149183333Y-16998066D02*
X149150000Y-17031400D01*
X148483333Y-17664733D02*
X148883333Y-17664733D01*
X148683333Y-17664733D02*
X148683333Y-16964733D01*
X148683333Y-16964733D02*
X148750000Y-17064733D01*
X148750000Y-17064733D02*
X148816667Y-17131400D01*
X148816667Y-17131400D02*
X148883333Y-17164733D01*
X147850000Y-16964733D02*
X148183333Y-16964733D01*
X148183333Y-16964733D02*
X148216666Y-17298066D01*
X148216666Y-17298066D02*
X148183333Y-17264733D01*
X148183333Y-17264733D02*
X148116666Y-17231400D01*
X148116666Y-17231400D02*
X147950000Y-17231400D01*
X147950000Y-17231400D02*
X147883333Y-17264733D01*
X147883333Y-17264733D02*
X147850000Y-17298066D01*
X147850000Y-17298066D02*
X147816666Y-17364733D01*
X147816666Y-17364733D02*
X147816666Y-17531400D01*
X147816666Y-17531400D02*
X147850000Y-17598066D01*
X147850000Y-17598066D02*
X147883333Y-17631400D01*
X147883333Y-17631400D02*
X147950000Y-17664733D01*
X147950000Y-17664733D02*
X148116666Y-17664733D01*
X148116666Y-17664733D02*
X148183333Y-17631400D01*
X148183333Y-17631400D02*
X148216666Y-17598066D01*
X136694733Y-13616666D02*
X137261400Y-13616666D01*
X137261400Y-13616666D02*
X137328066Y-13650000D01*
X137328066Y-13650000D02*
X137361400Y-13683333D01*
X137361400Y-13683333D02*
X137394733Y-13750000D01*
X137394733Y-13750000D02*
X137394733Y-13883333D01*
X137394733Y-13883333D02*
X137361400Y-13950000D01*
X137361400Y-13950000D02*
X137328066Y-13983333D01*
X137328066Y-13983333D02*
X137261400Y-14016666D01*
X137261400Y-14016666D02*
X136694733Y-14016666D01*
X137394733Y-14716666D02*
X137394733Y-14316666D01*
X137394733Y-14516666D02*
X136694733Y-14516666D01*
X136694733Y-14516666D02*
X136794733Y-14449999D01*
X136794733Y-14449999D02*
X136861400Y-14383333D01*
X136861400Y-14383333D02*
X136894733Y-14316666D01*
X145266666Y-12898066D02*
X145299999Y-12931400D01*
X145299999Y-12931400D02*
X145399999Y-12964733D01*
X145399999Y-12964733D02*
X145466666Y-12964733D01*
X145466666Y-12964733D02*
X145566666Y-12931400D01*
X145566666Y-12931400D02*
X145633333Y-12864733D01*
X145633333Y-12864733D02*
X145666666Y-12798066D01*
X145666666Y-12798066D02*
X145699999Y-12664733D01*
X145699999Y-12664733D02*
X145699999Y-12564733D01*
X145699999Y-12564733D02*
X145666666Y-12431400D01*
X145666666Y-12431400D02*
X145633333Y-12364733D01*
X145633333Y-12364733D02*
X145566666Y-12298066D01*
X145566666Y-12298066D02*
X145466666Y-12264733D01*
X145466666Y-12264733D02*
X145399999Y-12264733D01*
X145399999Y-12264733D02*
X145299999Y-12298066D01*
X145299999Y-12298066D02*
X145266666Y-12331400D01*
X144999999Y-12331400D02*
X144966666Y-12298066D01*
X144966666Y-12298066D02*
X144899999Y-12264733D01*
X144899999Y-12264733D02*
X144733333Y-12264733D01*
X144733333Y-12264733D02*
X144666666Y-12298066D01*
X144666666Y-12298066D02*
X144633333Y-12331400D01*
X144633333Y-12331400D02*
X144599999Y-12398066D01*
X144599999Y-12398066D02*
X144599999Y-12464733D01*
X144599999Y-12464733D02*
X144633333Y-12564733D01*
X144633333Y-12564733D02*
X145033333Y-12964733D01*
X145033333Y-12964733D02*
X144599999Y-12964733D01*
X139666666Y-14264733D02*
X139899999Y-13931400D01*
X140066666Y-14264733D02*
X140066666Y-13564733D01*
X140066666Y-13564733D02*
X139799999Y-13564733D01*
X139799999Y-13564733D02*
X139733333Y-13598066D01*
X139733333Y-13598066D02*
X139699999Y-13631400D01*
X139699999Y-13631400D02*
X139666666Y-13698066D01*
X139666666Y-13698066D02*
X139666666Y-13798066D01*
X139666666Y-13798066D02*
X139699999Y-13864733D01*
X139699999Y-13864733D02*
X139733333Y-13898066D01*
X139733333Y-13898066D02*
X139799999Y-13931400D01*
X139799999Y-13931400D02*
X140066666Y-13931400D01*
X139433333Y-13564733D02*
X138999999Y-13564733D01*
X138999999Y-13564733D02*
X139233333Y-13831400D01*
X139233333Y-13831400D02*
X139133333Y-13831400D01*
X139133333Y-13831400D02*
X139066666Y-13864733D01*
X139066666Y-13864733D02*
X139033333Y-13898066D01*
X139033333Y-13898066D02*
X138999999Y-13964733D01*
X138999999Y-13964733D02*
X138999999Y-14131400D01*
X138999999Y-14131400D02*
X139033333Y-14198066D01*
X139033333Y-14198066D02*
X139066666Y-14231400D01*
X139066666Y-14231400D02*
X139133333Y-14264733D01*
X139133333Y-14264733D02*
X139333333Y-14264733D01*
X139333333Y-14264733D02*
X139399999Y-14231400D01*
X139399999Y-14231400D02*
X139433333Y-14198066D01*
X110950000Y-4473066D02*
X110983333Y-4506400D01*
X110983333Y-4506400D02*
X111083333Y-4539733D01*
X111083333Y-4539733D02*
X111150000Y-4539733D01*
X111150000Y-4539733D02*
X111250000Y-4506400D01*
X111250000Y-4506400D02*
X111316667Y-4439733D01*
X111316667Y-4439733D02*
X111350000Y-4373066D01*
X111350000Y-4373066D02*
X111383333Y-4239733D01*
X111383333Y-4239733D02*
X111383333Y-4139733D01*
X111383333Y-4139733D02*
X111350000Y-4006400D01*
X111350000Y-4006400D02*
X111316667Y-3939733D01*
X111316667Y-3939733D02*
X111250000Y-3873066D01*
X111250000Y-3873066D02*
X111150000Y-3839733D01*
X111150000Y-3839733D02*
X111083333Y-3839733D01*
X111083333Y-3839733D02*
X110983333Y-3873066D01*
X110983333Y-3873066D02*
X110950000Y-3906400D01*
X110283333Y-4539733D02*
X110683333Y-4539733D01*
X110483333Y-4539733D02*
X110483333Y-3839733D01*
X110483333Y-3839733D02*
X110550000Y-3939733D01*
X110550000Y-3939733D02*
X110616667Y-4006400D01*
X110616667Y-4006400D02*
X110683333Y-4039733D01*
X110016666Y-3906400D02*
X109983333Y-3873066D01*
X109983333Y-3873066D02*
X109916666Y-3839733D01*
X109916666Y-3839733D02*
X109750000Y-3839733D01*
X109750000Y-3839733D02*
X109683333Y-3873066D01*
X109683333Y-3873066D02*
X109650000Y-3906400D01*
X109650000Y-3906400D02*
X109616666Y-3973066D01*
X109616666Y-3973066D02*
X109616666Y-4039733D01*
X109616666Y-4039733D02*
X109650000Y-4139733D01*
X109650000Y-4139733D02*
X110050000Y-4539733D01*
X110050000Y-4539733D02*
X109616666Y-4539733D01*
X102225000Y-11589733D02*
X102458333Y-11256400D01*
X102625000Y-11589733D02*
X102625000Y-10889733D01*
X102625000Y-10889733D02*
X102358333Y-10889733D01*
X102358333Y-10889733D02*
X102291667Y-10923066D01*
X102291667Y-10923066D02*
X102258333Y-10956400D01*
X102258333Y-10956400D02*
X102225000Y-11023066D01*
X102225000Y-11023066D02*
X102225000Y-11123066D01*
X102225000Y-11123066D02*
X102258333Y-11189733D01*
X102258333Y-11189733D02*
X102291667Y-11223066D01*
X102291667Y-11223066D02*
X102358333Y-11256400D01*
X102358333Y-11256400D02*
X102625000Y-11256400D01*
X101558333Y-11589733D02*
X101958333Y-11589733D01*
X101758333Y-11589733D02*
X101758333Y-10889733D01*
X101758333Y-10889733D02*
X101825000Y-10989733D01*
X101825000Y-10989733D02*
X101891667Y-11056400D01*
X101891667Y-11056400D02*
X101958333Y-11089733D01*
X100925000Y-10889733D02*
X101258333Y-10889733D01*
X101258333Y-10889733D02*
X101291666Y-11223066D01*
X101291666Y-11223066D02*
X101258333Y-11189733D01*
X101258333Y-11189733D02*
X101191666Y-11156400D01*
X101191666Y-11156400D02*
X101025000Y-11156400D01*
X101025000Y-11156400D02*
X100958333Y-11189733D01*
X100958333Y-11189733D02*
X100925000Y-11223066D01*
X100925000Y-11223066D02*
X100891666Y-11289733D01*
X100891666Y-11289733D02*
X100891666Y-11456400D01*
X100891666Y-11456400D02*
X100925000Y-11523066D01*
X100925000Y-11523066D02*
X100958333Y-11556400D01*
X100958333Y-11556400D02*
X101025000Y-11589733D01*
X101025000Y-11589733D02*
X101191666Y-11589733D01*
X101191666Y-11589733D02*
X101258333Y-11556400D01*
X101258333Y-11556400D02*
X101291666Y-11523066D01*
X147939733Y-12308333D02*
X147239733Y-12308333D01*
X147239733Y-12308333D02*
X147239733Y-12475000D01*
X147239733Y-12475000D02*
X147273066Y-12575000D01*
X147273066Y-12575000D02*
X147339733Y-12641667D01*
X147339733Y-12641667D02*
X147406400Y-12675000D01*
X147406400Y-12675000D02*
X147539733Y-12708333D01*
X147539733Y-12708333D02*
X147639733Y-12708333D01*
X147639733Y-12708333D02*
X147773066Y-12675000D01*
X147773066Y-12675000D02*
X147839733Y-12641667D01*
X147839733Y-12641667D02*
X147906400Y-12575000D01*
X147906400Y-12575000D02*
X147939733Y-12475000D01*
X147939733Y-12475000D02*
X147939733Y-12308333D01*
X147306400Y-12975000D02*
X147273066Y-13008333D01*
X147273066Y-13008333D02*
X147239733Y-13075000D01*
X147239733Y-13075000D02*
X147239733Y-13241667D01*
X147239733Y-13241667D02*
X147273066Y-13308333D01*
X147273066Y-13308333D02*
X147306400Y-13341667D01*
X147306400Y-13341667D02*
X147373066Y-13375000D01*
X147373066Y-13375000D02*
X147439733Y-13375000D01*
X147439733Y-13375000D02*
X147539733Y-13341667D01*
X147539733Y-13341667D02*
X147939733Y-12941667D01*
X147939733Y-12941667D02*
X147939733Y-13375000D01*
X143884733Y-8333333D02*
X143551400Y-8100000D01*
X143884733Y-7933333D02*
X143184733Y-7933333D01*
X143184733Y-7933333D02*
X143184733Y-8200000D01*
X143184733Y-8200000D02*
X143218066Y-8266667D01*
X143218066Y-8266667D02*
X143251400Y-8300000D01*
X143251400Y-8300000D02*
X143318066Y-8333333D01*
X143318066Y-8333333D02*
X143418066Y-8333333D01*
X143418066Y-8333333D02*
X143484733Y-8300000D01*
X143484733Y-8300000D02*
X143518066Y-8266667D01*
X143518066Y-8266667D02*
X143551400Y-8200000D01*
X143551400Y-8200000D02*
X143551400Y-7933333D01*
X143251400Y-8600000D02*
X143218066Y-8633333D01*
X143218066Y-8633333D02*
X143184733Y-8700000D01*
X143184733Y-8700000D02*
X143184733Y-8866667D01*
X143184733Y-8866667D02*
X143218066Y-8933333D01*
X143218066Y-8933333D02*
X143251400Y-8966667D01*
X143251400Y-8966667D02*
X143318066Y-9000000D01*
X143318066Y-9000000D02*
X143384733Y-9000000D01*
X143384733Y-9000000D02*
X143484733Y-8966667D01*
X143484733Y-8966667D02*
X143884733Y-8566667D01*
X143884733Y-8566667D02*
X143884733Y-9000000D01*
X139666666Y-12764733D02*
X139899999Y-12431400D01*
X140066666Y-12764733D02*
X140066666Y-12064733D01*
X140066666Y-12064733D02*
X139799999Y-12064733D01*
X139799999Y-12064733D02*
X139733333Y-12098066D01*
X139733333Y-12098066D02*
X139699999Y-12131400D01*
X139699999Y-12131400D02*
X139666666Y-12198066D01*
X139666666Y-12198066D02*
X139666666Y-12298066D01*
X139666666Y-12298066D02*
X139699999Y-12364733D01*
X139699999Y-12364733D02*
X139733333Y-12398066D01*
X139733333Y-12398066D02*
X139799999Y-12431400D01*
X139799999Y-12431400D02*
X140066666Y-12431400D01*
X139066666Y-12298066D02*
X139066666Y-12764733D01*
X139233333Y-12031400D02*
X139399999Y-12531400D01*
X139399999Y-12531400D02*
X138966666Y-12531400D01*
X146624733Y-21866666D02*
X147191400Y-21866666D01*
X147191400Y-21866666D02*
X147258066Y-21900000D01*
X147258066Y-21900000D02*
X147291400Y-21933333D01*
X147291400Y-21933333D02*
X147324733Y-22000000D01*
X147324733Y-22000000D02*
X147324733Y-22133333D01*
X147324733Y-22133333D02*
X147291400Y-22200000D01*
X147291400Y-22200000D02*
X147258066Y-22233333D01*
X147258066Y-22233333D02*
X147191400Y-22266666D01*
X147191400Y-22266666D02*
X146624733Y-22266666D01*
X146624733Y-22533333D02*
X146624733Y-22966666D01*
X146624733Y-22966666D02*
X146891400Y-22733333D01*
X146891400Y-22733333D02*
X146891400Y-22833333D01*
X146891400Y-22833333D02*
X146924733Y-22899999D01*
X146924733Y-22899999D02*
X146958066Y-22933333D01*
X146958066Y-22933333D02*
X147024733Y-22966666D01*
X147024733Y-22966666D02*
X147191400Y-22966666D01*
X147191400Y-22966666D02*
X147258066Y-22933333D01*
X147258066Y-22933333D02*
X147291400Y-22899999D01*
X147291400Y-22899999D02*
X147324733Y-22833333D01*
X147324733Y-22833333D02*
X147324733Y-22633333D01*
X147324733Y-22633333D02*
X147291400Y-22566666D01*
X147291400Y-22566666D02*
X147258066Y-22533333D01*
X146714733Y-27758333D02*
X146381400Y-27525000D01*
X146714733Y-27358333D02*
X146014733Y-27358333D01*
X146014733Y-27358333D02*
X146014733Y-27625000D01*
X146014733Y-27625000D02*
X146048066Y-27691667D01*
X146048066Y-27691667D02*
X146081400Y-27725000D01*
X146081400Y-27725000D02*
X146148066Y-27758333D01*
X146148066Y-27758333D02*
X146248066Y-27758333D01*
X146248066Y-27758333D02*
X146314733Y-27725000D01*
X146314733Y-27725000D02*
X146348066Y-27691667D01*
X146348066Y-27691667D02*
X146381400Y-27625000D01*
X146381400Y-27625000D02*
X146381400Y-27358333D01*
X146714733Y-28091667D02*
X146714733Y-28225000D01*
X146714733Y-28225000D02*
X146681400Y-28291667D01*
X146681400Y-28291667D02*
X146648066Y-28325000D01*
X146648066Y-28325000D02*
X146548066Y-28391667D01*
X146548066Y-28391667D02*
X146414733Y-28425000D01*
X146414733Y-28425000D02*
X146148066Y-28425000D01*
X146148066Y-28425000D02*
X146081400Y-28391667D01*
X146081400Y-28391667D02*
X146048066Y-28358333D01*
X146048066Y-28358333D02*
X146014733Y-28291667D01*
X146014733Y-28291667D02*
X146014733Y-28158333D01*
X146014733Y-28158333D02*
X146048066Y-28091667D01*
X146048066Y-28091667D02*
X146081400Y-28058333D01*
X146081400Y-28058333D02*
X146148066Y-28025000D01*
X146148066Y-28025000D02*
X146314733Y-28025000D01*
X146314733Y-28025000D02*
X146381400Y-28058333D01*
X146381400Y-28058333D02*
X146414733Y-28091667D01*
X146414733Y-28091667D02*
X146448066Y-28158333D01*
X146448066Y-28158333D02*
X146448066Y-28291667D01*
X146448066Y-28291667D02*
X146414733Y-28358333D01*
X146414733Y-28358333D02*
X146381400Y-28391667D01*
X146381400Y-28391667D02*
X146314733Y-28425000D01*
X137791666Y-21048066D02*
X137824999Y-21081400D01*
X137824999Y-21081400D02*
X137924999Y-21114733D01*
X137924999Y-21114733D02*
X137991666Y-21114733D01*
X137991666Y-21114733D02*
X138091666Y-21081400D01*
X138091666Y-21081400D02*
X138158333Y-21014733D01*
X138158333Y-21014733D02*
X138191666Y-20948066D01*
X138191666Y-20948066D02*
X138224999Y-20814733D01*
X138224999Y-20814733D02*
X138224999Y-20714733D01*
X138224999Y-20714733D02*
X138191666Y-20581400D01*
X138191666Y-20581400D02*
X138158333Y-20514733D01*
X138158333Y-20514733D02*
X138091666Y-20448066D01*
X138091666Y-20448066D02*
X137991666Y-20414733D01*
X137991666Y-20414733D02*
X137924999Y-20414733D01*
X137924999Y-20414733D02*
X137824999Y-20448066D01*
X137824999Y-20448066D02*
X137791666Y-20481400D01*
X137191666Y-20648066D02*
X137191666Y-21114733D01*
X137358333Y-20381400D02*
X137524999Y-20881400D01*
X137524999Y-20881400D02*
X137091666Y-20881400D01*
X140575000Y-10648066D02*
X140608333Y-10681400D01*
X140608333Y-10681400D02*
X140708333Y-10714733D01*
X140708333Y-10714733D02*
X140775000Y-10714733D01*
X140775000Y-10714733D02*
X140875000Y-10681400D01*
X140875000Y-10681400D02*
X140941667Y-10614733D01*
X140941667Y-10614733D02*
X140975000Y-10548066D01*
X140975000Y-10548066D02*
X141008333Y-10414733D01*
X141008333Y-10414733D02*
X141008333Y-10314733D01*
X141008333Y-10314733D02*
X140975000Y-10181400D01*
X140975000Y-10181400D02*
X140941667Y-10114733D01*
X140941667Y-10114733D02*
X140875000Y-10048066D01*
X140875000Y-10048066D02*
X140775000Y-10014733D01*
X140775000Y-10014733D02*
X140708333Y-10014733D01*
X140708333Y-10014733D02*
X140608333Y-10048066D01*
X140608333Y-10048066D02*
X140575000Y-10081400D01*
X139908333Y-10714733D02*
X140308333Y-10714733D01*
X140108333Y-10714733D02*
X140108333Y-10014733D01*
X140108333Y-10014733D02*
X140175000Y-10114733D01*
X140175000Y-10114733D02*
X140241667Y-10181400D01*
X140241667Y-10181400D02*
X140308333Y-10214733D01*
X139475000Y-10014733D02*
X139408333Y-10014733D01*
X139408333Y-10014733D02*
X139341666Y-10048066D01*
X139341666Y-10048066D02*
X139308333Y-10081400D01*
X139308333Y-10081400D02*
X139275000Y-10148066D01*
X139275000Y-10148066D02*
X139241666Y-10281400D01*
X139241666Y-10281400D02*
X139241666Y-10448066D01*
X139241666Y-10448066D02*
X139275000Y-10581400D01*
X139275000Y-10581400D02*
X139308333Y-10648066D01*
X139308333Y-10648066D02*
X139341666Y-10681400D01*
X139341666Y-10681400D02*
X139408333Y-10714733D01*
X139408333Y-10714733D02*
X139475000Y-10714733D01*
X139475000Y-10714733D02*
X139541666Y-10681400D01*
X139541666Y-10681400D02*
X139575000Y-10648066D01*
X139575000Y-10648066D02*
X139608333Y-10581400D01*
X139608333Y-10581400D02*
X139641666Y-10448066D01*
X139641666Y-10448066D02*
X139641666Y-10281400D01*
X139641666Y-10281400D02*
X139608333Y-10148066D01*
X139608333Y-10148066D02*
X139575000Y-10081400D01*
X139575000Y-10081400D02*
X139541666Y-10048066D01*
X139541666Y-10048066D02*
X139475000Y-10014733D01*
X109073066Y-9874999D02*
X109106400Y-9841666D01*
X109106400Y-9841666D02*
X109139733Y-9741666D01*
X109139733Y-9741666D02*
X109139733Y-9674999D01*
X109139733Y-9674999D02*
X109106400Y-9574999D01*
X109106400Y-9574999D02*
X109039733Y-9508333D01*
X109039733Y-9508333D02*
X108973066Y-9474999D01*
X108973066Y-9474999D02*
X108839733Y-9441666D01*
X108839733Y-9441666D02*
X108739733Y-9441666D01*
X108739733Y-9441666D02*
X108606400Y-9474999D01*
X108606400Y-9474999D02*
X108539733Y-9508333D01*
X108539733Y-9508333D02*
X108473066Y-9574999D01*
X108473066Y-9574999D02*
X108439733Y-9674999D01*
X108439733Y-9674999D02*
X108439733Y-9741666D01*
X108439733Y-9741666D02*
X108473066Y-9841666D01*
X108473066Y-9841666D02*
X108506400Y-9874999D01*
X109139733Y-10541666D02*
X109139733Y-10141666D01*
X109139733Y-10341666D02*
X108439733Y-10341666D01*
X108439733Y-10341666D02*
X108539733Y-10274999D01*
X108539733Y-10274999D02*
X108606400Y-10208333D01*
X108606400Y-10208333D02*
X108639733Y-10141666D01*
X108439733Y-10775000D02*
X108439733Y-11208333D01*
X108439733Y-11208333D02*
X108706400Y-10975000D01*
X108706400Y-10975000D02*
X108706400Y-11075000D01*
X108706400Y-11075000D02*
X108739733Y-11141666D01*
X108739733Y-11141666D02*
X108773066Y-11175000D01*
X108773066Y-11175000D02*
X108839733Y-11208333D01*
X108839733Y-11208333D02*
X109006400Y-11208333D01*
X109006400Y-11208333D02*
X109073066Y-11175000D01*
X109073066Y-11175000D02*
X109106400Y-11141666D01*
X109106400Y-11141666D02*
X109139733Y-11075000D01*
X109139733Y-11075000D02*
X109139733Y-10875000D01*
X109139733Y-10875000D02*
X109106400Y-10808333D01*
X109106400Y-10808333D02*
X109073066Y-10775000D01*
X98975000Y-11514733D02*
X99208333Y-11181400D01*
X99375000Y-11514733D02*
X99375000Y-10814733D01*
X99375000Y-10814733D02*
X99108333Y-10814733D01*
X99108333Y-10814733D02*
X99041667Y-10848066D01*
X99041667Y-10848066D02*
X99008333Y-10881400D01*
X99008333Y-10881400D02*
X98975000Y-10948066D01*
X98975000Y-10948066D02*
X98975000Y-11048066D01*
X98975000Y-11048066D02*
X99008333Y-11114733D01*
X99008333Y-11114733D02*
X99041667Y-11148066D01*
X99041667Y-11148066D02*
X99108333Y-11181400D01*
X99108333Y-11181400D02*
X99375000Y-11181400D01*
X98308333Y-11514733D02*
X98708333Y-11514733D01*
X98508333Y-11514733D02*
X98508333Y-10814733D01*
X98508333Y-10814733D02*
X98575000Y-10914733D01*
X98575000Y-10914733D02*
X98641667Y-10981400D01*
X98641667Y-10981400D02*
X98708333Y-11014733D01*
X97708333Y-11048066D02*
X97708333Y-11514733D01*
X97875000Y-10781400D02*
X98041666Y-11281400D01*
X98041666Y-11281400D02*
X97608333Y-11281400D01*
X131398066Y-22733333D02*
X131431400Y-22700000D01*
X131431400Y-22700000D02*
X131464733Y-22600000D01*
X131464733Y-22600000D02*
X131464733Y-22533333D01*
X131464733Y-22533333D02*
X131431400Y-22433333D01*
X131431400Y-22433333D02*
X131364733Y-22366667D01*
X131364733Y-22366667D02*
X131298066Y-22333333D01*
X131298066Y-22333333D02*
X131164733Y-22300000D01*
X131164733Y-22300000D02*
X131064733Y-22300000D01*
X131064733Y-22300000D02*
X130931400Y-22333333D01*
X130931400Y-22333333D02*
X130864733Y-22366667D01*
X130864733Y-22366667D02*
X130798066Y-22433333D01*
X130798066Y-22433333D02*
X130764733Y-22533333D01*
X130764733Y-22533333D02*
X130764733Y-22600000D01*
X130764733Y-22600000D02*
X130798066Y-22700000D01*
X130798066Y-22700000D02*
X130831400Y-22733333D01*
X130764733Y-23366667D02*
X130764733Y-23033333D01*
X130764733Y-23033333D02*
X131098066Y-23000000D01*
X131098066Y-23000000D02*
X131064733Y-23033333D01*
X131064733Y-23033333D02*
X131031400Y-23100000D01*
X131031400Y-23100000D02*
X131031400Y-23266667D01*
X131031400Y-23266667D02*
X131064733Y-23333333D01*
X131064733Y-23333333D02*
X131098066Y-23366667D01*
X131098066Y-23366667D02*
X131164733Y-23400000D01*
X131164733Y-23400000D02*
X131331400Y-23400000D01*
X131331400Y-23400000D02*
X131398066Y-23366667D01*
X131398066Y-23366667D02*
X131431400Y-23333333D01*
X131431400Y-23333333D02*
X131464733Y-23266667D01*
X131464733Y-23266667D02*
X131464733Y-23100000D01*
X131464733Y-23100000D02*
X131431400Y-23033333D01*
X131431400Y-23033333D02*
X131398066Y-23000000D01*
X131966666Y-8298066D02*
X131999999Y-8331400D01*
X131999999Y-8331400D02*
X132099999Y-8364733D01*
X132099999Y-8364733D02*
X132166666Y-8364733D01*
X132166666Y-8364733D02*
X132266666Y-8331400D01*
X132266666Y-8331400D02*
X132333333Y-8264733D01*
X132333333Y-8264733D02*
X132366666Y-8198066D01*
X132366666Y-8198066D02*
X132399999Y-8064733D01*
X132399999Y-8064733D02*
X132399999Y-7964733D01*
X132399999Y-7964733D02*
X132366666Y-7831400D01*
X132366666Y-7831400D02*
X132333333Y-7764733D01*
X132333333Y-7764733D02*
X132266666Y-7698066D01*
X132266666Y-7698066D02*
X132166666Y-7664733D01*
X132166666Y-7664733D02*
X132099999Y-7664733D01*
X132099999Y-7664733D02*
X131999999Y-7698066D01*
X131999999Y-7698066D02*
X131966666Y-7731400D01*
X131299999Y-8364733D02*
X131699999Y-8364733D01*
X131499999Y-8364733D02*
X131499999Y-7664733D01*
X131499999Y-7664733D02*
X131566666Y-7764733D01*
X131566666Y-7764733D02*
X131633333Y-7831400D01*
X131633333Y-7831400D02*
X131699999Y-7864733D01*
X149175000Y-16523066D02*
X149208333Y-16556400D01*
X149208333Y-16556400D02*
X149308333Y-16589733D01*
X149308333Y-16589733D02*
X149375000Y-16589733D01*
X149375000Y-16589733D02*
X149475000Y-16556400D01*
X149475000Y-16556400D02*
X149541667Y-16489733D01*
X149541667Y-16489733D02*
X149575000Y-16423066D01*
X149575000Y-16423066D02*
X149608333Y-16289733D01*
X149608333Y-16289733D02*
X149608333Y-16189733D01*
X149608333Y-16189733D02*
X149575000Y-16056400D01*
X149575000Y-16056400D02*
X149541667Y-15989733D01*
X149541667Y-15989733D02*
X149475000Y-15923066D01*
X149475000Y-15923066D02*
X149375000Y-15889733D01*
X149375000Y-15889733D02*
X149308333Y-15889733D01*
X149308333Y-15889733D02*
X149208333Y-15923066D01*
X149208333Y-15923066D02*
X149175000Y-15956400D01*
X148508333Y-16589733D02*
X148908333Y-16589733D01*
X148708333Y-16589733D02*
X148708333Y-15889733D01*
X148708333Y-15889733D02*
X148775000Y-15989733D01*
X148775000Y-15989733D02*
X148841667Y-16056400D01*
X148841667Y-16056400D02*
X148908333Y-16089733D01*
X147908333Y-16123066D02*
X147908333Y-16589733D01*
X148075000Y-15856400D02*
X148241666Y-16356400D01*
X148241666Y-16356400D02*
X147808333Y-16356400D01*
X121750000Y-15348066D02*
X121783333Y-15381400D01*
X121783333Y-15381400D02*
X121883333Y-15414733D01*
X121883333Y-15414733D02*
X121950000Y-15414733D01*
X121950000Y-15414733D02*
X122050000Y-15381400D01*
X122050000Y-15381400D02*
X122116667Y-15314733D01*
X122116667Y-15314733D02*
X122150000Y-15248066D01*
X122150000Y-15248066D02*
X122183333Y-15114733D01*
X122183333Y-15114733D02*
X122183333Y-15014733D01*
X122183333Y-15014733D02*
X122150000Y-14881400D01*
X122150000Y-14881400D02*
X122116667Y-14814733D01*
X122116667Y-14814733D02*
X122050000Y-14748066D01*
X122050000Y-14748066D02*
X121950000Y-14714733D01*
X121950000Y-14714733D02*
X121883333Y-14714733D01*
X121883333Y-14714733D02*
X121783333Y-14748066D01*
X121783333Y-14748066D02*
X121750000Y-14781400D01*
X121083333Y-15414733D02*
X121483333Y-15414733D01*
X121283333Y-15414733D02*
X121283333Y-14714733D01*
X121283333Y-14714733D02*
X121350000Y-14814733D01*
X121350000Y-14814733D02*
X121416667Y-14881400D01*
X121416667Y-14881400D02*
X121483333Y-14914733D01*
X120683333Y-15014733D02*
X120750000Y-14981400D01*
X120750000Y-14981400D02*
X120783333Y-14948066D01*
X120783333Y-14948066D02*
X120816666Y-14881400D01*
X120816666Y-14881400D02*
X120816666Y-14848066D01*
X120816666Y-14848066D02*
X120783333Y-14781400D01*
X120783333Y-14781400D02*
X120750000Y-14748066D01*
X120750000Y-14748066D02*
X120683333Y-14714733D01*
X120683333Y-14714733D02*
X120550000Y-14714733D01*
X120550000Y-14714733D02*
X120483333Y-14748066D01*
X120483333Y-14748066D02*
X120450000Y-14781400D01*
X120450000Y-14781400D02*
X120416666Y-14848066D01*
X120416666Y-14848066D02*
X120416666Y-14881400D01*
X120416666Y-14881400D02*
X120450000Y-14948066D01*
X120450000Y-14948066D02*
X120483333Y-14981400D01*
X120483333Y-14981400D02*
X120550000Y-15014733D01*
X120550000Y-15014733D02*
X120683333Y-15014733D01*
X120683333Y-15014733D02*
X120750000Y-15048066D01*
X120750000Y-15048066D02*
X120783333Y-15081400D01*
X120783333Y-15081400D02*
X120816666Y-15148066D01*
X120816666Y-15148066D02*
X120816666Y-15281400D01*
X120816666Y-15281400D02*
X120783333Y-15348066D01*
X120783333Y-15348066D02*
X120750000Y-15381400D01*
X120750000Y-15381400D02*
X120683333Y-15414733D01*
X120683333Y-15414733D02*
X120550000Y-15414733D01*
X120550000Y-15414733D02*
X120483333Y-15381400D01*
X120483333Y-15381400D02*
X120450000Y-15348066D01*
X120450000Y-15348066D02*
X120416666Y-15281400D01*
X120416666Y-15281400D02*
X120416666Y-15148066D01*
X120416666Y-15148066D02*
X120450000Y-15081400D01*
X120450000Y-15081400D02*
X120483333Y-15048066D01*
X120483333Y-15048066D02*
X120550000Y-15014733D01*
X118173066Y-18349999D02*
X118206400Y-18316666D01*
X118206400Y-18316666D02*
X118239733Y-18216666D01*
X118239733Y-18216666D02*
X118239733Y-18149999D01*
X118239733Y-18149999D02*
X118206400Y-18049999D01*
X118206400Y-18049999D02*
X118139733Y-17983333D01*
X118139733Y-17983333D02*
X118073066Y-17949999D01*
X118073066Y-17949999D02*
X117939733Y-17916666D01*
X117939733Y-17916666D02*
X117839733Y-17916666D01*
X117839733Y-17916666D02*
X117706400Y-17949999D01*
X117706400Y-17949999D02*
X117639733Y-17983333D01*
X117639733Y-17983333D02*
X117573066Y-18049999D01*
X117573066Y-18049999D02*
X117539733Y-18149999D01*
X117539733Y-18149999D02*
X117539733Y-18216666D01*
X117539733Y-18216666D02*
X117573066Y-18316666D01*
X117573066Y-18316666D02*
X117606400Y-18349999D01*
X118239733Y-19016666D02*
X118239733Y-18616666D01*
X118239733Y-18816666D02*
X117539733Y-18816666D01*
X117539733Y-18816666D02*
X117639733Y-18749999D01*
X117639733Y-18749999D02*
X117706400Y-18683333D01*
X117706400Y-18683333D02*
X117739733Y-18616666D01*
X117539733Y-19250000D02*
X117539733Y-19716666D01*
X117539733Y-19716666D02*
X118239733Y-19416666D01*
X110758333Y-16689733D02*
X110758333Y-17189733D01*
X110758333Y-17189733D02*
X110791666Y-17289733D01*
X110791666Y-17289733D02*
X110858333Y-17356400D01*
X110858333Y-17356400D02*
X110958333Y-17389733D01*
X110958333Y-17389733D02*
X111025000Y-17389733D01*
X110458333Y-16756400D02*
X110425000Y-16723066D01*
X110425000Y-16723066D02*
X110358333Y-16689733D01*
X110358333Y-16689733D02*
X110191667Y-16689733D01*
X110191667Y-16689733D02*
X110125000Y-16723066D01*
X110125000Y-16723066D02*
X110091667Y-16756400D01*
X110091667Y-16756400D02*
X110058333Y-16823066D01*
X110058333Y-16823066D02*
X110058333Y-16889733D01*
X110058333Y-16889733D02*
X110091667Y-16989733D01*
X110091667Y-16989733D02*
X110491667Y-17389733D01*
X110491667Y-17389733D02*
X110058333Y-17389733D01*
X143884733Y-6473333D02*
X143551400Y-6240000D01*
X143884733Y-6073333D02*
X143184733Y-6073333D01*
X143184733Y-6073333D02*
X143184733Y-6340000D01*
X143184733Y-6340000D02*
X143218066Y-6406667D01*
X143218066Y-6406667D02*
X143251400Y-6440000D01*
X143251400Y-6440000D02*
X143318066Y-6473333D01*
X143318066Y-6473333D02*
X143418066Y-6473333D01*
X143418066Y-6473333D02*
X143484733Y-6440000D01*
X143484733Y-6440000D02*
X143518066Y-6406667D01*
X143518066Y-6406667D02*
X143551400Y-6340000D01*
X143551400Y-6340000D02*
X143551400Y-6073333D01*
X143884733Y-7140000D02*
X143884733Y-6740000D01*
X143884733Y-6940000D02*
X143184733Y-6940000D01*
X143184733Y-6940000D02*
X143284733Y-6873333D01*
X143284733Y-6873333D02*
X143351400Y-6806667D01*
X143351400Y-6806667D02*
X143384733Y-6740000D01*
X123966666Y-12698066D02*
X123999999Y-12731400D01*
X123999999Y-12731400D02*
X124099999Y-12764733D01*
X124099999Y-12764733D02*
X124166666Y-12764733D01*
X124166666Y-12764733D02*
X124266666Y-12731400D01*
X124266666Y-12731400D02*
X124333333Y-12664733D01*
X124333333Y-12664733D02*
X124366666Y-12598066D01*
X124366666Y-12598066D02*
X124399999Y-12464733D01*
X124399999Y-12464733D02*
X124399999Y-12364733D01*
X124399999Y-12364733D02*
X124366666Y-12231400D01*
X124366666Y-12231400D02*
X124333333Y-12164733D01*
X124333333Y-12164733D02*
X124266666Y-12098066D01*
X124266666Y-12098066D02*
X124166666Y-12064733D01*
X124166666Y-12064733D02*
X124099999Y-12064733D01*
X124099999Y-12064733D02*
X123999999Y-12098066D01*
X123999999Y-12098066D02*
X123966666Y-12131400D01*
X123566666Y-12364733D02*
X123633333Y-12331400D01*
X123633333Y-12331400D02*
X123666666Y-12298066D01*
X123666666Y-12298066D02*
X123699999Y-12231400D01*
X123699999Y-12231400D02*
X123699999Y-12198066D01*
X123699999Y-12198066D02*
X123666666Y-12131400D01*
X123666666Y-12131400D02*
X123633333Y-12098066D01*
X123633333Y-12098066D02*
X123566666Y-12064733D01*
X123566666Y-12064733D02*
X123433333Y-12064733D01*
X123433333Y-12064733D02*
X123366666Y-12098066D01*
X123366666Y-12098066D02*
X123333333Y-12131400D01*
X123333333Y-12131400D02*
X123299999Y-12198066D01*
X123299999Y-12198066D02*
X123299999Y-12231400D01*
X123299999Y-12231400D02*
X123333333Y-12298066D01*
X123333333Y-12298066D02*
X123366666Y-12331400D01*
X123366666Y-12331400D02*
X123433333Y-12364733D01*
X123433333Y-12364733D02*
X123566666Y-12364733D01*
X123566666Y-12364733D02*
X123633333Y-12398066D01*
X123633333Y-12398066D02*
X123666666Y-12431400D01*
X123666666Y-12431400D02*
X123699999Y-12498066D01*
X123699999Y-12498066D02*
X123699999Y-12631400D01*
X123699999Y-12631400D02*
X123666666Y-12698066D01*
X123666666Y-12698066D02*
X123633333Y-12731400D01*
X123633333Y-12731400D02*
X123566666Y-12764733D01*
X123566666Y-12764733D02*
X123433333Y-12764733D01*
X123433333Y-12764733D02*
X123366666Y-12731400D01*
X123366666Y-12731400D02*
X123333333Y-12698066D01*
X123333333Y-12698066D02*
X123299999Y-12631400D01*
X123299999Y-12631400D02*
X123299999Y-12498066D01*
X123299999Y-12498066D02*
X123333333Y-12431400D01*
X123333333Y-12431400D02*
X123366666Y-12398066D01*
X123366666Y-12398066D02*
X123433333Y-12364733D01*
D13*
%TO.C,JP1*%
X150400000Y-22590000D02*
X151460000Y-22590000D01*
X151460000Y-22590000D02*
X151460000Y-23650000D01*
X151460000Y-26710000D02*
X151460000Y-24650000D01*
X149340000Y-24650000D02*
X151460000Y-24650000D01*
X149340000Y-26710000D02*
X151460000Y-26710000D01*
X149340000Y-26710000D02*
X149340000Y-24650000D01*
%TO.C,BT-A*%
X46400000Y-36100000D02*
X51500000Y-36100000D01*
X50300000Y-40300000D02*
X55400000Y-40300000D01*
X44400000Y-38100000D02*
G75*
G02*
X46400000Y-36100000I1999999J1D01*
G01*
X48300000Y-42300000D02*
G75*
G02*
X50300000Y-40300000I1999999J1D01*
G01*
%TO.C,START*%
X95900000Y-12100000D02*
X101000000Y-12100000D01*
X99800000Y-16300000D02*
X104900000Y-16300000D01*
X93900000Y-14100000D02*
G75*
G02*
X95900000Y-12100000I1999999J1D01*
G01*
X97800000Y-18300000D02*
G75*
G02*
X99800000Y-16300000I1999999J1D01*
G01*
%TO.C,BT-D*%
X145400000Y-36100000D02*
X150500000Y-36100000D01*
X149300000Y-40300000D02*
X154400000Y-40300000D01*
X143400000Y-38100000D02*
G75*
G02*
X145400000Y-36100000I1999999J1D01*
G01*
X147300000Y-42300000D02*
G75*
G02*
X149300000Y-40300000I1999999J1D01*
G01*
%TO.C,BT-B*%
X79400000Y-36100000D02*
X84500000Y-36100000D01*
X83300000Y-40300000D02*
X88400000Y-40300000D01*
X77400000Y-38100000D02*
G75*
G02*
X79400000Y-36100000I1999999J1D01*
G01*
X81300000Y-42300000D02*
G75*
G02*
X83300000Y-40300000I1999999J1D01*
G01*
%TO.C,FX-L*%
X62900000Y-78100000D02*
X68000000Y-78100000D01*
X66800000Y-82300000D02*
X71900000Y-82300000D01*
X60900000Y-80100000D02*
G75*
G02*
X62900000Y-78100000I1999999J1D01*
G01*
X64800000Y-84300000D02*
G75*
G02*
X66800000Y-82300000I1999999J1D01*
G01*
%TO.C,BT-C*%
X112400000Y-36100000D02*
X117500000Y-36100000D01*
X116300000Y-40300000D02*
X121400000Y-40300000D01*
X110400000Y-38100000D02*
G75*
G02*
X112400000Y-36100000I1999999J1D01*
G01*
X114300000Y-42300000D02*
G75*
G02*
X116300000Y-40300000I1999999J1D01*
G01*
%TO.C,FX-R*%
X128900000Y-78100000D02*
X134000000Y-78100000D01*
X132800000Y-82300000D02*
X137900000Y-82300000D01*
X126900000Y-80100000D02*
G75*
G02*
X128900000Y-78100000I1999999J1D01*
G01*
X130800000Y-84300000D02*
G75*
G02*
X132800000Y-82300000I1999999J1D01*
G01*
%TO.C,C11*%
X137027836Y-9020000D02*
X136812164Y-9020000D01*
X137027836Y-9740000D02*
X136812164Y-9740000D01*
%TO.C,C7*%
X142907836Y-12790000D02*
X142692164Y-12790000D01*
X142907836Y-13510000D02*
X142692164Y-13510000D01*
%TO.C,U2*%
X117710000Y-5540000D02*
X113950000Y-5540000D01*
X117710000Y-6800000D02*
X117710000Y-5540000D01*
X117710000Y-11100000D02*
X117710000Y-12360000D01*
X117710000Y-12360000D02*
X113950000Y-12360000D01*
X112910000Y-12590000D02*
X112430000Y-12590000D01*
X112670000Y-12260000D01*
X112910000Y-12590000D01*
G36*
X112910000Y-12590000D02*
G01*
X112430000Y-12590000D01*
X112670000Y-12260000D01*
X112910000Y-12590000D01*
G37*
%TO.C,C9*%
X138937836Y-11590000D02*
X138722164Y-11590000D01*
X138937836Y-10870000D02*
X138722164Y-10870000D01*
%TO.C,R12*%
X122470000Y-15803641D02*
X122470000Y-15496359D01*
X123230000Y-15803641D02*
X123230000Y-15496359D01*
%TO.C,C6*%
X134490000Y-8872164D02*
X134490000Y-9087836D01*
X135210000Y-8872164D02*
X135210000Y-9087836D01*
%TO.C,C3*%
X125512164Y-12990000D02*
X125727836Y-12990000D01*
X125512164Y-13710000D02*
X125727836Y-13710000D01*
%TO.C,J1*%
X95420000Y-5520000D02*
X95420000Y-4110000D01*
X96240000Y-8040000D02*
X96240000Y-8190000D01*
X96240000Y-8190000D02*
X97040000Y-8190000D01*
X104580000Y-5520000D02*
X104580000Y-4110000D01*
%TO.C,R13*%
X139543641Y-5870000D02*
X139236359Y-5870000D01*
X139543641Y-6630000D02*
X139236359Y-6630000D01*
%TO.C,Y1*%
X119800000Y-16700000D02*
X119800000Y-20700000D01*
X119800000Y-20700000D02*
X123100000Y-20700000D01*
%TO.C,C15*%
X145907836Y-16890000D02*
X145692164Y-16890000D01*
X145907836Y-17610000D02*
X145692164Y-17610000D01*
%TO.C,U1*%
X128640000Y-10540000D02*
X128640000Y-11190000D01*
X128640000Y-17760000D02*
X128640000Y-17110000D01*
X129290000Y-10540000D02*
X128640000Y-10540000D01*
X129290000Y-17760000D02*
X128640000Y-17760000D01*
X135210000Y-10540000D02*
X135860000Y-10540000D01*
X135620000Y-17760000D02*
X135210000Y-17760000D01*
X135860000Y-10540000D02*
X135860000Y-11190000D01*
X135860000Y-17460000D02*
X135860000Y-17110000D01*
X136190000Y-18000000D02*
X135860000Y-17760000D01*
X136190000Y-17520000D01*
X136190000Y-18000000D01*
G36*
X136190000Y-18000000D02*
G01*
X135860000Y-17760000D01*
X136190000Y-17520000D01*
X136190000Y-18000000D01*
G37*
%TO.C,C2*%
X142907836Y-11840000D02*
X142692164Y-11840000D01*
X142907836Y-12560000D02*
X142692164Y-12560000D01*
%TO.C,R3*%
X139312742Y-13427500D02*
X139787258Y-13427500D01*
X139312742Y-14472500D02*
X139787258Y-14472500D01*
%TO.C,C12*%
X110292164Y-6240000D02*
X110507836Y-6240000D01*
X110292164Y-6960000D02*
X110507836Y-6960000D01*
%TO.C,R15*%
X101370000Y-9543641D02*
X101370000Y-9236359D01*
X102130000Y-9543641D02*
X102130000Y-9236359D01*
%TO.C,D2*%
X144415000Y-11200000D02*
X144415000Y-15085000D01*
X144415000Y-15085000D02*
X146685000Y-15085000D01*
X146685000Y-15085000D02*
X146685000Y-11200000D01*
%TO.C,R2*%
X142020000Y-8296359D02*
X142020000Y-8603641D01*
X142780000Y-8296359D02*
X142780000Y-8603641D01*
%TO.C,R4*%
X139312742Y-11927500D02*
X139787258Y-11927500D01*
X139312742Y-12972500D02*
X139787258Y-12972500D01*
%TO.C,U3*%
X140725000Y-19675000D02*
X140725000Y-22400000D01*
X140725000Y-25125000D02*
X140725000Y-22400000D01*
X140985000Y-19675000D02*
X140725000Y-19675000D01*
X140985000Y-25125000D02*
X140725000Y-25125000D01*
X145915000Y-19675000D02*
X146175000Y-19675000D01*
X145915000Y-25125000D02*
X146175000Y-25125000D01*
X146175000Y-19675000D02*
X146175000Y-22400000D01*
X146175000Y-25125000D02*
X146175000Y-22400000D01*
X146245000Y-26147500D02*
X145915000Y-25907500D01*
X146245000Y-25667500D01*
X146245000Y-26147500D01*
G36*
X146245000Y-26147500D02*
G01*
X145915000Y-25907500D01*
X146245000Y-25667500D01*
X146245000Y-26147500D01*
G37*
%TO.C,R9*%
X144570000Y-27896359D02*
X144570000Y-28203641D01*
X145330000Y-27896359D02*
X145330000Y-28203641D01*
%TO.C,C4*%
X137527836Y-18490000D02*
X137312164Y-18490000D01*
X137527836Y-19210000D02*
X137312164Y-19210000D01*
%TO.C,C10*%
X138327836Y-9940000D02*
X138112164Y-9940000D01*
X138327836Y-10660000D02*
X138112164Y-10660000D01*
%TO.C,C13*%
X110540000Y-10207836D02*
X110540000Y-9992164D01*
X111260000Y-10207836D02*
X111260000Y-9992164D01*
%TO.C,R14*%
X98370000Y-9543641D02*
X98370000Y-9236359D01*
X99130000Y-9543641D02*
X99130000Y-9236359D01*
%TO.C,C5*%
X130890000Y-21207836D02*
X130890000Y-20992164D01*
X131610000Y-21207836D02*
X131610000Y-20992164D01*
%TO.C,C1*%
X131957836Y-8790000D02*
X131742164Y-8790000D01*
X131957836Y-9510000D02*
X131742164Y-9510000D01*
%TO.C,C14*%
X145907836Y-15940000D02*
X145692164Y-15940000D01*
X145907836Y-16660000D02*
X145692164Y-16660000D01*
%TO.C,C18*%
X121342164Y-15740000D02*
X121557836Y-15740000D01*
X121342164Y-16460000D02*
X121557836Y-16460000D01*
%TO.C,C17*%
X118890000Y-18592164D02*
X118890000Y-18807836D01*
X119610000Y-18592164D02*
X119610000Y-18807836D01*
%TO.C,J2*%
X109120000Y-18320000D02*
X109120000Y-20980000D01*
X109120000Y-18320000D02*
X114260000Y-18320000D01*
X109120000Y-20980000D02*
X114260000Y-20980000D01*
X114260000Y-18320000D02*
X114260000Y-20980000D01*
X116860000Y-19650000D02*
X116860000Y-20980000D01*
X116860000Y-20980000D02*
X115530000Y-20980000D01*
%TO.C,R1*%
X142020000Y-6436359D02*
X142020000Y-6743641D01*
X142780000Y-6436359D02*
X142780000Y-6743641D01*
%TO.C,C8*%
X125512164Y-12040000D02*
X125727836Y-12040000D01*
X125512164Y-12760000D02*
X125727836Y-12760000D01*
%TD*%
M02*
