%TF.GenerationSoftware,KiCad,Pcbnew,8.0.6*%
%TF.CreationDate,2024-11-30T20:27:04+08:00*%
%TF.ProjectId,PH-AC,50482d41-432e-46b6-9963-61645f706362,Rev2.3*%
%TF.SameCoordinates,PX405f7e0PY328b740*%
%TF.FileFunction,Paste,Bot*%
%TF.FilePolarity,Positive*%
%FSLAX46Y46*%
G04 Gerber Fmt 4.6, Leading zero omitted, Abs format (unit mm)*
G04 Created by KiCad (PCBNEW 8.0.6) date 2024-11-30 20:27:04*
%MOMM*%
%LPD*%
G01*
G04 APERTURE LIST*
G04 Aperture macros list*
%AMRoundRect*
0 Rectangle with rounded corners*
0 $1 Rounding radius*
0 $2 $3 $4 $5 $6 $7 $8 $9 X,Y pos of 4 corners*
0 Add a 4 corners polygon primitive as box body*
4,1,4,$2,$3,$4,$5,$6,$7,$8,$9,$2,$3,0*
0 Add four circle primitives for the rounded corners*
1,1,$1+$1,$2,$3*
1,1,$1+$1,$4,$5*
1,1,$1+$1,$6,$7*
1,1,$1+$1,$8,$9*
0 Add four rect primitives between the rounded corners*
20,1,$1+$1,$2,$3,$4,$5,0*
20,1,$1+$1,$4,$5,$6,$7,0*
20,1,$1+$1,$6,$7,$8,$9,0*
20,1,$1+$1,$8,$9,$2,$3,0*%
G04 Aperture macros list end*
%ADD10RoundRect,0.250000X-1.025000X-1.000000X1.025000X-1.000000X1.025000X1.000000X-1.025000X1.000000X0*%
%ADD11RoundRect,0.140000X-0.140000X-0.170000X0.140000X-0.170000X0.140000X0.170000X-0.140000X0.170000X0*%
%ADD12RoundRect,0.375000X-0.625000X-0.375000X0.625000X-0.375000X0.625000X0.375000X-0.625000X0.375000X0*%
%ADD13RoundRect,0.500000X-0.500000X-1.400000X0.500000X-1.400000X0.500000X1.400000X-0.500000X1.400000X0*%
%ADD14RoundRect,0.140000X-0.170000X0.140000X-0.170000X-0.140000X0.170000X-0.140000X0.170000X0.140000X0*%
%ADD15RoundRect,0.135000X-0.185000X0.135000X-0.185000X-0.135000X0.185000X-0.135000X0.185000X0.135000X0*%
%ADD16RoundRect,0.140000X0.170000X-0.140000X0.170000X0.140000X-0.170000X0.140000X-0.170000X-0.140000X0*%
%ADD17RoundRect,0.140000X0.140000X0.170000X-0.140000X0.170000X-0.140000X-0.170000X0.140000X-0.170000X0*%
%ADD18RoundRect,0.150000X-0.150000X-0.425000X0.150000X-0.425000X0.150000X0.425000X-0.150000X0.425000X0*%
%ADD19RoundRect,0.075000X-0.075000X-0.500000X0.075000X-0.500000X0.075000X0.500000X-0.075000X0.500000X0*%
%ADD20RoundRect,0.250000X-0.840000X-0.750000X0.840000X-0.750000X0.840000X0.750000X-0.840000X0.750000X0*%
%ADD21RoundRect,0.135000X-0.135000X-0.185000X0.135000X-0.185000X0.135000X0.185000X-0.135000X0.185000X0*%
%ADD22R,1.200000X1.400000*%
%ADD23RoundRect,0.135000X0.185000X-0.135000X0.185000X0.135000X-0.185000X0.135000X-0.185000X-0.135000X0*%
%ADD24RoundRect,0.249999X0.395001X-0.395001X0.395001X0.395001X-0.395001X0.395001X-0.395001X-0.395001X0*%
%ADD25RoundRect,0.050000X0.050000X-0.387500X0.050000X0.387500X-0.050000X0.387500X-0.050000X-0.387500X0*%
%ADD26RoundRect,0.050000X0.387500X-0.050000X0.387500X0.050000X-0.387500X0.050000X-0.387500X-0.050000X0*%
%ADD27RoundRect,0.200000X0.200000X0.275000X-0.200000X0.275000X-0.200000X-0.275000X0.200000X-0.275000X0*%
%ADD28RoundRect,0.250000X0.625000X-0.375000X0.625000X0.375000X-0.625000X0.375000X-0.625000X-0.375000X0*%
%ADD29RoundRect,0.150000X0.150000X-0.650000X0.150000X0.650000X-0.150000X0.650000X-0.150000X-0.650000X0*%
G04 APERTURE END LIST*
D10*
%TO.C,SW1*%
X29665000Y-38035000D03*
X42592000Y-35495000D03*
%TD*%
%TO.C,SW0*%
X79165000Y-14035000D03*
X92092000Y-11495000D03*
%TD*%
%TO.C,SW4*%
X128665000Y-38035000D03*
X141592000Y-35495000D03*
%TD*%
%TO.C,SW2*%
X62665000Y-38035000D03*
X75592000Y-35495000D03*
%TD*%
%TO.C,SW5*%
X46165000Y-80035000D03*
X59092000Y-77495000D03*
%TD*%
%TO.C,SW3*%
X95665000Y-38035000D03*
X108592000Y-35495000D03*
%TD*%
%TO.C,SW6*%
X112165000Y-80035000D03*
X125092000Y-77495000D03*
%TD*%
D11*
%TO.C,C11*%
X122690000Y-6955000D03*
X123650000Y-6955000D03*
%TD*%
%TO.C,C7*%
X128570000Y-10725000D03*
X129530000Y-10725000D03*
%TD*%
D12*
%TO.C,U2*%
X98900000Y-8825000D03*
X98900000Y-6525000D03*
D13*
X105200000Y-6525000D03*
D12*
X98900000Y-4225000D03*
%TD*%
D11*
%TO.C,C9*%
X124600000Y-8805000D03*
X125560000Y-8805000D03*
%TD*%
D14*
%TO.C,C16*%
X13880000Y-8340000D03*
X13880000Y-9300000D03*
%TD*%
D15*
%TO.C,R12*%
X109100000Y-12715000D03*
X109100000Y-13735000D03*
%TD*%
D16*
%TO.C,C6*%
X121100000Y-7035000D03*
X121100000Y-6075000D03*
%TD*%
D17*
%TO.C,C3*%
X112350000Y-10925000D03*
X111390000Y-10925000D03*
%TD*%
D18*
%TO.C,J1*%
X83050000Y-4930000D03*
X83850000Y-4930000D03*
D19*
X85000000Y-4930000D03*
X86000000Y-4930000D03*
X86500000Y-4930000D03*
X87500000Y-4930000D03*
D18*
X88650000Y-4930000D03*
X89450000Y-4930000D03*
X89450000Y-4930000D03*
X88650000Y-4930000D03*
D19*
X88000000Y-4930000D03*
X87000000Y-4930000D03*
X85500000Y-4930000D03*
X84500000Y-4930000D03*
D18*
X83850000Y-4930000D03*
X83050000Y-4930000D03*
D20*
X81140000Y-425000D03*
X81140000Y-4355000D03*
X91360000Y-425000D03*
X91360000Y-4355000D03*
%TD*%
D21*
%TO.C,R13*%
X125130000Y-3825000D03*
X126150000Y-3825000D03*
%TD*%
D22*
%TO.C,Y1*%
X106850000Y-17375000D03*
X106850000Y-15175000D03*
X108550000Y-15175000D03*
X108550000Y-17375000D03*
%TD*%
D11*
%TO.C,C15*%
X131570000Y-14825000D03*
X132530000Y-14825000D03*
%TD*%
D23*
%TO.C,R11*%
X155525000Y-8030000D03*
X155525000Y-7010000D03*
%TD*%
%TO.C,R8*%
X17550000Y-15675000D03*
X17550000Y-14655000D03*
%TD*%
D15*
%TO.C,R10*%
X17580000Y-8325000D03*
X17580000Y-9345000D03*
%TD*%
D14*
%TO.C,C19*%
X158125000Y-7025000D03*
X158125000Y-7985000D03*
%TD*%
D24*
%TO.C,U1*%
X117700000Y-12525000D03*
X119300000Y-12525000D03*
X117700000Y-10925000D03*
X119300000Y-10925000D03*
D25*
X121100000Y-15162500D03*
X120700000Y-15162500D03*
X120300000Y-15162500D03*
X119900000Y-15162500D03*
X119500000Y-15162500D03*
X119100000Y-15162500D03*
X118700000Y-15162500D03*
X118300000Y-15162500D03*
X117900000Y-15162500D03*
X117500000Y-15162500D03*
X117100000Y-15162500D03*
X116700000Y-15162500D03*
X116300000Y-15162500D03*
X115900000Y-15162500D03*
D26*
X115062500Y-14325000D03*
X115062500Y-13925000D03*
X115062500Y-13525000D03*
X115062500Y-13125000D03*
X115062500Y-12725000D03*
X115062500Y-12325000D03*
X115062500Y-11925000D03*
X115062500Y-11525000D03*
X115062500Y-11125000D03*
X115062500Y-10725000D03*
X115062500Y-10325000D03*
X115062500Y-9925000D03*
X115062500Y-9525000D03*
X115062500Y-9125000D03*
D25*
X115900000Y-8287500D03*
X116300000Y-8287500D03*
X116700000Y-8287500D03*
X117100000Y-8287500D03*
X117500000Y-8287500D03*
X117900000Y-8287500D03*
X118300000Y-8287500D03*
X118700000Y-8287500D03*
X119100000Y-8287500D03*
X119500000Y-8287500D03*
X119900000Y-8287500D03*
X120300000Y-8287500D03*
X120700000Y-8287500D03*
X121100000Y-8287500D03*
D26*
X121937500Y-9125000D03*
X121937500Y-9525000D03*
X121937500Y-9925000D03*
X121937500Y-10325000D03*
X121937500Y-10725000D03*
X121937500Y-11125000D03*
X121937500Y-11525000D03*
X121937500Y-11925000D03*
X121937500Y-12325000D03*
X121937500Y-12725000D03*
X121937500Y-13125000D03*
X121937500Y-13525000D03*
X121937500Y-13925000D03*
X121937500Y-14325000D03*
%TD*%
D11*
%TO.C,C2*%
X128570000Y-9775000D03*
X129530000Y-9775000D03*
%TD*%
D27*
%TO.C,R3*%
X126625000Y-11525000D03*
X124975000Y-11525000D03*
%TD*%
D17*
%TO.C,C12*%
X97130000Y-4175000D03*
X96170000Y-4175000D03*
%TD*%
D14*
%TO.C,C20*%
X157925000Y-15400000D03*
X157925000Y-16360000D03*
%TD*%
D15*
%TO.C,R15*%
X88000000Y-6455000D03*
X88000000Y-7475000D03*
%TD*%
D28*
%TO.C,D2*%
X131800000Y-11775000D03*
X131800000Y-8975000D03*
%TD*%
D23*
%TO.C,R2*%
X128650000Y-6535000D03*
X128650000Y-5515000D03*
%TD*%
D27*
%TO.C,R4*%
X126625000Y-10025000D03*
X124975000Y-10025000D03*
%TD*%
D29*
%TO.C,U3*%
X131605000Y-23575000D03*
X130335000Y-23575000D03*
X129065000Y-23575000D03*
X127795000Y-23575000D03*
X127795000Y-16375000D03*
X129065000Y-16375000D03*
X130335000Y-16375000D03*
X131605000Y-16375000D03*
%TD*%
D23*
%TO.C,R9*%
X131200000Y-26135000D03*
X131200000Y-25115000D03*
%TD*%
D15*
%TO.C,R0*%
X18800000Y-14665000D03*
X18800000Y-15685000D03*
%TD*%
D11*
%TO.C,C4*%
X123190000Y-16425000D03*
X124150000Y-16425000D03*
%TD*%
%TO.C,C10*%
X123990000Y-7875000D03*
X124950000Y-7875000D03*
%TD*%
D15*
%TO.C,R7*%
X154275000Y-15365000D03*
X154275000Y-16385000D03*
%TD*%
D14*
%TO.C,C13*%
X97150000Y-7195000D03*
X97150000Y-8155000D03*
%TD*%
%TO.C,C0*%
X13750000Y-14590000D03*
X13750000Y-15550000D03*
%TD*%
D15*
%TO.C,R14*%
X85000000Y-6455000D03*
X85000000Y-7475000D03*
%TD*%
%TO.C,R6*%
X154400000Y-7000000D03*
X154400000Y-8020000D03*
%TD*%
D14*
%TO.C,C5*%
X114750000Y-21040000D03*
X114750000Y-22000000D03*
%TD*%
D11*
%TO.C,C1*%
X117620000Y-6725000D03*
X118580000Y-6725000D03*
%TD*%
%TO.C,C14*%
X131570000Y-13875000D03*
X132530000Y-13875000D03*
%TD*%
D17*
%TO.C,C18*%
X108180000Y-13675000D03*
X107220000Y-13675000D03*
%TD*%
D16*
%TO.C,C17*%
X105500000Y-16755000D03*
X105500000Y-15795000D03*
%TD*%
D15*
%TO.C,R5*%
X18830000Y-8320000D03*
X18830000Y-9340000D03*
%TD*%
D23*
%TO.C,R1*%
X128650000Y-4675000D03*
X128650000Y-3655000D03*
%TD*%
D15*
%TO.C,R16*%
X155325000Y-15365000D03*
X155325000Y-16385000D03*
%TD*%
D17*
%TO.C,C8*%
X112350000Y-9975000D03*
X111390000Y-9975000D03*
%TD*%
M02*
