%TF.GenerationSoftware,KiCad,Pcbnew,8.0.4*%
%TF.CreationDate,2024-09-29T20:47:35+08:00*%
%TF.ProjectId,PH-AC,50482d41-432e-46b6-9963-61645f706362,Rev2.2*%
%TF.SameCoordinates,PX405f7e0PY328b740*%
%TF.FileFunction,Legend,Top*%
%TF.FilePolarity,Positive*%
%FSLAX46Y46*%
G04 Gerber Fmt 4.6, Leading zero omitted, Abs format (unit mm)*
G04 Created by KiCad (PCBNEW 8.0.4) date 2024-09-29 20:47:35*
%MOMM*%
%LPD*%
G01*
G04 APERTURE LIST*
%ADD10C,0.175000*%
%ADD11C,0.120000*%
G04 APERTURE END LIST*
D10*
X35875000Y-49048066D02*
X35975000Y-49081400D01*
X35975000Y-49081400D02*
X36008333Y-49114733D01*
X36008333Y-49114733D02*
X36041666Y-49181400D01*
X36041666Y-49181400D02*
X36041666Y-49281400D01*
X36041666Y-49281400D02*
X36008333Y-49348066D01*
X36008333Y-49348066D02*
X35975000Y-49381400D01*
X35975000Y-49381400D02*
X35908333Y-49414733D01*
X35908333Y-49414733D02*
X35641666Y-49414733D01*
X35641666Y-49414733D02*
X35641666Y-48714733D01*
X35641666Y-48714733D02*
X35875000Y-48714733D01*
X35875000Y-48714733D02*
X35941666Y-48748066D01*
X35941666Y-48748066D02*
X35975000Y-48781400D01*
X35975000Y-48781400D02*
X36008333Y-48848066D01*
X36008333Y-48848066D02*
X36008333Y-48914733D01*
X36008333Y-48914733D02*
X35975000Y-48981400D01*
X35975000Y-48981400D02*
X35941666Y-49014733D01*
X35941666Y-49014733D02*
X35875000Y-49048066D01*
X35875000Y-49048066D02*
X35641666Y-49048066D01*
X36241666Y-48714733D02*
X36641666Y-48714733D01*
X36441666Y-49414733D02*
X36441666Y-48714733D01*
X36874999Y-49148066D02*
X37408333Y-49148066D01*
X37708333Y-49214733D02*
X38041666Y-49214733D01*
X37641666Y-49414733D02*
X37875000Y-48714733D01*
X37875000Y-48714733D02*
X38108333Y-49414733D01*
X150716666Y-70039733D02*
X150716666Y-69339733D01*
X150716666Y-69673066D02*
X151116666Y-69673066D01*
X151116666Y-70039733D02*
X151116666Y-69339733D01*
X151749999Y-69339733D02*
X151616666Y-69339733D01*
X151616666Y-69339733D02*
X151549999Y-69373066D01*
X151549999Y-69373066D02*
X151516666Y-69406400D01*
X151516666Y-69406400D02*
X151449999Y-69506400D01*
X151449999Y-69506400D02*
X151416666Y-69639733D01*
X151416666Y-69639733D02*
X151416666Y-69906400D01*
X151416666Y-69906400D02*
X151449999Y-69973066D01*
X151449999Y-69973066D02*
X151483333Y-70006400D01*
X151483333Y-70006400D02*
X151549999Y-70039733D01*
X151549999Y-70039733D02*
X151683333Y-70039733D01*
X151683333Y-70039733D02*
X151749999Y-70006400D01*
X151749999Y-70006400D02*
X151783333Y-69973066D01*
X151783333Y-69973066D02*
X151816666Y-69906400D01*
X151816666Y-69906400D02*
X151816666Y-69739733D01*
X151816666Y-69739733D02*
X151783333Y-69673066D01*
X151783333Y-69673066D02*
X151749999Y-69639733D01*
X151749999Y-69639733D02*
X151683333Y-69606400D01*
X151683333Y-69606400D02*
X151549999Y-69606400D01*
X151549999Y-69606400D02*
X151483333Y-69639733D01*
X151483333Y-69639733D02*
X151449999Y-69673066D01*
X151449999Y-69673066D02*
X151416666Y-69739733D01*
X165716666Y-44039733D02*
X165716666Y-43339733D01*
X165716666Y-43673066D02*
X166116666Y-43673066D01*
X166116666Y-44039733D02*
X166116666Y-43339733D01*
X166749999Y-43573066D02*
X166749999Y-44039733D01*
X166583333Y-43306400D02*
X166416666Y-43806400D01*
X166416666Y-43806400D02*
X166849999Y-43806400D01*
X84716667Y-25406400D02*
X84816667Y-25439733D01*
X84816667Y-25439733D02*
X84983334Y-25439733D01*
X84983334Y-25439733D02*
X85050000Y-25406400D01*
X85050000Y-25406400D02*
X85083334Y-25373066D01*
X85083334Y-25373066D02*
X85116667Y-25306400D01*
X85116667Y-25306400D02*
X85116667Y-25239733D01*
X85116667Y-25239733D02*
X85083334Y-25173066D01*
X85083334Y-25173066D02*
X85050000Y-25139733D01*
X85050000Y-25139733D02*
X84983334Y-25106400D01*
X84983334Y-25106400D02*
X84850000Y-25073066D01*
X84850000Y-25073066D02*
X84783334Y-25039733D01*
X84783334Y-25039733D02*
X84750000Y-25006400D01*
X84750000Y-25006400D02*
X84716667Y-24939733D01*
X84716667Y-24939733D02*
X84716667Y-24873066D01*
X84716667Y-24873066D02*
X84750000Y-24806400D01*
X84750000Y-24806400D02*
X84783334Y-24773066D01*
X84783334Y-24773066D02*
X84850000Y-24739733D01*
X84850000Y-24739733D02*
X85016667Y-24739733D01*
X85016667Y-24739733D02*
X85116667Y-24773066D01*
X85316667Y-24739733D02*
X85716667Y-24739733D01*
X85516667Y-25439733D02*
X85516667Y-24739733D01*
X85916667Y-25239733D02*
X86250000Y-25239733D01*
X85850000Y-25439733D02*
X86083334Y-24739733D01*
X86083334Y-24739733D02*
X86316667Y-25439733D01*
X86950000Y-25439733D02*
X86716667Y-25106400D01*
X86550000Y-25439733D02*
X86550000Y-24739733D01*
X86550000Y-24739733D02*
X86816667Y-24739733D01*
X86816667Y-24739733D02*
X86883334Y-24773066D01*
X86883334Y-24773066D02*
X86916667Y-24806400D01*
X86916667Y-24806400D02*
X86950000Y-24873066D01*
X86950000Y-24873066D02*
X86950000Y-24973066D01*
X86950000Y-24973066D02*
X86916667Y-25039733D01*
X86916667Y-25039733D02*
X86883334Y-25073066D01*
X86883334Y-25073066D02*
X86816667Y-25106400D01*
X86816667Y-25106400D02*
X86550000Y-25106400D01*
X87150000Y-24739733D02*
X87550000Y-24739733D01*
X87350000Y-25439733D02*
X87350000Y-24739733D01*
X26716666Y-8039733D02*
X26716666Y-7339733D01*
X26716666Y-7673066D02*
X27116666Y-7673066D01*
X27116666Y-8039733D02*
X27116666Y-7339733D01*
X27816666Y-8039733D02*
X27416666Y-8039733D01*
X27616666Y-8039733D02*
X27616666Y-7339733D01*
X27616666Y-7339733D02*
X27549999Y-7439733D01*
X27549999Y-7439733D02*
X27483333Y-7506400D01*
X27483333Y-7506400D02*
X27416666Y-7539733D01*
X144716666Y-8039733D02*
X144716666Y-7339733D01*
X144716666Y-7673066D02*
X145116666Y-7673066D01*
X145116666Y-8039733D02*
X145116666Y-7339733D01*
X145416666Y-7406400D02*
X145449999Y-7373066D01*
X145449999Y-7373066D02*
X145516666Y-7339733D01*
X145516666Y-7339733D02*
X145683333Y-7339733D01*
X145683333Y-7339733D02*
X145749999Y-7373066D01*
X145749999Y-7373066D02*
X145783333Y-7406400D01*
X145783333Y-7406400D02*
X145816666Y-7473066D01*
X145816666Y-7473066D02*
X145816666Y-7539733D01*
X145816666Y-7539733D02*
X145783333Y-7639733D01*
X145783333Y-7639733D02*
X145383333Y-8039733D01*
X145383333Y-8039733D02*
X145816666Y-8039733D01*
X134775000Y-48923066D02*
X134875000Y-48956400D01*
X134875000Y-48956400D02*
X134908333Y-48989733D01*
X134908333Y-48989733D02*
X134941666Y-49056400D01*
X134941666Y-49056400D02*
X134941666Y-49156400D01*
X134941666Y-49156400D02*
X134908333Y-49223066D01*
X134908333Y-49223066D02*
X134875000Y-49256400D01*
X134875000Y-49256400D02*
X134808333Y-49289733D01*
X134808333Y-49289733D02*
X134541666Y-49289733D01*
X134541666Y-49289733D02*
X134541666Y-48589733D01*
X134541666Y-48589733D02*
X134775000Y-48589733D01*
X134775000Y-48589733D02*
X134841666Y-48623066D01*
X134841666Y-48623066D02*
X134875000Y-48656400D01*
X134875000Y-48656400D02*
X134908333Y-48723066D01*
X134908333Y-48723066D02*
X134908333Y-48789733D01*
X134908333Y-48789733D02*
X134875000Y-48856400D01*
X134875000Y-48856400D02*
X134841666Y-48889733D01*
X134841666Y-48889733D02*
X134775000Y-48923066D01*
X134775000Y-48923066D02*
X134541666Y-48923066D01*
X135141666Y-48589733D02*
X135541666Y-48589733D01*
X135341666Y-49289733D02*
X135341666Y-48589733D01*
X135774999Y-49023066D02*
X136308333Y-49023066D01*
X136641666Y-49289733D02*
X136641666Y-48589733D01*
X136641666Y-48589733D02*
X136808333Y-48589733D01*
X136808333Y-48589733D02*
X136908333Y-48623066D01*
X136908333Y-48623066D02*
X136975000Y-48689733D01*
X136975000Y-48689733D02*
X137008333Y-48756400D01*
X137008333Y-48756400D02*
X137041666Y-48889733D01*
X137041666Y-48889733D02*
X137041666Y-48989733D01*
X137041666Y-48989733D02*
X137008333Y-49123066D01*
X137008333Y-49123066D02*
X136975000Y-49189733D01*
X136975000Y-49189733D02*
X136908333Y-49256400D01*
X136908333Y-49256400D02*
X136808333Y-49289733D01*
X136808333Y-49289733D02*
X136641666Y-49289733D01*
X68725000Y-49173066D02*
X68825000Y-49206400D01*
X68825000Y-49206400D02*
X68858333Y-49239733D01*
X68858333Y-49239733D02*
X68891666Y-49306400D01*
X68891666Y-49306400D02*
X68891666Y-49406400D01*
X68891666Y-49406400D02*
X68858333Y-49473066D01*
X68858333Y-49473066D02*
X68825000Y-49506400D01*
X68825000Y-49506400D02*
X68758333Y-49539733D01*
X68758333Y-49539733D02*
X68491666Y-49539733D01*
X68491666Y-49539733D02*
X68491666Y-48839733D01*
X68491666Y-48839733D02*
X68725000Y-48839733D01*
X68725000Y-48839733D02*
X68791666Y-48873066D01*
X68791666Y-48873066D02*
X68825000Y-48906400D01*
X68825000Y-48906400D02*
X68858333Y-48973066D01*
X68858333Y-48973066D02*
X68858333Y-49039733D01*
X68858333Y-49039733D02*
X68825000Y-49106400D01*
X68825000Y-49106400D02*
X68791666Y-49139733D01*
X68791666Y-49139733D02*
X68725000Y-49173066D01*
X68725000Y-49173066D02*
X68491666Y-49173066D01*
X69091666Y-48839733D02*
X69491666Y-48839733D01*
X69291666Y-49539733D02*
X69291666Y-48839733D01*
X69724999Y-49273066D02*
X70258333Y-49273066D01*
X70825000Y-49173066D02*
X70925000Y-49206400D01*
X70925000Y-49206400D02*
X70958333Y-49239733D01*
X70958333Y-49239733D02*
X70991666Y-49306400D01*
X70991666Y-49306400D02*
X70991666Y-49406400D01*
X70991666Y-49406400D02*
X70958333Y-49473066D01*
X70958333Y-49473066D02*
X70925000Y-49506400D01*
X70925000Y-49506400D02*
X70858333Y-49539733D01*
X70858333Y-49539733D02*
X70591666Y-49539733D01*
X70591666Y-49539733D02*
X70591666Y-48839733D01*
X70591666Y-48839733D02*
X70825000Y-48839733D01*
X70825000Y-48839733D02*
X70891666Y-48873066D01*
X70891666Y-48873066D02*
X70925000Y-48906400D01*
X70925000Y-48906400D02*
X70958333Y-48973066D01*
X70958333Y-48973066D02*
X70958333Y-49039733D01*
X70958333Y-49039733D02*
X70925000Y-49106400D01*
X70925000Y-49106400D02*
X70891666Y-49139733D01*
X70891666Y-49139733D02*
X70825000Y-49173066D01*
X70825000Y-49173066D02*
X70591666Y-49173066D01*
X52350000Y-91023066D02*
X52116666Y-91023066D01*
X52116666Y-91389733D02*
X52116666Y-90689733D01*
X52116666Y-90689733D02*
X52450000Y-90689733D01*
X52650000Y-90689733D02*
X53116666Y-91389733D01*
X53116666Y-90689733D02*
X52650000Y-91389733D01*
X53383333Y-91123066D02*
X53916667Y-91123066D01*
X54583334Y-91389733D02*
X54250000Y-91389733D01*
X54250000Y-91389733D02*
X54250000Y-90689733D01*
X5716666Y-44039733D02*
X5716666Y-43339733D01*
X5716666Y-43673066D02*
X6116666Y-43673066D01*
X6116666Y-44039733D02*
X6116666Y-43339733D01*
X6383333Y-43339733D02*
X6816666Y-43339733D01*
X6816666Y-43339733D02*
X6583333Y-43606400D01*
X6583333Y-43606400D02*
X6683333Y-43606400D01*
X6683333Y-43606400D02*
X6749999Y-43639733D01*
X6749999Y-43639733D02*
X6783333Y-43673066D01*
X6783333Y-43673066D02*
X6816666Y-43739733D01*
X6816666Y-43739733D02*
X6816666Y-43906400D01*
X6816666Y-43906400D02*
X6783333Y-43973066D01*
X6783333Y-43973066D02*
X6749999Y-44006400D01*
X6749999Y-44006400D02*
X6683333Y-44039733D01*
X6683333Y-44039733D02*
X6483333Y-44039733D01*
X6483333Y-44039733D02*
X6416666Y-44006400D01*
X6416666Y-44006400D02*
X6383333Y-43973066D01*
X101600000Y-48873066D02*
X101700000Y-48906400D01*
X101700000Y-48906400D02*
X101733333Y-48939733D01*
X101733333Y-48939733D02*
X101766666Y-49006400D01*
X101766666Y-49006400D02*
X101766666Y-49106400D01*
X101766666Y-49106400D02*
X101733333Y-49173066D01*
X101733333Y-49173066D02*
X101700000Y-49206400D01*
X101700000Y-49206400D02*
X101633333Y-49239733D01*
X101633333Y-49239733D02*
X101366666Y-49239733D01*
X101366666Y-49239733D02*
X101366666Y-48539733D01*
X101366666Y-48539733D02*
X101600000Y-48539733D01*
X101600000Y-48539733D02*
X101666666Y-48573066D01*
X101666666Y-48573066D02*
X101700000Y-48606400D01*
X101700000Y-48606400D02*
X101733333Y-48673066D01*
X101733333Y-48673066D02*
X101733333Y-48739733D01*
X101733333Y-48739733D02*
X101700000Y-48806400D01*
X101700000Y-48806400D02*
X101666666Y-48839733D01*
X101666666Y-48839733D02*
X101600000Y-48873066D01*
X101600000Y-48873066D02*
X101366666Y-48873066D01*
X101966666Y-48539733D02*
X102366666Y-48539733D01*
X102166666Y-49239733D02*
X102166666Y-48539733D01*
X102599999Y-48973066D02*
X103133333Y-48973066D01*
X103866666Y-49173066D02*
X103833333Y-49206400D01*
X103833333Y-49206400D02*
X103733333Y-49239733D01*
X103733333Y-49239733D02*
X103666666Y-49239733D01*
X103666666Y-49239733D02*
X103566666Y-49206400D01*
X103566666Y-49206400D02*
X103500000Y-49139733D01*
X103500000Y-49139733D02*
X103466666Y-49073066D01*
X103466666Y-49073066D02*
X103433333Y-48939733D01*
X103433333Y-48939733D02*
X103433333Y-48839733D01*
X103433333Y-48839733D02*
X103466666Y-48706400D01*
X103466666Y-48706400D02*
X103500000Y-48639733D01*
X103500000Y-48639733D02*
X103566666Y-48573066D01*
X103566666Y-48573066D02*
X103666666Y-48539733D01*
X103666666Y-48539733D02*
X103733333Y-48539733D01*
X103733333Y-48539733D02*
X103833333Y-48573066D01*
X103833333Y-48573066D02*
X103866666Y-48606400D01*
X118308333Y-90698066D02*
X118074999Y-90698066D01*
X118074999Y-91064733D02*
X118074999Y-90364733D01*
X118074999Y-90364733D02*
X118408333Y-90364733D01*
X118608333Y-90364733D02*
X119074999Y-91064733D01*
X119074999Y-90364733D02*
X118608333Y-91064733D01*
X119341666Y-90798066D02*
X119875000Y-90798066D01*
X120608333Y-91064733D02*
X120375000Y-90731400D01*
X120208333Y-91064733D02*
X120208333Y-90364733D01*
X120208333Y-90364733D02*
X120475000Y-90364733D01*
X120475000Y-90364733D02*
X120541667Y-90398066D01*
X120541667Y-90398066D02*
X120575000Y-90431400D01*
X120575000Y-90431400D02*
X120608333Y-90498066D01*
X120608333Y-90498066D02*
X120608333Y-90598066D01*
X120608333Y-90598066D02*
X120575000Y-90664733D01*
X120575000Y-90664733D02*
X120541667Y-90698066D01*
X120541667Y-90698066D02*
X120475000Y-90731400D01*
X120475000Y-90731400D02*
X120208333Y-90731400D01*
X167541666Y-3414733D02*
X167775000Y-4114733D01*
X167775000Y-4114733D02*
X168008333Y-3414733D01*
X168375000Y-3414733D02*
X168508333Y-3414733D01*
X168508333Y-3414733D02*
X168575000Y-3448066D01*
X168575000Y-3448066D02*
X168641666Y-3514733D01*
X168641666Y-3514733D02*
X168675000Y-3648066D01*
X168675000Y-3648066D02*
X168675000Y-3881400D01*
X168675000Y-3881400D02*
X168641666Y-4014733D01*
X168641666Y-4014733D02*
X168575000Y-4081400D01*
X168575000Y-4081400D02*
X168508333Y-4114733D01*
X168508333Y-4114733D02*
X168375000Y-4114733D01*
X168375000Y-4114733D02*
X168308333Y-4081400D01*
X168308333Y-4081400D02*
X168241666Y-4014733D01*
X168241666Y-4014733D02*
X168208333Y-3881400D01*
X168208333Y-3881400D02*
X168208333Y-3648066D01*
X168208333Y-3648066D02*
X168241666Y-3514733D01*
X168241666Y-3514733D02*
X168308333Y-3448066D01*
X168308333Y-3448066D02*
X168375000Y-3414733D01*
X169374999Y-4114733D02*
X169141666Y-3781400D01*
X168974999Y-4114733D02*
X168974999Y-3414733D01*
X168974999Y-3414733D02*
X169241666Y-3414733D01*
X169241666Y-3414733D02*
X169308333Y-3448066D01*
X169308333Y-3448066D02*
X169341666Y-3481400D01*
X169341666Y-3481400D02*
X169374999Y-3548066D01*
X169374999Y-3548066D02*
X169374999Y-3648066D01*
X169374999Y-3648066D02*
X169341666Y-3714733D01*
X169341666Y-3714733D02*
X169308333Y-3748066D01*
X169308333Y-3748066D02*
X169241666Y-3781400D01*
X169241666Y-3781400D02*
X168974999Y-3781400D01*
X169674999Y-3848066D02*
X170208333Y-3848066D01*
X170941666Y-4114733D02*
X170708333Y-3781400D01*
X170541666Y-4114733D02*
X170541666Y-3414733D01*
X170541666Y-3414733D02*
X170808333Y-3414733D01*
X170808333Y-3414733D02*
X170875000Y-3448066D01*
X170875000Y-3448066D02*
X170908333Y-3481400D01*
X170908333Y-3481400D02*
X170941666Y-3548066D01*
X170941666Y-3548066D02*
X170941666Y-3648066D01*
X170941666Y-3648066D02*
X170908333Y-3714733D01*
X170908333Y-3714733D02*
X170875000Y-3748066D01*
X170875000Y-3748066D02*
X170808333Y-3781400D01*
X170808333Y-3781400D02*
X170541666Y-3781400D01*
X1283333Y-1839733D02*
X1516667Y-2539733D01*
X1516667Y-2539733D02*
X1750000Y-1839733D01*
X2116667Y-1839733D02*
X2250000Y-1839733D01*
X2250000Y-1839733D02*
X2316667Y-1873066D01*
X2316667Y-1873066D02*
X2383333Y-1939733D01*
X2383333Y-1939733D02*
X2416667Y-2073066D01*
X2416667Y-2073066D02*
X2416667Y-2306400D01*
X2416667Y-2306400D02*
X2383333Y-2439733D01*
X2383333Y-2439733D02*
X2316667Y-2506400D01*
X2316667Y-2506400D02*
X2250000Y-2539733D01*
X2250000Y-2539733D02*
X2116667Y-2539733D01*
X2116667Y-2539733D02*
X2050000Y-2506400D01*
X2050000Y-2506400D02*
X1983333Y-2439733D01*
X1983333Y-2439733D02*
X1950000Y-2306400D01*
X1950000Y-2306400D02*
X1950000Y-2073066D01*
X1950000Y-2073066D02*
X1983333Y-1939733D01*
X1983333Y-1939733D02*
X2050000Y-1873066D01*
X2050000Y-1873066D02*
X2116667Y-1839733D01*
X3116666Y-2539733D02*
X2883333Y-2206400D01*
X2716666Y-2539733D02*
X2716666Y-1839733D01*
X2716666Y-1839733D02*
X2983333Y-1839733D01*
X2983333Y-1839733D02*
X3050000Y-1873066D01*
X3050000Y-1873066D02*
X3083333Y-1906400D01*
X3083333Y-1906400D02*
X3116666Y-1973066D01*
X3116666Y-1973066D02*
X3116666Y-2073066D01*
X3116666Y-2073066D02*
X3083333Y-2139733D01*
X3083333Y-2139733D02*
X3050000Y-2173066D01*
X3050000Y-2173066D02*
X2983333Y-2206400D01*
X2983333Y-2206400D02*
X2716666Y-2206400D01*
X3416666Y-2273066D02*
X3950000Y-2273066D01*
X4616667Y-2539733D02*
X4283333Y-2539733D01*
X4283333Y-2539733D02*
X4283333Y-1839733D01*
X20716666Y-70039733D02*
X20716666Y-69339733D01*
X20716666Y-69673066D02*
X21116666Y-69673066D01*
X21116666Y-70039733D02*
X21116666Y-69339733D01*
X21783333Y-69339733D02*
X21449999Y-69339733D01*
X21449999Y-69339733D02*
X21416666Y-69673066D01*
X21416666Y-69673066D02*
X21449999Y-69639733D01*
X21449999Y-69639733D02*
X21516666Y-69606400D01*
X21516666Y-69606400D02*
X21683333Y-69606400D01*
X21683333Y-69606400D02*
X21749999Y-69639733D01*
X21749999Y-69639733D02*
X21783333Y-69673066D01*
X21783333Y-69673066D02*
X21816666Y-69739733D01*
X21816666Y-69739733D02*
X21816666Y-69906400D01*
X21816666Y-69906400D02*
X21783333Y-69973066D01*
X21783333Y-69973066D02*
X21749999Y-70006400D01*
X21749999Y-70006400D02*
X21683333Y-70039733D01*
X21683333Y-70039733D02*
X21516666Y-70039733D01*
X21516666Y-70039733D02*
X21449999Y-70006400D01*
X21449999Y-70006400D02*
X21416666Y-69973066D01*
X70716666Y-59039733D02*
X70716666Y-58339733D01*
X70716666Y-58673066D02*
X71116666Y-58673066D01*
X71116666Y-59039733D02*
X71116666Y-58339733D01*
X71383333Y-58339733D02*
X71849999Y-58339733D01*
X71849999Y-58339733D02*
X71549999Y-59039733D01*
X100716666Y-59039733D02*
X100716666Y-58339733D01*
X100716666Y-58673066D02*
X101116666Y-58673066D01*
X101116666Y-59039733D02*
X101116666Y-58339733D01*
X101549999Y-58639733D02*
X101483333Y-58606400D01*
X101483333Y-58606400D02*
X101449999Y-58573066D01*
X101449999Y-58573066D02*
X101416666Y-58506400D01*
X101416666Y-58506400D02*
X101416666Y-58473066D01*
X101416666Y-58473066D02*
X101449999Y-58406400D01*
X101449999Y-58406400D02*
X101483333Y-58373066D01*
X101483333Y-58373066D02*
X101549999Y-58339733D01*
X101549999Y-58339733D02*
X101683333Y-58339733D01*
X101683333Y-58339733D02*
X101749999Y-58373066D01*
X101749999Y-58373066D02*
X101783333Y-58406400D01*
X101783333Y-58406400D02*
X101816666Y-58473066D01*
X101816666Y-58473066D02*
X101816666Y-58506400D01*
X101816666Y-58506400D02*
X101783333Y-58573066D01*
X101783333Y-58573066D02*
X101749999Y-58606400D01*
X101749999Y-58606400D02*
X101683333Y-58639733D01*
X101683333Y-58639733D02*
X101549999Y-58639733D01*
X101549999Y-58639733D02*
X101483333Y-58673066D01*
X101483333Y-58673066D02*
X101449999Y-58706400D01*
X101449999Y-58706400D02*
X101416666Y-58773066D01*
X101416666Y-58773066D02*
X101416666Y-58906400D01*
X101416666Y-58906400D02*
X101449999Y-58973066D01*
X101449999Y-58973066D02*
X101483333Y-59006400D01*
X101483333Y-59006400D02*
X101549999Y-59039733D01*
X101549999Y-59039733D02*
X101683333Y-59039733D01*
X101683333Y-59039733D02*
X101749999Y-59006400D01*
X101749999Y-59006400D02*
X101783333Y-58973066D01*
X101783333Y-58973066D02*
X101816666Y-58906400D01*
X101816666Y-58906400D02*
X101816666Y-58773066D01*
X101816666Y-58773066D02*
X101783333Y-58706400D01*
X101783333Y-58706400D02*
X101749999Y-58673066D01*
X101749999Y-58673066D02*
X101683333Y-58639733D01*
D11*
%TO.C,BT-A*%
X29650000Y-33475000D02*
X29650000Y-47675000D01*
X29650000Y-47675000D02*
X43850000Y-47675000D01*
X43850000Y-33475000D02*
X29650000Y-33475000D01*
X43850000Y-47675000D02*
X43850000Y-33475000D01*
%TO.C,START*%
X79150000Y-9475000D02*
X79150000Y-23675000D01*
X79150000Y-23675000D02*
X93350000Y-23675000D01*
X93350000Y-9475000D02*
X79150000Y-9475000D01*
X93350000Y-23675000D02*
X93350000Y-9475000D01*
%TO.C,BT-D*%
X128650000Y-33475000D02*
X128650000Y-47675000D01*
X128650000Y-47675000D02*
X142850000Y-47675000D01*
X142850000Y-33475000D02*
X128650000Y-33475000D01*
X142850000Y-47675000D02*
X142850000Y-33475000D01*
%TO.C,BT-B*%
X62650000Y-33475000D02*
X62650000Y-47675000D01*
X62650000Y-47675000D02*
X76850000Y-47675000D01*
X76850000Y-33475000D02*
X62650000Y-33475000D01*
X76850000Y-47675000D02*
X76850000Y-33475000D01*
%TO.C,FX-L*%
X46150000Y-75475000D02*
X46150000Y-89675000D01*
X46150000Y-89675000D02*
X60350000Y-89675000D01*
X60350000Y-75475000D02*
X46150000Y-75475000D01*
X60350000Y-89675000D02*
X60350000Y-75475000D01*
%TO.C,BT-C*%
X95650000Y-33475000D02*
X95650000Y-47675000D01*
X95650000Y-47675000D02*
X109850000Y-47675000D01*
X109850000Y-33475000D02*
X95650000Y-33475000D01*
X109850000Y-47675000D02*
X109850000Y-33475000D01*
%TO.C,FX-R*%
X112150000Y-75475000D02*
X112150000Y-89675000D01*
X112150000Y-89675000D02*
X126350000Y-89675000D01*
X126350000Y-75475000D02*
X112150000Y-75475000D01*
X126350000Y-89675000D02*
X126350000Y-75475000D01*
%TO.C,VOR-R*%
X161450000Y-8575000D02*
X162050000Y-8575000D01*
X161750000Y-8875000D02*
X161450000Y-8575000D01*
X162050000Y-8575000D02*
X161750000Y-8875000D01*
X163150000Y-6775000D02*
X163150000Y-18575000D01*
X167250000Y-6775000D02*
X163150000Y-6775000D01*
X167250000Y-18575000D02*
X163150000Y-18575000D01*
X168750000Y-12675000D02*
X169750000Y-12675000D01*
X169250000Y-12175000D02*
X169250000Y-13175000D01*
X171250000Y-6775000D02*
X175350000Y-6775000D01*
X175350000Y-6775000D02*
X175350000Y-9175000D01*
X175350000Y-11375000D02*
X175350000Y-13975000D01*
X175350000Y-16175000D02*
X175350000Y-18575000D01*
X175350000Y-18575000D02*
X171250000Y-18575000D01*
X172250000Y-12675000D02*
G75*
G02*
X166250000Y-12675000I-3000000J0D01*
G01*
X166250000Y-12675000D02*
G75*
G02*
X172250000Y-12675000I3000000J0D01*
G01*
%TO.C,VOR-L*%
X-4550000Y-8575000D02*
X-3950000Y-8575000D01*
X-4250000Y-8875000D02*
X-4550000Y-8575000D01*
X-3950000Y-8575000D02*
X-4250000Y-8875000D01*
X-2850000Y-6775000D02*
X-2850000Y-18575000D01*
X1250000Y-6775000D02*
X-2850000Y-6775000D01*
X1250000Y-18575000D02*
X-2850000Y-18575000D01*
X2750000Y-12675000D02*
X3750000Y-12675000D01*
X3250000Y-12175000D02*
X3250000Y-13175000D01*
X5250000Y-6775000D02*
X9350000Y-6775000D01*
X9350000Y-6775000D02*
X9350000Y-9175000D01*
X9350000Y-11375000D02*
X9350000Y-13975000D01*
X9350000Y-16175000D02*
X9350000Y-18575000D01*
X9350000Y-18575000D02*
X5250000Y-18575000D01*
X6250000Y-12675000D02*
G75*
G02*
X250000Y-12675000I-3000000J0D01*
G01*
X250000Y-12675000D02*
G75*
G02*
X6250000Y-12675000I3000000J0D01*
G01*
%TD*%
M02*
