%TF.GenerationSoftware,KiCad,Pcbnew,8.0.4*%
%TF.CreationDate,2024-09-29T20:47:21+08:00*%
%TF.ProjectId,PH-AC,50482d41-432e-46b6-9963-61645f706362,Rev2.2*%
%TF.SameCoordinates,PX405f7e0PY328b740*%
%TF.FileFunction,Plated,1,2,PTH,Mixed*%
%TF.FilePolarity,Positive*%
%FSLAX46Y46*%
G04 Gerber Fmt 4.6, Leading zero omitted, Abs format (unit mm)*
G04 Created by KiCad (PCBNEW 8.0.4) date 2024-09-29 20:47:21*
%MOMM*%
%LPD*%
G01*
G04 APERTURE LIST*
%TA.AperFunction,ViaDrill*%
%ADD10C,0.300000*%
%TD*%
%TA.AperFunction,ComponentDrill*%
%ADD11C,0.800000*%
%TD*%
%TA.AperFunction,ComponentDrill*%
%ADD12C,1.000000*%
%TD*%
G04 aperture for slot hole*
%TA.AperFunction,ComponentDrill*%
%ADD13C,1.500000*%
%TD*%
G04 APERTURE END LIST*
D10*
X38250000Y-28025000D03*
X44600000Y-35475000D03*
X61100000Y-77475000D03*
X64650000Y-30025000D03*
X76725000Y-18650000D03*
X77600000Y-35475000D03*
X79300000Y-425000D03*
X79300000Y-4325000D03*
X88073060Y-3655000D03*
X91350000Y-6075000D03*
X93200000Y-425000D03*
X93250000Y-2375000D03*
X94100000Y-11475000D03*
X96100000Y-8175000D03*
X98600000Y-30925000D03*
X105550000Y-13875000D03*
X110370000Y-10925000D03*
X110600000Y-35475000D03*
X112942892Y-11867892D03*
X113150000Y-3925000D03*
X115975000Y-6050000D03*
X116250735Y-13974265D03*
X116450000Y-19075000D03*
X116667157Y-25906373D03*
X118500000Y-11725000D03*
X118750000Y-18675000D03*
X118750000Y-23824265D03*
X119550000Y-18675000D03*
X119825000Y-6650000D03*
X120100000Y-5525000D03*
X120350003Y-18675000D03*
X120750000Y-13775000D03*
X120800000Y-9425000D03*
X121000000Y-11125000D03*
X121150006Y-18675000D03*
X121650000Y-17476472D03*
X122250000Y-29075000D03*
X122250000Y-30675000D03*
X122700000Y-5925000D03*
X124150000Y-3825000D03*
X124150000Y-17475000D03*
X125000000Y-6475000D03*
X125700000Y-31475000D03*
X127100000Y-77475000D03*
X127341422Y-6333578D03*
X127400000Y-4875000D03*
X127800000Y-25575000D03*
X129500000Y-11775000D03*
X129600000Y-7975000D03*
X133550000Y-13875000D03*
X143600000Y-35475000D03*
D11*
%TO.C,JP1*%
X136650000Y-21225000D03*
X136650000Y-23225000D03*
D12*
%TO.C,VOR-L*%
X-4250000Y-10175000D03*
X-4250000Y-12675000D03*
X-4250000Y-15175000D03*
X10250000Y-10175000D03*
X10250000Y-15175000D03*
%TO.C,J2*%
X96700000Y-17225000D03*
X99240000Y-17225000D03*
X101780000Y-17225000D03*
%TO.C,VOR-R*%
X161750000Y-10175000D03*
X161750000Y-12675000D03*
X161750000Y-15175000D03*
X176250000Y-10175000D03*
X176250000Y-15175000D03*
D13*
%TO.C,VOR-L*%
X3900000Y-7075000D02*
X2600000Y-7075000D01*
X3900000Y-18275000D02*
X2600000Y-18275000D01*
%TO.C,VOR-R*%
X169900000Y-7075000D02*
X168600000Y-7075000D01*
X169900000Y-18275000D02*
X168600000Y-18275000D01*
M02*
