%TF.GenerationSoftware,KiCad,Pcbnew,8.0.3*%
%TF.CreationDate,2024-09-11T20:25:14+08:00*%
%TF.ProjectId,PH-AC,50482d41-432e-46b6-9963-61645f706362,rev?*%
%TF.SameCoordinates,PX405f7e0PY328b740*%
%TF.FileFunction,Paste,Bot*%
%TF.FilePolarity,Positive*%
%FSLAX46Y46*%
G04 Gerber Fmt 4.6, Leading zero omitted, Abs format (unit mm)*
G04 Created by KiCad (PCBNEW 8.0.3) date 2024-09-11 20:25:14*
%MOMM*%
%LPD*%
G01*
G04 APERTURE LIST*
G04 Aperture macros list*
%AMRoundRect*
0 Rectangle with rounded corners*
0 $1 Rounding radius*
0 $2 $3 $4 $5 $6 $7 $8 $9 X,Y pos of 4 corners*
0 Add a 4 corners polygon primitive as box body*
4,1,4,$2,$3,$4,$5,$6,$7,$8,$9,$2,$3,0*
0 Add four circle primitives for the rounded corners*
1,1,$1+$1,$2,$3*
1,1,$1+$1,$4,$5*
1,1,$1+$1,$6,$7*
1,1,$1+$1,$8,$9*
0 Add four rect primitives between the rounded corners*
20,1,$1+$1,$2,$3,$4,$5,0*
20,1,$1+$1,$4,$5,$6,$7,0*
20,1,$1+$1,$6,$7,$8,$9,0*
20,1,$1+$1,$8,$9,$2,$3,0*%
G04 Aperture macros list end*
%ADD10RoundRect,0.250000X-1.025000X-1.000000X1.025000X-1.000000X1.025000X1.000000X-1.025000X1.000000X0*%
%ADD11RoundRect,0.140000X-0.140000X-0.170000X0.140000X-0.170000X0.140000X0.170000X-0.140000X0.170000X0*%
%ADD12RoundRect,0.375000X-0.625000X-0.375000X0.625000X-0.375000X0.625000X0.375000X-0.625000X0.375000X0*%
%ADD13RoundRect,0.500000X-0.500000X-1.400000X0.500000X-1.400000X0.500000X1.400000X-0.500000X1.400000X0*%
%ADD14RoundRect,0.135000X-0.185000X0.135000X-0.185000X-0.135000X0.185000X-0.135000X0.185000X0.135000X0*%
%ADD15RoundRect,0.140000X0.170000X-0.140000X0.170000X0.140000X-0.170000X0.140000X-0.170000X-0.140000X0*%
%ADD16RoundRect,0.140000X0.140000X0.170000X-0.140000X0.170000X-0.140000X-0.170000X0.140000X-0.170000X0*%
%ADD17RoundRect,0.150000X-0.150000X-0.425000X0.150000X-0.425000X0.150000X0.425000X-0.150000X0.425000X0*%
%ADD18RoundRect,0.075000X-0.075000X-0.500000X0.075000X-0.500000X0.075000X0.500000X-0.075000X0.500000X0*%
%ADD19RoundRect,0.250000X-0.840000X-0.750000X0.840000X-0.750000X0.840000X0.750000X-0.840000X0.750000X0*%
%ADD20RoundRect,0.135000X-0.135000X-0.185000X0.135000X-0.185000X0.135000X0.185000X-0.135000X0.185000X0*%
%ADD21R,1.200000X1.400000*%
%ADD22RoundRect,0.249999X0.395001X-0.395001X0.395001X0.395001X-0.395001X0.395001X-0.395001X-0.395001X0*%
%ADD23RoundRect,0.050000X0.050000X-0.387500X0.050000X0.387500X-0.050000X0.387500X-0.050000X-0.387500X0*%
%ADD24RoundRect,0.050000X0.387500X-0.050000X0.387500X0.050000X-0.387500X0.050000X-0.387500X-0.050000X0*%
%ADD25RoundRect,0.200000X0.200000X0.275000X-0.200000X0.275000X-0.200000X-0.275000X0.200000X-0.275000X0*%
%ADD26RoundRect,0.250000X0.625000X-0.375000X0.625000X0.375000X-0.625000X0.375000X-0.625000X-0.375000X0*%
%ADD27RoundRect,0.135000X0.185000X-0.135000X0.185000X0.135000X-0.185000X0.135000X-0.185000X-0.135000X0*%
%ADD28RoundRect,0.150000X0.150000X-0.650000X0.150000X0.650000X-0.150000X0.650000X-0.150000X-0.650000X0*%
%ADD29RoundRect,0.140000X-0.170000X0.140000X-0.170000X-0.140000X0.170000X-0.140000X0.170000X0.140000X0*%
G04 APERTURE END LIST*
D10*
%TO.C,BT-A*%
X43415000Y-40460000D03*
X56342000Y-37920000D03*
%TD*%
%TO.C,START*%
X92915000Y-16460000D03*
X105842000Y-13920000D03*
%TD*%
%TO.C,BT-D*%
X142415000Y-40460000D03*
X155342000Y-37920000D03*
%TD*%
%TO.C,BT-B*%
X76415000Y-40460000D03*
X89342000Y-37920000D03*
%TD*%
%TO.C,FX-L*%
X59915000Y-82460000D03*
X72842000Y-79920000D03*
%TD*%
%TO.C,BT-C*%
X109415000Y-40460000D03*
X122342000Y-37920000D03*
%TD*%
%TO.C,FX-R*%
X125915000Y-82460000D03*
X138842000Y-79920000D03*
%TD*%
D11*
%TO.C,C11*%
X136440000Y-9380000D03*
X137400000Y-9380000D03*
%TD*%
%TO.C,C7*%
X142320000Y-13150000D03*
X143280000Y-13150000D03*
%TD*%
D12*
%TO.C,U2*%
X112650000Y-11250000D03*
X112650000Y-8950000D03*
D13*
X118950000Y-8950000D03*
D12*
X112650000Y-6650000D03*
%TD*%
D11*
%TO.C,C9*%
X139310000Y-11230000D03*
X138350000Y-11230000D03*
%TD*%
D14*
%TO.C,R12*%
X122850000Y-15140000D03*
X122850000Y-16160000D03*
%TD*%
D15*
%TO.C,C6*%
X134850000Y-9460000D03*
X134850000Y-8500000D03*
%TD*%
D16*
%TO.C,C3*%
X126100000Y-13350000D03*
X125140000Y-13350000D03*
%TD*%
D17*
%TO.C,J1*%
X96800000Y-7355000D03*
X97600000Y-7355000D03*
D18*
X98750000Y-7355000D03*
X99750000Y-7355000D03*
X100250000Y-7355000D03*
X101250000Y-7355000D03*
D17*
X102400000Y-7355000D03*
X103200000Y-7355000D03*
X103200000Y-7355000D03*
X102400000Y-7355000D03*
D18*
X101750000Y-7355000D03*
X100750000Y-7355000D03*
X99250000Y-7355000D03*
X98250000Y-7355000D03*
D17*
X97600000Y-7355000D03*
X96800000Y-7355000D03*
D19*
X94890000Y-2850000D03*
X94890000Y-6780000D03*
X105110000Y-2850000D03*
X105110000Y-6780000D03*
%TD*%
D20*
%TO.C,R13*%
X138880000Y-6250000D03*
X139900000Y-6250000D03*
%TD*%
D21*
%TO.C,Y1*%
X120600000Y-19800000D03*
X120600000Y-17600000D03*
X122300000Y-17600000D03*
X122300000Y-19800000D03*
%TD*%
D11*
%TO.C,C15*%
X145320000Y-17250000D03*
X146280000Y-17250000D03*
%TD*%
D22*
%TO.C,U1*%
X131450000Y-14950000D03*
X133050000Y-14950000D03*
X131450000Y-13350000D03*
X133050000Y-13350000D03*
D23*
X134850000Y-17587500D03*
X134450000Y-17587500D03*
X134050000Y-17587500D03*
X133650000Y-17587500D03*
X133250000Y-17587500D03*
X132850000Y-17587500D03*
X132450000Y-17587500D03*
X132050000Y-17587500D03*
X131650000Y-17587500D03*
X131250000Y-17587500D03*
X130850000Y-17587500D03*
X130450000Y-17587500D03*
X130050000Y-17587500D03*
X129650000Y-17587500D03*
D24*
X128812500Y-16750000D03*
X128812500Y-16350000D03*
X128812500Y-15950000D03*
X128812500Y-15550000D03*
X128812500Y-15150000D03*
X128812500Y-14750000D03*
X128812500Y-14350000D03*
X128812500Y-13950000D03*
X128812500Y-13550000D03*
X128812500Y-13150000D03*
X128812500Y-12750000D03*
X128812500Y-12350000D03*
X128812500Y-11950000D03*
X128812500Y-11550000D03*
D23*
X129650000Y-10712500D03*
X130050000Y-10712500D03*
X130450000Y-10712500D03*
X130850000Y-10712500D03*
X131250000Y-10712500D03*
X131650000Y-10712500D03*
X132050000Y-10712500D03*
X132450000Y-10712500D03*
X132850000Y-10712500D03*
X133250000Y-10712500D03*
X133650000Y-10712500D03*
X134050000Y-10712500D03*
X134450000Y-10712500D03*
X134850000Y-10712500D03*
D24*
X135687500Y-11550000D03*
X135687500Y-11950000D03*
X135687500Y-12350000D03*
X135687500Y-12750000D03*
X135687500Y-13150000D03*
X135687500Y-13550000D03*
X135687500Y-13950000D03*
X135687500Y-14350000D03*
X135687500Y-14750000D03*
X135687500Y-15150000D03*
X135687500Y-15550000D03*
X135687500Y-15950000D03*
X135687500Y-16350000D03*
X135687500Y-16750000D03*
%TD*%
D11*
%TO.C,C2*%
X142320000Y-12200000D03*
X143280000Y-12200000D03*
%TD*%
D25*
%TO.C,R3*%
X140375000Y-13950000D03*
X138725000Y-13950000D03*
%TD*%
D16*
%TO.C,C12*%
X110880000Y-6600000D03*
X109920000Y-6600000D03*
%TD*%
D14*
%TO.C,R15*%
X101750000Y-8880000D03*
X101750000Y-9900000D03*
%TD*%
D26*
%TO.C,D2*%
X145550000Y-14200000D03*
X145550000Y-11400000D03*
%TD*%
D27*
%TO.C,R2*%
X142400000Y-8960000D03*
X142400000Y-7940000D03*
%TD*%
D25*
%TO.C,R4*%
X140375000Y-12450000D03*
X138725000Y-12450000D03*
%TD*%
D28*
%TO.C,U3*%
X145355000Y-26000000D03*
X144085000Y-26000000D03*
X142815000Y-26000000D03*
X141545000Y-26000000D03*
X141545000Y-18800000D03*
X142815000Y-18800000D03*
X144085000Y-18800000D03*
X145355000Y-18800000D03*
%TD*%
D27*
%TO.C,R9*%
X144950000Y-28560000D03*
X144950000Y-27540000D03*
%TD*%
D11*
%TO.C,C4*%
X136940000Y-18850000D03*
X137900000Y-18850000D03*
%TD*%
%TO.C,C10*%
X137740000Y-10300000D03*
X138700000Y-10300000D03*
%TD*%
D29*
%TO.C,C13*%
X110900000Y-9620000D03*
X110900000Y-10580000D03*
%TD*%
D14*
%TO.C,R14*%
X98750000Y-8880000D03*
X98750000Y-9900000D03*
%TD*%
D29*
%TO.C,C5*%
X131250000Y-20620000D03*
X131250000Y-21580000D03*
%TD*%
D11*
%TO.C,C1*%
X131370000Y-9150000D03*
X132330000Y-9150000D03*
%TD*%
%TO.C,C14*%
X145320000Y-16300000D03*
X146280000Y-16300000D03*
%TD*%
D16*
%TO.C,C18*%
X121930000Y-16100000D03*
X120970000Y-16100000D03*
%TD*%
D15*
%TO.C,C17*%
X119250000Y-19180000D03*
X119250000Y-18220000D03*
%TD*%
D27*
%TO.C,R1*%
X142400000Y-7100000D03*
X142400000Y-6080000D03*
%TD*%
D16*
%TO.C,C8*%
X126100000Y-12400000D03*
X125140000Y-12400000D03*
%TD*%
M02*
