%TF.GenerationSoftware,KiCad,Pcbnew,8.0.3*%
%TF.CreationDate,2024-12-03T01:45:04+08:00*%
%TF.ProjectId,PH-AC,50482d41-432e-46b6-9963-61645f706362,Rev2.3*%
%TF.SameCoordinates,PX405f7e0PY328b740*%
%TF.FileFunction,OtherDrawing,Comment*%
%FSLAX46Y46*%
G04 Gerber Fmt 4.6, Leading zero omitted, Abs format (unit mm)*
G04 Created by KiCad (PCBNEW 8.0.3) date 2024-12-03 01:45:04*
%MOMM*%
%LPD*%
G01*
G04 APERTURE LIST*
%ADD10C,0.100000*%
%ADD11C,0.150000*%
%ADD12C,0.300000*%
%ADD13C,0.400000*%
G04 APERTURE END LIST*
D10*
D11*
X109502200Y-113007200D02*
X217502200Y-113007200D01*
X217502200Y-145007200D01*
X109502200Y-145007200D01*
X109502200Y-113007200D01*
D10*
D11*
X-57500000Y43000000D02*
X219502200Y43000000D01*
X219502200Y-147007200D01*
X-57500000Y-147007200D01*
X-57500000Y43000000D01*
D10*
D11*
X-55500000Y41000000D02*
X217502200Y41000000D01*
X217502200Y-145007200D01*
X-55500000Y-145007200D01*
X-55500000Y41000000D01*
D10*
D11*
X-7500000Y41000000D02*
X-7500000Y43000000D01*
D10*
D11*
X42500000Y41000000D02*
X42500000Y43000000D01*
D10*
D11*
X92500000Y41000000D02*
X92500000Y43000000D01*
D10*
D11*
X142500000Y41000000D02*
X142500000Y43000000D01*
D10*
D11*
X192500000Y41000000D02*
X192500000Y43000000D01*
D10*
D11*
X-31410840Y41406396D02*
X-32153697Y41406396D01*
X-31782269Y41406396D02*
X-31782269Y42706396D01*
X-31782269Y42706396D02*
X-31906078Y42520681D01*
X-31906078Y42520681D02*
X-32029888Y42396872D01*
X-32029888Y42396872D02*
X-32153697Y42334967D01*
D10*
D11*
X17846303Y42582586D02*
X17908207Y42644491D01*
X17908207Y42644491D02*
X18032017Y42706396D01*
X18032017Y42706396D02*
X18341541Y42706396D01*
X18341541Y42706396D02*
X18465350Y42644491D01*
X18465350Y42644491D02*
X18527255Y42582586D01*
X18527255Y42582586D02*
X18589160Y42458777D01*
X18589160Y42458777D02*
X18589160Y42334967D01*
X18589160Y42334967D02*
X18527255Y42149253D01*
X18527255Y42149253D02*
X17784398Y41406396D01*
X17784398Y41406396D02*
X18589160Y41406396D01*
D10*
D11*
X67784398Y42706396D02*
X68589160Y42706396D01*
X68589160Y42706396D02*
X68155826Y42211158D01*
X68155826Y42211158D02*
X68341541Y42211158D01*
X68341541Y42211158D02*
X68465350Y42149253D01*
X68465350Y42149253D02*
X68527255Y42087348D01*
X68527255Y42087348D02*
X68589160Y41963539D01*
X68589160Y41963539D02*
X68589160Y41654015D01*
X68589160Y41654015D02*
X68527255Y41530205D01*
X68527255Y41530205D02*
X68465350Y41468300D01*
X68465350Y41468300D02*
X68341541Y41406396D01*
X68341541Y41406396D02*
X67970112Y41406396D01*
X67970112Y41406396D02*
X67846303Y41468300D01*
X67846303Y41468300D02*
X67784398Y41530205D01*
D10*
D11*
X118465350Y42273062D02*
X118465350Y41406396D01*
X118155826Y42768300D02*
X117846303Y41839729D01*
X117846303Y41839729D02*
X118651064Y41839729D01*
D10*
D11*
X168527255Y42706396D02*
X167908207Y42706396D01*
X167908207Y42706396D02*
X167846303Y42087348D01*
X167846303Y42087348D02*
X167908207Y42149253D01*
X167908207Y42149253D02*
X168032017Y42211158D01*
X168032017Y42211158D02*
X168341541Y42211158D01*
X168341541Y42211158D02*
X168465350Y42149253D01*
X168465350Y42149253D02*
X168527255Y42087348D01*
X168527255Y42087348D02*
X168589160Y41963539D01*
X168589160Y41963539D02*
X168589160Y41654015D01*
X168589160Y41654015D02*
X168527255Y41530205D01*
X168527255Y41530205D02*
X168465350Y41468300D01*
X168465350Y41468300D02*
X168341541Y41406396D01*
X168341541Y41406396D02*
X168032017Y41406396D01*
X168032017Y41406396D02*
X167908207Y41468300D01*
X167908207Y41468300D02*
X167846303Y41530205D01*
D10*
D11*
X218465350Y42706396D02*
X218217731Y42706396D01*
X218217731Y42706396D02*
X218093922Y42644491D01*
X218093922Y42644491D02*
X218032017Y42582586D01*
X218032017Y42582586D02*
X217908207Y42396872D01*
X217908207Y42396872D02*
X217846303Y42149253D01*
X217846303Y42149253D02*
X217846303Y41654015D01*
X217846303Y41654015D02*
X217908207Y41530205D01*
X217908207Y41530205D02*
X217970112Y41468300D01*
X217970112Y41468300D02*
X218093922Y41406396D01*
X218093922Y41406396D02*
X218341541Y41406396D01*
X218341541Y41406396D02*
X218465350Y41468300D01*
X218465350Y41468300D02*
X218527255Y41530205D01*
X218527255Y41530205D02*
X218589160Y41654015D01*
X218589160Y41654015D02*
X218589160Y41963539D01*
X218589160Y41963539D02*
X218527255Y42087348D01*
X218527255Y42087348D02*
X218465350Y42149253D01*
X218465350Y42149253D02*
X218341541Y42211158D01*
X218341541Y42211158D02*
X218093922Y42211158D01*
X218093922Y42211158D02*
X217970112Y42149253D01*
X217970112Y42149253D02*
X217908207Y42087348D01*
X217908207Y42087348D02*
X217846303Y41963539D01*
D10*
D11*
X-7500000Y-145007200D02*
X-7500000Y-147007200D01*
D10*
D11*
X42500000Y-145007200D02*
X42500000Y-147007200D01*
D10*
D11*
X92500000Y-145007200D02*
X92500000Y-147007200D01*
D10*
D11*
X142500000Y-145007200D02*
X142500000Y-147007200D01*
D10*
D11*
X192500000Y-145007200D02*
X192500000Y-147007200D01*
D10*
D11*
X-31410840Y-146600804D02*
X-32153697Y-146600804D01*
X-31782269Y-146600804D02*
X-31782269Y-145300804D01*
X-31782269Y-145300804D02*
X-31906078Y-145486519D01*
X-31906078Y-145486519D02*
X-32029888Y-145610328D01*
X-32029888Y-145610328D02*
X-32153697Y-145672233D01*
D10*
D11*
X17846303Y-145424614D02*
X17908207Y-145362709D01*
X17908207Y-145362709D02*
X18032017Y-145300804D01*
X18032017Y-145300804D02*
X18341541Y-145300804D01*
X18341541Y-145300804D02*
X18465350Y-145362709D01*
X18465350Y-145362709D02*
X18527255Y-145424614D01*
X18527255Y-145424614D02*
X18589160Y-145548423D01*
X18589160Y-145548423D02*
X18589160Y-145672233D01*
X18589160Y-145672233D02*
X18527255Y-145857947D01*
X18527255Y-145857947D02*
X17784398Y-146600804D01*
X17784398Y-146600804D02*
X18589160Y-146600804D01*
D10*
D11*
X67784398Y-145300804D02*
X68589160Y-145300804D01*
X68589160Y-145300804D02*
X68155826Y-145796042D01*
X68155826Y-145796042D02*
X68341541Y-145796042D01*
X68341541Y-145796042D02*
X68465350Y-145857947D01*
X68465350Y-145857947D02*
X68527255Y-145919852D01*
X68527255Y-145919852D02*
X68589160Y-146043661D01*
X68589160Y-146043661D02*
X68589160Y-146353185D01*
X68589160Y-146353185D02*
X68527255Y-146476995D01*
X68527255Y-146476995D02*
X68465350Y-146538900D01*
X68465350Y-146538900D02*
X68341541Y-146600804D01*
X68341541Y-146600804D02*
X67970112Y-146600804D01*
X67970112Y-146600804D02*
X67846303Y-146538900D01*
X67846303Y-146538900D02*
X67784398Y-146476995D01*
D10*
D11*
X118465350Y-145734138D02*
X118465350Y-146600804D01*
X118155826Y-145238900D02*
X117846303Y-146167471D01*
X117846303Y-146167471D02*
X118651064Y-146167471D01*
D10*
D11*
X168527255Y-145300804D02*
X167908207Y-145300804D01*
X167908207Y-145300804D02*
X167846303Y-145919852D01*
X167846303Y-145919852D02*
X167908207Y-145857947D01*
X167908207Y-145857947D02*
X168032017Y-145796042D01*
X168032017Y-145796042D02*
X168341541Y-145796042D01*
X168341541Y-145796042D02*
X168465350Y-145857947D01*
X168465350Y-145857947D02*
X168527255Y-145919852D01*
X168527255Y-145919852D02*
X168589160Y-146043661D01*
X168589160Y-146043661D02*
X168589160Y-146353185D01*
X168589160Y-146353185D02*
X168527255Y-146476995D01*
X168527255Y-146476995D02*
X168465350Y-146538900D01*
X168465350Y-146538900D02*
X168341541Y-146600804D01*
X168341541Y-146600804D02*
X168032017Y-146600804D01*
X168032017Y-146600804D02*
X167908207Y-146538900D01*
X167908207Y-146538900D02*
X167846303Y-146476995D01*
D10*
D11*
X218465350Y-145300804D02*
X218217731Y-145300804D01*
X218217731Y-145300804D02*
X218093922Y-145362709D01*
X218093922Y-145362709D02*
X218032017Y-145424614D01*
X218032017Y-145424614D02*
X217908207Y-145610328D01*
X217908207Y-145610328D02*
X217846303Y-145857947D01*
X217846303Y-145857947D02*
X217846303Y-146353185D01*
X217846303Y-146353185D02*
X217908207Y-146476995D01*
X217908207Y-146476995D02*
X217970112Y-146538900D01*
X217970112Y-146538900D02*
X218093922Y-146600804D01*
X218093922Y-146600804D02*
X218341541Y-146600804D01*
X218341541Y-146600804D02*
X218465350Y-146538900D01*
X218465350Y-146538900D02*
X218527255Y-146476995D01*
X218527255Y-146476995D02*
X218589160Y-146353185D01*
X218589160Y-146353185D02*
X218589160Y-146043661D01*
X218589160Y-146043661D02*
X218527255Y-145919852D01*
X218527255Y-145919852D02*
X218465350Y-145857947D01*
X218465350Y-145857947D02*
X218341541Y-145796042D01*
X218341541Y-145796042D02*
X218093922Y-145796042D01*
X218093922Y-145796042D02*
X217970112Y-145857947D01*
X217970112Y-145857947D02*
X217908207Y-145919852D01*
X217908207Y-145919852D02*
X217846303Y-146043661D01*
D10*
D11*
X-57500000Y-7000000D02*
X-55500000Y-7000000D01*
D10*
D11*
X-57500000Y-57000000D02*
X-55500000Y-57000000D01*
D10*
D11*
X-57500000Y-107000000D02*
X-55500000Y-107000000D01*
D10*
D11*
X-56809524Y17777824D02*
X-56190477Y17777824D01*
X-56933334Y17406396D02*
X-56500001Y18706396D01*
X-56500001Y18706396D02*
X-56066667Y17406396D01*
D10*
D11*
X-56407143Y-31912652D02*
X-56221429Y-31974557D01*
X-56221429Y-31974557D02*
X-56159524Y-32036461D01*
X-56159524Y-32036461D02*
X-56097620Y-32160271D01*
X-56097620Y-32160271D02*
X-56097620Y-32345985D01*
X-56097620Y-32345985D02*
X-56159524Y-32469795D01*
X-56159524Y-32469795D02*
X-56221429Y-32531700D01*
X-56221429Y-32531700D02*
X-56345239Y-32593604D01*
X-56345239Y-32593604D02*
X-56840477Y-32593604D01*
X-56840477Y-32593604D02*
X-56840477Y-31293604D01*
X-56840477Y-31293604D02*
X-56407143Y-31293604D01*
X-56407143Y-31293604D02*
X-56283334Y-31355509D01*
X-56283334Y-31355509D02*
X-56221429Y-31417414D01*
X-56221429Y-31417414D02*
X-56159524Y-31541223D01*
X-56159524Y-31541223D02*
X-56159524Y-31665033D01*
X-56159524Y-31665033D02*
X-56221429Y-31788842D01*
X-56221429Y-31788842D02*
X-56283334Y-31850747D01*
X-56283334Y-31850747D02*
X-56407143Y-31912652D01*
X-56407143Y-31912652D02*
X-56840477Y-31912652D01*
D10*
D11*
X-56097620Y-82469795D02*
X-56159524Y-82531700D01*
X-56159524Y-82531700D02*
X-56345239Y-82593604D01*
X-56345239Y-82593604D02*
X-56469048Y-82593604D01*
X-56469048Y-82593604D02*
X-56654762Y-82531700D01*
X-56654762Y-82531700D02*
X-56778572Y-82407890D01*
X-56778572Y-82407890D02*
X-56840477Y-82284080D01*
X-56840477Y-82284080D02*
X-56902381Y-82036461D01*
X-56902381Y-82036461D02*
X-56902381Y-81850747D01*
X-56902381Y-81850747D02*
X-56840477Y-81603128D01*
X-56840477Y-81603128D02*
X-56778572Y-81479319D01*
X-56778572Y-81479319D02*
X-56654762Y-81355509D01*
X-56654762Y-81355509D02*
X-56469048Y-81293604D01*
X-56469048Y-81293604D02*
X-56345239Y-81293604D01*
X-56345239Y-81293604D02*
X-56159524Y-81355509D01*
X-56159524Y-81355509D02*
X-56097620Y-81417414D01*
D10*
D11*
X-56840477Y-132593604D02*
X-56840477Y-131293604D01*
X-56840477Y-131293604D02*
X-56530953Y-131293604D01*
X-56530953Y-131293604D02*
X-56345239Y-131355509D01*
X-56345239Y-131355509D02*
X-56221429Y-131479319D01*
X-56221429Y-131479319D02*
X-56159524Y-131603128D01*
X-56159524Y-131603128D02*
X-56097620Y-131850747D01*
X-56097620Y-131850747D02*
X-56097620Y-132036461D01*
X-56097620Y-132036461D02*
X-56159524Y-132284080D01*
X-56159524Y-132284080D02*
X-56221429Y-132407890D01*
X-56221429Y-132407890D02*
X-56345239Y-132531700D01*
X-56345239Y-132531700D02*
X-56530953Y-132593604D01*
X-56530953Y-132593604D02*
X-56840477Y-132593604D01*
D10*
D11*
X219502200Y-7000000D02*
X217502200Y-7000000D01*
D10*
D11*
X219502200Y-57000000D02*
X217502200Y-57000000D01*
D10*
D11*
X219502200Y-107000000D02*
X217502200Y-107000000D01*
D10*
D11*
X218192676Y17777824D02*
X218811723Y17777824D01*
X218068866Y17406396D02*
X218502199Y18706396D01*
X218502199Y18706396D02*
X218935533Y17406396D01*
D10*
D11*
X218595057Y-31912652D02*
X218780771Y-31974557D01*
X218780771Y-31974557D02*
X218842676Y-32036461D01*
X218842676Y-32036461D02*
X218904580Y-32160271D01*
X218904580Y-32160271D02*
X218904580Y-32345985D01*
X218904580Y-32345985D02*
X218842676Y-32469795D01*
X218842676Y-32469795D02*
X218780771Y-32531700D01*
X218780771Y-32531700D02*
X218656961Y-32593604D01*
X218656961Y-32593604D02*
X218161723Y-32593604D01*
X218161723Y-32593604D02*
X218161723Y-31293604D01*
X218161723Y-31293604D02*
X218595057Y-31293604D01*
X218595057Y-31293604D02*
X218718866Y-31355509D01*
X218718866Y-31355509D02*
X218780771Y-31417414D01*
X218780771Y-31417414D02*
X218842676Y-31541223D01*
X218842676Y-31541223D02*
X218842676Y-31665033D01*
X218842676Y-31665033D02*
X218780771Y-31788842D01*
X218780771Y-31788842D02*
X218718866Y-31850747D01*
X218718866Y-31850747D02*
X218595057Y-31912652D01*
X218595057Y-31912652D02*
X218161723Y-31912652D01*
D10*
D11*
X218904580Y-82469795D02*
X218842676Y-82531700D01*
X218842676Y-82531700D02*
X218656961Y-82593604D01*
X218656961Y-82593604D02*
X218533152Y-82593604D01*
X218533152Y-82593604D02*
X218347438Y-82531700D01*
X218347438Y-82531700D02*
X218223628Y-82407890D01*
X218223628Y-82407890D02*
X218161723Y-82284080D01*
X218161723Y-82284080D02*
X218099819Y-82036461D01*
X218099819Y-82036461D02*
X218099819Y-81850747D01*
X218099819Y-81850747D02*
X218161723Y-81603128D01*
X218161723Y-81603128D02*
X218223628Y-81479319D01*
X218223628Y-81479319D02*
X218347438Y-81355509D01*
X218347438Y-81355509D02*
X218533152Y-81293604D01*
X218533152Y-81293604D02*
X218656961Y-81293604D01*
X218656961Y-81293604D02*
X218842676Y-81355509D01*
X218842676Y-81355509D02*
X218904580Y-81417414D01*
D10*
D11*
X218161723Y-132593604D02*
X218161723Y-131293604D01*
X218161723Y-131293604D02*
X218471247Y-131293604D01*
X218471247Y-131293604D02*
X218656961Y-131355509D01*
X218656961Y-131355509D02*
X218780771Y-131479319D01*
X218780771Y-131479319D02*
X218842676Y-131603128D01*
X218842676Y-131603128D02*
X218904580Y-131850747D01*
X218904580Y-131850747D02*
X218904580Y-132036461D01*
X218904580Y-132036461D02*
X218842676Y-132284080D01*
X218842676Y-132284080D02*
X218780771Y-132407890D01*
X218780771Y-132407890D02*
X218656961Y-132531700D01*
X218656961Y-132531700D02*
X218471247Y-132593604D01*
X218471247Y-132593604D02*
X218161723Y-132593604D01*
D10*
D11*
X132958026Y-140793328D02*
X132958026Y-139293328D01*
X132958026Y-139293328D02*
X133315169Y-139293328D01*
X133315169Y-139293328D02*
X133529455Y-139364757D01*
X133529455Y-139364757D02*
X133672312Y-139507614D01*
X133672312Y-139507614D02*
X133743741Y-139650471D01*
X133743741Y-139650471D02*
X133815169Y-139936185D01*
X133815169Y-139936185D02*
X133815169Y-140150471D01*
X133815169Y-140150471D02*
X133743741Y-140436185D01*
X133743741Y-140436185D02*
X133672312Y-140579042D01*
X133672312Y-140579042D02*
X133529455Y-140721900D01*
X133529455Y-140721900D02*
X133315169Y-140793328D01*
X133315169Y-140793328D02*
X132958026Y-140793328D01*
X135100884Y-140793328D02*
X135100884Y-140007614D01*
X135100884Y-140007614D02*
X135029455Y-139864757D01*
X135029455Y-139864757D02*
X134886598Y-139793328D01*
X134886598Y-139793328D02*
X134600884Y-139793328D01*
X134600884Y-139793328D02*
X134458026Y-139864757D01*
X135100884Y-140721900D02*
X134958026Y-140793328D01*
X134958026Y-140793328D02*
X134600884Y-140793328D01*
X134600884Y-140793328D02*
X134458026Y-140721900D01*
X134458026Y-140721900D02*
X134386598Y-140579042D01*
X134386598Y-140579042D02*
X134386598Y-140436185D01*
X134386598Y-140436185D02*
X134458026Y-140293328D01*
X134458026Y-140293328D02*
X134600884Y-140221900D01*
X134600884Y-140221900D02*
X134958026Y-140221900D01*
X134958026Y-140221900D02*
X135100884Y-140150471D01*
X135600884Y-139793328D02*
X136172312Y-139793328D01*
X135815169Y-139293328D02*
X135815169Y-140579042D01*
X135815169Y-140579042D02*
X135886598Y-140721900D01*
X135886598Y-140721900D02*
X136029455Y-140793328D01*
X136029455Y-140793328D02*
X136172312Y-140793328D01*
X137243741Y-140721900D02*
X137100884Y-140793328D01*
X137100884Y-140793328D02*
X136815170Y-140793328D01*
X136815170Y-140793328D02*
X136672312Y-140721900D01*
X136672312Y-140721900D02*
X136600884Y-140579042D01*
X136600884Y-140579042D02*
X136600884Y-140007614D01*
X136600884Y-140007614D02*
X136672312Y-139864757D01*
X136672312Y-139864757D02*
X136815170Y-139793328D01*
X136815170Y-139793328D02*
X137100884Y-139793328D01*
X137100884Y-139793328D02*
X137243741Y-139864757D01*
X137243741Y-139864757D02*
X137315170Y-140007614D01*
X137315170Y-140007614D02*
X137315170Y-140150471D01*
X137315170Y-140150471D02*
X136600884Y-140293328D01*
X137958026Y-140650471D02*
X138029455Y-140721900D01*
X138029455Y-140721900D02*
X137958026Y-140793328D01*
X137958026Y-140793328D02*
X137886598Y-140721900D01*
X137886598Y-140721900D02*
X137958026Y-140650471D01*
X137958026Y-140650471D02*
X137958026Y-140793328D01*
X137958026Y-139864757D02*
X138029455Y-139936185D01*
X138029455Y-139936185D02*
X137958026Y-140007614D01*
X137958026Y-140007614D02*
X137886598Y-139936185D01*
X137886598Y-139936185D02*
X137958026Y-139864757D01*
X137958026Y-139864757D02*
X137958026Y-140007614D01*
X139743741Y-139436185D02*
X139815169Y-139364757D01*
X139815169Y-139364757D02*
X139958027Y-139293328D01*
X139958027Y-139293328D02*
X140315169Y-139293328D01*
X140315169Y-139293328D02*
X140458027Y-139364757D01*
X140458027Y-139364757D02*
X140529455Y-139436185D01*
X140529455Y-139436185D02*
X140600884Y-139579042D01*
X140600884Y-139579042D02*
X140600884Y-139721900D01*
X140600884Y-139721900D02*
X140529455Y-139936185D01*
X140529455Y-139936185D02*
X139672312Y-140793328D01*
X139672312Y-140793328D02*
X140600884Y-140793328D01*
X141529455Y-139293328D02*
X141672312Y-139293328D01*
X141672312Y-139293328D02*
X141815169Y-139364757D01*
X141815169Y-139364757D02*
X141886598Y-139436185D01*
X141886598Y-139436185D02*
X141958026Y-139579042D01*
X141958026Y-139579042D02*
X142029455Y-139864757D01*
X142029455Y-139864757D02*
X142029455Y-140221900D01*
X142029455Y-140221900D02*
X141958026Y-140507614D01*
X141958026Y-140507614D02*
X141886598Y-140650471D01*
X141886598Y-140650471D02*
X141815169Y-140721900D01*
X141815169Y-140721900D02*
X141672312Y-140793328D01*
X141672312Y-140793328D02*
X141529455Y-140793328D01*
X141529455Y-140793328D02*
X141386598Y-140721900D01*
X141386598Y-140721900D02*
X141315169Y-140650471D01*
X141315169Y-140650471D02*
X141243740Y-140507614D01*
X141243740Y-140507614D02*
X141172312Y-140221900D01*
X141172312Y-140221900D02*
X141172312Y-139864757D01*
X141172312Y-139864757D02*
X141243740Y-139579042D01*
X141243740Y-139579042D02*
X141315169Y-139436185D01*
X141315169Y-139436185D02*
X141386598Y-139364757D01*
X141386598Y-139364757D02*
X141529455Y-139293328D01*
X142600883Y-139436185D02*
X142672311Y-139364757D01*
X142672311Y-139364757D02*
X142815169Y-139293328D01*
X142815169Y-139293328D02*
X143172311Y-139293328D01*
X143172311Y-139293328D02*
X143315169Y-139364757D01*
X143315169Y-139364757D02*
X143386597Y-139436185D01*
X143386597Y-139436185D02*
X143458026Y-139579042D01*
X143458026Y-139579042D02*
X143458026Y-139721900D01*
X143458026Y-139721900D02*
X143386597Y-139936185D01*
X143386597Y-139936185D02*
X142529454Y-140793328D01*
X142529454Y-140793328D02*
X143458026Y-140793328D01*
X144743740Y-139793328D02*
X144743740Y-140793328D01*
X144386597Y-139221900D02*
X144029454Y-140293328D01*
X144029454Y-140293328D02*
X144958025Y-140293328D01*
X145529453Y-140221900D02*
X146672311Y-140221900D01*
X148172311Y-140793328D02*
X147315168Y-140793328D01*
X147743739Y-140793328D02*
X147743739Y-139293328D01*
X147743739Y-139293328D02*
X147600882Y-139507614D01*
X147600882Y-139507614D02*
X147458025Y-139650471D01*
X147458025Y-139650471D02*
X147315168Y-139721900D01*
X149600882Y-140793328D02*
X148743739Y-140793328D01*
X149172310Y-140793328D02*
X149172310Y-139293328D01*
X149172310Y-139293328D02*
X149029453Y-139507614D01*
X149029453Y-139507614D02*
X148886596Y-139650471D01*
X148886596Y-139650471D02*
X148743739Y-139721900D01*
X150243738Y-140221900D02*
X151386596Y-140221900D01*
X151958024Y-139293328D02*
X152886596Y-139293328D01*
X152886596Y-139293328D02*
X152386596Y-139864757D01*
X152386596Y-139864757D02*
X152600881Y-139864757D01*
X152600881Y-139864757D02*
X152743739Y-139936185D01*
X152743739Y-139936185D02*
X152815167Y-140007614D01*
X152815167Y-140007614D02*
X152886596Y-140150471D01*
X152886596Y-140150471D02*
X152886596Y-140507614D01*
X152886596Y-140507614D02*
X152815167Y-140650471D01*
X152815167Y-140650471D02*
X152743739Y-140721900D01*
X152743739Y-140721900D02*
X152600881Y-140793328D01*
X152600881Y-140793328D02*
X152172310Y-140793328D01*
X152172310Y-140793328D02*
X152029453Y-140721900D01*
X152029453Y-140721900D02*
X151958024Y-140650471D01*
X153815167Y-139293328D02*
X153958024Y-139293328D01*
X153958024Y-139293328D02*
X154100881Y-139364757D01*
X154100881Y-139364757D02*
X154172310Y-139436185D01*
X154172310Y-139436185D02*
X154243738Y-139579042D01*
X154243738Y-139579042D02*
X154315167Y-139864757D01*
X154315167Y-139864757D02*
X154315167Y-140221900D01*
X154315167Y-140221900D02*
X154243738Y-140507614D01*
X154243738Y-140507614D02*
X154172310Y-140650471D01*
X154172310Y-140650471D02*
X154100881Y-140721900D01*
X154100881Y-140721900D02*
X153958024Y-140793328D01*
X153958024Y-140793328D02*
X153815167Y-140793328D01*
X153815167Y-140793328D02*
X153672310Y-140721900D01*
X153672310Y-140721900D02*
X153600881Y-140650471D01*
X153600881Y-140650471D02*
X153529452Y-140507614D01*
X153529452Y-140507614D02*
X153458024Y-140221900D01*
X153458024Y-140221900D02*
X153458024Y-139864757D01*
X153458024Y-139864757D02*
X153529452Y-139579042D01*
X153529452Y-139579042D02*
X153600881Y-139436185D01*
X153600881Y-139436185D02*
X153672310Y-139364757D01*
X153672310Y-139364757D02*
X153815167Y-139293328D01*
D10*
D11*
X109502200Y-141507200D02*
X217502200Y-141507200D01*
D10*
D11*
X110958026Y-143593328D02*
X110958026Y-142093328D01*
X111815169Y-143593328D02*
X111172312Y-142736185D01*
X111815169Y-142093328D02*
X110958026Y-142950471D01*
X112458026Y-143593328D02*
X112458026Y-142593328D01*
X112458026Y-142093328D02*
X112386598Y-142164757D01*
X112386598Y-142164757D02*
X112458026Y-142236185D01*
X112458026Y-142236185D02*
X112529455Y-142164757D01*
X112529455Y-142164757D02*
X112458026Y-142093328D01*
X112458026Y-142093328D02*
X112458026Y-142236185D01*
X114029455Y-143450471D02*
X113958027Y-143521900D01*
X113958027Y-143521900D02*
X113743741Y-143593328D01*
X113743741Y-143593328D02*
X113600884Y-143593328D01*
X113600884Y-143593328D02*
X113386598Y-143521900D01*
X113386598Y-143521900D02*
X113243741Y-143379042D01*
X113243741Y-143379042D02*
X113172312Y-143236185D01*
X113172312Y-143236185D02*
X113100884Y-142950471D01*
X113100884Y-142950471D02*
X113100884Y-142736185D01*
X113100884Y-142736185D02*
X113172312Y-142450471D01*
X113172312Y-142450471D02*
X113243741Y-142307614D01*
X113243741Y-142307614D02*
X113386598Y-142164757D01*
X113386598Y-142164757D02*
X113600884Y-142093328D01*
X113600884Y-142093328D02*
X113743741Y-142093328D01*
X113743741Y-142093328D02*
X113958027Y-142164757D01*
X113958027Y-142164757D02*
X114029455Y-142236185D01*
X115315170Y-143593328D02*
X115315170Y-142807614D01*
X115315170Y-142807614D02*
X115243741Y-142664757D01*
X115243741Y-142664757D02*
X115100884Y-142593328D01*
X115100884Y-142593328D02*
X114815170Y-142593328D01*
X114815170Y-142593328D02*
X114672312Y-142664757D01*
X115315170Y-143521900D02*
X115172312Y-143593328D01*
X115172312Y-143593328D02*
X114815170Y-143593328D01*
X114815170Y-143593328D02*
X114672312Y-143521900D01*
X114672312Y-143521900D02*
X114600884Y-143379042D01*
X114600884Y-143379042D02*
X114600884Y-143236185D01*
X114600884Y-143236185D02*
X114672312Y-143093328D01*
X114672312Y-143093328D02*
X114815170Y-143021900D01*
X114815170Y-143021900D02*
X115172312Y-143021900D01*
X115172312Y-143021900D02*
X115315170Y-142950471D01*
X116672313Y-143593328D02*
X116672313Y-142093328D01*
X116672313Y-143521900D02*
X116529455Y-143593328D01*
X116529455Y-143593328D02*
X116243741Y-143593328D01*
X116243741Y-143593328D02*
X116100884Y-143521900D01*
X116100884Y-143521900D02*
X116029455Y-143450471D01*
X116029455Y-143450471D02*
X115958027Y-143307614D01*
X115958027Y-143307614D02*
X115958027Y-142879042D01*
X115958027Y-142879042D02*
X116029455Y-142736185D01*
X116029455Y-142736185D02*
X116100884Y-142664757D01*
X116100884Y-142664757D02*
X116243741Y-142593328D01*
X116243741Y-142593328D02*
X116529455Y-142593328D01*
X116529455Y-142593328D02*
X116672313Y-142664757D01*
X118529455Y-142807614D02*
X119029455Y-142807614D01*
X119243741Y-143593328D02*
X118529455Y-143593328D01*
X118529455Y-143593328D02*
X118529455Y-142093328D01*
X118529455Y-142093328D02*
X119243741Y-142093328D01*
X119886598Y-143450471D02*
X119958027Y-143521900D01*
X119958027Y-143521900D02*
X119886598Y-143593328D01*
X119886598Y-143593328D02*
X119815170Y-143521900D01*
X119815170Y-143521900D02*
X119886598Y-143450471D01*
X119886598Y-143450471D02*
X119886598Y-143593328D01*
X120600884Y-143593328D02*
X120600884Y-142093328D01*
X120600884Y-142093328D02*
X120958027Y-142093328D01*
X120958027Y-142093328D02*
X121172313Y-142164757D01*
X121172313Y-142164757D02*
X121315170Y-142307614D01*
X121315170Y-142307614D02*
X121386599Y-142450471D01*
X121386599Y-142450471D02*
X121458027Y-142736185D01*
X121458027Y-142736185D02*
X121458027Y-142950471D01*
X121458027Y-142950471D02*
X121386599Y-143236185D01*
X121386599Y-143236185D02*
X121315170Y-143379042D01*
X121315170Y-143379042D02*
X121172313Y-143521900D01*
X121172313Y-143521900D02*
X120958027Y-143593328D01*
X120958027Y-143593328D02*
X120600884Y-143593328D01*
X122100884Y-143450471D02*
X122172313Y-143521900D01*
X122172313Y-143521900D02*
X122100884Y-143593328D01*
X122100884Y-143593328D02*
X122029456Y-143521900D01*
X122029456Y-143521900D02*
X122100884Y-143450471D01*
X122100884Y-143450471D02*
X122100884Y-143593328D01*
X122743742Y-143164757D02*
X123458028Y-143164757D01*
X122600885Y-143593328D02*
X123100885Y-142093328D01*
X123100885Y-142093328D02*
X123600885Y-143593328D01*
X124100884Y-143450471D02*
X124172313Y-143521900D01*
X124172313Y-143521900D02*
X124100884Y-143593328D01*
X124100884Y-143593328D02*
X124029456Y-143521900D01*
X124029456Y-143521900D02*
X124100884Y-143450471D01*
X124100884Y-143450471D02*
X124100884Y-143593328D01*
X126172313Y-142736185D02*
X126029456Y-142664757D01*
X126029456Y-142664757D02*
X125958027Y-142593328D01*
X125958027Y-142593328D02*
X125886599Y-142450471D01*
X125886599Y-142450471D02*
X125886599Y-142379042D01*
X125886599Y-142379042D02*
X125958027Y-142236185D01*
X125958027Y-142236185D02*
X126029456Y-142164757D01*
X126029456Y-142164757D02*
X126172313Y-142093328D01*
X126172313Y-142093328D02*
X126458027Y-142093328D01*
X126458027Y-142093328D02*
X126600885Y-142164757D01*
X126600885Y-142164757D02*
X126672313Y-142236185D01*
X126672313Y-142236185D02*
X126743742Y-142379042D01*
X126743742Y-142379042D02*
X126743742Y-142450471D01*
X126743742Y-142450471D02*
X126672313Y-142593328D01*
X126672313Y-142593328D02*
X126600885Y-142664757D01*
X126600885Y-142664757D02*
X126458027Y-142736185D01*
X126458027Y-142736185D02*
X126172313Y-142736185D01*
X126172313Y-142736185D02*
X126029456Y-142807614D01*
X126029456Y-142807614D02*
X125958027Y-142879042D01*
X125958027Y-142879042D02*
X125886599Y-143021900D01*
X125886599Y-143021900D02*
X125886599Y-143307614D01*
X125886599Y-143307614D02*
X125958027Y-143450471D01*
X125958027Y-143450471D02*
X126029456Y-143521900D01*
X126029456Y-143521900D02*
X126172313Y-143593328D01*
X126172313Y-143593328D02*
X126458027Y-143593328D01*
X126458027Y-143593328D02*
X126600885Y-143521900D01*
X126600885Y-143521900D02*
X126672313Y-143450471D01*
X126672313Y-143450471D02*
X126743742Y-143307614D01*
X126743742Y-143307614D02*
X126743742Y-143021900D01*
X126743742Y-143021900D02*
X126672313Y-142879042D01*
X126672313Y-142879042D02*
X126600885Y-142807614D01*
X126600885Y-142807614D02*
X126458027Y-142736185D01*
X127386598Y-143450471D02*
X127458027Y-143521900D01*
X127458027Y-143521900D02*
X127386598Y-143593328D01*
X127386598Y-143593328D02*
X127315170Y-143521900D01*
X127315170Y-143521900D02*
X127386598Y-143450471D01*
X127386598Y-143450471D02*
X127386598Y-143593328D01*
X128386599Y-142093328D02*
X128529456Y-142093328D01*
X128529456Y-142093328D02*
X128672313Y-142164757D01*
X128672313Y-142164757D02*
X128743742Y-142236185D01*
X128743742Y-142236185D02*
X128815170Y-142379042D01*
X128815170Y-142379042D02*
X128886599Y-142664757D01*
X128886599Y-142664757D02*
X128886599Y-143021900D01*
X128886599Y-143021900D02*
X128815170Y-143307614D01*
X128815170Y-143307614D02*
X128743742Y-143450471D01*
X128743742Y-143450471D02*
X128672313Y-143521900D01*
X128672313Y-143521900D02*
X128529456Y-143593328D01*
X128529456Y-143593328D02*
X128386599Y-143593328D01*
X128386599Y-143593328D02*
X128243742Y-143521900D01*
X128243742Y-143521900D02*
X128172313Y-143450471D01*
X128172313Y-143450471D02*
X128100884Y-143307614D01*
X128100884Y-143307614D02*
X128029456Y-143021900D01*
X128029456Y-143021900D02*
X128029456Y-142664757D01*
X128029456Y-142664757D02*
X128100884Y-142379042D01*
X128100884Y-142379042D02*
X128172313Y-142236185D01*
X128172313Y-142236185D02*
X128243742Y-142164757D01*
X128243742Y-142164757D02*
X128386599Y-142093328D01*
X129529455Y-143450471D02*
X129600884Y-143521900D01*
X129600884Y-143521900D02*
X129529455Y-143593328D01*
X129529455Y-143593328D02*
X129458027Y-143521900D01*
X129458027Y-143521900D02*
X129529455Y-143450471D01*
X129529455Y-143450471D02*
X129529455Y-143593328D01*
X130100884Y-142093328D02*
X131029456Y-142093328D01*
X131029456Y-142093328D02*
X130529456Y-142664757D01*
X130529456Y-142664757D02*
X130743741Y-142664757D01*
X130743741Y-142664757D02*
X130886599Y-142736185D01*
X130886599Y-142736185D02*
X130958027Y-142807614D01*
X130958027Y-142807614D02*
X131029456Y-142950471D01*
X131029456Y-142950471D02*
X131029456Y-143307614D01*
X131029456Y-143307614D02*
X130958027Y-143450471D01*
X130958027Y-143450471D02*
X130886599Y-143521900D01*
X130886599Y-143521900D02*
X130743741Y-143593328D01*
X130743741Y-143593328D02*
X130315170Y-143593328D01*
X130315170Y-143593328D02*
X130172313Y-143521900D01*
X130172313Y-143521900D02*
X130100884Y-143450471D01*
D10*
D11*
X109502200Y-138507200D02*
X217502200Y-138507200D01*
D10*
D12*
X196913853Y-140785528D02*
X196413853Y-140071242D01*
X196056710Y-140785528D02*
X196056710Y-139285528D01*
X196056710Y-139285528D02*
X196628139Y-139285528D01*
X196628139Y-139285528D02*
X196770996Y-139356957D01*
X196770996Y-139356957D02*
X196842425Y-139428385D01*
X196842425Y-139428385D02*
X196913853Y-139571242D01*
X196913853Y-139571242D02*
X196913853Y-139785528D01*
X196913853Y-139785528D02*
X196842425Y-139928385D01*
X196842425Y-139928385D02*
X196770996Y-139999814D01*
X196770996Y-139999814D02*
X196628139Y-140071242D01*
X196628139Y-140071242D02*
X196056710Y-140071242D01*
X198128139Y-140714100D02*
X197985282Y-140785528D01*
X197985282Y-140785528D02*
X197699568Y-140785528D01*
X197699568Y-140785528D02*
X197556710Y-140714100D01*
X197556710Y-140714100D02*
X197485282Y-140571242D01*
X197485282Y-140571242D02*
X197485282Y-139999814D01*
X197485282Y-139999814D02*
X197556710Y-139856957D01*
X197556710Y-139856957D02*
X197699568Y-139785528D01*
X197699568Y-139785528D02*
X197985282Y-139785528D01*
X197985282Y-139785528D02*
X198128139Y-139856957D01*
X198128139Y-139856957D02*
X198199568Y-139999814D01*
X198199568Y-139999814D02*
X198199568Y-140142671D01*
X198199568Y-140142671D02*
X197485282Y-140285528D01*
X198699567Y-139785528D02*
X199056710Y-140785528D01*
X199056710Y-140785528D02*
X199413853Y-139785528D01*
X199985281Y-140642671D02*
X200056710Y-140714100D01*
X200056710Y-140714100D02*
X199985281Y-140785528D01*
X199985281Y-140785528D02*
X199913853Y-140714100D01*
X199913853Y-140714100D02*
X199985281Y-140642671D01*
X199985281Y-140642671D02*
X199985281Y-140785528D01*
X199985281Y-139856957D02*
X200056710Y-139928385D01*
X200056710Y-139928385D02*
X199985281Y-139999814D01*
X199985281Y-139999814D02*
X199913853Y-139928385D01*
X199913853Y-139928385D02*
X199985281Y-139856957D01*
X199985281Y-139856957D02*
X199985281Y-139999814D01*
X202699567Y-140785528D02*
X202199567Y-140071242D01*
X201842424Y-140785528D02*
X201842424Y-139285528D01*
X201842424Y-139285528D02*
X202413853Y-139285528D01*
X202413853Y-139285528D02*
X202556710Y-139356957D01*
X202556710Y-139356957D02*
X202628139Y-139428385D01*
X202628139Y-139428385D02*
X202699567Y-139571242D01*
X202699567Y-139571242D02*
X202699567Y-139785528D01*
X202699567Y-139785528D02*
X202628139Y-139928385D01*
X202628139Y-139928385D02*
X202556710Y-139999814D01*
X202556710Y-139999814D02*
X202413853Y-140071242D01*
X202413853Y-140071242D02*
X201842424Y-140071242D01*
X203913853Y-140714100D02*
X203770996Y-140785528D01*
X203770996Y-140785528D02*
X203485282Y-140785528D01*
X203485282Y-140785528D02*
X203342424Y-140714100D01*
X203342424Y-140714100D02*
X203270996Y-140571242D01*
X203270996Y-140571242D02*
X203270996Y-139999814D01*
X203270996Y-139999814D02*
X203342424Y-139856957D01*
X203342424Y-139856957D02*
X203485282Y-139785528D01*
X203485282Y-139785528D02*
X203770996Y-139785528D01*
X203770996Y-139785528D02*
X203913853Y-139856957D01*
X203913853Y-139856957D02*
X203985282Y-139999814D01*
X203985282Y-139999814D02*
X203985282Y-140142671D01*
X203985282Y-140142671D02*
X203270996Y-140285528D01*
X204485281Y-139785528D02*
X204842424Y-140785528D01*
X204842424Y-140785528D02*
X205199567Y-139785528D01*
X205699567Y-139428385D02*
X205770995Y-139356957D01*
X205770995Y-139356957D02*
X205913853Y-139285528D01*
X205913853Y-139285528D02*
X206270995Y-139285528D01*
X206270995Y-139285528D02*
X206413853Y-139356957D01*
X206413853Y-139356957D02*
X206485281Y-139428385D01*
X206485281Y-139428385D02*
X206556710Y-139571242D01*
X206556710Y-139571242D02*
X206556710Y-139714100D01*
X206556710Y-139714100D02*
X206485281Y-139928385D01*
X206485281Y-139928385D02*
X205628138Y-140785528D01*
X205628138Y-140785528D02*
X206556710Y-140785528D01*
X207199566Y-140642671D02*
X207270995Y-140714100D01*
X207270995Y-140714100D02*
X207199566Y-140785528D01*
X207199566Y-140785528D02*
X207128138Y-140714100D01*
X207128138Y-140714100D02*
X207199566Y-140642671D01*
X207199566Y-140642671D02*
X207199566Y-140785528D01*
X207770995Y-139285528D02*
X208699567Y-139285528D01*
X208699567Y-139285528D02*
X208199567Y-139856957D01*
X208199567Y-139856957D02*
X208413852Y-139856957D01*
X208413852Y-139856957D02*
X208556710Y-139928385D01*
X208556710Y-139928385D02*
X208628138Y-139999814D01*
X208628138Y-139999814D02*
X208699567Y-140142671D01*
X208699567Y-140142671D02*
X208699567Y-140499814D01*
X208699567Y-140499814D02*
X208628138Y-140642671D01*
X208628138Y-140642671D02*
X208556710Y-140714100D01*
X208556710Y-140714100D02*
X208413852Y-140785528D01*
X208413852Y-140785528D02*
X207985281Y-140785528D01*
X207985281Y-140785528D02*
X207842424Y-140714100D01*
X207842424Y-140714100D02*
X207770995Y-140642671D01*
D10*
D11*
X110886598Y-140721900D02*
X111100884Y-140793328D01*
X111100884Y-140793328D02*
X111458026Y-140793328D01*
X111458026Y-140793328D02*
X111600884Y-140721900D01*
X111600884Y-140721900D02*
X111672312Y-140650471D01*
X111672312Y-140650471D02*
X111743741Y-140507614D01*
X111743741Y-140507614D02*
X111743741Y-140364757D01*
X111743741Y-140364757D02*
X111672312Y-140221900D01*
X111672312Y-140221900D02*
X111600884Y-140150471D01*
X111600884Y-140150471D02*
X111458026Y-140079042D01*
X111458026Y-140079042D02*
X111172312Y-140007614D01*
X111172312Y-140007614D02*
X111029455Y-139936185D01*
X111029455Y-139936185D02*
X110958026Y-139864757D01*
X110958026Y-139864757D02*
X110886598Y-139721900D01*
X110886598Y-139721900D02*
X110886598Y-139579042D01*
X110886598Y-139579042D02*
X110958026Y-139436185D01*
X110958026Y-139436185D02*
X111029455Y-139364757D01*
X111029455Y-139364757D02*
X111172312Y-139293328D01*
X111172312Y-139293328D02*
X111529455Y-139293328D01*
X111529455Y-139293328D02*
X111743741Y-139364757D01*
X112386597Y-140793328D02*
X112386597Y-139793328D01*
X112386597Y-139293328D02*
X112315169Y-139364757D01*
X112315169Y-139364757D02*
X112386597Y-139436185D01*
X112386597Y-139436185D02*
X112458026Y-139364757D01*
X112458026Y-139364757D02*
X112386597Y-139293328D01*
X112386597Y-139293328D02*
X112386597Y-139436185D01*
X112958026Y-139793328D02*
X113743741Y-139793328D01*
X113743741Y-139793328D02*
X112958026Y-140793328D01*
X112958026Y-140793328D02*
X113743741Y-140793328D01*
X114886598Y-140721900D02*
X114743741Y-140793328D01*
X114743741Y-140793328D02*
X114458027Y-140793328D01*
X114458027Y-140793328D02*
X114315169Y-140721900D01*
X114315169Y-140721900D02*
X114243741Y-140579042D01*
X114243741Y-140579042D02*
X114243741Y-140007614D01*
X114243741Y-140007614D02*
X114315169Y-139864757D01*
X114315169Y-139864757D02*
X114458027Y-139793328D01*
X114458027Y-139793328D02*
X114743741Y-139793328D01*
X114743741Y-139793328D02*
X114886598Y-139864757D01*
X114886598Y-139864757D02*
X114958027Y-140007614D01*
X114958027Y-140007614D02*
X114958027Y-140150471D01*
X114958027Y-140150471D02*
X114243741Y-140293328D01*
X115600883Y-140650471D02*
X115672312Y-140721900D01*
X115672312Y-140721900D02*
X115600883Y-140793328D01*
X115600883Y-140793328D02*
X115529455Y-140721900D01*
X115529455Y-140721900D02*
X115600883Y-140650471D01*
X115600883Y-140650471D02*
X115600883Y-140793328D01*
X115600883Y-139864757D02*
X115672312Y-139936185D01*
X115672312Y-139936185D02*
X115600883Y-140007614D01*
X115600883Y-140007614D02*
X115529455Y-139936185D01*
X115529455Y-139936185D02*
X115600883Y-139864757D01*
X115600883Y-139864757D02*
X115600883Y-140007614D01*
X117386598Y-140364757D02*
X118100884Y-140364757D01*
X117243741Y-140793328D02*
X117743741Y-139293328D01*
X117743741Y-139293328D02*
X118243741Y-140793328D01*
X119386598Y-139793328D02*
X119386598Y-140793328D01*
X119029455Y-139221900D02*
X118672312Y-140293328D01*
X118672312Y-140293328D02*
X119600883Y-140293328D01*
D10*
D11*
X195958026Y-143593328D02*
X195958026Y-142093328D01*
X197315170Y-143593328D02*
X197315170Y-142093328D01*
X197315170Y-143521900D02*
X197172312Y-143593328D01*
X197172312Y-143593328D02*
X196886598Y-143593328D01*
X196886598Y-143593328D02*
X196743741Y-143521900D01*
X196743741Y-143521900D02*
X196672312Y-143450471D01*
X196672312Y-143450471D02*
X196600884Y-143307614D01*
X196600884Y-143307614D02*
X196600884Y-142879042D01*
X196600884Y-142879042D02*
X196672312Y-142736185D01*
X196672312Y-142736185D02*
X196743741Y-142664757D01*
X196743741Y-142664757D02*
X196886598Y-142593328D01*
X196886598Y-142593328D02*
X197172312Y-142593328D01*
X197172312Y-142593328D02*
X197315170Y-142664757D01*
X198029455Y-143450471D02*
X198100884Y-143521900D01*
X198100884Y-143521900D02*
X198029455Y-143593328D01*
X198029455Y-143593328D02*
X197958027Y-143521900D01*
X197958027Y-143521900D02*
X198029455Y-143450471D01*
X198029455Y-143450471D02*
X198029455Y-143593328D01*
X198029455Y-142664757D02*
X198100884Y-142736185D01*
X198100884Y-142736185D02*
X198029455Y-142807614D01*
X198029455Y-142807614D02*
X197958027Y-142736185D01*
X197958027Y-142736185D02*
X198029455Y-142664757D01*
X198029455Y-142664757D02*
X198029455Y-142807614D01*
X200672313Y-143593328D02*
X199815170Y-143593328D01*
X200243741Y-143593328D02*
X200243741Y-142093328D01*
X200243741Y-142093328D02*
X200100884Y-142307614D01*
X200100884Y-142307614D02*
X199958027Y-142450471D01*
X199958027Y-142450471D02*
X199815170Y-142521900D01*
X202386598Y-142021900D02*
X201100884Y-143950471D01*
X203672313Y-143593328D02*
X202815170Y-143593328D01*
X203243741Y-143593328D02*
X203243741Y-142093328D01*
X203243741Y-142093328D02*
X203100884Y-142307614D01*
X203100884Y-142307614D02*
X202958027Y-142450471D01*
X202958027Y-142450471D02*
X202815170Y-142521900D01*
D10*
D11*
X109502200Y-134507200D02*
X217502200Y-134507200D01*
D10*
D13*
X111193928Y-135211638D02*
X112336785Y-135211638D01*
X111515357Y-137211638D02*
X111765357Y-135211638D01*
X112753452Y-137211638D02*
X112920119Y-135878304D01*
X113003452Y-135211638D02*
X112896309Y-135306876D01*
X112896309Y-135306876D02*
X112979643Y-135402114D01*
X112979643Y-135402114D02*
X113086786Y-135306876D01*
X113086786Y-135306876D02*
X113003452Y-135211638D01*
X113003452Y-135211638D02*
X112979643Y-135402114D01*
X113586786Y-135878304D02*
X114348690Y-135878304D01*
X113955833Y-135211638D02*
X113741548Y-136925923D01*
X113741548Y-136925923D02*
X113812976Y-137116400D01*
X113812976Y-137116400D02*
X113991548Y-137211638D01*
X113991548Y-137211638D02*
X114182024Y-137211638D01*
X115134405Y-137211638D02*
X114955833Y-137116400D01*
X114955833Y-137116400D02*
X114884405Y-136925923D01*
X114884405Y-136925923D02*
X115098690Y-135211638D01*
X116670119Y-137116400D02*
X116467738Y-137211638D01*
X116467738Y-137211638D02*
X116086785Y-137211638D01*
X116086785Y-137211638D02*
X115908214Y-137116400D01*
X115908214Y-137116400D02*
X115836785Y-136925923D01*
X115836785Y-136925923D02*
X115932024Y-136164019D01*
X115932024Y-136164019D02*
X116051071Y-135973542D01*
X116051071Y-135973542D02*
X116253452Y-135878304D01*
X116253452Y-135878304D02*
X116634404Y-135878304D01*
X116634404Y-135878304D02*
X116812976Y-135973542D01*
X116812976Y-135973542D02*
X116884404Y-136164019D01*
X116884404Y-136164019D02*
X116860595Y-136354495D01*
X116860595Y-136354495D02*
X115884404Y-136544971D01*
X117634405Y-137021161D02*
X117717738Y-137116400D01*
X117717738Y-137116400D02*
X117610595Y-137211638D01*
X117610595Y-137211638D02*
X117527262Y-137116400D01*
X117527262Y-137116400D02*
X117634405Y-137021161D01*
X117634405Y-137021161D02*
X117610595Y-137211638D01*
X117765357Y-135973542D02*
X117848690Y-136068780D01*
X117848690Y-136068780D02*
X117741548Y-136164019D01*
X117741548Y-136164019D02*
X117658214Y-136068780D01*
X117658214Y-136068780D02*
X117765357Y-135973542D01*
X117765357Y-135973542D02*
X117741548Y-136164019D01*
X120086786Y-137211638D02*
X120336786Y-135211638D01*
X120336786Y-135211638D02*
X121098691Y-135211638D01*
X121098691Y-135211638D02*
X121277262Y-135306876D01*
X121277262Y-135306876D02*
X121360596Y-135402114D01*
X121360596Y-135402114D02*
X121432024Y-135592590D01*
X121432024Y-135592590D02*
X121396310Y-135878304D01*
X121396310Y-135878304D02*
X121277262Y-136068780D01*
X121277262Y-136068780D02*
X121170120Y-136164019D01*
X121170120Y-136164019D02*
X120967739Y-136259257D01*
X120967739Y-136259257D02*
X120205834Y-136259257D01*
X122086786Y-137211638D02*
X122336786Y-135211638D01*
X122217739Y-136164019D02*
X123360596Y-136164019D01*
X123229643Y-137211638D02*
X123479643Y-135211638D01*
X124277262Y-136449733D02*
X125801072Y-136449733D01*
X126634405Y-136640209D02*
X127586786Y-136640209D01*
X126372500Y-137211638D02*
X127289167Y-135211638D01*
X127289167Y-135211638D02*
X127705833Y-137211638D01*
X129539167Y-137021161D02*
X129432024Y-137116400D01*
X129432024Y-137116400D02*
X129134405Y-137211638D01*
X129134405Y-137211638D02*
X128943929Y-137211638D01*
X128943929Y-137211638D02*
X128670119Y-137116400D01*
X128670119Y-137116400D02*
X128503453Y-136925923D01*
X128503453Y-136925923D02*
X128432024Y-136735447D01*
X128432024Y-136735447D02*
X128384405Y-136354495D01*
X128384405Y-136354495D02*
X128420119Y-136068780D01*
X128420119Y-136068780D02*
X128562976Y-135687828D01*
X128562976Y-135687828D02*
X128682024Y-135497352D01*
X128682024Y-135497352D02*
X128896310Y-135306876D01*
X128896310Y-135306876D02*
X129193929Y-135211638D01*
X129193929Y-135211638D02*
X129384405Y-135211638D01*
X129384405Y-135211638D02*
X129658215Y-135306876D01*
X129658215Y-135306876D02*
X129741548Y-135402114D01*
X129872500Y-137402114D02*
X131396310Y-137402114D01*
X131896310Y-137211638D02*
X132146310Y-135211638D01*
X132146310Y-135211638D02*
X132908215Y-135211638D01*
X132908215Y-135211638D02*
X133086786Y-135306876D01*
X133086786Y-135306876D02*
X133170120Y-135402114D01*
X133170120Y-135402114D02*
X133241548Y-135592590D01*
X133241548Y-135592590D02*
X133205834Y-135878304D01*
X133205834Y-135878304D02*
X133086786Y-136068780D01*
X133086786Y-136068780D02*
X132979644Y-136164019D01*
X132979644Y-136164019D02*
X132777263Y-136259257D01*
X132777263Y-136259257D02*
X132015358Y-136259257D01*
X135062977Y-137021161D02*
X134955834Y-137116400D01*
X134955834Y-137116400D02*
X134658215Y-137211638D01*
X134658215Y-137211638D02*
X134467739Y-137211638D01*
X134467739Y-137211638D02*
X134193929Y-137116400D01*
X134193929Y-137116400D02*
X134027263Y-136925923D01*
X134027263Y-136925923D02*
X133955834Y-136735447D01*
X133955834Y-136735447D02*
X133908215Y-136354495D01*
X133908215Y-136354495D02*
X133943929Y-136068780D01*
X133943929Y-136068780D02*
X134086786Y-135687828D01*
X134086786Y-135687828D02*
X134205834Y-135497352D01*
X134205834Y-135497352D02*
X134420120Y-135306876D01*
X134420120Y-135306876D02*
X134717739Y-135211638D01*
X134717739Y-135211638D02*
X134908215Y-135211638D01*
X134908215Y-135211638D02*
X135182025Y-135306876D01*
X135182025Y-135306876D02*
X135265358Y-135402114D01*
X136693929Y-136164019D02*
X136967739Y-136259257D01*
X136967739Y-136259257D02*
X137051072Y-136354495D01*
X137051072Y-136354495D02*
X137122501Y-136544971D01*
X137122501Y-136544971D02*
X137086786Y-136830685D01*
X137086786Y-136830685D02*
X136967739Y-137021161D01*
X136967739Y-137021161D02*
X136860596Y-137116400D01*
X136860596Y-137116400D02*
X136658215Y-137211638D01*
X136658215Y-137211638D02*
X135896310Y-137211638D01*
X135896310Y-137211638D02*
X136146310Y-135211638D01*
X136146310Y-135211638D02*
X136812977Y-135211638D01*
X136812977Y-135211638D02*
X136991548Y-135306876D01*
X136991548Y-135306876D02*
X137074882Y-135402114D01*
X137074882Y-135402114D02*
X137146310Y-135592590D01*
X137146310Y-135592590D02*
X137122501Y-135783066D01*
X137122501Y-135783066D02*
X137003453Y-135973542D01*
X137003453Y-135973542D02*
X136896310Y-136068780D01*
X136896310Y-136068780D02*
X136693929Y-136164019D01*
X136693929Y-136164019D02*
X136027263Y-136164019D01*
D10*
D11*
X111458026Y-132607614D02*
X110958026Y-132607614D01*
X110958026Y-133393328D02*
X110958026Y-131893328D01*
X110958026Y-131893328D02*
X111672312Y-131893328D01*
X112243740Y-133393328D02*
X112243740Y-132393328D01*
X112243740Y-131893328D02*
X112172312Y-131964757D01*
X112172312Y-131964757D02*
X112243740Y-132036185D01*
X112243740Y-132036185D02*
X112315169Y-131964757D01*
X112315169Y-131964757D02*
X112243740Y-131893328D01*
X112243740Y-131893328D02*
X112243740Y-132036185D01*
X113172312Y-133393328D02*
X113029455Y-133321900D01*
X113029455Y-133321900D02*
X112958026Y-133179042D01*
X112958026Y-133179042D02*
X112958026Y-131893328D01*
X114315169Y-133321900D02*
X114172312Y-133393328D01*
X114172312Y-133393328D02*
X113886598Y-133393328D01*
X113886598Y-133393328D02*
X113743740Y-133321900D01*
X113743740Y-133321900D02*
X113672312Y-133179042D01*
X113672312Y-133179042D02*
X113672312Y-132607614D01*
X113672312Y-132607614D02*
X113743740Y-132464757D01*
X113743740Y-132464757D02*
X113886598Y-132393328D01*
X113886598Y-132393328D02*
X114172312Y-132393328D01*
X114172312Y-132393328D02*
X114315169Y-132464757D01*
X114315169Y-132464757D02*
X114386598Y-132607614D01*
X114386598Y-132607614D02*
X114386598Y-132750471D01*
X114386598Y-132750471D02*
X113672312Y-132893328D01*
X115029454Y-133250471D02*
X115100883Y-133321900D01*
X115100883Y-133321900D02*
X115029454Y-133393328D01*
X115029454Y-133393328D02*
X114958026Y-133321900D01*
X114958026Y-133321900D02*
X115029454Y-133250471D01*
X115029454Y-133250471D02*
X115029454Y-133393328D01*
X115029454Y-132464757D02*
X115100883Y-132536185D01*
X115100883Y-132536185D02*
X115029454Y-132607614D01*
X115029454Y-132607614D02*
X114958026Y-132536185D01*
X114958026Y-132536185D02*
X115029454Y-132464757D01*
X115029454Y-132464757D02*
X115029454Y-132607614D01*
X116886597Y-133393328D02*
X116886597Y-131893328D01*
X116886597Y-131893328D02*
X117458026Y-131893328D01*
X117458026Y-131893328D02*
X117600883Y-131964757D01*
X117600883Y-131964757D02*
X117672312Y-132036185D01*
X117672312Y-132036185D02*
X117743740Y-132179042D01*
X117743740Y-132179042D02*
X117743740Y-132393328D01*
X117743740Y-132393328D02*
X117672312Y-132536185D01*
X117672312Y-132536185D02*
X117600883Y-132607614D01*
X117600883Y-132607614D02*
X117458026Y-132679042D01*
X117458026Y-132679042D02*
X116886597Y-132679042D01*
X118386597Y-133393328D02*
X118386597Y-131893328D01*
X118386597Y-132607614D02*
X119243740Y-132607614D01*
X119243740Y-133393328D02*
X119243740Y-131893328D01*
X119958026Y-132821900D02*
X121100884Y-132821900D01*
X121743741Y-132964757D02*
X122458027Y-132964757D01*
X121600884Y-133393328D02*
X122100884Y-131893328D01*
X122100884Y-131893328D02*
X122600884Y-133393328D01*
X123958026Y-133250471D02*
X123886598Y-133321900D01*
X123886598Y-133321900D02*
X123672312Y-133393328D01*
X123672312Y-133393328D02*
X123529455Y-133393328D01*
X123529455Y-133393328D02*
X123315169Y-133321900D01*
X123315169Y-133321900D02*
X123172312Y-133179042D01*
X123172312Y-133179042D02*
X123100883Y-133036185D01*
X123100883Y-133036185D02*
X123029455Y-132750471D01*
X123029455Y-132750471D02*
X123029455Y-132536185D01*
X123029455Y-132536185D02*
X123100883Y-132250471D01*
X123100883Y-132250471D02*
X123172312Y-132107614D01*
X123172312Y-132107614D02*
X123315169Y-131964757D01*
X123315169Y-131964757D02*
X123529455Y-131893328D01*
X123529455Y-131893328D02*
X123672312Y-131893328D01*
X123672312Y-131893328D02*
X123886598Y-131964757D01*
X123886598Y-131964757D02*
X123958026Y-132036185D01*
X124600883Y-133250471D02*
X124672312Y-133321900D01*
X124672312Y-133321900D02*
X124600883Y-133393328D01*
X124600883Y-133393328D02*
X124529455Y-133321900D01*
X124529455Y-133321900D02*
X124600883Y-133250471D01*
X124600883Y-133250471D02*
X124600883Y-133393328D01*
X125315169Y-133393328D02*
X125315169Y-131893328D01*
X125458027Y-132821900D02*
X125886598Y-133393328D01*
X125886598Y-132393328D02*
X125315169Y-132964757D01*
X126529455Y-133393328D02*
X126529455Y-132393328D01*
X126529455Y-131893328D02*
X126458027Y-131964757D01*
X126458027Y-131964757D02*
X126529455Y-132036185D01*
X126529455Y-132036185D02*
X126600884Y-131964757D01*
X126600884Y-131964757D02*
X126529455Y-131893328D01*
X126529455Y-131893328D02*
X126529455Y-132036185D01*
X127886599Y-133321900D02*
X127743741Y-133393328D01*
X127743741Y-133393328D02*
X127458027Y-133393328D01*
X127458027Y-133393328D02*
X127315170Y-133321900D01*
X127315170Y-133321900D02*
X127243741Y-133250471D01*
X127243741Y-133250471D02*
X127172313Y-133107614D01*
X127172313Y-133107614D02*
X127172313Y-132679042D01*
X127172313Y-132679042D02*
X127243741Y-132536185D01*
X127243741Y-132536185D02*
X127315170Y-132464757D01*
X127315170Y-132464757D02*
X127458027Y-132393328D01*
X127458027Y-132393328D02*
X127743741Y-132393328D01*
X127743741Y-132393328D02*
X127886599Y-132464757D01*
X129172313Y-133393328D02*
X129172313Y-132607614D01*
X129172313Y-132607614D02*
X129100884Y-132464757D01*
X129100884Y-132464757D02*
X128958027Y-132393328D01*
X128958027Y-132393328D02*
X128672313Y-132393328D01*
X128672313Y-132393328D02*
X128529455Y-132464757D01*
X129172313Y-133321900D02*
X129029455Y-133393328D01*
X129029455Y-133393328D02*
X128672313Y-133393328D01*
X128672313Y-133393328D02*
X128529455Y-133321900D01*
X128529455Y-133321900D02*
X128458027Y-133179042D01*
X128458027Y-133179042D02*
X128458027Y-133036185D01*
X128458027Y-133036185D02*
X128529455Y-132893328D01*
X128529455Y-132893328D02*
X128672313Y-132821900D01*
X128672313Y-132821900D02*
X129029455Y-132821900D01*
X129029455Y-132821900D02*
X129172313Y-132750471D01*
X130529456Y-133393328D02*
X130529456Y-131893328D01*
X130529456Y-133321900D02*
X130386598Y-133393328D01*
X130386598Y-133393328D02*
X130100884Y-133393328D01*
X130100884Y-133393328D02*
X129958027Y-133321900D01*
X129958027Y-133321900D02*
X129886598Y-133250471D01*
X129886598Y-133250471D02*
X129815170Y-133107614D01*
X129815170Y-133107614D02*
X129815170Y-132679042D01*
X129815170Y-132679042D02*
X129886598Y-132536185D01*
X129886598Y-132536185D02*
X129958027Y-132464757D01*
X129958027Y-132464757D02*
X130100884Y-132393328D01*
X130100884Y-132393328D02*
X130386598Y-132393328D01*
X130386598Y-132393328D02*
X130529456Y-132464757D01*
X130886599Y-133536185D02*
X132029456Y-133536185D01*
X132386598Y-132393328D02*
X132386598Y-133893328D01*
X132386598Y-132464757D02*
X132529456Y-132393328D01*
X132529456Y-132393328D02*
X132815170Y-132393328D01*
X132815170Y-132393328D02*
X132958027Y-132464757D01*
X132958027Y-132464757D02*
X133029456Y-132536185D01*
X133029456Y-132536185D02*
X133100884Y-132679042D01*
X133100884Y-132679042D02*
X133100884Y-133107614D01*
X133100884Y-133107614D02*
X133029456Y-133250471D01*
X133029456Y-133250471D02*
X132958027Y-133321900D01*
X132958027Y-133321900D02*
X132815170Y-133393328D01*
X132815170Y-133393328D02*
X132529456Y-133393328D01*
X132529456Y-133393328D02*
X132386598Y-133321900D01*
X134386599Y-133321900D02*
X134243741Y-133393328D01*
X134243741Y-133393328D02*
X133958027Y-133393328D01*
X133958027Y-133393328D02*
X133815170Y-133321900D01*
X133815170Y-133321900D02*
X133743741Y-133250471D01*
X133743741Y-133250471D02*
X133672313Y-133107614D01*
X133672313Y-133107614D02*
X133672313Y-132679042D01*
X133672313Y-132679042D02*
X133743741Y-132536185D01*
X133743741Y-132536185D02*
X133815170Y-132464757D01*
X133815170Y-132464757D02*
X133958027Y-132393328D01*
X133958027Y-132393328D02*
X134243741Y-132393328D01*
X134243741Y-132393328D02*
X134386599Y-132464757D01*
X135029455Y-133393328D02*
X135029455Y-131893328D01*
X135029455Y-132464757D02*
X135172313Y-132393328D01*
X135172313Y-132393328D02*
X135458027Y-132393328D01*
X135458027Y-132393328D02*
X135600884Y-132464757D01*
X135600884Y-132464757D02*
X135672313Y-132536185D01*
X135672313Y-132536185D02*
X135743741Y-132679042D01*
X135743741Y-132679042D02*
X135743741Y-133107614D01*
X135743741Y-133107614D02*
X135672313Y-133250471D01*
X135672313Y-133250471D02*
X135600884Y-133321900D01*
X135600884Y-133321900D02*
X135458027Y-133393328D01*
X135458027Y-133393328D02*
X135172313Y-133393328D01*
X135172313Y-133393328D02*
X135029455Y-133321900D01*
D10*
D11*
X109502200Y-128507200D02*
X217502200Y-128507200D01*
D10*
D11*
X110886598Y-130621900D02*
X111100884Y-130693328D01*
X111100884Y-130693328D02*
X111458026Y-130693328D01*
X111458026Y-130693328D02*
X111600884Y-130621900D01*
X111600884Y-130621900D02*
X111672312Y-130550471D01*
X111672312Y-130550471D02*
X111743741Y-130407614D01*
X111743741Y-130407614D02*
X111743741Y-130264757D01*
X111743741Y-130264757D02*
X111672312Y-130121900D01*
X111672312Y-130121900D02*
X111600884Y-130050471D01*
X111600884Y-130050471D02*
X111458026Y-129979042D01*
X111458026Y-129979042D02*
X111172312Y-129907614D01*
X111172312Y-129907614D02*
X111029455Y-129836185D01*
X111029455Y-129836185D02*
X110958026Y-129764757D01*
X110958026Y-129764757D02*
X110886598Y-129621900D01*
X110886598Y-129621900D02*
X110886598Y-129479042D01*
X110886598Y-129479042D02*
X110958026Y-129336185D01*
X110958026Y-129336185D02*
X111029455Y-129264757D01*
X111029455Y-129264757D02*
X111172312Y-129193328D01*
X111172312Y-129193328D02*
X111529455Y-129193328D01*
X111529455Y-129193328D02*
X111743741Y-129264757D01*
X112386597Y-130693328D02*
X112386597Y-129193328D01*
X113029455Y-130693328D02*
X113029455Y-129907614D01*
X113029455Y-129907614D02*
X112958026Y-129764757D01*
X112958026Y-129764757D02*
X112815169Y-129693328D01*
X112815169Y-129693328D02*
X112600883Y-129693328D01*
X112600883Y-129693328D02*
X112458026Y-129764757D01*
X112458026Y-129764757D02*
X112386597Y-129836185D01*
X114315169Y-130621900D02*
X114172312Y-130693328D01*
X114172312Y-130693328D02*
X113886598Y-130693328D01*
X113886598Y-130693328D02*
X113743740Y-130621900D01*
X113743740Y-130621900D02*
X113672312Y-130479042D01*
X113672312Y-130479042D02*
X113672312Y-129907614D01*
X113672312Y-129907614D02*
X113743740Y-129764757D01*
X113743740Y-129764757D02*
X113886598Y-129693328D01*
X113886598Y-129693328D02*
X114172312Y-129693328D01*
X114172312Y-129693328D02*
X114315169Y-129764757D01*
X114315169Y-129764757D02*
X114386598Y-129907614D01*
X114386598Y-129907614D02*
X114386598Y-130050471D01*
X114386598Y-130050471D02*
X113672312Y-130193328D01*
X115600883Y-130621900D02*
X115458026Y-130693328D01*
X115458026Y-130693328D02*
X115172312Y-130693328D01*
X115172312Y-130693328D02*
X115029454Y-130621900D01*
X115029454Y-130621900D02*
X114958026Y-130479042D01*
X114958026Y-130479042D02*
X114958026Y-129907614D01*
X114958026Y-129907614D02*
X115029454Y-129764757D01*
X115029454Y-129764757D02*
X115172312Y-129693328D01*
X115172312Y-129693328D02*
X115458026Y-129693328D01*
X115458026Y-129693328D02*
X115600883Y-129764757D01*
X115600883Y-129764757D02*
X115672312Y-129907614D01*
X115672312Y-129907614D02*
X115672312Y-130050471D01*
X115672312Y-130050471D02*
X114958026Y-130193328D01*
X116100883Y-129693328D02*
X116672311Y-129693328D01*
X116315168Y-129193328D02*
X116315168Y-130479042D01*
X116315168Y-130479042D02*
X116386597Y-130621900D01*
X116386597Y-130621900D02*
X116529454Y-130693328D01*
X116529454Y-130693328D02*
X116672311Y-130693328D01*
X117172311Y-130550471D02*
X117243740Y-130621900D01*
X117243740Y-130621900D02*
X117172311Y-130693328D01*
X117172311Y-130693328D02*
X117100883Y-130621900D01*
X117100883Y-130621900D02*
X117172311Y-130550471D01*
X117172311Y-130550471D02*
X117172311Y-130693328D01*
X117172311Y-129764757D02*
X117243740Y-129836185D01*
X117243740Y-129836185D02*
X117172311Y-129907614D01*
X117172311Y-129907614D02*
X117100883Y-129836185D01*
X117100883Y-129836185D02*
X117172311Y-129764757D01*
X117172311Y-129764757D02*
X117172311Y-129907614D01*
D10*
D12*
X110842425Y-126185528D02*
X111699568Y-126185528D01*
X111270996Y-127685528D02*
X111270996Y-126185528D01*
X112770996Y-127614100D02*
X112628139Y-127685528D01*
X112628139Y-127685528D02*
X112342425Y-127685528D01*
X112342425Y-127685528D02*
X112199567Y-127614100D01*
X112199567Y-127614100D02*
X112128139Y-127471242D01*
X112128139Y-127471242D02*
X112128139Y-126899814D01*
X112128139Y-126899814D02*
X112199567Y-126756957D01*
X112199567Y-126756957D02*
X112342425Y-126685528D01*
X112342425Y-126685528D02*
X112628139Y-126685528D01*
X112628139Y-126685528D02*
X112770996Y-126756957D01*
X112770996Y-126756957D02*
X112842425Y-126899814D01*
X112842425Y-126899814D02*
X112842425Y-127042671D01*
X112842425Y-127042671D02*
X112128139Y-127185528D01*
X114128139Y-127685528D02*
X114128139Y-126899814D01*
X114128139Y-126899814D02*
X114056710Y-126756957D01*
X114056710Y-126756957D02*
X113913853Y-126685528D01*
X113913853Y-126685528D02*
X113628139Y-126685528D01*
X113628139Y-126685528D02*
X113485281Y-126756957D01*
X114128139Y-127614100D02*
X113985281Y-127685528D01*
X113985281Y-127685528D02*
X113628139Y-127685528D01*
X113628139Y-127685528D02*
X113485281Y-127614100D01*
X113485281Y-127614100D02*
X113413853Y-127471242D01*
X113413853Y-127471242D02*
X113413853Y-127328385D01*
X113413853Y-127328385D02*
X113485281Y-127185528D01*
X113485281Y-127185528D02*
X113628139Y-127114100D01*
X113628139Y-127114100D02*
X113985281Y-127114100D01*
X113985281Y-127114100D02*
X114128139Y-127042671D01*
X114842424Y-127685528D02*
X114842424Y-126685528D01*
X114842424Y-126828385D02*
X114913853Y-126756957D01*
X114913853Y-126756957D02*
X115056710Y-126685528D01*
X115056710Y-126685528D02*
X115270996Y-126685528D01*
X115270996Y-126685528D02*
X115413853Y-126756957D01*
X115413853Y-126756957D02*
X115485282Y-126899814D01*
X115485282Y-126899814D02*
X115485282Y-127685528D01*
X115485282Y-126899814D02*
X115556710Y-126756957D01*
X115556710Y-126756957D02*
X115699567Y-126685528D01*
X115699567Y-126685528D02*
X115913853Y-126685528D01*
X115913853Y-126685528D02*
X116056710Y-126756957D01*
X116056710Y-126756957D02*
X116128139Y-126899814D01*
X116128139Y-126899814D02*
X116128139Y-127685528D01*
X117985281Y-127685528D02*
X117985281Y-126185528D01*
X117985281Y-126185528D02*
X118556710Y-126185528D01*
X118556710Y-126185528D02*
X118699567Y-126256957D01*
X118699567Y-126256957D02*
X118770996Y-126328385D01*
X118770996Y-126328385D02*
X118842424Y-126471242D01*
X118842424Y-126471242D02*
X118842424Y-126685528D01*
X118842424Y-126685528D02*
X118770996Y-126828385D01*
X118770996Y-126828385D02*
X118699567Y-126899814D01*
X118699567Y-126899814D02*
X118556710Y-126971242D01*
X118556710Y-126971242D02*
X117985281Y-126971242D01*
X119485281Y-127685528D02*
X119485281Y-126185528D01*
X119485281Y-126899814D02*
X120342424Y-126899814D01*
X120342424Y-127685528D02*
X120342424Y-126185528D01*
X121056710Y-127685528D02*
X121056710Y-126185528D01*
X121056710Y-126185528D02*
X121413853Y-126185528D01*
X121413853Y-126185528D02*
X121628139Y-126256957D01*
X121628139Y-126256957D02*
X121770996Y-126399814D01*
X121770996Y-126399814D02*
X121842425Y-126542671D01*
X121842425Y-126542671D02*
X121913853Y-126828385D01*
X121913853Y-126828385D02*
X121913853Y-127042671D01*
X121913853Y-127042671D02*
X121842425Y-127328385D01*
X121842425Y-127328385D02*
X121770996Y-127471242D01*
X121770996Y-127471242D02*
X121628139Y-127614100D01*
X121628139Y-127614100D02*
X121413853Y-127685528D01*
X121413853Y-127685528D02*
X121056710Y-127685528D01*
X123128139Y-127614100D02*
X122985282Y-127685528D01*
X122985282Y-127685528D02*
X122699568Y-127685528D01*
X122699568Y-127685528D02*
X122556710Y-127614100D01*
X122556710Y-127614100D02*
X122485282Y-127471242D01*
X122485282Y-127471242D02*
X122485282Y-126899814D01*
X122485282Y-126899814D02*
X122556710Y-126756957D01*
X122556710Y-126756957D02*
X122699568Y-126685528D01*
X122699568Y-126685528D02*
X122985282Y-126685528D01*
X122985282Y-126685528D02*
X123128139Y-126756957D01*
X123128139Y-126756957D02*
X123199568Y-126899814D01*
X123199568Y-126899814D02*
X123199568Y-127042671D01*
X123199568Y-127042671D02*
X122485282Y-127185528D01*
X123770996Y-127614100D02*
X123913853Y-127685528D01*
X123913853Y-127685528D02*
X124199567Y-127685528D01*
X124199567Y-127685528D02*
X124342424Y-127614100D01*
X124342424Y-127614100D02*
X124413853Y-127471242D01*
X124413853Y-127471242D02*
X124413853Y-127399814D01*
X124413853Y-127399814D02*
X124342424Y-127256957D01*
X124342424Y-127256957D02*
X124199567Y-127185528D01*
X124199567Y-127185528D02*
X123985282Y-127185528D01*
X123985282Y-127185528D02*
X123842424Y-127114100D01*
X123842424Y-127114100D02*
X123770996Y-126971242D01*
X123770996Y-126971242D02*
X123770996Y-126899814D01*
X123770996Y-126899814D02*
X123842424Y-126756957D01*
X123842424Y-126756957D02*
X123985282Y-126685528D01*
X123985282Y-126685528D02*
X124199567Y-126685528D01*
X124199567Y-126685528D02*
X124342424Y-126756957D01*
X125056710Y-127685528D02*
X125056710Y-126685528D01*
X125056710Y-126185528D02*
X124985282Y-126256957D01*
X124985282Y-126256957D02*
X125056710Y-126328385D01*
X125056710Y-126328385D02*
X125128139Y-126256957D01*
X125128139Y-126256957D02*
X125056710Y-126185528D01*
X125056710Y-126185528D02*
X125056710Y-126328385D01*
X126413854Y-126685528D02*
X126413854Y-127899814D01*
X126413854Y-127899814D02*
X126342425Y-128042671D01*
X126342425Y-128042671D02*
X126270996Y-128114100D01*
X126270996Y-128114100D02*
X126128139Y-128185528D01*
X126128139Y-128185528D02*
X125913854Y-128185528D01*
X125913854Y-128185528D02*
X125770996Y-128114100D01*
X126413854Y-127614100D02*
X126270996Y-127685528D01*
X126270996Y-127685528D02*
X125985282Y-127685528D01*
X125985282Y-127685528D02*
X125842425Y-127614100D01*
X125842425Y-127614100D02*
X125770996Y-127542671D01*
X125770996Y-127542671D02*
X125699568Y-127399814D01*
X125699568Y-127399814D02*
X125699568Y-126971242D01*
X125699568Y-126971242D02*
X125770996Y-126828385D01*
X125770996Y-126828385D02*
X125842425Y-126756957D01*
X125842425Y-126756957D02*
X125985282Y-126685528D01*
X125985282Y-126685528D02*
X126270996Y-126685528D01*
X126270996Y-126685528D02*
X126413854Y-126756957D01*
X127128139Y-126685528D02*
X127128139Y-127685528D01*
X127128139Y-126828385D02*
X127199568Y-126756957D01*
X127199568Y-126756957D02*
X127342425Y-126685528D01*
X127342425Y-126685528D02*
X127556711Y-126685528D01*
X127556711Y-126685528D02*
X127699568Y-126756957D01*
X127699568Y-126756957D02*
X127770997Y-126899814D01*
X127770997Y-126899814D02*
X127770997Y-127685528D01*
D10*
D11*
X129502200Y-138507200D02*
X129502200Y-141507200D01*
D10*
D11*
X193502200Y-138507200D02*
X193502200Y-145007200D01*
G36*
X131430000Y-43101639D02*
G01*
X131505471Y-43101639D01*
X131505471Y-43177843D01*
X131430000Y-43177843D01*
X131430000Y-43101639D01*
G37*
G36*
X131505471Y-43101639D02*
G01*
X131580942Y-43101639D01*
X131580942Y-43177843D01*
X131505471Y-43177843D01*
X131505471Y-43101639D01*
G37*
G36*
X131580697Y-43101639D02*
G01*
X131656168Y-43101639D01*
X131656168Y-43177843D01*
X131580697Y-43177843D01*
X131580697Y-43101639D01*
G37*
G36*
X131656168Y-43101639D02*
G01*
X131731639Y-43101639D01*
X131731639Y-43177843D01*
X131656168Y-43177843D01*
X131656168Y-43101639D01*
G37*
G36*
X131731395Y-43101639D02*
G01*
X131806866Y-43101639D01*
X131806866Y-43177843D01*
X131731395Y-43177843D01*
X131731395Y-43101639D01*
G37*
G36*
X131806866Y-43101639D02*
G01*
X131882337Y-43101639D01*
X131882337Y-43177843D01*
X131806866Y-43177843D01*
X131806866Y-43101639D01*
G37*
G36*
X131806866Y-43164166D02*
G01*
X131882337Y-43164166D01*
X131882337Y-43240369D01*
X131806866Y-43240369D01*
X131806866Y-43164166D01*
G37*
G36*
X131731395Y-43164166D02*
G01*
X131806866Y-43164166D01*
X131806866Y-43240369D01*
X131731395Y-43240369D01*
X131731395Y-43164166D01*
G37*
G36*
X131656168Y-43164166D02*
G01*
X131731639Y-43164166D01*
X131731639Y-43240369D01*
X131656168Y-43240369D01*
X131656168Y-43164166D01*
G37*
G36*
X131580697Y-43164166D02*
G01*
X131656168Y-43164166D01*
X131656168Y-43240369D01*
X131580697Y-43240369D01*
X131580697Y-43164166D01*
G37*
G36*
X131505471Y-43164166D02*
G01*
X131580942Y-43164166D01*
X131580942Y-43240369D01*
X131505471Y-43240369D01*
X131505471Y-43164166D01*
G37*
G36*
X131430000Y-43164166D02*
G01*
X131505471Y-43164166D01*
X131505471Y-43240369D01*
X131430000Y-43240369D01*
X131430000Y-43164166D01*
G37*
G36*
X131882093Y-43164166D02*
G01*
X131957564Y-43164166D01*
X131957564Y-43240369D01*
X131882093Y-43240369D01*
X131882093Y-43164166D01*
G37*
G36*
X131882093Y-43242323D02*
G01*
X131957564Y-43242323D01*
X131957564Y-43318527D01*
X131882093Y-43318527D01*
X131882093Y-43242323D01*
G37*
G36*
X131882093Y-43320481D02*
G01*
X131957564Y-43320481D01*
X131957564Y-43396685D01*
X131882093Y-43396685D01*
X131882093Y-43320481D01*
G37*
G36*
X131806866Y-43320481D02*
G01*
X131882337Y-43320481D01*
X131882337Y-43396685D01*
X131806866Y-43396685D01*
X131806866Y-43320481D01*
G37*
G36*
X131806866Y-43242323D02*
G01*
X131882337Y-43242323D01*
X131882337Y-43318527D01*
X131806866Y-43318527D01*
X131806866Y-43242323D01*
G37*
G36*
X131806866Y-43398639D02*
G01*
X131882337Y-43398639D01*
X131882337Y-43474842D01*
X131806866Y-43474842D01*
X131806866Y-43398639D01*
G37*
G36*
X131731395Y-43398639D02*
G01*
X131806866Y-43398639D01*
X131806866Y-43474842D01*
X131731395Y-43474842D01*
X131731395Y-43398639D01*
G37*
G36*
X131656168Y-43398639D02*
G01*
X131731639Y-43398639D01*
X131731639Y-43474842D01*
X131656168Y-43474842D01*
X131656168Y-43398639D01*
G37*
G36*
X131580697Y-43398639D02*
G01*
X131656168Y-43398639D01*
X131656168Y-43474842D01*
X131580697Y-43474842D01*
X131580697Y-43398639D01*
G37*
G36*
X131505471Y-43398639D02*
G01*
X131580942Y-43398639D01*
X131580942Y-43474842D01*
X131505471Y-43474842D01*
X131505471Y-43398639D01*
G37*
G36*
X131505471Y-43320481D02*
G01*
X131580942Y-43320481D01*
X131580942Y-43396685D01*
X131505471Y-43396685D01*
X131505471Y-43320481D01*
G37*
G36*
X131505471Y-43242323D02*
G01*
X131580942Y-43242323D01*
X131580942Y-43318527D01*
X131505471Y-43318527D01*
X131505471Y-43242323D01*
G37*
G36*
X131430000Y-43242323D02*
G01*
X131505471Y-43242323D01*
X131505471Y-43318527D01*
X131430000Y-43318527D01*
X131430000Y-43242323D01*
G37*
G36*
X131430000Y-43320481D02*
G01*
X131505471Y-43320481D01*
X131505471Y-43396685D01*
X131430000Y-43396685D01*
X131430000Y-43320481D01*
G37*
G36*
X131430000Y-43398639D02*
G01*
X131505471Y-43398639D01*
X131505471Y-43474842D01*
X131430000Y-43474842D01*
X131430000Y-43398639D01*
G37*
G36*
X131430000Y-43476796D02*
G01*
X131505471Y-43476796D01*
X131505471Y-43553000D01*
X131430000Y-43553000D01*
X131430000Y-43476796D01*
G37*
G36*
X131505471Y-43476796D02*
G01*
X131580942Y-43476796D01*
X131580942Y-43553000D01*
X131505471Y-43553000D01*
X131505471Y-43476796D01*
G37*
G36*
X131580697Y-43476796D02*
G01*
X131656168Y-43476796D01*
X131656168Y-43553000D01*
X131580697Y-43553000D01*
X131580697Y-43476796D01*
G37*
G36*
X131656168Y-43476796D02*
G01*
X131731639Y-43476796D01*
X131731639Y-43553000D01*
X131656168Y-43553000D01*
X131656168Y-43476796D01*
G37*
G36*
X131731395Y-43476796D02*
G01*
X131806866Y-43476796D01*
X131806866Y-43553000D01*
X131731395Y-43553000D01*
X131731395Y-43476796D01*
G37*
G36*
X131806866Y-43476796D02*
G01*
X131882337Y-43476796D01*
X131882337Y-43553000D01*
X131806866Y-43553000D01*
X131806866Y-43476796D01*
G37*
G36*
X131882093Y-43476796D02*
G01*
X131957564Y-43476796D01*
X131957564Y-43553000D01*
X131882093Y-43553000D01*
X131882093Y-43476796D01*
G37*
G36*
X131882093Y-43554954D02*
G01*
X131957564Y-43554954D01*
X131957564Y-43631158D01*
X131882093Y-43631158D01*
X131882093Y-43554954D01*
G37*
G36*
X131806866Y-43554954D02*
G01*
X131882337Y-43554954D01*
X131882337Y-43631158D01*
X131806866Y-43631158D01*
X131806866Y-43554954D01*
G37*
G36*
X131806866Y-43695638D02*
G01*
X131882337Y-43695638D01*
X131882337Y-43771842D01*
X131806866Y-43771842D01*
X131806866Y-43695638D01*
G37*
G36*
X131882093Y-43695638D02*
G01*
X131957564Y-43695638D01*
X131957564Y-43771842D01*
X131882093Y-43771842D01*
X131882093Y-43695638D01*
G37*
G36*
X131882093Y-43617480D02*
G01*
X131957564Y-43617480D01*
X131957564Y-43693684D01*
X131882093Y-43693684D01*
X131882093Y-43617480D01*
G37*
G36*
X131806866Y-43617480D02*
G01*
X131882337Y-43617480D01*
X131882337Y-43693684D01*
X131806866Y-43693684D01*
X131806866Y-43617480D01*
G37*
G36*
X131806866Y-43773796D02*
G01*
X131882337Y-43773796D01*
X131882337Y-43850000D01*
X131806866Y-43850000D01*
X131806866Y-43773796D01*
G37*
G36*
X131731395Y-43773796D02*
G01*
X131806866Y-43773796D01*
X131806866Y-43850000D01*
X131731395Y-43850000D01*
X131731395Y-43773796D01*
G37*
G36*
X131656168Y-43773796D02*
G01*
X131731639Y-43773796D01*
X131731639Y-43850000D01*
X131656168Y-43850000D01*
X131656168Y-43773796D01*
G37*
G36*
X131580697Y-43773796D02*
G01*
X131656168Y-43773796D01*
X131656168Y-43850000D01*
X131580697Y-43850000D01*
X131580697Y-43773796D01*
G37*
G36*
X131505471Y-43773796D02*
G01*
X131580942Y-43773796D01*
X131580942Y-43850000D01*
X131505471Y-43850000D01*
X131505471Y-43773796D01*
G37*
G36*
X131430000Y-43773796D02*
G01*
X131505471Y-43773796D01*
X131505471Y-43850000D01*
X131430000Y-43850000D01*
X131430000Y-43773796D01*
G37*
G36*
X131430000Y-43695638D02*
G01*
X131505471Y-43695638D01*
X131505471Y-43771842D01*
X131430000Y-43771842D01*
X131430000Y-43695638D01*
G37*
G36*
X131430000Y-43617480D02*
G01*
X131505471Y-43617480D01*
X131505471Y-43693684D01*
X131430000Y-43693684D01*
X131430000Y-43617480D01*
G37*
G36*
X131430000Y-43554954D02*
G01*
X131505471Y-43554954D01*
X131505471Y-43631158D01*
X131430000Y-43631158D01*
X131430000Y-43554954D01*
G37*
G36*
X131505471Y-43554954D02*
G01*
X131580942Y-43554954D01*
X131580942Y-43631158D01*
X131505471Y-43631158D01*
X131505471Y-43554954D01*
G37*
G36*
X131505471Y-43617480D02*
G01*
X131580942Y-43617480D01*
X131580942Y-43693684D01*
X131505471Y-43693684D01*
X131505471Y-43617480D01*
G37*
G36*
X131505471Y-43695638D02*
G01*
X131580942Y-43695638D01*
X131580942Y-43771842D01*
X131505471Y-43771842D01*
X131505471Y-43695638D01*
G37*
G36*
X131580697Y-43695638D02*
G01*
X131656168Y-43695638D01*
X131656168Y-43771842D01*
X131580697Y-43771842D01*
X131580697Y-43695638D01*
G37*
G36*
X131656168Y-43695638D02*
G01*
X131731639Y-43695638D01*
X131731639Y-43771842D01*
X131656168Y-43771842D01*
X131656168Y-43695638D01*
G37*
G36*
X131731395Y-43695638D02*
G01*
X131806866Y-43695638D01*
X131806866Y-43771842D01*
X131731395Y-43771842D01*
X131731395Y-43695638D01*
G37*
G36*
X132180558Y-43242323D02*
G01*
X132256029Y-43242323D01*
X132256029Y-43318527D01*
X132180558Y-43318527D01*
X132180558Y-43242323D01*
G37*
G36*
X132105331Y-43242323D02*
G01*
X132180802Y-43242323D01*
X132180802Y-43318527D01*
X132105331Y-43318527D01*
X132105331Y-43242323D01*
G37*
G36*
X132105331Y-43320481D02*
G01*
X132180802Y-43320481D01*
X132180802Y-43396685D01*
X132105331Y-43396685D01*
X132105331Y-43320481D01*
G37*
G36*
X132180558Y-43320481D02*
G01*
X132256029Y-43320481D01*
X132256029Y-43396685D01*
X132180558Y-43396685D01*
X132180558Y-43320481D01*
G37*
G36*
X132256029Y-43242323D02*
G01*
X132331500Y-43242323D01*
X132331500Y-43318527D01*
X132256029Y-43318527D01*
X132256029Y-43242323D01*
G37*
G36*
X132331256Y-43242323D02*
G01*
X132406727Y-43242323D01*
X132406727Y-43318527D01*
X132331256Y-43318527D01*
X132331256Y-43242323D01*
G37*
G36*
X132406727Y-43242323D02*
G01*
X132482198Y-43242323D01*
X132482198Y-43318527D01*
X132406727Y-43318527D01*
X132406727Y-43242323D01*
G37*
G36*
X132406727Y-43320481D02*
G01*
X132482198Y-43320481D01*
X132482198Y-43396685D01*
X132406727Y-43396685D01*
X132406727Y-43320481D01*
G37*
G36*
X132331256Y-43320481D02*
G01*
X132406727Y-43320481D01*
X132406727Y-43396685D01*
X132331256Y-43396685D01*
X132331256Y-43320481D01*
G37*
G36*
X132406727Y-43476796D02*
G01*
X132482198Y-43476796D01*
X132482198Y-43553000D01*
X132406727Y-43553000D01*
X132406727Y-43476796D01*
G37*
G36*
X132481953Y-43320481D02*
G01*
X132557424Y-43320481D01*
X132557424Y-43396685D01*
X132481953Y-43396685D01*
X132481953Y-43320481D01*
G37*
G36*
X132481953Y-43398639D02*
G01*
X132557424Y-43398639D01*
X132557424Y-43474842D01*
X132481953Y-43474842D01*
X132481953Y-43398639D01*
G37*
G36*
X132481953Y-43476796D02*
G01*
X132557424Y-43476796D01*
X132557424Y-43553000D01*
X132481953Y-43553000D01*
X132481953Y-43476796D01*
G37*
G36*
X132481953Y-43554954D02*
G01*
X132557424Y-43554954D01*
X132557424Y-43631158D01*
X132481953Y-43631158D01*
X132481953Y-43554954D01*
G37*
G36*
X132481953Y-43617480D02*
G01*
X132557424Y-43617480D01*
X132557424Y-43693684D01*
X132481953Y-43693684D01*
X132481953Y-43617480D01*
G37*
G36*
X132481953Y-43695638D02*
G01*
X132557424Y-43695638D01*
X132557424Y-43771842D01*
X132481953Y-43771842D01*
X132481953Y-43695638D01*
G37*
G36*
X132406727Y-43695638D02*
G01*
X132482198Y-43695638D01*
X132482198Y-43771842D01*
X132406727Y-43771842D01*
X132406727Y-43695638D01*
G37*
G36*
X132406727Y-43617480D02*
G01*
X132482198Y-43617480D01*
X132482198Y-43693684D01*
X132406727Y-43693684D01*
X132406727Y-43617480D01*
G37*
G36*
X132406727Y-43554954D02*
G01*
X132482198Y-43554954D01*
X132482198Y-43631158D01*
X132406727Y-43631158D01*
X132406727Y-43554954D01*
G37*
G36*
X132406727Y-43398639D02*
G01*
X132482198Y-43398639D01*
X132482198Y-43474842D01*
X132406727Y-43474842D01*
X132406727Y-43398639D01*
G37*
G36*
X132331256Y-43695638D02*
G01*
X132406727Y-43695638D01*
X132406727Y-43771842D01*
X132331256Y-43771842D01*
X132331256Y-43695638D01*
G37*
G36*
X132406727Y-43773796D02*
G01*
X132482198Y-43773796D01*
X132482198Y-43850000D01*
X132406727Y-43850000D01*
X132406727Y-43773796D01*
G37*
G36*
X132331256Y-43773796D02*
G01*
X132406727Y-43773796D01*
X132406727Y-43850000D01*
X132331256Y-43850000D01*
X132331256Y-43773796D01*
G37*
G36*
X132256029Y-43773796D02*
G01*
X132331500Y-43773796D01*
X132331500Y-43850000D01*
X132256029Y-43850000D01*
X132256029Y-43773796D01*
G37*
G36*
X132180558Y-43773796D02*
G01*
X132256029Y-43773796D01*
X132256029Y-43850000D01*
X132180558Y-43850000D01*
X132180558Y-43773796D01*
G37*
G36*
X132105331Y-43773796D02*
G01*
X132180802Y-43773796D01*
X132180802Y-43850000D01*
X132105331Y-43850000D01*
X132105331Y-43773796D01*
G37*
G36*
X132105331Y-43695638D02*
G01*
X132180802Y-43695638D01*
X132180802Y-43771842D01*
X132105331Y-43771842D01*
X132105331Y-43695638D01*
G37*
G36*
X132180558Y-43695638D02*
G01*
X132256029Y-43695638D01*
X132256029Y-43771842D01*
X132180558Y-43771842D01*
X132180558Y-43695638D01*
G37*
G36*
X132105331Y-43617480D02*
G01*
X132180802Y-43617480D01*
X132180802Y-43693684D01*
X132105331Y-43693684D01*
X132105331Y-43617480D01*
G37*
G36*
X132029860Y-43695638D02*
G01*
X132105331Y-43695638D01*
X132105331Y-43771842D01*
X132029860Y-43771842D01*
X132029860Y-43695638D01*
G37*
G36*
X132029860Y-43617480D02*
G01*
X132105331Y-43617480D01*
X132105331Y-43693684D01*
X132029860Y-43693684D01*
X132029860Y-43617480D01*
G37*
G36*
X132029860Y-43554954D02*
G01*
X132105331Y-43554954D01*
X132105331Y-43631158D01*
X132029860Y-43631158D01*
X132029860Y-43554954D01*
G37*
G36*
X132029860Y-43476796D02*
G01*
X132105331Y-43476796D01*
X132105331Y-43553000D01*
X132029860Y-43553000D01*
X132029860Y-43476796D01*
G37*
G36*
X132029860Y-43398639D02*
G01*
X132105331Y-43398639D01*
X132105331Y-43474842D01*
X132029860Y-43474842D01*
X132029860Y-43398639D01*
G37*
G36*
X132029860Y-43320481D02*
G01*
X132105331Y-43320481D01*
X132105331Y-43396685D01*
X132029860Y-43396685D01*
X132029860Y-43320481D01*
G37*
G36*
X132105331Y-43398639D02*
G01*
X132180802Y-43398639D01*
X132180802Y-43474842D01*
X132105331Y-43474842D01*
X132105331Y-43398639D01*
G37*
G36*
X132105331Y-43476796D02*
G01*
X132180802Y-43476796D01*
X132180802Y-43553000D01*
X132105331Y-43553000D01*
X132105331Y-43476796D01*
G37*
G36*
X132105331Y-43554954D02*
G01*
X132180802Y-43554954D01*
X132180802Y-43631158D01*
X132105331Y-43631158D01*
X132105331Y-43554954D01*
G37*
G36*
X132256029Y-43695638D02*
G01*
X132331500Y-43695638D01*
X132331500Y-43771842D01*
X132256029Y-43771842D01*
X132256029Y-43695638D01*
G37*
G36*
X132256029Y-43320481D02*
G01*
X132331500Y-43320481D01*
X132331500Y-43396685D01*
X132256029Y-43396685D01*
X132256029Y-43320481D01*
G37*
G36*
X132780418Y-43242323D02*
G01*
X132855889Y-43242323D01*
X132855889Y-43318527D01*
X132780418Y-43318527D01*
X132780418Y-43242323D01*
G37*
G36*
X132705191Y-43242323D02*
G01*
X132780662Y-43242323D01*
X132780662Y-43318527D01*
X132705191Y-43318527D01*
X132705191Y-43242323D01*
G37*
G36*
X132705191Y-43320481D02*
G01*
X132780662Y-43320481D01*
X132780662Y-43396685D01*
X132705191Y-43396685D01*
X132705191Y-43320481D01*
G37*
G36*
X132780418Y-43320481D02*
G01*
X132855889Y-43320481D01*
X132855889Y-43396685D01*
X132780418Y-43396685D01*
X132780418Y-43320481D01*
G37*
G36*
X132855889Y-43242323D02*
G01*
X132931360Y-43242323D01*
X132931360Y-43318527D01*
X132855889Y-43318527D01*
X132855889Y-43242323D01*
G37*
G36*
X132931116Y-43242323D02*
G01*
X133006587Y-43242323D01*
X133006587Y-43318527D01*
X132931116Y-43318527D01*
X132931116Y-43242323D01*
G37*
G36*
X133006587Y-43242323D02*
G01*
X133082058Y-43242323D01*
X133082058Y-43318527D01*
X133006587Y-43318527D01*
X133006587Y-43242323D01*
G37*
G36*
X133006587Y-43320481D02*
G01*
X133082058Y-43320481D01*
X133082058Y-43396685D01*
X133006587Y-43396685D01*
X133006587Y-43320481D01*
G37*
G36*
X132931116Y-43320481D02*
G01*
X133006587Y-43320481D01*
X133006587Y-43396685D01*
X132931116Y-43396685D01*
X132931116Y-43320481D01*
G37*
G36*
X133006587Y-43476796D02*
G01*
X133082058Y-43476796D01*
X133082058Y-43553000D01*
X133006587Y-43553000D01*
X133006587Y-43476796D01*
G37*
G36*
X133081814Y-43320481D02*
G01*
X133157285Y-43320481D01*
X133157285Y-43396685D01*
X133081814Y-43396685D01*
X133081814Y-43320481D01*
G37*
G36*
X133081814Y-43398639D02*
G01*
X133157285Y-43398639D01*
X133157285Y-43474842D01*
X133081814Y-43474842D01*
X133081814Y-43398639D01*
G37*
G36*
X133081814Y-43476796D02*
G01*
X133157285Y-43476796D01*
X133157285Y-43553000D01*
X133081814Y-43553000D01*
X133081814Y-43476796D01*
G37*
G36*
X133081814Y-43554954D02*
G01*
X133157285Y-43554954D01*
X133157285Y-43631158D01*
X133081814Y-43631158D01*
X133081814Y-43554954D01*
G37*
G36*
X133081814Y-43617480D02*
G01*
X133157285Y-43617480D01*
X133157285Y-43693684D01*
X133081814Y-43693684D01*
X133081814Y-43617480D01*
G37*
G36*
X133081814Y-43695638D02*
G01*
X133157285Y-43695638D01*
X133157285Y-43771842D01*
X133081814Y-43771842D01*
X133081814Y-43695638D01*
G37*
G36*
X133006587Y-43695638D02*
G01*
X133082058Y-43695638D01*
X133082058Y-43771842D01*
X133006587Y-43771842D01*
X133006587Y-43695638D01*
G37*
G36*
X133006587Y-43617480D02*
G01*
X133082058Y-43617480D01*
X133082058Y-43693684D01*
X133006587Y-43693684D01*
X133006587Y-43617480D01*
G37*
G36*
X133006587Y-43554954D02*
G01*
X133082058Y-43554954D01*
X133082058Y-43631158D01*
X133006587Y-43631158D01*
X133006587Y-43554954D01*
G37*
G36*
X133006587Y-43398639D02*
G01*
X133082058Y-43398639D01*
X133082058Y-43474842D01*
X133006587Y-43474842D01*
X133006587Y-43398639D01*
G37*
G36*
X132931116Y-43695638D02*
G01*
X133006587Y-43695638D01*
X133006587Y-43771842D01*
X132931116Y-43771842D01*
X132931116Y-43695638D01*
G37*
G36*
X133006587Y-43773796D02*
G01*
X133082058Y-43773796D01*
X133082058Y-43850000D01*
X133006587Y-43850000D01*
X133006587Y-43773796D01*
G37*
G36*
X132931116Y-43773796D02*
G01*
X133006587Y-43773796D01*
X133006587Y-43850000D01*
X132931116Y-43850000D01*
X132931116Y-43773796D01*
G37*
G36*
X132855889Y-43773796D02*
G01*
X132931360Y-43773796D01*
X132931360Y-43850000D01*
X132855889Y-43850000D01*
X132855889Y-43773796D01*
G37*
G36*
X132780418Y-43773796D02*
G01*
X132855889Y-43773796D01*
X132855889Y-43850000D01*
X132780418Y-43850000D01*
X132780418Y-43773796D01*
G37*
G36*
X132705191Y-43773796D02*
G01*
X132780662Y-43773796D01*
X132780662Y-43850000D01*
X132705191Y-43850000D01*
X132705191Y-43773796D01*
G37*
G36*
X132705191Y-43695638D02*
G01*
X132780662Y-43695638D01*
X132780662Y-43771842D01*
X132705191Y-43771842D01*
X132705191Y-43695638D01*
G37*
G36*
X132780418Y-43695638D02*
G01*
X132855889Y-43695638D01*
X132855889Y-43771842D01*
X132780418Y-43771842D01*
X132780418Y-43695638D01*
G37*
G36*
X132705191Y-43617480D02*
G01*
X132780662Y-43617480D01*
X132780662Y-43693684D01*
X132705191Y-43693684D01*
X132705191Y-43617480D01*
G37*
G36*
X132629720Y-43695638D02*
G01*
X132705191Y-43695638D01*
X132705191Y-43771842D01*
X132629720Y-43771842D01*
X132629720Y-43695638D01*
G37*
G36*
X132629720Y-43617480D02*
G01*
X132705191Y-43617480D01*
X132705191Y-43693684D01*
X132629720Y-43693684D01*
X132629720Y-43617480D01*
G37*
G36*
X132629720Y-43554954D02*
G01*
X132705191Y-43554954D01*
X132705191Y-43631158D01*
X132629720Y-43631158D01*
X132629720Y-43554954D01*
G37*
G36*
X132629720Y-43476796D02*
G01*
X132705191Y-43476796D01*
X132705191Y-43553000D01*
X132629720Y-43553000D01*
X132629720Y-43476796D01*
G37*
G36*
X132629720Y-43398639D02*
G01*
X132705191Y-43398639D01*
X132705191Y-43474842D01*
X132629720Y-43474842D01*
X132629720Y-43398639D01*
G37*
G36*
X132629720Y-43320481D02*
G01*
X132705191Y-43320481D01*
X132705191Y-43396685D01*
X132629720Y-43396685D01*
X132629720Y-43320481D01*
G37*
G36*
X132705191Y-43398639D02*
G01*
X132780662Y-43398639D01*
X132780662Y-43474842D01*
X132705191Y-43474842D01*
X132705191Y-43398639D01*
G37*
G36*
X132705191Y-43476796D02*
G01*
X132780662Y-43476796D01*
X132780662Y-43553000D01*
X132705191Y-43553000D01*
X132705191Y-43476796D01*
G37*
G36*
X132705191Y-43554954D02*
G01*
X132780662Y-43554954D01*
X132780662Y-43631158D01*
X132705191Y-43631158D01*
X132705191Y-43554954D01*
G37*
G36*
X132855889Y-43695638D02*
G01*
X132931360Y-43695638D01*
X132931360Y-43771842D01*
X132855889Y-43771842D01*
X132855889Y-43695638D01*
G37*
G36*
X132855889Y-43320481D02*
G01*
X132931360Y-43320481D01*
X132931360Y-43396685D01*
X132855889Y-43396685D01*
X132855889Y-43320481D01*
G37*
G36*
X133530976Y-43695638D02*
G01*
X133606448Y-43695638D01*
X133606448Y-43771842D01*
X133530976Y-43771842D01*
X133530976Y-43695638D01*
G37*
G36*
X133530976Y-43773796D02*
G01*
X133606448Y-43773796D01*
X133606448Y-43850000D01*
X133530976Y-43850000D01*
X133530976Y-43773796D01*
G37*
G36*
X133455750Y-43773796D02*
G01*
X133531221Y-43773796D01*
X133531221Y-43850000D01*
X133455750Y-43850000D01*
X133455750Y-43773796D01*
G37*
G36*
X133455750Y-43695638D02*
G01*
X133531221Y-43695638D01*
X133531221Y-43771842D01*
X133455750Y-43771842D01*
X133455750Y-43695638D01*
G37*
G36*
X133380279Y-43773796D02*
G01*
X133455750Y-43773796D01*
X133455750Y-43850000D01*
X133380279Y-43850000D01*
X133380279Y-43773796D01*
G37*
G36*
X133380279Y-43695638D02*
G01*
X133455750Y-43695638D01*
X133455750Y-43771842D01*
X133380279Y-43771842D01*
X133380279Y-43695638D01*
G37*
G36*
X133305052Y-43695638D02*
G01*
X133380523Y-43695638D01*
X133380523Y-43771842D01*
X133305052Y-43771842D01*
X133305052Y-43695638D01*
G37*
G36*
X133305052Y-43617480D02*
G01*
X133380523Y-43617480D01*
X133380523Y-43693684D01*
X133305052Y-43693684D01*
X133305052Y-43617480D01*
G37*
G36*
X133305052Y-43554954D02*
G01*
X133380523Y-43554954D01*
X133380523Y-43631158D01*
X133305052Y-43631158D01*
X133305052Y-43554954D01*
G37*
G36*
X133305052Y-43476796D02*
G01*
X133380523Y-43476796D01*
X133380523Y-43553000D01*
X133305052Y-43553000D01*
X133305052Y-43476796D01*
G37*
G36*
X133305052Y-43398639D02*
G01*
X133380523Y-43398639D01*
X133380523Y-43474842D01*
X133305052Y-43474842D01*
X133305052Y-43398639D01*
G37*
G36*
X133305052Y-43320481D02*
G01*
X133380523Y-43320481D01*
X133380523Y-43396685D01*
X133305052Y-43396685D01*
X133305052Y-43320481D01*
G37*
G36*
X133380279Y-43554954D02*
G01*
X133455750Y-43554954D01*
X133455750Y-43631158D01*
X133380279Y-43631158D01*
X133380279Y-43554954D01*
G37*
G36*
X133380279Y-43617480D02*
G01*
X133455750Y-43617480D01*
X133455750Y-43693684D01*
X133380279Y-43693684D01*
X133380279Y-43617480D01*
G37*
G36*
X133380279Y-43476796D02*
G01*
X133455750Y-43476796D01*
X133455750Y-43553000D01*
X133380279Y-43553000D01*
X133380279Y-43476796D01*
G37*
G36*
X133380279Y-43398639D02*
G01*
X133455750Y-43398639D01*
X133455750Y-43474842D01*
X133380279Y-43474842D01*
X133380279Y-43398639D01*
G37*
G36*
X133380279Y-43101639D02*
G01*
X133455750Y-43101639D01*
X133455750Y-43177843D01*
X133380279Y-43177843D01*
X133380279Y-43101639D01*
G37*
G36*
X133380279Y-43164166D02*
G01*
X133455750Y-43164166D01*
X133455750Y-43240369D01*
X133380279Y-43240369D01*
X133380279Y-43164166D01*
G37*
G36*
X133380279Y-43242323D02*
G01*
X133455750Y-43242323D01*
X133455750Y-43318527D01*
X133380279Y-43318527D01*
X133380279Y-43242323D01*
G37*
G36*
X133380279Y-43320481D02*
G01*
X133455750Y-43320481D01*
X133455750Y-43396685D01*
X133380279Y-43396685D01*
X133380279Y-43320481D01*
G37*
G36*
X133305052Y-43242323D02*
G01*
X133380523Y-43242323D01*
X133380523Y-43318527D01*
X133305052Y-43318527D01*
X133305052Y-43242323D01*
G37*
G36*
X133229581Y-43320481D02*
G01*
X133305052Y-43320481D01*
X133305052Y-43396685D01*
X133229581Y-43396685D01*
X133229581Y-43320481D01*
G37*
G36*
X133455750Y-43320481D02*
G01*
X133531221Y-43320481D01*
X133531221Y-43396685D01*
X133455750Y-43396685D01*
X133455750Y-43320481D01*
G37*
G36*
X133530976Y-43320481D02*
G01*
X133606448Y-43320481D01*
X133606448Y-43396685D01*
X133530976Y-43396685D01*
X133530976Y-43320481D01*
G37*
G36*
X133305052Y-43164166D02*
G01*
X133380523Y-43164166D01*
X133380523Y-43240369D01*
X133305052Y-43240369D01*
X133305052Y-43164166D01*
G37*
G36*
X133229581Y-43398639D02*
G01*
X133305052Y-43398639D01*
X133305052Y-43474842D01*
X133229581Y-43474842D01*
X133229581Y-43398639D01*
G37*
G36*
X133455750Y-43398639D02*
G01*
X133531221Y-43398639D01*
X133531221Y-43474842D01*
X133455750Y-43474842D01*
X133455750Y-43398639D01*
G37*
G36*
X133530976Y-43398639D02*
G01*
X133606448Y-43398639D01*
X133606448Y-43474842D01*
X133530976Y-43474842D01*
X133530976Y-43398639D01*
G37*
G36*
X133678988Y-43101639D02*
G01*
X133754459Y-43101639D01*
X133754459Y-43177843D01*
X133678988Y-43177843D01*
X133678988Y-43101639D01*
G37*
G36*
X133754459Y-43101639D02*
G01*
X133829930Y-43101639D01*
X133829930Y-43177843D01*
X133754459Y-43177843D01*
X133754459Y-43101639D01*
G37*
G36*
X133754459Y-43164166D02*
G01*
X133829930Y-43164166D01*
X133829930Y-43240369D01*
X133754459Y-43240369D01*
X133754459Y-43164166D01*
G37*
G36*
X133754459Y-43242323D02*
G01*
X133829930Y-43242323D01*
X133829930Y-43318527D01*
X133754459Y-43318527D01*
X133754459Y-43242323D01*
G37*
G36*
X133754459Y-43320481D02*
G01*
X133829930Y-43320481D01*
X133829930Y-43396685D01*
X133754459Y-43396685D01*
X133754459Y-43320481D01*
G37*
G36*
X133678988Y-43320481D02*
G01*
X133754459Y-43320481D01*
X133754459Y-43396685D01*
X133678988Y-43396685D01*
X133678988Y-43320481D01*
G37*
G36*
X133678988Y-43242323D02*
G01*
X133754459Y-43242323D01*
X133754459Y-43318527D01*
X133678988Y-43318527D01*
X133678988Y-43242323D01*
G37*
G36*
X133678988Y-43164166D02*
G01*
X133754459Y-43164166D01*
X133754459Y-43240369D01*
X133678988Y-43240369D01*
X133678988Y-43164166D01*
G37*
G36*
X133678988Y-43398639D02*
G01*
X133754459Y-43398639D01*
X133754459Y-43474842D01*
X133678988Y-43474842D01*
X133678988Y-43398639D01*
G37*
G36*
X133678988Y-43476796D02*
G01*
X133754459Y-43476796D01*
X133754459Y-43553000D01*
X133678988Y-43553000D01*
X133678988Y-43476796D01*
G37*
G36*
X133678988Y-43554954D02*
G01*
X133754459Y-43554954D01*
X133754459Y-43631158D01*
X133678988Y-43631158D01*
X133678988Y-43554954D01*
G37*
G36*
X133754459Y-43476796D02*
G01*
X133829930Y-43476796D01*
X133829930Y-43553000D01*
X133754459Y-43553000D01*
X133754459Y-43476796D01*
G37*
G36*
X133754459Y-43398639D02*
G01*
X133829930Y-43398639D01*
X133829930Y-43474842D01*
X133754459Y-43474842D01*
X133754459Y-43398639D01*
G37*
G36*
X133754459Y-43554954D02*
G01*
X133829930Y-43554954D01*
X133829930Y-43631158D01*
X133754459Y-43631158D01*
X133754459Y-43554954D01*
G37*
G36*
X133754459Y-43617480D02*
G01*
X133829930Y-43617480D01*
X133829930Y-43693684D01*
X133754459Y-43693684D01*
X133754459Y-43617480D01*
G37*
G36*
X133678988Y-43695638D02*
G01*
X133754459Y-43695638D01*
X133754459Y-43771842D01*
X133678988Y-43771842D01*
X133678988Y-43695638D01*
G37*
G36*
X133678988Y-43617480D02*
G01*
X133754459Y-43617480D01*
X133754459Y-43693684D01*
X133678988Y-43693684D01*
X133678988Y-43617480D01*
G37*
G36*
X133678988Y-43773796D02*
G01*
X133754459Y-43773796D01*
X133754459Y-43850000D01*
X133678988Y-43850000D01*
X133678988Y-43773796D01*
G37*
G36*
X133754459Y-43773796D02*
G01*
X133829930Y-43773796D01*
X133829930Y-43850000D01*
X133754459Y-43850000D01*
X133754459Y-43773796D01*
G37*
G36*
X133754459Y-43695638D02*
G01*
X133829930Y-43695638D01*
X133829930Y-43771842D01*
X133754459Y-43771842D01*
X133754459Y-43695638D01*
G37*
G36*
X133829685Y-43773796D02*
G01*
X133905157Y-43773796D01*
X133905157Y-43850000D01*
X133829685Y-43850000D01*
X133829685Y-43773796D01*
G37*
G36*
X133905157Y-43773796D02*
G01*
X133980628Y-43773796D01*
X133980628Y-43850000D01*
X133905157Y-43850000D01*
X133905157Y-43773796D01*
G37*
G36*
X133980383Y-43773796D02*
G01*
X134055854Y-43773796D01*
X134055854Y-43850000D01*
X133980383Y-43850000D01*
X133980383Y-43773796D01*
G37*
G36*
X133980383Y-43695638D02*
G01*
X134055854Y-43695638D01*
X134055854Y-43771842D01*
X133980383Y-43771842D01*
X133980383Y-43695638D01*
G37*
G36*
X133905157Y-43695638D02*
G01*
X133980628Y-43695638D01*
X133980628Y-43771842D01*
X133905157Y-43771842D01*
X133905157Y-43695638D01*
G37*
G36*
X133829685Y-43695638D02*
G01*
X133905157Y-43695638D01*
X133905157Y-43771842D01*
X133829685Y-43771842D01*
X133829685Y-43695638D01*
G37*
G36*
X134279092Y-43242323D02*
G01*
X134354563Y-43242323D01*
X134354563Y-43318527D01*
X134279092Y-43318527D01*
X134279092Y-43242323D01*
G37*
G36*
X134203866Y-43242323D02*
G01*
X134279337Y-43242323D01*
X134279337Y-43318527D01*
X134203866Y-43318527D01*
X134203866Y-43242323D01*
G37*
G36*
X134203866Y-43320481D02*
G01*
X134279337Y-43320481D01*
X134279337Y-43396685D01*
X134203866Y-43396685D01*
X134203866Y-43320481D01*
G37*
G36*
X134279092Y-43320481D02*
G01*
X134354563Y-43320481D01*
X134354563Y-43396685D01*
X134279092Y-43396685D01*
X134279092Y-43320481D01*
G37*
G36*
X134354563Y-43242323D02*
G01*
X134430034Y-43242323D01*
X134430034Y-43318527D01*
X134354563Y-43318527D01*
X134354563Y-43242323D01*
G37*
G36*
X134429790Y-43242323D02*
G01*
X134505261Y-43242323D01*
X134505261Y-43318527D01*
X134429790Y-43318527D01*
X134429790Y-43242323D01*
G37*
G36*
X134505261Y-43242323D02*
G01*
X134580732Y-43242323D01*
X134580732Y-43318527D01*
X134505261Y-43318527D01*
X134505261Y-43242323D01*
G37*
G36*
X134505261Y-43320481D02*
G01*
X134580732Y-43320481D01*
X134580732Y-43396685D01*
X134505261Y-43396685D01*
X134505261Y-43320481D01*
G37*
G36*
X134429790Y-43320481D02*
G01*
X134505261Y-43320481D01*
X134505261Y-43396685D01*
X134429790Y-43396685D01*
X134429790Y-43320481D01*
G37*
G36*
X134505261Y-43476796D02*
G01*
X134580732Y-43476796D01*
X134580732Y-43553000D01*
X134505261Y-43553000D01*
X134505261Y-43476796D01*
G37*
G36*
X134580488Y-43320481D02*
G01*
X134655959Y-43320481D01*
X134655959Y-43396685D01*
X134580488Y-43396685D01*
X134580488Y-43320481D01*
G37*
G36*
X134580488Y-43398639D02*
G01*
X134655959Y-43398639D01*
X134655959Y-43474842D01*
X134580488Y-43474842D01*
X134580488Y-43398639D01*
G37*
G36*
X134580488Y-43476796D02*
G01*
X134655959Y-43476796D01*
X134655959Y-43553000D01*
X134580488Y-43553000D01*
X134580488Y-43476796D01*
G37*
G36*
X134580488Y-43554954D02*
G01*
X134655959Y-43554954D01*
X134655959Y-43631158D01*
X134580488Y-43631158D01*
X134580488Y-43554954D01*
G37*
G36*
X134580488Y-43617480D02*
G01*
X134655959Y-43617480D01*
X134655959Y-43693684D01*
X134580488Y-43693684D01*
X134580488Y-43617480D01*
G37*
G36*
X134580488Y-43695638D02*
G01*
X134655959Y-43695638D01*
X134655959Y-43771842D01*
X134580488Y-43771842D01*
X134580488Y-43695638D01*
G37*
G36*
X134505261Y-43695638D02*
G01*
X134580732Y-43695638D01*
X134580732Y-43771842D01*
X134505261Y-43771842D01*
X134505261Y-43695638D01*
G37*
G36*
X134505261Y-43617480D02*
G01*
X134580732Y-43617480D01*
X134580732Y-43693684D01*
X134505261Y-43693684D01*
X134505261Y-43617480D01*
G37*
G36*
X134505261Y-43554954D02*
G01*
X134580732Y-43554954D01*
X134580732Y-43631158D01*
X134505261Y-43631158D01*
X134505261Y-43554954D01*
G37*
G36*
X134505261Y-43398639D02*
G01*
X134580732Y-43398639D01*
X134580732Y-43474842D01*
X134505261Y-43474842D01*
X134505261Y-43398639D01*
G37*
G36*
X134429790Y-43695638D02*
G01*
X134505261Y-43695638D01*
X134505261Y-43771842D01*
X134429790Y-43771842D01*
X134429790Y-43695638D01*
G37*
G36*
X134505261Y-43773796D02*
G01*
X134580732Y-43773796D01*
X134580732Y-43850000D01*
X134505261Y-43850000D01*
X134505261Y-43773796D01*
G37*
G36*
X134429790Y-43773796D02*
G01*
X134505261Y-43773796D01*
X134505261Y-43850000D01*
X134429790Y-43850000D01*
X134429790Y-43773796D01*
G37*
G36*
X134354563Y-43773796D02*
G01*
X134430034Y-43773796D01*
X134430034Y-43850000D01*
X134354563Y-43850000D01*
X134354563Y-43773796D01*
G37*
G36*
X134279092Y-43773796D02*
G01*
X134354563Y-43773796D01*
X134354563Y-43850000D01*
X134279092Y-43850000D01*
X134279092Y-43773796D01*
G37*
G36*
X134203866Y-43773796D02*
G01*
X134279337Y-43773796D01*
X134279337Y-43850000D01*
X134203866Y-43850000D01*
X134203866Y-43773796D01*
G37*
G36*
X134203866Y-43695638D02*
G01*
X134279337Y-43695638D01*
X134279337Y-43771842D01*
X134203866Y-43771842D01*
X134203866Y-43695638D01*
G37*
G36*
X134279092Y-43695638D02*
G01*
X134354563Y-43695638D01*
X134354563Y-43771842D01*
X134279092Y-43771842D01*
X134279092Y-43695638D01*
G37*
G36*
X134203866Y-43617480D02*
G01*
X134279337Y-43617480D01*
X134279337Y-43693684D01*
X134203866Y-43693684D01*
X134203866Y-43617480D01*
G37*
G36*
X134128394Y-43695638D02*
G01*
X134203866Y-43695638D01*
X134203866Y-43771842D01*
X134128394Y-43771842D01*
X134128394Y-43695638D01*
G37*
G36*
X134128394Y-43617480D02*
G01*
X134203866Y-43617480D01*
X134203866Y-43693684D01*
X134128394Y-43693684D01*
X134128394Y-43617480D01*
G37*
G36*
X134128394Y-43554954D02*
G01*
X134203866Y-43554954D01*
X134203866Y-43631158D01*
X134128394Y-43631158D01*
X134128394Y-43554954D01*
G37*
G36*
X134128394Y-43476796D02*
G01*
X134203866Y-43476796D01*
X134203866Y-43553000D01*
X134128394Y-43553000D01*
X134128394Y-43476796D01*
G37*
G36*
X134128394Y-43398639D02*
G01*
X134203866Y-43398639D01*
X134203866Y-43474842D01*
X134128394Y-43474842D01*
X134128394Y-43398639D01*
G37*
G36*
X134128394Y-43320481D02*
G01*
X134203866Y-43320481D01*
X134203866Y-43396685D01*
X134128394Y-43396685D01*
X134128394Y-43320481D01*
G37*
G36*
X134203866Y-43398639D02*
G01*
X134279337Y-43398639D01*
X134279337Y-43474842D01*
X134203866Y-43474842D01*
X134203866Y-43398639D01*
G37*
G36*
X134203866Y-43476796D02*
G01*
X134279337Y-43476796D01*
X134279337Y-43553000D01*
X134203866Y-43553000D01*
X134203866Y-43476796D01*
G37*
G36*
X134203866Y-43554954D02*
G01*
X134279337Y-43554954D01*
X134279337Y-43631158D01*
X134203866Y-43631158D01*
X134203866Y-43554954D01*
G37*
G36*
X134354563Y-43695638D02*
G01*
X134430034Y-43695638D01*
X134430034Y-43771842D01*
X134354563Y-43771842D01*
X134354563Y-43695638D01*
G37*
G36*
X134354563Y-43320481D02*
G01*
X134430034Y-43320481D01*
X134430034Y-43396685D01*
X134354563Y-43396685D01*
X134354563Y-43320481D01*
G37*
G36*
X135180348Y-43850000D02*
G01*
X135105122Y-43850000D01*
X135105122Y-43774528D01*
X135180348Y-43774528D01*
X135180348Y-43850000D01*
G37*
G36*
X135180348Y-43774528D02*
G01*
X135105122Y-43774528D01*
X135105122Y-43699302D01*
X135180348Y-43699302D01*
X135180348Y-43774528D01*
G37*
G36*
X135105122Y-43774528D02*
G01*
X135029651Y-43774528D01*
X135029651Y-43699302D01*
X135105122Y-43699302D01*
X135105122Y-43774528D01*
G37*
G36*
X135029651Y-43850000D02*
G01*
X134954424Y-43850000D01*
X134954424Y-43774528D01*
X135029651Y-43774528D01*
X135029651Y-43850000D01*
G37*
G36*
X134954424Y-43850000D02*
G01*
X134878953Y-43850000D01*
X134878953Y-43774528D01*
X134954424Y-43774528D01*
X134954424Y-43850000D01*
G37*
G36*
X134878953Y-43850000D02*
G01*
X134803726Y-43850000D01*
X134803726Y-43774528D01*
X134878953Y-43774528D01*
X134878953Y-43850000D01*
G37*
G36*
X134878953Y-43774528D02*
G01*
X134803726Y-43774528D01*
X134803726Y-43699302D01*
X134878953Y-43699302D01*
X134878953Y-43774528D01*
G37*
G36*
X134954424Y-43774528D02*
G01*
X134878953Y-43774528D01*
X134878953Y-43699302D01*
X134954424Y-43699302D01*
X134954424Y-43774528D01*
G37*
G36*
X134803726Y-43774528D02*
G01*
X134728255Y-43774528D01*
X134728255Y-43699302D01*
X134803726Y-43699302D01*
X134803726Y-43774528D01*
G37*
G36*
X134803726Y-43699302D02*
G01*
X134728255Y-43699302D01*
X134728255Y-43623831D01*
X134803726Y-43623831D01*
X134803726Y-43699302D01*
G37*
G36*
X134803726Y-43397906D02*
G01*
X134728255Y-43397906D01*
X134728255Y-43322435D01*
X134803726Y-43322435D01*
X134803726Y-43397906D01*
G37*
G36*
X134878953Y-43397906D02*
G01*
X134803726Y-43397906D01*
X134803726Y-43322435D01*
X134878953Y-43322435D01*
X134878953Y-43397906D01*
G37*
G36*
X134878953Y-43699302D02*
G01*
X134803726Y-43699302D01*
X134803726Y-43623831D01*
X134878953Y-43623831D01*
X134878953Y-43699302D01*
G37*
G36*
X134954424Y-43397906D02*
G01*
X134878953Y-43397906D01*
X134878953Y-43322435D01*
X134954424Y-43322435D01*
X134954424Y-43397906D01*
G37*
G36*
X134878953Y-43322435D02*
G01*
X134803726Y-43322435D01*
X134803726Y-43246964D01*
X134878953Y-43246964D01*
X134878953Y-43322435D01*
G37*
G36*
X134954424Y-43322435D02*
G01*
X134878953Y-43322435D01*
X134878953Y-43246964D01*
X134954424Y-43246964D01*
X134954424Y-43322435D01*
G37*
G36*
X135029651Y-43322435D02*
G01*
X134954424Y-43322435D01*
X134954424Y-43246964D01*
X135029651Y-43246964D01*
X135029651Y-43322435D01*
G37*
G36*
X135105122Y-43322435D02*
G01*
X135029651Y-43322435D01*
X135029651Y-43246964D01*
X135105122Y-43246964D01*
X135105122Y-43322435D01*
G37*
G36*
X135180348Y-43322435D02*
G01*
X135105122Y-43322435D01*
X135105122Y-43246964D01*
X135180348Y-43246964D01*
X135180348Y-43322435D01*
G37*
G36*
X135180348Y-43397906D02*
G01*
X135105122Y-43397906D01*
X135105122Y-43322435D01*
X135180348Y-43322435D01*
X135180348Y-43397906D01*
G37*
G36*
X135105122Y-43397906D02*
G01*
X135029651Y-43397906D01*
X135029651Y-43322435D01*
X135105122Y-43322435D01*
X135105122Y-43397906D01*
G37*
G36*
X135180348Y-43473133D02*
G01*
X135105122Y-43473133D01*
X135105122Y-43397906D01*
X135180348Y-43397906D01*
X135180348Y-43473133D01*
G37*
G36*
X135255819Y-43397906D02*
G01*
X135180348Y-43397906D01*
X135180348Y-43322435D01*
X135255819Y-43322435D01*
X135255819Y-43397906D01*
G37*
G36*
X135255819Y-43473133D02*
G01*
X135180348Y-43473133D01*
X135180348Y-43397906D01*
X135255819Y-43397906D01*
X135255819Y-43473133D01*
G37*
G36*
X135255819Y-43548604D02*
G01*
X135180348Y-43548604D01*
X135180348Y-43473133D01*
X135255819Y-43473133D01*
X135255819Y-43548604D01*
G37*
G36*
X135255819Y-43623831D02*
G01*
X135180348Y-43623831D01*
X135180348Y-43548604D01*
X135255819Y-43548604D01*
X135255819Y-43623831D01*
G37*
G36*
X135255819Y-43699302D02*
G01*
X135180348Y-43699302D01*
X135180348Y-43623831D01*
X135255819Y-43623831D01*
X135255819Y-43699302D01*
G37*
G36*
X135255819Y-43774528D02*
G01*
X135180348Y-43774528D01*
X135180348Y-43699302D01*
X135255819Y-43699302D01*
X135255819Y-43774528D01*
G37*
G36*
X135180348Y-43699302D02*
G01*
X135105122Y-43699302D01*
X135105122Y-43623831D01*
X135180348Y-43623831D01*
X135180348Y-43699302D01*
G37*
G36*
X135180348Y-43623831D02*
G01*
X135105122Y-43623831D01*
X135105122Y-43548604D01*
X135180348Y-43548604D01*
X135180348Y-43623831D01*
G37*
G36*
X135180348Y-43548604D02*
G01*
X135105122Y-43548604D01*
X135105122Y-43473133D01*
X135180348Y-43473133D01*
X135180348Y-43548604D01*
G37*
G36*
X135029651Y-43397906D02*
G01*
X134954424Y-43397906D01*
X134954424Y-43322435D01*
X135029651Y-43322435D01*
X135029651Y-43397906D01*
G37*
G36*
X135029651Y-43774528D02*
G01*
X134954424Y-43774528D01*
X134954424Y-43699302D01*
X135029651Y-43699302D01*
X135029651Y-43774528D01*
G37*
G36*
X135180348Y-43774528D02*
G01*
X135255819Y-43774528D01*
X135255819Y-43850000D01*
X135180348Y-43850000D01*
X135180348Y-43774528D01*
G37*
G36*
X135029651Y-43473133D02*
G01*
X135105122Y-43473133D01*
X135105122Y-43548604D01*
X135029651Y-43548604D01*
X135029651Y-43473133D01*
G37*
G36*
X134954424Y-43473133D02*
G01*
X135029651Y-43473133D01*
X135029651Y-43548604D01*
X134954424Y-43548604D01*
X134954424Y-43473133D01*
G37*
G36*
X134878953Y-43473133D02*
G01*
X134954424Y-43473133D01*
X134954424Y-43548604D01*
X134878953Y-43548604D01*
X134878953Y-43473133D01*
G37*
G36*
X134803726Y-43473133D02*
G01*
X134878953Y-43473133D01*
X134878953Y-43548604D01*
X134803726Y-43548604D01*
X134803726Y-43473133D01*
G37*
G36*
X134728255Y-43548604D02*
G01*
X134803726Y-43548604D01*
X134803726Y-43623831D01*
X134728255Y-43623831D01*
X134728255Y-43548604D01*
G37*
G36*
X134803726Y-43548604D02*
G01*
X134878953Y-43548604D01*
X134878953Y-43623831D01*
X134803726Y-43623831D01*
X134803726Y-43548604D01*
G37*
G36*
X135029651Y-43548604D02*
G01*
X135105122Y-43548604D01*
X135105122Y-43623831D01*
X135029651Y-43623831D01*
X135029651Y-43548604D01*
G37*
G36*
X134954424Y-43548604D02*
G01*
X135029651Y-43548604D01*
X135029651Y-43623831D01*
X134954424Y-43623831D01*
X134954424Y-43548604D01*
G37*
G36*
X134878953Y-43548604D02*
G01*
X134954424Y-43548604D01*
X134954424Y-43623831D01*
X134878953Y-43623831D01*
X134878953Y-43548604D01*
G37*
G36*
X135855680Y-43322435D02*
G01*
X135855680Y-43397906D01*
X135780209Y-43397906D01*
X135780209Y-43322435D01*
X135855680Y-43322435D01*
G37*
G36*
X135855680Y-43246964D02*
G01*
X135855680Y-43322435D01*
X135780209Y-43322435D01*
X135780209Y-43246964D01*
X135855680Y-43246964D01*
G37*
G36*
X135780209Y-43246964D02*
G01*
X135780209Y-43322435D01*
X135704982Y-43322435D01*
X135704982Y-43246964D01*
X135780209Y-43246964D01*
G37*
G36*
X135780209Y-43322435D02*
G01*
X135780209Y-43397906D01*
X135704982Y-43397906D01*
X135704982Y-43322435D01*
X135780209Y-43322435D01*
G37*
G36*
X135780209Y-43397906D02*
G01*
X135780209Y-43473133D01*
X135704982Y-43473133D01*
X135704982Y-43397906D01*
X135780209Y-43397906D01*
G37*
G36*
X135780209Y-43473133D02*
G01*
X135780209Y-43548604D01*
X135704982Y-43548604D01*
X135704982Y-43473133D01*
X135780209Y-43473133D01*
G37*
G36*
X135780209Y-43548604D02*
G01*
X135780209Y-43623831D01*
X135704982Y-43623831D01*
X135704982Y-43548604D01*
X135780209Y-43548604D01*
G37*
G36*
X135855680Y-43548604D02*
G01*
X135855680Y-43623831D01*
X135780209Y-43623831D01*
X135780209Y-43548604D01*
X135855680Y-43548604D01*
G37*
G36*
X135855680Y-43473133D02*
G01*
X135855680Y-43548604D01*
X135780209Y-43548604D01*
X135780209Y-43473133D01*
X135855680Y-43473133D01*
G37*
G36*
X135855680Y-43397906D02*
G01*
X135855680Y-43473133D01*
X135780209Y-43473133D01*
X135780209Y-43397906D01*
X135855680Y-43397906D01*
G37*
G36*
X135855680Y-43623831D02*
G01*
X135855680Y-43699302D01*
X135780209Y-43699302D01*
X135780209Y-43623831D01*
X135855680Y-43623831D01*
G37*
G36*
X135780209Y-43623831D02*
G01*
X135780209Y-43699302D01*
X135704982Y-43699302D01*
X135704982Y-43623831D01*
X135780209Y-43623831D01*
G37*
G36*
X135780209Y-43699302D02*
G01*
X135780209Y-43774528D01*
X135704982Y-43774528D01*
X135704982Y-43699302D01*
X135780209Y-43699302D01*
G37*
G36*
X135780209Y-43774528D02*
G01*
X135780209Y-43850000D01*
X135704982Y-43850000D01*
X135704982Y-43774528D01*
X135780209Y-43774528D01*
G37*
G36*
X135855680Y-43774528D02*
G01*
X135855680Y-43850000D01*
X135780209Y-43850000D01*
X135780209Y-43774528D01*
X135855680Y-43774528D01*
G37*
G36*
X135855680Y-43699302D02*
G01*
X135855680Y-43774528D01*
X135780209Y-43774528D01*
X135780209Y-43699302D01*
X135855680Y-43699302D01*
G37*
G36*
X135478813Y-43774528D02*
G01*
X135478813Y-43850000D01*
X135403586Y-43850000D01*
X135403586Y-43774528D01*
X135478813Y-43774528D01*
G37*
G36*
X135403586Y-43699302D02*
G01*
X135403586Y-43774528D01*
X135328115Y-43774528D01*
X135328115Y-43699302D01*
X135403586Y-43699302D01*
G37*
G36*
X135403586Y-43623831D02*
G01*
X135403586Y-43699302D01*
X135328115Y-43699302D01*
X135328115Y-43623831D01*
X135403586Y-43623831D01*
G37*
G36*
X135403586Y-43548604D02*
G01*
X135403586Y-43623831D01*
X135328115Y-43623831D01*
X135328115Y-43548604D01*
X135403586Y-43548604D01*
G37*
G36*
X135403586Y-43473133D02*
G01*
X135403586Y-43548604D01*
X135328115Y-43548604D01*
X135328115Y-43473133D01*
X135403586Y-43473133D01*
G37*
G36*
X135403586Y-43397906D02*
G01*
X135403586Y-43473133D01*
X135328115Y-43473133D01*
X135328115Y-43397906D01*
X135403586Y-43397906D01*
G37*
G36*
X135403586Y-43322435D02*
G01*
X135403586Y-43397906D01*
X135328115Y-43397906D01*
X135328115Y-43322435D01*
X135403586Y-43322435D01*
G37*
G36*
X135478813Y-43473133D02*
G01*
X135478813Y-43548604D01*
X135403586Y-43548604D01*
X135403586Y-43473133D01*
X135478813Y-43473133D01*
G37*
G36*
X135478813Y-43548604D02*
G01*
X135478813Y-43623831D01*
X135403586Y-43623831D01*
X135403586Y-43548604D01*
X135478813Y-43548604D01*
G37*
G36*
X135478813Y-43623831D02*
G01*
X135478813Y-43699302D01*
X135403586Y-43699302D01*
X135403586Y-43623831D01*
X135478813Y-43623831D01*
G37*
G36*
X135478813Y-43699302D02*
G01*
X135478813Y-43774528D01*
X135403586Y-43774528D01*
X135403586Y-43699302D01*
X135478813Y-43699302D01*
G37*
G36*
X135478813Y-43397906D02*
G01*
X135478813Y-43473133D01*
X135403586Y-43473133D01*
X135403586Y-43397906D01*
X135478813Y-43397906D01*
G37*
G36*
X135554284Y-43322435D02*
G01*
X135554284Y-43397906D01*
X135478813Y-43397906D01*
X135478813Y-43322435D01*
X135554284Y-43322435D01*
G37*
G36*
X135554284Y-43246964D02*
G01*
X135554284Y-43322435D01*
X135478813Y-43322435D01*
X135478813Y-43246964D01*
X135554284Y-43246964D01*
G37*
G36*
X135478813Y-43246964D02*
G01*
X135478813Y-43322435D01*
X135403586Y-43322435D01*
X135403586Y-43246964D01*
X135478813Y-43246964D01*
G37*
G36*
X135478813Y-43322435D02*
G01*
X135478813Y-43397906D01*
X135403586Y-43397906D01*
X135403586Y-43322435D01*
X135478813Y-43322435D01*
G37*
G36*
X135629511Y-43246964D02*
G01*
X135629511Y-43322435D01*
X135554284Y-43322435D01*
X135554284Y-43246964D01*
X135629511Y-43246964D01*
G37*
G36*
X135855680Y-43096266D02*
G01*
X135855680Y-43171737D01*
X135780209Y-43171737D01*
X135780209Y-43096266D01*
X135855680Y-43096266D01*
G37*
G36*
X135780209Y-43096266D02*
G01*
X135780209Y-43171737D01*
X135704982Y-43171737D01*
X135704982Y-43096266D01*
X135780209Y-43096266D01*
G37*
G36*
X135780209Y-43171737D02*
G01*
X135780209Y-43246964D01*
X135704982Y-43246964D01*
X135704982Y-43171737D01*
X135780209Y-43171737D01*
G37*
G36*
X135855680Y-43171737D02*
G01*
X135855680Y-43246964D01*
X135780209Y-43246964D01*
X135780209Y-43171737D01*
X135855680Y-43171737D01*
G37*
G36*
X135629511Y-43774528D02*
G01*
X135629511Y-43850000D01*
X135554284Y-43850000D01*
X135554284Y-43774528D01*
X135629511Y-43774528D01*
G37*
G36*
X135554284Y-43774528D02*
G01*
X135554284Y-43850000D01*
X135478813Y-43850000D01*
X135478813Y-43774528D01*
X135554284Y-43774528D01*
G37*
G36*
X135554284Y-43699302D02*
G01*
X135554284Y-43774528D01*
X135478813Y-43774528D01*
X135478813Y-43699302D01*
X135554284Y-43699302D01*
G37*
G36*
X135629511Y-43699302D02*
G01*
X135629511Y-43774528D01*
X135554284Y-43774528D01*
X135554284Y-43699302D01*
X135629511Y-43699302D01*
G37*
G36*
X135704982Y-43699302D02*
G01*
X135704982Y-43774528D01*
X135629511Y-43774528D01*
X135629511Y-43699302D01*
X135704982Y-43699302D01*
G37*
G36*
X135704982Y-43246964D02*
G01*
X135704982Y-43322435D01*
X135629511Y-43322435D01*
X135629511Y-43246964D01*
X135704982Y-43246964D01*
G37*
G36*
X135704982Y-43322435D02*
G01*
X135704982Y-43397906D01*
X135629511Y-43397906D01*
X135629511Y-43322435D01*
X135704982Y-43322435D01*
G37*
G36*
X135629511Y-43322435D02*
G01*
X135629511Y-43397906D01*
X135554284Y-43397906D01*
X135554284Y-43322435D01*
X135629511Y-43322435D01*
G37*
G36*
X136078674Y-43242323D02*
G01*
X136154145Y-43242323D01*
X136154145Y-43318527D01*
X136078674Y-43318527D01*
X136078674Y-43242323D01*
G37*
G36*
X136003447Y-43242323D02*
G01*
X136078918Y-43242323D01*
X136078918Y-43318527D01*
X136003447Y-43318527D01*
X136003447Y-43242323D01*
G37*
G36*
X136003447Y-43320481D02*
G01*
X136078918Y-43320481D01*
X136078918Y-43396685D01*
X136003447Y-43396685D01*
X136003447Y-43320481D01*
G37*
G36*
X136078674Y-43320481D02*
G01*
X136154145Y-43320481D01*
X136154145Y-43396685D01*
X136078674Y-43396685D01*
X136078674Y-43320481D01*
G37*
G36*
X136154145Y-43242323D02*
G01*
X136229616Y-43242323D01*
X136229616Y-43318527D01*
X136154145Y-43318527D01*
X136154145Y-43242323D01*
G37*
G36*
X136229371Y-43242323D02*
G01*
X136304842Y-43242323D01*
X136304842Y-43318527D01*
X136229371Y-43318527D01*
X136229371Y-43242323D01*
G37*
G36*
X136304842Y-43242323D02*
G01*
X136380314Y-43242323D01*
X136380314Y-43318527D01*
X136304842Y-43318527D01*
X136304842Y-43242323D01*
G37*
G36*
X136304842Y-43320481D02*
G01*
X136380314Y-43320481D01*
X136380314Y-43396685D01*
X136304842Y-43396685D01*
X136304842Y-43320481D01*
G37*
G36*
X136229371Y-43320481D02*
G01*
X136304842Y-43320481D01*
X136304842Y-43396685D01*
X136229371Y-43396685D01*
X136229371Y-43320481D01*
G37*
G36*
X136380069Y-43320481D02*
G01*
X136455540Y-43320481D01*
X136455540Y-43396685D01*
X136380069Y-43396685D01*
X136380069Y-43320481D01*
G37*
G36*
X136380069Y-43398639D02*
G01*
X136455540Y-43398639D01*
X136455540Y-43474842D01*
X136380069Y-43474842D01*
X136380069Y-43398639D01*
G37*
G36*
X136380069Y-43695638D02*
G01*
X136455540Y-43695638D01*
X136455540Y-43771842D01*
X136380069Y-43771842D01*
X136380069Y-43695638D01*
G37*
G36*
X136304842Y-43695638D02*
G01*
X136380314Y-43695638D01*
X136380314Y-43771842D01*
X136304842Y-43771842D01*
X136304842Y-43695638D01*
G37*
G36*
X136304842Y-43398639D02*
G01*
X136380314Y-43398639D01*
X136380314Y-43474842D01*
X136304842Y-43474842D01*
X136304842Y-43398639D01*
G37*
G36*
X136229371Y-43695638D02*
G01*
X136304842Y-43695638D01*
X136304842Y-43771842D01*
X136229371Y-43771842D01*
X136229371Y-43695638D01*
G37*
G36*
X136304842Y-43773796D02*
G01*
X136380314Y-43773796D01*
X136380314Y-43850000D01*
X136304842Y-43850000D01*
X136304842Y-43773796D01*
G37*
G36*
X136229371Y-43773796D02*
G01*
X136304842Y-43773796D01*
X136304842Y-43850000D01*
X136229371Y-43850000D01*
X136229371Y-43773796D01*
G37*
G36*
X136154145Y-43773796D02*
G01*
X136229616Y-43773796D01*
X136229616Y-43850000D01*
X136154145Y-43850000D01*
X136154145Y-43773796D01*
G37*
G36*
X136078674Y-43773796D02*
G01*
X136154145Y-43773796D01*
X136154145Y-43850000D01*
X136078674Y-43850000D01*
X136078674Y-43773796D01*
G37*
G36*
X136003447Y-43773796D02*
G01*
X136078918Y-43773796D01*
X136078918Y-43850000D01*
X136003447Y-43850000D01*
X136003447Y-43773796D01*
G37*
G36*
X136003447Y-43695638D02*
G01*
X136078918Y-43695638D01*
X136078918Y-43771842D01*
X136003447Y-43771842D01*
X136003447Y-43695638D01*
G37*
G36*
X136078674Y-43695638D02*
G01*
X136154145Y-43695638D01*
X136154145Y-43771842D01*
X136078674Y-43771842D01*
X136078674Y-43695638D01*
G37*
G36*
X136003447Y-43617480D02*
G01*
X136078918Y-43617480D01*
X136078918Y-43693684D01*
X136003447Y-43693684D01*
X136003447Y-43617480D01*
G37*
G36*
X135927976Y-43695638D02*
G01*
X136003447Y-43695638D01*
X136003447Y-43771842D01*
X135927976Y-43771842D01*
X135927976Y-43695638D01*
G37*
G36*
X135927976Y-43617480D02*
G01*
X136003447Y-43617480D01*
X136003447Y-43693684D01*
X135927976Y-43693684D01*
X135927976Y-43617480D01*
G37*
G36*
X135927976Y-43554954D02*
G01*
X136003447Y-43554954D01*
X136003447Y-43631158D01*
X135927976Y-43631158D01*
X135927976Y-43554954D01*
G37*
G36*
X135927976Y-43476796D02*
G01*
X136003447Y-43476796D01*
X136003447Y-43553000D01*
X135927976Y-43553000D01*
X135927976Y-43476796D01*
G37*
G36*
X135927976Y-43398639D02*
G01*
X136003447Y-43398639D01*
X136003447Y-43474842D01*
X135927976Y-43474842D01*
X135927976Y-43398639D01*
G37*
G36*
X135927976Y-43320481D02*
G01*
X136003447Y-43320481D01*
X136003447Y-43396685D01*
X135927976Y-43396685D01*
X135927976Y-43320481D01*
G37*
G36*
X136003447Y-43398639D02*
G01*
X136078918Y-43398639D01*
X136078918Y-43474842D01*
X136003447Y-43474842D01*
X136003447Y-43398639D01*
G37*
G36*
X136003447Y-43476796D02*
G01*
X136078918Y-43476796D01*
X136078918Y-43553000D01*
X136003447Y-43553000D01*
X136003447Y-43476796D01*
G37*
G36*
X136003447Y-43554954D02*
G01*
X136078918Y-43554954D01*
X136078918Y-43631158D01*
X136003447Y-43631158D01*
X136003447Y-43554954D01*
G37*
G36*
X136154145Y-43695638D02*
G01*
X136229616Y-43695638D01*
X136229616Y-43771842D01*
X136154145Y-43771842D01*
X136154145Y-43695638D01*
G37*
G36*
X136154145Y-43320481D02*
G01*
X136229616Y-43320481D01*
X136229616Y-43396685D01*
X136154145Y-43396685D01*
X136154145Y-43320481D01*
G37*
G36*
X136304842Y-43476796D02*
G01*
X136380314Y-43476796D01*
X136380314Y-43553000D01*
X136304842Y-43553000D01*
X136304842Y-43476796D01*
G37*
G36*
X136380069Y-43476796D02*
G01*
X136455540Y-43476796D01*
X136455540Y-43553000D01*
X136380069Y-43553000D01*
X136380069Y-43476796D01*
G37*
G36*
X136078674Y-43554954D02*
G01*
X136154145Y-43554954D01*
X136154145Y-43631158D01*
X136078674Y-43631158D01*
X136078674Y-43554954D01*
G37*
G36*
X136154145Y-43554954D02*
G01*
X136229616Y-43554954D01*
X136229616Y-43631158D01*
X136154145Y-43631158D01*
X136154145Y-43554954D01*
G37*
G36*
X136229371Y-43554954D02*
G01*
X136304842Y-43554954D01*
X136304842Y-43631158D01*
X136229371Y-43631158D01*
X136229371Y-43554954D01*
G37*
G36*
X136304842Y-43554954D02*
G01*
X136380314Y-43554954D01*
X136380314Y-43631158D01*
X136304842Y-43631158D01*
X136304842Y-43554954D01*
G37*
G36*
X136380069Y-43554954D02*
G01*
X136455540Y-43554954D01*
X136455540Y-43631158D01*
X136380069Y-43631158D01*
X136380069Y-43554954D01*
G37*
G36*
X136229371Y-43476796D02*
G01*
X136304842Y-43476796D01*
X136304842Y-43553000D01*
X136229371Y-43553000D01*
X136229371Y-43476796D01*
G37*
G36*
X136154145Y-43476796D02*
G01*
X136229616Y-43476796D01*
X136229616Y-43553000D01*
X136154145Y-43553000D01*
X136154145Y-43476796D01*
G37*
G36*
X136078674Y-43476796D02*
G01*
X136154145Y-43476796D01*
X136154145Y-43553000D01*
X136078674Y-43553000D01*
X136078674Y-43476796D01*
G37*
G36*
X136527836Y-43320481D02*
G01*
X136603307Y-43320481D01*
X136603307Y-43396685D01*
X136527836Y-43396685D01*
X136527836Y-43320481D01*
G37*
G36*
X136527836Y-43242323D02*
G01*
X136603307Y-43242323D01*
X136603307Y-43318527D01*
X136527836Y-43318527D01*
X136527836Y-43242323D01*
G37*
G36*
X136603307Y-43242323D02*
G01*
X136678778Y-43242323D01*
X136678778Y-43318527D01*
X136603307Y-43318527D01*
X136603307Y-43242323D01*
G37*
G36*
X136603307Y-43320481D02*
G01*
X136678778Y-43320481D01*
X136678778Y-43396685D01*
X136603307Y-43396685D01*
X136603307Y-43320481D01*
G37*
G36*
X136603307Y-43398639D02*
G01*
X136678778Y-43398639D01*
X136678778Y-43474842D01*
X136603307Y-43474842D01*
X136603307Y-43398639D01*
G37*
G36*
X136603307Y-43476796D02*
G01*
X136678778Y-43476796D01*
X136678778Y-43553000D01*
X136603307Y-43553000D01*
X136603307Y-43476796D01*
G37*
G36*
X136603307Y-43554954D02*
G01*
X136678778Y-43554954D01*
X136678778Y-43631158D01*
X136603307Y-43631158D01*
X136603307Y-43554954D01*
G37*
G36*
X136527836Y-43554954D02*
G01*
X136603307Y-43554954D01*
X136603307Y-43631158D01*
X136527836Y-43631158D01*
X136527836Y-43554954D01*
G37*
G36*
X136527836Y-43476796D02*
G01*
X136603307Y-43476796D01*
X136603307Y-43553000D01*
X136527836Y-43553000D01*
X136527836Y-43476796D01*
G37*
G36*
X136527836Y-43398639D02*
G01*
X136603307Y-43398639D01*
X136603307Y-43474842D01*
X136527836Y-43474842D01*
X136527836Y-43398639D01*
G37*
G36*
X136527836Y-43617480D02*
G01*
X136603307Y-43617480D01*
X136603307Y-43693684D01*
X136527836Y-43693684D01*
X136527836Y-43617480D01*
G37*
G36*
X136603307Y-43617480D02*
G01*
X136678778Y-43617480D01*
X136678778Y-43693684D01*
X136603307Y-43693684D01*
X136603307Y-43617480D01*
G37*
G36*
X136603307Y-43695638D02*
G01*
X136678778Y-43695638D01*
X136678778Y-43771842D01*
X136603307Y-43771842D01*
X136603307Y-43695638D01*
G37*
G36*
X136603307Y-43773796D02*
G01*
X136678778Y-43773796D01*
X136678778Y-43850000D01*
X136603307Y-43850000D01*
X136603307Y-43773796D01*
G37*
G36*
X136527836Y-43773796D02*
G01*
X136603307Y-43773796D01*
X136603307Y-43850000D01*
X136527836Y-43850000D01*
X136527836Y-43773796D01*
G37*
G36*
X136527836Y-43695638D02*
G01*
X136603307Y-43695638D01*
X136603307Y-43771842D01*
X136527836Y-43771842D01*
X136527836Y-43695638D01*
G37*
G36*
X136678534Y-43320481D02*
G01*
X136754005Y-43320481D01*
X136754005Y-43396685D01*
X136678534Y-43396685D01*
X136678534Y-43320481D01*
G37*
G36*
X136754005Y-43320481D02*
G01*
X136829476Y-43320481D01*
X136829476Y-43396685D01*
X136754005Y-43396685D01*
X136754005Y-43320481D01*
G37*
G36*
X136829232Y-43320481D02*
G01*
X136904703Y-43320481D01*
X136904703Y-43396685D01*
X136829232Y-43396685D01*
X136829232Y-43320481D01*
G37*
G36*
X136829232Y-43242323D02*
G01*
X136904703Y-43242323D01*
X136904703Y-43318527D01*
X136829232Y-43318527D01*
X136829232Y-43242323D01*
G37*
G36*
X136754005Y-43242323D02*
G01*
X136829476Y-43242323D01*
X136829476Y-43318527D01*
X136754005Y-43318527D01*
X136754005Y-43242323D01*
G37*
G36*
X136678534Y-43398639D02*
G01*
X136754005Y-43398639D01*
X136754005Y-43474842D01*
X136678534Y-43474842D01*
X136678534Y-43398639D01*
G37*
G36*
X136904703Y-43320481D02*
G01*
X136980174Y-43320481D01*
X136980174Y-43396685D01*
X136904703Y-43396685D01*
X136904703Y-43320481D01*
G37*
G36*
X136829232Y-43398639D02*
G01*
X136904703Y-43398639D01*
X136904703Y-43474842D01*
X136829232Y-43474842D01*
X136829232Y-43398639D01*
G37*
G36*
X137352400Y-43773796D02*
G01*
X137427871Y-43773796D01*
X137427871Y-43850000D01*
X137352400Y-43850000D01*
X137352400Y-43773796D01*
G37*
G36*
X137352400Y-43695638D02*
G01*
X137427871Y-43695638D01*
X137427871Y-43771842D01*
X137352400Y-43771842D01*
X137352400Y-43695638D01*
G37*
G36*
X137352400Y-43617480D02*
G01*
X137427871Y-43617480D01*
X137427871Y-43693684D01*
X137352400Y-43693684D01*
X137352400Y-43617480D01*
G37*
G36*
X137352400Y-43554954D02*
G01*
X137427871Y-43554954D01*
X137427871Y-43631158D01*
X137352400Y-43631158D01*
X137352400Y-43554954D01*
G37*
G36*
X137352400Y-43476796D02*
G01*
X137427871Y-43476796D01*
X137427871Y-43553000D01*
X137352400Y-43553000D01*
X137352400Y-43476796D01*
G37*
G36*
X137352400Y-43398639D02*
G01*
X137427871Y-43398639D01*
X137427871Y-43474842D01*
X137352400Y-43474842D01*
X137352400Y-43398639D01*
G37*
G36*
X137427871Y-43398639D02*
G01*
X137503342Y-43398639D01*
X137503342Y-43474842D01*
X137427871Y-43474842D01*
X137427871Y-43398639D01*
G37*
G36*
X137427871Y-43320481D02*
G01*
X137503342Y-43320481D01*
X137503342Y-43396685D01*
X137427871Y-43396685D01*
X137427871Y-43320481D01*
G37*
G36*
X137427871Y-43242323D02*
G01*
X137503342Y-43242323D01*
X137503342Y-43318527D01*
X137427871Y-43318527D01*
X137427871Y-43242323D01*
G37*
G36*
X137427871Y-43164166D02*
G01*
X137503342Y-43164166D01*
X137503342Y-43240369D01*
X137427871Y-43240369D01*
X137427871Y-43164166D01*
G37*
G36*
X137352400Y-43164166D02*
G01*
X137427871Y-43164166D01*
X137427871Y-43240369D01*
X137352400Y-43240369D01*
X137352400Y-43164166D01*
G37*
G36*
X137352400Y-43101639D02*
G01*
X137427871Y-43101639D01*
X137427871Y-43177843D01*
X137352400Y-43177843D01*
X137352400Y-43101639D01*
G37*
G36*
X137352400Y-43242323D02*
G01*
X137427871Y-43242323D01*
X137427871Y-43318527D01*
X137352400Y-43318527D01*
X137352400Y-43242323D01*
G37*
G36*
X137352400Y-43320481D02*
G01*
X137427871Y-43320481D01*
X137427871Y-43396685D01*
X137352400Y-43396685D01*
X137352400Y-43320481D01*
G37*
G36*
X137427871Y-43101639D02*
G01*
X137503342Y-43101639D01*
X137503342Y-43177843D01*
X137427871Y-43177843D01*
X137427871Y-43101639D01*
G37*
G36*
X137427871Y-43476796D02*
G01*
X137503342Y-43476796D01*
X137503342Y-43553000D01*
X137427871Y-43553000D01*
X137427871Y-43476796D01*
G37*
G36*
X137427871Y-43554954D02*
G01*
X137503342Y-43554954D01*
X137503342Y-43631158D01*
X137427871Y-43631158D01*
X137427871Y-43554954D01*
G37*
G36*
X137427871Y-43617480D02*
G01*
X137503342Y-43617480D01*
X137503342Y-43693684D01*
X137427871Y-43693684D01*
X137427871Y-43617480D01*
G37*
G36*
X137427871Y-43695638D02*
G01*
X137503342Y-43695638D01*
X137503342Y-43771842D01*
X137427871Y-43771842D01*
X137427871Y-43695638D01*
G37*
G36*
X137427871Y-43773796D02*
G01*
X137503342Y-43773796D01*
X137503342Y-43850000D01*
X137427871Y-43850000D01*
X137427871Y-43773796D01*
G37*
G36*
X137503098Y-43242323D02*
G01*
X137578569Y-43242323D01*
X137578569Y-43318527D01*
X137503098Y-43318527D01*
X137503098Y-43242323D01*
G37*
G36*
X137503098Y-43320481D02*
G01*
X137578569Y-43320481D01*
X137578569Y-43396685D01*
X137503098Y-43396685D01*
X137503098Y-43320481D01*
G37*
G36*
X137578569Y-43320481D02*
G01*
X137654040Y-43320481D01*
X137654040Y-43396685D01*
X137578569Y-43396685D01*
X137578569Y-43320481D01*
G37*
G36*
X137578569Y-43398639D02*
G01*
X137654040Y-43398639D01*
X137654040Y-43474842D01*
X137578569Y-43474842D01*
X137578569Y-43398639D01*
G37*
G36*
X137653796Y-43398639D02*
G01*
X137729267Y-43398639D01*
X137729267Y-43474842D01*
X137653796Y-43474842D01*
X137653796Y-43398639D01*
G37*
G36*
X137653796Y-43476796D02*
G01*
X137729267Y-43476796D01*
X137729267Y-43553000D01*
X137653796Y-43553000D01*
X137653796Y-43476796D01*
G37*
G36*
X137729267Y-43398639D02*
G01*
X137804738Y-43398639D01*
X137804738Y-43474842D01*
X137729267Y-43474842D01*
X137729267Y-43398639D01*
G37*
G36*
X137729267Y-43320481D02*
G01*
X137804738Y-43320481D01*
X137804738Y-43396685D01*
X137729267Y-43396685D01*
X137729267Y-43320481D01*
G37*
G36*
X137804494Y-43320481D02*
G01*
X137879965Y-43320481D01*
X137879965Y-43396685D01*
X137804494Y-43396685D01*
X137804494Y-43320481D01*
G37*
G36*
X137804494Y-43242323D02*
G01*
X137879965Y-43242323D01*
X137879965Y-43318527D01*
X137804494Y-43318527D01*
X137804494Y-43242323D01*
G37*
G36*
X137879965Y-43101639D02*
G01*
X137955436Y-43101639D01*
X137955436Y-43177843D01*
X137879965Y-43177843D01*
X137879965Y-43101639D01*
G37*
G36*
X137879965Y-43164166D02*
G01*
X137955436Y-43164166D01*
X137955436Y-43240369D01*
X137879965Y-43240369D01*
X137879965Y-43164166D01*
G37*
G36*
X137879965Y-43242323D02*
G01*
X137955436Y-43242323D01*
X137955436Y-43318527D01*
X137879965Y-43318527D01*
X137879965Y-43242323D01*
G37*
G36*
X137879965Y-43320481D02*
G01*
X137955436Y-43320481D01*
X137955436Y-43396685D01*
X137879965Y-43396685D01*
X137879965Y-43320481D01*
G37*
G36*
X137879965Y-43398639D02*
G01*
X137955436Y-43398639D01*
X137955436Y-43474842D01*
X137879965Y-43474842D01*
X137879965Y-43398639D01*
G37*
G36*
X137879965Y-43476796D02*
G01*
X137955436Y-43476796D01*
X137955436Y-43553000D01*
X137879965Y-43553000D01*
X137879965Y-43476796D01*
G37*
G36*
X137879965Y-43554954D02*
G01*
X137955436Y-43554954D01*
X137955436Y-43631158D01*
X137879965Y-43631158D01*
X137879965Y-43554954D01*
G37*
G36*
X137879965Y-43617480D02*
G01*
X137955436Y-43617480D01*
X137955436Y-43693684D01*
X137879965Y-43693684D01*
X137879965Y-43617480D01*
G37*
G36*
X137879965Y-43695638D02*
G01*
X137955436Y-43695638D01*
X137955436Y-43771842D01*
X137879965Y-43771842D01*
X137879965Y-43695638D01*
G37*
G36*
X137879965Y-43773796D02*
G01*
X137955436Y-43773796D01*
X137955436Y-43850000D01*
X137879965Y-43850000D01*
X137879965Y-43773796D01*
G37*
G36*
X137955436Y-43773796D02*
G01*
X138030907Y-43773796D01*
X138030907Y-43850000D01*
X137955436Y-43850000D01*
X137955436Y-43773796D01*
G37*
G36*
X137955436Y-43695638D02*
G01*
X138030907Y-43695638D01*
X138030907Y-43771842D01*
X137955436Y-43771842D01*
X137955436Y-43695638D01*
G37*
G36*
X137955436Y-43617480D02*
G01*
X138030907Y-43617480D01*
X138030907Y-43693684D01*
X137955436Y-43693684D01*
X137955436Y-43617480D01*
G37*
G36*
X137955436Y-43554954D02*
G01*
X138030907Y-43554954D01*
X138030907Y-43631158D01*
X137955436Y-43631158D01*
X137955436Y-43554954D01*
G37*
G36*
X137955436Y-43476796D02*
G01*
X138030907Y-43476796D01*
X138030907Y-43553000D01*
X137955436Y-43553000D01*
X137955436Y-43476796D01*
G37*
G36*
X137955436Y-43398639D02*
G01*
X138030907Y-43398639D01*
X138030907Y-43474842D01*
X137955436Y-43474842D01*
X137955436Y-43398639D01*
G37*
G36*
X137955436Y-43320481D02*
G01*
X138030907Y-43320481D01*
X138030907Y-43396685D01*
X137955436Y-43396685D01*
X137955436Y-43320481D01*
G37*
G36*
X137955436Y-43242323D02*
G01*
X138030907Y-43242323D01*
X138030907Y-43318527D01*
X137955436Y-43318527D01*
X137955436Y-43242323D01*
G37*
G36*
X137955436Y-43164166D02*
G01*
X138030907Y-43164166D01*
X138030907Y-43240369D01*
X137955436Y-43240369D01*
X137955436Y-43164166D01*
G37*
G36*
X137955436Y-43101639D02*
G01*
X138030907Y-43101639D01*
X138030907Y-43177843D01*
X137955436Y-43177843D01*
X137955436Y-43101639D01*
G37*
G36*
X137503098Y-43164166D02*
G01*
X137578569Y-43164166D01*
X137578569Y-43240369D01*
X137503098Y-43240369D01*
X137503098Y-43164166D01*
G37*
G36*
X137578569Y-43242323D02*
G01*
X137654040Y-43242323D01*
X137654040Y-43318527D01*
X137578569Y-43318527D01*
X137578569Y-43242323D01*
G37*
G36*
X137653796Y-43320481D02*
G01*
X137729267Y-43320481D01*
X137729267Y-43396685D01*
X137653796Y-43396685D01*
X137653796Y-43320481D01*
G37*
G36*
X137729267Y-43242323D02*
G01*
X137804738Y-43242323D01*
X137804738Y-43318527D01*
X137729267Y-43318527D01*
X137729267Y-43242323D01*
G37*
G36*
X137804494Y-43164166D02*
G01*
X137879965Y-43164166D01*
X137879965Y-43240369D01*
X137804494Y-43240369D01*
X137804494Y-43164166D01*
G37*
G36*
X138252435Y-43242323D02*
G01*
X138327906Y-43242323D01*
X138327906Y-43318527D01*
X138252435Y-43318527D01*
X138252435Y-43242323D01*
G37*
G36*
X138177208Y-43242323D02*
G01*
X138252679Y-43242323D01*
X138252679Y-43318527D01*
X138177208Y-43318527D01*
X138177208Y-43242323D01*
G37*
G36*
X138177208Y-43320481D02*
G01*
X138252679Y-43320481D01*
X138252679Y-43396685D01*
X138177208Y-43396685D01*
X138177208Y-43320481D01*
G37*
G36*
X138252435Y-43320481D02*
G01*
X138327906Y-43320481D01*
X138327906Y-43396685D01*
X138252435Y-43396685D01*
X138252435Y-43320481D01*
G37*
G36*
X138327906Y-43242323D02*
G01*
X138403377Y-43242323D01*
X138403377Y-43318527D01*
X138327906Y-43318527D01*
X138327906Y-43242323D01*
G37*
G36*
X138403133Y-43242323D02*
G01*
X138478604Y-43242323D01*
X138478604Y-43318527D01*
X138403133Y-43318527D01*
X138403133Y-43242323D01*
G37*
G36*
X138478604Y-43242323D02*
G01*
X138554075Y-43242323D01*
X138554075Y-43318527D01*
X138478604Y-43318527D01*
X138478604Y-43242323D01*
G37*
G36*
X138478604Y-43320481D02*
G01*
X138554075Y-43320481D01*
X138554075Y-43396685D01*
X138478604Y-43396685D01*
X138478604Y-43320481D01*
G37*
G36*
X138403133Y-43320481D02*
G01*
X138478604Y-43320481D01*
X138478604Y-43396685D01*
X138403133Y-43396685D01*
X138403133Y-43320481D01*
G37*
G36*
X138478604Y-43476796D02*
G01*
X138554075Y-43476796D01*
X138554075Y-43553000D01*
X138478604Y-43553000D01*
X138478604Y-43476796D01*
G37*
G36*
X138553831Y-43320481D02*
G01*
X138629302Y-43320481D01*
X138629302Y-43396685D01*
X138553831Y-43396685D01*
X138553831Y-43320481D01*
G37*
G36*
X138553831Y-43398639D02*
G01*
X138629302Y-43398639D01*
X138629302Y-43474842D01*
X138553831Y-43474842D01*
X138553831Y-43398639D01*
G37*
G36*
X138553831Y-43476796D02*
G01*
X138629302Y-43476796D01*
X138629302Y-43553000D01*
X138553831Y-43553000D01*
X138553831Y-43476796D01*
G37*
G36*
X138553831Y-43554954D02*
G01*
X138629302Y-43554954D01*
X138629302Y-43631158D01*
X138553831Y-43631158D01*
X138553831Y-43554954D01*
G37*
G36*
X138553831Y-43617480D02*
G01*
X138629302Y-43617480D01*
X138629302Y-43693684D01*
X138553831Y-43693684D01*
X138553831Y-43617480D01*
G37*
G36*
X138553831Y-43695638D02*
G01*
X138629302Y-43695638D01*
X138629302Y-43771842D01*
X138553831Y-43771842D01*
X138553831Y-43695638D01*
G37*
G36*
X138478604Y-43695638D02*
G01*
X138554075Y-43695638D01*
X138554075Y-43771842D01*
X138478604Y-43771842D01*
X138478604Y-43695638D01*
G37*
G36*
X138478604Y-43617480D02*
G01*
X138554075Y-43617480D01*
X138554075Y-43693684D01*
X138478604Y-43693684D01*
X138478604Y-43617480D01*
G37*
G36*
X138478604Y-43554954D02*
G01*
X138554075Y-43554954D01*
X138554075Y-43631158D01*
X138478604Y-43631158D01*
X138478604Y-43554954D01*
G37*
G36*
X138478604Y-43398639D02*
G01*
X138554075Y-43398639D01*
X138554075Y-43474842D01*
X138478604Y-43474842D01*
X138478604Y-43398639D01*
G37*
G36*
X138403133Y-43695638D02*
G01*
X138478604Y-43695638D01*
X138478604Y-43771842D01*
X138403133Y-43771842D01*
X138403133Y-43695638D01*
G37*
G36*
X138478604Y-43773796D02*
G01*
X138554075Y-43773796D01*
X138554075Y-43850000D01*
X138478604Y-43850000D01*
X138478604Y-43773796D01*
G37*
G36*
X138403133Y-43773796D02*
G01*
X138478604Y-43773796D01*
X138478604Y-43850000D01*
X138403133Y-43850000D01*
X138403133Y-43773796D01*
G37*
G36*
X138327906Y-43773796D02*
G01*
X138403377Y-43773796D01*
X138403377Y-43850000D01*
X138327906Y-43850000D01*
X138327906Y-43773796D01*
G37*
G36*
X138252435Y-43773796D02*
G01*
X138327906Y-43773796D01*
X138327906Y-43850000D01*
X138252435Y-43850000D01*
X138252435Y-43773796D01*
G37*
G36*
X138177208Y-43773796D02*
G01*
X138252679Y-43773796D01*
X138252679Y-43850000D01*
X138177208Y-43850000D01*
X138177208Y-43773796D01*
G37*
G36*
X138177208Y-43695638D02*
G01*
X138252679Y-43695638D01*
X138252679Y-43771842D01*
X138177208Y-43771842D01*
X138177208Y-43695638D01*
G37*
G36*
X138252435Y-43695638D02*
G01*
X138327906Y-43695638D01*
X138327906Y-43771842D01*
X138252435Y-43771842D01*
X138252435Y-43695638D01*
G37*
G36*
X138177208Y-43617480D02*
G01*
X138252679Y-43617480D01*
X138252679Y-43693684D01*
X138177208Y-43693684D01*
X138177208Y-43617480D01*
G37*
G36*
X138101737Y-43695638D02*
G01*
X138177208Y-43695638D01*
X138177208Y-43771842D01*
X138101737Y-43771842D01*
X138101737Y-43695638D01*
G37*
G36*
X138101737Y-43617480D02*
G01*
X138177208Y-43617480D01*
X138177208Y-43693684D01*
X138101737Y-43693684D01*
X138101737Y-43617480D01*
G37*
G36*
X138101737Y-43554954D02*
G01*
X138177208Y-43554954D01*
X138177208Y-43631158D01*
X138101737Y-43631158D01*
X138101737Y-43554954D01*
G37*
G36*
X138101737Y-43476796D02*
G01*
X138177208Y-43476796D01*
X138177208Y-43553000D01*
X138101737Y-43553000D01*
X138101737Y-43476796D01*
G37*
G36*
X138101737Y-43398639D02*
G01*
X138177208Y-43398639D01*
X138177208Y-43474842D01*
X138101737Y-43474842D01*
X138101737Y-43398639D01*
G37*
G36*
X138101737Y-43320481D02*
G01*
X138177208Y-43320481D01*
X138177208Y-43396685D01*
X138101737Y-43396685D01*
X138101737Y-43320481D01*
G37*
G36*
X138177208Y-43398639D02*
G01*
X138252679Y-43398639D01*
X138252679Y-43474842D01*
X138177208Y-43474842D01*
X138177208Y-43398639D01*
G37*
G36*
X138177208Y-43476796D02*
G01*
X138252679Y-43476796D01*
X138252679Y-43553000D01*
X138177208Y-43553000D01*
X138177208Y-43476796D01*
G37*
G36*
X138177208Y-43554954D02*
G01*
X138252679Y-43554954D01*
X138252679Y-43631158D01*
X138177208Y-43631158D01*
X138177208Y-43554954D01*
G37*
G36*
X138327906Y-43695638D02*
G01*
X138403377Y-43695638D01*
X138403377Y-43771842D01*
X138327906Y-43771842D01*
X138327906Y-43695638D01*
G37*
G36*
X138327906Y-43320481D02*
G01*
X138403377Y-43320481D01*
X138403377Y-43396685D01*
X138327906Y-43396685D01*
X138327906Y-43320481D01*
G37*
G36*
X139229162Y-43322435D02*
G01*
X139229162Y-43397906D01*
X139153691Y-43397906D01*
X139153691Y-43322435D01*
X139229162Y-43322435D01*
G37*
G36*
X139229162Y-43246964D02*
G01*
X139229162Y-43322435D01*
X139153691Y-43322435D01*
X139153691Y-43246964D01*
X139229162Y-43246964D01*
G37*
G36*
X139153691Y-43246964D02*
G01*
X139153691Y-43322435D01*
X139078464Y-43322435D01*
X139078464Y-43246964D01*
X139153691Y-43246964D01*
G37*
G36*
X139153691Y-43322435D02*
G01*
X139153691Y-43397906D01*
X139078464Y-43397906D01*
X139078464Y-43322435D01*
X139153691Y-43322435D01*
G37*
G36*
X139153691Y-43397906D02*
G01*
X139153691Y-43473133D01*
X139078464Y-43473133D01*
X139078464Y-43397906D01*
X139153691Y-43397906D01*
G37*
G36*
X139153691Y-43473133D02*
G01*
X139153691Y-43548604D01*
X139078464Y-43548604D01*
X139078464Y-43473133D01*
X139153691Y-43473133D01*
G37*
G36*
X139153691Y-43548604D02*
G01*
X139153691Y-43623831D01*
X139078464Y-43623831D01*
X139078464Y-43548604D01*
X139153691Y-43548604D01*
G37*
G36*
X139229162Y-43548604D02*
G01*
X139229162Y-43623831D01*
X139153691Y-43623831D01*
X139153691Y-43548604D01*
X139229162Y-43548604D01*
G37*
G36*
X139229162Y-43473133D02*
G01*
X139229162Y-43548604D01*
X139153691Y-43548604D01*
X139153691Y-43473133D01*
X139229162Y-43473133D01*
G37*
G36*
X139229162Y-43397906D02*
G01*
X139229162Y-43473133D01*
X139153691Y-43473133D01*
X139153691Y-43397906D01*
X139229162Y-43397906D01*
G37*
G36*
X139229162Y-43623831D02*
G01*
X139229162Y-43699302D01*
X139153691Y-43699302D01*
X139153691Y-43623831D01*
X139229162Y-43623831D01*
G37*
G36*
X139153691Y-43623831D02*
G01*
X139153691Y-43699302D01*
X139078464Y-43699302D01*
X139078464Y-43623831D01*
X139153691Y-43623831D01*
G37*
G36*
X139153691Y-43699302D02*
G01*
X139153691Y-43774528D01*
X139078464Y-43774528D01*
X139078464Y-43699302D01*
X139153691Y-43699302D01*
G37*
G36*
X139153691Y-43774528D02*
G01*
X139153691Y-43850000D01*
X139078464Y-43850000D01*
X139078464Y-43774528D01*
X139153691Y-43774528D01*
G37*
G36*
X139229162Y-43774528D02*
G01*
X139229162Y-43850000D01*
X139153691Y-43850000D01*
X139153691Y-43774528D01*
X139229162Y-43774528D01*
G37*
G36*
X139229162Y-43699302D02*
G01*
X139229162Y-43774528D01*
X139153691Y-43774528D01*
X139153691Y-43699302D01*
X139229162Y-43699302D01*
G37*
G36*
X138852295Y-43774528D02*
G01*
X138852295Y-43850000D01*
X138777069Y-43850000D01*
X138777069Y-43774528D01*
X138852295Y-43774528D01*
G37*
G36*
X138777069Y-43699302D02*
G01*
X138777069Y-43774528D01*
X138701598Y-43774528D01*
X138701598Y-43699302D01*
X138777069Y-43699302D01*
G37*
G36*
X138777069Y-43623831D02*
G01*
X138777069Y-43699302D01*
X138701598Y-43699302D01*
X138701598Y-43623831D01*
X138777069Y-43623831D01*
G37*
G36*
X138777069Y-43548604D02*
G01*
X138777069Y-43623831D01*
X138701598Y-43623831D01*
X138701598Y-43548604D01*
X138777069Y-43548604D01*
G37*
G36*
X138777069Y-43473133D02*
G01*
X138777069Y-43548604D01*
X138701598Y-43548604D01*
X138701598Y-43473133D01*
X138777069Y-43473133D01*
G37*
G36*
X138777069Y-43397906D02*
G01*
X138777069Y-43473133D01*
X138701598Y-43473133D01*
X138701598Y-43397906D01*
X138777069Y-43397906D01*
G37*
G36*
X138777069Y-43322435D02*
G01*
X138777069Y-43397906D01*
X138701598Y-43397906D01*
X138701598Y-43322435D01*
X138777069Y-43322435D01*
G37*
G36*
X138852295Y-43473133D02*
G01*
X138852295Y-43548604D01*
X138777069Y-43548604D01*
X138777069Y-43473133D01*
X138852295Y-43473133D01*
G37*
G36*
X138852295Y-43548604D02*
G01*
X138852295Y-43623831D01*
X138777069Y-43623831D01*
X138777069Y-43548604D01*
X138852295Y-43548604D01*
G37*
G36*
X138852295Y-43623831D02*
G01*
X138852295Y-43699302D01*
X138777069Y-43699302D01*
X138777069Y-43623831D01*
X138852295Y-43623831D01*
G37*
G36*
X138852295Y-43699302D02*
G01*
X138852295Y-43774528D01*
X138777069Y-43774528D01*
X138777069Y-43699302D01*
X138852295Y-43699302D01*
G37*
G36*
X138852295Y-43397906D02*
G01*
X138852295Y-43473133D01*
X138777069Y-43473133D01*
X138777069Y-43397906D01*
X138852295Y-43397906D01*
G37*
G36*
X138927766Y-43322435D02*
G01*
X138927766Y-43397906D01*
X138852295Y-43397906D01*
X138852295Y-43322435D01*
X138927766Y-43322435D01*
G37*
G36*
X138927766Y-43246964D02*
G01*
X138927766Y-43322435D01*
X138852295Y-43322435D01*
X138852295Y-43246964D01*
X138927766Y-43246964D01*
G37*
G36*
X138852295Y-43246964D02*
G01*
X138852295Y-43322435D01*
X138777069Y-43322435D01*
X138777069Y-43246964D01*
X138852295Y-43246964D01*
G37*
G36*
X138852295Y-43322435D02*
G01*
X138852295Y-43397906D01*
X138777069Y-43397906D01*
X138777069Y-43322435D01*
X138852295Y-43322435D01*
G37*
G36*
X139002993Y-43246964D02*
G01*
X139002993Y-43322435D01*
X138927766Y-43322435D01*
X138927766Y-43246964D01*
X139002993Y-43246964D01*
G37*
G36*
X139229162Y-43096266D02*
G01*
X139229162Y-43171737D01*
X139153691Y-43171737D01*
X139153691Y-43096266D01*
X139229162Y-43096266D01*
G37*
G36*
X139153691Y-43096266D02*
G01*
X139153691Y-43171737D01*
X139078464Y-43171737D01*
X139078464Y-43096266D01*
X139153691Y-43096266D01*
G37*
G36*
X139153691Y-43171737D02*
G01*
X139153691Y-43246964D01*
X139078464Y-43246964D01*
X139078464Y-43171737D01*
X139153691Y-43171737D01*
G37*
G36*
X139229162Y-43171737D02*
G01*
X139229162Y-43246964D01*
X139153691Y-43246964D01*
X139153691Y-43171737D01*
X139229162Y-43171737D01*
G37*
G36*
X139002993Y-43774528D02*
G01*
X139002993Y-43850000D01*
X138927766Y-43850000D01*
X138927766Y-43774528D01*
X139002993Y-43774528D01*
G37*
G36*
X138927766Y-43774528D02*
G01*
X138927766Y-43850000D01*
X138852295Y-43850000D01*
X138852295Y-43774528D01*
X138927766Y-43774528D01*
G37*
G36*
X138927766Y-43699302D02*
G01*
X138927766Y-43774528D01*
X138852295Y-43774528D01*
X138852295Y-43699302D01*
X138927766Y-43699302D01*
G37*
G36*
X139002993Y-43699302D02*
G01*
X139002993Y-43774528D01*
X138927766Y-43774528D01*
X138927766Y-43699302D01*
X139002993Y-43699302D01*
G37*
G36*
X139078464Y-43699302D02*
G01*
X139078464Y-43774528D01*
X139002993Y-43774528D01*
X139002993Y-43699302D01*
X139078464Y-43699302D01*
G37*
G36*
X139078464Y-43246964D02*
G01*
X139078464Y-43322435D01*
X139002993Y-43322435D01*
X139002993Y-43246964D01*
X139078464Y-43246964D01*
G37*
G36*
X139078464Y-43322435D02*
G01*
X139078464Y-43397906D01*
X139002993Y-43397906D01*
X139002993Y-43322435D01*
X139078464Y-43322435D01*
G37*
G36*
X139002993Y-43322435D02*
G01*
X139002993Y-43397906D01*
X138927766Y-43397906D01*
X138927766Y-43322435D01*
X139002993Y-43322435D01*
G37*
G36*
X139452156Y-43242323D02*
G01*
X139527627Y-43242323D01*
X139527627Y-43318527D01*
X139452156Y-43318527D01*
X139452156Y-43242323D01*
G37*
G36*
X139376929Y-43242323D02*
G01*
X139452400Y-43242323D01*
X139452400Y-43318527D01*
X139376929Y-43318527D01*
X139376929Y-43242323D01*
G37*
G36*
X139376929Y-43320481D02*
G01*
X139452400Y-43320481D01*
X139452400Y-43396685D01*
X139376929Y-43396685D01*
X139376929Y-43320481D01*
G37*
G36*
X139452156Y-43320481D02*
G01*
X139527627Y-43320481D01*
X139527627Y-43396685D01*
X139452156Y-43396685D01*
X139452156Y-43320481D01*
G37*
G36*
X139527627Y-43242323D02*
G01*
X139603098Y-43242323D01*
X139603098Y-43318527D01*
X139527627Y-43318527D01*
X139527627Y-43242323D01*
G37*
G36*
X139602854Y-43242323D02*
G01*
X139678325Y-43242323D01*
X139678325Y-43318527D01*
X139602854Y-43318527D01*
X139602854Y-43242323D01*
G37*
G36*
X139678325Y-43242323D02*
G01*
X139753796Y-43242323D01*
X139753796Y-43318527D01*
X139678325Y-43318527D01*
X139678325Y-43242323D01*
G37*
G36*
X139678325Y-43320481D02*
G01*
X139753796Y-43320481D01*
X139753796Y-43396685D01*
X139678325Y-43396685D01*
X139678325Y-43320481D01*
G37*
G36*
X139602854Y-43320481D02*
G01*
X139678325Y-43320481D01*
X139678325Y-43396685D01*
X139602854Y-43396685D01*
X139602854Y-43320481D01*
G37*
G36*
X139753551Y-43320481D02*
G01*
X139829023Y-43320481D01*
X139829023Y-43396685D01*
X139753551Y-43396685D01*
X139753551Y-43320481D01*
G37*
G36*
X139753551Y-43398639D02*
G01*
X139829023Y-43398639D01*
X139829023Y-43474842D01*
X139753551Y-43474842D01*
X139753551Y-43398639D01*
G37*
G36*
X139753551Y-43695638D02*
G01*
X139829023Y-43695638D01*
X139829023Y-43771842D01*
X139753551Y-43771842D01*
X139753551Y-43695638D01*
G37*
G36*
X139678325Y-43695638D02*
G01*
X139753796Y-43695638D01*
X139753796Y-43771842D01*
X139678325Y-43771842D01*
X139678325Y-43695638D01*
G37*
G36*
X139678325Y-43398639D02*
G01*
X139753796Y-43398639D01*
X139753796Y-43474842D01*
X139678325Y-43474842D01*
X139678325Y-43398639D01*
G37*
G36*
X139602854Y-43695638D02*
G01*
X139678325Y-43695638D01*
X139678325Y-43771842D01*
X139602854Y-43771842D01*
X139602854Y-43695638D01*
G37*
G36*
X139678325Y-43773796D02*
G01*
X139753796Y-43773796D01*
X139753796Y-43850000D01*
X139678325Y-43850000D01*
X139678325Y-43773796D01*
G37*
G36*
X139602854Y-43773796D02*
G01*
X139678325Y-43773796D01*
X139678325Y-43850000D01*
X139602854Y-43850000D01*
X139602854Y-43773796D01*
G37*
G36*
X139527627Y-43773796D02*
G01*
X139603098Y-43773796D01*
X139603098Y-43850000D01*
X139527627Y-43850000D01*
X139527627Y-43773796D01*
G37*
G36*
X139452156Y-43773796D02*
G01*
X139527627Y-43773796D01*
X139527627Y-43850000D01*
X139452156Y-43850000D01*
X139452156Y-43773796D01*
G37*
G36*
X139376929Y-43773796D02*
G01*
X139452400Y-43773796D01*
X139452400Y-43850000D01*
X139376929Y-43850000D01*
X139376929Y-43773796D01*
G37*
G36*
X139376929Y-43695638D02*
G01*
X139452400Y-43695638D01*
X139452400Y-43771842D01*
X139376929Y-43771842D01*
X139376929Y-43695638D01*
G37*
G36*
X139452156Y-43695638D02*
G01*
X139527627Y-43695638D01*
X139527627Y-43771842D01*
X139452156Y-43771842D01*
X139452156Y-43695638D01*
G37*
G36*
X139376929Y-43617480D02*
G01*
X139452400Y-43617480D01*
X139452400Y-43693684D01*
X139376929Y-43693684D01*
X139376929Y-43617480D01*
G37*
G36*
X139301458Y-43695638D02*
G01*
X139376929Y-43695638D01*
X139376929Y-43771842D01*
X139301458Y-43771842D01*
X139301458Y-43695638D01*
G37*
G36*
X139301458Y-43617480D02*
G01*
X139376929Y-43617480D01*
X139376929Y-43693684D01*
X139301458Y-43693684D01*
X139301458Y-43617480D01*
G37*
G36*
X139301458Y-43554954D02*
G01*
X139376929Y-43554954D01*
X139376929Y-43631158D01*
X139301458Y-43631158D01*
X139301458Y-43554954D01*
G37*
G36*
X139301458Y-43476796D02*
G01*
X139376929Y-43476796D01*
X139376929Y-43553000D01*
X139301458Y-43553000D01*
X139301458Y-43476796D01*
G37*
G36*
X139301458Y-43398639D02*
G01*
X139376929Y-43398639D01*
X139376929Y-43474842D01*
X139301458Y-43474842D01*
X139301458Y-43398639D01*
G37*
G36*
X139301458Y-43320481D02*
G01*
X139376929Y-43320481D01*
X139376929Y-43396685D01*
X139301458Y-43396685D01*
X139301458Y-43320481D01*
G37*
G36*
X139376929Y-43398639D02*
G01*
X139452400Y-43398639D01*
X139452400Y-43474842D01*
X139376929Y-43474842D01*
X139376929Y-43398639D01*
G37*
G36*
X139376929Y-43476796D02*
G01*
X139452400Y-43476796D01*
X139452400Y-43553000D01*
X139376929Y-43553000D01*
X139376929Y-43476796D01*
G37*
G36*
X139376929Y-43554954D02*
G01*
X139452400Y-43554954D01*
X139452400Y-43631158D01*
X139376929Y-43631158D01*
X139376929Y-43554954D01*
G37*
G36*
X139527627Y-43695638D02*
G01*
X139603098Y-43695638D01*
X139603098Y-43771842D01*
X139527627Y-43771842D01*
X139527627Y-43695638D01*
G37*
G36*
X139527627Y-43320481D02*
G01*
X139603098Y-43320481D01*
X139603098Y-43396685D01*
X139527627Y-43396685D01*
X139527627Y-43320481D01*
G37*
G36*
X139678325Y-43476796D02*
G01*
X139753796Y-43476796D01*
X139753796Y-43553000D01*
X139678325Y-43553000D01*
X139678325Y-43476796D01*
G37*
G36*
X139753551Y-43476796D02*
G01*
X139829023Y-43476796D01*
X139829023Y-43553000D01*
X139753551Y-43553000D01*
X139753551Y-43476796D01*
G37*
G36*
X139452156Y-43554954D02*
G01*
X139527627Y-43554954D01*
X139527627Y-43631158D01*
X139452156Y-43631158D01*
X139452156Y-43554954D01*
G37*
G36*
X139527627Y-43554954D02*
G01*
X139603098Y-43554954D01*
X139603098Y-43631158D01*
X139527627Y-43631158D01*
X139527627Y-43554954D01*
G37*
G36*
X139602854Y-43554954D02*
G01*
X139678325Y-43554954D01*
X139678325Y-43631158D01*
X139602854Y-43631158D01*
X139602854Y-43554954D01*
G37*
G36*
X139678325Y-43554954D02*
G01*
X139753796Y-43554954D01*
X139753796Y-43631158D01*
X139678325Y-43631158D01*
X139678325Y-43554954D01*
G37*
G36*
X139753551Y-43554954D02*
G01*
X139829023Y-43554954D01*
X139829023Y-43631158D01*
X139753551Y-43631158D01*
X139753551Y-43554954D01*
G37*
G36*
X139602854Y-43476796D02*
G01*
X139678325Y-43476796D01*
X139678325Y-43553000D01*
X139602854Y-43553000D01*
X139602854Y-43476796D01*
G37*
G36*
X139527627Y-43476796D02*
G01*
X139603098Y-43476796D01*
X139603098Y-43553000D01*
X139527627Y-43553000D01*
X139527627Y-43476796D01*
G37*
G36*
X139452156Y-43476796D02*
G01*
X139527627Y-43476796D01*
X139527627Y-43553000D01*
X139452156Y-43553000D01*
X139452156Y-43476796D01*
G37*
D10*
X87964285Y2051110D02*
X87964285Y1551110D01*
X87964285Y1551110D02*
X87773809Y1551110D01*
X87773809Y1551110D02*
X87726190Y1574920D01*
X87726190Y1574920D02*
X87702380Y1598729D01*
X87702380Y1598729D02*
X87678571Y1646348D01*
X87678571Y1646348D02*
X87678571Y1717777D01*
X87678571Y1717777D02*
X87702380Y1765396D01*
X87702380Y1765396D02*
X87726190Y1789205D01*
X87726190Y1789205D02*
X87773809Y1813015D01*
X87773809Y1813015D02*
X87964285Y1813015D01*
X87178571Y2003491D02*
X87202380Y2027300D01*
X87202380Y2027300D02*
X87273809Y2051110D01*
X87273809Y2051110D02*
X87321428Y2051110D01*
X87321428Y2051110D02*
X87392856Y2027300D01*
X87392856Y2027300D02*
X87440475Y1979681D01*
X87440475Y1979681D02*
X87464285Y1932062D01*
X87464285Y1932062D02*
X87488094Y1836824D01*
X87488094Y1836824D02*
X87488094Y1765396D01*
X87488094Y1765396D02*
X87464285Y1670158D01*
X87464285Y1670158D02*
X87440475Y1622539D01*
X87440475Y1622539D02*
X87392856Y1574920D01*
X87392856Y1574920D02*
X87321428Y1551110D01*
X87321428Y1551110D02*
X87273809Y1551110D01*
X87273809Y1551110D02*
X87202380Y1574920D01*
X87202380Y1574920D02*
X87178571Y1598729D01*
X86797618Y1789205D02*
X86726190Y1813015D01*
X86726190Y1813015D02*
X86702380Y1836824D01*
X86702380Y1836824D02*
X86678571Y1884443D01*
X86678571Y1884443D02*
X86678571Y1955872D01*
X86678571Y1955872D02*
X86702380Y2003491D01*
X86702380Y2003491D02*
X86726190Y2027300D01*
X86726190Y2027300D02*
X86773809Y2051110D01*
X86773809Y2051110D02*
X86964285Y2051110D01*
X86964285Y2051110D02*
X86964285Y1551110D01*
X86964285Y1551110D02*
X86797618Y1551110D01*
X86797618Y1551110D02*
X86749999Y1574920D01*
X86749999Y1574920D02*
X86726190Y1598729D01*
X86726190Y1598729D02*
X86702380Y1646348D01*
X86702380Y1646348D02*
X86702380Y1693967D01*
X86702380Y1693967D02*
X86726190Y1741586D01*
X86726190Y1741586D02*
X86749999Y1765396D01*
X86749999Y1765396D02*
X86797618Y1789205D01*
X86797618Y1789205D02*
X86964285Y1789205D01*
X86083333Y1789205D02*
X85916666Y1789205D01*
X85845238Y2051110D02*
X86083333Y2051110D01*
X86083333Y2051110D02*
X86083333Y1551110D01*
X86083333Y1551110D02*
X85845238Y1551110D01*
X85416666Y2051110D02*
X85416666Y1551110D01*
X85416666Y2027300D02*
X85464285Y2051110D01*
X85464285Y2051110D02*
X85559523Y2051110D01*
X85559523Y2051110D02*
X85607142Y2027300D01*
X85607142Y2027300D02*
X85630952Y2003491D01*
X85630952Y2003491D02*
X85654761Y1955872D01*
X85654761Y1955872D02*
X85654761Y1813015D01*
X85654761Y1813015D02*
X85630952Y1765396D01*
X85630952Y1765396D02*
X85607142Y1741586D01*
X85607142Y1741586D02*
X85559523Y1717777D01*
X85559523Y1717777D02*
X85464285Y1717777D01*
X85464285Y1717777D02*
X85416666Y1741586D01*
X84964285Y1717777D02*
X84964285Y2122539D01*
X84964285Y2122539D02*
X84988095Y2170158D01*
X84988095Y2170158D02*
X85011904Y2193967D01*
X85011904Y2193967D02*
X85059523Y2217777D01*
X85059523Y2217777D02*
X85130952Y2217777D01*
X85130952Y2217777D02*
X85178571Y2193967D01*
X84964285Y2027300D02*
X85011904Y2051110D01*
X85011904Y2051110D02*
X85107142Y2051110D01*
X85107142Y2051110D02*
X85154761Y2027300D01*
X85154761Y2027300D02*
X85178571Y2003491D01*
X85178571Y2003491D02*
X85202380Y1955872D01*
X85202380Y1955872D02*
X85202380Y1813015D01*
X85202380Y1813015D02*
X85178571Y1765396D01*
X85178571Y1765396D02*
X85154761Y1741586D01*
X85154761Y1741586D02*
X85107142Y1717777D01*
X85107142Y1717777D02*
X85011904Y1717777D01*
X85011904Y1717777D02*
X84964285Y1741586D01*
X84535714Y2027300D02*
X84583333Y2051110D01*
X84583333Y2051110D02*
X84678571Y2051110D01*
X84678571Y2051110D02*
X84726190Y2027300D01*
X84726190Y2027300D02*
X84749999Y1979681D01*
X84749999Y1979681D02*
X84749999Y1789205D01*
X84749999Y1789205D02*
X84726190Y1741586D01*
X84726190Y1741586D02*
X84678571Y1717777D01*
X84678571Y1717777D02*
X84583333Y1717777D01*
X84583333Y1717777D02*
X84535714Y1741586D01*
X84535714Y1741586D02*
X84511904Y1789205D01*
X84511904Y1789205D02*
X84511904Y1836824D01*
X84511904Y1836824D02*
X84749999Y1884443D01*
%TO.C,SW1*%
X22462500Y-31050000D02*
X22462500Y-50100000D01*
X22462500Y-50100000D02*
X51037500Y-50100000D01*
X51037500Y-31050000D02*
X22462500Y-31050000D01*
X51037500Y-50100000D02*
X51037500Y-31050000D01*
%TO.C,SW0*%
X76725000Y-7050000D02*
X76725000Y-26100000D01*
X76725000Y-26100000D02*
X95775000Y-26100000D01*
X95775000Y-7050000D02*
X76725000Y-7050000D01*
X95775000Y-26100000D02*
X95775000Y-7050000D01*
%TO.C,SW4*%
X121462500Y-31050000D02*
X121462500Y-50100000D01*
X121462500Y-50100000D02*
X150037500Y-50100000D01*
X150037500Y-31050000D02*
X121462500Y-31050000D01*
X150037500Y-50100000D02*
X150037500Y-31050000D01*
%TO.C,SW2*%
X55462500Y-31050000D02*
X55462500Y-50100000D01*
X55462500Y-50100000D02*
X84037500Y-50100000D01*
X84037500Y-31050000D02*
X55462500Y-31050000D01*
X84037500Y-50100000D02*
X84037500Y-31050000D01*
%TO.C,SW5*%
X31818750Y-73050000D02*
X31818750Y-92100000D01*
X31818750Y-92100000D02*
X74681250Y-92100000D01*
X74681250Y-73050000D02*
X31818750Y-73050000D01*
X74681250Y-92100000D02*
X74681250Y-73050000D01*
%TO.C,SW3*%
X88462500Y-31050000D02*
X88462500Y-50100000D01*
X88462500Y-50100000D02*
X117037500Y-50100000D01*
X117037500Y-31050000D02*
X88462500Y-31050000D01*
X117037500Y-50100000D02*
X117037500Y-31050000D01*
%TO.C,SW6*%
X97818750Y-73050000D02*
X97818750Y-92100000D01*
X97818750Y-92100000D02*
X140681250Y-92100000D01*
X140681250Y-73050000D02*
X97818750Y-73050000D01*
X140681250Y-92100000D02*
X140681250Y-73050000D01*
%TO.C,J1*%
X91250000Y2425000D02*
X81250000Y2425000D01*
%TD*%
M02*
