%TF.GenerationSoftware,KiCad,Pcbnew,8.0.3*%
%TF.CreationDate,2024-09-11T20:53:50+08:00*%
%TF.ProjectId,PH-AC,50482d41-432e-46b6-9963-61645f706362,Rev2.2*%
%TF.SameCoordinates,PX405f7e0PY328b740*%
%TF.FileFunction,Soldermask,Top*%
%TF.FilePolarity,Negative*%
%FSLAX46Y46*%
G04 Gerber Fmt 4.6, Leading zero omitted, Abs format (unit mm)*
G04 Created by KiCad (PCBNEW 8.0.3) date 2024-09-11 20:53:50*
%MOMM*%
%LPD*%
G01*
G04 APERTURE LIST*
%ADD10C,1.750000*%
%ADD11C,3.050000*%
%ADD12C,4.000000*%
%ADD13C,10.000000*%
%ADD14R,2.000000X2.000000*%
%ADD15C,2.000000*%
%ADD16R,3.200000X2.000000*%
%ADD17C,0.650000*%
%ADD18R,1.350000X1.350000*%
%ADD19O,1.350000X1.350000*%
%ADD20R,1.700000X1.700000*%
%ADD21O,1.700000X1.700000*%
G04 APERTURE END LIST*
D10*
%TO.C,BT-A*%
X31670000Y-40575000D03*
D11*
X32940000Y-38035000D03*
D12*
X36750000Y-40575000D03*
D11*
X39290000Y-35495000D03*
D10*
X41830000Y-40575000D03*
%TD*%
D13*
%TO.C,H6*%
X151250000Y-73575000D03*
%TD*%
%TO.C,H4*%
X166250000Y-47575000D03*
%TD*%
D10*
%TO.C,START*%
X81170000Y-16575000D03*
D11*
X82440000Y-14035000D03*
D12*
X86250000Y-16575000D03*
D11*
X88790000Y-11495000D03*
D10*
X91330000Y-16575000D03*
%TD*%
D13*
%TO.C,H1*%
X27250000Y-11575000D03*
%TD*%
%TO.C,H2*%
X145250000Y-11575000D03*
%TD*%
D10*
%TO.C,BT-D*%
X130670000Y-40575000D03*
D11*
X131940000Y-38035000D03*
D12*
X135750000Y-40575000D03*
D11*
X138290000Y-35495000D03*
D10*
X140830000Y-40575000D03*
%TD*%
%TO.C,BT-B*%
X64670000Y-40575000D03*
D11*
X65940000Y-38035000D03*
D12*
X69750000Y-40575000D03*
D11*
X72290000Y-35495000D03*
D10*
X74830000Y-40575000D03*
%TD*%
%TO.C,FX-L*%
X48170000Y-82575000D03*
D11*
X49440000Y-80035000D03*
D12*
X53250000Y-82575000D03*
D11*
X55790000Y-77495000D03*
D10*
X58330000Y-82575000D03*
%TD*%
D13*
%TO.C,H3*%
X6250000Y-47575000D03*
%TD*%
D10*
%TO.C,BT-C*%
X97670000Y-40575000D03*
D11*
X98940000Y-38035000D03*
D12*
X102750000Y-40575000D03*
D11*
X105290000Y-35495000D03*
D10*
X107830000Y-40575000D03*
%TD*%
%TO.C,FX-R*%
X114170000Y-82575000D03*
D11*
X115440000Y-80035000D03*
D12*
X119250000Y-82575000D03*
D11*
X121790000Y-77495000D03*
D10*
X124330000Y-82575000D03*
%TD*%
D14*
%TO.C,VOR-R*%
X161750000Y-10175000D03*
D15*
X161750000Y-15175000D03*
X161750000Y-12675000D03*
D16*
X169250000Y-7075000D03*
X169250000Y-18275000D03*
D15*
X176250000Y-15175000D03*
X176250000Y-10175000D03*
%TD*%
D14*
%TO.C,VOR-L*%
X-4250000Y-10175000D03*
D15*
X-4250000Y-15175000D03*
X-4250000Y-12675000D03*
D16*
X3250000Y-7075000D03*
X3250000Y-18275000D03*
D15*
X10250000Y-15175000D03*
X10250000Y-10175000D03*
%TD*%
D13*
%TO.C,H5*%
X21250000Y-73575000D03*
%TD*%
%TO.C,H7*%
X71250000Y-62575000D03*
%TD*%
%TO.C,H8*%
X101250000Y-62575000D03*
%TD*%
D17*
%TO.C,J1*%
X83360000Y-3855000D03*
X89140000Y-3855000D03*
%TD*%
D18*
%TO.C,JP1*%
X136650000Y-21225000D03*
D19*
X136650000Y-23225000D03*
%TD*%
D20*
%TO.C,J2*%
X101780000Y-17225000D03*
D21*
X99240000Y-17225000D03*
X96700000Y-17225000D03*
%TD*%
M02*
