%TF.GenerationSoftware,KiCad,Pcbnew,8.0.3*%
%TF.CreationDate,2024-12-03T01:45:02+08:00*%
%TF.ProjectId,PH-AC,50482d41-432e-46b6-9963-61645f706362,Rev2.3*%
%TF.SameCoordinates,PX405f7e0PY328b740*%
%TF.FileFunction,Plated,1,2,PTH,Mixed*%
%TF.FilePolarity,Positive*%
%FSLAX46Y46*%
G04 Gerber Fmt 4.6, Leading zero omitted, Abs format (unit mm)*
G04 Created by KiCad (PCBNEW 8.0.3) date 2024-12-03 01:45:02*
%MOMM*%
%LPD*%
G01*
G04 APERTURE LIST*
%TA.AperFunction,ViaDrill*%
%ADD10C,0.300000*%
%TD*%
%TA.AperFunction,ComponentDrill*%
%ADD11C,0.800000*%
%TD*%
%TA.AperFunction,ComponentDrill*%
%ADD12C,1.000000*%
%TD*%
G04 aperture for slot hole*
%TA.AperFunction,ComponentDrill*%
%ADD13C,1.500000*%
%TD*%
G04 APERTURE END LIST*
D10*
X3120000Y-3660000D03*
X3220000Y-22740000D03*
X13480000Y-12240000D03*
X14860000Y-15530000D03*
X14890000Y-9280000D03*
X18750000Y-13310000D03*
X19030000Y-10730000D03*
X26910000Y-18300000D03*
X38250000Y-28025000D03*
X44600000Y-35475000D03*
X61100000Y-77475000D03*
X64650000Y-30025000D03*
X76725000Y-18650000D03*
X77600000Y-35475000D03*
X79300000Y-425000D03*
X79300000Y-4325000D03*
X88073060Y-3655000D03*
X91350000Y-6075000D03*
X93200000Y-425000D03*
X93250000Y-2375000D03*
X94100000Y-11475000D03*
X96100000Y-8175000D03*
X97100000Y-13190000D03*
X98600000Y-30925000D03*
X99250000Y-19040000D03*
X99310000Y-15550000D03*
X102040000Y-13050000D03*
X105550000Y-13875000D03*
X110370000Y-10925000D03*
X110600000Y-35475000D03*
X112942892Y-11867892D03*
X113150000Y-3925000D03*
X113275000Y-22500000D03*
X113770000Y-6300000D03*
X114780000Y-22980000D03*
X115950000Y-21950000D03*
X115975000Y-6050000D03*
X116250735Y-13974265D03*
X116450000Y-18200000D03*
X116667157Y-25906373D03*
X117900000Y-18600000D03*
X118500000Y-11725000D03*
X118750000Y-20850000D03*
X118750000Y-23824265D03*
X119325000Y-5525000D03*
X119550000Y-20450000D03*
X119825000Y-6650000D03*
X120350003Y-20100000D03*
X120750000Y-13775000D03*
X120800000Y-9425000D03*
X121000000Y-11125000D03*
X121150006Y-19875000D03*
X121650000Y-17476472D03*
X122250000Y-29075000D03*
X122250000Y-30675000D03*
X122700000Y-5925000D03*
X124150000Y-3825000D03*
X124150000Y-17475000D03*
X125000000Y-6475000D03*
X125700000Y-31475000D03*
X125910000Y-35430000D03*
X127100000Y-77475000D03*
X127341422Y-6333578D03*
X127400000Y-4875000D03*
X127800000Y-25575000D03*
X129500000Y-11775000D03*
X129600000Y-7975000D03*
X130310000Y-13860000D03*
X133550000Y-13875000D03*
X134790000Y-11530000D03*
X136430000Y-47120000D03*
X143600000Y-35475000D03*
X154200000Y-14200000D03*
X154300000Y-6025000D03*
X155840000Y-9160000D03*
X156680000Y-16460000D03*
X159340000Y-12310000D03*
D11*
%TO.C,JP1*%
X134425000Y-45525000D03*
X136425000Y-45525000D03*
D12*
%TO.C,VO1*%
X-3750000Y-10250000D03*
X-3750000Y-15250000D03*
X10750000Y-10250000D03*
X10750000Y-12750000D03*
X10750000Y-15250000D03*
%TO.C,J2*%
X96700000Y-17225000D03*
X99240000Y-17225000D03*
X101780000Y-17225000D03*
%TO.C,VO2*%
X161750000Y-10175000D03*
X161750000Y-12675000D03*
X161750000Y-15175000D03*
X176250000Y-10175000D03*
X176250000Y-15175000D03*
D13*
%TO.C,VO1*%
X2600000Y-7150000D02*
X3900000Y-7150000D01*
X2600000Y-18350000D02*
X3900000Y-18350000D01*
%TO.C,VO2*%
X169900000Y-7075000D02*
X168600000Y-7075000D01*
X169900000Y-18275000D02*
X168600000Y-18275000D01*
M02*
