%TF.GenerationSoftware,KiCad,Pcbnew,8.0.3*%
%TF.CreationDate,2024-07-23T01:45:48+08:00*%
%TF.ProjectId,PH-AC,50482d41-432e-46b6-9963-61645f706362,rev?*%
%TF.SameCoordinates,PX405f7e0PY328b740*%
%TF.FileFunction,Legend,Top*%
%TF.FilePolarity,Positive*%
%FSLAX46Y46*%
G04 Gerber Fmt 4.6, Leading zero omitted, Abs format (unit mm)*
G04 Created by KiCad (PCBNEW 8.0.3) date 2024-07-23 01:45:48*
%MOMM*%
%LPD*%
G01*
G04 APERTURE LIST*
%ADD10C,0.150000*%
%ADD11C,0.120000*%
G04 APERTURE END LIST*
D10*
X49166667Y-35407200D02*
X49309524Y-35454819D01*
X49309524Y-35454819D02*
X49547619Y-35454819D01*
X49547619Y-35454819D02*
X49642857Y-35407200D01*
X49642857Y-35407200D02*
X49690476Y-35359580D01*
X49690476Y-35359580D02*
X49738095Y-35264342D01*
X49738095Y-35264342D02*
X49738095Y-35169104D01*
X49738095Y-35169104D02*
X49690476Y-35073866D01*
X49690476Y-35073866D02*
X49642857Y-35026247D01*
X49642857Y-35026247D02*
X49547619Y-34978628D01*
X49547619Y-34978628D02*
X49357143Y-34931009D01*
X49357143Y-34931009D02*
X49261905Y-34883390D01*
X49261905Y-34883390D02*
X49214286Y-34835771D01*
X49214286Y-34835771D02*
X49166667Y-34740533D01*
X49166667Y-34740533D02*
X49166667Y-34645295D01*
X49166667Y-34645295D02*
X49214286Y-34550057D01*
X49214286Y-34550057D02*
X49261905Y-34502438D01*
X49261905Y-34502438D02*
X49357143Y-34454819D01*
X49357143Y-34454819D02*
X49595238Y-34454819D01*
X49595238Y-34454819D02*
X49738095Y-34502438D01*
X50071429Y-34454819D02*
X50309524Y-35454819D01*
X50309524Y-35454819D02*
X50500000Y-34740533D01*
X50500000Y-34740533D02*
X50690476Y-35454819D01*
X50690476Y-35454819D02*
X50928572Y-34454819D01*
X51738095Y-34788152D02*
X51738095Y-35454819D01*
X51500000Y-34407200D02*
X51261905Y-35121485D01*
X51261905Y-35121485D02*
X51880952Y-35121485D01*
X164238095Y-76604819D02*
X164238095Y-75604819D01*
X164238095Y-76081009D02*
X164809523Y-76081009D01*
X164809523Y-76604819D02*
X164809523Y-75604819D01*
X165714285Y-75604819D02*
X165523809Y-75604819D01*
X165523809Y-75604819D02*
X165428571Y-75652438D01*
X165428571Y-75652438D02*
X165380952Y-75700057D01*
X165380952Y-75700057D02*
X165285714Y-75842914D01*
X165285714Y-75842914D02*
X165238095Y-76033390D01*
X165238095Y-76033390D02*
X165238095Y-76414342D01*
X165238095Y-76414342D02*
X165285714Y-76509580D01*
X165285714Y-76509580D02*
X165333333Y-76557200D01*
X165333333Y-76557200D02*
X165428571Y-76604819D01*
X165428571Y-76604819D02*
X165619047Y-76604819D01*
X165619047Y-76604819D02*
X165714285Y-76557200D01*
X165714285Y-76557200D02*
X165761904Y-76509580D01*
X165761904Y-76509580D02*
X165809523Y-76414342D01*
X165809523Y-76414342D02*
X165809523Y-76176247D01*
X165809523Y-76176247D02*
X165761904Y-76081009D01*
X165761904Y-76081009D02*
X165714285Y-76033390D01*
X165714285Y-76033390D02*
X165619047Y-75985771D01*
X165619047Y-75985771D02*
X165428571Y-75985771D01*
X165428571Y-75985771D02*
X165333333Y-76033390D01*
X165333333Y-76033390D02*
X165285714Y-76081009D01*
X165285714Y-76081009D02*
X165238095Y-76176247D01*
X179238095Y-46604819D02*
X179238095Y-45604819D01*
X179238095Y-46081009D02*
X179809523Y-46081009D01*
X179809523Y-46604819D02*
X179809523Y-45604819D01*
X180714285Y-45938152D02*
X180714285Y-46604819D01*
X180476190Y-45557200D02*
X180238095Y-46271485D01*
X180238095Y-46271485D02*
X180857142Y-46271485D01*
X98666667Y-11407200D02*
X98809524Y-11454819D01*
X98809524Y-11454819D02*
X99047619Y-11454819D01*
X99047619Y-11454819D02*
X99142857Y-11407200D01*
X99142857Y-11407200D02*
X99190476Y-11359580D01*
X99190476Y-11359580D02*
X99238095Y-11264342D01*
X99238095Y-11264342D02*
X99238095Y-11169104D01*
X99238095Y-11169104D02*
X99190476Y-11073866D01*
X99190476Y-11073866D02*
X99142857Y-11026247D01*
X99142857Y-11026247D02*
X99047619Y-10978628D01*
X99047619Y-10978628D02*
X98857143Y-10931009D01*
X98857143Y-10931009D02*
X98761905Y-10883390D01*
X98761905Y-10883390D02*
X98714286Y-10835771D01*
X98714286Y-10835771D02*
X98666667Y-10740533D01*
X98666667Y-10740533D02*
X98666667Y-10645295D01*
X98666667Y-10645295D02*
X98714286Y-10550057D01*
X98714286Y-10550057D02*
X98761905Y-10502438D01*
X98761905Y-10502438D02*
X98857143Y-10454819D01*
X98857143Y-10454819D02*
X99095238Y-10454819D01*
X99095238Y-10454819D02*
X99238095Y-10502438D01*
X99571429Y-10454819D02*
X99809524Y-11454819D01*
X99809524Y-11454819D02*
X100000000Y-10740533D01*
X100000000Y-10740533D02*
X100190476Y-11454819D01*
X100190476Y-11454819D02*
X100428572Y-10454819D01*
X100857143Y-11454819D02*
X101047619Y-11454819D01*
X101047619Y-11454819D02*
X101142857Y-11407200D01*
X101142857Y-11407200D02*
X101190476Y-11359580D01*
X101190476Y-11359580D02*
X101285714Y-11216723D01*
X101285714Y-11216723D02*
X101333333Y-11026247D01*
X101333333Y-11026247D02*
X101333333Y-10645295D01*
X101333333Y-10645295D02*
X101285714Y-10550057D01*
X101285714Y-10550057D02*
X101238095Y-10502438D01*
X101238095Y-10502438D02*
X101142857Y-10454819D01*
X101142857Y-10454819D02*
X100952381Y-10454819D01*
X100952381Y-10454819D02*
X100857143Y-10502438D01*
X100857143Y-10502438D02*
X100809524Y-10550057D01*
X100809524Y-10550057D02*
X100761905Y-10645295D01*
X100761905Y-10645295D02*
X100761905Y-10883390D01*
X100761905Y-10883390D02*
X100809524Y-10978628D01*
X100809524Y-10978628D02*
X100857143Y-11026247D01*
X100857143Y-11026247D02*
X100952381Y-11073866D01*
X100952381Y-11073866D02*
X101142857Y-11073866D01*
X101142857Y-11073866D02*
X101238095Y-11026247D01*
X101238095Y-11026247D02*
X101285714Y-10978628D01*
X101285714Y-10978628D02*
X101333333Y-10883390D01*
X44238095Y-6604819D02*
X44238095Y-5604819D01*
X44238095Y-6081009D02*
X44809523Y-6081009D01*
X44809523Y-6604819D02*
X44809523Y-5604819D01*
X45809523Y-6604819D02*
X45238095Y-6604819D01*
X45523809Y-6604819D02*
X45523809Y-5604819D01*
X45523809Y-5604819D02*
X45428571Y-5747676D01*
X45428571Y-5747676D02*
X45333333Y-5842914D01*
X45333333Y-5842914D02*
X45238095Y-5890533D01*
X154238095Y-6604819D02*
X154238095Y-5604819D01*
X154238095Y-6081009D02*
X154809523Y-6081009D01*
X154809523Y-6604819D02*
X154809523Y-5604819D01*
X155238095Y-5700057D02*
X155285714Y-5652438D01*
X155285714Y-5652438D02*
X155380952Y-5604819D01*
X155380952Y-5604819D02*
X155619047Y-5604819D01*
X155619047Y-5604819D02*
X155714285Y-5652438D01*
X155714285Y-5652438D02*
X155761904Y-5700057D01*
X155761904Y-5700057D02*
X155809523Y-5795295D01*
X155809523Y-5795295D02*
X155809523Y-5890533D01*
X155809523Y-5890533D02*
X155761904Y-6033390D01*
X155761904Y-6033390D02*
X155190476Y-6604819D01*
X155190476Y-6604819D02*
X155809523Y-6604819D01*
X148166667Y-35407200D02*
X148309524Y-35454819D01*
X148309524Y-35454819D02*
X148547619Y-35454819D01*
X148547619Y-35454819D02*
X148642857Y-35407200D01*
X148642857Y-35407200D02*
X148690476Y-35359580D01*
X148690476Y-35359580D02*
X148738095Y-35264342D01*
X148738095Y-35264342D02*
X148738095Y-35169104D01*
X148738095Y-35169104D02*
X148690476Y-35073866D01*
X148690476Y-35073866D02*
X148642857Y-35026247D01*
X148642857Y-35026247D02*
X148547619Y-34978628D01*
X148547619Y-34978628D02*
X148357143Y-34931009D01*
X148357143Y-34931009D02*
X148261905Y-34883390D01*
X148261905Y-34883390D02*
X148214286Y-34835771D01*
X148214286Y-34835771D02*
X148166667Y-34740533D01*
X148166667Y-34740533D02*
X148166667Y-34645295D01*
X148166667Y-34645295D02*
X148214286Y-34550057D01*
X148214286Y-34550057D02*
X148261905Y-34502438D01*
X148261905Y-34502438D02*
X148357143Y-34454819D01*
X148357143Y-34454819D02*
X148595238Y-34454819D01*
X148595238Y-34454819D02*
X148738095Y-34502438D01*
X149071429Y-34454819D02*
X149309524Y-35454819D01*
X149309524Y-35454819D02*
X149500000Y-34740533D01*
X149500000Y-34740533D02*
X149690476Y-35454819D01*
X149690476Y-35454819D02*
X149928572Y-34454819D01*
X150214286Y-34454819D02*
X150880952Y-34454819D01*
X150880952Y-34454819D02*
X150452381Y-35454819D01*
X82166667Y-35407200D02*
X82309524Y-35454819D01*
X82309524Y-35454819D02*
X82547619Y-35454819D01*
X82547619Y-35454819D02*
X82642857Y-35407200D01*
X82642857Y-35407200D02*
X82690476Y-35359580D01*
X82690476Y-35359580D02*
X82738095Y-35264342D01*
X82738095Y-35264342D02*
X82738095Y-35169104D01*
X82738095Y-35169104D02*
X82690476Y-35073866D01*
X82690476Y-35073866D02*
X82642857Y-35026247D01*
X82642857Y-35026247D02*
X82547619Y-34978628D01*
X82547619Y-34978628D02*
X82357143Y-34931009D01*
X82357143Y-34931009D02*
X82261905Y-34883390D01*
X82261905Y-34883390D02*
X82214286Y-34835771D01*
X82214286Y-34835771D02*
X82166667Y-34740533D01*
X82166667Y-34740533D02*
X82166667Y-34645295D01*
X82166667Y-34645295D02*
X82214286Y-34550057D01*
X82214286Y-34550057D02*
X82261905Y-34502438D01*
X82261905Y-34502438D02*
X82357143Y-34454819D01*
X82357143Y-34454819D02*
X82595238Y-34454819D01*
X82595238Y-34454819D02*
X82738095Y-34502438D01*
X83071429Y-34454819D02*
X83309524Y-35454819D01*
X83309524Y-35454819D02*
X83500000Y-34740533D01*
X83500000Y-34740533D02*
X83690476Y-35454819D01*
X83690476Y-35454819D02*
X83928572Y-34454819D01*
X84785714Y-34454819D02*
X84309524Y-34454819D01*
X84309524Y-34454819D02*
X84261905Y-34931009D01*
X84261905Y-34931009D02*
X84309524Y-34883390D01*
X84309524Y-34883390D02*
X84404762Y-34835771D01*
X84404762Y-34835771D02*
X84642857Y-34835771D01*
X84642857Y-34835771D02*
X84738095Y-34883390D01*
X84738095Y-34883390D02*
X84785714Y-34931009D01*
X84785714Y-34931009D02*
X84833333Y-35026247D01*
X84833333Y-35026247D02*
X84833333Y-35264342D01*
X84833333Y-35264342D02*
X84785714Y-35359580D01*
X84785714Y-35359580D02*
X84738095Y-35407200D01*
X84738095Y-35407200D02*
X84642857Y-35454819D01*
X84642857Y-35454819D02*
X84404762Y-35454819D01*
X84404762Y-35454819D02*
X84309524Y-35407200D01*
X84309524Y-35407200D02*
X84261905Y-35359580D01*
X65666667Y-77407200D02*
X65809524Y-77454819D01*
X65809524Y-77454819D02*
X66047619Y-77454819D01*
X66047619Y-77454819D02*
X66142857Y-77407200D01*
X66142857Y-77407200D02*
X66190476Y-77359580D01*
X66190476Y-77359580D02*
X66238095Y-77264342D01*
X66238095Y-77264342D02*
X66238095Y-77169104D01*
X66238095Y-77169104D02*
X66190476Y-77073866D01*
X66190476Y-77073866D02*
X66142857Y-77026247D01*
X66142857Y-77026247D02*
X66047619Y-76978628D01*
X66047619Y-76978628D02*
X65857143Y-76931009D01*
X65857143Y-76931009D02*
X65761905Y-76883390D01*
X65761905Y-76883390D02*
X65714286Y-76835771D01*
X65714286Y-76835771D02*
X65666667Y-76740533D01*
X65666667Y-76740533D02*
X65666667Y-76645295D01*
X65666667Y-76645295D02*
X65714286Y-76550057D01*
X65714286Y-76550057D02*
X65761905Y-76502438D01*
X65761905Y-76502438D02*
X65857143Y-76454819D01*
X65857143Y-76454819D02*
X66095238Y-76454819D01*
X66095238Y-76454819D02*
X66238095Y-76502438D01*
X66571429Y-76454819D02*
X66809524Y-77454819D01*
X66809524Y-77454819D02*
X67000000Y-76740533D01*
X67000000Y-76740533D02*
X67190476Y-77454819D01*
X67190476Y-77454819D02*
X67428572Y-76454819D01*
X67952381Y-76883390D02*
X67857143Y-76835771D01*
X67857143Y-76835771D02*
X67809524Y-76788152D01*
X67809524Y-76788152D02*
X67761905Y-76692914D01*
X67761905Y-76692914D02*
X67761905Y-76645295D01*
X67761905Y-76645295D02*
X67809524Y-76550057D01*
X67809524Y-76550057D02*
X67857143Y-76502438D01*
X67857143Y-76502438D02*
X67952381Y-76454819D01*
X67952381Y-76454819D02*
X68142857Y-76454819D01*
X68142857Y-76454819D02*
X68238095Y-76502438D01*
X68238095Y-76502438D02*
X68285714Y-76550057D01*
X68285714Y-76550057D02*
X68333333Y-76645295D01*
X68333333Y-76645295D02*
X68333333Y-76692914D01*
X68333333Y-76692914D02*
X68285714Y-76788152D01*
X68285714Y-76788152D02*
X68238095Y-76835771D01*
X68238095Y-76835771D02*
X68142857Y-76883390D01*
X68142857Y-76883390D02*
X67952381Y-76883390D01*
X67952381Y-76883390D02*
X67857143Y-76931009D01*
X67857143Y-76931009D02*
X67809524Y-76978628D01*
X67809524Y-76978628D02*
X67761905Y-77073866D01*
X67761905Y-77073866D02*
X67761905Y-77264342D01*
X67761905Y-77264342D02*
X67809524Y-77359580D01*
X67809524Y-77359580D02*
X67857143Y-77407200D01*
X67857143Y-77407200D02*
X67952381Y-77454819D01*
X67952381Y-77454819D02*
X68142857Y-77454819D01*
X68142857Y-77454819D02*
X68238095Y-77407200D01*
X68238095Y-77407200D02*
X68285714Y-77359580D01*
X68285714Y-77359580D02*
X68333333Y-77264342D01*
X68333333Y-77264342D02*
X68333333Y-77073866D01*
X68333333Y-77073866D02*
X68285714Y-76978628D01*
X68285714Y-76978628D02*
X68238095Y-76931009D01*
X68238095Y-76931009D02*
X68142857Y-76883390D01*
X19238095Y-46604819D02*
X19238095Y-45604819D01*
X19238095Y-46081009D02*
X19809523Y-46081009D01*
X19809523Y-46604819D02*
X19809523Y-45604819D01*
X20190476Y-45604819D02*
X20809523Y-45604819D01*
X20809523Y-45604819D02*
X20476190Y-45985771D01*
X20476190Y-45985771D02*
X20619047Y-45985771D01*
X20619047Y-45985771D02*
X20714285Y-46033390D01*
X20714285Y-46033390D02*
X20761904Y-46081009D01*
X20761904Y-46081009D02*
X20809523Y-46176247D01*
X20809523Y-46176247D02*
X20809523Y-46414342D01*
X20809523Y-46414342D02*
X20761904Y-46509580D01*
X20761904Y-46509580D02*
X20714285Y-46557200D01*
X20714285Y-46557200D02*
X20619047Y-46604819D01*
X20619047Y-46604819D02*
X20333333Y-46604819D01*
X20333333Y-46604819D02*
X20238095Y-46557200D01*
X20238095Y-46557200D02*
X20190476Y-46509580D01*
X115166667Y-35407200D02*
X115309524Y-35454819D01*
X115309524Y-35454819D02*
X115547619Y-35454819D01*
X115547619Y-35454819D02*
X115642857Y-35407200D01*
X115642857Y-35407200D02*
X115690476Y-35359580D01*
X115690476Y-35359580D02*
X115738095Y-35264342D01*
X115738095Y-35264342D02*
X115738095Y-35169104D01*
X115738095Y-35169104D02*
X115690476Y-35073866D01*
X115690476Y-35073866D02*
X115642857Y-35026247D01*
X115642857Y-35026247D02*
X115547619Y-34978628D01*
X115547619Y-34978628D02*
X115357143Y-34931009D01*
X115357143Y-34931009D02*
X115261905Y-34883390D01*
X115261905Y-34883390D02*
X115214286Y-34835771D01*
X115214286Y-34835771D02*
X115166667Y-34740533D01*
X115166667Y-34740533D02*
X115166667Y-34645295D01*
X115166667Y-34645295D02*
X115214286Y-34550057D01*
X115214286Y-34550057D02*
X115261905Y-34502438D01*
X115261905Y-34502438D02*
X115357143Y-34454819D01*
X115357143Y-34454819D02*
X115595238Y-34454819D01*
X115595238Y-34454819D02*
X115738095Y-34502438D01*
X116071429Y-34454819D02*
X116309524Y-35454819D01*
X116309524Y-35454819D02*
X116500000Y-34740533D01*
X116500000Y-34740533D02*
X116690476Y-35454819D01*
X116690476Y-35454819D02*
X116928572Y-34454819D01*
X117738095Y-34454819D02*
X117547619Y-34454819D01*
X117547619Y-34454819D02*
X117452381Y-34502438D01*
X117452381Y-34502438D02*
X117404762Y-34550057D01*
X117404762Y-34550057D02*
X117309524Y-34692914D01*
X117309524Y-34692914D02*
X117261905Y-34883390D01*
X117261905Y-34883390D02*
X117261905Y-35264342D01*
X117261905Y-35264342D02*
X117309524Y-35359580D01*
X117309524Y-35359580D02*
X117357143Y-35407200D01*
X117357143Y-35407200D02*
X117452381Y-35454819D01*
X117452381Y-35454819D02*
X117642857Y-35454819D01*
X117642857Y-35454819D02*
X117738095Y-35407200D01*
X117738095Y-35407200D02*
X117785714Y-35359580D01*
X117785714Y-35359580D02*
X117833333Y-35264342D01*
X117833333Y-35264342D02*
X117833333Y-35026247D01*
X117833333Y-35026247D02*
X117785714Y-34931009D01*
X117785714Y-34931009D02*
X117738095Y-34883390D01*
X117738095Y-34883390D02*
X117642857Y-34835771D01*
X117642857Y-34835771D02*
X117452381Y-34835771D01*
X117452381Y-34835771D02*
X117357143Y-34883390D01*
X117357143Y-34883390D02*
X117309524Y-34931009D01*
X117309524Y-34931009D02*
X117261905Y-35026247D01*
X131190476Y-77407200D02*
X131333333Y-77454819D01*
X131333333Y-77454819D02*
X131571428Y-77454819D01*
X131571428Y-77454819D02*
X131666666Y-77407200D01*
X131666666Y-77407200D02*
X131714285Y-77359580D01*
X131714285Y-77359580D02*
X131761904Y-77264342D01*
X131761904Y-77264342D02*
X131761904Y-77169104D01*
X131761904Y-77169104D02*
X131714285Y-77073866D01*
X131714285Y-77073866D02*
X131666666Y-77026247D01*
X131666666Y-77026247D02*
X131571428Y-76978628D01*
X131571428Y-76978628D02*
X131380952Y-76931009D01*
X131380952Y-76931009D02*
X131285714Y-76883390D01*
X131285714Y-76883390D02*
X131238095Y-76835771D01*
X131238095Y-76835771D02*
X131190476Y-76740533D01*
X131190476Y-76740533D02*
X131190476Y-76645295D01*
X131190476Y-76645295D02*
X131238095Y-76550057D01*
X131238095Y-76550057D02*
X131285714Y-76502438D01*
X131285714Y-76502438D02*
X131380952Y-76454819D01*
X131380952Y-76454819D02*
X131619047Y-76454819D01*
X131619047Y-76454819D02*
X131761904Y-76502438D01*
X132095238Y-76454819D02*
X132333333Y-77454819D01*
X132333333Y-77454819D02*
X132523809Y-76740533D01*
X132523809Y-76740533D02*
X132714285Y-77454819D01*
X132714285Y-77454819D02*
X132952381Y-76454819D01*
X133857142Y-77454819D02*
X133285714Y-77454819D01*
X133571428Y-77454819D02*
X133571428Y-76454819D01*
X133571428Y-76454819D02*
X133476190Y-76597676D01*
X133476190Y-76597676D02*
X133380952Y-76692914D01*
X133380952Y-76692914D02*
X133285714Y-76740533D01*
X134476190Y-76454819D02*
X134571428Y-76454819D01*
X134571428Y-76454819D02*
X134666666Y-76502438D01*
X134666666Y-76502438D02*
X134714285Y-76550057D01*
X134714285Y-76550057D02*
X134761904Y-76645295D01*
X134761904Y-76645295D02*
X134809523Y-76835771D01*
X134809523Y-76835771D02*
X134809523Y-77073866D01*
X134809523Y-77073866D02*
X134761904Y-77264342D01*
X134761904Y-77264342D02*
X134714285Y-77359580D01*
X134714285Y-77359580D02*
X134666666Y-77407200D01*
X134666666Y-77407200D02*
X134571428Y-77454819D01*
X134571428Y-77454819D02*
X134476190Y-77454819D01*
X134476190Y-77454819D02*
X134380952Y-77407200D01*
X134380952Y-77407200D02*
X134333333Y-77359580D01*
X134333333Y-77359580D02*
X134285714Y-77264342D01*
X134285714Y-77264342D02*
X134238095Y-77073866D01*
X134238095Y-77073866D02*
X134238095Y-76835771D01*
X134238095Y-76835771D02*
X134285714Y-76645295D01*
X134285714Y-76645295D02*
X134333333Y-76550057D01*
X134333333Y-76550057D02*
X134380952Y-76502438D01*
X134380952Y-76502438D02*
X134476190Y-76454819D01*
X176966667Y-8307200D02*
X177109524Y-8354819D01*
X177109524Y-8354819D02*
X177347619Y-8354819D01*
X177347619Y-8354819D02*
X177442857Y-8307200D01*
X177442857Y-8307200D02*
X177490476Y-8259580D01*
X177490476Y-8259580D02*
X177538095Y-8164342D01*
X177538095Y-8164342D02*
X177538095Y-8069104D01*
X177538095Y-8069104D02*
X177490476Y-7973866D01*
X177490476Y-7973866D02*
X177442857Y-7926247D01*
X177442857Y-7926247D02*
X177347619Y-7878628D01*
X177347619Y-7878628D02*
X177157143Y-7831009D01*
X177157143Y-7831009D02*
X177061905Y-7783390D01*
X177061905Y-7783390D02*
X177014286Y-7735771D01*
X177014286Y-7735771D02*
X176966667Y-7640533D01*
X176966667Y-7640533D02*
X176966667Y-7545295D01*
X176966667Y-7545295D02*
X177014286Y-7450057D01*
X177014286Y-7450057D02*
X177061905Y-7402438D01*
X177061905Y-7402438D02*
X177157143Y-7354819D01*
X177157143Y-7354819D02*
X177395238Y-7354819D01*
X177395238Y-7354819D02*
X177538095Y-7402438D01*
X177871429Y-7354819D02*
X178109524Y-8354819D01*
X178109524Y-8354819D02*
X178300000Y-7640533D01*
X178300000Y-7640533D02*
X178490476Y-8354819D01*
X178490476Y-8354819D02*
X178728572Y-7354819D01*
X179014286Y-7354819D02*
X179633333Y-7354819D01*
X179633333Y-7354819D02*
X179300000Y-7735771D01*
X179300000Y-7735771D02*
X179442857Y-7735771D01*
X179442857Y-7735771D02*
X179538095Y-7783390D01*
X179538095Y-7783390D02*
X179585714Y-7831009D01*
X179585714Y-7831009D02*
X179633333Y-7926247D01*
X179633333Y-7926247D02*
X179633333Y-8164342D01*
X179633333Y-8164342D02*
X179585714Y-8259580D01*
X179585714Y-8259580D02*
X179538095Y-8307200D01*
X179538095Y-8307200D02*
X179442857Y-8354819D01*
X179442857Y-8354819D02*
X179157143Y-8354819D01*
X179157143Y-8354819D02*
X179061905Y-8307200D01*
X179061905Y-8307200D02*
X179014286Y-8259580D01*
X10966667Y-8307200D02*
X11109524Y-8354819D01*
X11109524Y-8354819D02*
X11347619Y-8354819D01*
X11347619Y-8354819D02*
X11442857Y-8307200D01*
X11442857Y-8307200D02*
X11490476Y-8259580D01*
X11490476Y-8259580D02*
X11538095Y-8164342D01*
X11538095Y-8164342D02*
X11538095Y-8069104D01*
X11538095Y-8069104D02*
X11490476Y-7973866D01*
X11490476Y-7973866D02*
X11442857Y-7926247D01*
X11442857Y-7926247D02*
X11347619Y-7878628D01*
X11347619Y-7878628D02*
X11157143Y-7831009D01*
X11157143Y-7831009D02*
X11061905Y-7783390D01*
X11061905Y-7783390D02*
X11014286Y-7735771D01*
X11014286Y-7735771D02*
X10966667Y-7640533D01*
X10966667Y-7640533D02*
X10966667Y-7545295D01*
X10966667Y-7545295D02*
X11014286Y-7450057D01*
X11014286Y-7450057D02*
X11061905Y-7402438D01*
X11061905Y-7402438D02*
X11157143Y-7354819D01*
X11157143Y-7354819D02*
X11395238Y-7354819D01*
X11395238Y-7354819D02*
X11538095Y-7402438D01*
X11871429Y-7354819D02*
X12109524Y-8354819D01*
X12109524Y-8354819D02*
X12300000Y-7640533D01*
X12300000Y-7640533D02*
X12490476Y-8354819D01*
X12490476Y-8354819D02*
X12728572Y-7354819D01*
X13061905Y-7450057D02*
X13109524Y-7402438D01*
X13109524Y-7402438D02*
X13204762Y-7354819D01*
X13204762Y-7354819D02*
X13442857Y-7354819D01*
X13442857Y-7354819D02*
X13538095Y-7402438D01*
X13538095Y-7402438D02*
X13585714Y-7450057D01*
X13585714Y-7450057D02*
X13633333Y-7545295D01*
X13633333Y-7545295D02*
X13633333Y-7640533D01*
X13633333Y-7640533D02*
X13585714Y-7783390D01*
X13585714Y-7783390D02*
X13014286Y-8354819D01*
X13014286Y-8354819D02*
X13633333Y-8354819D01*
X34238095Y-76604819D02*
X34238095Y-75604819D01*
X34238095Y-76081009D02*
X34809523Y-76081009D01*
X34809523Y-76604819D02*
X34809523Y-75604819D01*
X35761904Y-75604819D02*
X35285714Y-75604819D01*
X35285714Y-75604819D02*
X35238095Y-76081009D01*
X35238095Y-76081009D02*
X35285714Y-76033390D01*
X35285714Y-76033390D02*
X35380952Y-75985771D01*
X35380952Y-75985771D02*
X35619047Y-75985771D01*
X35619047Y-75985771D02*
X35714285Y-76033390D01*
X35714285Y-76033390D02*
X35761904Y-76081009D01*
X35761904Y-76081009D02*
X35809523Y-76176247D01*
X35809523Y-76176247D02*
X35809523Y-76414342D01*
X35809523Y-76414342D02*
X35761904Y-76509580D01*
X35761904Y-76509580D02*
X35714285Y-76557200D01*
X35714285Y-76557200D02*
X35619047Y-76604819D01*
X35619047Y-76604819D02*
X35380952Y-76604819D01*
X35380952Y-76604819D02*
X35285714Y-76557200D01*
X35285714Y-76557200D02*
X35238095Y-76509580D01*
X84238095Y-61604819D02*
X84238095Y-60604819D01*
X84238095Y-61081009D02*
X84809523Y-61081009D01*
X84809523Y-61604819D02*
X84809523Y-60604819D01*
X85190476Y-60604819D02*
X85857142Y-60604819D01*
X85857142Y-60604819D02*
X85428571Y-61604819D01*
X114238095Y-61604819D02*
X114238095Y-60604819D01*
X114238095Y-61081009D02*
X114809523Y-61081009D01*
X114809523Y-61604819D02*
X114809523Y-60604819D01*
X115428571Y-61033390D02*
X115333333Y-60985771D01*
X115333333Y-60985771D02*
X115285714Y-60938152D01*
X115285714Y-60938152D02*
X115238095Y-60842914D01*
X115238095Y-60842914D02*
X115238095Y-60795295D01*
X115238095Y-60795295D02*
X115285714Y-60700057D01*
X115285714Y-60700057D02*
X115333333Y-60652438D01*
X115333333Y-60652438D02*
X115428571Y-60604819D01*
X115428571Y-60604819D02*
X115619047Y-60604819D01*
X115619047Y-60604819D02*
X115714285Y-60652438D01*
X115714285Y-60652438D02*
X115761904Y-60700057D01*
X115761904Y-60700057D02*
X115809523Y-60795295D01*
X115809523Y-60795295D02*
X115809523Y-60842914D01*
X115809523Y-60842914D02*
X115761904Y-60938152D01*
X115761904Y-60938152D02*
X115714285Y-60985771D01*
X115714285Y-60985771D02*
X115619047Y-61033390D01*
X115619047Y-61033390D02*
X115428571Y-61033390D01*
X115428571Y-61033390D02*
X115333333Y-61081009D01*
X115333333Y-61081009D02*
X115285714Y-61128628D01*
X115285714Y-61128628D02*
X115238095Y-61223866D01*
X115238095Y-61223866D02*
X115238095Y-61414342D01*
X115238095Y-61414342D02*
X115285714Y-61509580D01*
X115285714Y-61509580D02*
X115333333Y-61557200D01*
X115333333Y-61557200D02*
X115428571Y-61604819D01*
X115428571Y-61604819D02*
X115619047Y-61604819D01*
X115619047Y-61604819D02*
X115714285Y-61557200D01*
X115714285Y-61557200D02*
X115761904Y-61509580D01*
X115761904Y-61509580D02*
X115809523Y-61414342D01*
X115809523Y-61414342D02*
X115809523Y-61223866D01*
X115809523Y-61223866D02*
X115761904Y-61128628D01*
X115761904Y-61128628D02*
X115714285Y-61081009D01*
X115714285Y-61081009D02*
X115619047Y-61033390D01*
D11*
%TO.C,SW4*%
X43400000Y-35900000D02*
X43400000Y-50100000D01*
X43400000Y-50100000D02*
X57600000Y-50100000D01*
X57600000Y-35900000D02*
X43400000Y-35900000D01*
X57600000Y-50100000D02*
X57600000Y-35900000D01*
%TO.C,SW9*%
X92900000Y-11900000D02*
X92900000Y-26100000D01*
X92900000Y-26100000D02*
X107100000Y-26100000D01*
X107100000Y-11900000D02*
X92900000Y-11900000D01*
X107100000Y-26100000D02*
X107100000Y-11900000D01*
%TO.C,SW7*%
X142400000Y-35900000D02*
X142400000Y-50100000D01*
X142400000Y-50100000D02*
X156600000Y-50100000D01*
X156600000Y-35900000D02*
X142400000Y-35900000D01*
X156600000Y-50100000D02*
X156600000Y-35900000D01*
%TO.C,SW5*%
X76400000Y-35900000D02*
X76400000Y-50100000D01*
X76400000Y-50100000D02*
X90600000Y-50100000D01*
X90600000Y-35900000D02*
X76400000Y-35900000D01*
X90600000Y-50100000D02*
X90600000Y-35900000D01*
%TO.C,SW8*%
X59900000Y-77900000D02*
X59900000Y-92100000D01*
X59900000Y-92100000D02*
X74100000Y-92100000D01*
X74100000Y-77900000D02*
X59900000Y-77900000D01*
X74100000Y-92100000D02*
X74100000Y-77900000D01*
%TO.C,SW6*%
X109400000Y-35900000D02*
X109400000Y-50100000D01*
X109400000Y-50100000D02*
X123600000Y-50100000D01*
X123600000Y-35900000D02*
X109400000Y-35900000D01*
X123600000Y-50100000D02*
X123600000Y-35900000D01*
%TO.C,SW10*%
X125900000Y-77900000D02*
X125900000Y-92100000D01*
X125900000Y-92100000D02*
X140100000Y-92100000D01*
X140100000Y-77900000D02*
X125900000Y-77900000D01*
X140100000Y-92100000D02*
X140100000Y-77900000D01*
%TO.C,SW3*%
X175200000Y-11000000D02*
X175800000Y-11000000D01*
X175500000Y-11300000D02*
X175200000Y-11000000D01*
X175800000Y-11000000D02*
X175500000Y-11300000D01*
X176900000Y-9200000D02*
X176900000Y-21000000D01*
X181000000Y-9200000D02*
X176900000Y-9200000D01*
X181000000Y-21000000D02*
X176900000Y-21000000D01*
X182500000Y-15100000D02*
X183500000Y-15100000D01*
X183000000Y-14600000D02*
X183000000Y-15600000D01*
X185000000Y-9200000D02*
X189100000Y-9200000D01*
X189100000Y-9200000D02*
X189100000Y-11600000D01*
X189100000Y-13800000D02*
X189100000Y-16400000D01*
X189100000Y-18600000D02*
X189100000Y-21000000D01*
X189100000Y-21000000D02*
X185000000Y-21000000D01*
X186000000Y-15100000D02*
G75*
G02*
X180000000Y-15100000I-3000000J0D01*
G01*
X180000000Y-15100000D02*
G75*
G02*
X186000000Y-15100000I3000000J0D01*
G01*
%TO.C,SW2*%
X9200000Y-11000000D02*
X9800000Y-11000000D01*
X9500000Y-11300000D02*
X9200000Y-11000000D01*
X9800000Y-11000000D02*
X9500000Y-11300000D01*
X10900000Y-9200000D02*
X10900000Y-21000000D01*
X15000000Y-9200000D02*
X10900000Y-9200000D01*
X15000000Y-21000000D02*
X10900000Y-21000000D01*
X16500000Y-15100000D02*
X17500000Y-15100000D01*
X17000000Y-14600000D02*
X17000000Y-15600000D01*
X19000000Y-9200000D02*
X23100000Y-9200000D01*
X23100000Y-9200000D02*
X23100000Y-11600000D01*
X23100000Y-13800000D02*
X23100000Y-16400000D01*
X23100000Y-18600000D02*
X23100000Y-21000000D01*
X23100000Y-21000000D02*
X19000000Y-21000000D01*
X20000000Y-15100000D02*
G75*
G02*
X14000000Y-15100000I-3000000J0D01*
G01*
X14000000Y-15100000D02*
G75*
G02*
X20000000Y-15100000I3000000J0D01*
G01*
%TD*%
M02*
