%TF.GenerationSoftware,KiCad,Pcbnew,8.0.4*%
%TF.CreationDate,2024-07-22T08:34:45+08:00*%
%TF.ProjectId,PH-AC,50482d41-432e-46b6-9963-61645f706362,rev?*%
%TF.SameCoordinates,PX405f7e0PY328b740*%
%TF.FileFunction,Plated,1,2,PTH,Mixed*%
%TF.FilePolarity,Positive*%
%FSLAX46Y46*%
G04 Gerber Fmt 4.6, Leading zero omitted, Abs format (unit mm)*
G04 Created by KiCad (PCBNEW 8.0.4) date 2024-07-22 08:34:45*
%MOMM*%
%LPD*%
G01*
G04 APERTURE LIST*
%TA.AperFunction,ViaDrill*%
%ADD10C,0.300000*%
%TD*%
%TA.AperFunction,ComponentDrill*%
%ADD11C,0.500000*%
%TD*%
%TA.AperFunction,ComponentDrill*%
%ADD12C,1.000000*%
%TD*%
G04 aperture for slot hole*
%TA.AperFunction,ComponentDrill*%
%ADD13C,1.500000*%
%TD*%
G04 APERTURE END LIST*
D10*
X60350000Y-47300000D03*
X65000000Y-11100000D03*
X73500000Y-45450000D03*
X93050000Y-2850000D03*
X93050000Y-6750000D03*
X94750000Y-31050000D03*
X97350000Y-86600000D03*
X101823060Y-6080000D03*
X105100000Y-8500000D03*
X106950000Y-2850000D03*
X107000000Y-4800000D03*
X110550000Y-13900000D03*
X120750000Y-13550000D03*
X122250000Y-31350000D03*
X122300000Y-10850000D03*
X125050000Y-3750000D03*
X126950000Y-2800000D03*
X129000000Y-45450000D03*
X129450000Y-4400000D03*
X129600000Y-6400000D03*
X130000735Y-14499265D03*
X130050000Y-3200000D03*
X130200000Y-19600000D03*
X130426471Y-20426471D03*
X131424265Y-17724265D03*
X131650000Y-6050000D03*
X132050735Y-3050735D03*
X132250000Y-6750000D03*
X132250000Y-12250000D03*
X132250735Y-4199265D03*
X132478810Y-1521190D03*
X132493556Y-2384466D03*
X133100000Y-7650000D03*
X133150000Y-19400000D03*
X133350000Y-4450000D03*
X133800000Y-6100000D03*
X133900003Y-7650000D03*
X134000000Y-19300000D03*
X134500000Y-14300000D03*
X134550000Y-9950000D03*
X134750000Y-11650000D03*
X134797842Y-19241241D03*
X134893292Y-16796208D03*
X134896785Y-17648231D03*
X134903186Y-18448208D03*
X136050000Y-4250000D03*
X136450000Y-6450000D03*
X137150000Y-2520000D03*
X137800000Y-15850000D03*
X137900000Y-4350000D03*
X138600000Y-45450000D03*
X139700000Y-2350000D03*
X141550000Y-25750000D03*
X141800000Y-5400000D03*
X142400000Y-6650000D03*
X143250000Y-12300000D03*
X145950000Y-2550000D03*
X145950000Y-3450000D03*
X146000000Y-5800000D03*
X147300000Y-14400000D03*
X153400000Y-35150000D03*
D11*
%TO.C,J2*%
X125100000Y-6200000D03*
X126100000Y-6200000D03*
X127100000Y-6200000D03*
%TO.C,SW1*%
X145350000Y-28060000D03*
X145350000Y-29060000D03*
D12*
%TO.C,SW2*%
X9500000Y-12600000D03*
X9500000Y-15100000D03*
X9500000Y-17600000D03*
X24000000Y-12600000D03*
X24000000Y-17600000D03*
%TO.C,SW3*%
X175500000Y-12600000D03*
X175500000Y-15100000D03*
X175500000Y-17600000D03*
X190000000Y-12600000D03*
X190000000Y-17600000D03*
D13*
%TO.C,SW2*%
X17650000Y-9500000D02*
X16350000Y-9500000D01*
X17650000Y-20700000D02*
X16350000Y-20700000D01*
%TO.C,SW3*%
X183650000Y-9500000D02*
X182350000Y-9500000D01*
X183650000Y-20700000D02*
X182350000Y-20700000D01*
M02*
