%TF.GenerationSoftware,KiCad,Pcbnew,8.0.4*%
%TF.CreationDate,2024-08-12T19:22:26+08:00*%
%TF.ProjectId,PH-AC,50482d41-432e-46b6-9963-61645f706362,rev?*%
%TF.SameCoordinates,PX405f7e0PY328b740*%
%TF.FileFunction,Soldermask,Bot*%
%TF.FilePolarity,Negative*%
%FSLAX46Y46*%
G04 Gerber Fmt 4.6, Leading zero omitted, Abs format (unit mm)*
G04 Created by KiCad (PCBNEW 8.0.4) date 2024-08-12 19:22:26*
%MOMM*%
%LPD*%
G01*
G04 APERTURE LIST*
G04 Aperture macros list*
%AMRoundRect*
0 Rectangle with rounded corners*
0 $1 Rounding radius*
0 $2 $3 $4 $5 $6 $7 $8 $9 X,Y pos of 4 corners*
0 Add a 4 corners polygon primitive as box body*
4,1,4,$2,$3,$4,$5,$6,$7,$8,$9,$2,$3,0*
0 Add four circle primitives for the rounded corners*
1,1,$1+$1,$2,$3*
1,1,$1+$1,$4,$5*
1,1,$1+$1,$6,$7*
1,1,$1+$1,$8,$9*
0 Add four rect primitives between the rounded corners*
20,1,$1+$1,$2,$3,$4,$5,0*
20,1,$1+$1,$4,$5,$6,$7,0*
20,1,$1+$1,$6,$7,$8,$9,0*
20,1,$1+$1,$8,$9,$2,$3,0*%
G04 Aperture macros list end*
%ADD10C,1.750000*%
%ADD11C,3.050000*%
%ADD12C,4.000000*%
%ADD13RoundRect,0.250000X-1.025000X-1.000000X1.025000X-1.000000X1.025000X1.000000X-1.025000X1.000000X0*%
%ADD14C,10.000000*%
%ADD15R,2.000000X2.000000*%
%ADD16C,2.000000*%
%ADD17R,3.200000X2.000000*%
%ADD18RoundRect,0.140000X-0.140000X-0.170000X0.140000X-0.170000X0.140000X0.170000X-0.140000X0.170000X0*%
%ADD19RoundRect,0.135000X-0.185000X0.135000X-0.185000X-0.135000X0.185000X-0.135000X0.185000X0.135000X0*%
%ADD20R,0.762000X0.254000*%
%ADD21R,1.244600X2.057400*%
%ADD22RoundRect,0.140000X0.170000X-0.140000X0.170000X0.140000X-0.170000X0.140000X-0.170000X-0.140000X0*%
%ADD23RoundRect,0.140000X0.140000X0.170000X-0.140000X0.170000X-0.140000X-0.170000X0.140000X-0.170000X0*%
%ADD24RoundRect,0.135000X-0.135000X-0.185000X0.135000X-0.185000X0.135000X0.185000X-0.135000X0.185000X0*%
%ADD25C,0.650000*%
%ADD26RoundRect,0.150000X-0.150000X-0.425000X0.150000X-0.425000X0.150000X0.425000X-0.150000X0.425000X0*%
%ADD27RoundRect,0.075000X-0.075000X-0.500000X0.075000X-0.500000X0.075000X0.500000X-0.075000X0.500000X0*%
%ADD28RoundRect,0.250000X-0.840000X-0.750000X0.840000X-0.750000X0.840000X0.750000X-0.840000X0.750000X0*%
%ADD29R,1.200000X1.400000*%
%ADD30RoundRect,0.050000X0.050000X-0.387500X0.050000X0.387500X-0.050000X0.387500X-0.050000X-0.387500X0*%
%ADD31RoundRect,0.050000X0.387500X-0.050000X0.387500X0.050000X-0.387500X0.050000X-0.387500X-0.050000X0*%
%ADD32R,3.200000X3.200000*%
%ADD33RoundRect,0.250000X0.250000X0.475000X-0.250000X0.475000X-0.250000X-0.475000X0.250000X-0.475000X0*%
%ADD34RoundRect,0.250000X-0.250000X-0.475000X0.250000X-0.475000X0.250000X0.475000X-0.250000X0.475000X0*%
%ADD35RoundRect,0.135000X0.135000X0.185000X-0.135000X0.185000X-0.135000X-0.185000X0.135000X-0.185000X0*%
%ADD36RoundRect,0.100000X-0.100000X0.155000X-0.100000X-0.155000X0.100000X-0.155000X0.100000X0.155000X0*%
%ADD37RoundRect,0.250000X0.625000X-0.375000X0.625000X0.375000X-0.625000X0.375000X-0.625000X-0.375000X0*%
%ADD38R,0.850000X0.850000*%
%ADD39O,0.850000X0.850000*%
%ADD40RoundRect,0.150000X0.150000X-0.650000X0.150000X0.650000X-0.150000X0.650000X-0.150000X-0.650000X0*%
%ADD41RoundRect,0.135000X0.185000X-0.135000X0.185000X0.135000X-0.185000X0.135000X-0.185000X-0.135000X0*%
%ADD42RoundRect,0.140000X-0.170000X0.140000X-0.170000X-0.140000X0.170000X-0.140000X0.170000X0.140000X0*%
%ADD43RoundRect,0.250000X0.300000X0.300000X-0.300000X0.300000X-0.300000X-0.300000X0.300000X-0.300000X0*%
G04 APERTURE END LIST*
D10*
%TO.C,SW4*%
X45420000Y-43000000D03*
D11*
X46690000Y-40460000D03*
D12*
X50500000Y-43000000D03*
D11*
X53040000Y-37920000D03*
D10*
X55580000Y-43000000D03*
D13*
X43415000Y-40460000D03*
X56342000Y-37920000D03*
%TD*%
D14*
%TO.C,H6*%
X165000000Y-76000000D03*
%TD*%
%TO.C,H4*%
X180000000Y-50000000D03*
%TD*%
D10*
%TO.C,SW9*%
X94920000Y-19000000D03*
D11*
X96190000Y-16460000D03*
D12*
X100000000Y-19000000D03*
D11*
X102540000Y-13920000D03*
D10*
X105080000Y-19000000D03*
D13*
X92915000Y-16460000D03*
X105842000Y-13920000D03*
%TD*%
D14*
%TO.C,H1*%
X41000000Y-14000000D03*
%TD*%
%TO.C,H2*%
X159000000Y-14000000D03*
%TD*%
D10*
%TO.C,SW7*%
X144420000Y-43000000D03*
D11*
X145690000Y-40460000D03*
D12*
X149500000Y-43000000D03*
D11*
X152040000Y-37920000D03*
D10*
X154580000Y-43000000D03*
D13*
X142415000Y-40460000D03*
X155342000Y-37920000D03*
%TD*%
D10*
%TO.C,SW5*%
X78420000Y-43000000D03*
D11*
X79690000Y-40460000D03*
D12*
X83500000Y-43000000D03*
D11*
X86040000Y-37920000D03*
D10*
X88580000Y-43000000D03*
D13*
X76415000Y-40460000D03*
X89342000Y-37920000D03*
%TD*%
D10*
%TO.C,SW8*%
X61920000Y-85000000D03*
D11*
X63190000Y-82460000D03*
D12*
X67000000Y-85000000D03*
D11*
X69540000Y-79920000D03*
D10*
X72080000Y-85000000D03*
D13*
X59915000Y-82460000D03*
X72842000Y-79920000D03*
%TD*%
D14*
%TO.C,H3*%
X20000000Y-50000000D03*
%TD*%
D10*
%TO.C,SW6*%
X111420000Y-43000000D03*
D11*
X112690000Y-40460000D03*
D12*
X116500000Y-43000000D03*
D11*
X119040000Y-37920000D03*
D10*
X121580000Y-43000000D03*
D13*
X109415000Y-40460000D03*
X122342000Y-37920000D03*
%TD*%
D10*
%TO.C,SW10*%
X127920000Y-85000000D03*
D11*
X129190000Y-82460000D03*
D12*
X133000000Y-85000000D03*
D11*
X135540000Y-79920000D03*
D10*
X138080000Y-85000000D03*
D13*
X125915000Y-82460000D03*
X138842000Y-79920000D03*
%TD*%
D15*
%TO.C,SW3*%
X175500000Y-12600000D03*
D16*
X175500000Y-17600000D03*
X175500000Y-15100000D03*
D17*
X183000000Y-9500000D03*
X183000000Y-20700000D03*
D16*
X190000000Y-17600000D03*
X190000000Y-12600000D03*
%TD*%
D15*
%TO.C,SW2*%
X9500000Y-12600000D03*
D16*
X9500000Y-17600000D03*
X9500000Y-15100000D03*
D17*
X17000000Y-9500000D03*
X17000000Y-20700000D03*
D16*
X24000000Y-17600000D03*
X24000000Y-12600000D03*
%TD*%
D14*
%TO.C,H5*%
X35000000Y-76000000D03*
%TD*%
%TO.C,H7*%
X85000000Y-65000000D03*
%TD*%
%TO.C,H8*%
X115000000Y-65000000D03*
%TD*%
D18*
%TO.C,C11*%
X136440000Y-9380000D03*
X137400000Y-9380000D03*
%TD*%
D19*
%TO.C,R5*%
X128900000Y-4600000D03*
X128900000Y-5620000D03*
%TD*%
D18*
%TO.C,C7*%
X142320000Y-13150000D03*
X143280000Y-13150000D03*
%TD*%
D20*
%TO.C,U2*%
X136038400Y-3300000D03*
X136038400Y-3800002D03*
X136038400Y-4300001D03*
X136038400Y-4800000D03*
X136038400Y-5300002D03*
X133600000Y-5300002D03*
X133600000Y-4800000D03*
X133600000Y-4300001D03*
X133600000Y-3800002D03*
X133600000Y-3300000D03*
D21*
X134819200Y-4300001D03*
%TD*%
D18*
%TO.C,C9*%
X138350000Y-11230000D03*
X139310000Y-11230000D03*
%TD*%
D19*
%TO.C,R12*%
X122850000Y-15140000D03*
X122850000Y-16160000D03*
%TD*%
D22*
%TO.C,C6*%
X134850000Y-9460000D03*
X134850000Y-8500000D03*
%TD*%
D23*
%TO.C,C3*%
X126100000Y-13350000D03*
X125140000Y-13350000D03*
%TD*%
D24*
%TO.C,R11*%
X143940000Y-4450000D03*
X144960000Y-4450000D03*
%TD*%
D25*
%TO.C,J1*%
X97110000Y-6280000D03*
X102890000Y-6280000D03*
D26*
X96800000Y-7355000D03*
X97600000Y-7355000D03*
D27*
X98750000Y-7355000D03*
X99750000Y-7355000D03*
X100250000Y-7355000D03*
X101250000Y-7355000D03*
D26*
X102400000Y-7355000D03*
X103200000Y-7355000D03*
X103200000Y-7355000D03*
X102400000Y-7355000D03*
D27*
X101750000Y-7355000D03*
X100750000Y-7355000D03*
X99250000Y-7355000D03*
X98250000Y-7355000D03*
D26*
X97600000Y-7355000D03*
X96800000Y-7355000D03*
D28*
X94890000Y-2850000D03*
X94890000Y-6780000D03*
X105110000Y-2850000D03*
X105110000Y-6780000D03*
%TD*%
D24*
%TO.C,R10*%
X142080000Y-4450000D03*
X143100000Y-4450000D03*
%TD*%
%TO.C,R13*%
X138880000Y-6250000D03*
X139900000Y-6250000D03*
%TD*%
D29*
%TO.C,Y1*%
X120600000Y-19800000D03*
X120600000Y-17600000D03*
X122300000Y-17600000D03*
X122300000Y-19800000D03*
%TD*%
D18*
%TO.C,C15*%
X145320000Y-17250000D03*
X146280000Y-17250000D03*
%TD*%
D30*
%TO.C,U1*%
X134850000Y-17587500D03*
X134450000Y-17587500D03*
X134050000Y-17587500D03*
X133650000Y-17587500D03*
X133250000Y-17587500D03*
X132850000Y-17587500D03*
X132450000Y-17587500D03*
X132050000Y-17587500D03*
X131650000Y-17587500D03*
X131250000Y-17587500D03*
X130850000Y-17587500D03*
X130450000Y-17587500D03*
X130050000Y-17587500D03*
X129650000Y-17587500D03*
D31*
X128812500Y-16750000D03*
X128812500Y-16350000D03*
X128812500Y-15950000D03*
X128812500Y-15550000D03*
X128812500Y-15150000D03*
X128812500Y-14750000D03*
X128812500Y-14350000D03*
X128812500Y-13950000D03*
X128812500Y-13550000D03*
X128812500Y-13150000D03*
X128812500Y-12750000D03*
X128812500Y-12350000D03*
X128812500Y-11950000D03*
X128812500Y-11550000D03*
D30*
X129650000Y-10712500D03*
X130050000Y-10712500D03*
X130450000Y-10712500D03*
X130850000Y-10712500D03*
X131250000Y-10712500D03*
X131650000Y-10712500D03*
X132050000Y-10712500D03*
X132450000Y-10712500D03*
X132850000Y-10712500D03*
X133250000Y-10712500D03*
X133650000Y-10712500D03*
X134050000Y-10712500D03*
X134450000Y-10712500D03*
X134850000Y-10712500D03*
D31*
X135687500Y-11550000D03*
X135687500Y-11950000D03*
X135687500Y-12350000D03*
X135687500Y-12750000D03*
X135687500Y-13150000D03*
X135687500Y-13550000D03*
X135687500Y-13950000D03*
X135687500Y-14350000D03*
X135687500Y-14750000D03*
X135687500Y-15150000D03*
X135687500Y-15550000D03*
X135687500Y-15950000D03*
X135687500Y-16350000D03*
X135687500Y-16750000D03*
D32*
X132250000Y-14150000D03*
%TD*%
D33*
%TO.C,C13*%
X130750000Y-9000000D03*
X128850000Y-9000000D03*
%TD*%
D34*
%TO.C,C12*%
X123000000Y-4950000D03*
X124900000Y-4950000D03*
%TD*%
D35*
%TO.C,R6*%
X128010000Y-5600000D03*
X126990000Y-5600000D03*
%TD*%
D18*
%TO.C,C2*%
X142320000Y-12200000D03*
X143280000Y-12200000D03*
%TD*%
D35*
%TO.C,R3*%
X139340000Y-13150000D03*
X138320000Y-13150000D03*
%TD*%
D19*
%TO.C,R15*%
X101750000Y-8880000D03*
X101750000Y-9900000D03*
%TD*%
D35*
%TO.C,R7*%
X131300000Y-3850000D03*
X130280000Y-3850000D03*
%TD*%
D36*
%TO.C,Q1*%
X144440000Y-7690000D03*
X143440000Y-7690000D03*
X143940000Y-6400000D03*
%TD*%
D37*
%TO.C,D2*%
X145550000Y-14200000D03*
X145550000Y-11400000D03*
%TD*%
D38*
%TO.C,SW1*%
X145350000Y-30960000D03*
D39*
X145350000Y-29960000D03*
%TD*%
D24*
%TO.C,R2*%
X139700000Y-3200000D03*
X140720000Y-3200000D03*
%TD*%
D35*
%TO.C,R4*%
X139340000Y-12200000D03*
X138320000Y-12200000D03*
%TD*%
D40*
%TO.C,U3*%
X145355000Y-26000000D03*
X144085000Y-26000000D03*
X142815000Y-26000000D03*
X141545000Y-26000000D03*
X141545000Y-18800000D03*
X142815000Y-18800000D03*
X144085000Y-18800000D03*
X145355000Y-18800000D03*
%TD*%
D41*
%TO.C,R9*%
X145350000Y-28510000D03*
X145350000Y-27490000D03*
%TD*%
D18*
%TO.C,C4*%
X136940000Y-18850000D03*
X137900000Y-18850000D03*
%TD*%
%TO.C,C10*%
X137740000Y-10300000D03*
X138700000Y-10300000D03*
%TD*%
D41*
%TO.C,R8*%
X131100000Y-6110000D03*
X131100000Y-5090000D03*
%TD*%
D18*
%TO.C,C16*%
X143970000Y-5400000D03*
X144930000Y-5400000D03*
%TD*%
D19*
%TO.C,R14*%
X98750000Y-8880000D03*
X98750000Y-9900000D03*
%TD*%
D42*
%TO.C,C5*%
X131250000Y-20620000D03*
X131250000Y-21580000D03*
%TD*%
D18*
%TO.C,C1*%
X142320000Y-11250000D03*
X143280000Y-11250000D03*
%TD*%
%TO.C,C14*%
X145320000Y-16300000D03*
X146280000Y-16300000D03*
%TD*%
D23*
%TO.C,C18*%
X121930000Y-16100000D03*
X120970000Y-16100000D03*
%TD*%
D22*
%TO.C,C17*%
X119250000Y-19180000D03*
X119250000Y-18220000D03*
%TD*%
D38*
%TO.C,J2*%
X125100000Y-8100000D03*
D39*
X126100000Y-8100000D03*
X127100000Y-8100000D03*
%TD*%
D22*
%TO.C,L1*%
X138400000Y-4780000D03*
X138400000Y-3820000D03*
%TD*%
D24*
%TO.C,R1*%
X141560000Y-3200000D03*
X142580000Y-3200000D03*
%TD*%
D43*
%TO.C,D1*%
X121450000Y-4950000D03*
X118650000Y-4950000D03*
%TD*%
D23*
%TO.C,C8*%
X126100000Y-12400000D03*
X125140000Y-12400000D03*
%TD*%
M02*
