%TF.GenerationSoftware,KiCad,Pcbnew,8.0.4*%
%TF.CreationDate,2024-07-22T17:52:48+08:00*%
%TF.ProjectId,PH-AC,50482d41-432e-46b6-9963-61645f706362,rev?*%
%TF.SameCoordinates,PX405f7e0PY328b740*%
%TF.FileFunction,Legend,Bot*%
%TF.FilePolarity,Positive*%
%FSLAX46Y46*%
G04 Gerber Fmt 4.6, Leading zero omitted, Abs format (unit mm)*
G04 Created by KiCad (PCBNEW 8.0.4) date 2024-07-22 17:52:48*
%MOMM*%
%LPD*%
G01*
G04 APERTURE LIST*
%ADD10C,0.150000*%
%ADD11C,0.152400*%
%ADD12C,0.120000*%
%ADD13C,0.100000*%
G04 APERTURE END LIST*
D10*
X135581104Y-1854820D02*
X135581104Y-2664343D01*
X135581104Y-2664343D02*
X135533485Y-2759581D01*
X135533485Y-2759581D02*
X135485866Y-2807201D01*
X135485866Y-2807201D02*
X135390628Y-2854820D01*
X135390628Y-2854820D02*
X135200152Y-2854820D01*
X135200152Y-2854820D02*
X135104914Y-2807201D01*
X135104914Y-2807201D02*
X135057295Y-2759581D01*
X135057295Y-2759581D02*
X135009676Y-2664343D01*
X135009676Y-2664343D02*
X135009676Y-1854820D01*
X134581104Y-1950058D02*
X134533485Y-1902439D01*
X134533485Y-1902439D02*
X134438247Y-1854820D01*
X134438247Y-1854820D02*
X134200152Y-1854820D01*
X134200152Y-1854820D02*
X134104914Y-1902439D01*
X134104914Y-1902439D02*
X134057295Y-1950058D01*
X134057295Y-1950058D02*
X134009676Y-2045296D01*
X134009676Y-2045296D02*
X134009676Y-2140534D01*
X134009676Y-2140534D02*
X134057295Y-2283391D01*
X134057295Y-2283391D02*
X134628723Y-2854820D01*
X134628723Y-2854820D02*
X134009676Y-2854820D01*
X137562857Y-8999580D02*
X137610476Y-9047200D01*
X137610476Y-9047200D02*
X137753333Y-9094819D01*
X137753333Y-9094819D02*
X137848571Y-9094819D01*
X137848571Y-9094819D02*
X137991428Y-9047200D01*
X137991428Y-9047200D02*
X138086666Y-8951961D01*
X138086666Y-8951961D02*
X138134285Y-8856723D01*
X138134285Y-8856723D02*
X138181904Y-8666247D01*
X138181904Y-8666247D02*
X138181904Y-8523390D01*
X138181904Y-8523390D02*
X138134285Y-8332914D01*
X138134285Y-8332914D02*
X138086666Y-8237676D01*
X138086666Y-8237676D02*
X137991428Y-8142438D01*
X137991428Y-8142438D02*
X137848571Y-8094819D01*
X137848571Y-8094819D02*
X137753333Y-8094819D01*
X137753333Y-8094819D02*
X137610476Y-8142438D01*
X137610476Y-8142438D02*
X137562857Y-8190057D01*
X136610476Y-9094819D02*
X137181904Y-9094819D01*
X136896190Y-9094819D02*
X136896190Y-8094819D01*
X136896190Y-8094819D02*
X136991428Y-8237676D01*
X136991428Y-8237676D02*
X137086666Y-8332914D01*
X137086666Y-8332914D02*
X137181904Y-8380533D01*
X135658095Y-9094819D02*
X136229523Y-9094819D01*
X135943809Y-9094819D02*
X135943809Y-8094819D01*
X135943809Y-8094819D02*
X136039047Y-8237676D01*
X136039047Y-8237676D02*
X136134285Y-8332914D01*
X136134285Y-8332914D02*
X136229523Y-8380533D01*
X128184819Y-3043333D02*
X127708628Y-2710000D01*
X128184819Y-2471905D02*
X127184819Y-2471905D01*
X127184819Y-2471905D02*
X127184819Y-2852857D01*
X127184819Y-2852857D02*
X127232438Y-2948095D01*
X127232438Y-2948095D02*
X127280057Y-2995714D01*
X127280057Y-2995714D02*
X127375295Y-3043333D01*
X127375295Y-3043333D02*
X127518152Y-3043333D01*
X127518152Y-3043333D02*
X127613390Y-2995714D01*
X127613390Y-2995714D02*
X127661009Y-2948095D01*
X127661009Y-2948095D02*
X127708628Y-2852857D01*
X127708628Y-2852857D02*
X127708628Y-2471905D01*
X127184819Y-3948095D02*
X127184819Y-3471905D01*
X127184819Y-3471905D02*
X127661009Y-3424286D01*
X127661009Y-3424286D02*
X127613390Y-3471905D01*
X127613390Y-3471905D02*
X127565771Y-3567143D01*
X127565771Y-3567143D02*
X127565771Y-3805238D01*
X127565771Y-3805238D02*
X127613390Y-3900476D01*
X127613390Y-3900476D02*
X127661009Y-3948095D01*
X127661009Y-3948095D02*
X127756247Y-3995714D01*
X127756247Y-3995714D02*
X127994342Y-3995714D01*
X127994342Y-3995714D02*
X128089580Y-3948095D01*
X128089580Y-3948095D02*
X128137200Y-3900476D01*
X128137200Y-3900476D02*
X128184819Y-3805238D01*
X128184819Y-3805238D02*
X128184819Y-3567143D01*
X128184819Y-3567143D02*
X128137200Y-3471905D01*
X128137200Y-3471905D02*
X128089580Y-3424286D01*
X142966666Y-12769580D02*
X143014285Y-12817200D01*
X143014285Y-12817200D02*
X143157142Y-12864819D01*
X143157142Y-12864819D02*
X143252380Y-12864819D01*
X143252380Y-12864819D02*
X143395237Y-12817200D01*
X143395237Y-12817200D02*
X143490475Y-12721961D01*
X143490475Y-12721961D02*
X143538094Y-12626723D01*
X143538094Y-12626723D02*
X143585713Y-12436247D01*
X143585713Y-12436247D02*
X143585713Y-12293390D01*
X143585713Y-12293390D02*
X143538094Y-12102914D01*
X143538094Y-12102914D02*
X143490475Y-12007676D01*
X143490475Y-12007676D02*
X143395237Y-11912438D01*
X143395237Y-11912438D02*
X143252380Y-11864819D01*
X143252380Y-11864819D02*
X143157142Y-11864819D01*
X143157142Y-11864819D02*
X143014285Y-11912438D01*
X143014285Y-11912438D02*
X142966666Y-11960057D01*
X142633332Y-11864819D02*
X141966666Y-11864819D01*
X141966666Y-11864819D02*
X142395237Y-12864819D01*
X138996666Y-10849580D02*
X139044285Y-10897200D01*
X139044285Y-10897200D02*
X139187142Y-10944819D01*
X139187142Y-10944819D02*
X139282380Y-10944819D01*
X139282380Y-10944819D02*
X139425237Y-10897200D01*
X139425237Y-10897200D02*
X139520475Y-10801961D01*
X139520475Y-10801961D02*
X139568094Y-10706723D01*
X139568094Y-10706723D02*
X139615713Y-10516247D01*
X139615713Y-10516247D02*
X139615713Y-10373390D01*
X139615713Y-10373390D02*
X139568094Y-10182914D01*
X139568094Y-10182914D02*
X139520475Y-10087676D01*
X139520475Y-10087676D02*
X139425237Y-9992438D01*
X139425237Y-9992438D02*
X139282380Y-9944819D01*
X139282380Y-9944819D02*
X139187142Y-9944819D01*
X139187142Y-9944819D02*
X139044285Y-9992438D01*
X139044285Y-9992438D02*
X138996666Y-10040057D01*
X138520475Y-10944819D02*
X138329999Y-10944819D01*
X138329999Y-10944819D02*
X138234761Y-10897200D01*
X138234761Y-10897200D02*
X138187142Y-10849580D01*
X138187142Y-10849580D02*
X138091904Y-10706723D01*
X138091904Y-10706723D02*
X138044285Y-10516247D01*
X138044285Y-10516247D02*
X138044285Y-10135295D01*
X138044285Y-10135295D02*
X138091904Y-10040057D01*
X138091904Y-10040057D02*
X138139523Y-9992438D01*
X138139523Y-9992438D02*
X138234761Y-9944819D01*
X138234761Y-9944819D02*
X138425237Y-9944819D01*
X138425237Y-9944819D02*
X138520475Y-9992438D01*
X138520475Y-9992438D02*
X138568094Y-10040057D01*
X138568094Y-10040057D02*
X138615713Y-10135295D01*
X138615713Y-10135295D02*
X138615713Y-10373390D01*
X138615713Y-10373390D02*
X138568094Y-10468628D01*
X138568094Y-10468628D02*
X138520475Y-10516247D01*
X138520475Y-10516247D02*
X138425237Y-10563866D01*
X138425237Y-10563866D02*
X138234761Y-10563866D01*
X138234761Y-10563866D02*
X138139523Y-10516247D01*
X138139523Y-10516247D02*
X138091904Y-10468628D01*
X138091904Y-10468628D02*
X138044285Y-10373390D01*
X123584819Y-12257142D02*
X123108628Y-11923809D01*
X123584819Y-11685714D02*
X122584819Y-11685714D01*
X122584819Y-11685714D02*
X122584819Y-12066666D01*
X122584819Y-12066666D02*
X122632438Y-12161904D01*
X122632438Y-12161904D02*
X122680057Y-12209523D01*
X122680057Y-12209523D02*
X122775295Y-12257142D01*
X122775295Y-12257142D02*
X122918152Y-12257142D01*
X122918152Y-12257142D02*
X123013390Y-12209523D01*
X123013390Y-12209523D02*
X123061009Y-12161904D01*
X123061009Y-12161904D02*
X123108628Y-12066666D01*
X123108628Y-12066666D02*
X123108628Y-11685714D01*
X123584819Y-13209523D02*
X123584819Y-12638095D01*
X123584819Y-12923809D02*
X122584819Y-12923809D01*
X122584819Y-12923809D02*
X122727676Y-12828571D01*
X122727676Y-12828571D02*
X122822914Y-12733333D01*
X122822914Y-12733333D02*
X122870533Y-12638095D01*
X122680057Y-13590476D02*
X122632438Y-13638095D01*
X122632438Y-13638095D02*
X122584819Y-13733333D01*
X122584819Y-13733333D02*
X122584819Y-13971428D01*
X122584819Y-13971428D02*
X122632438Y-14066666D01*
X122632438Y-14066666D02*
X122680057Y-14114285D01*
X122680057Y-14114285D02*
X122775295Y-14161904D01*
X122775295Y-14161904D02*
X122870533Y-14161904D01*
X122870533Y-14161904D02*
X123013390Y-14114285D01*
X123013390Y-14114285D02*
X123584819Y-13542857D01*
X123584819Y-13542857D02*
X123584819Y-14161904D01*
X136369580Y-6913333D02*
X136417200Y-6865714D01*
X136417200Y-6865714D02*
X136464819Y-6722857D01*
X136464819Y-6722857D02*
X136464819Y-6627619D01*
X136464819Y-6627619D02*
X136417200Y-6484762D01*
X136417200Y-6484762D02*
X136321961Y-6389524D01*
X136321961Y-6389524D02*
X136226723Y-6341905D01*
X136226723Y-6341905D02*
X136036247Y-6294286D01*
X136036247Y-6294286D02*
X135893390Y-6294286D01*
X135893390Y-6294286D02*
X135702914Y-6341905D01*
X135702914Y-6341905D02*
X135607676Y-6389524D01*
X135607676Y-6389524D02*
X135512438Y-6484762D01*
X135512438Y-6484762D02*
X135464819Y-6627619D01*
X135464819Y-6627619D02*
X135464819Y-6722857D01*
X135464819Y-6722857D02*
X135512438Y-6865714D01*
X135512438Y-6865714D02*
X135560057Y-6913333D01*
X135464819Y-7770476D02*
X135464819Y-7580000D01*
X135464819Y-7580000D02*
X135512438Y-7484762D01*
X135512438Y-7484762D02*
X135560057Y-7437143D01*
X135560057Y-7437143D02*
X135702914Y-7341905D01*
X135702914Y-7341905D02*
X135893390Y-7294286D01*
X135893390Y-7294286D02*
X136274342Y-7294286D01*
X136274342Y-7294286D02*
X136369580Y-7341905D01*
X136369580Y-7341905D02*
X136417200Y-7389524D01*
X136417200Y-7389524D02*
X136464819Y-7484762D01*
X136464819Y-7484762D02*
X136464819Y-7675238D01*
X136464819Y-7675238D02*
X136417200Y-7770476D01*
X136417200Y-7770476D02*
X136369580Y-7818095D01*
X136369580Y-7818095D02*
X136274342Y-7865714D01*
X136274342Y-7865714D02*
X136036247Y-7865714D01*
X136036247Y-7865714D02*
X135941009Y-7818095D01*
X135941009Y-7818095D02*
X135893390Y-7770476D01*
X135893390Y-7770476D02*
X135845771Y-7675238D01*
X135845771Y-7675238D02*
X135845771Y-7484762D01*
X135845771Y-7484762D02*
X135893390Y-7389524D01*
X135893390Y-7389524D02*
X135941009Y-7341905D01*
X135941009Y-7341905D02*
X136036247Y-7294286D01*
X61624819Y-86261905D02*
X60624819Y-86261905D01*
X60624819Y-86261905D02*
X60624819Y-86500000D01*
X60624819Y-86500000D02*
X60672438Y-86642857D01*
X60672438Y-86642857D02*
X60767676Y-86738095D01*
X60767676Y-86738095D02*
X60862914Y-86785714D01*
X60862914Y-86785714D02*
X61053390Y-86833333D01*
X61053390Y-86833333D02*
X61196247Y-86833333D01*
X61196247Y-86833333D02*
X61386723Y-86785714D01*
X61386723Y-86785714D02*
X61481961Y-86738095D01*
X61481961Y-86738095D02*
X61577200Y-86642857D01*
X61577200Y-86642857D02*
X61624819Y-86500000D01*
X61624819Y-86500000D02*
X61624819Y-86261905D01*
X60624819Y-87166667D02*
X60624819Y-87833333D01*
X60624819Y-87833333D02*
X61624819Y-87404762D01*
X94624819Y-20261905D02*
X93624819Y-20261905D01*
X93624819Y-20261905D02*
X93624819Y-20500000D01*
X93624819Y-20500000D02*
X93672438Y-20642857D01*
X93672438Y-20642857D02*
X93767676Y-20738095D01*
X93767676Y-20738095D02*
X93862914Y-20785714D01*
X93862914Y-20785714D02*
X94053390Y-20833333D01*
X94053390Y-20833333D02*
X94196247Y-20833333D01*
X94196247Y-20833333D02*
X94386723Y-20785714D01*
X94386723Y-20785714D02*
X94481961Y-20738095D01*
X94481961Y-20738095D02*
X94577200Y-20642857D01*
X94577200Y-20642857D02*
X94624819Y-20500000D01*
X94624819Y-20500000D02*
X94624819Y-20261905D01*
X94053390Y-21404762D02*
X94005771Y-21309524D01*
X94005771Y-21309524D02*
X93958152Y-21261905D01*
X93958152Y-21261905D02*
X93862914Y-21214286D01*
X93862914Y-21214286D02*
X93815295Y-21214286D01*
X93815295Y-21214286D02*
X93720057Y-21261905D01*
X93720057Y-21261905D02*
X93672438Y-21309524D01*
X93672438Y-21309524D02*
X93624819Y-21404762D01*
X93624819Y-21404762D02*
X93624819Y-21595238D01*
X93624819Y-21595238D02*
X93672438Y-21690476D01*
X93672438Y-21690476D02*
X93720057Y-21738095D01*
X93720057Y-21738095D02*
X93815295Y-21785714D01*
X93815295Y-21785714D02*
X93862914Y-21785714D01*
X93862914Y-21785714D02*
X93958152Y-21738095D01*
X93958152Y-21738095D02*
X94005771Y-21690476D01*
X94005771Y-21690476D02*
X94053390Y-21595238D01*
X94053390Y-21595238D02*
X94053390Y-21404762D01*
X94053390Y-21404762D02*
X94101009Y-21309524D01*
X94101009Y-21309524D02*
X94148628Y-21261905D01*
X94148628Y-21261905D02*
X94243866Y-21214286D01*
X94243866Y-21214286D02*
X94434342Y-21214286D01*
X94434342Y-21214286D02*
X94529580Y-21261905D01*
X94529580Y-21261905D02*
X94577200Y-21309524D01*
X94577200Y-21309524D02*
X94624819Y-21404762D01*
X94624819Y-21404762D02*
X94624819Y-21595238D01*
X94624819Y-21595238D02*
X94577200Y-21690476D01*
X94577200Y-21690476D02*
X94529580Y-21738095D01*
X94529580Y-21738095D02*
X94434342Y-21785714D01*
X94434342Y-21785714D02*
X94243866Y-21785714D01*
X94243866Y-21785714D02*
X94148628Y-21738095D01*
X94148628Y-21738095D02*
X94101009Y-21690476D01*
X94101009Y-21690476D02*
X94053390Y-21595238D01*
X123966666Y-10049580D02*
X124014285Y-10097200D01*
X124014285Y-10097200D02*
X124157142Y-10144819D01*
X124157142Y-10144819D02*
X124252380Y-10144819D01*
X124252380Y-10144819D02*
X124395237Y-10097200D01*
X124395237Y-10097200D02*
X124490475Y-10001961D01*
X124490475Y-10001961D02*
X124538094Y-9906723D01*
X124538094Y-9906723D02*
X124585713Y-9716247D01*
X124585713Y-9716247D02*
X124585713Y-9573390D01*
X124585713Y-9573390D02*
X124538094Y-9382914D01*
X124538094Y-9382914D02*
X124490475Y-9287676D01*
X124490475Y-9287676D02*
X124395237Y-9192438D01*
X124395237Y-9192438D02*
X124252380Y-9144819D01*
X124252380Y-9144819D02*
X124157142Y-9144819D01*
X124157142Y-9144819D02*
X124014285Y-9192438D01*
X124014285Y-9192438D02*
X123966666Y-9240057D01*
X123633332Y-9144819D02*
X123014285Y-9144819D01*
X123014285Y-9144819D02*
X123347618Y-9525771D01*
X123347618Y-9525771D02*
X123204761Y-9525771D01*
X123204761Y-9525771D02*
X123109523Y-9573390D01*
X123109523Y-9573390D02*
X123061904Y-9621009D01*
X123061904Y-9621009D02*
X123014285Y-9716247D01*
X123014285Y-9716247D02*
X123014285Y-9954342D01*
X123014285Y-9954342D02*
X123061904Y-10049580D01*
X123061904Y-10049580D02*
X123109523Y-10097200D01*
X123109523Y-10097200D02*
X123204761Y-10144819D01*
X123204761Y-10144819D02*
X123490475Y-10144819D01*
X123490475Y-10144819D02*
X123585713Y-10097200D01*
X123585713Y-10097200D02*
X123633332Y-10049580D01*
X145092857Y-4174819D02*
X145426190Y-3698628D01*
X145664285Y-4174819D02*
X145664285Y-3174819D01*
X145664285Y-3174819D02*
X145283333Y-3174819D01*
X145283333Y-3174819D02*
X145188095Y-3222438D01*
X145188095Y-3222438D02*
X145140476Y-3270057D01*
X145140476Y-3270057D02*
X145092857Y-3365295D01*
X145092857Y-3365295D02*
X145092857Y-3508152D01*
X145092857Y-3508152D02*
X145140476Y-3603390D01*
X145140476Y-3603390D02*
X145188095Y-3651009D01*
X145188095Y-3651009D02*
X145283333Y-3698628D01*
X145283333Y-3698628D02*
X145664285Y-3698628D01*
X144140476Y-4174819D02*
X144711904Y-4174819D01*
X144426190Y-4174819D02*
X144426190Y-3174819D01*
X144426190Y-3174819D02*
X144521428Y-3317676D01*
X144521428Y-3317676D02*
X144616666Y-3412914D01*
X144616666Y-3412914D02*
X144711904Y-3460533D01*
X143188095Y-4174819D02*
X143759523Y-4174819D01*
X143473809Y-4174819D02*
X143473809Y-3174819D01*
X143473809Y-3174819D02*
X143569047Y-3317676D01*
X143569047Y-3317676D02*
X143664285Y-3412914D01*
X143664285Y-3412914D02*
X143759523Y-3460533D01*
X99666666Y-9235180D02*
X99666666Y-8520895D01*
X99666666Y-8520895D02*
X99619047Y-8378038D01*
X99619047Y-8378038D02*
X99523809Y-8282800D01*
X99523809Y-8282800D02*
X99380952Y-8235180D01*
X99380952Y-8235180D02*
X99285714Y-8235180D01*
X100666666Y-8235180D02*
X100095238Y-8235180D01*
X100380952Y-8235180D02*
X100380952Y-9235180D01*
X100380952Y-9235180D02*
X100285714Y-9092323D01*
X100285714Y-9092323D02*
X100190476Y-8997085D01*
X100190476Y-8997085D02*
X100095238Y-8949466D01*
X143232857Y-4174819D02*
X143566190Y-3698628D01*
X143804285Y-4174819D02*
X143804285Y-3174819D01*
X143804285Y-3174819D02*
X143423333Y-3174819D01*
X143423333Y-3174819D02*
X143328095Y-3222438D01*
X143328095Y-3222438D02*
X143280476Y-3270057D01*
X143280476Y-3270057D02*
X143232857Y-3365295D01*
X143232857Y-3365295D02*
X143232857Y-3508152D01*
X143232857Y-3508152D02*
X143280476Y-3603390D01*
X143280476Y-3603390D02*
X143328095Y-3651009D01*
X143328095Y-3651009D02*
X143423333Y-3698628D01*
X143423333Y-3698628D02*
X143804285Y-3698628D01*
X142280476Y-4174819D02*
X142851904Y-4174819D01*
X142566190Y-4174819D02*
X142566190Y-3174819D01*
X142566190Y-3174819D02*
X142661428Y-3317676D01*
X142661428Y-3317676D02*
X142756666Y-3412914D01*
X142756666Y-3412914D02*
X142851904Y-3460533D01*
X141661428Y-3174819D02*
X141566190Y-3174819D01*
X141566190Y-3174819D02*
X141470952Y-3222438D01*
X141470952Y-3222438D02*
X141423333Y-3270057D01*
X141423333Y-3270057D02*
X141375714Y-3365295D01*
X141375714Y-3365295D02*
X141328095Y-3555771D01*
X141328095Y-3555771D02*
X141328095Y-3793866D01*
X141328095Y-3793866D02*
X141375714Y-3984342D01*
X141375714Y-3984342D02*
X141423333Y-4079580D01*
X141423333Y-4079580D02*
X141470952Y-4127200D01*
X141470952Y-4127200D02*
X141566190Y-4174819D01*
X141566190Y-4174819D02*
X141661428Y-4174819D01*
X141661428Y-4174819D02*
X141756666Y-4127200D01*
X141756666Y-4127200D02*
X141804285Y-4079580D01*
X141804285Y-4079580D02*
X141851904Y-3984342D01*
X141851904Y-3984342D02*
X141899523Y-3793866D01*
X141899523Y-3793866D02*
X141899523Y-3555771D01*
X141899523Y-3555771D02*
X141851904Y-3365295D01*
X141851904Y-3365295D02*
X141804285Y-3270057D01*
X141804285Y-3270057D02*
X141756666Y-3222438D01*
X141756666Y-3222438D02*
X141661428Y-3174819D01*
X144124819Y-44261905D02*
X143124819Y-44261905D01*
X143124819Y-44261905D02*
X143124819Y-44500000D01*
X143124819Y-44500000D02*
X143172438Y-44642857D01*
X143172438Y-44642857D02*
X143267676Y-44738095D01*
X143267676Y-44738095D02*
X143362914Y-44785714D01*
X143362914Y-44785714D02*
X143553390Y-44833333D01*
X143553390Y-44833333D02*
X143696247Y-44833333D01*
X143696247Y-44833333D02*
X143886723Y-44785714D01*
X143886723Y-44785714D02*
X143981961Y-44738095D01*
X143981961Y-44738095D02*
X144077200Y-44642857D01*
X144077200Y-44642857D02*
X144124819Y-44500000D01*
X144124819Y-44500000D02*
X144124819Y-44261905D01*
X143124819Y-45690476D02*
X143124819Y-45500000D01*
X143124819Y-45500000D02*
X143172438Y-45404762D01*
X143172438Y-45404762D02*
X143220057Y-45357143D01*
X143220057Y-45357143D02*
X143362914Y-45261905D01*
X143362914Y-45261905D02*
X143553390Y-45214286D01*
X143553390Y-45214286D02*
X143934342Y-45214286D01*
X143934342Y-45214286D02*
X144029580Y-45261905D01*
X144029580Y-45261905D02*
X144077200Y-45309524D01*
X144077200Y-45309524D02*
X144124819Y-45404762D01*
X144124819Y-45404762D02*
X144124819Y-45595238D01*
X144124819Y-45595238D02*
X144077200Y-45690476D01*
X144077200Y-45690476D02*
X144029580Y-45738095D01*
X144029580Y-45738095D02*
X143934342Y-45785714D01*
X143934342Y-45785714D02*
X143696247Y-45785714D01*
X143696247Y-45785714D02*
X143601009Y-45738095D01*
X143601009Y-45738095D02*
X143553390Y-45690476D01*
X143553390Y-45690476D02*
X143505771Y-45595238D01*
X143505771Y-45595238D02*
X143505771Y-45404762D01*
X143505771Y-45404762D02*
X143553390Y-45309524D01*
X143553390Y-45309524D02*
X143601009Y-45261905D01*
X143601009Y-45261905D02*
X143696247Y-45214286D01*
X140032857Y-5974819D02*
X140366190Y-5498628D01*
X140604285Y-5974819D02*
X140604285Y-4974819D01*
X140604285Y-4974819D02*
X140223333Y-4974819D01*
X140223333Y-4974819D02*
X140128095Y-5022438D01*
X140128095Y-5022438D02*
X140080476Y-5070057D01*
X140080476Y-5070057D02*
X140032857Y-5165295D01*
X140032857Y-5165295D02*
X140032857Y-5308152D01*
X140032857Y-5308152D02*
X140080476Y-5403390D01*
X140080476Y-5403390D02*
X140128095Y-5451009D01*
X140128095Y-5451009D02*
X140223333Y-5498628D01*
X140223333Y-5498628D02*
X140604285Y-5498628D01*
X139080476Y-5974819D02*
X139651904Y-5974819D01*
X139366190Y-5974819D02*
X139366190Y-4974819D01*
X139366190Y-4974819D02*
X139461428Y-5117676D01*
X139461428Y-5117676D02*
X139556666Y-5212914D01*
X139556666Y-5212914D02*
X139651904Y-5260533D01*
X138747142Y-4974819D02*
X138128095Y-4974819D01*
X138128095Y-4974819D02*
X138461428Y-5355771D01*
X138461428Y-5355771D02*
X138318571Y-5355771D01*
X138318571Y-5355771D02*
X138223333Y-5403390D01*
X138223333Y-5403390D02*
X138175714Y-5451009D01*
X138175714Y-5451009D02*
X138128095Y-5546247D01*
X138128095Y-5546247D02*
X138128095Y-5784342D01*
X138128095Y-5784342D02*
X138175714Y-5879580D01*
X138175714Y-5879580D02*
X138223333Y-5927200D01*
X138223333Y-5927200D02*
X138318571Y-5974819D01*
X138318571Y-5974819D02*
X138604285Y-5974819D01*
X138604285Y-5974819D02*
X138699523Y-5927200D01*
X138699523Y-5927200D02*
X138747142Y-5879580D01*
X125328628Y-15473809D02*
X125804819Y-15473809D01*
X124804819Y-15140476D02*
X125328628Y-15473809D01*
X125328628Y-15473809D02*
X124804819Y-15807142D01*
X125804819Y-16664285D02*
X125804819Y-16092857D01*
X125804819Y-16378571D02*
X124804819Y-16378571D01*
X124804819Y-16378571D02*
X124947676Y-16283333D01*
X124947676Y-16283333D02*
X125042914Y-16188095D01*
X125042914Y-16188095D02*
X125090533Y-16092857D01*
X45124819Y-44261905D02*
X44124819Y-44261905D01*
X44124819Y-44261905D02*
X44124819Y-44500000D01*
X44124819Y-44500000D02*
X44172438Y-44642857D01*
X44172438Y-44642857D02*
X44267676Y-44738095D01*
X44267676Y-44738095D02*
X44362914Y-44785714D01*
X44362914Y-44785714D02*
X44553390Y-44833333D01*
X44553390Y-44833333D02*
X44696247Y-44833333D01*
X44696247Y-44833333D02*
X44886723Y-44785714D01*
X44886723Y-44785714D02*
X44981961Y-44738095D01*
X44981961Y-44738095D02*
X45077200Y-44642857D01*
X45077200Y-44642857D02*
X45124819Y-44500000D01*
X45124819Y-44500000D02*
X45124819Y-44261905D01*
X44124819Y-45166667D02*
X44124819Y-45785714D01*
X44124819Y-45785714D02*
X44505771Y-45452381D01*
X44505771Y-45452381D02*
X44505771Y-45595238D01*
X44505771Y-45595238D02*
X44553390Y-45690476D01*
X44553390Y-45690476D02*
X44601009Y-45738095D01*
X44601009Y-45738095D02*
X44696247Y-45785714D01*
X44696247Y-45785714D02*
X44934342Y-45785714D01*
X44934342Y-45785714D02*
X45029580Y-45738095D01*
X45029580Y-45738095D02*
X45077200Y-45690476D01*
X45077200Y-45690476D02*
X45124819Y-45595238D01*
X45124819Y-45595238D02*
X45124819Y-45309524D01*
X45124819Y-45309524D02*
X45077200Y-45214286D01*
X45077200Y-45214286D02*
X45029580Y-45166667D01*
X78124819Y-44261905D02*
X77124819Y-44261905D01*
X77124819Y-44261905D02*
X77124819Y-44500000D01*
X77124819Y-44500000D02*
X77172438Y-44642857D01*
X77172438Y-44642857D02*
X77267676Y-44738095D01*
X77267676Y-44738095D02*
X77362914Y-44785714D01*
X77362914Y-44785714D02*
X77553390Y-44833333D01*
X77553390Y-44833333D02*
X77696247Y-44833333D01*
X77696247Y-44833333D02*
X77886723Y-44785714D01*
X77886723Y-44785714D02*
X77981961Y-44738095D01*
X77981961Y-44738095D02*
X78077200Y-44642857D01*
X78077200Y-44642857D02*
X78124819Y-44500000D01*
X78124819Y-44500000D02*
X78124819Y-44261905D01*
X77458152Y-45690476D02*
X78124819Y-45690476D01*
X77077200Y-45452381D02*
X77791485Y-45214286D01*
X77791485Y-45214286D02*
X77791485Y-45833333D01*
X146442857Y-16869580D02*
X146490476Y-16917200D01*
X146490476Y-16917200D02*
X146633333Y-16964819D01*
X146633333Y-16964819D02*
X146728571Y-16964819D01*
X146728571Y-16964819D02*
X146871428Y-16917200D01*
X146871428Y-16917200D02*
X146966666Y-16821961D01*
X146966666Y-16821961D02*
X147014285Y-16726723D01*
X147014285Y-16726723D02*
X147061904Y-16536247D01*
X147061904Y-16536247D02*
X147061904Y-16393390D01*
X147061904Y-16393390D02*
X147014285Y-16202914D01*
X147014285Y-16202914D02*
X146966666Y-16107676D01*
X146966666Y-16107676D02*
X146871428Y-16012438D01*
X146871428Y-16012438D02*
X146728571Y-15964819D01*
X146728571Y-15964819D02*
X146633333Y-15964819D01*
X146633333Y-15964819D02*
X146490476Y-16012438D01*
X146490476Y-16012438D02*
X146442857Y-16060057D01*
X145490476Y-16964819D02*
X146061904Y-16964819D01*
X145776190Y-16964819D02*
X145776190Y-15964819D01*
X145776190Y-15964819D02*
X145871428Y-16107676D01*
X145871428Y-16107676D02*
X145966666Y-16202914D01*
X145966666Y-16202914D02*
X146061904Y-16250533D01*
X144585714Y-15964819D02*
X145061904Y-15964819D01*
X145061904Y-15964819D02*
X145109523Y-16441009D01*
X145109523Y-16441009D02*
X145061904Y-16393390D01*
X145061904Y-16393390D02*
X144966666Y-16345771D01*
X144966666Y-16345771D02*
X144728571Y-16345771D01*
X144728571Y-16345771D02*
X144633333Y-16393390D01*
X144633333Y-16393390D02*
X144585714Y-16441009D01*
X144585714Y-16441009D02*
X144538095Y-16536247D01*
X144538095Y-16536247D02*
X144538095Y-16774342D01*
X144538095Y-16774342D02*
X144585714Y-16869580D01*
X144585714Y-16869580D02*
X144633333Y-16917200D01*
X144633333Y-16917200D02*
X144728571Y-16964819D01*
X144728571Y-16964819D02*
X144966666Y-16964819D01*
X144966666Y-16964819D02*
X145061904Y-16917200D01*
X145061904Y-16917200D02*
X145109523Y-16869580D01*
X136534819Y-11488095D02*
X137344342Y-11488095D01*
X137344342Y-11488095D02*
X137439580Y-11535714D01*
X137439580Y-11535714D02*
X137487200Y-11583333D01*
X137487200Y-11583333D02*
X137534819Y-11678571D01*
X137534819Y-11678571D02*
X137534819Y-11869047D01*
X137534819Y-11869047D02*
X137487200Y-11964285D01*
X137487200Y-11964285D02*
X137439580Y-12011904D01*
X137439580Y-12011904D02*
X137344342Y-12059523D01*
X137344342Y-12059523D02*
X136534819Y-12059523D01*
X137534819Y-13059523D02*
X137534819Y-12488095D01*
X137534819Y-12773809D02*
X136534819Y-12773809D01*
X136534819Y-12773809D02*
X136677676Y-12678571D01*
X136677676Y-12678571D02*
X136772914Y-12583333D01*
X136772914Y-12583333D02*
X136820533Y-12488095D01*
X132169580Y-6237142D02*
X132217200Y-6189523D01*
X132217200Y-6189523D02*
X132264819Y-6046666D01*
X132264819Y-6046666D02*
X132264819Y-5951428D01*
X132264819Y-5951428D02*
X132217200Y-5808571D01*
X132217200Y-5808571D02*
X132121961Y-5713333D01*
X132121961Y-5713333D02*
X132026723Y-5665714D01*
X132026723Y-5665714D02*
X131836247Y-5618095D01*
X131836247Y-5618095D02*
X131693390Y-5618095D01*
X131693390Y-5618095D02*
X131502914Y-5665714D01*
X131502914Y-5665714D02*
X131407676Y-5713333D01*
X131407676Y-5713333D02*
X131312438Y-5808571D01*
X131312438Y-5808571D02*
X131264819Y-5951428D01*
X131264819Y-5951428D02*
X131264819Y-6046666D01*
X131264819Y-6046666D02*
X131312438Y-6189523D01*
X131312438Y-6189523D02*
X131360057Y-6237142D01*
X132264819Y-7189523D02*
X132264819Y-6618095D01*
X132264819Y-6903809D02*
X131264819Y-6903809D01*
X131264819Y-6903809D02*
X131407676Y-6808571D01*
X131407676Y-6808571D02*
X131502914Y-6713333D01*
X131502914Y-6713333D02*
X131550533Y-6618095D01*
X131264819Y-7522857D02*
X131264819Y-8141904D01*
X131264819Y-8141904D02*
X131645771Y-7808571D01*
X131645771Y-7808571D02*
X131645771Y-7951428D01*
X131645771Y-7951428D02*
X131693390Y-8046666D01*
X131693390Y-8046666D02*
X131741009Y-8094285D01*
X131741009Y-8094285D02*
X131836247Y-8141904D01*
X131836247Y-8141904D02*
X132074342Y-8141904D01*
X132074342Y-8141904D02*
X132169580Y-8094285D01*
X132169580Y-8094285D02*
X132217200Y-8046666D01*
X132217200Y-8046666D02*
X132264819Y-7951428D01*
X132264819Y-7951428D02*
X132264819Y-7665714D01*
X132264819Y-7665714D02*
X132217200Y-7570476D01*
X132217200Y-7570476D02*
X132169580Y-7522857D01*
X125299580Y-2607142D02*
X125347200Y-2559523D01*
X125347200Y-2559523D02*
X125394819Y-2416666D01*
X125394819Y-2416666D02*
X125394819Y-2321428D01*
X125394819Y-2321428D02*
X125347200Y-2178571D01*
X125347200Y-2178571D02*
X125251961Y-2083333D01*
X125251961Y-2083333D02*
X125156723Y-2035714D01*
X125156723Y-2035714D02*
X124966247Y-1988095D01*
X124966247Y-1988095D02*
X124823390Y-1988095D01*
X124823390Y-1988095D02*
X124632914Y-2035714D01*
X124632914Y-2035714D02*
X124537676Y-2083333D01*
X124537676Y-2083333D02*
X124442438Y-2178571D01*
X124442438Y-2178571D02*
X124394819Y-2321428D01*
X124394819Y-2321428D02*
X124394819Y-2416666D01*
X124394819Y-2416666D02*
X124442438Y-2559523D01*
X124442438Y-2559523D02*
X124490057Y-2607142D01*
X125394819Y-3559523D02*
X125394819Y-2988095D01*
X125394819Y-3273809D02*
X124394819Y-3273809D01*
X124394819Y-3273809D02*
X124537676Y-3178571D01*
X124537676Y-3178571D02*
X124632914Y-3083333D01*
X124632914Y-3083333D02*
X124680533Y-2988095D01*
X124490057Y-3940476D02*
X124442438Y-3988095D01*
X124442438Y-3988095D02*
X124394819Y-4083333D01*
X124394819Y-4083333D02*
X124394819Y-4321428D01*
X124394819Y-4321428D02*
X124442438Y-4416666D01*
X124442438Y-4416666D02*
X124490057Y-4464285D01*
X124490057Y-4464285D02*
X124585295Y-4511904D01*
X124585295Y-4511904D02*
X124680533Y-4511904D01*
X124680533Y-4511904D02*
X124823390Y-4464285D01*
X124823390Y-4464285D02*
X125394819Y-3892857D01*
X125394819Y-3892857D02*
X125394819Y-4511904D01*
X127666666Y-2984819D02*
X127999999Y-2508628D01*
X128238094Y-2984819D02*
X128238094Y-1984819D01*
X128238094Y-1984819D02*
X127857142Y-1984819D01*
X127857142Y-1984819D02*
X127761904Y-2032438D01*
X127761904Y-2032438D02*
X127714285Y-2080057D01*
X127714285Y-2080057D02*
X127666666Y-2175295D01*
X127666666Y-2175295D02*
X127666666Y-2318152D01*
X127666666Y-2318152D02*
X127714285Y-2413390D01*
X127714285Y-2413390D02*
X127761904Y-2461009D01*
X127761904Y-2461009D02*
X127857142Y-2508628D01*
X127857142Y-2508628D02*
X128238094Y-2508628D01*
X126809523Y-1984819D02*
X126999999Y-1984819D01*
X126999999Y-1984819D02*
X127095237Y-2032438D01*
X127095237Y-2032438D02*
X127142856Y-2080057D01*
X127142856Y-2080057D02*
X127238094Y-2222914D01*
X127238094Y-2222914D02*
X127285713Y-2413390D01*
X127285713Y-2413390D02*
X127285713Y-2794342D01*
X127285713Y-2794342D02*
X127238094Y-2889580D01*
X127238094Y-2889580D02*
X127190475Y-2937200D01*
X127190475Y-2937200D02*
X127095237Y-2984819D01*
X127095237Y-2984819D02*
X126904761Y-2984819D01*
X126904761Y-2984819D02*
X126809523Y-2937200D01*
X126809523Y-2937200D02*
X126761904Y-2889580D01*
X126761904Y-2889580D02*
X126714285Y-2794342D01*
X126714285Y-2794342D02*
X126714285Y-2556247D01*
X126714285Y-2556247D02*
X126761904Y-2461009D01*
X126761904Y-2461009D02*
X126809523Y-2413390D01*
X126809523Y-2413390D02*
X126904761Y-2365771D01*
X126904761Y-2365771D02*
X127095237Y-2365771D01*
X127095237Y-2365771D02*
X127190475Y-2413390D01*
X127190475Y-2413390D02*
X127238094Y-2461009D01*
X127238094Y-2461009D02*
X127285713Y-2556247D01*
X142966666Y-11819580D02*
X143014285Y-11867200D01*
X143014285Y-11867200D02*
X143157142Y-11914819D01*
X143157142Y-11914819D02*
X143252380Y-11914819D01*
X143252380Y-11914819D02*
X143395237Y-11867200D01*
X143395237Y-11867200D02*
X143490475Y-11771961D01*
X143490475Y-11771961D02*
X143538094Y-11676723D01*
X143538094Y-11676723D02*
X143585713Y-11486247D01*
X143585713Y-11486247D02*
X143585713Y-11343390D01*
X143585713Y-11343390D02*
X143538094Y-11152914D01*
X143538094Y-11152914D02*
X143490475Y-11057676D01*
X143490475Y-11057676D02*
X143395237Y-10962438D01*
X143395237Y-10962438D02*
X143252380Y-10914819D01*
X143252380Y-10914819D02*
X143157142Y-10914819D01*
X143157142Y-10914819D02*
X143014285Y-10962438D01*
X143014285Y-10962438D02*
X142966666Y-11010057D01*
X142585713Y-11010057D02*
X142538094Y-10962438D01*
X142538094Y-10962438D02*
X142442856Y-10914819D01*
X142442856Y-10914819D02*
X142204761Y-10914819D01*
X142204761Y-10914819D02*
X142109523Y-10962438D01*
X142109523Y-10962438D02*
X142061904Y-11010057D01*
X142061904Y-11010057D02*
X142014285Y-11105295D01*
X142014285Y-11105295D02*
X142014285Y-11200533D01*
X142014285Y-11200533D02*
X142061904Y-11343390D01*
X142061904Y-11343390D02*
X142633332Y-11914819D01*
X142633332Y-11914819D02*
X142014285Y-11914819D01*
X138996666Y-10534819D02*
X139329999Y-10058628D01*
X139568094Y-10534819D02*
X139568094Y-9534819D01*
X139568094Y-9534819D02*
X139187142Y-9534819D01*
X139187142Y-9534819D02*
X139091904Y-9582438D01*
X139091904Y-9582438D02*
X139044285Y-9630057D01*
X139044285Y-9630057D02*
X138996666Y-9725295D01*
X138996666Y-9725295D02*
X138996666Y-9868152D01*
X138996666Y-9868152D02*
X139044285Y-9963390D01*
X139044285Y-9963390D02*
X139091904Y-10011009D01*
X139091904Y-10011009D02*
X139187142Y-10058628D01*
X139187142Y-10058628D02*
X139568094Y-10058628D01*
X138663332Y-9534819D02*
X138044285Y-9534819D01*
X138044285Y-9534819D02*
X138377618Y-9915771D01*
X138377618Y-9915771D02*
X138234761Y-9915771D01*
X138234761Y-9915771D02*
X138139523Y-9963390D01*
X138139523Y-9963390D02*
X138091904Y-10011009D01*
X138091904Y-10011009D02*
X138044285Y-10106247D01*
X138044285Y-10106247D02*
X138044285Y-10344342D01*
X138044285Y-10344342D02*
X138091904Y-10439580D01*
X138091904Y-10439580D02*
X138139523Y-10487200D01*
X138139523Y-10487200D02*
X138234761Y-10534819D01*
X138234761Y-10534819D02*
X138520475Y-10534819D01*
X138520475Y-10534819D02*
X138615713Y-10487200D01*
X138615713Y-10487200D02*
X138663332Y-10439580D01*
X127624819Y-86261905D02*
X126624819Y-86261905D01*
X126624819Y-86261905D02*
X126624819Y-86500000D01*
X126624819Y-86500000D02*
X126672438Y-86642857D01*
X126672438Y-86642857D02*
X126767676Y-86738095D01*
X126767676Y-86738095D02*
X126862914Y-86785714D01*
X126862914Y-86785714D02*
X127053390Y-86833333D01*
X127053390Y-86833333D02*
X127196247Y-86833333D01*
X127196247Y-86833333D02*
X127386723Y-86785714D01*
X127386723Y-86785714D02*
X127481961Y-86738095D01*
X127481961Y-86738095D02*
X127577200Y-86642857D01*
X127577200Y-86642857D02*
X127624819Y-86500000D01*
X127624819Y-86500000D02*
X127624819Y-86261905D01*
X127624819Y-87309524D02*
X127624819Y-87500000D01*
X127624819Y-87500000D02*
X127577200Y-87595238D01*
X127577200Y-87595238D02*
X127529580Y-87642857D01*
X127529580Y-87642857D02*
X127386723Y-87738095D01*
X127386723Y-87738095D02*
X127196247Y-87785714D01*
X127196247Y-87785714D02*
X126815295Y-87785714D01*
X126815295Y-87785714D02*
X126720057Y-87738095D01*
X126720057Y-87738095D02*
X126672438Y-87690476D01*
X126672438Y-87690476D02*
X126624819Y-87595238D01*
X126624819Y-87595238D02*
X126624819Y-87404762D01*
X126624819Y-87404762D02*
X126672438Y-87309524D01*
X126672438Y-87309524D02*
X126720057Y-87261905D01*
X126720057Y-87261905D02*
X126815295Y-87214286D01*
X126815295Y-87214286D02*
X127053390Y-87214286D01*
X127053390Y-87214286D02*
X127148628Y-87261905D01*
X127148628Y-87261905D02*
X127196247Y-87309524D01*
X127196247Y-87309524D02*
X127243866Y-87404762D01*
X127243866Y-87404762D02*
X127243866Y-87595238D01*
X127243866Y-87595238D02*
X127196247Y-87690476D01*
X127196247Y-87690476D02*
X127148628Y-87738095D01*
X127148628Y-87738095D02*
X127053390Y-87785714D01*
X101034819Y-8747142D02*
X100558628Y-8413809D01*
X101034819Y-8175714D02*
X100034819Y-8175714D01*
X100034819Y-8175714D02*
X100034819Y-8556666D01*
X100034819Y-8556666D02*
X100082438Y-8651904D01*
X100082438Y-8651904D02*
X100130057Y-8699523D01*
X100130057Y-8699523D02*
X100225295Y-8747142D01*
X100225295Y-8747142D02*
X100368152Y-8747142D01*
X100368152Y-8747142D02*
X100463390Y-8699523D01*
X100463390Y-8699523D02*
X100511009Y-8651904D01*
X100511009Y-8651904D02*
X100558628Y-8556666D01*
X100558628Y-8556666D02*
X100558628Y-8175714D01*
X101034819Y-9699523D02*
X101034819Y-9128095D01*
X101034819Y-9413809D02*
X100034819Y-9413809D01*
X100034819Y-9413809D02*
X100177676Y-9318571D01*
X100177676Y-9318571D02*
X100272914Y-9223333D01*
X100272914Y-9223333D02*
X100320533Y-9128095D01*
X100034819Y-10604285D02*
X100034819Y-10128095D01*
X100034819Y-10128095D02*
X100511009Y-10080476D01*
X100511009Y-10080476D02*
X100463390Y-10128095D01*
X100463390Y-10128095D02*
X100415771Y-10223333D01*
X100415771Y-10223333D02*
X100415771Y-10461428D01*
X100415771Y-10461428D02*
X100463390Y-10556666D01*
X100463390Y-10556666D02*
X100511009Y-10604285D01*
X100511009Y-10604285D02*
X100606247Y-10651904D01*
X100606247Y-10651904D02*
X100844342Y-10651904D01*
X100844342Y-10651904D02*
X100939580Y-10604285D01*
X100939580Y-10604285D02*
X100987200Y-10556666D01*
X100987200Y-10556666D02*
X101034819Y-10461428D01*
X101034819Y-10461428D02*
X101034819Y-10223333D01*
X101034819Y-10223333D02*
X100987200Y-10128095D01*
X100987200Y-10128095D02*
X100939580Y-10080476D01*
X130766666Y-334819D02*
X131099999Y141372D01*
X131338094Y-334819D02*
X131338094Y665181D01*
X131338094Y665181D02*
X130957142Y665181D01*
X130957142Y665181D02*
X130861904Y617562D01*
X130861904Y617562D02*
X130814285Y569943D01*
X130814285Y569943D02*
X130766666Y474705D01*
X130766666Y474705D02*
X130766666Y331848D01*
X130766666Y331848D02*
X130814285Y236610D01*
X130814285Y236610D02*
X130861904Y188991D01*
X130861904Y188991D02*
X130957142Y141372D01*
X130957142Y141372D02*
X131338094Y141372D01*
X130433332Y665181D02*
X129766666Y665181D01*
X129766666Y665181D02*
X130195237Y-334819D01*
X146190057Y-5049761D02*
X146142438Y-4954523D01*
X146142438Y-4954523D02*
X146047200Y-4859285D01*
X146047200Y-4859285D02*
X145904342Y-4716428D01*
X145904342Y-4716428D02*
X145856723Y-4621190D01*
X145856723Y-4621190D02*
X145856723Y-4525952D01*
X146094819Y-4573571D02*
X146047200Y-4478333D01*
X146047200Y-4478333D02*
X145951961Y-4383095D01*
X145951961Y-4383095D02*
X145761485Y-4335476D01*
X145761485Y-4335476D02*
X145428152Y-4335476D01*
X145428152Y-4335476D02*
X145237676Y-4383095D01*
X145237676Y-4383095D02*
X145142438Y-4478333D01*
X145142438Y-4478333D02*
X145094819Y-4573571D01*
X145094819Y-4573571D02*
X145094819Y-4764047D01*
X145094819Y-4764047D02*
X145142438Y-4859285D01*
X145142438Y-4859285D02*
X145237676Y-4954523D01*
X145237676Y-4954523D02*
X145428152Y-5002142D01*
X145428152Y-5002142D02*
X145761485Y-5002142D01*
X145761485Y-5002142D02*
X145951961Y-4954523D01*
X145951961Y-4954523D02*
X146047200Y-4859285D01*
X146047200Y-4859285D02*
X146094819Y-4764047D01*
X146094819Y-4764047D02*
X146094819Y-4573571D01*
X146094819Y-5954523D02*
X146094819Y-5383095D01*
X146094819Y-5668809D02*
X145094819Y-5668809D01*
X145094819Y-5668809D02*
X145237676Y-5573571D01*
X145237676Y-5573571D02*
X145332914Y-5478333D01*
X145332914Y-5478333D02*
X145380533Y-5383095D01*
X142028094Y-3634819D02*
X142028094Y-2634819D01*
X142028094Y-2634819D02*
X141789999Y-2634819D01*
X141789999Y-2634819D02*
X141647142Y-2682438D01*
X141647142Y-2682438D02*
X141551904Y-2777676D01*
X141551904Y-2777676D02*
X141504285Y-2872914D01*
X141504285Y-2872914D02*
X141456666Y-3063390D01*
X141456666Y-3063390D02*
X141456666Y-3206247D01*
X141456666Y-3206247D02*
X141504285Y-3396723D01*
X141504285Y-3396723D02*
X141551904Y-3491961D01*
X141551904Y-3491961D02*
X141647142Y-3587200D01*
X141647142Y-3587200D02*
X141789999Y-3634819D01*
X141789999Y-3634819D02*
X142028094Y-3634819D01*
X141075713Y-2730057D02*
X141028094Y-2682438D01*
X141028094Y-2682438D02*
X140932856Y-2634819D01*
X140932856Y-2634819D02*
X140694761Y-2634819D01*
X140694761Y-2634819D02*
X140599523Y-2682438D01*
X140599523Y-2682438D02*
X140551904Y-2730057D01*
X140551904Y-2730057D02*
X140504285Y-2825295D01*
X140504285Y-2825295D02*
X140504285Y-2920533D01*
X140504285Y-2920533D02*
X140551904Y-3063390D01*
X140551904Y-3063390D02*
X141123332Y-3634819D01*
X141123332Y-3634819D02*
X140504285Y-3634819D01*
X146683332Y-31027200D02*
X146540475Y-31074819D01*
X146540475Y-31074819D02*
X146302380Y-31074819D01*
X146302380Y-31074819D02*
X146207142Y-31027200D01*
X146207142Y-31027200D02*
X146159523Y-30979580D01*
X146159523Y-30979580D02*
X146111904Y-30884342D01*
X146111904Y-30884342D02*
X146111904Y-30789104D01*
X146111904Y-30789104D02*
X146159523Y-30693866D01*
X146159523Y-30693866D02*
X146207142Y-30646247D01*
X146207142Y-30646247D02*
X146302380Y-30598628D01*
X146302380Y-30598628D02*
X146492856Y-30551009D01*
X146492856Y-30551009D02*
X146588094Y-30503390D01*
X146588094Y-30503390D02*
X146635713Y-30455771D01*
X146635713Y-30455771D02*
X146683332Y-30360533D01*
X146683332Y-30360533D02*
X146683332Y-30265295D01*
X146683332Y-30265295D02*
X146635713Y-30170057D01*
X146635713Y-30170057D02*
X146588094Y-30122438D01*
X146588094Y-30122438D02*
X146492856Y-30074819D01*
X146492856Y-30074819D02*
X146254761Y-30074819D01*
X146254761Y-30074819D02*
X146111904Y-30122438D01*
X145778570Y-30074819D02*
X145540475Y-31074819D01*
X145540475Y-31074819D02*
X145349999Y-30360533D01*
X145349999Y-30360533D02*
X145159523Y-31074819D01*
X145159523Y-31074819D02*
X144921428Y-30074819D01*
X144016666Y-31074819D02*
X144588094Y-31074819D01*
X144302380Y-31074819D02*
X144302380Y-30074819D01*
X144302380Y-30074819D02*
X144397618Y-30217676D01*
X144397618Y-30217676D02*
X144492856Y-30312914D01*
X144492856Y-30312914D02*
X144588094Y-30360533D01*
X140376666Y-2924819D02*
X140709999Y-2448628D01*
X140948094Y-2924819D02*
X140948094Y-1924819D01*
X140948094Y-1924819D02*
X140567142Y-1924819D01*
X140567142Y-1924819D02*
X140471904Y-1972438D01*
X140471904Y-1972438D02*
X140424285Y-2020057D01*
X140424285Y-2020057D02*
X140376666Y-2115295D01*
X140376666Y-2115295D02*
X140376666Y-2258152D01*
X140376666Y-2258152D02*
X140424285Y-2353390D01*
X140424285Y-2353390D02*
X140471904Y-2401009D01*
X140471904Y-2401009D02*
X140567142Y-2448628D01*
X140567142Y-2448628D02*
X140948094Y-2448628D01*
X139995713Y-2020057D02*
X139948094Y-1972438D01*
X139948094Y-1972438D02*
X139852856Y-1924819D01*
X139852856Y-1924819D02*
X139614761Y-1924819D01*
X139614761Y-1924819D02*
X139519523Y-1972438D01*
X139519523Y-1972438D02*
X139471904Y-2020057D01*
X139471904Y-2020057D02*
X139424285Y-2115295D01*
X139424285Y-2115295D02*
X139424285Y-2210533D01*
X139424285Y-2210533D02*
X139471904Y-2353390D01*
X139471904Y-2353390D02*
X140043332Y-2924819D01*
X140043332Y-2924819D02*
X139424285Y-2924819D01*
X138996666Y-9584819D02*
X139329999Y-9108628D01*
X139568094Y-9584819D02*
X139568094Y-8584819D01*
X139568094Y-8584819D02*
X139187142Y-8584819D01*
X139187142Y-8584819D02*
X139091904Y-8632438D01*
X139091904Y-8632438D02*
X139044285Y-8680057D01*
X139044285Y-8680057D02*
X138996666Y-8775295D01*
X138996666Y-8775295D02*
X138996666Y-8918152D01*
X138996666Y-8918152D02*
X139044285Y-9013390D01*
X139044285Y-9013390D02*
X139091904Y-9061009D01*
X139091904Y-9061009D02*
X139187142Y-9108628D01*
X139187142Y-9108628D02*
X139568094Y-9108628D01*
X138139523Y-8918152D02*
X138139523Y-9584819D01*
X138377618Y-8537200D02*
X138615713Y-9251485D01*
X138615713Y-9251485D02*
X137996666Y-9251485D01*
X146464819Y-19738095D02*
X147274342Y-19738095D01*
X147274342Y-19738095D02*
X147369580Y-19785714D01*
X147369580Y-19785714D02*
X147417200Y-19833333D01*
X147417200Y-19833333D02*
X147464819Y-19928571D01*
X147464819Y-19928571D02*
X147464819Y-20119047D01*
X147464819Y-20119047D02*
X147417200Y-20214285D01*
X147417200Y-20214285D02*
X147369580Y-20261904D01*
X147369580Y-20261904D02*
X147274342Y-20309523D01*
X147274342Y-20309523D02*
X146464819Y-20309523D01*
X146464819Y-20690476D02*
X146464819Y-21309523D01*
X146464819Y-21309523D02*
X146845771Y-20976190D01*
X146845771Y-20976190D02*
X146845771Y-21119047D01*
X146845771Y-21119047D02*
X146893390Y-21214285D01*
X146893390Y-21214285D02*
X146941009Y-21261904D01*
X146941009Y-21261904D02*
X147036247Y-21309523D01*
X147036247Y-21309523D02*
X147274342Y-21309523D01*
X147274342Y-21309523D02*
X147369580Y-21261904D01*
X147369580Y-21261904D02*
X147417200Y-21214285D01*
X147417200Y-21214285D02*
X147464819Y-21119047D01*
X147464819Y-21119047D02*
X147464819Y-20833333D01*
X147464819Y-20833333D02*
X147417200Y-20738095D01*
X147417200Y-20738095D02*
X147369580Y-20690476D01*
X146974819Y-25933333D02*
X146498628Y-25600000D01*
X146974819Y-25361905D02*
X145974819Y-25361905D01*
X145974819Y-25361905D02*
X145974819Y-25742857D01*
X145974819Y-25742857D02*
X146022438Y-25838095D01*
X146022438Y-25838095D02*
X146070057Y-25885714D01*
X146070057Y-25885714D02*
X146165295Y-25933333D01*
X146165295Y-25933333D02*
X146308152Y-25933333D01*
X146308152Y-25933333D02*
X146403390Y-25885714D01*
X146403390Y-25885714D02*
X146451009Y-25838095D01*
X146451009Y-25838095D02*
X146498628Y-25742857D01*
X146498628Y-25742857D02*
X146498628Y-25361905D01*
X146974819Y-26409524D02*
X146974819Y-26600000D01*
X146974819Y-26600000D02*
X146927200Y-26695238D01*
X146927200Y-26695238D02*
X146879580Y-26742857D01*
X146879580Y-26742857D02*
X146736723Y-26838095D01*
X146736723Y-26838095D02*
X146546247Y-26885714D01*
X146546247Y-26885714D02*
X146165295Y-26885714D01*
X146165295Y-26885714D02*
X146070057Y-26838095D01*
X146070057Y-26838095D02*
X146022438Y-26790476D01*
X146022438Y-26790476D02*
X145974819Y-26695238D01*
X145974819Y-26695238D02*
X145974819Y-26504762D01*
X145974819Y-26504762D02*
X146022438Y-26409524D01*
X146022438Y-26409524D02*
X146070057Y-26361905D01*
X146070057Y-26361905D02*
X146165295Y-26314286D01*
X146165295Y-26314286D02*
X146403390Y-26314286D01*
X146403390Y-26314286D02*
X146498628Y-26361905D01*
X146498628Y-26361905D02*
X146546247Y-26409524D01*
X146546247Y-26409524D02*
X146593866Y-26504762D01*
X146593866Y-26504762D02*
X146593866Y-26695238D01*
X146593866Y-26695238D02*
X146546247Y-26790476D01*
X146546247Y-26790476D02*
X146498628Y-26838095D01*
X146498628Y-26838095D02*
X146403390Y-26885714D01*
X137586666Y-18469580D02*
X137634285Y-18517200D01*
X137634285Y-18517200D02*
X137777142Y-18564819D01*
X137777142Y-18564819D02*
X137872380Y-18564819D01*
X137872380Y-18564819D02*
X138015237Y-18517200D01*
X138015237Y-18517200D02*
X138110475Y-18421961D01*
X138110475Y-18421961D02*
X138158094Y-18326723D01*
X138158094Y-18326723D02*
X138205713Y-18136247D01*
X138205713Y-18136247D02*
X138205713Y-17993390D01*
X138205713Y-17993390D02*
X138158094Y-17802914D01*
X138158094Y-17802914D02*
X138110475Y-17707676D01*
X138110475Y-17707676D02*
X138015237Y-17612438D01*
X138015237Y-17612438D02*
X137872380Y-17564819D01*
X137872380Y-17564819D02*
X137777142Y-17564819D01*
X137777142Y-17564819D02*
X137634285Y-17612438D01*
X137634285Y-17612438D02*
X137586666Y-17660057D01*
X136729523Y-17898152D02*
X136729523Y-18564819D01*
X136967618Y-17517200D02*
X137205713Y-18231485D01*
X137205713Y-18231485D02*
X136586666Y-18231485D01*
X138862857Y-9919580D02*
X138910476Y-9967200D01*
X138910476Y-9967200D02*
X139053333Y-10014819D01*
X139053333Y-10014819D02*
X139148571Y-10014819D01*
X139148571Y-10014819D02*
X139291428Y-9967200D01*
X139291428Y-9967200D02*
X139386666Y-9871961D01*
X139386666Y-9871961D02*
X139434285Y-9776723D01*
X139434285Y-9776723D02*
X139481904Y-9586247D01*
X139481904Y-9586247D02*
X139481904Y-9443390D01*
X139481904Y-9443390D02*
X139434285Y-9252914D01*
X139434285Y-9252914D02*
X139386666Y-9157676D01*
X139386666Y-9157676D02*
X139291428Y-9062438D01*
X139291428Y-9062438D02*
X139148571Y-9014819D01*
X139148571Y-9014819D02*
X139053333Y-9014819D01*
X139053333Y-9014819D02*
X138910476Y-9062438D01*
X138910476Y-9062438D02*
X138862857Y-9110057D01*
X137910476Y-10014819D02*
X138481904Y-10014819D01*
X138196190Y-10014819D02*
X138196190Y-9014819D01*
X138196190Y-9014819D02*
X138291428Y-9157676D01*
X138291428Y-9157676D02*
X138386666Y-9252914D01*
X138386666Y-9252914D02*
X138481904Y-9300533D01*
X137291428Y-9014819D02*
X137196190Y-9014819D01*
X137196190Y-9014819D02*
X137100952Y-9062438D01*
X137100952Y-9062438D02*
X137053333Y-9110057D01*
X137053333Y-9110057D02*
X137005714Y-9205295D01*
X137005714Y-9205295D02*
X136958095Y-9395771D01*
X136958095Y-9395771D02*
X136958095Y-9633866D01*
X136958095Y-9633866D02*
X137005714Y-9824342D01*
X137005714Y-9824342D02*
X137053333Y-9919580D01*
X137053333Y-9919580D02*
X137100952Y-9967200D01*
X137100952Y-9967200D02*
X137196190Y-10014819D01*
X137196190Y-10014819D02*
X137291428Y-10014819D01*
X137291428Y-10014819D02*
X137386666Y-9967200D01*
X137386666Y-9967200D02*
X137434285Y-9919580D01*
X137434285Y-9919580D02*
X137481904Y-9824342D01*
X137481904Y-9824342D02*
X137529523Y-9633866D01*
X137529523Y-9633866D02*
X137529523Y-9395771D01*
X137529523Y-9395771D02*
X137481904Y-9205295D01*
X137481904Y-9205295D02*
X137434285Y-9110057D01*
X137434285Y-9110057D02*
X137386666Y-9062438D01*
X137386666Y-9062438D02*
X137291428Y-9014819D01*
X132724819Y-3533333D02*
X132248628Y-3200000D01*
X132724819Y-2961905D02*
X131724819Y-2961905D01*
X131724819Y-2961905D02*
X131724819Y-3342857D01*
X131724819Y-3342857D02*
X131772438Y-3438095D01*
X131772438Y-3438095D02*
X131820057Y-3485714D01*
X131820057Y-3485714D02*
X131915295Y-3533333D01*
X131915295Y-3533333D02*
X132058152Y-3533333D01*
X132058152Y-3533333D02*
X132153390Y-3485714D01*
X132153390Y-3485714D02*
X132201009Y-3438095D01*
X132201009Y-3438095D02*
X132248628Y-3342857D01*
X132248628Y-3342857D02*
X132248628Y-2961905D01*
X132153390Y-4104762D02*
X132105771Y-4009524D01*
X132105771Y-4009524D02*
X132058152Y-3961905D01*
X132058152Y-3961905D02*
X131962914Y-3914286D01*
X131962914Y-3914286D02*
X131915295Y-3914286D01*
X131915295Y-3914286D02*
X131820057Y-3961905D01*
X131820057Y-3961905D02*
X131772438Y-4009524D01*
X131772438Y-4009524D02*
X131724819Y-4104762D01*
X131724819Y-4104762D02*
X131724819Y-4295238D01*
X131724819Y-4295238D02*
X131772438Y-4390476D01*
X131772438Y-4390476D02*
X131820057Y-4438095D01*
X131820057Y-4438095D02*
X131915295Y-4485714D01*
X131915295Y-4485714D02*
X131962914Y-4485714D01*
X131962914Y-4485714D02*
X132058152Y-4438095D01*
X132058152Y-4438095D02*
X132105771Y-4390476D01*
X132105771Y-4390476D02*
X132153390Y-4295238D01*
X132153390Y-4295238D02*
X132153390Y-4104762D01*
X132153390Y-4104762D02*
X132201009Y-4009524D01*
X132201009Y-4009524D02*
X132248628Y-3961905D01*
X132248628Y-3961905D02*
X132343866Y-3914286D01*
X132343866Y-3914286D02*
X132534342Y-3914286D01*
X132534342Y-3914286D02*
X132629580Y-3961905D01*
X132629580Y-3961905D02*
X132677200Y-4009524D01*
X132677200Y-4009524D02*
X132724819Y-4104762D01*
X132724819Y-4104762D02*
X132724819Y-4295238D01*
X132724819Y-4295238D02*
X132677200Y-4390476D01*
X132677200Y-4390476D02*
X132629580Y-4438095D01*
X132629580Y-4438095D02*
X132534342Y-4485714D01*
X132534342Y-4485714D02*
X132343866Y-4485714D01*
X132343866Y-4485714D02*
X132248628Y-4438095D01*
X132248628Y-4438095D02*
X132201009Y-4390476D01*
X132201009Y-4390476D02*
X132153390Y-4295238D01*
X145092857Y-5019580D02*
X145140476Y-5067200D01*
X145140476Y-5067200D02*
X145283333Y-5114819D01*
X145283333Y-5114819D02*
X145378571Y-5114819D01*
X145378571Y-5114819D02*
X145521428Y-5067200D01*
X145521428Y-5067200D02*
X145616666Y-4971961D01*
X145616666Y-4971961D02*
X145664285Y-4876723D01*
X145664285Y-4876723D02*
X145711904Y-4686247D01*
X145711904Y-4686247D02*
X145711904Y-4543390D01*
X145711904Y-4543390D02*
X145664285Y-4352914D01*
X145664285Y-4352914D02*
X145616666Y-4257676D01*
X145616666Y-4257676D02*
X145521428Y-4162438D01*
X145521428Y-4162438D02*
X145378571Y-4114819D01*
X145378571Y-4114819D02*
X145283333Y-4114819D01*
X145283333Y-4114819D02*
X145140476Y-4162438D01*
X145140476Y-4162438D02*
X145092857Y-4210057D01*
X144140476Y-5114819D02*
X144711904Y-5114819D01*
X144426190Y-5114819D02*
X144426190Y-4114819D01*
X144426190Y-4114819D02*
X144521428Y-4257676D01*
X144521428Y-4257676D02*
X144616666Y-4352914D01*
X144616666Y-4352914D02*
X144711904Y-4400533D01*
X143283333Y-4114819D02*
X143473809Y-4114819D01*
X143473809Y-4114819D02*
X143569047Y-4162438D01*
X143569047Y-4162438D02*
X143616666Y-4210057D01*
X143616666Y-4210057D02*
X143711904Y-4352914D01*
X143711904Y-4352914D02*
X143759523Y-4543390D01*
X143759523Y-4543390D02*
X143759523Y-4924342D01*
X143759523Y-4924342D02*
X143711904Y-5019580D01*
X143711904Y-5019580D02*
X143664285Y-5067200D01*
X143664285Y-5067200D02*
X143569047Y-5114819D01*
X143569047Y-5114819D02*
X143378571Y-5114819D01*
X143378571Y-5114819D02*
X143283333Y-5067200D01*
X143283333Y-5067200D02*
X143235714Y-5019580D01*
X143235714Y-5019580D02*
X143188095Y-4924342D01*
X143188095Y-4924342D02*
X143188095Y-4686247D01*
X143188095Y-4686247D02*
X143235714Y-4591009D01*
X143235714Y-4591009D02*
X143283333Y-4543390D01*
X143283333Y-4543390D02*
X143378571Y-4495771D01*
X143378571Y-4495771D02*
X143569047Y-4495771D01*
X143569047Y-4495771D02*
X143664285Y-4543390D01*
X143664285Y-4543390D02*
X143711904Y-4591009D01*
X143711904Y-4591009D02*
X143759523Y-4686247D01*
X98034819Y-8747142D02*
X97558628Y-8413809D01*
X98034819Y-8175714D02*
X97034819Y-8175714D01*
X97034819Y-8175714D02*
X97034819Y-8556666D01*
X97034819Y-8556666D02*
X97082438Y-8651904D01*
X97082438Y-8651904D02*
X97130057Y-8699523D01*
X97130057Y-8699523D02*
X97225295Y-8747142D01*
X97225295Y-8747142D02*
X97368152Y-8747142D01*
X97368152Y-8747142D02*
X97463390Y-8699523D01*
X97463390Y-8699523D02*
X97511009Y-8651904D01*
X97511009Y-8651904D02*
X97558628Y-8556666D01*
X97558628Y-8556666D02*
X97558628Y-8175714D01*
X98034819Y-9699523D02*
X98034819Y-9128095D01*
X98034819Y-9413809D02*
X97034819Y-9413809D01*
X97034819Y-9413809D02*
X97177676Y-9318571D01*
X97177676Y-9318571D02*
X97272914Y-9223333D01*
X97272914Y-9223333D02*
X97320533Y-9128095D01*
X97368152Y-10556666D02*
X98034819Y-10556666D01*
X96987200Y-10318571D02*
X97701485Y-10080476D01*
X97701485Y-10080476D02*
X97701485Y-10699523D01*
X130449580Y-19033333D02*
X130497200Y-18985714D01*
X130497200Y-18985714D02*
X130544819Y-18842857D01*
X130544819Y-18842857D02*
X130544819Y-18747619D01*
X130544819Y-18747619D02*
X130497200Y-18604762D01*
X130497200Y-18604762D02*
X130401961Y-18509524D01*
X130401961Y-18509524D02*
X130306723Y-18461905D01*
X130306723Y-18461905D02*
X130116247Y-18414286D01*
X130116247Y-18414286D02*
X129973390Y-18414286D01*
X129973390Y-18414286D02*
X129782914Y-18461905D01*
X129782914Y-18461905D02*
X129687676Y-18509524D01*
X129687676Y-18509524D02*
X129592438Y-18604762D01*
X129592438Y-18604762D02*
X129544819Y-18747619D01*
X129544819Y-18747619D02*
X129544819Y-18842857D01*
X129544819Y-18842857D02*
X129592438Y-18985714D01*
X129592438Y-18985714D02*
X129640057Y-19033333D01*
X129544819Y-19938095D02*
X129544819Y-19461905D01*
X129544819Y-19461905D02*
X130021009Y-19414286D01*
X130021009Y-19414286D02*
X129973390Y-19461905D01*
X129973390Y-19461905D02*
X129925771Y-19557143D01*
X129925771Y-19557143D02*
X129925771Y-19795238D01*
X129925771Y-19795238D02*
X129973390Y-19890476D01*
X129973390Y-19890476D02*
X130021009Y-19938095D01*
X130021009Y-19938095D02*
X130116247Y-19985714D01*
X130116247Y-19985714D02*
X130354342Y-19985714D01*
X130354342Y-19985714D02*
X130449580Y-19938095D01*
X130449580Y-19938095D02*
X130497200Y-19890476D01*
X130497200Y-19890476D02*
X130544819Y-19795238D01*
X130544819Y-19795238D02*
X130544819Y-19557143D01*
X130544819Y-19557143D02*
X130497200Y-19461905D01*
X130497200Y-19461905D02*
X130449580Y-19414286D01*
X142966666Y-10869580D02*
X143014285Y-10917200D01*
X143014285Y-10917200D02*
X143157142Y-10964819D01*
X143157142Y-10964819D02*
X143252380Y-10964819D01*
X143252380Y-10964819D02*
X143395237Y-10917200D01*
X143395237Y-10917200D02*
X143490475Y-10821961D01*
X143490475Y-10821961D02*
X143538094Y-10726723D01*
X143538094Y-10726723D02*
X143585713Y-10536247D01*
X143585713Y-10536247D02*
X143585713Y-10393390D01*
X143585713Y-10393390D02*
X143538094Y-10202914D01*
X143538094Y-10202914D02*
X143490475Y-10107676D01*
X143490475Y-10107676D02*
X143395237Y-10012438D01*
X143395237Y-10012438D02*
X143252380Y-9964819D01*
X143252380Y-9964819D02*
X143157142Y-9964819D01*
X143157142Y-9964819D02*
X143014285Y-10012438D01*
X143014285Y-10012438D02*
X142966666Y-10060057D01*
X142014285Y-10964819D02*
X142585713Y-10964819D01*
X142299999Y-10964819D02*
X142299999Y-9964819D01*
X142299999Y-9964819D02*
X142395237Y-10107676D01*
X142395237Y-10107676D02*
X142490475Y-10202914D01*
X142490475Y-10202914D02*
X142585713Y-10250533D01*
X146442857Y-15919580D02*
X146490476Y-15967200D01*
X146490476Y-15967200D02*
X146633333Y-16014819D01*
X146633333Y-16014819D02*
X146728571Y-16014819D01*
X146728571Y-16014819D02*
X146871428Y-15967200D01*
X146871428Y-15967200D02*
X146966666Y-15871961D01*
X146966666Y-15871961D02*
X147014285Y-15776723D01*
X147014285Y-15776723D02*
X147061904Y-15586247D01*
X147061904Y-15586247D02*
X147061904Y-15443390D01*
X147061904Y-15443390D02*
X147014285Y-15252914D01*
X147014285Y-15252914D02*
X146966666Y-15157676D01*
X146966666Y-15157676D02*
X146871428Y-15062438D01*
X146871428Y-15062438D02*
X146728571Y-15014819D01*
X146728571Y-15014819D02*
X146633333Y-15014819D01*
X146633333Y-15014819D02*
X146490476Y-15062438D01*
X146490476Y-15062438D02*
X146442857Y-15110057D01*
X145490476Y-16014819D02*
X146061904Y-16014819D01*
X145776190Y-16014819D02*
X145776190Y-15014819D01*
X145776190Y-15014819D02*
X145871428Y-15157676D01*
X145871428Y-15157676D02*
X145966666Y-15252914D01*
X145966666Y-15252914D02*
X146061904Y-15300533D01*
X144633333Y-15348152D02*
X144633333Y-16014819D01*
X144871428Y-14967200D02*
X145109523Y-15681485D01*
X145109523Y-15681485D02*
X144490476Y-15681485D01*
X123542857Y-12549580D02*
X123590476Y-12597200D01*
X123590476Y-12597200D02*
X123733333Y-12644819D01*
X123733333Y-12644819D02*
X123828571Y-12644819D01*
X123828571Y-12644819D02*
X123971428Y-12597200D01*
X123971428Y-12597200D02*
X124066666Y-12501961D01*
X124066666Y-12501961D02*
X124114285Y-12406723D01*
X124114285Y-12406723D02*
X124161904Y-12216247D01*
X124161904Y-12216247D02*
X124161904Y-12073390D01*
X124161904Y-12073390D02*
X124114285Y-11882914D01*
X124114285Y-11882914D02*
X124066666Y-11787676D01*
X124066666Y-11787676D02*
X123971428Y-11692438D01*
X123971428Y-11692438D02*
X123828571Y-11644819D01*
X123828571Y-11644819D02*
X123733333Y-11644819D01*
X123733333Y-11644819D02*
X123590476Y-11692438D01*
X123590476Y-11692438D02*
X123542857Y-11740057D01*
X122590476Y-12644819D02*
X123161904Y-12644819D01*
X122876190Y-12644819D02*
X122876190Y-11644819D01*
X122876190Y-11644819D02*
X122971428Y-11787676D01*
X122971428Y-11787676D02*
X123066666Y-11882914D01*
X123066666Y-11882914D02*
X123161904Y-11930533D01*
X122019047Y-12073390D02*
X122114285Y-12025771D01*
X122114285Y-12025771D02*
X122161904Y-11978152D01*
X122161904Y-11978152D02*
X122209523Y-11882914D01*
X122209523Y-11882914D02*
X122209523Y-11835295D01*
X122209523Y-11835295D02*
X122161904Y-11740057D01*
X122161904Y-11740057D02*
X122114285Y-11692438D01*
X122114285Y-11692438D02*
X122019047Y-11644819D01*
X122019047Y-11644819D02*
X121828571Y-11644819D01*
X121828571Y-11644819D02*
X121733333Y-11692438D01*
X121733333Y-11692438D02*
X121685714Y-11740057D01*
X121685714Y-11740057D02*
X121638095Y-11835295D01*
X121638095Y-11835295D02*
X121638095Y-11882914D01*
X121638095Y-11882914D02*
X121685714Y-11978152D01*
X121685714Y-11978152D02*
X121733333Y-12025771D01*
X121733333Y-12025771D02*
X121828571Y-12073390D01*
X121828571Y-12073390D02*
X122019047Y-12073390D01*
X122019047Y-12073390D02*
X122114285Y-12121009D01*
X122114285Y-12121009D02*
X122161904Y-12168628D01*
X122161904Y-12168628D02*
X122209523Y-12263866D01*
X122209523Y-12263866D02*
X122209523Y-12454342D01*
X122209523Y-12454342D02*
X122161904Y-12549580D01*
X122161904Y-12549580D02*
X122114285Y-12597200D01*
X122114285Y-12597200D02*
X122019047Y-12644819D01*
X122019047Y-12644819D02*
X121828571Y-12644819D01*
X121828571Y-12644819D02*
X121733333Y-12597200D01*
X121733333Y-12597200D02*
X121685714Y-12549580D01*
X121685714Y-12549580D02*
X121638095Y-12454342D01*
X121638095Y-12454342D02*
X121638095Y-12263866D01*
X121638095Y-12263866D02*
X121685714Y-12168628D01*
X121685714Y-12168628D02*
X121733333Y-12121009D01*
X121733333Y-12121009D02*
X121828571Y-12073390D01*
X111124819Y-44261905D02*
X110124819Y-44261905D01*
X110124819Y-44261905D02*
X110124819Y-44500000D01*
X110124819Y-44500000D02*
X110172438Y-44642857D01*
X110172438Y-44642857D02*
X110267676Y-44738095D01*
X110267676Y-44738095D02*
X110362914Y-44785714D01*
X110362914Y-44785714D02*
X110553390Y-44833333D01*
X110553390Y-44833333D02*
X110696247Y-44833333D01*
X110696247Y-44833333D02*
X110886723Y-44785714D01*
X110886723Y-44785714D02*
X110981961Y-44738095D01*
X110981961Y-44738095D02*
X111077200Y-44642857D01*
X111077200Y-44642857D02*
X111124819Y-44500000D01*
X111124819Y-44500000D02*
X111124819Y-44261905D01*
X110124819Y-45738095D02*
X110124819Y-45261905D01*
X110124819Y-45261905D02*
X110601009Y-45214286D01*
X110601009Y-45214286D02*
X110553390Y-45261905D01*
X110553390Y-45261905D02*
X110505771Y-45357143D01*
X110505771Y-45357143D02*
X110505771Y-45595238D01*
X110505771Y-45595238D02*
X110553390Y-45690476D01*
X110553390Y-45690476D02*
X110601009Y-45738095D01*
X110601009Y-45738095D02*
X110696247Y-45785714D01*
X110696247Y-45785714D02*
X110934342Y-45785714D01*
X110934342Y-45785714D02*
X111029580Y-45738095D01*
X111029580Y-45738095D02*
X111077200Y-45690476D01*
X111077200Y-45690476D02*
X111124819Y-45595238D01*
X111124819Y-45595238D02*
X111124819Y-45357143D01*
X111124819Y-45357143D02*
X111077200Y-45261905D01*
X111077200Y-45261905D02*
X111029580Y-45214286D01*
X122219580Y-15307142D02*
X122267200Y-15259523D01*
X122267200Y-15259523D02*
X122314819Y-15116666D01*
X122314819Y-15116666D02*
X122314819Y-15021428D01*
X122314819Y-15021428D02*
X122267200Y-14878571D01*
X122267200Y-14878571D02*
X122171961Y-14783333D01*
X122171961Y-14783333D02*
X122076723Y-14735714D01*
X122076723Y-14735714D02*
X121886247Y-14688095D01*
X121886247Y-14688095D02*
X121743390Y-14688095D01*
X121743390Y-14688095D02*
X121552914Y-14735714D01*
X121552914Y-14735714D02*
X121457676Y-14783333D01*
X121457676Y-14783333D02*
X121362438Y-14878571D01*
X121362438Y-14878571D02*
X121314819Y-15021428D01*
X121314819Y-15021428D02*
X121314819Y-15116666D01*
X121314819Y-15116666D02*
X121362438Y-15259523D01*
X121362438Y-15259523D02*
X121410057Y-15307142D01*
X122314819Y-16259523D02*
X122314819Y-15688095D01*
X122314819Y-15973809D02*
X121314819Y-15973809D01*
X121314819Y-15973809D02*
X121457676Y-15878571D01*
X121457676Y-15878571D02*
X121552914Y-15783333D01*
X121552914Y-15783333D02*
X121600533Y-15688095D01*
X121314819Y-16592857D02*
X121314819Y-17259523D01*
X121314819Y-17259523D02*
X122314819Y-16830952D01*
X122994819Y-5866666D02*
X123709104Y-5866666D01*
X123709104Y-5866666D02*
X123851961Y-5819047D01*
X123851961Y-5819047D02*
X123947200Y-5723809D01*
X123947200Y-5723809D02*
X123994819Y-5580952D01*
X123994819Y-5580952D02*
X123994819Y-5485714D01*
X123090057Y-6295238D02*
X123042438Y-6342857D01*
X123042438Y-6342857D02*
X122994819Y-6438095D01*
X122994819Y-6438095D02*
X122994819Y-6676190D01*
X122994819Y-6676190D02*
X123042438Y-6771428D01*
X123042438Y-6771428D02*
X123090057Y-6819047D01*
X123090057Y-6819047D02*
X123185295Y-6866666D01*
X123185295Y-6866666D02*
X123280533Y-6866666D01*
X123280533Y-6866666D02*
X123423390Y-6819047D01*
X123423390Y-6819047D02*
X123994819Y-6247619D01*
X123994819Y-6247619D02*
X123994819Y-6866666D01*
X140014819Y-2233333D02*
X140014819Y-1757143D01*
X140014819Y-1757143D02*
X139014819Y-1757143D01*
X140014819Y-3090476D02*
X140014819Y-2519048D01*
X140014819Y-2804762D02*
X139014819Y-2804762D01*
X139014819Y-2804762D02*
X139157676Y-2709524D01*
X139157676Y-2709524D02*
X139252914Y-2614286D01*
X139252914Y-2614286D02*
X139300533Y-2519048D01*
X142236666Y-2924819D02*
X142569999Y-2448628D01*
X142808094Y-2924819D02*
X142808094Y-1924819D01*
X142808094Y-1924819D02*
X142427142Y-1924819D01*
X142427142Y-1924819D02*
X142331904Y-1972438D01*
X142331904Y-1972438D02*
X142284285Y-2020057D01*
X142284285Y-2020057D02*
X142236666Y-2115295D01*
X142236666Y-2115295D02*
X142236666Y-2258152D01*
X142236666Y-2258152D02*
X142284285Y-2353390D01*
X142284285Y-2353390D02*
X142331904Y-2401009D01*
X142331904Y-2401009D02*
X142427142Y-2448628D01*
X142427142Y-2448628D02*
X142808094Y-2448628D01*
X141284285Y-2924819D02*
X141855713Y-2924819D01*
X141569999Y-2924819D02*
X141569999Y-1924819D01*
X141569999Y-1924819D02*
X141665237Y-2067676D01*
X141665237Y-2067676D02*
X141760475Y-2162914D01*
X141760475Y-2162914D02*
X141855713Y-2210533D01*
X126774819Y-1561905D02*
X125774819Y-1561905D01*
X125774819Y-1561905D02*
X125774819Y-1800000D01*
X125774819Y-1800000D02*
X125822438Y-1942857D01*
X125822438Y-1942857D02*
X125917676Y-2038095D01*
X125917676Y-2038095D02*
X126012914Y-2085714D01*
X126012914Y-2085714D02*
X126203390Y-2133333D01*
X126203390Y-2133333D02*
X126346247Y-2133333D01*
X126346247Y-2133333D02*
X126536723Y-2085714D01*
X126536723Y-2085714D02*
X126631961Y-2038095D01*
X126631961Y-2038095D02*
X126727200Y-1942857D01*
X126727200Y-1942857D02*
X126774819Y-1800000D01*
X126774819Y-1800000D02*
X126774819Y-1561905D01*
X126774819Y-3085714D02*
X126774819Y-2514286D01*
X126774819Y-2800000D02*
X125774819Y-2800000D01*
X125774819Y-2800000D02*
X125917676Y-2704762D01*
X125917676Y-2704762D02*
X126012914Y-2609524D01*
X126012914Y-2609524D02*
X126060533Y-2514286D01*
X123966666Y-9099580D02*
X124014285Y-9147200D01*
X124014285Y-9147200D02*
X124157142Y-9194819D01*
X124157142Y-9194819D02*
X124252380Y-9194819D01*
X124252380Y-9194819D02*
X124395237Y-9147200D01*
X124395237Y-9147200D02*
X124490475Y-9051961D01*
X124490475Y-9051961D02*
X124538094Y-8956723D01*
X124538094Y-8956723D02*
X124585713Y-8766247D01*
X124585713Y-8766247D02*
X124585713Y-8623390D01*
X124585713Y-8623390D02*
X124538094Y-8432914D01*
X124538094Y-8432914D02*
X124490475Y-8337676D01*
X124490475Y-8337676D02*
X124395237Y-8242438D01*
X124395237Y-8242438D02*
X124252380Y-8194819D01*
X124252380Y-8194819D02*
X124157142Y-8194819D01*
X124157142Y-8194819D02*
X124014285Y-8242438D01*
X124014285Y-8242438D02*
X123966666Y-8290057D01*
X123395237Y-8623390D02*
X123490475Y-8575771D01*
X123490475Y-8575771D02*
X123538094Y-8528152D01*
X123538094Y-8528152D02*
X123585713Y-8432914D01*
X123585713Y-8432914D02*
X123585713Y-8385295D01*
X123585713Y-8385295D02*
X123538094Y-8290057D01*
X123538094Y-8290057D02*
X123490475Y-8242438D01*
X123490475Y-8242438D02*
X123395237Y-8194819D01*
X123395237Y-8194819D02*
X123204761Y-8194819D01*
X123204761Y-8194819D02*
X123109523Y-8242438D01*
X123109523Y-8242438D02*
X123061904Y-8290057D01*
X123061904Y-8290057D02*
X123014285Y-8385295D01*
X123014285Y-8385295D02*
X123014285Y-8432914D01*
X123014285Y-8432914D02*
X123061904Y-8528152D01*
X123061904Y-8528152D02*
X123109523Y-8575771D01*
X123109523Y-8575771D02*
X123204761Y-8623390D01*
X123204761Y-8623390D02*
X123395237Y-8623390D01*
X123395237Y-8623390D02*
X123490475Y-8671009D01*
X123490475Y-8671009D02*
X123538094Y-8718628D01*
X123538094Y-8718628D02*
X123585713Y-8813866D01*
X123585713Y-8813866D02*
X123585713Y-9004342D01*
X123585713Y-9004342D02*
X123538094Y-9099580D01*
X123538094Y-9099580D02*
X123490475Y-9147200D01*
X123490475Y-9147200D02*
X123395237Y-9194819D01*
X123395237Y-9194819D02*
X123204761Y-9194819D01*
X123204761Y-9194819D02*
X123109523Y-9147200D01*
X123109523Y-9147200D02*
X123061904Y-9099580D01*
X123061904Y-9099580D02*
X123014285Y-9004342D01*
X123014285Y-9004342D02*
X123014285Y-8813866D01*
X123014285Y-8813866D02*
X123061904Y-8718628D01*
X123061904Y-8718628D02*
X123109523Y-8671009D01*
X123109523Y-8671009D02*
X123204761Y-8623390D01*
D11*
%TO.C,U2*%
X137071800Y-1400001D02*
G75*
G02*
X136868600Y-1400001I-101600J0D01*
G01*
X136868600Y-1400001D02*
G75*
G02*
X137071800Y-1400001I101600J0D01*
G01*
X134134150Y-3822401D02*
X135504250Y-3822401D01*
X135504250Y-977601D02*
X134134150Y-977601D01*
D12*
%TO.C,SW4*%
X46400000Y-36100000D02*
X51500000Y-36100000D01*
X50300000Y-40300000D02*
X55400000Y-40300000D01*
X44400000Y-38100000D02*
G75*
G02*
X46400000Y-36100000I1999999J1D01*
G01*
X48300000Y-42300000D02*
G75*
G02*
X50300000Y-40300000I1999999J1D01*
G01*
%TO.C,SW9*%
X95900000Y-12100000D02*
X101000000Y-12100000D01*
X99800000Y-16300000D02*
X104900000Y-16300000D01*
X93900000Y-14100000D02*
G75*
G02*
X95900000Y-12100000I1999999J1D01*
G01*
X97800000Y-18300000D02*
G75*
G02*
X99800000Y-16300000I1999999J1D01*
G01*
%TO.C,SW7*%
X145400000Y-36100000D02*
X150500000Y-36100000D01*
X149300000Y-40300000D02*
X154400000Y-40300000D01*
X143400000Y-38100000D02*
G75*
G02*
X145400000Y-36100000I1999999J1D01*
G01*
X147300000Y-42300000D02*
G75*
G02*
X149300000Y-40300000I1999999J1D01*
G01*
%TO.C,SW5*%
X79400000Y-36100000D02*
X84500000Y-36100000D01*
X83300000Y-40300000D02*
X88400000Y-40300000D01*
X77400000Y-38100000D02*
G75*
G02*
X79400000Y-36100000I1999999J1D01*
G01*
X81300000Y-42300000D02*
G75*
G02*
X83300000Y-40300000I1999999J1D01*
G01*
%TO.C,SW8*%
X62900000Y-78100000D02*
X68000000Y-78100000D01*
X66800000Y-82300000D02*
X71900000Y-82300000D01*
X60900000Y-80100000D02*
G75*
G02*
X62900000Y-78100000I1999999J1D01*
G01*
X64800000Y-84300000D02*
G75*
G02*
X66800000Y-82300000I1999999J1D01*
G01*
%TO.C,SW6*%
X112400000Y-36100000D02*
X117500000Y-36100000D01*
X116300000Y-40300000D02*
X121400000Y-40300000D01*
X110400000Y-38100000D02*
G75*
G02*
X112400000Y-36100000I1999999J1D01*
G01*
X114300000Y-42300000D02*
G75*
G02*
X116300000Y-40300000I1999999J1D01*
G01*
%TO.C,SW10*%
X128900000Y-78100000D02*
X134000000Y-78100000D01*
X132800000Y-82300000D02*
X137900000Y-82300000D01*
X126900000Y-80100000D02*
G75*
G02*
X128900000Y-78100000I1999999J1D01*
G01*
X130800000Y-84300000D02*
G75*
G02*
X132800000Y-82300000I1999999J1D01*
G01*
%TO.C,C11*%
X137027836Y-7120000D02*
X136812164Y-7120000D01*
X137027836Y-7840000D02*
X136812164Y-7840000D01*
%TO.C,R5*%
X128520000Y-3363641D02*
X128520000Y-3056359D01*
X129280000Y-3363641D02*
X129280000Y-3056359D01*
%TO.C,C7*%
X142907836Y-10890000D02*
X142692164Y-10890000D01*
X142907836Y-11610000D02*
X142692164Y-11610000D01*
%TO.C,C9*%
X138937836Y-8970000D02*
X138722164Y-8970000D01*
X138937836Y-9690000D02*
X138722164Y-9690000D01*
%TO.C,R12*%
X123920000Y-13053641D02*
X123920000Y-12746359D01*
X124680000Y-13053641D02*
X124680000Y-12746359D01*
%TO.C,C6*%
X134490000Y-6972164D02*
X134490000Y-7187836D01*
X135210000Y-6972164D02*
X135210000Y-7187836D01*
D13*
%TO.C,D7*%
X60050000Y-88090000D02*
G75*
G02*
X59950000Y-88090000I-50000J0D01*
G01*
X59950000Y-88090000D02*
G75*
G02*
X60050000Y-88090000I50000J0D01*
G01*
%TO.C,D8*%
X93050000Y-22090000D02*
G75*
G02*
X92950000Y-22090000I-50000J0D01*
G01*
X92950000Y-22090000D02*
G75*
G02*
X93050000Y-22090000I50000J0D01*
G01*
D12*
%TO.C,C3*%
X123692164Y-10490000D02*
X123907836Y-10490000D01*
X123692164Y-11210000D02*
X123907836Y-11210000D01*
%TO.C,R11*%
X144603641Y-2170000D02*
X144296359Y-2170000D01*
X144603641Y-2930000D02*
X144296359Y-2930000D01*
%TO.C,J1*%
X95420000Y-5520000D02*
X95420000Y-4110000D01*
X96240000Y-8040000D02*
X96240000Y-8190000D01*
X96240000Y-8190000D02*
X97040000Y-8190000D01*
X104580000Y-5520000D02*
X104580000Y-4110000D01*
%TO.C,R10*%
X142743641Y-2170000D02*
X142436359Y-2170000D01*
X142743641Y-2930000D02*
X142436359Y-2930000D01*
D13*
%TO.C,D6*%
X142550000Y-46090000D02*
G75*
G02*
X142450000Y-46090000I-50000J0D01*
G01*
X142450000Y-46090000D02*
G75*
G02*
X142550000Y-46090000I50000J0D01*
G01*
D12*
%TO.C,R13*%
X139543641Y-3970000D02*
X139236359Y-3970000D01*
X139543641Y-4730000D02*
X139236359Y-4730000D01*
%TO.C,Y1*%
X121250000Y-13950000D02*
X121250000Y-17950000D01*
X121250000Y-17950000D02*
X124550000Y-17950000D01*
D13*
%TO.C,D3*%
X43550000Y-46090000D02*
G75*
G02*
X43450000Y-46090000I-50000J0D01*
G01*
X43450000Y-46090000D02*
G75*
G02*
X43550000Y-46090000I50000J0D01*
G01*
%TO.C,D4*%
X76550000Y-46090000D02*
G75*
G02*
X76450000Y-46090000I-50000J0D01*
G01*
X76450000Y-46090000D02*
G75*
G02*
X76550000Y-46090000I50000J0D01*
G01*
D12*
%TO.C,C15*%
X145907836Y-14990000D02*
X145692164Y-14990000D01*
X145907836Y-15710000D02*
X145692164Y-15710000D01*
%TO.C,U1*%
X128640000Y-8640000D02*
X128640000Y-9290000D01*
X128640000Y-15860000D02*
X128640000Y-15210000D01*
X129290000Y-8640000D02*
X128640000Y-8640000D01*
X129290000Y-15860000D02*
X128640000Y-15860000D01*
X135210000Y-8640000D02*
X135860000Y-8640000D01*
X135620000Y-15860000D02*
X135210000Y-15860000D01*
X135860000Y-8640000D02*
X135860000Y-9290000D01*
X135860000Y-15560000D02*
X135860000Y-15210000D01*
X136190000Y-16100000D02*
X135860000Y-15860000D01*
X136190000Y-15620000D01*
X136190000Y-16100000D01*
G36*
X136190000Y-16100000D02*
G01*
X135860000Y-15860000D01*
X136190000Y-15620000D01*
X136190000Y-16100000D01*
G37*
%TO.C,C13*%
X130290000Y-6772164D02*
X130290000Y-6987836D01*
X131010000Y-6772164D02*
X131010000Y-6987836D01*
%TO.C,C12*%
X125740000Y-3357836D02*
X125740000Y-3142164D01*
X126460000Y-3357836D02*
X126460000Y-3142164D01*
%TO.C,R6*%
X127346359Y-3320000D02*
X127653641Y-3320000D01*
X127346359Y-4080000D02*
X127653641Y-4080000D01*
%TO.C,C2*%
X142907836Y-9940000D02*
X142692164Y-9940000D01*
X142907836Y-10660000D02*
X142692164Y-10660000D01*
%TO.C,R3*%
X138676359Y-10870000D02*
X138983641Y-10870000D01*
X138676359Y-11630000D02*
X138983641Y-11630000D01*
D13*
%TO.C,D9*%
X126050000Y-88090000D02*
G75*
G02*
X125950000Y-88090000I-50000J0D01*
G01*
X125950000Y-88090000D02*
G75*
G02*
X126050000Y-88090000I50000J0D01*
G01*
D12*
%TO.C,R15*%
X101370000Y-9543641D02*
X101370000Y-9236359D01*
X102130000Y-9543641D02*
X102130000Y-9236359D01*
%TO.C,R7*%
X130446359Y-670000D02*
X130753641Y-670000D01*
X130446359Y-1430000D02*
X130753641Y-1430000D01*
%TO.C,Q1*%
X143040000Y-5795000D02*
X143040000Y-4495000D01*
X144840000Y-5795000D02*
X144840000Y-4495000D01*
D10*
X144525000Y-6395000D02*
G75*
G02*
X144375000Y-6395000I-75000J0D01*
G01*
X144375000Y-6395000D02*
G75*
G02*
X144525000Y-6395000I75000J0D01*
G01*
D13*
%TO.C,D2*%
X142430000Y-4350000D02*
G75*
G02*
X142330000Y-4350000I-50000J0D01*
G01*
X142330000Y-4350000D02*
G75*
G02*
X142430000Y-4350000I50000J0D01*
G01*
D12*
%TO.C,SW1*%
X144655000Y-27500000D02*
X144655000Y-28375000D01*
X144655000Y-29745000D02*
X144655000Y-29060000D01*
X144741724Y-28375000D02*
X144655000Y-28375000D01*
X144955507Y-27500000D02*
X144655000Y-27500000D01*
X145350000Y-29745000D02*
X144655000Y-29745000D01*
X146045000Y-27500000D02*
X145744493Y-27500000D01*
X146045000Y-27500000D02*
X146045000Y-28375000D01*
X146045000Y-28375000D02*
X145958276Y-28375000D01*
%TO.C,R2*%
X140363641Y-920000D02*
X140056359Y-920000D01*
X140363641Y-1680000D02*
X140056359Y-1680000D01*
%TO.C,R4*%
X138676359Y-9920000D02*
X138983641Y-9920000D01*
X138676359Y-10680000D02*
X138983641Y-10680000D01*
%TO.C,U3*%
X140725000Y-17775000D02*
X140725000Y-20500000D01*
X140725000Y-23225000D02*
X140725000Y-20500000D01*
X140985000Y-17775000D02*
X140725000Y-17775000D01*
X140985000Y-23225000D02*
X140725000Y-23225000D01*
X145915000Y-17775000D02*
X146175000Y-17775000D01*
X145915000Y-23225000D02*
X146175000Y-23225000D01*
X146175000Y-17775000D02*
X146175000Y-20500000D01*
X146175000Y-23225000D02*
X146175000Y-20500000D01*
X146245000Y-24247500D02*
X145915000Y-24007500D01*
X146245000Y-23767500D01*
X146245000Y-24247500D01*
G36*
X146245000Y-24247500D02*
G01*
X145915000Y-24007500D01*
X146245000Y-23767500D01*
X146245000Y-24247500D01*
G37*
%TO.C,R9*%
X144970000Y-25946359D02*
X144970000Y-26253641D01*
X145730000Y-25946359D02*
X145730000Y-26253641D01*
%TO.C,C4*%
X137527836Y-16590000D02*
X137312164Y-16590000D01*
X137527836Y-17310000D02*
X137312164Y-17310000D01*
%TO.C,C10*%
X138327836Y-8040000D02*
X138112164Y-8040000D01*
X138327836Y-8760000D02*
X138112164Y-8760000D01*
%TO.C,R8*%
X130720000Y-3546359D02*
X130720000Y-3853641D01*
X131480000Y-3546359D02*
X131480000Y-3853641D01*
%TO.C,C16*%
X144557836Y-3140000D02*
X144342164Y-3140000D01*
X144557836Y-3860000D02*
X144342164Y-3860000D01*
%TO.C,R14*%
X98370000Y-9543641D02*
X98370000Y-9236359D01*
X99130000Y-9543641D02*
X99130000Y-9236359D01*
%TO.C,C5*%
X130890000Y-19307836D02*
X130890000Y-19092164D01*
X131610000Y-19307836D02*
X131610000Y-19092164D01*
%TO.C,C1*%
X142907836Y-8990000D02*
X142692164Y-8990000D01*
X142907836Y-9710000D02*
X142692164Y-9710000D01*
%TO.C,C14*%
X145907836Y-14040000D02*
X145692164Y-14040000D01*
X145907836Y-14760000D02*
X145692164Y-14760000D01*
%TO.C,C18*%
X122792164Y-12990000D02*
X123007836Y-12990000D01*
X122792164Y-13710000D02*
X123007836Y-13710000D01*
D13*
%TO.C,D5*%
X109550000Y-46090000D02*
G75*
G02*
X109450000Y-46090000I-50000J0D01*
G01*
X109450000Y-46090000D02*
G75*
G02*
X109550000Y-46090000I50000J0D01*
G01*
D12*
%TO.C,C17*%
X120340000Y-15842164D02*
X120340000Y-16057836D01*
X121060000Y-15842164D02*
X121060000Y-16057836D01*
%TO.C,J2*%
X124415000Y-5505000D02*
X125100000Y-5505000D01*
X124415000Y-6200000D02*
X124415000Y-5505000D01*
X125785000Y-5591724D02*
X125785000Y-5505000D01*
X125785000Y-6895000D02*
X125785000Y-6808276D01*
X127660000Y-5505000D02*
X125785000Y-5505000D01*
X127660000Y-5805507D02*
X127660000Y-5505000D01*
X127660000Y-6895000D02*
X125785000Y-6895000D01*
X127660000Y-6895000D02*
X127660000Y-6594493D01*
%TO.C,L1*%
X138040000Y-2292164D02*
X138040000Y-2507836D01*
X138760000Y-2292164D02*
X138760000Y-2507836D01*
%TO.C,R1*%
X142223641Y-920000D02*
X141916359Y-920000D01*
X142223641Y-1680000D02*
X141916359Y-1680000D01*
D13*
%TO.C,D1*%
X125200000Y-3390000D02*
G75*
G02*
X125100000Y-3390000I-50000J0D01*
G01*
X125100000Y-3390000D02*
G75*
G02*
X125200000Y-3390000I50000J0D01*
G01*
D12*
%TO.C,C8*%
X123692164Y-9540000D02*
X123907836Y-9540000D01*
X123692164Y-10260000D02*
X123907836Y-10260000D01*
%TD*%
M02*
