%TF.GenerationSoftware,KiCad,Pcbnew,8.0.6*%
%TF.CreationDate,2024-11-30T20:27:04+08:00*%
%TF.ProjectId,PH-AC,50482d41-432e-46b6-9963-61645f706362,Rev2.3*%
%TF.SameCoordinates,PX405f7e0PY328b740*%
%TF.FileFunction,OtherDrawing,Comment*%
%FSLAX46Y46*%
G04 Gerber Fmt 4.6, Leading zero omitted, Abs format (unit mm)*
G04 Created by KiCad (PCBNEW 8.0.6) date 2024-11-30 20:27:04*
%MOMM*%
%LPD*%
G01*
G04 APERTURE LIST*
%ADD10C,0.100000*%
G04 APERTURE END LIST*
D10*
X87964285Y2051110D02*
X87964285Y1551110D01*
X87964285Y1551110D02*
X87773809Y1551110D01*
X87773809Y1551110D02*
X87726190Y1574920D01*
X87726190Y1574920D02*
X87702380Y1598729D01*
X87702380Y1598729D02*
X87678571Y1646348D01*
X87678571Y1646348D02*
X87678571Y1717777D01*
X87678571Y1717777D02*
X87702380Y1765396D01*
X87702380Y1765396D02*
X87726190Y1789205D01*
X87726190Y1789205D02*
X87773809Y1813015D01*
X87773809Y1813015D02*
X87964285Y1813015D01*
X87178571Y2003491D02*
X87202380Y2027300D01*
X87202380Y2027300D02*
X87273809Y2051110D01*
X87273809Y2051110D02*
X87321428Y2051110D01*
X87321428Y2051110D02*
X87392856Y2027300D01*
X87392856Y2027300D02*
X87440475Y1979681D01*
X87440475Y1979681D02*
X87464285Y1932062D01*
X87464285Y1932062D02*
X87488094Y1836824D01*
X87488094Y1836824D02*
X87488094Y1765396D01*
X87488094Y1765396D02*
X87464285Y1670158D01*
X87464285Y1670158D02*
X87440475Y1622539D01*
X87440475Y1622539D02*
X87392856Y1574920D01*
X87392856Y1574920D02*
X87321428Y1551110D01*
X87321428Y1551110D02*
X87273809Y1551110D01*
X87273809Y1551110D02*
X87202380Y1574920D01*
X87202380Y1574920D02*
X87178571Y1598729D01*
X86797618Y1789205D02*
X86726190Y1813015D01*
X86726190Y1813015D02*
X86702380Y1836824D01*
X86702380Y1836824D02*
X86678571Y1884443D01*
X86678571Y1884443D02*
X86678571Y1955872D01*
X86678571Y1955872D02*
X86702380Y2003491D01*
X86702380Y2003491D02*
X86726190Y2027300D01*
X86726190Y2027300D02*
X86773809Y2051110D01*
X86773809Y2051110D02*
X86964285Y2051110D01*
X86964285Y2051110D02*
X86964285Y1551110D01*
X86964285Y1551110D02*
X86797618Y1551110D01*
X86797618Y1551110D02*
X86749999Y1574920D01*
X86749999Y1574920D02*
X86726190Y1598729D01*
X86726190Y1598729D02*
X86702380Y1646348D01*
X86702380Y1646348D02*
X86702380Y1693967D01*
X86702380Y1693967D02*
X86726190Y1741586D01*
X86726190Y1741586D02*
X86749999Y1765396D01*
X86749999Y1765396D02*
X86797618Y1789205D01*
X86797618Y1789205D02*
X86964285Y1789205D01*
X86083333Y1789205D02*
X85916666Y1789205D01*
X85845238Y2051110D02*
X86083333Y2051110D01*
X86083333Y2051110D02*
X86083333Y1551110D01*
X86083333Y1551110D02*
X85845238Y1551110D01*
X85416666Y2051110D02*
X85416666Y1551110D01*
X85416666Y2027300D02*
X85464285Y2051110D01*
X85464285Y2051110D02*
X85559523Y2051110D01*
X85559523Y2051110D02*
X85607142Y2027300D01*
X85607142Y2027300D02*
X85630952Y2003491D01*
X85630952Y2003491D02*
X85654761Y1955872D01*
X85654761Y1955872D02*
X85654761Y1813015D01*
X85654761Y1813015D02*
X85630952Y1765396D01*
X85630952Y1765396D02*
X85607142Y1741586D01*
X85607142Y1741586D02*
X85559523Y1717777D01*
X85559523Y1717777D02*
X85464285Y1717777D01*
X85464285Y1717777D02*
X85416666Y1741586D01*
X84964285Y1717777D02*
X84964285Y2122539D01*
X84964285Y2122539D02*
X84988095Y2170158D01*
X84988095Y2170158D02*
X85011904Y2193967D01*
X85011904Y2193967D02*
X85059523Y2217777D01*
X85059523Y2217777D02*
X85130952Y2217777D01*
X85130952Y2217777D02*
X85178571Y2193967D01*
X84964285Y2027300D02*
X85011904Y2051110D01*
X85011904Y2051110D02*
X85107142Y2051110D01*
X85107142Y2051110D02*
X85154761Y2027300D01*
X85154761Y2027300D02*
X85178571Y2003491D01*
X85178571Y2003491D02*
X85202380Y1955872D01*
X85202380Y1955872D02*
X85202380Y1813015D01*
X85202380Y1813015D02*
X85178571Y1765396D01*
X85178571Y1765396D02*
X85154761Y1741586D01*
X85154761Y1741586D02*
X85107142Y1717777D01*
X85107142Y1717777D02*
X85011904Y1717777D01*
X85011904Y1717777D02*
X84964285Y1741586D01*
X84535714Y2027300D02*
X84583333Y2051110D01*
X84583333Y2051110D02*
X84678571Y2051110D01*
X84678571Y2051110D02*
X84726190Y2027300D01*
X84726190Y2027300D02*
X84749999Y1979681D01*
X84749999Y1979681D02*
X84749999Y1789205D01*
X84749999Y1789205D02*
X84726190Y1741586D01*
X84726190Y1741586D02*
X84678571Y1717777D01*
X84678571Y1717777D02*
X84583333Y1717777D01*
X84583333Y1717777D02*
X84535714Y1741586D01*
X84535714Y1741586D02*
X84511904Y1789205D01*
X84511904Y1789205D02*
X84511904Y1836824D01*
X84511904Y1836824D02*
X84749999Y1884443D01*
%TO.C,SW1*%
X22462500Y-31050000D02*
X22462500Y-50100000D01*
X22462500Y-50100000D02*
X51037500Y-50100000D01*
X51037500Y-31050000D02*
X22462500Y-31050000D01*
X51037500Y-50100000D02*
X51037500Y-31050000D01*
%TO.C,SW0*%
X76725000Y-7050000D02*
X76725000Y-26100000D01*
X76725000Y-26100000D02*
X95775000Y-26100000D01*
X95775000Y-7050000D02*
X76725000Y-7050000D01*
X95775000Y-26100000D02*
X95775000Y-7050000D01*
%TO.C,SW4*%
X121462500Y-31050000D02*
X121462500Y-50100000D01*
X121462500Y-50100000D02*
X150037500Y-50100000D01*
X150037500Y-31050000D02*
X121462500Y-31050000D01*
X150037500Y-50100000D02*
X150037500Y-31050000D01*
%TO.C,SW2*%
X55462500Y-31050000D02*
X55462500Y-50100000D01*
X55462500Y-50100000D02*
X84037500Y-50100000D01*
X84037500Y-31050000D02*
X55462500Y-31050000D01*
X84037500Y-50100000D02*
X84037500Y-31050000D01*
%TO.C,SW5*%
X31818750Y-73050000D02*
X31818750Y-92100000D01*
X31818750Y-92100000D02*
X74681250Y-92100000D01*
X74681250Y-73050000D02*
X31818750Y-73050000D01*
X74681250Y-92100000D02*
X74681250Y-73050000D01*
%TO.C,SW3*%
X88462500Y-31050000D02*
X88462500Y-50100000D01*
X88462500Y-50100000D02*
X117037500Y-50100000D01*
X117037500Y-31050000D02*
X88462500Y-31050000D01*
X117037500Y-50100000D02*
X117037500Y-31050000D01*
%TO.C,SW6*%
X97818750Y-73050000D02*
X97818750Y-92100000D01*
X97818750Y-92100000D02*
X140681250Y-92100000D01*
X140681250Y-73050000D02*
X97818750Y-73050000D01*
X140681250Y-92100000D02*
X140681250Y-73050000D01*
%TO.C,J1*%
X91250000Y2425000D02*
X81250000Y2425000D01*
%TD*%
M02*
