%TF.GenerationSoftware,KiCad,Pcbnew,8.0.4*%
%TF.CreationDate,2024-07-22T17:52:48+08:00*%
%TF.ProjectId,PH-AC,50482d41-432e-46b6-9963-61645f706362,rev?*%
%TF.SameCoordinates,PX405f7e0PY328b740*%
%TF.FileFunction,Soldermask,Top*%
%TF.FilePolarity,Negative*%
%FSLAX46Y46*%
G04 Gerber Fmt 4.6, Leading zero omitted, Abs format (unit mm)*
G04 Created by KiCad (PCBNEW 8.0.4) date 2024-07-22 17:52:48*
%MOMM*%
%LPD*%
G01*
G04 APERTURE LIST*
%ADD10C,5.700000*%
%ADD11C,1.750000*%
%ADD12C,3.050000*%
%ADD13C,4.000000*%
%ADD14R,2.000000X2.000000*%
%ADD15C,2.000000*%
%ADD16R,3.200000X2.000000*%
%ADD17C,0.650000*%
%ADD18R,0.850000X0.850000*%
%ADD19O,0.850000X0.850000*%
G04 APERTURE END LIST*
D10*
%TO.C,H8*%
X115000000Y-65000000D03*
%TD*%
%TO.C,H7*%
X85000000Y-65000000D03*
%TD*%
%TO.C,H6*%
X165000000Y-80000000D03*
%TD*%
%TO.C,H5*%
X35000000Y-80000000D03*
%TD*%
%TO.C,H4*%
X180000000Y-50000000D03*
%TD*%
%TO.C,H3*%
X20000000Y-50000000D03*
%TD*%
%TO.C,H2*%
X155000000Y-10000000D03*
%TD*%
%TO.C,H1*%
X45000000Y-10000000D03*
%TD*%
D11*
%TO.C,SW4*%
X45420000Y-43000000D03*
D12*
X46690000Y-40460000D03*
D13*
X50500000Y-43000000D03*
D12*
X53040000Y-37920000D03*
D11*
X55580000Y-43000000D03*
%TD*%
%TO.C,SW9*%
X94920000Y-19000000D03*
D12*
X96190000Y-16460000D03*
D13*
X100000000Y-19000000D03*
D12*
X102540000Y-13920000D03*
D11*
X105080000Y-19000000D03*
%TD*%
%TO.C,SW7*%
X144420000Y-43000000D03*
D12*
X145690000Y-40460000D03*
D13*
X149500000Y-43000000D03*
D12*
X152040000Y-37920000D03*
D11*
X154580000Y-43000000D03*
%TD*%
%TO.C,SW5*%
X78420000Y-43000000D03*
D12*
X79690000Y-40460000D03*
D13*
X83500000Y-43000000D03*
D12*
X86040000Y-37920000D03*
D11*
X88580000Y-43000000D03*
%TD*%
%TO.C,SW8*%
X61920000Y-85000000D03*
D12*
X63190000Y-82460000D03*
D13*
X67000000Y-85000000D03*
D12*
X69540000Y-79920000D03*
D11*
X72080000Y-85000000D03*
%TD*%
%TO.C,SW6*%
X111420000Y-43000000D03*
D12*
X112690000Y-40460000D03*
D13*
X116500000Y-43000000D03*
D12*
X119040000Y-37920000D03*
D11*
X121580000Y-43000000D03*
%TD*%
%TO.C,SW10*%
X127920000Y-85000000D03*
D12*
X129190000Y-82460000D03*
D13*
X133000000Y-85000000D03*
D12*
X135540000Y-79920000D03*
D11*
X138080000Y-85000000D03*
%TD*%
D14*
%TO.C,SW3*%
X175500000Y-12600000D03*
D15*
X175500000Y-17600000D03*
X175500000Y-15100000D03*
D16*
X183000000Y-9500000D03*
X183000000Y-20700000D03*
D15*
X190000000Y-17600000D03*
X190000000Y-12600000D03*
%TD*%
D14*
%TO.C,SW2*%
X9500000Y-12600000D03*
D15*
X9500000Y-17600000D03*
X9500000Y-15100000D03*
D16*
X17000000Y-9500000D03*
X17000000Y-20700000D03*
D15*
X24000000Y-17600000D03*
X24000000Y-12600000D03*
%TD*%
D17*
%TO.C,J1*%
X97110000Y-6280000D03*
X102890000Y-6280000D03*
%TD*%
D18*
%TO.C,SW1*%
X145350000Y-29060000D03*
D19*
X145350000Y-28060000D03*
%TD*%
D18*
%TO.C,J2*%
X125100000Y-6200000D03*
D19*
X126100000Y-6200000D03*
X127100000Y-6200000D03*
%TD*%
M02*
