%TF.GenerationSoftware,KiCad,Pcbnew,8.0.3*%
%TF.CreationDate,2024-09-11T20:25:14+08:00*%
%TF.ProjectId,PH-AC,50482d41-432e-46b6-9963-61645f706362,rev?*%
%TF.SameCoordinates,PX405f7e0PY328b740*%
%TF.FileFunction,Legend,Top*%
%TF.FilePolarity,Positive*%
%FSLAX46Y46*%
G04 Gerber Fmt 4.6, Leading zero omitted, Abs format (unit mm)*
G04 Created by KiCad (PCBNEW 8.0.3) date 2024-09-11 20:25:14*
%MOMM*%
%LPD*%
G01*
G04 APERTURE LIST*
%ADD10C,0.175000*%
%ADD11C,0.120000*%
G04 APERTURE END LIST*
D10*
X49625000Y-51473066D02*
X49725000Y-51506400D01*
X49725000Y-51506400D02*
X49758333Y-51539733D01*
X49758333Y-51539733D02*
X49791666Y-51606400D01*
X49791666Y-51606400D02*
X49791666Y-51706400D01*
X49791666Y-51706400D02*
X49758333Y-51773066D01*
X49758333Y-51773066D02*
X49725000Y-51806400D01*
X49725000Y-51806400D02*
X49658333Y-51839733D01*
X49658333Y-51839733D02*
X49391666Y-51839733D01*
X49391666Y-51839733D02*
X49391666Y-51139733D01*
X49391666Y-51139733D02*
X49625000Y-51139733D01*
X49625000Y-51139733D02*
X49691666Y-51173066D01*
X49691666Y-51173066D02*
X49725000Y-51206400D01*
X49725000Y-51206400D02*
X49758333Y-51273066D01*
X49758333Y-51273066D02*
X49758333Y-51339733D01*
X49758333Y-51339733D02*
X49725000Y-51406400D01*
X49725000Y-51406400D02*
X49691666Y-51439733D01*
X49691666Y-51439733D02*
X49625000Y-51473066D01*
X49625000Y-51473066D02*
X49391666Y-51473066D01*
X49991666Y-51139733D02*
X50391666Y-51139733D01*
X50191666Y-51839733D02*
X50191666Y-51139733D01*
X50624999Y-51573066D02*
X51158333Y-51573066D01*
X51458333Y-51639733D02*
X51791666Y-51639733D01*
X51391666Y-51839733D02*
X51625000Y-51139733D01*
X51625000Y-51139733D02*
X51858333Y-51839733D01*
X164466666Y-72464733D02*
X164466666Y-71764733D01*
X164466666Y-72098066D02*
X164866666Y-72098066D01*
X164866666Y-72464733D02*
X164866666Y-71764733D01*
X165499999Y-71764733D02*
X165366666Y-71764733D01*
X165366666Y-71764733D02*
X165299999Y-71798066D01*
X165299999Y-71798066D02*
X165266666Y-71831400D01*
X165266666Y-71831400D02*
X165199999Y-71931400D01*
X165199999Y-71931400D02*
X165166666Y-72064733D01*
X165166666Y-72064733D02*
X165166666Y-72331400D01*
X165166666Y-72331400D02*
X165199999Y-72398066D01*
X165199999Y-72398066D02*
X165233333Y-72431400D01*
X165233333Y-72431400D02*
X165299999Y-72464733D01*
X165299999Y-72464733D02*
X165433333Y-72464733D01*
X165433333Y-72464733D02*
X165499999Y-72431400D01*
X165499999Y-72431400D02*
X165533333Y-72398066D01*
X165533333Y-72398066D02*
X165566666Y-72331400D01*
X165566666Y-72331400D02*
X165566666Y-72164733D01*
X165566666Y-72164733D02*
X165533333Y-72098066D01*
X165533333Y-72098066D02*
X165499999Y-72064733D01*
X165499999Y-72064733D02*
X165433333Y-72031400D01*
X165433333Y-72031400D02*
X165299999Y-72031400D01*
X165299999Y-72031400D02*
X165233333Y-72064733D01*
X165233333Y-72064733D02*
X165199999Y-72098066D01*
X165199999Y-72098066D02*
X165166666Y-72164733D01*
X179466666Y-46464733D02*
X179466666Y-45764733D01*
X179466666Y-46098066D02*
X179866666Y-46098066D01*
X179866666Y-46464733D02*
X179866666Y-45764733D01*
X180499999Y-45998066D02*
X180499999Y-46464733D01*
X180333333Y-45731400D02*
X180166666Y-46231400D01*
X180166666Y-46231400D02*
X180599999Y-46231400D01*
X98466667Y-27831400D02*
X98566667Y-27864733D01*
X98566667Y-27864733D02*
X98733334Y-27864733D01*
X98733334Y-27864733D02*
X98800000Y-27831400D01*
X98800000Y-27831400D02*
X98833334Y-27798066D01*
X98833334Y-27798066D02*
X98866667Y-27731400D01*
X98866667Y-27731400D02*
X98866667Y-27664733D01*
X98866667Y-27664733D02*
X98833334Y-27598066D01*
X98833334Y-27598066D02*
X98800000Y-27564733D01*
X98800000Y-27564733D02*
X98733334Y-27531400D01*
X98733334Y-27531400D02*
X98600000Y-27498066D01*
X98600000Y-27498066D02*
X98533334Y-27464733D01*
X98533334Y-27464733D02*
X98500000Y-27431400D01*
X98500000Y-27431400D02*
X98466667Y-27364733D01*
X98466667Y-27364733D02*
X98466667Y-27298066D01*
X98466667Y-27298066D02*
X98500000Y-27231400D01*
X98500000Y-27231400D02*
X98533334Y-27198066D01*
X98533334Y-27198066D02*
X98600000Y-27164733D01*
X98600000Y-27164733D02*
X98766667Y-27164733D01*
X98766667Y-27164733D02*
X98866667Y-27198066D01*
X99066667Y-27164733D02*
X99466667Y-27164733D01*
X99266667Y-27864733D02*
X99266667Y-27164733D01*
X99666667Y-27664733D02*
X100000000Y-27664733D01*
X99600000Y-27864733D02*
X99833334Y-27164733D01*
X99833334Y-27164733D02*
X100066667Y-27864733D01*
X100700000Y-27864733D02*
X100466667Y-27531400D01*
X100300000Y-27864733D02*
X100300000Y-27164733D01*
X100300000Y-27164733D02*
X100566667Y-27164733D01*
X100566667Y-27164733D02*
X100633334Y-27198066D01*
X100633334Y-27198066D02*
X100666667Y-27231400D01*
X100666667Y-27231400D02*
X100700000Y-27298066D01*
X100700000Y-27298066D02*
X100700000Y-27398066D01*
X100700000Y-27398066D02*
X100666667Y-27464733D01*
X100666667Y-27464733D02*
X100633334Y-27498066D01*
X100633334Y-27498066D02*
X100566667Y-27531400D01*
X100566667Y-27531400D02*
X100300000Y-27531400D01*
X100900000Y-27164733D02*
X101300000Y-27164733D01*
X101100000Y-27864733D02*
X101100000Y-27164733D01*
X40466666Y-10464733D02*
X40466666Y-9764733D01*
X40466666Y-10098066D02*
X40866666Y-10098066D01*
X40866666Y-10464733D02*
X40866666Y-9764733D01*
X41566666Y-10464733D02*
X41166666Y-10464733D01*
X41366666Y-10464733D02*
X41366666Y-9764733D01*
X41366666Y-9764733D02*
X41299999Y-9864733D01*
X41299999Y-9864733D02*
X41233333Y-9931400D01*
X41233333Y-9931400D02*
X41166666Y-9964733D01*
X158466666Y-10464733D02*
X158466666Y-9764733D01*
X158466666Y-10098066D02*
X158866666Y-10098066D01*
X158866666Y-10464733D02*
X158866666Y-9764733D01*
X159166666Y-9831400D02*
X159199999Y-9798066D01*
X159199999Y-9798066D02*
X159266666Y-9764733D01*
X159266666Y-9764733D02*
X159433333Y-9764733D01*
X159433333Y-9764733D02*
X159499999Y-9798066D01*
X159499999Y-9798066D02*
X159533333Y-9831400D01*
X159533333Y-9831400D02*
X159566666Y-9898066D01*
X159566666Y-9898066D02*
X159566666Y-9964733D01*
X159566666Y-9964733D02*
X159533333Y-10064733D01*
X159533333Y-10064733D02*
X159133333Y-10464733D01*
X159133333Y-10464733D02*
X159566666Y-10464733D01*
X148525000Y-51348066D02*
X148625000Y-51381400D01*
X148625000Y-51381400D02*
X148658333Y-51414733D01*
X148658333Y-51414733D02*
X148691666Y-51481400D01*
X148691666Y-51481400D02*
X148691666Y-51581400D01*
X148691666Y-51581400D02*
X148658333Y-51648066D01*
X148658333Y-51648066D02*
X148625000Y-51681400D01*
X148625000Y-51681400D02*
X148558333Y-51714733D01*
X148558333Y-51714733D02*
X148291666Y-51714733D01*
X148291666Y-51714733D02*
X148291666Y-51014733D01*
X148291666Y-51014733D02*
X148525000Y-51014733D01*
X148525000Y-51014733D02*
X148591666Y-51048066D01*
X148591666Y-51048066D02*
X148625000Y-51081400D01*
X148625000Y-51081400D02*
X148658333Y-51148066D01*
X148658333Y-51148066D02*
X148658333Y-51214733D01*
X148658333Y-51214733D02*
X148625000Y-51281400D01*
X148625000Y-51281400D02*
X148591666Y-51314733D01*
X148591666Y-51314733D02*
X148525000Y-51348066D01*
X148525000Y-51348066D02*
X148291666Y-51348066D01*
X148891666Y-51014733D02*
X149291666Y-51014733D01*
X149091666Y-51714733D02*
X149091666Y-51014733D01*
X149524999Y-51448066D02*
X150058333Y-51448066D01*
X150391666Y-51714733D02*
X150391666Y-51014733D01*
X150391666Y-51014733D02*
X150558333Y-51014733D01*
X150558333Y-51014733D02*
X150658333Y-51048066D01*
X150658333Y-51048066D02*
X150725000Y-51114733D01*
X150725000Y-51114733D02*
X150758333Y-51181400D01*
X150758333Y-51181400D02*
X150791666Y-51314733D01*
X150791666Y-51314733D02*
X150791666Y-51414733D01*
X150791666Y-51414733D02*
X150758333Y-51548066D01*
X150758333Y-51548066D02*
X150725000Y-51614733D01*
X150725000Y-51614733D02*
X150658333Y-51681400D01*
X150658333Y-51681400D02*
X150558333Y-51714733D01*
X150558333Y-51714733D02*
X150391666Y-51714733D01*
X82475000Y-51598066D02*
X82575000Y-51631400D01*
X82575000Y-51631400D02*
X82608333Y-51664733D01*
X82608333Y-51664733D02*
X82641666Y-51731400D01*
X82641666Y-51731400D02*
X82641666Y-51831400D01*
X82641666Y-51831400D02*
X82608333Y-51898066D01*
X82608333Y-51898066D02*
X82575000Y-51931400D01*
X82575000Y-51931400D02*
X82508333Y-51964733D01*
X82508333Y-51964733D02*
X82241666Y-51964733D01*
X82241666Y-51964733D02*
X82241666Y-51264733D01*
X82241666Y-51264733D02*
X82475000Y-51264733D01*
X82475000Y-51264733D02*
X82541666Y-51298066D01*
X82541666Y-51298066D02*
X82575000Y-51331400D01*
X82575000Y-51331400D02*
X82608333Y-51398066D01*
X82608333Y-51398066D02*
X82608333Y-51464733D01*
X82608333Y-51464733D02*
X82575000Y-51531400D01*
X82575000Y-51531400D02*
X82541666Y-51564733D01*
X82541666Y-51564733D02*
X82475000Y-51598066D01*
X82475000Y-51598066D02*
X82241666Y-51598066D01*
X82841666Y-51264733D02*
X83241666Y-51264733D01*
X83041666Y-51964733D02*
X83041666Y-51264733D01*
X83474999Y-51698066D02*
X84008333Y-51698066D01*
X84575000Y-51598066D02*
X84675000Y-51631400D01*
X84675000Y-51631400D02*
X84708333Y-51664733D01*
X84708333Y-51664733D02*
X84741666Y-51731400D01*
X84741666Y-51731400D02*
X84741666Y-51831400D01*
X84741666Y-51831400D02*
X84708333Y-51898066D01*
X84708333Y-51898066D02*
X84675000Y-51931400D01*
X84675000Y-51931400D02*
X84608333Y-51964733D01*
X84608333Y-51964733D02*
X84341666Y-51964733D01*
X84341666Y-51964733D02*
X84341666Y-51264733D01*
X84341666Y-51264733D02*
X84575000Y-51264733D01*
X84575000Y-51264733D02*
X84641666Y-51298066D01*
X84641666Y-51298066D02*
X84675000Y-51331400D01*
X84675000Y-51331400D02*
X84708333Y-51398066D01*
X84708333Y-51398066D02*
X84708333Y-51464733D01*
X84708333Y-51464733D02*
X84675000Y-51531400D01*
X84675000Y-51531400D02*
X84641666Y-51564733D01*
X84641666Y-51564733D02*
X84575000Y-51598066D01*
X84575000Y-51598066D02*
X84341666Y-51598066D01*
X66100000Y-93448066D02*
X65866666Y-93448066D01*
X65866666Y-93814733D02*
X65866666Y-93114733D01*
X65866666Y-93114733D02*
X66200000Y-93114733D01*
X66400000Y-93114733D02*
X66866666Y-93814733D01*
X66866666Y-93114733D02*
X66400000Y-93814733D01*
X67133333Y-93548066D02*
X67666667Y-93548066D01*
X68333334Y-93814733D02*
X68000000Y-93814733D01*
X68000000Y-93814733D02*
X68000000Y-93114733D01*
X19466666Y-46464733D02*
X19466666Y-45764733D01*
X19466666Y-46098066D02*
X19866666Y-46098066D01*
X19866666Y-46464733D02*
X19866666Y-45764733D01*
X20133333Y-45764733D02*
X20566666Y-45764733D01*
X20566666Y-45764733D02*
X20333333Y-46031400D01*
X20333333Y-46031400D02*
X20433333Y-46031400D01*
X20433333Y-46031400D02*
X20499999Y-46064733D01*
X20499999Y-46064733D02*
X20533333Y-46098066D01*
X20533333Y-46098066D02*
X20566666Y-46164733D01*
X20566666Y-46164733D02*
X20566666Y-46331400D01*
X20566666Y-46331400D02*
X20533333Y-46398066D01*
X20533333Y-46398066D02*
X20499999Y-46431400D01*
X20499999Y-46431400D02*
X20433333Y-46464733D01*
X20433333Y-46464733D02*
X20233333Y-46464733D01*
X20233333Y-46464733D02*
X20166666Y-46431400D01*
X20166666Y-46431400D02*
X20133333Y-46398066D01*
X115350000Y-51298066D02*
X115450000Y-51331400D01*
X115450000Y-51331400D02*
X115483333Y-51364733D01*
X115483333Y-51364733D02*
X115516666Y-51431400D01*
X115516666Y-51431400D02*
X115516666Y-51531400D01*
X115516666Y-51531400D02*
X115483333Y-51598066D01*
X115483333Y-51598066D02*
X115450000Y-51631400D01*
X115450000Y-51631400D02*
X115383333Y-51664733D01*
X115383333Y-51664733D02*
X115116666Y-51664733D01*
X115116666Y-51664733D02*
X115116666Y-50964733D01*
X115116666Y-50964733D02*
X115350000Y-50964733D01*
X115350000Y-50964733D02*
X115416666Y-50998066D01*
X115416666Y-50998066D02*
X115450000Y-51031400D01*
X115450000Y-51031400D02*
X115483333Y-51098066D01*
X115483333Y-51098066D02*
X115483333Y-51164733D01*
X115483333Y-51164733D02*
X115450000Y-51231400D01*
X115450000Y-51231400D02*
X115416666Y-51264733D01*
X115416666Y-51264733D02*
X115350000Y-51298066D01*
X115350000Y-51298066D02*
X115116666Y-51298066D01*
X115716666Y-50964733D02*
X116116666Y-50964733D01*
X115916666Y-51664733D02*
X115916666Y-50964733D01*
X116349999Y-51398066D02*
X116883333Y-51398066D01*
X117616666Y-51598066D02*
X117583333Y-51631400D01*
X117583333Y-51631400D02*
X117483333Y-51664733D01*
X117483333Y-51664733D02*
X117416666Y-51664733D01*
X117416666Y-51664733D02*
X117316666Y-51631400D01*
X117316666Y-51631400D02*
X117250000Y-51564733D01*
X117250000Y-51564733D02*
X117216666Y-51498066D01*
X117216666Y-51498066D02*
X117183333Y-51364733D01*
X117183333Y-51364733D02*
X117183333Y-51264733D01*
X117183333Y-51264733D02*
X117216666Y-51131400D01*
X117216666Y-51131400D02*
X117250000Y-51064733D01*
X117250000Y-51064733D02*
X117316666Y-50998066D01*
X117316666Y-50998066D02*
X117416666Y-50964733D01*
X117416666Y-50964733D02*
X117483333Y-50964733D01*
X117483333Y-50964733D02*
X117583333Y-50998066D01*
X117583333Y-50998066D02*
X117616666Y-51031400D01*
X132058333Y-93123066D02*
X131824999Y-93123066D01*
X131824999Y-93489733D02*
X131824999Y-92789733D01*
X131824999Y-92789733D02*
X132158333Y-92789733D01*
X132358333Y-92789733D02*
X132824999Y-93489733D01*
X132824999Y-92789733D02*
X132358333Y-93489733D01*
X133091666Y-93223066D02*
X133625000Y-93223066D01*
X134358333Y-93489733D02*
X134125000Y-93156400D01*
X133958333Y-93489733D02*
X133958333Y-92789733D01*
X133958333Y-92789733D02*
X134225000Y-92789733D01*
X134225000Y-92789733D02*
X134291667Y-92823066D01*
X134291667Y-92823066D02*
X134325000Y-92856400D01*
X134325000Y-92856400D02*
X134358333Y-92923066D01*
X134358333Y-92923066D02*
X134358333Y-93023066D01*
X134358333Y-93023066D02*
X134325000Y-93089733D01*
X134325000Y-93089733D02*
X134291667Y-93123066D01*
X134291667Y-93123066D02*
X134225000Y-93156400D01*
X134225000Y-93156400D02*
X133958333Y-93156400D01*
X181291666Y-5839733D02*
X181525000Y-6539733D01*
X181525000Y-6539733D02*
X181758333Y-5839733D01*
X182125000Y-5839733D02*
X182258333Y-5839733D01*
X182258333Y-5839733D02*
X182325000Y-5873066D01*
X182325000Y-5873066D02*
X182391666Y-5939733D01*
X182391666Y-5939733D02*
X182425000Y-6073066D01*
X182425000Y-6073066D02*
X182425000Y-6306400D01*
X182425000Y-6306400D02*
X182391666Y-6439733D01*
X182391666Y-6439733D02*
X182325000Y-6506400D01*
X182325000Y-6506400D02*
X182258333Y-6539733D01*
X182258333Y-6539733D02*
X182125000Y-6539733D01*
X182125000Y-6539733D02*
X182058333Y-6506400D01*
X182058333Y-6506400D02*
X181991666Y-6439733D01*
X181991666Y-6439733D02*
X181958333Y-6306400D01*
X181958333Y-6306400D02*
X181958333Y-6073066D01*
X181958333Y-6073066D02*
X181991666Y-5939733D01*
X181991666Y-5939733D02*
X182058333Y-5873066D01*
X182058333Y-5873066D02*
X182125000Y-5839733D01*
X183124999Y-6539733D02*
X182891666Y-6206400D01*
X182724999Y-6539733D02*
X182724999Y-5839733D01*
X182724999Y-5839733D02*
X182991666Y-5839733D01*
X182991666Y-5839733D02*
X183058333Y-5873066D01*
X183058333Y-5873066D02*
X183091666Y-5906400D01*
X183091666Y-5906400D02*
X183124999Y-5973066D01*
X183124999Y-5973066D02*
X183124999Y-6073066D01*
X183124999Y-6073066D02*
X183091666Y-6139733D01*
X183091666Y-6139733D02*
X183058333Y-6173066D01*
X183058333Y-6173066D02*
X182991666Y-6206400D01*
X182991666Y-6206400D02*
X182724999Y-6206400D01*
X183424999Y-6273066D02*
X183958333Y-6273066D01*
X184691666Y-6539733D02*
X184458333Y-6206400D01*
X184291666Y-6539733D02*
X184291666Y-5839733D01*
X184291666Y-5839733D02*
X184558333Y-5839733D01*
X184558333Y-5839733D02*
X184625000Y-5873066D01*
X184625000Y-5873066D02*
X184658333Y-5906400D01*
X184658333Y-5906400D02*
X184691666Y-5973066D01*
X184691666Y-5973066D02*
X184691666Y-6073066D01*
X184691666Y-6073066D02*
X184658333Y-6139733D01*
X184658333Y-6139733D02*
X184625000Y-6173066D01*
X184625000Y-6173066D02*
X184558333Y-6206400D01*
X184558333Y-6206400D02*
X184291666Y-6206400D01*
X15033333Y-4264733D02*
X15266667Y-4964733D01*
X15266667Y-4964733D02*
X15500000Y-4264733D01*
X15866667Y-4264733D02*
X16000000Y-4264733D01*
X16000000Y-4264733D02*
X16066667Y-4298066D01*
X16066667Y-4298066D02*
X16133333Y-4364733D01*
X16133333Y-4364733D02*
X16166667Y-4498066D01*
X16166667Y-4498066D02*
X16166667Y-4731400D01*
X16166667Y-4731400D02*
X16133333Y-4864733D01*
X16133333Y-4864733D02*
X16066667Y-4931400D01*
X16066667Y-4931400D02*
X16000000Y-4964733D01*
X16000000Y-4964733D02*
X15866667Y-4964733D01*
X15866667Y-4964733D02*
X15800000Y-4931400D01*
X15800000Y-4931400D02*
X15733333Y-4864733D01*
X15733333Y-4864733D02*
X15700000Y-4731400D01*
X15700000Y-4731400D02*
X15700000Y-4498066D01*
X15700000Y-4498066D02*
X15733333Y-4364733D01*
X15733333Y-4364733D02*
X15800000Y-4298066D01*
X15800000Y-4298066D02*
X15866667Y-4264733D01*
X16866666Y-4964733D02*
X16633333Y-4631400D01*
X16466666Y-4964733D02*
X16466666Y-4264733D01*
X16466666Y-4264733D02*
X16733333Y-4264733D01*
X16733333Y-4264733D02*
X16800000Y-4298066D01*
X16800000Y-4298066D02*
X16833333Y-4331400D01*
X16833333Y-4331400D02*
X16866666Y-4398066D01*
X16866666Y-4398066D02*
X16866666Y-4498066D01*
X16866666Y-4498066D02*
X16833333Y-4564733D01*
X16833333Y-4564733D02*
X16800000Y-4598066D01*
X16800000Y-4598066D02*
X16733333Y-4631400D01*
X16733333Y-4631400D02*
X16466666Y-4631400D01*
X17166666Y-4698066D02*
X17700000Y-4698066D01*
X18366667Y-4964733D02*
X18033333Y-4964733D01*
X18033333Y-4964733D02*
X18033333Y-4264733D01*
X34466666Y-72464733D02*
X34466666Y-71764733D01*
X34466666Y-72098066D02*
X34866666Y-72098066D01*
X34866666Y-72464733D02*
X34866666Y-71764733D01*
X35533333Y-71764733D02*
X35199999Y-71764733D01*
X35199999Y-71764733D02*
X35166666Y-72098066D01*
X35166666Y-72098066D02*
X35199999Y-72064733D01*
X35199999Y-72064733D02*
X35266666Y-72031400D01*
X35266666Y-72031400D02*
X35433333Y-72031400D01*
X35433333Y-72031400D02*
X35499999Y-72064733D01*
X35499999Y-72064733D02*
X35533333Y-72098066D01*
X35533333Y-72098066D02*
X35566666Y-72164733D01*
X35566666Y-72164733D02*
X35566666Y-72331400D01*
X35566666Y-72331400D02*
X35533333Y-72398066D01*
X35533333Y-72398066D02*
X35499999Y-72431400D01*
X35499999Y-72431400D02*
X35433333Y-72464733D01*
X35433333Y-72464733D02*
X35266666Y-72464733D01*
X35266666Y-72464733D02*
X35199999Y-72431400D01*
X35199999Y-72431400D02*
X35166666Y-72398066D01*
X84466666Y-61464733D02*
X84466666Y-60764733D01*
X84466666Y-61098066D02*
X84866666Y-61098066D01*
X84866666Y-61464733D02*
X84866666Y-60764733D01*
X85133333Y-60764733D02*
X85599999Y-60764733D01*
X85599999Y-60764733D02*
X85299999Y-61464733D01*
X114466666Y-61464733D02*
X114466666Y-60764733D01*
X114466666Y-61098066D02*
X114866666Y-61098066D01*
X114866666Y-61464733D02*
X114866666Y-60764733D01*
X115299999Y-61064733D02*
X115233333Y-61031400D01*
X115233333Y-61031400D02*
X115199999Y-60998066D01*
X115199999Y-60998066D02*
X115166666Y-60931400D01*
X115166666Y-60931400D02*
X115166666Y-60898066D01*
X115166666Y-60898066D02*
X115199999Y-60831400D01*
X115199999Y-60831400D02*
X115233333Y-60798066D01*
X115233333Y-60798066D02*
X115299999Y-60764733D01*
X115299999Y-60764733D02*
X115433333Y-60764733D01*
X115433333Y-60764733D02*
X115499999Y-60798066D01*
X115499999Y-60798066D02*
X115533333Y-60831400D01*
X115533333Y-60831400D02*
X115566666Y-60898066D01*
X115566666Y-60898066D02*
X115566666Y-60931400D01*
X115566666Y-60931400D02*
X115533333Y-60998066D01*
X115533333Y-60998066D02*
X115499999Y-61031400D01*
X115499999Y-61031400D02*
X115433333Y-61064733D01*
X115433333Y-61064733D02*
X115299999Y-61064733D01*
X115299999Y-61064733D02*
X115233333Y-61098066D01*
X115233333Y-61098066D02*
X115199999Y-61131400D01*
X115199999Y-61131400D02*
X115166666Y-61198066D01*
X115166666Y-61198066D02*
X115166666Y-61331400D01*
X115166666Y-61331400D02*
X115199999Y-61398066D01*
X115199999Y-61398066D02*
X115233333Y-61431400D01*
X115233333Y-61431400D02*
X115299999Y-61464733D01*
X115299999Y-61464733D02*
X115433333Y-61464733D01*
X115433333Y-61464733D02*
X115499999Y-61431400D01*
X115499999Y-61431400D02*
X115533333Y-61398066D01*
X115533333Y-61398066D02*
X115566666Y-61331400D01*
X115566666Y-61331400D02*
X115566666Y-61198066D01*
X115566666Y-61198066D02*
X115533333Y-61131400D01*
X115533333Y-61131400D02*
X115499999Y-61098066D01*
X115499999Y-61098066D02*
X115433333Y-61064733D01*
D11*
%TO.C,BT-A*%
X43400000Y-35900000D02*
X43400000Y-50100000D01*
X43400000Y-50100000D02*
X57600000Y-50100000D01*
X57600000Y-35900000D02*
X43400000Y-35900000D01*
X57600000Y-50100000D02*
X57600000Y-35900000D01*
%TO.C,START*%
X92900000Y-11900000D02*
X92900000Y-26100000D01*
X92900000Y-26100000D02*
X107100000Y-26100000D01*
X107100000Y-11900000D02*
X92900000Y-11900000D01*
X107100000Y-26100000D02*
X107100000Y-11900000D01*
%TO.C,BT-D*%
X142400000Y-35900000D02*
X142400000Y-50100000D01*
X142400000Y-50100000D02*
X156600000Y-50100000D01*
X156600000Y-35900000D02*
X142400000Y-35900000D01*
X156600000Y-50100000D02*
X156600000Y-35900000D01*
%TO.C,BT-B*%
X76400000Y-35900000D02*
X76400000Y-50100000D01*
X76400000Y-50100000D02*
X90600000Y-50100000D01*
X90600000Y-35900000D02*
X76400000Y-35900000D01*
X90600000Y-50100000D02*
X90600000Y-35900000D01*
%TO.C,FX-L*%
X59900000Y-77900000D02*
X59900000Y-92100000D01*
X59900000Y-92100000D02*
X74100000Y-92100000D01*
X74100000Y-77900000D02*
X59900000Y-77900000D01*
X74100000Y-92100000D02*
X74100000Y-77900000D01*
%TO.C,BT-C*%
X109400000Y-35900000D02*
X109400000Y-50100000D01*
X109400000Y-50100000D02*
X123600000Y-50100000D01*
X123600000Y-35900000D02*
X109400000Y-35900000D01*
X123600000Y-50100000D02*
X123600000Y-35900000D01*
%TO.C,FX-R*%
X125900000Y-77900000D02*
X125900000Y-92100000D01*
X125900000Y-92100000D02*
X140100000Y-92100000D01*
X140100000Y-77900000D02*
X125900000Y-77900000D01*
X140100000Y-92100000D02*
X140100000Y-77900000D01*
%TO.C,VOR-R*%
X175200000Y-11000000D02*
X175800000Y-11000000D01*
X175500000Y-11300000D02*
X175200000Y-11000000D01*
X175800000Y-11000000D02*
X175500000Y-11300000D01*
X176900000Y-9200000D02*
X176900000Y-21000000D01*
X181000000Y-9200000D02*
X176900000Y-9200000D01*
X181000000Y-21000000D02*
X176900000Y-21000000D01*
X182500000Y-15100000D02*
X183500000Y-15100000D01*
X183000000Y-14600000D02*
X183000000Y-15600000D01*
X185000000Y-9200000D02*
X189100000Y-9200000D01*
X189100000Y-9200000D02*
X189100000Y-11600000D01*
X189100000Y-13800000D02*
X189100000Y-16400000D01*
X189100000Y-18600000D02*
X189100000Y-21000000D01*
X189100000Y-21000000D02*
X185000000Y-21000000D01*
X186000000Y-15100000D02*
G75*
G02*
X180000000Y-15100000I-3000000J0D01*
G01*
X180000000Y-15100000D02*
G75*
G02*
X186000000Y-15100000I3000000J0D01*
G01*
%TO.C,VOR-L*%
X20000000Y-15100000D02*
G75*
G02*
X14000000Y-15100000I-3000000J0D01*
G01*
X14000000Y-15100000D02*
G75*
G02*
X20000000Y-15100000I3000000J0D01*
G01*
X23100000Y-21000000D02*
X19000000Y-21000000D01*
X23100000Y-18600000D02*
X23100000Y-21000000D01*
X23100000Y-13800000D02*
X23100000Y-16400000D01*
X23100000Y-9200000D02*
X23100000Y-11600000D01*
X19000000Y-9200000D02*
X23100000Y-9200000D01*
X17000000Y-14600000D02*
X17000000Y-15600000D01*
X16500000Y-15100000D02*
X17500000Y-15100000D01*
X15000000Y-21000000D02*
X10900000Y-21000000D01*
X15000000Y-9200000D02*
X10900000Y-9200000D01*
X10900000Y-9200000D02*
X10900000Y-21000000D01*
X9800000Y-11000000D02*
X9500000Y-11300000D01*
X9500000Y-11300000D02*
X9200000Y-11000000D01*
X9200000Y-11000000D02*
X9800000Y-11000000D01*
%TD*%
M02*
