%TF.GenerationSoftware,KiCad,Pcbnew,8.0.3*%
%TF.CreationDate,2024-09-03T22:31:28+08:00*%
%TF.ProjectId,PH-AC,50482d41-432e-46b6-9963-61645f706362,rev?*%
%TF.SameCoordinates,PX405f7e0PY328b740*%
%TF.FileFunction,Legend,Bot*%
%TF.FilePolarity,Positive*%
%FSLAX46Y46*%
G04 Gerber Fmt 4.6, Leading zero omitted, Abs format (unit mm)*
G04 Created by KiCad (PCBNEW 8.0.3) date 2024-09-03 22:31:28*
%MOMM*%
%LPD*%
G01*
G04 APERTURE LIST*
%ADD10C,0.150000*%
%ADD11C,0.120000*%
G04 APERTURE END LIST*
D10*
X137562857Y-10899580D02*
X137610476Y-10947200D01*
X137610476Y-10947200D02*
X137753333Y-10994819D01*
X137753333Y-10994819D02*
X137848571Y-10994819D01*
X137848571Y-10994819D02*
X137991428Y-10947200D01*
X137991428Y-10947200D02*
X138086666Y-10851961D01*
X138086666Y-10851961D02*
X138134285Y-10756723D01*
X138134285Y-10756723D02*
X138181904Y-10566247D01*
X138181904Y-10566247D02*
X138181904Y-10423390D01*
X138181904Y-10423390D02*
X138134285Y-10232914D01*
X138134285Y-10232914D02*
X138086666Y-10137676D01*
X138086666Y-10137676D02*
X137991428Y-10042438D01*
X137991428Y-10042438D02*
X137848571Y-9994819D01*
X137848571Y-9994819D02*
X137753333Y-9994819D01*
X137753333Y-9994819D02*
X137610476Y-10042438D01*
X137610476Y-10042438D02*
X137562857Y-10090057D01*
X136610476Y-10994819D02*
X137181904Y-10994819D01*
X136896190Y-10994819D02*
X136896190Y-9994819D01*
X136896190Y-9994819D02*
X136991428Y-10137676D01*
X136991428Y-10137676D02*
X137086666Y-10232914D01*
X137086666Y-10232914D02*
X137181904Y-10280533D01*
X135658095Y-10994819D02*
X136229523Y-10994819D01*
X135943809Y-10994819D02*
X135943809Y-9994819D01*
X135943809Y-9994819D02*
X136039047Y-10137676D01*
X136039047Y-10137676D02*
X136134285Y-10232914D01*
X136134285Y-10232914D02*
X136229523Y-10280533D01*
X142966666Y-14669580D02*
X143014285Y-14717200D01*
X143014285Y-14717200D02*
X143157142Y-14764819D01*
X143157142Y-14764819D02*
X143252380Y-14764819D01*
X143252380Y-14764819D02*
X143395237Y-14717200D01*
X143395237Y-14717200D02*
X143490475Y-14621961D01*
X143490475Y-14621961D02*
X143538094Y-14526723D01*
X143538094Y-14526723D02*
X143585713Y-14336247D01*
X143585713Y-14336247D02*
X143585713Y-14193390D01*
X143585713Y-14193390D02*
X143538094Y-14002914D01*
X143538094Y-14002914D02*
X143490475Y-13907676D01*
X143490475Y-13907676D02*
X143395237Y-13812438D01*
X143395237Y-13812438D02*
X143252380Y-13764819D01*
X143252380Y-13764819D02*
X143157142Y-13764819D01*
X143157142Y-13764819D02*
X143014285Y-13812438D01*
X143014285Y-13812438D02*
X142966666Y-13860057D01*
X142633332Y-13764819D02*
X141966666Y-13764819D01*
X141966666Y-13764819D02*
X142395237Y-14764819D01*
X116561904Y-12904819D02*
X116561904Y-13714342D01*
X116561904Y-13714342D02*
X116514285Y-13809580D01*
X116514285Y-13809580D02*
X116466666Y-13857200D01*
X116466666Y-13857200D02*
X116371428Y-13904819D01*
X116371428Y-13904819D02*
X116180952Y-13904819D01*
X116180952Y-13904819D02*
X116085714Y-13857200D01*
X116085714Y-13857200D02*
X116038095Y-13809580D01*
X116038095Y-13809580D02*
X115990476Y-13714342D01*
X115990476Y-13714342D02*
X115990476Y-12904819D01*
X115561904Y-13000057D02*
X115514285Y-12952438D01*
X115514285Y-12952438D02*
X115419047Y-12904819D01*
X115419047Y-12904819D02*
X115180952Y-12904819D01*
X115180952Y-12904819D02*
X115085714Y-12952438D01*
X115085714Y-12952438D02*
X115038095Y-13000057D01*
X115038095Y-13000057D02*
X114990476Y-13095295D01*
X114990476Y-13095295D02*
X114990476Y-13190533D01*
X114990476Y-13190533D02*
X115038095Y-13333390D01*
X115038095Y-13333390D02*
X115609523Y-13904819D01*
X115609523Y-13904819D02*
X114990476Y-13904819D01*
X138996666Y-12749580D02*
X139044285Y-12797200D01*
X139044285Y-12797200D02*
X139187142Y-12844819D01*
X139187142Y-12844819D02*
X139282380Y-12844819D01*
X139282380Y-12844819D02*
X139425237Y-12797200D01*
X139425237Y-12797200D02*
X139520475Y-12701961D01*
X139520475Y-12701961D02*
X139568094Y-12606723D01*
X139568094Y-12606723D02*
X139615713Y-12416247D01*
X139615713Y-12416247D02*
X139615713Y-12273390D01*
X139615713Y-12273390D02*
X139568094Y-12082914D01*
X139568094Y-12082914D02*
X139520475Y-11987676D01*
X139520475Y-11987676D02*
X139425237Y-11892438D01*
X139425237Y-11892438D02*
X139282380Y-11844819D01*
X139282380Y-11844819D02*
X139187142Y-11844819D01*
X139187142Y-11844819D02*
X139044285Y-11892438D01*
X139044285Y-11892438D02*
X138996666Y-11940057D01*
X138520475Y-12844819D02*
X138329999Y-12844819D01*
X138329999Y-12844819D02*
X138234761Y-12797200D01*
X138234761Y-12797200D02*
X138187142Y-12749580D01*
X138187142Y-12749580D02*
X138091904Y-12606723D01*
X138091904Y-12606723D02*
X138044285Y-12416247D01*
X138044285Y-12416247D02*
X138044285Y-12035295D01*
X138044285Y-12035295D02*
X138091904Y-11940057D01*
X138091904Y-11940057D02*
X138139523Y-11892438D01*
X138139523Y-11892438D02*
X138234761Y-11844819D01*
X138234761Y-11844819D02*
X138425237Y-11844819D01*
X138425237Y-11844819D02*
X138520475Y-11892438D01*
X138520475Y-11892438D02*
X138568094Y-11940057D01*
X138568094Y-11940057D02*
X138615713Y-12035295D01*
X138615713Y-12035295D02*
X138615713Y-12273390D01*
X138615713Y-12273390D02*
X138568094Y-12368628D01*
X138568094Y-12368628D02*
X138520475Y-12416247D01*
X138520475Y-12416247D02*
X138425237Y-12463866D01*
X138425237Y-12463866D02*
X138234761Y-12463866D01*
X138234761Y-12463866D02*
X138139523Y-12416247D01*
X138139523Y-12416247D02*
X138091904Y-12368628D01*
X138091904Y-12368628D02*
X138044285Y-12273390D01*
X122084819Y-14107142D02*
X121608628Y-13773809D01*
X122084819Y-13535714D02*
X121084819Y-13535714D01*
X121084819Y-13535714D02*
X121084819Y-13916666D01*
X121084819Y-13916666D02*
X121132438Y-14011904D01*
X121132438Y-14011904D02*
X121180057Y-14059523D01*
X121180057Y-14059523D02*
X121275295Y-14107142D01*
X121275295Y-14107142D02*
X121418152Y-14107142D01*
X121418152Y-14107142D02*
X121513390Y-14059523D01*
X121513390Y-14059523D02*
X121561009Y-14011904D01*
X121561009Y-14011904D02*
X121608628Y-13916666D01*
X121608628Y-13916666D02*
X121608628Y-13535714D01*
X122084819Y-15059523D02*
X122084819Y-14488095D01*
X122084819Y-14773809D02*
X121084819Y-14773809D01*
X121084819Y-14773809D02*
X121227676Y-14678571D01*
X121227676Y-14678571D02*
X121322914Y-14583333D01*
X121322914Y-14583333D02*
X121370533Y-14488095D01*
X121180057Y-15440476D02*
X121132438Y-15488095D01*
X121132438Y-15488095D02*
X121084819Y-15583333D01*
X121084819Y-15583333D02*
X121084819Y-15821428D01*
X121084819Y-15821428D02*
X121132438Y-15916666D01*
X121132438Y-15916666D02*
X121180057Y-15964285D01*
X121180057Y-15964285D02*
X121275295Y-16011904D01*
X121275295Y-16011904D02*
X121370533Y-16011904D01*
X121370533Y-16011904D02*
X121513390Y-15964285D01*
X121513390Y-15964285D02*
X122084819Y-15392857D01*
X122084819Y-15392857D02*
X122084819Y-16011904D01*
X136369580Y-8813333D02*
X136417200Y-8765714D01*
X136417200Y-8765714D02*
X136464819Y-8622857D01*
X136464819Y-8622857D02*
X136464819Y-8527619D01*
X136464819Y-8527619D02*
X136417200Y-8384762D01*
X136417200Y-8384762D02*
X136321961Y-8289524D01*
X136321961Y-8289524D02*
X136226723Y-8241905D01*
X136226723Y-8241905D02*
X136036247Y-8194286D01*
X136036247Y-8194286D02*
X135893390Y-8194286D01*
X135893390Y-8194286D02*
X135702914Y-8241905D01*
X135702914Y-8241905D02*
X135607676Y-8289524D01*
X135607676Y-8289524D02*
X135512438Y-8384762D01*
X135512438Y-8384762D02*
X135464819Y-8527619D01*
X135464819Y-8527619D02*
X135464819Y-8622857D01*
X135464819Y-8622857D02*
X135512438Y-8765714D01*
X135512438Y-8765714D02*
X135560057Y-8813333D01*
X135464819Y-9670476D02*
X135464819Y-9480000D01*
X135464819Y-9480000D02*
X135512438Y-9384762D01*
X135512438Y-9384762D02*
X135560057Y-9337143D01*
X135560057Y-9337143D02*
X135702914Y-9241905D01*
X135702914Y-9241905D02*
X135893390Y-9194286D01*
X135893390Y-9194286D02*
X136274342Y-9194286D01*
X136274342Y-9194286D02*
X136369580Y-9241905D01*
X136369580Y-9241905D02*
X136417200Y-9289524D01*
X136417200Y-9289524D02*
X136464819Y-9384762D01*
X136464819Y-9384762D02*
X136464819Y-9575238D01*
X136464819Y-9575238D02*
X136417200Y-9670476D01*
X136417200Y-9670476D02*
X136369580Y-9718095D01*
X136369580Y-9718095D02*
X136274342Y-9765714D01*
X136274342Y-9765714D02*
X136036247Y-9765714D01*
X136036247Y-9765714D02*
X135941009Y-9718095D01*
X135941009Y-9718095D02*
X135893390Y-9670476D01*
X135893390Y-9670476D02*
X135845771Y-9575238D01*
X135845771Y-9575238D02*
X135845771Y-9384762D01*
X135845771Y-9384762D02*
X135893390Y-9289524D01*
X135893390Y-9289524D02*
X135941009Y-9241905D01*
X135941009Y-9241905D02*
X136036247Y-9194286D01*
X125786666Y-12549580D02*
X125834285Y-12597200D01*
X125834285Y-12597200D02*
X125977142Y-12644819D01*
X125977142Y-12644819D02*
X126072380Y-12644819D01*
X126072380Y-12644819D02*
X126215237Y-12597200D01*
X126215237Y-12597200D02*
X126310475Y-12501961D01*
X126310475Y-12501961D02*
X126358094Y-12406723D01*
X126358094Y-12406723D02*
X126405713Y-12216247D01*
X126405713Y-12216247D02*
X126405713Y-12073390D01*
X126405713Y-12073390D02*
X126358094Y-11882914D01*
X126358094Y-11882914D02*
X126310475Y-11787676D01*
X126310475Y-11787676D02*
X126215237Y-11692438D01*
X126215237Y-11692438D02*
X126072380Y-11644819D01*
X126072380Y-11644819D02*
X125977142Y-11644819D01*
X125977142Y-11644819D02*
X125834285Y-11692438D01*
X125834285Y-11692438D02*
X125786666Y-11740057D01*
X125453332Y-11644819D02*
X124834285Y-11644819D01*
X124834285Y-11644819D02*
X125167618Y-12025771D01*
X125167618Y-12025771D02*
X125024761Y-12025771D01*
X125024761Y-12025771D02*
X124929523Y-12073390D01*
X124929523Y-12073390D02*
X124881904Y-12121009D01*
X124881904Y-12121009D02*
X124834285Y-12216247D01*
X124834285Y-12216247D02*
X124834285Y-12454342D01*
X124834285Y-12454342D02*
X124881904Y-12549580D01*
X124881904Y-12549580D02*
X124929523Y-12597200D01*
X124929523Y-12597200D02*
X125024761Y-12644819D01*
X125024761Y-12644819D02*
X125310475Y-12644819D01*
X125310475Y-12644819D02*
X125405713Y-12597200D01*
X125405713Y-12597200D02*
X125453332Y-12549580D01*
X99666666Y-9235180D02*
X99666666Y-8520895D01*
X99666666Y-8520895D02*
X99619047Y-8378038D01*
X99619047Y-8378038D02*
X99523809Y-8282800D01*
X99523809Y-8282800D02*
X99380952Y-8235180D01*
X99380952Y-8235180D02*
X99285714Y-8235180D01*
X100666666Y-8235180D02*
X100095238Y-8235180D01*
X100380952Y-8235180D02*
X100380952Y-9235180D01*
X100380952Y-9235180D02*
X100285714Y-9092323D01*
X100285714Y-9092323D02*
X100190476Y-8997085D01*
X100190476Y-8997085D02*
X100095238Y-8949466D01*
X140032857Y-7874819D02*
X140366190Y-7398628D01*
X140604285Y-7874819D02*
X140604285Y-6874819D01*
X140604285Y-6874819D02*
X140223333Y-6874819D01*
X140223333Y-6874819D02*
X140128095Y-6922438D01*
X140128095Y-6922438D02*
X140080476Y-6970057D01*
X140080476Y-6970057D02*
X140032857Y-7065295D01*
X140032857Y-7065295D02*
X140032857Y-7208152D01*
X140032857Y-7208152D02*
X140080476Y-7303390D01*
X140080476Y-7303390D02*
X140128095Y-7351009D01*
X140128095Y-7351009D02*
X140223333Y-7398628D01*
X140223333Y-7398628D02*
X140604285Y-7398628D01*
X139080476Y-7874819D02*
X139651904Y-7874819D01*
X139366190Y-7874819D02*
X139366190Y-6874819D01*
X139366190Y-6874819D02*
X139461428Y-7017676D01*
X139461428Y-7017676D02*
X139556666Y-7112914D01*
X139556666Y-7112914D02*
X139651904Y-7160533D01*
X138747142Y-6874819D02*
X138128095Y-6874819D01*
X138128095Y-6874819D02*
X138461428Y-7255771D01*
X138461428Y-7255771D02*
X138318571Y-7255771D01*
X138318571Y-7255771D02*
X138223333Y-7303390D01*
X138223333Y-7303390D02*
X138175714Y-7351009D01*
X138175714Y-7351009D02*
X138128095Y-7446247D01*
X138128095Y-7446247D02*
X138128095Y-7684342D01*
X138128095Y-7684342D02*
X138175714Y-7779580D01*
X138175714Y-7779580D02*
X138223333Y-7827200D01*
X138223333Y-7827200D02*
X138318571Y-7874819D01*
X138318571Y-7874819D02*
X138604285Y-7874819D01*
X138604285Y-7874819D02*
X138699523Y-7827200D01*
X138699523Y-7827200D02*
X138747142Y-7779580D01*
X123878628Y-18223809D02*
X124354819Y-18223809D01*
X123354819Y-17890476D02*
X123878628Y-18223809D01*
X123878628Y-18223809D02*
X123354819Y-18557142D01*
X124354819Y-19414285D02*
X124354819Y-18842857D01*
X124354819Y-19128571D02*
X123354819Y-19128571D01*
X123354819Y-19128571D02*
X123497676Y-19033333D01*
X123497676Y-19033333D02*
X123592914Y-18938095D01*
X123592914Y-18938095D02*
X123640533Y-18842857D01*
X146442857Y-18769580D02*
X146490476Y-18817200D01*
X146490476Y-18817200D02*
X146633333Y-18864819D01*
X146633333Y-18864819D02*
X146728571Y-18864819D01*
X146728571Y-18864819D02*
X146871428Y-18817200D01*
X146871428Y-18817200D02*
X146966666Y-18721961D01*
X146966666Y-18721961D02*
X147014285Y-18626723D01*
X147014285Y-18626723D02*
X147061904Y-18436247D01*
X147061904Y-18436247D02*
X147061904Y-18293390D01*
X147061904Y-18293390D02*
X147014285Y-18102914D01*
X147014285Y-18102914D02*
X146966666Y-18007676D01*
X146966666Y-18007676D02*
X146871428Y-17912438D01*
X146871428Y-17912438D02*
X146728571Y-17864819D01*
X146728571Y-17864819D02*
X146633333Y-17864819D01*
X146633333Y-17864819D02*
X146490476Y-17912438D01*
X146490476Y-17912438D02*
X146442857Y-17960057D01*
X145490476Y-18864819D02*
X146061904Y-18864819D01*
X145776190Y-18864819D02*
X145776190Y-17864819D01*
X145776190Y-17864819D02*
X145871428Y-18007676D01*
X145871428Y-18007676D02*
X145966666Y-18102914D01*
X145966666Y-18102914D02*
X146061904Y-18150533D01*
X144585714Y-17864819D02*
X145061904Y-17864819D01*
X145061904Y-17864819D02*
X145109523Y-18341009D01*
X145109523Y-18341009D02*
X145061904Y-18293390D01*
X145061904Y-18293390D02*
X144966666Y-18245771D01*
X144966666Y-18245771D02*
X144728571Y-18245771D01*
X144728571Y-18245771D02*
X144633333Y-18293390D01*
X144633333Y-18293390D02*
X144585714Y-18341009D01*
X144585714Y-18341009D02*
X144538095Y-18436247D01*
X144538095Y-18436247D02*
X144538095Y-18674342D01*
X144538095Y-18674342D02*
X144585714Y-18769580D01*
X144585714Y-18769580D02*
X144633333Y-18817200D01*
X144633333Y-18817200D02*
X144728571Y-18864819D01*
X144728571Y-18864819D02*
X144966666Y-18864819D01*
X144966666Y-18864819D02*
X145061904Y-18817200D01*
X145061904Y-18817200D02*
X145109523Y-18769580D01*
X136534819Y-13388095D02*
X137344342Y-13388095D01*
X137344342Y-13388095D02*
X137439580Y-13435714D01*
X137439580Y-13435714D02*
X137487200Y-13483333D01*
X137487200Y-13483333D02*
X137534819Y-13578571D01*
X137534819Y-13578571D02*
X137534819Y-13769047D01*
X137534819Y-13769047D02*
X137487200Y-13864285D01*
X137487200Y-13864285D02*
X137439580Y-13911904D01*
X137439580Y-13911904D02*
X137344342Y-13959523D01*
X137344342Y-13959523D02*
X136534819Y-13959523D01*
X137534819Y-14959523D02*
X137534819Y-14388095D01*
X137534819Y-14673809D02*
X136534819Y-14673809D01*
X136534819Y-14673809D02*
X136677676Y-14578571D01*
X136677676Y-14578571D02*
X136772914Y-14483333D01*
X136772914Y-14483333D02*
X136820533Y-14388095D01*
X142966666Y-13719580D02*
X143014285Y-13767200D01*
X143014285Y-13767200D02*
X143157142Y-13814819D01*
X143157142Y-13814819D02*
X143252380Y-13814819D01*
X143252380Y-13814819D02*
X143395237Y-13767200D01*
X143395237Y-13767200D02*
X143490475Y-13671961D01*
X143490475Y-13671961D02*
X143538094Y-13576723D01*
X143538094Y-13576723D02*
X143585713Y-13386247D01*
X143585713Y-13386247D02*
X143585713Y-13243390D01*
X143585713Y-13243390D02*
X143538094Y-13052914D01*
X143538094Y-13052914D02*
X143490475Y-12957676D01*
X143490475Y-12957676D02*
X143395237Y-12862438D01*
X143395237Y-12862438D02*
X143252380Y-12814819D01*
X143252380Y-12814819D02*
X143157142Y-12814819D01*
X143157142Y-12814819D02*
X143014285Y-12862438D01*
X143014285Y-12862438D02*
X142966666Y-12910057D01*
X142585713Y-12910057D02*
X142538094Y-12862438D01*
X142538094Y-12862438D02*
X142442856Y-12814819D01*
X142442856Y-12814819D02*
X142204761Y-12814819D01*
X142204761Y-12814819D02*
X142109523Y-12862438D01*
X142109523Y-12862438D02*
X142061904Y-12910057D01*
X142061904Y-12910057D02*
X142014285Y-13005295D01*
X142014285Y-13005295D02*
X142014285Y-13100533D01*
X142014285Y-13100533D02*
X142061904Y-13243390D01*
X142061904Y-13243390D02*
X142633332Y-13814819D01*
X142633332Y-13814819D02*
X142014285Y-13814819D01*
X139716666Y-12974819D02*
X140049999Y-12498628D01*
X140288094Y-12974819D02*
X140288094Y-11974819D01*
X140288094Y-11974819D02*
X139907142Y-11974819D01*
X139907142Y-11974819D02*
X139811904Y-12022438D01*
X139811904Y-12022438D02*
X139764285Y-12070057D01*
X139764285Y-12070057D02*
X139716666Y-12165295D01*
X139716666Y-12165295D02*
X139716666Y-12308152D01*
X139716666Y-12308152D02*
X139764285Y-12403390D01*
X139764285Y-12403390D02*
X139811904Y-12451009D01*
X139811904Y-12451009D02*
X139907142Y-12498628D01*
X139907142Y-12498628D02*
X140288094Y-12498628D01*
X139383332Y-11974819D02*
X138764285Y-11974819D01*
X138764285Y-11974819D02*
X139097618Y-12355771D01*
X139097618Y-12355771D02*
X138954761Y-12355771D01*
X138954761Y-12355771D02*
X138859523Y-12403390D01*
X138859523Y-12403390D02*
X138811904Y-12451009D01*
X138811904Y-12451009D02*
X138764285Y-12546247D01*
X138764285Y-12546247D02*
X138764285Y-12784342D01*
X138764285Y-12784342D02*
X138811904Y-12879580D01*
X138811904Y-12879580D02*
X138859523Y-12927200D01*
X138859523Y-12927200D02*
X138954761Y-12974819D01*
X138954761Y-12974819D02*
X139240475Y-12974819D01*
X139240475Y-12974819D02*
X139335713Y-12927200D01*
X139335713Y-12927200D02*
X139383332Y-12879580D01*
X111042857Y-5799580D02*
X111090476Y-5847200D01*
X111090476Y-5847200D02*
X111233333Y-5894819D01*
X111233333Y-5894819D02*
X111328571Y-5894819D01*
X111328571Y-5894819D02*
X111471428Y-5847200D01*
X111471428Y-5847200D02*
X111566666Y-5751961D01*
X111566666Y-5751961D02*
X111614285Y-5656723D01*
X111614285Y-5656723D02*
X111661904Y-5466247D01*
X111661904Y-5466247D02*
X111661904Y-5323390D01*
X111661904Y-5323390D02*
X111614285Y-5132914D01*
X111614285Y-5132914D02*
X111566666Y-5037676D01*
X111566666Y-5037676D02*
X111471428Y-4942438D01*
X111471428Y-4942438D02*
X111328571Y-4894819D01*
X111328571Y-4894819D02*
X111233333Y-4894819D01*
X111233333Y-4894819D02*
X111090476Y-4942438D01*
X111090476Y-4942438D02*
X111042857Y-4990057D01*
X110090476Y-5894819D02*
X110661904Y-5894819D01*
X110376190Y-5894819D02*
X110376190Y-4894819D01*
X110376190Y-4894819D02*
X110471428Y-5037676D01*
X110471428Y-5037676D02*
X110566666Y-5132914D01*
X110566666Y-5132914D02*
X110661904Y-5180533D01*
X109709523Y-4990057D02*
X109661904Y-4942438D01*
X109661904Y-4942438D02*
X109566666Y-4894819D01*
X109566666Y-4894819D02*
X109328571Y-4894819D01*
X109328571Y-4894819D02*
X109233333Y-4942438D01*
X109233333Y-4942438D02*
X109185714Y-4990057D01*
X109185714Y-4990057D02*
X109138095Y-5085295D01*
X109138095Y-5085295D02*
X109138095Y-5180533D01*
X109138095Y-5180533D02*
X109185714Y-5323390D01*
X109185714Y-5323390D02*
X109757142Y-5894819D01*
X109757142Y-5894819D02*
X109138095Y-5894819D01*
X101034819Y-8747142D02*
X100558628Y-8413809D01*
X101034819Y-8175714D02*
X100034819Y-8175714D01*
X100034819Y-8175714D02*
X100034819Y-8556666D01*
X100034819Y-8556666D02*
X100082438Y-8651904D01*
X100082438Y-8651904D02*
X100130057Y-8699523D01*
X100130057Y-8699523D02*
X100225295Y-8747142D01*
X100225295Y-8747142D02*
X100368152Y-8747142D01*
X100368152Y-8747142D02*
X100463390Y-8699523D01*
X100463390Y-8699523D02*
X100511009Y-8651904D01*
X100511009Y-8651904D02*
X100558628Y-8556666D01*
X100558628Y-8556666D02*
X100558628Y-8175714D01*
X101034819Y-9699523D02*
X101034819Y-9128095D01*
X101034819Y-9413809D02*
X100034819Y-9413809D01*
X100034819Y-9413809D02*
X100177676Y-9318571D01*
X100177676Y-9318571D02*
X100272914Y-9223333D01*
X100272914Y-9223333D02*
X100320533Y-9128095D01*
X100034819Y-10604285D02*
X100034819Y-10128095D01*
X100034819Y-10128095D02*
X100511009Y-10080476D01*
X100511009Y-10080476D02*
X100463390Y-10128095D01*
X100463390Y-10128095D02*
X100415771Y-10223333D01*
X100415771Y-10223333D02*
X100415771Y-10461428D01*
X100415771Y-10461428D02*
X100463390Y-10556666D01*
X100463390Y-10556666D02*
X100511009Y-10604285D01*
X100511009Y-10604285D02*
X100606247Y-10651904D01*
X100606247Y-10651904D02*
X100844342Y-10651904D01*
X100844342Y-10651904D02*
X100939580Y-10604285D01*
X100939580Y-10604285D02*
X100987200Y-10556666D01*
X100987200Y-10556666D02*
X101034819Y-10461428D01*
X101034819Y-10461428D02*
X101034819Y-10223333D01*
X101034819Y-10223333D02*
X100987200Y-10128095D01*
X100987200Y-10128095D02*
X100939580Y-10080476D01*
X147824819Y-12061905D02*
X146824819Y-12061905D01*
X146824819Y-12061905D02*
X146824819Y-12300000D01*
X146824819Y-12300000D02*
X146872438Y-12442857D01*
X146872438Y-12442857D02*
X146967676Y-12538095D01*
X146967676Y-12538095D02*
X147062914Y-12585714D01*
X147062914Y-12585714D02*
X147253390Y-12633333D01*
X147253390Y-12633333D02*
X147396247Y-12633333D01*
X147396247Y-12633333D02*
X147586723Y-12585714D01*
X147586723Y-12585714D02*
X147681961Y-12538095D01*
X147681961Y-12538095D02*
X147777200Y-12442857D01*
X147777200Y-12442857D02*
X147824819Y-12300000D01*
X147824819Y-12300000D02*
X147824819Y-12061905D01*
X146920057Y-13014286D02*
X146872438Y-13061905D01*
X146872438Y-13061905D02*
X146824819Y-13157143D01*
X146824819Y-13157143D02*
X146824819Y-13395238D01*
X146824819Y-13395238D02*
X146872438Y-13490476D01*
X146872438Y-13490476D02*
X146920057Y-13538095D01*
X146920057Y-13538095D02*
X147015295Y-13585714D01*
X147015295Y-13585714D02*
X147110533Y-13585714D01*
X147110533Y-13585714D02*
X147253390Y-13538095D01*
X147253390Y-13538095D02*
X147824819Y-12966667D01*
X147824819Y-12966667D02*
X147824819Y-13585714D01*
X151733332Y-21947200D02*
X151590475Y-21994819D01*
X151590475Y-21994819D02*
X151352380Y-21994819D01*
X151352380Y-21994819D02*
X151257142Y-21947200D01*
X151257142Y-21947200D02*
X151209523Y-21899580D01*
X151209523Y-21899580D02*
X151161904Y-21804342D01*
X151161904Y-21804342D02*
X151161904Y-21709104D01*
X151161904Y-21709104D02*
X151209523Y-21613866D01*
X151209523Y-21613866D02*
X151257142Y-21566247D01*
X151257142Y-21566247D02*
X151352380Y-21518628D01*
X151352380Y-21518628D02*
X151542856Y-21471009D01*
X151542856Y-21471009D02*
X151638094Y-21423390D01*
X151638094Y-21423390D02*
X151685713Y-21375771D01*
X151685713Y-21375771D02*
X151733332Y-21280533D01*
X151733332Y-21280533D02*
X151733332Y-21185295D01*
X151733332Y-21185295D02*
X151685713Y-21090057D01*
X151685713Y-21090057D02*
X151638094Y-21042438D01*
X151638094Y-21042438D02*
X151542856Y-20994819D01*
X151542856Y-20994819D02*
X151304761Y-20994819D01*
X151304761Y-20994819D02*
X151161904Y-21042438D01*
X150828570Y-20994819D02*
X150590475Y-21994819D01*
X150590475Y-21994819D02*
X150399999Y-21280533D01*
X150399999Y-21280533D02*
X150209523Y-21994819D01*
X150209523Y-21994819D02*
X149971428Y-20994819D01*
X149066666Y-21994819D02*
X149638094Y-21994819D01*
X149352380Y-21994819D02*
X149352380Y-20994819D01*
X149352380Y-20994819D02*
X149447618Y-21137676D01*
X149447618Y-21137676D02*
X149542856Y-21232914D01*
X149542856Y-21232914D02*
X149638094Y-21280533D01*
X144024819Y-8283333D02*
X143548628Y-7950000D01*
X144024819Y-7711905D02*
X143024819Y-7711905D01*
X143024819Y-7711905D02*
X143024819Y-8092857D01*
X143024819Y-8092857D02*
X143072438Y-8188095D01*
X143072438Y-8188095D02*
X143120057Y-8235714D01*
X143120057Y-8235714D02*
X143215295Y-8283333D01*
X143215295Y-8283333D02*
X143358152Y-8283333D01*
X143358152Y-8283333D02*
X143453390Y-8235714D01*
X143453390Y-8235714D02*
X143501009Y-8188095D01*
X143501009Y-8188095D02*
X143548628Y-8092857D01*
X143548628Y-8092857D02*
X143548628Y-7711905D01*
X143120057Y-8664286D02*
X143072438Y-8711905D01*
X143072438Y-8711905D02*
X143024819Y-8807143D01*
X143024819Y-8807143D02*
X143024819Y-9045238D01*
X143024819Y-9045238D02*
X143072438Y-9140476D01*
X143072438Y-9140476D02*
X143120057Y-9188095D01*
X143120057Y-9188095D02*
X143215295Y-9235714D01*
X143215295Y-9235714D02*
X143310533Y-9235714D01*
X143310533Y-9235714D02*
X143453390Y-9188095D01*
X143453390Y-9188095D02*
X144024819Y-8616667D01*
X144024819Y-8616667D02*
X144024819Y-9235714D01*
X139716666Y-11474819D02*
X140049999Y-10998628D01*
X140288094Y-11474819D02*
X140288094Y-10474819D01*
X140288094Y-10474819D02*
X139907142Y-10474819D01*
X139907142Y-10474819D02*
X139811904Y-10522438D01*
X139811904Y-10522438D02*
X139764285Y-10570057D01*
X139764285Y-10570057D02*
X139716666Y-10665295D01*
X139716666Y-10665295D02*
X139716666Y-10808152D01*
X139716666Y-10808152D02*
X139764285Y-10903390D01*
X139764285Y-10903390D02*
X139811904Y-10951009D01*
X139811904Y-10951009D02*
X139907142Y-10998628D01*
X139907142Y-10998628D02*
X140288094Y-10998628D01*
X138859523Y-10808152D02*
X138859523Y-11474819D01*
X139097618Y-10427200D02*
X139335713Y-11141485D01*
X139335713Y-11141485D02*
X138716666Y-11141485D01*
X146464819Y-21638095D02*
X147274342Y-21638095D01*
X147274342Y-21638095D02*
X147369580Y-21685714D01*
X147369580Y-21685714D02*
X147417200Y-21733333D01*
X147417200Y-21733333D02*
X147464819Y-21828571D01*
X147464819Y-21828571D02*
X147464819Y-22019047D01*
X147464819Y-22019047D02*
X147417200Y-22114285D01*
X147417200Y-22114285D02*
X147369580Y-22161904D01*
X147369580Y-22161904D02*
X147274342Y-22209523D01*
X147274342Y-22209523D02*
X146464819Y-22209523D01*
X146464819Y-22590476D02*
X146464819Y-23209523D01*
X146464819Y-23209523D02*
X146845771Y-22876190D01*
X146845771Y-22876190D02*
X146845771Y-23019047D01*
X146845771Y-23019047D02*
X146893390Y-23114285D01*
X146893390Y-23114285D02*
X146941009Y-23161904D01*
X146941009Y-23161904D02*
X147036247Y-23209523D01*
X147036247Y-23209523D02*
X147274342Y-23209523D01*
X147274342Y-23209523D02*
X147369580Y-23161904D01*
X147369580Y-23161904D02*
X147417200Y-23114285D01*
X147417200Y-23114285D02*
X147464819Y-23019047D01*
X147464819Y-23019047D02*
X147464819Y-22733333D01*
X147464819Y-22733333D02*
X147417200Y-22638095D01*
X147417200Y-22638095D02*
X147369580Y-22590476D01*
X146574819Y-27883333D02*
X146098628Y-27550000D01*
X146574819Y-27311905D02*
X145574819Y-27311905D01*
X145574819Y-27311905D02*
X145574819Y-27692857D01*
X145574819Y-27692857D02*
X145622438Y-27788095D01*
X145622438Y-27788095D02*
X145670057Y-27835714D01*
X145670057Y-27835714D02*
X145765295Y-27883333D01*
X145765295Y-27883333D02*
X145908152Y-27883333D01*
X145908152Y-27883333D02*
X146003390Y-27835714D01*
X146003390Y-27835714D02*
X146051009Y-27788095D01*
X146051009Y-27788095D02*
X146098628Y-27692857D01*
X146098628Y-27692857D02*
X146098628Y-27311905D01*
X146574819Y-28359524D02*
X146574819Y-28550000D01*
X146574819Y-28550000D02*
X146527200Y-28645238D01*
X146527200Y-28645238D02*
X146479580Y-28692857D01*
X146479580Y-28692857D02*
X146336723Y-28788095D01*
X146336723Y-28788095D02*
X146146247Y-28835714D01*
X146146247Y-28835714D02*
X145765295Y-28835714D01*
X145765295Y-28835714D02*
X145670057Y-28788095D01*
X145670057Y-28788095D02*
X145622438Y-28740476D01*
X145622438Y-28740476D02*
X145574819Y-28645238D01*
X145574819Y-28645238D02*
X145574819Y-28454762D01*
X145574819Y-28454762D02*
X145622438Y-28359524D01*
X145622438Y-28359524D02*
X145670057Y-28311905D01*
X145670057Y-28311905D02*
X145765295Y-28264286D01*
X145765295Y-28264286D02*
X146003390Y-28264286D01*
X146003390Y-28264286D02*
X146098628Y-28311905D01*
X146098628Y-28311905D02*
X146146247Y-28359524D01*
X146146247Y-28359524D02*
X146193866Y-28454762D01*
X146193866Y-28454762D02*
X146193866Y-28645238D01*
X146193866Y-28645238D02*
X146146247Y-28740476D01*
X146146247Y-28740476D02*
X146098628Y-28788095D01*
X146098628Y-28788095D02*
X146003390Y-28835714D01*
X137586666Y-20369580D02*
X137634285Y-20417200D01*
X137634285Y-20417200D02*
X137777142Y-20464819D01*
X137777142Y-20464819D02*
X137872380Y-20464819D01*
X137872380Y-20464819D02*
X138015237Y-20417200D01*
X138015237Y-20417200D02*
X138110475Y-20321961D01*
X138110475Y-20321961D02*
X138158094Y-20226723D01*
X138158094Y-20226723D02*
X138205713Y-20036247D01*
X138205713Y-20036247D02*
X138205713Y-19893390D01*
X138205713Y-19893390D02*
X138158094Y-19702914D01*
X138158094Y-19702914D02*
X138110475Y-19607676D01*
X138110475Y-19607676D02*
X138015237Y-19512438D01*
X138015237Y-19512438D02*
X137872380Y-19464819D01*
X137872380Y-19464819D02*
X137777142Y-19464819D01*
X137777142Y-19464819D02*
X137634285Y-19512438D01*
X137634285Y-19512438D02*
X137586666Y-19560057D01*
X136729523Y-19798152D02*
X136729523Y-20464819D01*
X136967618Y-19417200D02*
X137205713Y-20131485D01*
X137205713Y-20131485D02*
X136586666Y-20131485D01*
X138862857Y-11819580D02*
X138910476Y-11867200D01*
X138910476Y-11867200D02*
X139053333Y-11914819D01*
X139053333Y-11914819D02*
X139148571Y-11914819D01*
X139148571Y-11914819D02*
X139291428Y-11867200D01*
X139291428Y-11867200D02*
X139386666Y-11771961D01*
X139386666Y-11771961D02*
X139434285Y-11676723D01*
X139434285Y-11676723D02*
X139481904Y-11486247D01*
X139481904Y-11486247D02*
X139481904Y-11343390D01*
X139481904Y-11343390D02*
X139434285Y-11152914D01*
X139434285Y-11152914D02*
X139386666Y-11057676D01*
X139386666Y-11057676D02*
X139291428Y-10962438D01*
X139291428Y-10962438D02*
X139148571Y-10914819D01*
X139148571Y-10914819D02*
X139053333Y-10914819D01*
X139053333Y-10914819D02*
X138910476Y-10962438D01*
X138910476Y-10962438D02*
X138862857Y-11010057D01*
X137910476Y-11914819D02*
X138481904Y-11914819D01*
X138196190Y-11914819D02*
X138196190Y-10914819D01*
X138196190Y-10914819D02*
X138291428Y-11057676D01*
X138291428Y-11057676D02*
X138386666Y-11152914D01*
X138386666Y-11152914D02*
X138481904Y-11200533D01*
X137291428Y-10914819D02*
X137196190Y-10914819D01*
X137196190Y-10914819D02*
X137100952Y-10962438D01*
X137100952Y-10962438D02*
X137053333Y-11010057D01*
X137053333Y-11010057D02*
X137005714Y-11105295D01*
X137005714Y-11105295D02*
X136958095Y-11295771D01*
X136958095Y-11295771D02*
X136958095Y-11533866D01*
X136958095Y-11533866D02*
X137005714Y-11724342D01*
X137005714Y-11724342D02*
X137053333Y-11819580D01*
X137053333Y-11819580D02*
X137100952Y-11867200D01*
X137100952Y-11867200D02*
X137196190Y-11914819D01*
X137196190Y-11914819D02*
X137291428Y-11914819D01*
X137291428Y-11914819D02*
X137386666Y-11867200D01*
X137386666Y-11867200D02*
X137434285Y-11819580D01*
X137434285Y-11819580D02*
X137481904Y-11724342D01*
X137481904Y-11724342D02*
X137529523Y-11533866D01*
X137529523Y-11533866D02*
X137529523Y-11295771D01*
X137529523Y-11295771D02*
X137481904Y-11105295D01*
X137481904Y-11105295D02*
X137434285Y-11010057D01*
X137434285Y-11010057D02*
X137386666Y-10962438D01*
X137386666Y-10962438D02*
X137291428Y-10914819D01*
X110099580Y-9457142D02*
X110147200Y-9409523D01*
X110147200Y-9409523D02*
X110194819Y-9266666D01*
X110194819Y-9266666D02*
X110194819Y-9171428D01*
X110194819Y-9171428D02*
X110147200Y-9028571D01*
X110147200Y-9028571D02*
X110051961Y-8933333D01*
X110051961Y-8933333D02*
X109956723Y-8885714D01*
X109956723Y-8885714D02*
X109766247Y-8838095D01*
X109766247Y-8838095D02*
X109623390Y-8838095D01*
X109623390Y-8838095D02*
X109432914Y-8885714D01*
X109432914Y-8885714D02*
X109337676Y-8933333D01*
X109337676Y-8933333D02*
X109242438Y-9028571D01*
X109242438Y-9028571D02*
X109194819Y-9171428D01*
X109194819Y-9171428D02*
X109194819Y-9266666D01*
X109194819Y-9266666D02*
X109242438Y-9409523D01*
X109242438Y-9409523D02*
X109290057Y-9457142D01*
X110194819Y-10409523D02*
X110194819Y-9838095D01*
X110194819Y-10123809D02*
X109194819Y-10123809D01*
X109194819Y-10123809D02*
X109337676Y-10028571D01*
X109337676Y-10028571D02*
X109432914Y-9933333D01*
X109432914Y-9933333D02*
X109480533Y-9838095D01*
X109194819Y-10742857D02*
X109194819Y-11361904D01*
X109194819Y-11361904D02*
X109575771Y-11028571D01*
X109575771Y-11028571D02*
X109575771Y-11171428D01*
X109575771Y-11171428D02*
X109623390Y-11266666D01*
X109623390Y-11266666D02*
X109671009Y-11314285D01*
X109671009Y-11314285D02*
X109766247Y-11361904D01*
X109766247Y-11361904D02*
X110004342Y-11361904D01*
X110004342Y-11361904D02*
X110099580Y-11314285D01*
X110099580Y-11314285D02*
X110147200Y-11266666D01*
X110147200Y-11266666D02*
X110194819Y-11171428D01*
X110194819Y-11171428D02*
X110194819Y-10885714D01*
X110194819Y-10885714D02*
X110147200Y-10790476D01*
X110147200Y-10790476D02*
X110099580Y-10742857D01*
X98034819Y-8747142D02*
X97558628Y-8413809D01*
X98034819Y-8175714D02*
X97034819Y-8175714D01*
X97034819Y-8175714D02*
X97034819Y-8556666D01*
X97034819Y-8556666D02*
X97082438Y-8651904D01*
X97082438Y-8651904D02*
X97130057Y-8699523D01*
X97130057Y-8699523D02*
X97225295Y-8747142D01*
X97225295Y-8747142D02*
X97368152Y-8747142D01*
X97368152Y-8747142D02*
X97463390Y-8699523D01*
X97463390Y-8699523D02*
X97511009Y-8651904D01*
X97511009Y-8651904D02*
X97558628Y-8556666D01*
X97558628Y-8556666D02*
X97558628Y-8175714D01*
X98034819Y-9699523D02*
X98034819Y-9128095D01*
X98034819Y-9413809D02*
X97034819Y-9413809D01*
X97034819Y-9413809D02*
X97177676Y-9318571D01*
X97177676Y-9318571D02*
X97272914Y-9223333D01*
X97272914Y-9223333D02*
X97320533Y-9128095D01*
X97368152Y-10556666D02*
X98034819Y-10556666D01*
X96987200Y-10318571D02*
X97701485Y-10080476D01*
X97701485Y-10080476D02*
X97701485Y-10699523D01*
X130449580Y-20933333D02*
X130497200Y-20885714D01*
X130497200Y-20885714D02*
X130544819Y-20742857D01*
X130544819Y-20742857D02*
X130544819Y-20647619D01*
X130544819Y-20647619D02*
X130497200Y-20504762D01*
X130497200Y-20504762D02*
X130401961Y-20409524D01*
X130401961Y-20409524D02*
X130306723Y-20361905D01*
X130306723Y-20361905D02*
X130116247Y-20314286D01*
X130116247Y-20314286D02*
X129973390Y-20314286D01*
X129973390Y-20314286D02*
X129782914Y-20361905D01*
X129782914Y-20361905D02*
X129687676Y-20409524D01*
X129687676Y-20409524D02*
X129592438Y-20504762D01*
X129592438Y-20504762D02*
X129544819Y-20647619D01*
X129544819Y-20647619D02*
X129544819Y-20742857D01*
X129544819Y-20742857D02*
X129592438Y-20885714D01*
X129592438Y-20885714D02*
X129640057Y-20933333D01*
X129544819Y-21838095D02*
X129544819Y-21361905D01*
X129544819Y-21361905D02*
X130021009Y-21314286D01*
X130021009Y-21314286D02*
X129973390Y-21361905D01*
X129973390Y-21361905D02*
X129925771Y-21457143D01*
X129925771Y-21457143D02*
X129925771Y-21695238D01*
X129925771Y-21695238D02*
X129973390Y-21790476D01*
X129973390Y-21790476D02*
X130021009Y-21838095D01*
X130021009Y-21838095D02*
X130116247Y-21885714D01*
X130116247Y-21885714D02*
X130354342Y-21885714D01*
X130354342Y-21885714D02*
X130449580Y-21838095D01*
X130449580Y-21838095D02*
X130497200Y-21790476D01*
X130497200Y-21790476D02*
X130544819Y-21695238D01*
X130544819Y-21695238D02*
X130544819Y-21457143D01*
X130544819Y-21457143D02*
X130497200Y-21361905D01*
X130497200Y-21361905D02*
X130449580Y-21314286D01*
X132016666Y-10669580D02*
X132064285Y-10717200D01*
X132064285Y-10717200D02*
X132207142Y-10764819D01*
X132207142Y-10764819D02*
X132302380Y-10764819D01*
X132302380Y-10764819D02*
X132445237Y-10717200D01*
X132445237Y-10717200D02*
X132540475Y-10621961D01*
X132540475Y-10621961D02*
X132588094Y-10526723D01*
X132588094Y-10526723D02*
X132635713Y-10336247D01*
X132635713Y-10336247D02*
X132635713Y-10193390D01*
X132635713Y-10193390D02*
X132588094Y-10002914D01*
X132588094Y-10002914D02*
X132540475Y-9907676D01*
X132540475Y-9907676D02*
X132445237Y-9812438D01*
X132445237Y-9812438D02*
X132302380Y-9764819D01*
X132302380Y-9764819D02*
X132207142Y-9764819D01*
X132207142Y-9764819D02*
X132064285Y-9812438D01*
X132064285Y-9812438D02*
X132016666Y-9860057D01*
X131064285Y-10764819D02*
X131635713Y-10764819D01*
X131349999Y-10764819D02*
X131349999Y-9764819D01*
X131349999Y-9764819D02*
X131445237Y-9907676D01*
X131445237Y-9907676D02*
X131540475Y-10002914D01*
X131540475Y-10002914D02*
X131635713Y-10050533D01*
X146442857Y-17819580D02*
X146490476Y-17867200D01*
X146490476Y-17867200D02*
X146633333Y-17914819D01*
X146633333Y-17914819D02*
X146728571Y-17914819D01*
X146728571Y-17914819D02*
X146871428Y-17867200D01*
X146871428Y-17867200D02*
X146966666Y-17771961D01*
X146966666Y-17771961D02*
X147014285Y-17676723D01*
X147014285Y-17676723D02*
X147061904Y-17486247D01*
X147061904Y-17486247D02*
X147061904Y-17343390D01*
X147061904Y-17343390D02*
X147014285Y-17152914D01*
X147014285Y-17152914D02*
X146966666Y-17057676D01*
X146966666Y-17057676D02*
X146871428Y-16962438D01*
X146871428Y-16962438D02*
X146728571Y-16914819D01*
X146728571Y-16914819D02*
X146633333Y-16914819D01*
X146633333Y-16914819D02*
X146490476Y-16962438D01*
X146490476Y-16962438D02*
X146442857Y-17010057D01*
X145490476Y-17914819D02*
X146061904Y-17914819D01*
X145776190Y-17914819D02*
X145776190Y-16914819D01*
X145776190Y-16914819D02*
X145871428Y-17057676D01*
X145871428Y-17057676D02*
X145966666Y-17152914D01*
X145966666Y-17152914D02*
X146061904Y-17200533D01*
X144633333Y-17248152D02*
X144633333Y-17914819D01*
X144871428Y-16867200D02*
X145109523Y-17581485D01*
X145109523Y-17581485D02*
X144490476Y-17581485D01*
X122042857Y-14399580D02*
X122090476Y-14447200D01*
X122090476Y-14447200D02*
X122233333Y-14494819D01*
X122233333Y-14494819D02*
X122328571Y-14494819D01*
X122328571Y-14494819D02*
X122471428Y-14447200D01*
X122471428Y-14447200D02*
X122566666Y-14351961D01*
X122566666Y-14351961D02*
X122614285Y-14256723D01*
X122614285Y-14256723D02*
X122661904Y-14066247D01*
X122661904Y-14066247D02*
X122661904Y-13923390D01*
X122661904Y-13923390D02*
X122614285Y-13732914D01*
X122614285Y-13732914D02*
X122566666Y-13637676D01*
X122566666Y-13637676D02*
X122471428Y-13542438D01*
X122471428Y-13542438D02*
X122328571Y-13494819D01*
X122328571Y-13494819D02*
X122233333Y-13494819D01*
X122233333Y-13494819D02*
X122090476Y-13542438D01*
X122090476Y-13542438D02*
X122042857Y-13590057D01*
X121090476Y-14494819D02*
X121661904Y-14494819D01*
X121376190Y-14494819D02*
X121376190Y-13494819D01*
X121376190Y-13494819D02*
X121471428Y-13637676D01*
X121471428Y-13637676D02*
X121566666Y-13732914D01*
X121566666Y-13732914D02*
X121661904Y-13780533D01*
X120519047Y-13923390D02*
X120614285Y-13875771D01*
X120614285Y-13875771D02*
X120661904Y-13828152D01*
X120661904Y-13828152D02*
X120709523Y-13732914D01*
X120709523Y-13732914D02*
X120709523Y-13685295D01*
X120709523Y-13685295D02*
X120661904Y-13590057D01*
X120661904Y-13590057D02*
X120614285Y-13542438D01*
X120614285Y-13542438D02*
X120519047Y-13494819D01*
X120519047Y-13494819D02*
X120328571Y-13494819D01*
X120328571Y-13494819D02*
X120233333Y-13542438D01*
X120233333Y-13542438D02*
X120185714Y-13590057D01*
X120185714Y-13590057D02*
X120138095Y-13685295D01*
X120138095Y-13685295D02*
X120138095Y-13732914D01*
X120138095Y-13732914D02*
X120185714Y-13828152D01*
X120185714Y-13828152D02*
X120233333Y-13875771D01*
X120233333Y-13875771D02*
X120328571Y-13923390D01*
X120328571Y-13923390D02*
X120519047Y-13923390D01*
X120519047Y-13923390D02*
X120614285Y-13971009D01*
X120614285Y-13971009D02*
X120661904Y-14018628D01*
X120661904Y-14018628D02*
X120709523Y-14113866D01*
X120709523Y-14113866D02*
X120709523Y-14304342D01*
X120709523Y-14304342D02*
X120661904Y-14399580D01*
X120661904Y-14399580D02*
X120614285Y-14447200D01*
X120614285Y-14447200D02*
X120519047Y-14494819D01*
X120519047Y-14494819D02*
X120328571Y-14494819D01*
X120328571Y-14494819D02*
X120233333Y-14447200D01*
X120233333Y-14447200D02*
X120185714Y-14399580D01*
X120185714Y-14399580D02*
X120138095Y-14304342D01*
X120138095Y-14304342D02*
X120138095Y-14113866D01*
X120138095Y-14113866D02*
X120185714Y-14018628D01*
X120185714Y-14018628D02*
X120233333Y-13971009D01*
X120233333Y-13971009D02*
X120328571Y-13923390D01*
X120769580Y-18057142D02*
X120817200Y-18009523D01*
X120817200Y-18009523D02*
X120864819Y-17866666D01*
X120864819Y-17866666D02*
X120864819Y-17771428D01*
X120864819Y-17771428D02*
X120817200Y-17628571D01*
X120817200Y-17628571D02*
X120721961Y-17533333D01*
X120721961Y-17533333D02*
X120626723Y-17485714D01*
X120626723Y-17485714D02*
X120436247Y-17438095D01*
X120436247Y-17438095D02*
X120293390Y-17438095D01*
X120293390Y-17438095D02*
X120102914Y-17485714D01*
X120102914Y-17485714D02*
X120007676Y-17533333D01*
X120007676Y-17533333D02*
X119912438Y-17628571D01*
X119912438Y-17628571D02*
X119864819Y-17771428D01*
X119864819Y-17771428D02*
X119864819Y-17866666D01*
X119864819Y-17866666D02*
X119912438Y-18009523D01*
X119912438Y-18009523D02*
X119960057Y-18057142D01*
X120864819Y-19009523D02*
X120864819Y-18438095D01*
X120864819Y-18723809D02*
X119864819Y-18723809D01*
X119864819Y-18723809D02*
X120007676Y-18628571D01*
X120007676Y-18628571D02*
X120102914Y-18533333D01*
X120102914Y-18533333D02*
X120150533Y-18438095D01*
X119864819Y-19342857D02*
X119864819Y-20009523D01*
X119864819Y-20009523D02*
X120864819Y-19580952D01*
X117314819Y-19316666D02*
X118029104Y-19316666D01*
X118029104Y-19316666D02*
X118171961Y-19269047D01*
X118171961Y-19269047D02*
X118267200Y-19173809D01*
X118267200Y-19173809D02*
X118314819Y-19030952D01*
X118314819Y-19030952D02*
X118314819Y-18935714D01*
X117410057Y-19745238D02*
X117362438Y-19792857D01*
X117362438Y-19792857D02*
X117314819Y-19888095D01*
X117314819Y-19888095D02*
X117314819Y-20126190D01*
X117314819Y-20126190D02*
X117362438Y-20221428D01*
X117362438Y-20221428D02*
X117410057Y-20269047D01*
X117410057Y-20269047D02*
X117505295Y-20316666D01*
X117505295Y-20316666D02*
X117600533Y-20316666D01*
X117600533Y-20316666D02*
X117743390Y-20269047D01*
X117743390Y-20269047D02*
X118314819Y-19697619D01*
X118314819Y-19697619D02*
X118314819Y-20316666D01*
X144024819Y-6423333D02*
X143548628Y-6090000D01*
X144024819Y-5851905D02*
X143024819Y-5851905D01*
X143024819Y-5851905D02*
X143024819Y-6232857D01*
X143024819Y-6232857D02*
X143072438Y-6328095D01*
X143072438Y-6328095D02*
X143120057Y-6375714D01*
X143120057Y-6375714D02*
X143215295Y-6423333D01*
X143215295Y-6423333D02*
X143358152Y-6423333D01*
X143358152Y-6423333D02*
X143453390Y-6375714D01*
X143453390Y-6375714D02*
X143501009Y-6328095D01*
X143501009Y-6328095D02*
X143548628Y-6232857D01*
X143548628Y-6232857D02*
X143548628Y-5851905D01*
X144024819Y-7375714D02*
X144024819Y-6804286D01*
X144024819Y-7090000D02*
X143024819Y-7090000D01*
X143024819Y-7090000D02*
X143167676Y-6994762D01*
X143167676Y-6994762D02*
X143262914Y-6899524D01*
X143262914Y-6899524D02*
X143310533Y-6804286D01*
X125786666Y-11599580D02*
X125834285Y-11647200D01*
X125834285Y-11647200D02*
X125977142Y-11694819D01*
X125977142Y-11694819D02*
X126072380Y-11694819D01*
X126072380Y-11694819D02*
X126215237Y-11647200D01*
X126215237Y-11647200D02*
X126310475Y-11551961D01*
X126310475Y-11551961D02*
X126358094Y-11456723D01*
X126358094Y-11456723D02*
X126405713Y-11266247D01*
X126405713Y-11266247D02*
X126405713Y-11123390D01*
X126405713Y-11123390D02*
X126358094Y-10932914D01*
X126358094Y-10932914D02*
X126310475Y-10837676D01*
X126310475Y-10837676D02*
X126215237Y-10742438D01*
X126215237Y-10742438D02*
X126072380Y-10694819D01*
X126072380Y-10694819D02*
X125977142Y-10694819D01*
X125977142Y-10694819D02*
X125834285Y-10742438D01*
X125834285Y-10742438D02*
X125786666Y-10790057D01*
X125215237Y-11123390D02*
X125310475Y-11075771D01*
X125310475Y-11075771D02*
X125358094Y-11028152D01*
X125358094Y-11028152D02*
X125405713Y-10932914D01*
X125405713Y-10932914D02*
X125405713Y-10885295D01*
X125405713Y-10885295D02*
X125358094Y-10790057D01*
X125358094Y-10790057D02*
X125310475Y-10742438D01*
X125310475Y-10742438D02*
X125215237Y-10694819D01*
X125215237Y-10694819D02*
X125024761Y-10694819D01*
X125024761Y-10694819D02*
X124929523Y-10742438D01*
X124929523Y-10742438D02*
X124881904Y-10790057D01*
X124881904Y-10790057D02*
X124834285Y-10885295D01*
X124834285Y-10885295D02*
X124834285Y-10932914D01*
X124834285Y-10932914D02*
X124881904Y-11028152D01*
X124881904Y-11028152D02*
X124929523Y-11075771D01*
X124929523Y-11075771D02*
X125024761Y-11123390D01*
X125024761Y-11123390D02*
X125215237Y-11123390D01*
X125215237Y-11123390D02*
X125310475Y-11171009D01*
X125310475Y-11171009D02*
X125358094Y-11218628D01*
X125358094Y-11218628D02*
X125405713Y-11313866D01*
X125405713Y-11313866D02*
X125405713Y-11504342D01*
X125405713Y-11504342D02*
X125358094Y-11599580D01*
X125358094Y-11599580D02*
X125310475Y-11647200D01*
X125310475Y-11647200D02*
X125215237Y-11694819D01*
X125215237Y-11694819D02*
X125024761Y-11694819D01*
X125024761Y-11694819D02*
X124929523Y-11647200D01*
X124929523Y-11647200D02*
X124881904Y-11599580D01*
X124881904Y-11599580D02*
X124834285Y-11504342D01*
X124834285Y-11504342D02*
X124834285Y-11313866D01*
X124834285Y-11313866D02*
X124881904Y-11218628D01*
X124881904Y-11218628D02*
X124929523Y-11171009D01*
X124929523Y-11171009D02*
X125024761Y-11123390D01*
D11*
%TO.C,SW4*%
X46400000Y-36100000D02*
X51500000Y-36100000D01*
X50300000Y-40300000D02*
X55400000Y-40300000D01*
X44400000Y-38100000D02*
G75*
G02*
X46400000Y-36100000I1999999J1D01*
G01*
X48300000Y-42300000D02*
G75*
G02*
X50300000Y-40300000I1999999J1D01*
G01*
%TO.C,SW9*%
X95900000Y-12100000D02*
X101000000Y-12100000D01*
X99800000Y-16300000D02*
X104900000Y-16300000D01*
X93900000Y-14100000D02*
G75*
G02*
X95900000Y-12100000I1999999J1D01*
G01*
X97800000Y-18300000D02*
G75*
G02*
X99800000Y-16300000I1999999J1D01*
G01*
%TO.C,SW7*%
X145400000Y-36100000D02*
X150500000Y-36100000D01*
X149300000Y-40300000D02*
X154400000Y-40300000D01*
X143400000Y-38100000D02*
G75*
G02*
X145400000Y-36100000I1999999J1D01*
G01*
X147300000Y-42300000D02*
G75*
G02*
X149300000Y-40300000I1999999J1D01*
G01*
%TO.C,SW5*%
X79400000Y-36100000D02*
X84500000Y-36100000D01*
X83300000Y-40300000D02*
X88400000Y-40300000D01*
X77400000Y-38100000D02*
G75*
G02*
X79400000Y-36100000I1999999J1D01*
G01*
X81300000Y-42300000D02*
G75*
G02*
X83300000Y-40300000I1999999J1D01*
G01*
%TO.C,SW8*%
X62900000Y-78100000D02*
X68000000Y-78100000D01*
X66800000Y-82300000D02*
X71900000Y-82300000D01*
X60900000Y-80100000D02*
G75*
G02*
X62900000Y-78100000I1999999J1D01*
G01*
X64800000Y-84300000D02*
G75*
G02*
X66800000Y-82300000I1999999J1D01*
G01*
%TO.C,SW6*%
X112400000Y-36100000D02*
X117500000Y-36100000D01*
X116300000Y-40300000D02*
X121400000Y-40300000D01*
X110400000Y-38100000D02*
G75*
G02*
X112400000Y-36100000I1999999J1D01*
G01*
X114300000Y-42300000D02*
G75*
G02*
X116300000Y-40300000I1999999J1D01*
G01*
%TO.C,SW10*%
X128900000Y-78100000D02*
X134000000Y-78100000D01*
X132800000Y-82300000D02*
X137900000Y-82300000D01*
X126900000Y-80100000D02*
G75*
G02*
X128900000Y-78100000I1999999J1D01*
G01*
X130800000Y-84300000D02*
G75*
G02*
X132800000Y-82300000I1999999J1D01*
G01*
%TO.C,C11*%
X137027836Y-9020000D02*
X136812164Y-9020000D01*
X137027836Y-9740000D02*
X136812164Y-9740000D01*
%TO.C,C7*%
X142907836Y-12790000D02*
X142692164Y-12790000D01*
X142907836Y-13510000D02*
X142692164Y-13510000D01*
%TO.C,U2*%
X117710000Y-5540000D02*
X113950000Y-5540000D01*
X117710000Y-6800000D02*
X117710000Y-5540000D01*
X117710000Y-11100000D02*
X117710000Y-12360000D01*
X117710000Y-12360000D02*
X113950000Y-12360000D01*
X112910000Y-12590000D02*
X112430000Y-12590000D01*
X112670000Y-12260000D01*
X112910000Y-12590000D01*
G36*
X112910000Y-12590000D02*
G01*
X112430000Y-12590000D01*
X112670000Y-12260000D01*
X112910000Y-12590000D01*
G37*
%TO.C,C9*%
X138937836Y-10870000D02*
X138722164Y-10870000D01*
X138937836Y-11590000D02*
X138722164Y-11590000D01*
%TO.C,R12*%
X122470000Y-15803641D02*
X122470000Y-15496359D01*
X123230000Y-15803641D02*
X123230000Y-15496359D01*
%TO.C,C6*%
X134490000Y-8872164D02*
X134490000Y-9087836D01*
X135210000Y-8872164D02*
X135210000Y-9087836D01*
%TO.C,C3*%
X125512164Y-12990000D02*
X125727836Y-12990000D01*
X125512164Y-13710000D02*
X125727836Y-13710000D01*
%TO.C,J1*%
X95420000Y-5520000D02*
X95420000Y-4110000D01*
X96240000Y-8040000D02*
X96240000Y-8190000D01*
X96240000Y-8190000D02*
X97040000Y-8190000D01*
X104580000Y-5520000D02*
X104580000Y-4110000D01*
%TO.C,R13*%
X139543641Y-5870000D02*
X139236359Y-5870000D01*
X139543641Y-6630000D02*
X139236359Y-6630000D01*
%TO.C,Y1*%
X119800000Y-16700000D02*
X119800000Y-20700000D01*
X119800000Y-20700000D02*
X123100000Y-20700000D01*
%TO.C,C15*%
X145907836Y-16890000D02*
X145692164Y-16890000D01*
X145907836Y-17610000D02*
X145692164Y-17610000D01*
%TO.C,U1*%
X128640000Y-10540000D02*
X128640000Y-11190000D01*
X128640000Y-17760000D02*
X128640000Y-17110000D01*
X129290000Y-10540000D02*
X128640000Y-10540000D01*
X129290000Y-17760000D02*
X128640000Y-17760000D01*
X135210000Y-10540000D02*
X135860000Y-10540000D01*
X135620000Y-17760000D02*
X135210000Y-17760000D01*
X135860000Y-10540000D02*
X135860000Y-11190000D01*
X135860000Y-17460000D02*
X135860000Y-17110000D01*
X136190000Y-18000000D02*
X135860000Y-17760000D01*
X136190000Y-17520000D01*
X136190000Y-18000000D01*
G36*
X136190000Y-18000000D02*
G01*
X135860000Y-17760000D01*
X136190000Y-17520000D01*
X136190000Y-18000000D01*
G37*
%TO.C,C2*%
X142907836Y-11840000D02*
X142692164Y-11840000D01*
X142907836Y-12560000D02*
X142692164Y-12560000D01*
%TO.C,R3*%
X139312742Y-13427500D02*
X139787258Y-13427500D01*
X139312742Y-14472500D02*
X139787258Y-14472500D01*
%TO.C,C12*%
X110292164Y-6240000D02*
X110507836Y-6240000D01*
X110292164Y-6960000D02*
X110507836Y-6960000D01*
%TO.C,R15*%
X101370000Y-9543641D02*
X101370000Y-9236359D01*
X102130000Y-9543641D02*
X102130000Y-9236359D01*
%TO.C,D2*%
X144415000Y-11200000D02*
X144415000Y-15085000D01*
X144415000Y-15085000D02*
X146685000Y-15085000D01*
X146685000Y-15085000D02*
X146685000Y-11200000D01*
%TO.C,SW1*%
X149340000Y-24600000D02*
X151460000Y-24600000D01*
X149340000Y-26660000D02*
X149340000Y-24600000D01*
X149340000Y-26660000D02*
X151460000Y-26660000D01*
X150400000Y-22540000D02*
X151460000Y-22540000D01*
X151460000Y-22540000D02*
X151460000Y-23600000D01*
X151460000Y-26660000D02*
X151460000Y-24600000D01*
%TO.C,R2*%
X142020000Y-8296359D02*
X142020000Y-8603641D01*
X142780000Y-8296359D02*
X142780000Y-8603641D01*
%TO.C,R4*%
X139312742Y-11927500D02*
X139787258Y-11927500D01*
X139312742Y-12972500D02*
X139787258Y-12972500D01*
%TO.C,U3*%
X140725000Y-19675000D02*
X140725000Y-22400000D01*
X140725000Y-25125000D02*
X140725000Y-22400000D01*
X140985000Y-19675000D02*
X140725000Y-19675000D01*
X140985000Y-25125000D02*
X140725000Y-25125000D01*
X145915000Y-19675000D02*
X146175000Y-19675000D01*
X145915000Y-25125000D02*
X146175000Y-25125000D01*
X146175000Y-19675000D02*
X146175000Y-22400000D01*
X146175000Y-25125000D02*
X146175000Y-22400000D01*
X146245000Y-26147500D02*
X145915000Y-25907500D01*
X146245000Y-25667500D01*
X146245000Y-26147500D01*
G36*
X146245000Y-26147500D02*
G01*
X145915000Y-25907500D01*
X146245000Y-25667500D01*
X146245000Y-26147500D01*
G37*
%TO.C,R9*%
X144570000Y-27896359D02*
X144570000Y-28203641D01*
X145330000Y-27896359D02*
X145330000Y-28203641D01*
%TO.C,C4*%
X137527836Y-18490000D02*
X137312164Y-18490000D01*
X137527836Y-19210000D02*
X137312164Y-19210000D01*
%TO.C,C10*%
X138327836Y-9940000D02*
X138112164Y-9940000D01*
X138327836Y-10660000D02*
X138112164Y-10660000D01*
%TO.C,C13*%
X110540000Y-10207836D02*
X110540000Y-9992164D01*
X111260000Y-10207836D02*
X111260000Y-9992164D01*
%TO.C,R14*%
X98370000Y-9543641D02*
X98370000Y-9236359D01*
X99130000Y-9543641D02*
X99130000Y-9236359D01*
%TO.C,C5*%
X130890000Y-21207836D02*
X130890000Y-20992164D01*
X131610000Y-21207836D02*
X131610000Y-20992164D01*
%TO.C,C1*%
X131957836Y-8790000D02*
X131742164Y-8790000D01*
X131957836Y-9510000D02*
X131742164Y-9510000D01*
%TO.C,C14*%
X145907836Y-15940000D02*
X145692164Y-15940000D01*
X145907836Y-16660000D02*
X145692164Y-16660000D01*
%TO.C,C18*%
X121342164Y-15740000D02*
X121557836Y-15740000D01*
X121342164Y-16460000D02*
X121557836Y-16460000D01*
%TO.C,C17*%
X118890000Y-18592164D02*
X118890000Y-18807836D01*
X119610000Y-18592164D02*
X119610000Y-18807836D01*
%TO.C,J2*%
X109120000Y-18320000D02*
X109120000Y-20980000D01*
X109120000Y-18320000D02*
X114260000Y-18320000D01*
X109120000Y-20980000D02*
X114260000Y-20980000D01*
X114260000Y-18320000D02*
X114260000Y-20980000D01*
X116860000Y-19650000D02*
X116860000Y-20980000D01*
X116860000Y-20980000D02*
X115530000Y-20980000D01*
%TO.C,R1*%
X142020000Y-6436359D02*
X142020000Y-6743641D01*
X142780000Y-6436359D02*
X142780000Y-6743641D01*
%TO.C,C8*%
X125512164Y-12040000D02*
X125727836Y-12040000D01*
X125512164Y-12760000D02*
X125727836Y-12760000D01*
%TD*%
M02*
