%TF.GenerationSoftware,KiCad,Pcbnew,8.0.4*%
%TF.CreationDate,2024-07-22T17:52:48+08:00*%
%TF.ProjectId,PH-AC,50482d41-432e-46b6-9963-61645f706362,rev?*%
%TF.SameCoordinates,PX405f7e0PY328b740*%
%TF.FileFunction,Soldermask,Bot*%
%TF.FilePolarity,Negative*%
%FSLAX46Y46*%
G04 Gerber Fmt 4.6, Leading zero omitted, Abs format (unit mm)*
G04 Created by KiCad (PCBNEW 8.0.4) date 2024-07-22 17:52:48*
%MOMM*%
%LPD*%
G01*
G04 APERTURE LIST*
G04 Aperture macros list*
%AMRoundRect*
0 Rectangle with rounded corners*
0 $1 Rounding radius*
0 $2 $3 $4 $5 $6 $7 $8 $9 X,Y pos of 4 corners*
0 Add a 4 corners polygon primitive as box body*
4,1,4,$2,$3,$4,$5,$6,$7,$8,$9,$2,$3,0*
0 Add four circle primitives for the rounded corners*
1,1,$1+$1,$2,$3*
1,1,$1+$1,$4,$5*
1,1,$1+$1,$6,$7*
1,1,$1+$1,$8,$9*
0 Add four rect primitives between the rounded corners*
20,1,$1+$1,$2,$3,$4,$5,0*
20,1,$1+$1,$4,$5,$6,$7,0*
20,1,$1+$1,$6,$7,$8,$9,0*
20,1,$1+$1,$8,$9,$2,$3,0*%
G04 Aperture macros list end*
%ADD10R,0.762000X0.254000*%
%ADD11R,1.244600X2.057400*%
%ADD12C,5.700000*%
%ADD13C,1.750000*%
%ADD14C,3.050000*%
%ADD15C,4.000000*%
%ADD16RoundRect,0.250000X-1.025000X-1.000000X1.025000X-1.000000X1.025000X1.000000X-1.025000X1.000000X0*%
%ADD17R,2.000000X2.000000*%
%ADD18C,2.000000*%
%ADD19R,3.200000X2.000000*%
%ADD20RoundRect,0.140000X-0.140000X-0.170000X0.140000X-0.170000X0.140000X0.170000X-0.140000X0.170000X0*%
%ADD21RoundRect,0.135000X-0.185000X0.135000X-0.185000X-0.135000X0.185000X-0.135000X0.185000X0.135000X0*%
%ADD22RoundRect,0.140000X0.170000X-0.140000X0.170000X0.140000X-0.170000X0.140000X-0.170000X-0.140000X0*%
%ADD23RoundRect,0.147500X0.172500X-0.147500X0.172500X0.147500X-0.172500X0.147500X-0.172500X-0.147500X0*%
%ADD24RoundRect,0.140000X0.140000X0.170000X-0.140000X0.170000X-0.140000X-0.170000X0.140000X-0.170000X0*%
%ADD25RoundRect,0.135000X-0.135000X-0.185000X0.135000X-0.185000X0.135000X0.185000X-0.135000X0.185000X0*%
%ADD26C,0.650000*%
%ADD27RoundRect,0.150000X-0.150000X-0.425000X0.150000X-0.425000X0.150000X0.425000X-0.150000X0.425000X0*%
%ADD28RoundRect,0.075000X-0.075000X-0.500000X0.075000X-0.500000X0.075000X0.500000X-0.075000X0.500000X0*%
%ADD29RoundRect,0.250000X-0.840000X-0.750000X0.840000X-0.750000X0.840000X0.750000X-0.840000X0.750000X0*%
%ADD30R,1.200000X1.400000*%
%ADD31RoundRect,0.050000X0.050000X-0.387500X0.050000X0.387500X-0.050000X0.387500X-0.050000X-0.387500X0*%
%ADD32RoundRect,0.050000X0.387500X-0.050000X0.387500X0.050000X-0.387500X0.050000X-0.387500X-0.050000X0*%
%ADD33R,3.200000X3.200000*%
%ADD34RoundRect,0.140000X-0.170000X0.140000X-0.170000X-0.140000X0.170000X-0.140000X0.170000X0.140000X0*%
%ADD35RoundRect,0.135000X0.135000X0.185000X-0.135000X0.185000X-0.135000X-0.185000X0.135000X-0.185000X0*%
%ADD36RoundRect,0.100000X-0.100000X0.155000X-0.100000X-0.155000X0.100000X-0.155000X0.100000X0.155000X0*%
%ADD37RoundRect,0.147500X0.147500X0.172500X-0.147500X0.172500X-0.147500X-0.172500X0.147500X-0.172500X0*%
%ADD38R,0.850000X0.850000*%
%ADD39O,0.850000X0.850000*%
%ADD40RoundRect,0.150000X0.150000X-0.650000X0.150000X0.650000X-0.150000X0.650000X-0.150000X-0.650000X0*%
%ADD41RoundRect,0.135000X0.185000X-0.135000X0.185000X0.135000X-0.185000X0.135000X-0.185000X-0.135000X0*%
G04 APERTURE END LIST*
D10*
%TO.C,U2*%
X136038400Y-1400000D03*
X136038400Y-1900002D03*
X136038400Y-2400001D03*
X136038400Y-2900000D03*
X136038400Y-3400002D03*
X133600000Y-3400002D03*
X133600000Y-2900000D03*
X133600000Y-2400001D03*
X133600000Y-1900002D03*
X133600000Y-1400000D03*
D11*
X134819200Y-2400001D03*
%TD*%
D12*
%TO.C,H8*%
X115000000Y-65000000D03*
%TD*%
%TO.C,H7*%
X85000000Y-65000000D03*
%TD*%
%TO.C,H6*%
X165000000Y-80000000D03*
%TD*%
%TO.C,H5*%
X35000000Y-80000000D03*
%TD*%
%TO.C,H4*%
X180000000Y-50000000D03*
%TD*%
%TO.C,H3*%
X20000000Y-50000000D03*
%TD*%
%TO.C,H2*%
X155000000Y-10000000D03*
%TD*%
%TO.C,H1*%
X45000000Y-10000000D03*
%TD*%
D13*
%TO.C,SW4*%
X45420000Y-43000000D03*
D14*
X46690000Y-40460000D03*
D15*
X50500000Y-43000000D03*
D14*
X53040000Y-37920000D03*
D13*
X55580000Y-43000000D03*
D16*
X43415000Y-40460000D03*
X56342000Y-37920000D03*
%TD*%
D13*
%TO.C,SW9*%
X94920000Y-19000000D03*
D14*
X96190000Y-16460000D03*
D15*
X100000000Y-19000000D03*
D14*
X102540000Y-13920000D03*
D13*
X105080000Y-19000000D03*
D16*
X92915000Y-16460000D03*
X105842000Y-13920000D03*
%TD*%
D13*
%TO.C,SW7*%
X144420000Y-43000000D03*
D14*
X145690000Y-40460000D03*
D15*
X149500000Y-43000000D03*
D14*
X152040000Y-37920000D03*
D13*
X154580000Y-43000000D03*
D16*
X142415000Y-40460000D03*
X155342000Y-37920000D03*
%TD*%
D13*
%TO.C,SW5*%
X78420000Y-43000000D03*
D14*
X79690000Y-40460000D03*
D15*
X83500000Y-43000000D03*
D14*
X86040000Y-37920000D03*
D13*
X88580000Y-43000000D03*
D16*
X76415000Y-40460000D03*
X89342000Y-37920000D03*
%TD*%
D13*
%TO.C,SW8*%
X61920000Y-85000000D03*
D14*
X63190000Y-82460000D03*
D15*
X67000000Y-85000000D03*
D14*
X69540000Y-79920000D03*
D13*
X72080000Y-85000000D03*
D16*
X59915000Y-82460000D03*
X72842000Y-79920000D03*
%TD*%
D13*
%TO.C,SW6*%
X111420000Y-43000000D03*
D14*
X112690000Y-40460000D03*
D15*
X116500000Y-43000000D03*
D14*
X119040000Y-37920000D03*
D13*
X121580000Y-43000000D03*
D16*
X109415000Y-40460000D03*
X122342000Y-37920000D03*
%TD*%
D13*
%TO.C,SW10*%
X127920000Y-85000000D03*
D14*
X129190000Y-82460000D03*
D15*
X133000000Y-85000000D03*
D14*
X135540000Y-79920000D03*
D13*
X138080000Y-85000000D03*
D16*
X125915000Y-82460000D03*
X138842000Y-79920000D03*
%TD*%
D17*
%TO.C,SW3*%
X175500000Y-12600000D03*
D18*
X175500000Y-17600000D03*
X175500000Y-15100000D03*
D19*
X183000000Y-9500000D03*
X183000000Y-20700000D03*
D18*
X190000000Y-17600000D03*
X190000000Y-12600000D03*
%TD*%
D17*
%TO.C,SW2*%
X9500000Y-12600000D03*
D18*
X9500000Y-17600000D03*
X9500000Y-15100000D03*
D19*
X17000000Y-9500000D03*
X17000000Y-20700000D03*
D18*
X24000000Y-17600000D03*
X24000000Y-12600000D03*
%TD*%
D20*
%TO.C,C11*%
X136440000Y-7480000D03*
X137400000Y-7480000D03*
%TD*%
D21*
%TO.C,R5*%
X128900000Y-2700000D03*
X128900000Y-3720000D03*
%TD*%
D20*
%TO.C,C7*%
X142320000Y-11250000D03*
X143280000Y-11250000D03*
%TD*%
%TO.C,C9*%
X138350000Y-9330000D03*
X139310000Y-9330000D03*
%TD*%
D21*
%TO.C,R12*%
X124300000Y-12390000D03*
X124300000Y-13410000D03*
%TD*%
D22*
%TO.C,C6*%
X134850000Y-7560000D03*
X134850000Y-6600000D03*
%TD*%
D23*
%TO.C,D7*%
X60000000Y-87485000D03*
X60000000Y-86515000D03*
%TD*%
%TO.C,D8*%
X93000000Y-21485000D03*
X93000000Y-20515000D03*
%TD*%
D24*
%TO.C,C3*%
X124280000Y-10850000D03*
X123320000Y-10850000D03*
%TD*%
D25*
%TO.C,R11*%
X143940000Y-2550000D03*
X144960000Y-2550000D03*
%TD*%
D26*
%TO.C,J1*%
X97110000Y-6280000D03*
X102890000Y-6280000D03*
D27*
X96800000Y-7355000D03*
X97600000Y-7355000D03*
D28*
X98750000Y-7355000D03*
X99750000Y-7355000D03*
X100250000Y-7355000D03*
X101250000Y-7355000D03*
D27*
X102400000Y-7355000D03*
X103200000Y-7355000D03*
X103200000Y-7355000D03*
X102400000Y-7355000D03*
D28*
X101750000Y-7355000D03*
X100750000Y-7355000D03*
X99250000Y-7355000D03*
X98250000Y-7355000D03*
D27*
X97600000Y-7355000D03*
X96800000Y-7355000D03*
D29*
X94890000Y-2850000D03*
X94890000Y-6780000D03*
X105110000Y-2850000D03*
X105110000Y-6780000D03*
%TD*%
D25*
%TO.C,R10*%
X142080000Y-2550000D03*
X143100000Y-2550000D03*
%TD*%
D23*
%TO.C,D6*%
X142500000Y-45485000D03*
X142500000Y-44515000D03*
%TD*%
D25*
%TO.C,R13*%
X138880000Y-4350000D03*
X139900000Y-4350000D03*
%TD*%
D30*
%TO.C,Y1*%
X122050000Y-17050000D03*
X122050000Y-14850000D03*
X123750000Y-14850000D03*
X123750000Y-17050000D03*
%TD*%
D23*
%TO.C,D3*%
X43500000Y-45485000D03*
X43500000Y-44515000D03*
%TD*%
%TO.C,D4*%
X76500000Y-45485000D03*
X76500000Y-44515000D03*
%TD*%
D20*
%TO.C,C15*%
X145320000Y-15350000D03*
X146280000Y-15350000D03*
%TD*%
D31*
%TO.C,U1*%
X134850000Y-15687500D03*
X134450000Y-15687500D03*
X134050000Y-15687500D03*
X133650000Y-15687500D03*
X133250000Y-15687500D03*
X132850000Y-15687500D03*
X132450000Y-15687500D03*
X132050000Y-15687500D03*
X131650000Y-15687500D03*
X131250000Y-15687500D03*
X130850000Y-15687500D03*
X130450000Y-15687500D03*
X130050000Y-15687500D03*
X129650000Y-15687500D03*
D32*
X128812500Y-14850000D03*
X128812500Y-14450000D03*
X128812500Y-14050000D03*
X128812500Y-13650000D03*
X128812500Y-13250000D03*
X128812500Y-12850000D03*
X128812500Y-12450000D03*
X128812500Y-12050000D03*
X128812500Y-11650000D03*
X128812500Y-11250000D03*
X128812500Y-10850000D03*
X128812500Y-10450000D03*
X128812500Y-10050000D03*
X128812500Y-9650000D03*
D31*
X129650000Y-8812500D03*
X130050000Y-8812500D03*
X130450000Y-8812500D03*
X130850000Y-8812500D03*
X131250000Y-8812500D03*
X131650000Y-8812500D03*
X132050000Y-8812500D03*
X132450000Y-8812500D03*
X132850000Y-8812500D03*
X133250000Y-8812500D03*
X133650000Y-8812500D03*
X134050000Y-8812500D03*
X134450000Y-8812500D03*
X134850000Y-8812500D03*
D32*
X135687500Y-9650000D03*
X135687500Y-10050000D03*
X135687500Y-10450000D03*
X135687500Y-10850000D03*
X135687500Y-11250000D03*
X135687500Y-11650000D03*
X135687500Y-12050000D03*
X135687500Y-12450000D03*
X135687500Y-12850000D03*
X135687500Y-13250000D03*
X135687500Y-13650000D03*
X135687500Y-14050000D03*
X135687500Y-14450000D03*
X135687500Y-14850000D03*
D33*
X132250000Y-12250000D03*
%TD*%
D22*
%TO.C,C13*%
X130650000Y-7360000D03*
X130650000Y-6400000D03*
%TD*%
D34*
%TO.C,C12*%
X126100000Y-2770000D03*
X126100000Y-3730000D03*
%TD*%
D35*
%TO.C,R6*%
X128010000Y-3700000D03*
X126990000Y-3700000D03*
%TD*%
D20*
%TO.C,C2*%
X142320000Y-10300000D03*
X143280000Y-10300000D03*
%TD*%
D35*
%TO.C,R3*%
X139340000Y-11250000D03*
X138320000Y-11250000D03*
%TD*%
D23*
%TO.C,D9*%
X126000000Y-87485000D03*
X126000000Y-86515000D03*
%TD*%
D21*
%TO.C,R15*%
X101750000Y-8880000D03*
X101750000Y-9900000D03*
%TD*%
D35*
%TO.C,R7*%
X131110000Y-1050000D03*
X130090000Y-1050000D03*
%TD*%
D36*
%TO.C,Q1*%
X144440000Y-5790000D03*
X143440000Y-5790000D03*
X143940000Y-4500000D03*
%TD*%
D37*
%TO.C,D2*%
X141775000Y-4350000D03*
X140805000Y-4350000D03*
%TD*%
D38*
%TO.C,SW1*%
X145350000Y-29060000D03*
D39*
X145350000Y-28060000D03*
%TD*%
D25*
%TO.C,R2*%
X139700000Y-1300000D03*
X140720000Y-1300000D03*
%TD*%
D35*
%TO.C,R4*%
X139340000Y-10300000D03*
X138320000Y-10300000D03*
%TD*%
D40*
%TO.C,U3*%
X145355000Y-24100000D03*
X144085000Y-24100000D03*
X142815000Y-24100000D03*
X141545000Y-24100000D03*
X141545000Y-16900000D03*
X142815000Y-16900000D03*
X144085000Y-16900000D03*
X145355000Y-16900000D03*
%TD*%
D41*
%TO.C,R9*%
X145350000Y-26610000D03*
X145350000Y-25590000D03*
%TD*%
D20*
%TO.C,C4*%
X136940000Y-16950000D03*
X137900000Y-16950000D03*
%TD*%
%TO.C,C10*%
X137740000Y-8400000D03*
X138700000Y-8400000D03*
%TD*%
D41*
%TO.C,R8*%
X131100000Y-4210000D03*
X131100000Y-3190000D03*
%TD*%
D20*
%TO.C,C16*%
X143970000Y-3500000D03*
X144930000Y-3500000D03*
%TD*%
D21*
%TO.C,R14*%
X98750000Y-8880000D03*
X98750000Y-9900000D03*
%TD*%
D34*
%TO.C,C5*%
X131250000Y-18720000D03*
X131250000Y-19680000D03*
%TD*%
D20*
%TO.C,C1*%
X142320000Y-9350000D03*
X143280000Y-9350000D03*
%TD*%
%TO.C,C14*%
X145320000Y-14400000D03*
X146280000Y-14400000D03*
%TD*%
D24*
%TO.C,C18*%
X123380000Y-13350000D03*
X122420000Y-13350000D03*
%TD*%
D23*
%TO.C,D5*%
X109500000Y-45485000D03*
X109500000Y-44515000D03*
%TD*%
D22*
%TO.C,C17*%
X120700000Y-16430000D03*
X120700000Y-15470000D03*
%TD*%
D38*
%TO.C,J2*%
X125100000Y-6200000D03*
D39*
X126100000Y-6200000D03*
X127100000Y-6200000D03*
%TD*%
D22*
%TO.C,L1*%
X138400000Y-2880000D03*
X138400000Y-1920000D03*
%TD*%
D25*
%TO.C,R1*%
X141560000Y-1300000D03*
X142580000Y-1300000D03*
%TD*%
D23*
%TO.C,D1*%
X125150000Y-2785000D03*
X125150000Y-1815000D03*
%TD*%
D24*
%TO.C,C8*%
X124280000Y-9900000D03*
X123320000Y-9900000D03*
%TD*%
M02*
