%TF.GenerationSoftware,KiCad,Pcbnew,8.0.3*%
%TF.CreationDate,2024-08-17T22:24:54+08:00*%
%TF.ProjectId,PH-AC,50482d41-432e-46b6-9963-61645f706362,rev?*%
%TF.SameCoordinates,PX405f7e0PY328b740*%
%TF.FileFunction,Copper,L1,Top*%
%TF.FilePolarity,Positive*%
%FSLAX46Y46*%
G04 Gerber Fmt 4.6, Leading zero omitted, Abs format (unit mm)*
G04 Created by KiCad (PCBNEW 8.0.3) date 2024-08-17 22:24:54*
%MOMM*%
%LPD*%
G01*
G04 APERTURE LIST*
%TA.AperFunction,ComponentPad*%
%ADD10R,2.000000X2.000000*%
%TD*%
%TA.AperFunction,ComponentPad*%
%ADD11C,2.000000*%
%TD*%
%TA.AperFunction,ComponentPad*%
%ADD12R,3.200000X2.000000*%
%TD*%
%TA.AperFunction,ComponentPad*%
%ADD13R,1.350000X1.350000*%
%TD*%
%TA.AperFunction,ComponentPad*%
%ADD14O,1.350000X1.350000*%
%TD*%
%TA.AperFunction,ComponentPad*%
%ADD15R,1.700000X1.700000*%
%TD*%
%TA.AperFunction,ComponentPad*%
%ADD16O,1.700000X1.700000*%
%TD*%
%TA.AperFunction,ViaPad*%
%ADD17C,0.600000*%
%TD*%
%TA.AperFunction,Conductor*%
%ADD18C,0.200000*%
%TD*%
G04 APERTURE END LIST*
D10*
%TO.P,SW3,A,A*%
%TO.N,ENC1A*%
X175500000Y-12600000D03*
D11*
%TO.P,SW3,B,B*%
%TO.N,ENC1B*%
X175500000Y-17600000D03*
%TO.P,SW3,C,C*%
%TO.N,GND*%
X175500000Y-15100000D03*
D12*
%TO.P,SW3,MP,MP*%
X183000000Y-9500000D03*
X183000000Y-20700000D03*
D11*
%TO.P,SW3,S1,S1*%
%TO.N,unconnected-(SW3-PadS1)*%
X190000000Y-17600000D03*
%TO.P,SW3,S2,S2*%
%TO.N,unconnected-(SW3-PadS2)*%
X190000000Y-12600000D03*
%TD*%
D10*
%TO.P,SW2,A,A*%
%TO.N,ENC2A*%
X9500000Y-12600000D03*
D11*
%TO.P,SW2,B,B*%
%TO.N,ENC2B*%
X9500000Y-17600000D03*
%TO.P,SW2,C,C*%
%TO.N,GND*%
X9500000Y-15100000D03*
D12*
%TO.P,SW2,MP,MP*%
X17000000Y-9500000D03*
X17000000Y-20700000D03*
D11*
%TO.P,SW2,S1,S1*%
%TO.N,unconnected-(SW2-PadS1)*%
X24000000Y-17600000D03*
%TO.P,SW2,S2,S2*%
%TO.N,unconnected-(SW2-PadS2)*%
X24000000Y-12600000D03*
%TD*%
D13*
%TO.P,SW1,1,1*%
%TO.N,GND*%
X150400000Y-23600000D03*
D14*
%TO.P,SW1,2,2*%
%TO.N,Net-(R9-Pad1)*%
X150400000Y-25600000D03*
%TD*%
D15*
%TO.P,J2,1,Pin_1*%
%TO.N,Net-(J2-Pin_1)*%
X115530000Y-19650000D03*
D16*
%TO.P,J2,2,Pin_2*%
%TO.N,GND*%
X112990000Y-19650000D03*
%TO.P,J2,3,Pin_3*%
%TO.N,Net-(J2-Pin_3)*%
X110450000Y-19650000D03*
%TD*%
D17*
%TO.N,+3V3*%
X134750000Y-13550000D03*
X126100000Y-6000000D03*
X134550000Y-11850000D03*
X134500000Y-16200000D03*
X129725000Y-8475000D03*
%TO.N,Net-(U1-ADC_AVDD)*%
X141150000Y-7300000D03*
X136450000Y-8350000D03*
%TO.N,VBUS*%
X107000000Y-4800000D03*
X101823060Y-6080000D03*
%TO.N,Net-(D2-A)*%
X141125000Y-9075000D03*
X143350000Y-10400000D03*
%TO.N,Net-(U1-GPIO25)*%
X137900000Y-6250000D03*
X133575000Y-9075000D03*
%TO.N,BT0*%
X132500000Y-21100000D03*
X52000000Y-30450000D03*
%TO.N,BT1*%
X78400000Y-32450000D03*
X133300000Y-21100000D03*
%TO.N,BT2*%
X134100003Y-21100000D03*
X112350000Y-33350000D03*
%TO.N,BT3*%
X134900006Y-21100000D03*
X139450000Y-33900000D03*
%TO.N,BT4*%
X132500000Y-26249265D03*
X130417157Y-28331373D03*
%TO.N,GND*%
X93050000Y-2850000D03*
X130200000Y-21500000D03*
X130000735Y-16399265D03*
X132250000Y-14150000D03*
X107850000Y-13900000D03*
X124350000Y-37900000D03*
X143250000Y-14200000D03*
X141550000Y-28000000D03*
X147300000Y-16300000D03*
X138750000Y-8900000D03*
X119300000Y-16300000D03*
X137800000Y-17750000D03*
X106950000Y-2850000D03*
X93050000Y-6750000D03*
X140850000Y-79900000D03*
X133850000Y-7950000D03*
X105100000Y-8500000D03*
X74850000Y-79900000D03*
X111800000Y-10850000D03*
X58350000Y-37900000D03*
X126692892Y-14292892D03*
X91350000Y-37900000D03*
X124120000Y-13350000D03*
X157350000Y-37900000D03*
%TO.N,BT5*%
X90475000Y-21075000D03*
X135400000Y-19901472D03*
%TO.N,BT6*%
X136000000Y-31500000D03*
X136000000Y-33100000D03*
%TD*%
D18*
%TO.N,+3V3*%
X134750000Y-13550000D02*
X134500000Y-13800000D01*
X129725000Y-8475000D02*
X127250000Y-6000000D01*
X134550000Y-13350000D02*
X134750000Y-13550000D01*
X127250000Y-6000000D02*
X126100000Y-6000000D01*
X134550000Y-11850000D02*
X134550000Y-13350000D01*
X134500000Y-13800000D02*
X134500000Y-16200000D01*
%TO.N,Net-(U1-ADC_AVDD)*%
X137000000Y-7800000D02*
X136450000Y-8350000D01*
X140650000Y-7800000D02*
X137000000Y-7800000D01*
X141150000Y-7300000D02*
X140650000Y-7800000D01*
%TO.N,VBUS*%
X103103060Y-4800000D02*
X107000000Y-4800000D01*
X101823060Y-6080000D02*
X103103060Y-4800000D01*
%TO.N,Net-(D2-A)*%
X142450000Y-10400000D02*
X143350000Y-10400000D01*
X141125000Y-9075000D02*
X142450000Y-10400000D01*
%TO.N,Net-(U1-GPIO25)*%
X133575000Y-9075000D02*
X136400000Y-6250000D01*
X136400000Y-6250000D02*
X137900000Y-6250000D01*
%TO.N,BT0*%
X132500000Y-24268628D02*
X126318628Y-30450000D01*
X126318628Y-30450000D02*
X52000000Y-30450000D01*
X132500000Y-21100000D02*
X132500000Y-24268628D01*
%TO.N,BT1*%
X80000000Y-30850000D02*
X78400000Y-32450000D01*
X133300000Y-24034314D02*
X126484314Y-30850000D01*
X126484314Y-30850000D02*
X80000000Y-30850000D01*
X133300000Y-21100000D02*
X133300000Y-24034314D01*
%TO.N,BT2*%
X114450000Y-31250000D02*
X112350000Y-33350000D01*
X134100003Y-23799997D02*
X126650000Y-31250000D01*
X134100003Y-21100000D02*
X134100003Y-23799997D01*
X126650000Y-31250000D02*
X114450000Y-31250000D01*
%TO.N,BT3*%
X134900006Y-29350006D02*
X134900006Y-21100000D01*
X139450000Y-33900000D02*
X134900006Y-29350006D01*
%TO.N,BT4*%
X132500000Y-26249265D02*
X130417892Y-28331373D01*
X130417892Y-28331373D02*
X130417157Y-28331373D01*
%TO.N,GND*%
X128799265Y-16399265D02*
X130000735Y-16399265D01*
X126692892Y-14292892D02*
X128799265Y-16399265D01*
X133800000Y-8000000D02*
X133784314Y-8000000D01*
X133850000Y-7950000D02*
X133800000Y-8000000D01*
%TO.N,BT5*%
X134423491Y-18924963D02*
X135400000Y-19901472D01*
X91900000Y-22500000D02*
X124150000Y-22500000D01*
X127725037Y-18924963D02*
X134423491Y-18924963D01*
X90475000Y-21075000D02*
X91900000Y-22500000D01*
X124150000Y-22500000D02*
X127725037Y-18924963D01*
%TO.N,BT6*%
X136000000Y-31500000D02*
X136000000Y-33100000D01*
%TD*%
%TA.AperFunction,Conductor*%
%TO.N,GND*%
G36*
X197003736Y-500726D02*
G01*
X197293796Y-518271D01*
X197308659Y-520076D01*
X197590798Y-571780D01*
X197605335Y-575363D01*
X197879172Y-660695D01*
X197893163Y-666000D01*
X198154743Y-783727D01*
X198167989Y-790680D01*
X198413465Y-939075D01*
X198425776Y-947573D01*
X198651573Y-1124473D01*
X198662781Y-1134403D01*
X198865596Y-1337218D01*
X198875526Y-1348426D01*
X198995481Y-1501538D01*
X199052422Y-1574217D01*
X199060928Y-1586540D01*
X199209316Y-1832004D01*
X199216275Y-1845263D01*
X199333997Y-2106831D01*
X199339306Y-2120832D01*
X199424635Y-2394663D01*
X199428219Y-2409201D01*
X199479923Y-2691340D01*
X199481728Y-2706205D01*
X199499273Y-2996261D01*
X199499499Y-3003748D01*
X199499499Y-46971471D01*
X199498917Y-46983469D01*
X199441512Y-47573993D01*
X199440720Y-47580405D01*
X199350288Y-48182747D01*
X199349162Y-48189110D01*
X199227483Y-48785891D01*
X199226028Y-48792186D01*
X199073421Y-49381844D01*
X199071639Y-49388056D01*
X198888530Y-49968935D01*
X198886428Y-49975044D01*
X198673300Y-50545624D01*
X198670882Y-50551617D01*
X198428324Y-51110310D01*
X198425597Y-51116168D01*
X198154270Y-51661459D01*
X198151242Y-51667167D01*
X197859512Y-52184053D01*
X197853109Y-52194214D01*
X166351564Y-97196421D01*
X166342076Y-97207129D01*
X166342491Y-97207485D01*
X166337203Y-97213649D01*
X166306774Y-97260291D01*
X166304506Y-97263647D01*
X166286064Y-97289992D01*
X166285345Y-97291007D01*
X166059617Y-97606677D01*
X166053093Y-97615023D01*
X165786994Y-97926984D01*
X165779782Y-97934742D01*
X165488026Y-98222856D01*
X165480178Y-98229971D01*
X165164904Y-98492127D01*
X165156477Y-98498545D01*
X164819973Y-98732841D01*
X164811029Y-98738517D01*
X164455762Y-98943235D01*
X164446367Y-98948127D01*
X164074914Y-99121781D01*
X164065135Y-99125853D01*
X163680227Y-99267167D01*
X163670136Y-99270390D01*
X163274559Y-99378341D01*
X163264230Y-99380690D01*
X162860899Y-99454483D01*
X162850407Y-99455943D01*
X162442243Y-99495043D01*
X162431666Y-99495602D01*
X162044695Y-99499493D01*
X162043448Y-99499499D01*
X162010216Y-99499499D01*
X162006165Y-99499433D01*
X161996463Y-99499115D01*
X161950493Y-99497613D01*
X161950492Y-99497613D01*
X161950489Y-99497613D01*
X161942404Y-99498410D01*
X161942350Y-99497864D01*
X161928139Y-99499499D01*
X38071861Y-99499499D01*
X38057649Y-99497864D01*
X38057596Y-99498410D01*
X38049510Y-99497613D01*
X38049507Y-99497613D01*
X38006060Y-99499033D01*
X37993835Y-99499433D01*
X37989784Y-99499499D01*
X37957744Y-99499499D01*
X37956497Y-99499493D01*
X37568333Y-99495590D01*
X37557756Y-99495031D01*
X37149590Y-99455931D01*
X37139098Y-99454471D01*
X36735773Y-99380679D01*
X36725444Y-99378330D01*
X36329867Y-99270379D01*
X36319776Y-99267156D01*
X35934869Y-99125842D01*
X35925090Y-99121770D01*
X35553638Y-98948116D01*
X35544243Y-98943224D01*
X35508124Y-98922411D01*
X35188971Y-98738503D01*
X35180040Y-98732835D01*
X34843535Y-98498540D01*
X34835110Y-98492122D01*
X34519822Y-98229954D01*
X34511974Y-98222840D01*
X34220226Y-97934734D01*
X34213014Y-97926976D01*
X33946915Y-97615016D01*
X33940391Y-97606670D01*
X33713926Y-97289970D01*
X33713207Y-97288954D01*
X33695498Y-97263656D01*
X33693245Y-97260323D01*
X33662795Y-97213648D01*
X33662794Y-97213647D01*
X33657500Y-97207474D01*
X33657916Y-97207116D01*
X33648428Y-97196413D01*
X26686288Y-87250499D01*
X25048933Y-84911421D01*
X60794500Y-84911421D01*
X60794500Y-85088578D01*
X60822214Y-85263556D01*
X60876956Y-85432039D01*
X60876957Y-85432042D01*
X60957386Y-85589890D01*
X61061517Y-85733214D01*
X61186786Y-85858483D01*
X61330110Y-85962614D01*
X61398577Y-85997500D01*
X61487957Y-86043042D01*
X61487960Y-86043043D01*
X61572201Y-86070414D01*
X61656445Y-86097786D01*
X61831421Y-86125500D01*
X61831422Y-86125500D01*
X62008578Y-86125500D01*
X62008579Y-86125500D01*
X62183555Y-86097786D01*
X62352042Y-86043042D01*
X62509890Y-85962614D01*
X62653214Y-85858483D01*
X62778483Y-85733214D01*
X62882614Y-85589890D01*
X62963042Y-85432042D01*
X63017786Y-85263555D01*
X63045500Y-85088579D01*
X63045500Y-84911421D01*
X63036165Y-84852486D01*
X64749500Y-84852486D01*
X64749500Y-85147513D01*
X64764778Y-85263555D01*
X64788007Y-85439993D01*
X64864361Y-85724951D01*
X64864364Y-85724961D01*
X64977254Y-85997500D01*
X64977258Y-85997510D01*
X65124761Y-86252993D01*
X65304352Y-86487040D01*
X65304358Y-86487047D01*
X65512952Y-86695641D01*
X65512959Y-86695647D01*
X65747006Y-86875238D01*
X66002489Y-87022741D01*
X66002490Y-87022741D01*
X66002493Y-87022743D01*
X66275048Y-87135639D01*
X66560007Y-87211993D01*
X66852494Y-87250500D01*
X66852501Y-87250500D01*
X67147499Y-87250500D01*
X67147506Y-87250500D01*
X67439993Y-87211993D01*
X67724952Y-87135639D01*
X67997507Y-87022743D01*
X68252994Y-86875238D01*
X68487042Y-86695646D01*
X68695646Y-86487042D01*
X68875238Y-86252994D01*
X69022743Y-85997507D01*
X69135639Y-85724952D01*
X69211993Y-85439993D01*
X69250500Y-85147506D01*
X69250500Y-84911421D01*
X70954500Y-84911421D01*
X70954500Y-85088578D01*
X70982214Y-85263556D01*
X71036956Y-85432039D01*
X71036957Y-85432042D01*
X71117386Y-85589890D01*
X71221517Y-85733214D01*
X71346786Y-85858483D01*
X71490110Y-85962614D01*
X71558577Y-85997500D01*
X71647957Y-86043042D01*
X71647960Y-86043043D01*
X71732201Y-86070414D01*
X71816445Y-86097786D01*
X71991421Y-86125500D01*
X71991422Y-86125500D01*
X72168578Y-86125500D01*
X72168579Y-86125500D01*
X72343555Y-86097786D01*
X72512042Y-86043042D01*
X72669890Y-85962614D01*
X72813214Y-85858483D01*
X72938483Y-85733214D01*
X73042614Y-85589890D01*
X73123042Y-85432042D01*
X73177786Y-85263555D01*
X73205500Y-85088579D01*
X73205500Y-84911421D01*
X126794500Y-84911421D01*
X126794500Y-85088578D01*
X126822214Y-85263556D01*
X126876956Y-85432039D01*
X126876957Y-85432042D01*
X126957386Y-85589890D01*
X127061517Y-85733214D01*
X127186786Y-85858483D01*
X127330110Y-85962614D01*
X127398577Y-85997500D01*
X127487957Y-86043042D01*
X127487960Y-86043043D01*
X127572201Y-86070414D01*
X127656445Y-86097786D01*
X127831421Y-86125500D01*
X127831422Y-86125500D01*
X128008578Y-86125500D01*
X128008579Y-86125500D01*
X128183555Y-86097786D01*
X128352042Y-86043042D01*
X128509890Y-85962614D01*
X128653214Y-85858483D01*
X128778483Y-85733214D01*
X128882614Y-85589890D01*
X128963042Y-85432042D01*
X129017786Y-85263555D01*
X129045500Y-85088579D01*
X129045500Y-84911421D01*
X129036165Y-84852486D01*
X130749500Y-84852486D01*
X130749500Y-85147513D01*
X130764778Y-85263555D01*
X130788007Y-85439993D01*
X130864361Y-85724951D01*
X130864364Y-85724961D01*
X130977254Y-85997500D01*
X130977258Y-85997510D01*
X131124761Y-86252993D01*
X131304352Y-86487040D01*
X131304358Y-86487047D01*
X131512952Y-86695641D01*
X131512959Y-86695647D01*
X131747006Y-86875238D01*
X132002489Y-87022741D01*
X132002490Y-87022741D01*
X132002493Y-87022743D01*
X132275048Y-87135639D01*
X132560007Y-87211993D01*
X132852494Y-87250500D01*
X132852501Y-87250500D01*
X133147499Y-87250500D01*
X133147506Y-87250500D01*
X133439993Y-87211993D01*
X133724952Y-87135639D01*
X133997507Y-87022743D01*
X134252994Y-86875238D01*
X134487042Y-86695646D01*
X134695646Y-86487042D01*
X134875238Y-86252994D01*
X135022743Y-85997507D01*
X135135639Y-85724952D01*
X135211993Y-85439993D01*
X135250500Y-85147506D01*
X135250500Y-84911421D01*
X136954500Y-84911421D01*
X136954500Y-85088578D01*
X136982214Y-85263556D01*
X137036956Y-85432039D01*
X137036957Y-85432042D01*
X137117386Y-85589890D01*
X137221517Y-85733214D01*
X137346786Y-85858483D01*
X137490110Y-85962614D01*
X137558577Y-85997500D01*
X137647957Y-86043042D01*
X137647960Y-86043043D01*
X137732201Y-86070414D01*
X137816445Y-86097786D01*
X137991421Y-86125500D01*
X137991422Y-86125500D01*
X138168578Y-86125500D01*
X138168579Y-86125500D01*
X138343555Y-86097786D01*
X138512042Y-86043042D01*
X138669890Y-85962614D01*
X138813214Y-85858483D01*
X138938483Y-85733214D01*
X139042614Y-85589890D01*
X139123042Y-85432042D01*
X139177786Y-85263555D01*
X139205500Y-85088579D01*
X139205500Y-84911421D01*
X139177786Y-84736445D01*
X139123042Y-84567958D01*
X139123042Y-84567957D01*
X139042613Y-84410109D01*
X139039618Y-84405987D01*
X138938483Y-84266786D01*
X138813214Y-84141517D01*
X138669890Y-84037386D01*
X138512042Y-83956957D01*
X138512039Y-83956956D01*
X138343556Y-83902214D01*
X138256067Y-83888357D01*
X138168579Y-83874500D01*
X137991421Y-83874500D01*
X137933095Y-83883738D01*
X137816443Y-83902214D01*
X137647960Y-83956956D01*
X137647957Y-83956957D01*
X137490109Y-84037386D01*
X137408338Y-84096796D01*
X137346786Y-84141517D01*
X137346784Y-84141519D01*
X137346783Y-84141519D01*
X137221519Y-84266783D01*
X137221519Y-84266784D01*
X137221517Y-84266786D01*
X137176796Y-84328338D01*
X137117386Y-84410109D01*
X137036957Y-84567957D01*
X137036956Y-84567960D01*
X136982214Y-84736443D01*
X136954500Y-84911421D01*
X135250500Y-84911421D01*
X135250500Y-84852494D01*
X135211993Y-84560007D01*
X135135639Y-84275048D01*
X135134615Y-84272577D01*
X135080329Y-84141519D01*
X135022743Y-84002493D01*
X134996453Y-83956958D01*
X134875238Y-83747006D01*
X134695647Y-83512959D01*
X134695641Y-83512952D01*
X134487047Y-83304358D01*
X134487040Y-83304352D01*
X134252993Y-83124761D01*
X133997510Y-82977258D01*
X133997500Y-82977254D01*
X133724961Y-82864364D01*
X133724954Y-82864362D01*
X133724952Y-82864361D01*
X133439993Y-82788007D01*
X133391113Y-82781571D01*
X133147513Y-82749500D01*
X133147506Y-82749500D01*
X132852494Y-82749500D01*
X132852486Y-82749500D01*
X132574085Y-82786153D01*
X132560007Y-82788007D01*
X132275048Y-82864361D01*
X132275038Y-82864364D01*
X132002499Y-82977254D01*
X132002489Y-82977258D01*
X131747006Y-83124761D01*
X131512959Y-83304352D01*
X131512952Y-83304358D01*
X131304358Y-83512952D01*
X131304352Y-83512959D01*
X131124761Y-83747006D01*
X130977258Y-84002489D01*
X130977254Y-84002499D01*
X130864364Y-84275038D01*
X130864361Y-84275048D01*
X130828172Y-84410110D01*
X130788008Y-84560004D01*
X130788006Y-84560015D01*
X130749500Y-84852486D01*
X129036165Y-84852486D01*
X129017786Y-84736445D01*
X128963042Y-84567958D01*
X128963040Y-84567952D01*
X128880513Y-84405987D01*
X128867616Y-84337317D01*
X128893892Y-84272577D01*
X128950998Y-84232319D01*
X129007181Y-84226752D01*
X129066564Y-84234570D01*
X129073612Y-84235498D01*
X129073628Y-84235500D01*
X129073635Y-84235500D01*
X129306365Y-84235500D01*
X129306372Y-84235500D01*
X129537126Y-84205121D01*
X129761940Y-84144882D01*
X129819953Y-84120852D01*
X129976960Y-84055819D01*
X129976963Y-84055817D01*
X129976969Y-84055815D01*
X130178532Y-83939442D01*
X130363181Y-83797756D01*
X130527756Y-83633181D01*
X130669442Y-83448532D01*
X130785815Y-83246969D01*
X130874882Y-83031940D01*
X130935121Y-82807126D01*
X130965500Y-82576372D01*
X130965500Y-82343628D01*
X130935121Y-82112874D01*
X130874882Y-81888060D01*
X130874879Y-81888052D01*
X130785819Y-81673039D01*
X130785811Y-81673023D01*
X130669446Y-81471475D01*
X130669442Y-81471468D01*
X130527756Y-81286819D01*
X130527751Y-81286813D01*
X130363186Y-81122248D01*
X130363179Y-81122242D01*
X130178540Y-80980564D01*
X130178538Y-80980562D01*
X130178532Y-80980558D01*
X130178527Y-80980555D01*
X130178524Y-80980553D01*
X129976976Y-80864188D01*
X129976960Y-80864180D01*
X129761947Y-80775120D01*
X129537122Y-80714878D01*
X129306382Y-80684501D01*
X129306377Y-80684500D01*
X129306372Y-80684500D01*
X129073628Y-80684500D01*
X129073622Y-80684500D01*
X129073617Y-80684501D01*
X128842877Y-80714878D01*
X128618052Y-80775120D01*
X128403039Y-80864180D01*
X128403023Y-80864188D01*
X128201475Y-80980553D01*
X128201459Y-80980564D01*
X128016820Y-81122242D01*
X128016813Y-81122248D01*
X127852248Y-81286813D01*
X127852242Y-81286820D01*
X127710564Y-81471459D01*
X127710553Y-81471475D01*
X127594188Y-81673023D01*
X127594180Y-81673039D01*
X127505120Y-81888052D01*
X127444878Y-82112877D01*
X127414501Y-82343617D01*
X127414500Y-82343634D01*
X127414500Y-82576365D01*
X127414501Y-82576382D01*
X127444878Y-82807122D01*
X127505120Y-83031947D01*
X127594180Y-83246960D01*
X127594188Y-83246976D01*
X127710553Y-83448524D01*
X127710564Y-83448540D01*
X127852242Y-83633179D01*
X127852248Y-83633186D01*
X127885636Y-83666574D01*
X127919121Y-83727897D01*
X127914137Y-83797589D01*
X127872265Y-83853522D01*
X127817353Y-83876728D01*
X127656443Y-83902214D01*
X127487960Y-83956956D01*
X127487957Y-83956957D01*
X127330109Y-84037386D01*
X127248338Y-84096796D01*
X127186786Y-84141517D01*
X127186784Y-84141519D01*
X127186783Y-84141519D01*
X127061519Y-84266783D01*
X127061519Y-84266784D01*
X127061517Y-84266786D01*
X127016796Y-84328338D01*
X126957386Y-84410109D01*
X126876957Y-84567957D01*
X126876956Y-84567960D01*
X126822214Y-84736443D01*
X126794500Y-84911421D01*
X73205500Y-84911421D01*
X73177786Y-84736445D01*
X73123042Y-84567958D01*
X73123042Y-84567957D01*
X73042613Y-84410109D01*
X73039618Y-84405987D01*
X72938483Y-84266786D01*
X72813214Y-84141517D01*
X72669890Y-84037386D01*
X72512042Y-83956957D01*
X72512039Y-83956956D01*
X72343556Y-83902214D01*
X72256067Y-83888357D01*
X72168579Y-83874500D01*
X71991421Y-83874500D01*
X71933095Y-83883738D01*
X71816443Y-83902214D01*
X71647960Y-83956956D01*
X71647957Y-83956957D01*
X71490109Y-84037386D01*
X71408338Y-84096796D01*
X71346786Y-84141517D01*
X71346784Y-84141519D01*
X71346783Y-84141519D01*
X71221519Y-84266783D01*
X71221519Y-84266784D01*
X71221517Y-84266786D01*
X71176796Y-84328338D01*
X71117386Y-84410109D01*
X71036957Y-84567957D01*
X71036956Y-84567960D01*
X70982214Y-84736443D01*
X70954500Y-84911421D01*
X69250500Y-84911421D01*
X69250500Y-84852494D01*
X69211993Y-84560007D01*
X69135639Y-84275048D01*
X69134615Y-84272577D01*
X69080329Y-84141519D01*
X69022743Y-84002493D01*
X68996453Y-83956958D01*
X68875238Y-83747006D01*
X68695647Y-83512959D01*
X68695641Y-83512952D01*
X68487047Y-83304358D01*
X68487040Y-83304352D01*
X68252993Y-83124761D01*
X67997510Y-82977258D01*
X67997500Y-82977254D01*
X67724961Y-82864364D01*
X67724954Y-82864362D01*
X67724952Y-82864361D01*
X67439993Y-82788007D01*
X67391113Y-82781571D01*
X67147513Y-82749500D01*
X67147506Y-82749500D01*
X66852494Y-82749500D01*
X66852486Y-82749500D01*
X66574085Y-82786153D01*
X66560007Y-82788007D01*
X66275048Y-82864361D01*
X66275038Y-82864364D01*
X66002499Y-82977254D01*
X66002489Y-82977258D01*
X65747006Y-83124761D01*
X65512959Y-83304352D01*
X65512952Y-83304358D01*
X65304358Y-83512952D01*
X65304352Y-83512959D01*
X65124761Y-83747006D01*
X64977258Y-84002489D01*
X64977254Y-84002499D01*
X64864364Y-84275038D01*
X64864361Y-84275048D01*
X64828172Y-84410110D01*
X64788008Y-84560004D01*
X64788006Y-84560015D01*
X64749500Y-84852486D01*
X63036165Y-84852486D01*
X63017786Y-84736445D01*
X62963042Y-84567958D01*
X62963040Y-84567952D01*
X62880513Y-84405987D01*
X62867616Y-84337317D01*
X62893892Y-84272577D01*
X62950998Y-84232319D01*
X63007181Y-84226752D01*
X63066564Y-84234570D01*
X63073612Y-84235498D01*
X63073628Y-84235500D01*
X63073635Y-84235500D01*
X63306365Y-84235500D01*
X63306372Y-84235500D01*
X63537126Y-84205121D01*
X63761940Y-84144882D01*
X63819953Y-84120852D01*
X63976960Y-84055819D01*
X63976963Y-84055817D01*
X63976969Y-84055815D01*
X64178532Y-83939442D01*
X64363181Y-83797756D01*
X64527756Y-83633181D01*
X64669442Y-83448532D01*
X64785815Y-83246969D01*
X64874882Y-83031940D01*
X64935121Y-82807126D01*
X64965500Y-82576372D01*
X64965500Y-82343628D01*
X64935121Y-82112874D01*
X64874882Y-81888060D01*
X64874879Y-81888052D01*
X64785819Y-81673039D01*
X64785811Y-81673023D01*
X64669446Y-81471475D01*
X64669442Y-81471468D01*
X64527756Y-81286819D01*
X64527751Y-81286813D01*
X64363186Y-81122248D01*
X64363179Y-81122242D01*
X64178540Y-80980564D01*
X64178538Y-80980562D01*
X64178532Y-80980558D01*
X64178527Y-80980555D01*
X64178524Y-80980553D01*
X63976976Y-80864188D01*
X63976960Y-80864180D01*
X63761947Y-80775120D01*
X63537122Y-80714878D01*
X63306382Y-80684501D01*
X63306377Y-80684500D01*
X63306372Y-80684500D01*
X63073628Y-80684500D01*
X63073622Y-80684500D01*
X63073617Y-80684501D01*
X62842877Y-80714878D01*
X62618052Y-80775120D01*
X62403039Y-80864180D01*
X62403023Y-80864188D01*
X62201475Y-80980553D01*
X62201459Y-80980564D01*
X62016820Y-81122242D01*
X62016813Y-81122248D01*
X61852248Y-81286813D01*
X61852242Y-81286820D01*
X61710564Y-81471459D01*
X61710553Y-81471475D01*
X61594188Y-81673023D01*
X61594180Y-81673039D01*
X61505120Y-81888052D01*
X61444878Y-82112877D01*
X61414501Y-82343617D01*
X61414500Y-82343634D01*
X61414500Y-82576365D01*
X61414501Y-82576382D01*
X61444878Y-82807122D01*
X61505120Y-83031947D01*
X61594180Y-83246960D01*
X61594188Y-83246976D01*
X61710553Y-83448524D01*
X61710564Y-83448540D01*
X61852242Y-83633179D01*
X61852248Y-83633186D01*
X61885636Y-83666574D01*
X61919121Y-83727897D01*
X61914137Y-83797589D01*
X61872265Y-83853522D01*
X61817353Y-83876728D01*
X61656443Y-83902214D01*
X61487960Y-83956956D01*
X61487957Y-83956957D01*
X61330109Y-84037386D01*
X61248338Y-84096796D01*
X61186786Y-84141517D01*
X61186784Y-84141519D01*
X61186783Y-84141519D01*
X61061519Y-84266783D01*
X61061519Y-84266784D01*
X61061517Y-84266786D01*
X61016796Y-84328338D01*
X60957386Y-84410109D01*
X60876957Y-84567957D01*
X60876956Y-84567960D01*
X60822214Y-84736443D01*
X60794500Y-84911421D01*
X25048933Y-84911421D01*
X18650468Y-75770756D01*
X29749500Y-75770756D01*
X29749500Y-76229243D01*
X29789460Y-76685985D01*
X29789460Y-76685987D01*
X29869072Y-77137489D01*
X29869074Y-77137499D01*
X29987739Y-77580360D01*
X29987742Y-77580370D01*
X29987743Y-77580371D01*
X30144546Y-78011189D01*
X30144550Y-78011199D01*
X30338308Y-78426711D01*
X30338316Y-78426727D01*
X30346305Y-78440564D01*
X30567555Y-78823779D01*
X30567559Y-78823785D01*
X30567566Y-78823796D01*
X30830530Y-79199348D01*
X31043544Y-79453208D01*
X31125237Y-79550566D01*
X31449434Y-79874763D01*
X31595469Y-79997301D01*
X31800651Y-80169469D01*
X32176203Y-80432433D01*
X32176210Y-80432437D01*
X32176221Y-80432445D01*
X32573279Y-80661687D01*
X32622204Y-80684501D01*
X32988800Y-80855449D01*
X32988810Y-80855453D01*
X33188060Y-80927973D01*
X33419640Y-81012261D01*
X33862501Y-81130926D01*
X34314019Y-81210540D01*
X34770756Y-81250499D01*
X34770757Y-81250500D01*
X34770758Y-81250500D01*
X35229243Y-81250500D01*
X35229243Y-81250499D01*
X35685981Y-81210540D01*
X36137499Y-81130926D01*
X36580360Y-81012261D01*
X36987189Y-80864188D01*
X37011189Y-80855453D01*
X37011199Y-80855449D01*
X37183468Y-80775118D01*
X37426721Y-80661687D01*
X37823779Y-80432445D01*
X38199347Y-80169470D01*
X38550566Y-79874763D01*
X38621695Y-79803634D01*
X67764500Y-79803634D01*
X67764500Y-80036365D01*
X67764501Y-80036382D01*
X67794878Y-80267122D01*
X67855120Y-80491947D01*
X67944180Y-80706960D01*
X67944188Y-80706976D01*
X68060553Y-80908524D01*
X68060564Y-80908540D01*
X68202242Y-81093179D01*
X68202248Y-81093186D01*
X68366813Y-81257751D01*
X68366820Y-81257757D01*
X68404696Y-81286820D01*
X68551468Y-81399442D01*
X68551475Y-81399446D01*
X68753023Y-81515811D01*
X68753039Y-81515819D01*
X68968052Y-81604879D01*
X68968054Y-81604879D01*
X68968060Y-81604882D01*
X69192874Y-81665121D01*
X69423628Y-81695500D01*
X69423635Y-81695500D01*
X69656365Y-81695500D01*
X69656372Y-81695500D01*
X69887126Y-81665121D01*
X70111940Y-81604882D01*
X70169953Y-81580852D01*
X70326960Y-81515819D01*
X70326963Y-81515817D01*
X70326969Y-81515815D01*
X70528532Y-81399442D01*
X70713181Y-81257756D01*
X70877756Y-81093181D01*
X71019442Y-80908532D01*
X71135815Y-80706969D01*
X71145122Y-80684501D01*
X71224879Y-80491947D01*
X71224878Y-80491947D01*
X71224882Y-80491940D01*
X71285121Y-80267126D01*
X71315500Y-80036372D01*
X71315500Y-79803634D01*
X133764500Y-79803634D01*
X133764500Y-80036365D01*
X133764501Y-80036382D01*
X133794878Y-80267122D01*
X133855120Y-80491947D01*
X133944180Y-80706960D01*
X133944188Y-80706976D01*
X134060553Y-80908524D01*
X134060564Y-80908540D01*
X134202242Y-81093179D01*
X134202248Y-81093186D01*
X134366813Y-81257751D01*
X134366820Y-81257757D01*
X134404696Y-81286820D01*
X134551468Y-81399442D01*
X134551475Y-81399446D01*
X134753023Y-81515811D01*
X134753039Y-81515819D01*
X134968052Y-81604879D01*
X134968054Y-81604879D01*
X134968060Y-81604882D01*
X135192874Y-81665121D01*
X135423628Y-81695500D01*
X135423635Y-81695500D01*
X135656365Y-81695500D01*
X135656372Y-81695500D01*
X135887126Y-81665121D01*
X136111940Y-81604882D01*
X136169953Y-81580852D01*
X136326960Y-81515819D01*
X136326963Y-81515817D01*
X136326969Y-81515815D01*
X136528532Y-81399442D01*
X136713181Y-81257756D01*
X136877756Y-81093181D01*
X137019442Y-80908532D01*
X137135815Y-80706969D01*
X137145122Y-80684501D01*
X137224879Y-80491947D01*
X137224878Y-80491947D01*
X137224882Y-80491940D01*
X137285121Y-80267126D01*
X137315500Y-80036372D01*
X137315500Y-79803628D01*
X137285121Y-79572874D01*
X137224882Y-79348060D01*
X137224879Y-79348052D01*
X137135819Y-79133039D01*
X137135811Y-79133023D01*
X137019446Y-78931475D01*
X137019442Y-78931468D01*
X136978647Y-78878303D01*
X136877757Y-78746820D01*
X136877751Y-78746813D01*
X136713186Y-78582248D01*
X136713179Y-78582242D01*
X136528540Y-78440564D01*
X136528538Y-78440562D01*
X136528532Y-78440558D01*
X136528527Y-78440555D01*
X136528524Y-78440553D01*
X136326976Y-78324188D01*
X136326960Y-78324180D01*
X136111947Y-78235120D01*
X135887122Y-78174878D01*
X135656382Y-78144501D01*
X135656377Y-78144500D01*
X135656372Y-78144500D01*
X135423628Y-78144500D01*
X135423622Y-78144500D01*
X135423617Y-78144501D01*
X135192877Y-78174878D01*
X134968052Y-78235120D01*
X134753039Y-78324180D01*
X134753023Y-78324188D01*
X134551475Y-78440553D01*
X134551459Y-78440564D01*
X134366820Y-78582242D01*
X134366813Y-78582248D01*
X134202248Y-78746813D01*
X134202242Y-78746820D01*
X134060564Y-78931459D01*
X134060553Y-78931475D01*
X133944188Y-79133023D01*
X133944180Y-79133039D01*
X133855120Y-79348052D01*
X133794878Y-79572877D01*
X133764501Y-79803617D01*
X133764500Y-79803634D01*
X71315500Y-79803634D01*
X71315500Y-79803628D01*
X71285121Y-79572874D01*
X71224882Y-79348060D01*
X71224879Y-79348052D01*
X71135819Y-79133039D01*
X71135811Y-79133023D01*
X71019446Y-78931475D01*
X71019442Y-78931468D01*
X70978647Y-78878303D01*
X70877757Y-78746820D01*
X70877751Y-78746813D01*
X70713186Y-78582248D01*
X70713179Y-78582242D01*
X70528540Y-78440564D01*
X70528538Y-78440562D01*
X70528532Y-78440558D01*
X70528527Y-78440555D01*
X70528524Y-78440553D01*
X70326976Y-78324188D01*
X70326960Y-78324180D01*
X70111947Y-78235120D01*
X69887122Y-78174878D01*
X69656382Y-78144501D01*
X69656377Y-78144500D01*
X69656372Y-78144500D01*
X69423628Y-78144500D01*
X69423622Y-78144500D01*
X69423617Y-78144501D01*
X69192877Y-78174878D01*
X68968052Y-78235120D01*
X68753039Y-78324180D01*
X68753023Y-78324188D01*
X68551475Y-78440553D01*
X68551459Y-78440564D01*
X68366820Y-78582242D01*
X68366813Y-78582248D01*
X68202248Y-78746813D01*
X68202242Y-78746820D01*
X68060564Y-78931459D01*
X68060553Y-78931475D01*
X67944188Y-79133023D01*
X67944180Y-79133039D01*
X67855120Y-79348052D01*
X67794878Y-79572877D01*
X67764501Y-79803617D01*
X67764500Y-79803634D01*
X38621695Y-79803634D01*
X38874763Y-79550566D01*
X39169470Y-79199347D01*
X39432445Y-78823779D01*
X39661687Y-78426721D01*
X39855451Y-78011194D01*
X40012261Y-77580360D01*
X40130926Y-77137499D01*
X40210540Y-76685981D01*
X40250500Y-76229242D01*
X40250500Y-75770758D01*
X40250500Y-75770756D01*
X159749500Y-75770756D01*
X159749500Y-76229243D01*
X159789460Y-76685985D01*
X159789460Y-76685987D01*
X159869072Y-77137489D01*
X159869074Y-77137499D01*
X159987739Y-77580360D01*
X159987742Y-77580370D01*
X159987743Y-77580371D01*
X160144546Y-78011189D01*
X160144550Y-78011199D01*
X160338308Y-78426711D01*
X160338316Y-78426727D01*
X160346305Y-78440564D01*
X160567555Y-78823779D01*
X160567559Y-78823785D01*
X160567566Y-78823796D01*
X160830530Y-79199348D01*
X161043544Y-79453208D01*
X161125237Y-79550566D01*
X161449434Y-79874763D01*
X161595469Y-79997301D01*
X161800651Y-80169469D01*
X162176203Y-80432433D01*
X162176210Y-80432437D01*
X162176221Y-80432445D01*
X162573279Y-80661687D01*
X162622204Y-80684501D01*
X162988800Y-80855449D01*
X162988810Y-80855453D01*
X163188060Y-80927973D01*
X163419640Y-81012261D01*
X163862501Y-81130926D01*
X164314019Y-81210540D01*
X164770756Y-81250499D01*
X164770757Y-81250500D01*
X164770758Y-81250500D01*
X165229243Y-81250500D01*
X165229243Y-81250499D01*
X165685981Y-81210540D01*
X166137499Y-81130926D01*
X166580360Y-81012261D01*
X166987189Y-80864188D01*
X167011189Y-80855453D01*
X167011199Y-80855449D01*
X167183468Y-80775118D01*
X167426721Y-80661687D01*
X167823779Y-80432445D01*
X168199347Y-80169470D01*
X168550566Y-79874763D01*
X168874763Y-79550566D01*
X169169470Y-79199347D01*
X169432445Y-78823779D01*
X169661687Y-78426721D01*
X169855451Y-78011194D01*
X170012261Y-77580360D01*
X170130926Y-77137499D01*
X170210540Y-76685981D01*
X170250500Y-76229242D01*
X170250500Y-75770758D01*
X170210540Y-75314019D01*
X170130926Y-74862501D01*
X170012261Y-74419640D01*
X169927973Y-74188060D01*
X169855453Y-73988810D01*
X169855449Y-73988800D01*
X169661691Y-73573288D01*
X169661683Y-73573272D01*
X169647288Y-73548340D01*
X169432445Y-73176221D01*
X169432437Y-73176210D01*
X169432433Y-73176203D01*
X169169469Y-72800651D01*
X168874760Y-72449431D01*
X168550568Y-72125239D01*
X168199348Y-71830530D01*
X167823796Y-71567566D01*
X167823785Y-71567559D01*
X167823779Y-71567555D01*
X167705810Y-71499445D01*
X167426727Y-71338316D01*
X167426711Y-71338308D01*
X167011199Y-71144550D01*
X167011189Y-71144546D01*
X166580371Y-70987743D01*
X166580370Y-70987742D01*
X166580360Y-70987739D01*
X166256165Y-70900870D01*
X166137500Y-70869074D01*
X166137489Y-70869072D01*
X165685986Y-70789460D01*
X165229243Y-70749500D01*
X165229242Y-70749500D01*
X164770758Y-70749500D01*
X164770757Y-70749500D01*
X164314014Y-70789460D01*
X164314012Y-70789460D01*
X163862510Y-70869072D01*
X163862499Y-70869074D01*
X163625169Y-70932667D01*
X163419640Y-70987739D01*
X163419633Y-70987741D01*
X163419628Y-70987743D01*
X162988810Y-71144546D01*
X162988800Y-71144550D01*
X162573288Y-71338308D01*
X162573272Y-71338316D01*
X162176229Y-71567550D01*
X162176203Y-71567566D01*
X161800651Y-71830530D01*
X161449431Y-72125239D01*
X161125239Y-72449431D01*
X160830530Y-72800651D01*
X160567566Y-73176203D01*
X160567550Y-73176229D01*
X160338316Y-73573272D01*
X160338308Y-73573288D01*
X160144550Y-73988800D01*
X160144546Y-73988810D01*
X159987743Y-74419628D01*
X159987740Y-74419638D01*
X159869074Y-74862499D01*
X159869072Y-74862510D01*
X159789460Y-75314012D01*
X159789460Y-75314014D01*
X159749500Y-75770756D01*
X40250500Y-75770756D01*
X40210540Y-75314019D01*
X40130926Y-74862501D01*
X40012261Y-74419640D01*
X39927973Y-74188060D01*
X39855453Y-73988810D01*
X39855449Y-73988800D01*
X39661691Y-73573288D01*
X39661683Y-73573272D01*
X39647288Y-73548340D01*
X39432445Y-73176221D01*
X39432437Y-73176210D01*
X39432433Y-73176203D01*
X39169469Y-72800651D01*
X38874760Y-72449431D01*
X38550568Y-72125239D01*
X38199348Y-71830530D01*
X37823796Y-71567566D01*
X37823785Y-71567559D01*
X37823779Y-71567555D01*
X37705810Y-71499445D01*
X37426727Y-71338316D01*
X37426711Y-71338308D01*
X37011199Y-71144550D01*
X37011189Y-71144546D01*
X36580371Y-70987743D01*
X36580370Y-70987742D01*
X36580360Y-70987739D01*
X36256165Y-70900870D01*
X36137500Y-70869074D01*
X36137489Y-70869072D01*
X35685986Y-70789460D01*
X35229243Y-70749500D01*
X35229242Y-70749500D01*
X34770758Y-70749500D01*
X34770757Y-70749500D01*
X34314014Y-70789460D01*
X34314012Y-70789460D01*
X33862510Y-70869072D01*
X33862499Y-70869074D01*
X33625169Y-70932667D01*
X33419640Y-70987739D01*
X33419633Y-70987741D01*
X33419628Y-70987743D01*
X32988810Y-71144546D01*
X32988800Y-71144550D01*
X32573288Y-71338308D01*
X32573272Y-71338316D01*
X32176229Y-71567550D01*
X32176203Y-71567566D01*
X31800651Y-71830530D01*
X31449431Y-72125239D01*
X31125239Y-72449431D01*
X30830530Y-72800651D01*
X30567566Y-73176203D01*
X30567550Y-73176229D01*
X30338316Y-73573272D01*
X30338308Y-73573288D01*
X30144550Y-73988800D01*
X30144546Y-73988810D01*
X29987743Y-74419628D01*
X29987740Y-74419638D01*
X29869074Y-74862499D01*
X29869072Y-74862510D01*
X29789460Y-75314012D01*
X29789460Y-75314014D01*
X29749500Y-75770756D01*
X18650468Y-75770756D01*
X10950469Y-64770756D01*
X79749500Y-64770756D01*
X79749500Y-65229243D01*
X79789460Y-65685985D01*
X79789460Y-65685987D01*
X79869072Y-66137489D01*
X79869074Y-66137499D01*
X79987739Y-66580360D01*
X79987742Y-66580370D01*
X79987743Y-66580371D01*
X80144546Y-67011189D01*
X80144550Y-67011199D01*
X80338308Y-67426711D01*
X80338313Y-67426721D01*
X80567555Y-67823779D01*
X80567559Y-67823785D01*
X80567566Y-67823796D01*
X80830530Y-68199348D01*
X81043544Y-68453208D01*
X81125237Y-68550566D01*
X81449434Y-68874763D01*
X81595469Y-68997301D01*
X81800651Y-69169469D01*
X82176203Y-69432433D01*
X82176210Y-69432437D01*
X82176221Y-69432445D01*
X82573279Y-69661687D01*
X82573288Y-69661691D01*
X82988800Y-69855449D01*
X82988810Y-69855453D01*
X83188060Y-69927973D01*
X83419640Y-70012261D01*
X83862501Y-70130926D01*
X84314019Y-70210540D01*
X84770756Y-70250499D01*
X84770757Y-70250500D01*
X84770758Y-70250500D01*
X85229243Y-70250500D01*
X85229243Y-70250499D01*
X85685981Y-70210540D01*
X86137499Y-70130926D01*
X86580360Y-70012261D01*
X87011194Y-69855451D01*
X87011199Y-69855449D01*
X87149703Y-69790863D01*
X87426721Y-69661687D01*
X87823779Y-69432445D01*
X88199347Y-69169470D01*
X88550566Y-68874763D01*
X88874763Y-68550566D01*
X89169470Y-68199347D01*
X89432445Y-67823779D01*
X89661687Y-67426721D01*
X89855451Y-67011194D01*
X90012261Y-66580360D01*
X90130926Y-66137499D01*
X90210540Y-65685981D01*
X90250500Y-65229242D01*
X90250500Y-64770758D01*
X90250500Y-64770756D01*
X109749500Y-64770756D01*
X109749500Y-65229243D01*
X109789460Y-65685985D01*
X109789460Y-65685987D01*
X109869072Y-66137489D01*
X109869074Y-66137499D01*
X109987739Y-66580360D01*
X109987742Y-66580370D01*
X109987743Y-66580371D01*
X110144546Y-67011189D01*
X110144550Y-67011199D01*
X110338308Y-67426711D01*
X110338313Y-67426721D01*
X110567555Y-67823779D01*
X110567559Y-67823785D01*
X110567566Y-67823796D01*
X110830530Y-68199348D01*
X111043544Y-68453208D01*
X111125237Y-68550566D01*
X111449434Y-68874763D01*
X111595469Y-68997301D01*
X111800651Y-69169469D01*
X112176203Y-69432433D01*
X112176210Y-69432437D01*
X112176221Y-69432445D01*
X112573279Y-69661687D01*
X112573288Y-69661691D01*
X112988800Y-69855449D01*
X112988810Y-69855453D01*
X113188060Y-69927973D01*
X113419640Y-70012261D01*
X113862501Y-70130926D01*
X114314019Y-70210540D01*
X114770756Y-70250499D01*
X114770757Y-70250500D01*
X114770758Y-70250500D01*
X115229243Y-70250500D01*
X115229243Y-70250499D01*
X115685981Y-70210540D01*
X116137499Y-70130926D01*
X116580360Y-70012261D01*
X117011194Y-69855451D01*
X117011199Y-69855449D01*
X117149703Y-69790863D01*
X117426721Y-69661687D01*
X117823779Y-69432445D01*
X118199347Y-69169470D01*
X118550566Y-68874763D01*
X118874763Y-68550566D01*
X119169470Y-68199347D01*
X119432445Y-67823779D01*
X119661687Y-67426721D01*
X119855451Y-67011194D01*
X120012261Y-66580360D01*
X120130926Y-66137499D01*
X120210540Y-65685981D01*
X120250500Y-65229242D01*
X120250500Y-64770758D01*
X120210540Y-64314019D01*
X120130926Y-63862501D01*
X120012261Y-63419640D01*
X119927973Y-63188060D01*
X119855453Y-62988810D01*
X119855449Y-62988800D01*
X119661691Y-62573288D01*
X119661683Y-62573272D01*
X119647288Y-62548340D01*
X119432445Y-62176221D01*
X119432437Y-62176210D01*
X119432433Y-62176203D01*
X119169469Y-61800651D01*
X118874760Y-61449431D01*
X118550568Y-61125239D01*
X118199348Y-60830530D01*
X117823796Y-60567566D01*
X117823785Y-60567559D01*
X117823779Y-60567555D01*
X117705810Y-60499445D01*
X117426727Y-60338316D01*
X117426711Y-60338308D01*
X117011199Y-60144550D01*
X117011189Y-60144546D01*
X116580371Y-59987743D01*
X116580370Y-59987742D01*
X116580360Y-59987739D01*
X116256165Y-59900870D01*
X116137500Y-59869074D01*
X116137489Y-59869072D01*
X115685986Y-59789460D01*
X115229243Y-59749500D01*
X115229242Y-59749500D01*
X114770758Y-59749500D01*
X114770757Y-59749500D01*
X114314014Y-59789460D01*
X114314012Y-59789460D01*
X113862510Y-59869072D01*
X113862499Y-59869074D01*
X113625169Y-59932667D01*
X113419640Y-59987739D01*
X113419633Y-59987741D01*
X113419628Y-59987743D01*
X112988810Y-60144546D01*
X112988800Y-60144550D01*
X112573288Y-60338308D01*
X112573272Y-60338316D01*
X112176229Y-60567550D01*
X112176203Y-60567566D01*
X111800651Y-60830530D01*
X111449431Y-61125239D01*
X111125239Y-61449431D01*
X110830530Y-61800651D01*
X110567566Y-62176203D01*
X110567550Y-62176229D01*
X110338316Y-62573272D01*
X110338308Y-62573288D01*
X110144550Y-62988800D01*
X110144546Y-62988810D01*
X109987743Y-63419628D01*
X109987740Y-63419638D01*
X109869074Y-63862499D01*
X109869072Y-63862510D01*
X109789460Y-64314012D01*
X109789460Y-64314014D01*
X109749500Y-64770756D01*
X90250500Y-64770756D01*
X90210540Y-64314019D01*
X90130926Y-63862501D01*
X90012261Y-63419640D01*
X89927973Y-63188060D01*
X89855453Y-62988810D01*
X89855449Y-62988800D01*
X89661691Y-62573288D01*
X89661683Y-62573272D01*
X89647288Y-62548340D01*
X89432445Y-62176221D01*
X89432437Y-62176210D01*
X89432433Y-62176203D01*
X89169469Y-61800651D01*
X88874760Y-61449431D01*
X88550568Y-61125239D01*
X88199348Y-60830530D01*
X87823796Y-60567566D01*
X87823785Y-60567559D01*
X87823779Y-60567555D01*
X87705810Y-60499445D01*
X87426727Y-60338316D01*
X87426711Y-60338308D01*
X87011199Y-60144550D01*
X87011189Y-60144546D01*
X86580371Y-59987743D01*
X86580370Y-59987742D01*
X86580360Y-59987739D01*
X86256165Y-59900870D01*
X86137500Y-59869074D01*
X86137489Y-59869072D01*
X85685986Y-59789460D01*
X85229243Y-59749500D01*
X85229242Y-59749500D01*
X84770758Y-59749500D01*
X84770757Y-59749500D01*
X84314014Y-59789460D01*
X84314012Y-59789460D01*
X83862510Y-59869072D01*
X83862499Y-59869074D01*
X83625169Y-59932667D01*
X83419640Y-59987739D01*
X83419633Y-59987741D01*
X83419628Y-59987743D01*
X82988810Y-60144546D01*
X82988800Y-60144550D01*
X82573288Y-60338308D01*
X82573272Y-60338316D01*
X82176229Y-60567550D01*
X82176203Y-60567566D01*
X81800651Y-60830530D01*
X81449431Y-61125239D01*
X81125239Y-61449431D01*
X80830530Y-61800651D01*
X80567566Y-62176203D01*
X80567550Y-62176229D01*
X80338316Y-62573272D01*
X80338308Y-62573288D01*
X80144550Y-62988800D01*
X80144546Y-62988810D01*
X79987743Y-63419628D01*
X79987740Y-63419638D01*
X79869074Y-63862499D01*
X79869072Y-63862510D01*
X79789460Y-64314012D01*
X79789460Y-64314014D01*
X79749500Y-64770756D01*
X10950469Y-64770756D01*
X4202588Y-55130926D01*
X2146773Y-52194047D01*
X2140370Y-52183886D01*
X1848742Y-51667175D01*
X1845714Y-51661467D01*
X1574386Y-51116176D01*
X1571659Y-51110318D01*
X1329098Y-50551617D01*
X1326680Y-50545625D01*
X1116131Y-49981950D01*
X1113549Y-49975038D01*
X1111454Y-49968947D01*
X1048979Y-49770757D01*
X1048979Y-49770756D01*
X14749500Y-49770756D01*
X14749500Y-50229243D01*
X14789460Y-50685985D01*
X14789460Y-50685987D01*
X14865313Y-51116168D01*
X14869074Y-51137499D01*
X14987739Y-51580360D01*
X14987742Y-51580370D01*
X14987743Y-51580371D01*
X15144546Y-52011189D01*
X15144550Y-52011199D01*
X15338308Y-52426711D01*
X15338313Y-52426721D01*
X15567555Y-52823779D01*
X15567559Y-52823785D01*
X15567566Y-52823796D01*
X15830530Y-53199348D01*
X16043544Y-53453208D01*
X16125237Y-53550566D01*
X16449434Y-53874763D01*
X16595469Y-53997301D01*
X16800651Y-54169469D01*
X17176203Y-54432433D01*
X17176210Y-54432437D01*
X17176221Y-54432445D01*
X17573279Y-54661687D01*
X17573288Y-54661691D01*
X17988800Y-54855449D01*
X17988810Y-54855453D01*
X18188060Y-54927973D01*
X18419640Y-55012261D01*
X18862501Y-55130926D01*
X19314019Y-55210540D01*
X19770756Y-55250499D01*
X19770757Y-55250500D01*
X19770758Y-55250500D01*
X20229243Y-55250500D01*
X20229243Y-55250499D01*
X20685981Y-55210540D01*
X21137499Y-55130926D01*
X21580360Y-55012261D01*
X22011194Y-54855451D01*
X22011199Y-54855449D01*
X22149703Y-54790863D01*
X22426721Y-54661687D01*
X22823779Y-54432445D01*
X23199347Y-54169470D01*
X23550566Y-53874763D01*
X23874763Y-53550566D01*
X24169470Y-53199347D01*
X24432445Y-52823779D01*
X24661687Y-52426721D01*
X24855451Y-52011194D01*
X25012261Y-51580360D01*
X25130926Y-51137499D01*
X25210540Y-50685981D01*
X25250500Y-50229242D01*
X25250500Y-49770758D01*
X25250500Y-49770756D01*
X174749500Y-49770756D01*
X174749500Y-50229243D01*
X174789460Y-50685985D01*
X174789460Y-50685987D01*
X174865313Y-51116168D01*
X174869074Y-51137499D01*
X174987739Y-51580360D01*
X174987742Y-51580370D01*
X174987743Y-51580371D01*
X175144546Y-52011189D01*
X175144550Y-52011199D01*
X175338308Y-52426711D01*
X175338313Y-52426721D01*
X175567555Y-52823779D01*
X175567559Y-52823785D01*
X175567566Y-52823796D01*
X175830530Y-53199348D01*
X176043544Y-53453208D01*
X176125237Y-53550566D01*
X176449434Y-53874763D01*
X176595469Y-53997301D01*
X176800651Y-54169469D01*
X177176203Y-54432433D01*
X177176210Y-54432437D01*
X177176221Y-54432445D01*
X177573279Y-54661687D01*
X177573288Y-54661691D01*
X177988800Y-54855449D01*
X177988810Y-54855453D01*
X178188060Y-54927973D01*
X178419640Y-55012261D01*
X178862501Y-55130926D01*
X179314019Y-55210540D01*
X179770756Y-55250499D01*
X179770757Y-55250500D01*
X179770758Y-55250500D01*
X180229243Y-55250500D01*
X180229243Y-55250499D01*
X180685981Y-55210540D01*
X181137499Y-55130926D01*
X181580360Y-55012261D01*
X182011194Y-54855451D01*
X182011199Y-54855449D01*
X182149703Y-54790863D01*
X182426721Y-54661687D01*
X182823779Y-54432445D01*
X183199347Y-54169470D01*
X183550566Y-53874763D01*
X183874763Y-53550566D01*
X184169470Y-53199347D01*
X184432445Y-52823779D01*
X184661687Y-52426721D01*
X184855451Y-52011194D01*
X185012261Y-51580360D01*
X185130926Y-51137499D01*
X185210540Y-50685981D01*
X185250500Y-50229242D01*
X185250500Y-49770758D01*
X185210540Y-49314019D01*
X185130926Y-48862501D01*
X185012261Y-48419640D01*
X184870966Y-48031432D01*
X184855453Y-47988810D01*
X184855449Y-47988800D01*
X184665010Y-47580405D01*
X184661687Y-47573279D01*
X184432445Y-47176221D01*
X184432437Y-47176210D01*
X184432433Y-47176203D01*
X184169469Y-46800651D01*
X183874760Y-46449431D01*
X183550568Y-46125239D01*
X183199348Y-45830530D01*
X182823796Y-45567566D01*
X182823785Y-45567559D01*
X182823779Y-45567555D01*
X182705810Y-45499445D01*
X182426727Y-45338316D01*
X182426711Y-45338308D01*
X182011199Y-45144550D01*
X182011189Y-45144546D01*
X181580371Y-44987743D01*
X181580370Y-44987742D01*
X181580360Y-44987739D01*
X181256165Y-44900870D01*
X181137500Y-44869074D01*
X181137489Y-44869072D01*
X180685986Y-44789460D01*
X180229243Y-44749500D01*
X180229242Y-44749500D01*
X179770758Y-44749500D01*
X179770757Y-44749500D01*
X179314014Y-44789460D01*
X179314012Y-44789460D01*
X178862510Y-44869072D01*
X178862499Y-44869074D01*
X178625169Y-44932667D01*
X178419640Y-44987739D01*
X178419633Y-44987741D01*
X178419628Y-44987743D01*
X177988810Y-45144546D01*
X177988800Y-45144550D01*
X177573288Y-45338308D01*
X177573272Y-45338316D01*
X177176229Y-45567550D01*
X177176203Y-45567566D01*
X176800651Y-45830530D01*
X176449431Y-46125239D01*
X176125239Y-46449431D01*
X175830530Y-46800651D01*
X175567566Y-47176203D01*
X175567550Y-47176229D01*
X175338316Y-47573272D01*
X175338308Y-47573288D01*
X175144550Y-47988800D01*
X175144546Y-47988810D01*
X174987743Y-48419628D01*
X174987740Y-48419638D01*
X174869074Y-48862499D01*
X174869072Y-48862510D01*
X174789460Y-49314012D01*
X174789460Y-49314014D01*
X174749500Y-49770756D01*
X25250500Y-49770756D01*
X25210540Y-49314019D01*
X25130926Y-48862501D01*
X25012261Y-48419640D01*
X24870966Y-48031432D01*
X24855453Y-47988810D01*
X24855449Y-47988800D01*
X24665010Y-47580405D01*
X24661687Y-47573279D01*
X24432445Y-47176221D01*
X24432437Y-47176210D01*
X24432433Y-47176203D01*
X24169469Y-46800651D01*
X23874760Y-46449431D01*
X23550568Y-46125239D01*
X23199348Y-45830530D01*
X22823796Y-45567566D01*
X22823785Y-45567559D01*
X22823779Y-45567555D01*
X22705810Y-45499445D01*
X22426727Y-45338316D01*
X22426711Y-45338308D01*
X22011199Y-45144550D01*
X22011189Y-45144546D01*
X21580371Y-44987743D01*
X21580370Y-44987742D01*
X21580360Y-44987739D01*
X21256165Y-44900870D01*
X21137500Y-44869074D01*
X21137489Y-44869072D01*
X20685986Y-44789460D01*
X20229243Y-44749500D01*
X20229242Y-44749500D01*
X19770758Y-44749500D01*
X19770757Y-44749500D01*
X19314014Y-44789460D01*
X19314012Y-44789460D01*
X18862510Y-44869072D01*
X18862499Y-44869074D01*
X18625169Y-44932667D01*
X18419640Y-44987739D01*
X18419633Y-44987741D01*
X18419628Y-44987743D01*
X17988810Y-45144546D01*
X17988800Y-45144550D01*
X17573288Y-45338308D01*
X17573272Y-45338316D01*
X17176229Y-45567550D01*
X17176203Y-45567566D01*
X16800651Y-45830530D01*
X16449431Y-46125239D01*
X16125239Y-46449431D01*
X15830530Y-46800651D01*
X15567566Y-47176203D01*
X15567550Y-47176229D01*
X15338316Y-47573272D01*
X15338308Y-47573288D01*
X15144550Y-47988800D01*
X15144546Y-47988810D01*
X14987743Y-48419628D01*
X14987740Y-48419638D01*
X14869074Y-48862499D01*
X14869072Y-48862510D01*
X14789460Y-49314012D01*
X14789460Y-49314014D01*
X14749500Y-49770756D01*
X1048979Y-49770756D01*
X928342Y-49388056D01*
X926563Y-49381854D01*
X792150Y-48862501D01*
X773950Y-48792178D01*
X772497Y-48785891D01*
X752772Y-48689149D01*
X650816Y-48189099D01*
X649693Y-48182750D01*
X626976Y-48031435D01*
X559259Y-47580391D01*
X558470Y-47573997D01*
X558470Y-47573993D01*
X501081Y-46983644D01*
X500500Y-46971685D01*
X500500Y-42911421D01*
X44294500Y-42911421D01*
X44294500Y-43088578D01*
X44322214Y-43263556D01*
X44376956Y-43432039D01*
X44376957Y-43432042D01*
X44457386Y-43589890D01*
X44561517Y-43733214D01*
X44686786Y-43858483D01*
X44830110Y-43962614D01*
X44898577Y-43997500D01*
X44987957Y-44043042D01*
X44987960Y-44043043D01*
X45072201Y-44070414D01*
X45156445Y-44097786D01*
X45331421Y-44125500D01*
X45331422Y-44125500D01*
X45508578Y-44125500D01*
X45508579Y-44125500D01*
X45683555Y-44097786D01*
X45852042Y-44043042D01*
X46009890Y-43962614D01*
X46153214Y-43858483D01*
X46278483Y-43733214D01*
X46382614Y-43589890D01*
X46463042Y-43432042D01*
X46517786Y-43263555D01*
X46545500Y-43088579D01*
X46545500Y-42911421D01*
X46536165Y-42852486D01*
X48249500Y-42852486D01*
X48249500Y-43147513D01*
X48264778Y-43263555D01*
X48288007Y-43439993D01*
X48364361Y-43724951D01*
X48364364Y-43724961D01*
X48477254Y-43997500D01*
X48477258Y-43997510D01*
X48624761Y-44252993D01*
X48804352Y-44487040D01*
X48804358Y-44487047D01*
X49012952Y-44695641D01*
X49012959Y-44695647D01*
X49247006Y-44875238D01*
X49502489Y-45022741D01*
X49502490Y-45022741D01*
X49502493Y-45022743D01*
X49775048Y-45135639D01*
X50060007Y-45211993D01*
X50352494Y-45250500D01*
X50352501Y-45250500D01*
X50647499Y-45250500D01*
X50647506Y-45250500D01*
X50939993Y-45211993D01*
X51224952Y-45135639D01*
X51497507Y-45022743D01*
X51752994Y-44875238D01*
X51987042Y-44695646D01*
X52195646Y-44487042D01*
X52375238Y-44252994D01*
X52522743Y-43997507D01*
X52635639Y-43724952D01*
X52711993Y-43439993D01*
X52750500Y-43147506D01*
X52750500Y-42911421D01*
X54454500Y-42911421D01*
X54454500Y-43088578D01*
X54482214Y-43263556D01*
X54536956Y-43432039D01*
X54536957Y-43432042D01*
X54617386Y-43589890D01*
X54721517Y-43733214D01*
X54846786Y-43858483D01*
X54990110Y-43962614D01*
X55058577Y-43997500D01*
X55147957Y-44043042D01*
X55147960Y-44043043D01*
X55232201Y-44070414D01*
X55316445Y-44097786D01*
X55491421Y-44125500D01*
X55491422Y-44125500D01*
X55668578Y-44125500D01*
X55668579Y-44125500D01*
X55843555Y-44097786D01*
X56012042Y-44043042D01*
X56169890Y-43962614D01*
X56313214Y-43858483D01*
X56438483Y-43733214D01*
X56542614Y-43589890D01*
X56623042Y-43432042D01*
X56677786Y-43263555D01*
X56705500Y-43088579D01*
X56705500Y-42911421D01*
X77294500Y-42911421D01*
X77294500Y-43088578D01*
X77322214Y-43263556D01*
X77376956Y-43432039D01*
X77376957Y-43432042D01*
X77457386Y-43589890D01*
X77561517Y-43733214D01*
X77686786Y-43858483D01*
X77830110Y-43962614D01*
X77898577Y-43997500D01*
X77987957Y-44043042D01*
X77987960Y-44043043D01*
X78072201Y-44070414D01*
X78156445Y-44097786D01*
X78331421Y-44125500D01*
X78331422Y-44125500D01*
X78508578Y-44125500D01*
X78508579Y-44125500D01*
X78683555Y-44097786D01*
X78852042Y-44043042D01*
X79009890Y-43962614D01*
X79153214Y-43858483D01*
X79278483Y-43733214D01*
X79382614Y-43589890D01*
X79463042Y-43432042D01*
X79517786Y-43263555D01*
X79545500Y-43088579D01*
X79545500Y-42911421D01*
X79536165Y-42852486D01*
X81249500Y-42852486D01*
X81249500Y-43147513D01*
X81264778Y-43263555D01*
X81288007Y-43439993D01*
X81364361Y-43724951D01*
X81364364Y-43724961D01*
X81477254Y-43997500D01*
X81477258Y-43997510D01*
X81624761Y-44252993D01*
X81804352Y-44487040D01*
X81804358Y-44487047D01*
X82012952Y-44695641D01*
X82012959Y-44695647D01*
X82247006Y-44875238D01*
X82502489Y-45022741D01*
X82502490Y-45022741D01*
X82502493Y-45022743D01*
X82775048Y-45135639D01*
X83060007Y-45211993D01*
X83352494Y-45250500D01*
X83352501Y-45250500D01*
X83647499Y-45250500D01*
X83647506Y-45250500D01*
X83939993Y-45211993D01*
X84224952Y-45135639D01*
X84497507Y-45022743D01*
X84752994Y-44875238D01*
X84987042Y-44695646D01*
X85195646Y-44487042D01*
X85375238Y-44252994D01*
X85522743Y-43997507D01*
X85635639Y-43724952D01*
X85711993Y-43439993D01*
X85750500Y-43147506D01*
X85750500Y-42911421D01*
X87454500Y-42911421D01*
X87454500Y-43088578D01*
X87482214Y-43263556D01*
X87536956Y-43432039D01*
X87536957Y-43432042D01*
X87617386Y-43589890D01*
X87721517Y-43733214D01*
X87846786Y-43858483D01*
X87990110Y-43962614D01*
X88058577Y-43997500D01*
X88147957Y-44043042D01*
X88147960Y-44043043D01*
X88232201Y-44070414D01*
X88316445Y-44097786D01*
X88491421Y-44125500D01*
X88491422Y-44125500D01*
X88668578Y-44125500D01*
X88668579Y-44125500D01*
X88843555Y-44097786D01*
X89012042Y-44043042D01*
X89169890Y-43962614D01*
X89313214Y-43858483D01*
X89438483Y-43733214D01*
X89542614Y-43589890D01*
X89623042Y-43432042D01*
X89677786Y-43263555D01*
X89705500Y-43088579D01*
X89705500Y-42911421D01*
X110294500Y-42911421D01*
X110294500Y-43088578D01*
X110322214Y-43263556D01*
X110376956Y-43432039D01*
X110376957Y-43432042D01*
X110457386Y-43589890D01*
X110561517Y-43733214D01*
X110686786Y-43858483D01*
X110830110Y-43962614D01*
X110898577Y-43997500D01*
X110987957Y-44043042D01*
X110987960Y-44043043D01*
X111072201Y-44070414D01*
X111156445Y-44097786D01*
X111331421Y-44125500D01*
X111331422Y-44125500D01*
X111508578Y-44125500D01*
X111508579Y-44125500D01*
X111683555Y-44097786D01*
X111852042Y-44043042D01*
X112009890Y-43962614D01*
X112153214Y-43858483D01*
X112278483Y-43733214D01*
X112382614Y-43589890D01*
X112463042Y-43432042D01*
X112517786Y-43263555D01*
X112545500Y-43088579D01*
X112545500Y-42911421D01*
X112536165Y-42852486D01*
X114249500Y-42852486D01*
X114249500Y-43147513D01*
X114264778Y-43263555D01*
X114288007Y-43439993D01*
X114364361Y-43724951D01*
X114364364Y-43724961D01*
X114477254Y-43997500D01*
X114477258Y-43997510D01*
X114624761Y-44252993D01*
X114804352Y-44487040D01*
X114804358Y-44487047D01*
X115012952Y-44695641D01*
X115012959Y-44695647D01*
X115247006Y-44875238D01*
X115502489Y-45022741D01*
X115502490Y-45022741D01*
X115502493Y-45022743D01*
X115775048Y-45135639D01*
X116060007Y-45211993D01*
X116352494Y-45250500D01*
X116352501Y-45250500D01*
X116647499Y-45250500D01*
X116647506Y-45250500D01*
X116939993Y-45211993D01*
X117224952Y-45135639D01*
X117497507Y-45022743D01*
X117752994Y-44875238D01*
X117987042Y-44695646D01*
X118195646Y-44487042D01*
X118375238Y-44252994D01*
X118522743Y-43997507D01*
X118635639Y-43724952D01*
X118711993Y-43439993D01*
X118750500Y-43147506D01*
X118750500Y-42911421D01*
X120454500Y-42911421D01*
X120454500Y-43088578D01*
X120482214Y-43263556D01*
X120536956Y-43432039D01*
X120536957Y-43432042D01*
X120617386Y-43589890D01*
X120721517Y-43733214D01*
X120846786Y-43858483D01*
X120990110Y-43962614D01*
X121058577Y-43997500D01*
X121147957Y-44043042D01*
X121147960Y-44043043D01*
X121232201Y-44070414D01*
X121316445Y-44097786D01*
X121491421Y-44125500D01*
X121491422Y-44125500D01*
X121668578Y-44125500D01*
X121668579Y-44125500D01*
X121843555Y-44097786D01*
X122012042Y-44043042D01*
X122169890Y-43962614D01*
X122313214Y-43858483D01*
X122438483Y-43733214D01*
X122542614Y-43589890D01*
X122623042Y-43432042D01*
X122677786Y-43263555D01*
X122705500Y-43088579D01*
X122705500Y-42911421D01*
X143294500Y-42911421D01*
X143294500Y-43088578D01*
X143322214Y-43263556D01*
X143376956Y-43432039D01*
X143376957Y-43432042D01*
X143457386Y-43589890D01*
X143561517Y-43733214D01*
X143686786Y-43858483D01*
X143830110Y-43962614D01*
X143898577Y-43997500D01*
X143987957Y-44043042D01*
X143987960Y-44043043D01*
X144072201Y-44070414D01*
X144156445Y-44097786D01*
X144331421Y-44125500D01*
X144331422Y-44125500D01*
X144508578Y-44125500D01*
X144508579Y-44125500D01*
X144683555Y-44097786D01*
X144852042Y-44043042D01*
X145009890Y-43962614D01*
X145153214Y-43858483D01*
X145278483Y-43733214D01*
X145382614Y-43589890D01*
X145463042Y-43432042D01*
X145517786Y-43263555D01*
X145545500Y-43088579D01*
X145545500Y-42911421D01*
X145536165Y-42852486D01*
X147249500Y-42852486D01*
X147249500Y-43147513D01*
X147264778Y-43263555D01*
X147288007Y-43439993D01*
X147364361Y-43724951D01*
X147364364Y-43724961D01*
X147477254Y-43997500D01*
X147477258Y-43997510D01*
X147624761Y-44252993D01*
X147804352Y-44487040D01*
X147804358Y-44487047D01*
X148012952Y-44695641D01*
X148012959Y-44695647D01*
X148247006Y-44875238D01*
X148502489Y-45022741D01*
X148502490Y-45022741D01*
X148502493Y-45022743D01*
X148775048Y-45135639D01*
X149060007Y-45211993D01*
X149352494Y-45250500D01*
X149352501Y-45250500D01*
X149647499Y-45250500D01*
X149647506Y-45250500D01*
X149939993Y-45211993D01*
X150224952Y-45135639D01*
X150497507Y-45022743D01*
X150752994Y-44875238D01*
X150987042Y-44695646D01*
X151195646Y-44487042D01*
X151375238Y-44252994D01*
X151522743Y-43997507D01*
X151635639Y-43724952D01*
X151711993Y-43439993D01*
X151750500Y-43147506D01*
X151750500Y-42911421D01*
X153454500Y-42911421D01*
X153454500Y-43088578D01*
X153482214Y-43263556D01*
X153536956Y-43432039D01*
X153536957Y-43432042D01*
X153617386Y-43589890D01*
X153721517Y-43733214D01*
X153846786Y-43858483D01*
X153990110Y-43962614D01*
X154058577Y-43997500D01*
X154147957Y-44043042D01*
X154147960Y-44043043D01*
X154232201Y-44070414D01*
X154316445Y-44097786D01*
X154491421Y-44125500D01*
X154491422Y-44125500D01*
X154668578Y-44125500D01*
X154668579Y-44125500D01*
X154843555Y-44097786D01*
X155012042Y-44043042D01*
X155169890Y-43962614D01*
X155313214Y-43858483D01*
X155438483Y-43733214D01*
X155542614Y-43589890D01*
X155623042Y-43432042D01*
X155677786Y-43263555D01*
X155705500Y-43088579D01*
X155705500Y-42911421D01*
X155677786Y-42736445D01*
X155623042Y-42567958D01*
X155623042Y-42567957D01*
X155542613Y-42410109D01*
X155539618Y-42405987D01*
X155438483Y-42266786D01*
X155313214Y-42141517D01*
X155169890Y-42037386D01*
X155012042Y-41956957D01*
X155012039Y-41956956D01*
X154843556Y-41902214D01*
X154756067Y-41888357D01*
X154668579Y-41874500D01*
X154491421Y-41874500D01*
X154433095Y-41883738D01*
X154316443Y-41902214D01*
X154147960Y-41956956D01*
X154147957Y-41956957D01*
X153990109Y-42037386D01*
X153908338Y-42096796D01*
X153846786Y-42141517D01*
X153846784Y-42141519D01*
X153846783Y-42141519D01*
X153721519Y-42266783D01*
X153721519Y-42266784D01*
X153721517Y-42266786D01*
X153676796Y-42328338D01*
X153617386Y-42410109D01*
X153536957Y-42567957D01*
X153536956Y-42567960D01*
X153482214Y-42736443D01*
X153454500Y-42911421D01*
X151750500Y-42911421D01*
X151750500Y-42852494D01*
X151711993Y-42560007D01*
X151635639Y-42275048D01*
X151634615Y-42272577D01*
X151580329Y-42141519D01*
X151522743Y-42002493D01*
X151496453Y-41956958D01*
X151375238Y-41747006D01*
X151195647Y-41512959D01*
X151195641Y-41512952D01*
X150987047Y-41304358D01*
X150987040Y-41304352D01*
X150752993Y-41124761D01*
X150497510Y-40977258D01*
X150497500Y-40977254D01*
X150224961Y-40864364D01*
X150224954Y-40864362D01*
X150224952Y-40864361D01*
X149939993Y-40788007D01*
X149891113Y-40781571D01*
X149647513Y-40749500D01*
X149647506Y-40749500D01*
X149352494Y-40749500D01*
X149352486Y-40749500D01*
X149074085Y-40786153D01*
X149060007Y-40788007D01*
X148775048Y-40864361D01*
X148775038Y-40864364D01*
X148502499Y-40977254D01*
X148502489Y-40977258D01*
X148247006Y-41124761D01*
X148012959Y-41304352D01*
X148012952Y-41304358D01*
X147804358Y-41512952D01*
X147804352Y-41512959D01*
X147624761Y-41747006D01*
X147477258Y-42002489D01*
X147477254Y-42002499D01*
X147364364Y-42275038D01*
X147364361Y-42275048D01*
X147328172Y-42410110D01*
X147288008Y-42560004D01*
X147288006Y-42560015D01*
X147249500Y-42852486D01*
X145536165Y-42852486D01*
X145517786Y-42736445D01*
X145463042Y-42567958D01*
X145463040Y-42567952D01*
X145380513Y-42405987D01*
X145367616Y-42337317D01*
X145393892Y-42272577D01*
X145450998Y-42232319D01*
X145507181Y-42226752D01*
X145566564Y-42234570D01*
X145573612Y-42235498D01*
X145573628Y-42235500D01*
X145573635Y-42235500D01*
X145806365Y-42235500D01*
X145806372Y-42235500D01*
X146037126Y-42205121D01*
X146261940Y-42144882D01*
X146319953Y-42120852D01*
X146476960Y-42055819D01*
X146476963Y-42055817D01*
X146476969Y-42055815D01*
X146678532Y-41939442D01*
X146863181Y-41797756D01*
X147027756Y-41633181D01*
X147169442Y-41448532D01*
X147285815Y-41246969D01*
X147374882Y-41031940D01*
X147435121Y-40807126D01*
X147465500Y-40576372D01*
X147465500Y-40343628D01*
X147435121Y-40112874D01*
X147374882Y-39888060D01*
X147374879Y-39888052D01*
X147285819Y-39673039D01*
X147285811Y-39673023D01*
X147169446Y-39471475D01*
X147169442Y-39471468D01*
X147027756Y-39286819D01*
X147027751Y-39286813D01*
X146863186Y-39122248D01*
X146863179Y-39122242D01*
X146678540Y-38980564D01*
X146678538Y-38980562D01*
X146678532Y-38980558D01*
X146678527Y-38980555D01*
X146678524Y-38980553D01*
X146476976Y-38864188D01*
X146476960Y-38864180D01*
X146261947Y-38775120D01*
X146037122Y-38714878D01*
X145806382Y-38684501D01*
X145806377Y-38684500D01*
X145806372Y-38684500D01*
X145573628Y-38684500D01*
X145573622Y-38684500D01*
X145573617Y-38684501D01*
X145342877Y-38714878D01*
X145118052Y-38775120D01*
X144903039Y-38864180D01*
X144903023Y-38864188D01*
X144701475Y-38980553D01*
X144701459Y-38980564D01*
X144516820Y-39122242D01*
X144516813Y-39122248D01*
X144352248Y-39286813D01*
X144352242Y-39286820D01*
X144210564Y-39471459D01*
X144210553Y-39471475D01*
X144094188Y-39673023D01*
X144094180Y-39673039D01*
X144005120Y-39888052D01*
X143944878Y-40112877D01*
X143914501Y-40343617D01*
X143914500Y-40343634D01*
X143914500Y-40576365D01*
X143914501Y-40576382D01*
X143944878Y-40807122D01*
X144005120Y-41031947D01*
X144094180Y-41246960D01*
X144094188Y-41246976D01*
X144210553Y-41448524D01*
X144210564Y-41448540D01*
X144352242Y-41633179D01*
X144352248Y-41633186D01*
X144385636Y-41666574D01*
X144419121Y-41727897D01*
X144414137Y-41797589D01*
X144372265Y-41853522D01*
X144317353Y-41876728D01*
X144156443Y-41902214D01*
X143987960Y-41956956D01*
X143987957Y-41956957D01*
X143830109Y-42037386D01*
X143748338Y-42096796D01*
X143686786Y-42141517D01*
X143686784Y-42141519D01*
X143686783Y-42141519D01*
X143561519Y-42266783D01*
X143561519Y-42266784D01*
X143561517Y-42266786D01*
X143516796Y-42328338D01*
X143457386Y-42410109D01*
X143376957Y-42567957D01*
X143376956Y-42567960D01*
X143322214Y-42736443D01*
X143294500Y-42911421D01*
X122705500Y-42911421D01*
X122677786Y-42736445D01*
X122623042Y-42567958D01*
X122623042Y-42567957D01*
X122542613Y-42410109D01*
X122539618Y-42405987D01*
X122438483Y-42266786D01*
X122313214Y-42141517D01*
X122169890Y-42037386D01*
X122012042Y-41956957D01*
X122012039Y-41956956D01*
X121843556Y-41902214D01*
X121756067Y-41888357D01*
X121668579Y-41874500D01*
X121491421Y-41874500D01*
X121433095Y-41883738D01*
X121316443Y-41902214D01*
X121147960Y-41956956D01*
X121147957Y-41956957D01*
X120990109Y-42037386D01*
X120908338Y-42096796D01*
X120846786Y-42141517D01*
X120846784Y-42141519D01*
X120846783Y-42141519D01*
X120721519Y-42266783D01*
X120721519Y-42266784D01*
X120721517Y-42266786D01*
X120676796Y-42328338D01*
X120617386Y-42410109D01*
X120536957Y-42567957D01*
X120536956Y-42567960D01*
X120482214Y-42736443D01*
X120454500Y-42911421D01*
X118750500Y-42911421D01*
X118750500Y-42852494D01*
X118711993Y-42560007D01*
X118635639Y-42275048D01*
X118634615Y-42272577D01*
X118580329Y-42141519D01*
X118522743Y-42002493D01*
X118496453Y-41956958D01*
X118375238Y-41747006D01*
X118195647Y-41512959D01*
X118195641Y-41512952D01*
X117987047Y-41304358D01*
X117987040Y-41304352D01*
X117752993Y-41124761D01*
X117497510Y-40977258D01*
X117497500Y-40977254D01*
X117224961Y-40864364D01*
X117224954Y-40864362D01*
X117224952Y-40864361D01*
X116939993Y-40788007D01*
X116891113Y-40781571D01*
X116647513Y-40749500D01*
X116647506Y-40749500D01*
X116352494Y-40749500D01*
X116352486Y-40749500D01*
X116074085Y-40786153D01*
X116060007Y-40788007D01*
X115775048Y-40864361D01*
X115775038Y-40864364D01*
X115502499Y-40977254D01*
X115502489Y-40977258D01*
X115247006Y-41124761D01*
X115012959Y-41304352D01*
X115012952Y-41304358D01*
X114804358Y-41512952D01*
X114804352Y-41512959D01*
X114624761Y-41747006D01*
X114477258Y-42002489D01*
X114477254Y-42002499D01*
X114364364Y-42275038D01*
X114364361Y-42275048D01*
X114328172Y-42410110D01*
X114288008Y-42560004D01*
X114288006Y-42560015D01*
X114249500Y-42852486D01*
X112536165Y-42852486D01*
X112517786Y-42736445D01*
X112463042Y-42567958D01*
X112463040Y-42567952D01*
X112380513Y-42405987D01*
X112367616Y-42337317D01*
X112393892Y-42272577D01*
X112450998Y-42232319D01*
X112507181Y-42226752D01*
X112566564Y-42234570D01*
X112573612Y-42235498D01*
X112573628Y-42235500D01*
X112573635Y-42235500D01*
X112806365Y-42235500D01*
X112806372Y-42235500D01*
X113037126Y-42205121D01*
X113261940Y-42144882D01*
X113319953Y-42120852D01*
X113476960Y-42055819D01*
X113476963Y-42055817D01*
X113476969Y-42055815D01*
X113678532Y-41939442D01*
X113863181Y-41797756D01*
X114027756Y-41633181D01*
X114169442Y-41448532D01*
X114285815Y-41246969D01*
X114374882Y-41031940D01*
X114435121Y-40807126D01*
X114465500Y-40576372D01*
X114465500Y-40343628D01*
X114435121Y-40112874D01*
X114374882Y-39888060D01*
X114374879Y-39888052D01*
X114285819Y-39673039D01*
X114285811Y-39673023D01*
X114169446Y-39471475D01*
X114169442Y-39471468D01*
X114027756Y-39286819D01*
X114027751Y-39286813D01*
X113863186Y-39122248D01*
X113863179Y-39122242D01*
X113678540Y-38980564D01*
X113678538Y-38980562D01*
X113678532Y-38980558D01*
X113678527Y-38980555D01*
X113678524Y-38980553D01*
X113476976Y-38864188D01*
X113476960Y-38864180D01*
X113261947Y-38775120D01*
X113037122Y-38714878D01*
X112806382Y-38684501D01*
X112806377Y-38684500D01*
X112806372Y-38684500D01*
X112573628Y-38684500D01*
X112573622Y-38684500D01*
X112573617Y-38684501D01*
X112342877Y-38714878D01*
X112118052Y-38775120D01*
X111903039Y-38864180D01*
X111903023Y-38864188D01*
X111701475Y-38980553D01*
X111701459Y-38980564D01*
X111516820Y-39122242D01*
X111516813Y-39122248D01*
X111352248Y-39286813D01*
X111352242Y-39286820D01*
X111210564Y-39471459D01*
X111210553Y-39471475D01*
X111094188Y-39673023D01*
X111094180Y-39673039D01*
X111005120Y-39888052D01*
X110944878Y-40112877D01*
X110914501Y-40343617D01*
X110914500Y-40343634D01*
X110914500Y-40576365D01*
X110914501Y-40576382D01*
X110944878Y-40807122D01*
X111005120Y-41031947D01*
X111094180Y-41246960D01*
X111094188Y-41246976D01*
X111210553Y-41448524D01*
X111210564Y-41448540D01*
X111352242Y-41633179D01*
X111352248Y-41633186D01*
X111385636Y-41666574D01*
X111419121Y-41727897D01*
X111414137Y-41797589D01*
X111372265Y-41853522D01*
X111317353Y-41876728D01*
X111156443Y-41902214D01*
X110987960Y-41956956D01*
X110987957Y-41956957D01*
X110830109Y-42037386D01*
X110748338Y-42096796D01*
X110686786Y-42141517D01*
X110686784Y-42141519D01*
X110686783Y-42141519D01*
X110561519Y-42266783D01*
X110561519Y-42266784D01*
X110561517Y-42266786D01*
X110516796Y-42328338D01*
X110457386Y-42410109D01*
X110376957Y-42567957D01*
X110376956Y-42567960D01*
X110322214Y-42736443D01*
X110294500Y-42911421D01*
X89705500Y-42911421D01*
X89677786Y-42736445D01*
X89623042Y-42567958D01*
X89623042Y-42567957D01*
X89542613Y-42410109D01*
X89539618Y-42405987D01*
X89438483Y-42266786D01*
X89313214Y-42141517D01*
X89169890Y-42037386D01*
X89012042Y-41956957D01*
X89012039Y-41956956D01*
X88843556Y-41902214D01*
X88756067Y-41888357D01*
X88668579Y-41874500D01*
X88491421Y-41874500D01*
X88433095Y-41883738D01*
X88316443Y-41902214D01*
X88147960Y-41956956D01*
X88147957Y-41956957D01*
X87990109Y-42037386D01*
X87908338Y-42096796D01*
X87846786Y-42141517D01*
X87846784Y-42141519D01*
X87846783Y-42141519D01*
X87721519Y-42266783D01*
X87721519Y-42266784D01*
X87721517Y-42266786D01*
X87676796Y-42328338D01*
X87617386Y-42410109D01*
X87536957Y-42567957D01*
X87536956Y-42567960D01*
X87482214Y-42736443D01*
X87454500Y-42911421D01*
X85750500Y-42911421D01*
X85750500Y-42852494D01*
X85711993Y-42560007D01*
X85635639Y-42275048D01*
X85634615Y-42272577D01*
X85580329Y-42141519D01*
X85522743Y-42002493D01*
X85496453Y-41956958D01*
X85375238Y-41747006D01*
X85195647Y-41512959D01*
X85195641Y-41512952D01*
X84987047Y-41304358D01*
X84987040Y-41304352D01*
X84752993Y-41124761D01*
X84497510Y-40977258D01*
X84497500Y-40977254D01*
X84224961Y-40864364D01*
X84224954Y-40864362D01*
X84224952Y-40864361D01*
X83939993Y-40788007D01*
X83891113Y-40781571D01*
X83647513Y-40749500D01*
X83647506Y-40749500D01*
X83352494Y-40749500D01*
X83352486Y-40749500D01*
X83074085Y-40786153D01*
X83060007Y-40788007D01*
X82775048Y-40864361D01*
X82775038Y-40864364D01*
X82502499Y-40977254D01*
X82502489Y-40977258D01*
X82247006Y-41124761D01*
X82012959Y-41304352D01*
X82012952Y-41304358D01*
X81804358Y-41512952D01*
X81804352Y-41512959D01*
X81624761Y-41747006D01*
X81477258Y-42002489D01*
X81477254Y-42002499D01*
X81364364Y-42275038D01*
X81364361Y-42275048D01*
X81328172Y-42410110D01*
X81288008Y-42560004D01*
X81288006Y-42560015D01*
X81249500Y-42852486D01*
X79536165Y-42852486D01*
X79517786Y-42736445D01*
X79463042Y-42567958D01*
X79463040Y-42567952D01*
X79380513Y-42405987D01*
X79367616Y-42337317D01*
X79393892Y-42272577D01*
X79450998Y-42232319D01*
X79507181Y-42226752D01*
X79566564Y-42234570D01*
X79573612Y-42235498D01*
X79573628Y-42235500D01*
X79573635Y-42235500D01*
X79806365Y-42235500D01*
X79806372Y-42235500D01*
X80037126Y-42205121D01*
X80261940Y-42144882D01*
X80319953Y-42120852D01*
X80476960Y-42055819D01*
X80476963Y-42055817D01*
X80476969Y-42055815D01*
X80678532Y-41939442D01*
X80863181Y-41797756D01*
X81027756Y-41633181D01*
X81169442Y-41448532D01*
X81285815Y-41246969D01*
X81374882Y-41031940D01*
X81435121Y-40807126D01*
X81465500Y-40576372D01*
X81465500Y-40343628D01*
X81435121Y-40112874D01*
X81374882Y-39888060D01*
X81374879Y-39888052D01*
X81285819Y-39673039D01*
X81285811Y-39673023D01*
X81169446Y-39471475D01*
X81169442Y-39471468D01*
X81027756Y-39286819D01*
X81027751Y-39286813D01*
X80863186Y-39122248D01*
X80863179Y-39122242D01*
X80678540Y-38980564D01*
X80678538Y-38980562D01*
X80678532Y-38980558D01*
X80678527Y-38980555D01*
X80678524Y-38980553D01*
X80476976Y-38864188D01*
X80476960Y-38864180D01*
X80261947Y-38775120D01*
X80037122Y-38714878D01*
X79806382Y-38684501D01*
X79806377Y-38684500D01*
X79806372Y-38684500D01*
X79573628Y-38684500D01*
X79573622Y-38684500D01*
X79573617Y-38684501D01*
X79342877Y-38714878D01*
X79118052Y-38775120D01*
X78903039Y-38864180D01*
X78903023Y-38864188D01*
X78701475Y-38980553D01*
X78701459Y-38980564D01*
X78516820Y-39122242D01*
X78516813Y-39122248D01*
X78352248Y-39286813D01*
X78352242Y-39286820D01*
X78210564Y-39471459D01*
X78210553Y-39471475D01*
X78094188Y-39673023D01*
X78094180Y-39673039D01*
X78005120Y-39888052D01*
X77944878Y-40112877D01*
X77914501Y-40343617D01*
X77914500Y-40343634D01*
X77914500Y-40576365D01*
X77914501Y-40576382D01*
X77944878Y-40807122D01*
X78005120Y-41031947D01*
X78094180Y-41246960D01*
X78094188Y-41246976D01*
X78210553Y-41448524D01*
X78210564Y-41448540D01*
X78352242Y-41633179D01*
X78352248Y-41633186D01*
X78385636Y-41666574D01*
X78419121Y-41727897D01*
X78414137Y-41797589D01*
X78372265Y-41853522D01*
X78317353Y-41876728D01*
X78156443Y-41902214D01*
X77987960Y-41956956D01*
X77987957Y-41956957D01*
X77830109Y-42037386D01*
X77748338Y-42096796D01*
X77686786Y-42141517D01*
X77686784Y-42141519D01*
X77686783Y-42141519D01*
X77561519Y-42266783D01*
X77561519Y-42266784D01*
X77561517Y-42266786D01*
X77516796Y-42328338D01*
X77457386Y-42410109D01*
X77376957Y-42567957D01*
X77376956Y-42567960D01*
X77322214Y-42736443D01*
X77294500Y-42911421D01*
X56705500Y-42911421D01*
X56677786Y-42736445D01*
X56623042Y-42567958D01*
X56623042Y-42567957D01*
X56542613Y-42410109D01*
X56539618Y-42405987D01*
X56438483Y-42266786D01*
X56313214Y-42141517D01*
X56169890Y-42037386D01*
X56012042Y-41956957D01*
X56012039Y-41956956D01*
X55843556Y-41902214D01*
X55756067Y-41888357D01*
X55668579Y-41874500D01*
X55491421Y-41874500D01*
X55433095Y-41883738D01*
X55316443Y-41902214D01*
X55147960Y-41956956D01*
X55147957Y-41956957D01*
X54990109Y-42037386D01*
X54908338Y-42096796D01*
X54846786Y-42141517D01*
X54846784Y-42141519D01*
X54846783Y-42141519D01*
X54721519Y-42266783D01*
X54721519Y-42266784D01*
X54721517Y-42266786D01*
X54676796Y-42328338D01*
X54617386Y-42410109D01*
X54536957Y-42567957D01*
X54536956Y-42567960D01*
X54482214Y-42736443D01*
X54454500Y-42911421D01*
X52750500Y-42911421D01*
X52750500Y-42852494D01*
X52711993Y-42560007D01*
X52635639Y-42275048D01*
X52634615Y-42272577D01*
X52580329Y-42141519D01*
X52522743Y-42002493D01*
X52496453Y-41956958D01*
X52375238Y-41747006D01*
X52195647Y-41512959D01*
X52195641Y-41512952D01*
X51987047Y-41304358D01*
X51987040Y-41304352D01*
X51752993Y-41124761D01*
X51497510Y-40977258D01*
X51497500Y-40977254D01*
X51224961Y-40864364D01*
X51224954Y-40864362D01*
X51224952Y-40864361D01*
X50939993Y-40788007D01*
X50891113Y-40781571D01*
X50647513Y-40749500D01*
X50647506Y-40749500D01*
X50352494Y-40749500D01*
X50352486Y-40749500D01*
X50074085Y-40786153D01*
X50060007Y-40788007D01*
X49775048Y-40864361D01*
X49775038Y-40864364D01*
X49502499Y-40977254D01*
X49502489Y-40977258D01*
X49247006Y-41124761D01*
X49012959Y-41304352D01*
X49012952Y-41304358D01*
X48804358Y-41512952D01*
X48804352Y-41512959D01*
X48624761Y-41747006D01*
X48477258Y-42002489D01*
X48477254Y-42002499D01*
X48364364Y-42275038D01*
X48364361Y-42275048D01*
X48328172Y-42410110D01*
X48288008Y-42560004D01*
X48288006Y-42560015D01*
X48249500Y-42852486D01*
X46536165Y-42852486D01*
X46517786Y-42736445D01*
X46463042Y-42567958D01*
X46463040Y-42567952D01*
X46380513Y-42405987D01*
X46367616Y-42337317D01*
X46393892Y-42272577D01*
X46450998Y-42232319D01*
X46507181Y-42226752D01*
X46566564Y-42234570D01*
X46573612Y-42235498D01*
X46573628Y-42235500D01*
X46573635Y-42235500D01*
X46806365Y-42235500D01*
X46806372Y-42235500D01*
X47037126Y-42205121D01*
X47261940Y-42144882D01*
X47319953Y-42120852D01*
X47476960Y-42055819D01*
X47476963Y-42055817D01*
X47476969Y-42055815D01*
X47678532Y-41939442D01*
X47863181Y-41797756D01*
X48027756Y-41633181D01*
X48169442Y-41448532D01*
X48285815Y-41246969D01*
X48374882Y-41031940D01*
X48435121Y-40807126D01*
X48465500Y-40576372D01*
X48465500Y-40343628D01*
X48435121Y-40112874D01*
X48374882Y-39888060D01*
X48374879Y-39888052D01*
X48285819Y-39673039D01*
X48285811Y-39673023D01*
X48169446Y-39471475D01*
X48169442Y-39471468D01*
X48027756Y-39286819D01*
X48027751Y-39286813D01*
X47863186Y-39122248D01*
X47863179Y-39122242D01*
X47678540Y-38980564D01*
X47678538Y-38980562D01*
X47678532Y-38980558D01*
X47678527Y-38980555D01*
X47678524Y-38980553D01*
X47476976Y-38864188D01*
X47476960Y-38864180D01*
X47261947Y-38775120D01*
X47037122Y-38714878D01*
X46806382Y-38684501D01*
X46806377Y-38684500D01*
X46806372Y-38684500D01*
X46573628Y-38684500D01*
X46573622Y-38684500D01*
X46573617Y-38684501D01*
X46342877Y-38714878D01*
X46118052Y-38775120D01*
X45903039Y-38864180D01*
X45903023Y-38864188D01*
X45701475Y-38980553D01*
X45701459Y-38980564D01*
X45516820Y-39122242D01*
X45516813Y-39122248D01*
X45352248Y-39286813D01*
X45352242Y-39286820D01*
X45210564Y-39471459D01*
X45210553Y-39471475D01*
X45094188Y-39673023D01*
X45094180Y-39673039D01*
X45005120Y-39888052D01*
X44944878Y-40112877D01*
X44914501Y-40343617D01*
X44914500Y-40343634D01*
X44914500Y-40576365D01*
X44914501Y-40576382D01*
X44944878Y-40807122D01*
X45005120Y-41031947D01*
X45094180Y-41246960D01*
X45094188Y-41246976D01*
X45210553Y-41448524D01*
X45210564Y-41448540D01*
X45352242Y-41633179D01*
X45352248Y-41633186D01*
X45385636Y-41666574D01*
X45419121Y-41727897D01*
X45414137Y-41797589D01*
X45372265Y-41853522D01*
X45317353Y-41876728D01*
X45156443Y-41902214D01*
X44987960Y-41956956D01*
X44987957Y-41956957D01*
X44830109Y-42037386D01*
X44748338Y-42096796D01*
X44686786Y-42141517D01*
X44686784Y-42141519D01*
X44686783Y-42141519D01*
X44561519Y-42266783D01*
X44561519Y-42266784D01*
X44561517Y-42266786D01*
X44516796Y-42328338D01*
X44457386Y-42410109D01*
X44376957Y-42567957D01*
X44376956Y-42567960D01*
X44322214Y-42736443D01*
X44294500Y-42911421D01*
X500500Y-42911421D01*
X500500Y-37803634D01*
X51264500Y-37803634D01*
X51264500Y-38036365D01*
X51264501Y-38036382D01*
X51294878Y-38267122D01*
X51355120Y-38491947D01*
X51444180Y-38706960D01*
X51444188Y-38706976D01*
X51560553Y-38908524D01*
X51560564Y-38908540D01*
X51702242Y-39093179D01*
X51702248Y-39093186D01*
X51866813Y-39257751D01*
X51866820Y-39257757D01*
X51904696Y-39286820D01*
X52051468Y-39399442D01*
X52051475Y-39399446D01*
X52253023Y-39515811D01*
X52253039Y-39515819D01*
X52468052Y-39604879D01*
X52468054Y-39604879D01*
X52468060Y-39604882D01*
X52692874Y-39665121D01*
X52923628Y-39695500D01*
X52923635Y-39695500D01*
X53156365Y-39695500D01*
X53156372Y-39695500D01*
X53387126Y-39665121D01*
X53611940Y-39604882D01*
X53669953Y-39580852D01*
X53826960Y-39515819D01*
X53826963Y-39515817D01*
X53826969Y-39515815D01*
X54028532Y-39399442D01*
X54213181Y-39257756D01*
X54377756Y-39093181D01*
X54519442Y-38908532D01*
X54635815Y-38706969D01*
X54645122Y-38684501D01*
X54724879Y-38491947D01*
X54724878Y-38491947D01*
X54724882Y-38491940D01*
X54785121Y-38267126D01*
X54815500Y-38036372D01*
X54815500Y-37803634D01*
X84264500Y-37803634D01*
X84264500Y-38036365D01*
X84264501Y-38036382D01*
X84294878Y-38267122D01*
X84355120Y-38491947D01*
X84444180Y-38706960D01*
X84444188Y-38706976D01*
X84560553Y-38908524D01*
X84560564Y-38908540D01*
X84702242Y-39093179D01*
X84702248Y-39093186D01*
X84866813Y-39257751D01*
X84866820Y-39257757D01*
X84904696Y-39286820D01*
X85051468Y-39399442D01*
X85051475Y-39399446D01*
X85253023Y-39515811D01*
X85253039Y-39515819D01*
X85468052Y-39604879D01*
X85468054Y-39604879D01*
X85468060Y-39604882D01*
X85692874Y-39665121D01*
X85923628Y-39695500D01*
X85923635Y-39695500D01*
X86156365Y-39695500D01*
X86156372Y-39695500D01*
X86387126Y-39665121D01*
X86611940Y-39604882D01*
X86669953Y-39580852D01*
X86826960Y-39515819D01*
X86826963Y-39515817D01*
X86826969Y-39515815D01*
X87028532Y-39399442D01*
X87213181Y-39257756D01*
X87377756Y-39093181D01*
X87519442Y-38908532D01*
X87635815Y-38706969D01*
X87645122Y-38684501D01*
X87724879Y-38491947D01*
X87724878Y-38491947D01*
X87724882Y-38491940D01*
X87785121Y-38267126D01*
X87815500Y-38036372D01*
X87815500Y-37803634D01*
X117264500Y-37803634D01*
X117264500Y-38036365D01*
X117264501Y-38036382D01*
X117294878Y-38267122D01*
X117355120Y-38491947D01*
X117444180Y-38706960D01*
X117444188Y-38706976D01*
X117560553Y-38908524D01*
X117560564Y-38908540D01*
X117702242Y-39093179D01*
X117702248Y-39093186D01*
X117866813Y-39257751D01*
X117866820Y-39257757D01*
X117904696Y-39286820D01*
X118051468Y-39399442D01*
X118051475Y-39399446D01*
X118253023Y-39515811D01*
X118253039Y-39515819D01*
X118468052Y-39604879D01*
X118468054Y-39604879D01*
X118468060Y-39604882D01*
X118692874Y-39665121D01*
X118923628Y-39695500D01*
X118923635Y-39695500D01*
X119156365Y-39695500D01*
X119156372Y-39695500D01*
X119387126Y-39665121D01*
X119611940Y-39604882D01*
X119669953Y-39580852D01*
X119826960Y-39515819D01*
X119826963Y-39515817D01*
X119826969Y-39515815D01*
X120028532Y-39399442D01*
X120213181Y-39257756D01*
X120377756Y-39093181D01*
X120519442Y-38908532D01*
X120635815Y-38706969D01*
X120645122Y-38684501D01*
X120724879Y-38491947D01*
X120724878Y-38491947D01*
X120724882Y-38491940D01*
X120785121Y-38267126D01*
X120815500Y-38036372D01*
X120815500Y-37803634D01*
X150264500Y-37803634D01*
X150264500Y-38036365D01*
X150264501Y-38036382D01*
X150294878Y-38267122D01*
X150355120Y-38491947D01*
X150444180Y-38706960D01*
X150444188Y-38706976D01*
X150560553Y-38908524D01*
X150560564Y-38908540D01*
X150702242Y-39093179D01*
X150702248Y-39093186D01*
X150866813Y-39257751D01*
X150866820Y-39257757D01*
X150904696Y-39286820D01*
X151051468Y-39399442D01*
X151051475Y-39399446D01*
X151253023Y-39515811D01*
X151253039Y-39515819D01*
X151468052Y-39604879D01*
X151468054Y-39604879D01*
X151468060Y-39604882D01*
X151692874Y-39665121D01*
X151923628Y-39695500D01*
X151923635Y-39695500D01*
X152156365Y-39695500D01*
X152156372Y-39695500D01*
X152387126Y-39665121D01*
X152611940Y-39604882D01*
X152669953Y-39580852D01*
X152826960Y-39515819D01*
X152826963Y-39515817D01*
X152826969Y-39515815D01*
X153028532Y-39399442D01*
X153213181Y-39257756D01*
X153377756Y-39093181D01*
X153519442Y-38908532D01*
X153635815Y-38706969D01*
X153645122Y-38684501D01*
X153724879Y-38491947D01*
X153724878Y-38491947D01*
X153724882Y-38491940D01*
X153785121Y-38267126D01*
X153815500Y-38036372D01*
X153815500Y-37803628D01*
X153785121Y-37572874D01*
X153724882Y-37348060D01*
X153724879Y-37348052D01*
X153635819Y-37133039D01*
X153635811Y-37133023D01*
X153519446Y-36931475D01*
X153519442Y-36931468D01*
X153377756Y-36746819D01*
X153377751Y-36746813D01*
X153213186Y-36582248D01*
X153213179Y-36582242D01*
X153028540Y-36440564D01*
X153028538Y-36440562D01*
X153028532Y-36440558D01*
X153028527Y-36440555D01*
X153028524Y-36440553D01*
X152826976Y-36324188D01*
X152826960Y-36324180D01*
X152611947Y-36235120D01*
X152387122Y-36174878D01*
X152156382Y-36144501D01*
X152156377Y-36144500D01*
X152156372Y-36144500D01*
X151923628Y-36144500D01*
X151923622Y-36144500D01*
X151923617Y-36144501D01*
X151692877Y-36174878D01*
X151468052Y-36235120D01*
X151253039Y-36324180D01*
X151253023Y-36324188D01*
X151051475Y-36440553D01*
X151051459Y-36440564D01*
X150866820Y-36582242D01*
X150866813Y-36582248D01*
X150702248Y-36746813D01*
X150702242Y-36746820D01*
X150560564Y-36931459D01*
X150560553Y-36931475D01*
X150444188Y-37133023D01*
X150444180Y-37133039D01*
X150355120Y-37348052D01*
X150294878Y-37572877D01*
X150264501Y-37803617D01*
X150264500Y-37803634D01*
X120815500Y-37803634D01*
X120815500Y-37803628D01*
X120785121Y-37572874D01*
X120724882Y-37348060D01*
X120724879Y-37348052D01*
X120635819Y-37133039D01*
X120635811Y-37133023D01*
X120519446Y-36931475D01*
X120519442Y-36931468D01*
X120377756Y-36746819D01*
X120377751Y-36746813D01*
X120213186Y-36582248D01*
X120213179Y-36582242D01*
X120028540Y-36440564D01*
X120028538Y-36440562D01*
X120028532Y-36440558D01*
X120028527Y-36440555D01*
X120028524Y-36440553D01*
X119826976Y-36324188D01*
X119826960Y-36324180D01*
X119611947Y-36235120D01*
X119387122Y-36174878D01*
X119156382Y-36144501D01*
X119156377Y-36144500D01*
X119156372Y-36144500D01*
X118923628Y-36144500D01*
X118923622Y-36144500D01*
X118923617Y-36144501D01*
X118692877Y-36174878D01*
X118468052Y-36235120D01*
X118253039Y-36324180D01*
X118253023Y-36324188D01*
X118051475Y-36440553D01*
X118051459Y-36440564D01*
X117866820Y-36582242D01*
X117866813Y-36582248D01*
X117702248Y-36746813D01*
X117702242Y-36746820D01*
X117560564Y-36931459D01*
X117560553Y-36931475D01*
X117444188Y-37133023D01*
X117444180Y-37133039D01*
X117355120Y-37348052D01*
X117294878Y-37572877D01*
X117264501Y-37803617D01*
X117264500Y-37803634D01*
X87815500Y-37803634D01*
X87815500Y-37803628D01*
X87785121Y-37572874D01*
X87724882Y-37348060D01*
X87724879Y-37348052D01*
X87635819Y-37133039D01*
X87635811Y-37133023D01*
X87519446Y-36931475D01*
X87519442Y-36931468D01*
X87377756Y-36746819D01*
X87377751Y-36746813D01*
X87213186Y-36582248D01*
X87213179Y-36582242D01*
X87028540Y-36440564D01*
X87028538Y-36440562D01*
X87028532Y-36440558D01*
X87028527Y-36440555D01*
X87028524Y-36440553D01*
X86826976Y-36324188D01*
X86826960Y-36324180D01*
X86611947Y-36235120D01*
X86387122Y-36174878D01*
X86156382Y-36144501D01*
X86156377Y-36144500D01*
X86156372Y-36144500D01*
X85923628Y-36144500D01*
X85923622Y-36144500D01*
X85923617Y-36144501D01*
X85692877Y-36174878D01*
X85468052Y-36235120D01*
X85253039Y-36324180D01*
X85253023Y-36324188D01*
X85051475Y-36440553D01*
X85051459Y-36440564D01*
X84866820Y-36582242D01*
X84866813Y-36582248D01*
X84702248Y-36746813D01*
X84702242Y-36746820D01*
X84560564Y-36931459D01*
X84560553Y-36931475D01*
X84444188Y-37133023D01*
X84444180Y-37133039D01*
X84355120Y-37348052D01*
X84294878Y-37572877D01*
X84264501Y-37803617D01*
X84264500Y-37803634D01*
X54815500Y-37803634D01*
X54815500Y-37803628D01*
X54785121Y-37572874D01*
X54724882Y-37348060D01*
X54724879Y-37348052D01*
X54635819Y-37133039D01*
X54635811Y-37133023D01*
X54519446Y-36931475D01*
X54519442Y-36931468D01*
X54377756Y-36746819D01*
X54377751Y-36746813D01*
X54213186Y-36582248D01*
X54213179Y-36582242D01*
X54028540Y-36440564D01*
X54028538Y-36440562D01*
X54028532Y-36440558D01*
X54028527Y-36440555D01*
X54028524Y-36440553D01*
X53826976Y-36324188D01*
X53826960Y-36324180D01*
X53611947Y-36235120D01*
X53387122Y-36174878D01*
X53156382Y-36144501D01*
X53156377Y-36144500D01*
X53156372Y-36144500D01*
X52923628Y-36144500D01*
X52923622Y-36144500D01*
X52923617Y-36144501D01*
X52692877Y-36174878D01*
X52468052Y-36235120D01*
X52253039Y-36324180D01*
X52253023Y-36324188D01*
X52051475Y-36440553D01*
X52051459Y-36440564D01*
X51866820Y-36582242D01*
X51866813Y-36582248D01*
X51702248Y-36746813D01*
X51702242Y-36746820D01*
X51560564Y-36931459D01*
X51560553Y-36931475D01*
X51444188Y-37133023D01*
X51444180Y-37133039D01*
X51355120Y-37348052D01*
X51294878Y-37572877D01*
X51264501Y-37803617D01*
X51264500Y-37803634D01*
X500500Y-37803634D01*
X500500Y-30449996D01*
X51194435Y-30449996D01*
X51194435Y-30450003D01*
X51214630Y-30629249D01*
X51214631Y-30629254D01*
X51274211Y-30799523D01*
X51370184Y-30952262D01*
X51497738Y-31079816D01*
X51588080Y-31136582D01*
X51610192Y-31150476D01*
X51650478Y-31175789D01*
X51820745Y-31235368D01*
X51820750Y-31235369D01*
X51999996Y-31255565D01*
X52000000Y-31255565D01*
X52000004Y-31255565D01*
X52179249Y-31235369D01*
X52179252Y-31235368D01*
X52179255Y-31235368D01*
X52349522Y-31175789D01*
X52502262Y-31079816D01*
X52502267Y-31079810D01*
X52505097Y-31077555D01*
X52507275Y-31076665D01*
X52508158Y-31076111D01*
X52508255Y-31076265D01*
X52569783Y-31051145D01*
X52582412Y-31050500D01*
X78650902Y-31050500D01*
X78717941Y-31070185D01*
X78763696Y-31122989D01*
X78773640Y-31192147D01*
X78744615Y-31255703D01*
X78738583Y-31262181D01*
X78381465Y-31619298D01*
X78320142Y-31652783D01*
X78307668Y-31654837D01*
X78220750Y-31664630D01*
X78050478Y-31724210D01*
X77897737Y-31820184D01*
X77770184Y-31947737D01*
X77674211Y-32100476D01*
X77614631Y-32270745D01*
X77614630Y-32270750D01*
X77594435Y-32449996D01*
X77594435Y-32450003D01*
X77614630Y-32629249D01*
X77614631Y-32629254D01*
X77674211Y-32799523D01*
X77750384Y-32920750D01*
X77770184Y-32952262D01*
X77897738Y-33079816D01*
X77988080Y-33136582D01*
X78047966Y-33174211D01*
X78050478Y-33175789D01*
X78220745Y-33235368D01*
X78220750Y-33235369D01*
X78399996Y-33255565D01*
X78400000Y-33255565D01*
X78400004Y-33255565D01*
X78579249Y-33235369D01*
X78579252Y-33235368D01*
X78579255Y-33235368D01*
X78749522Y-33175789D01*
X78902262Y-33079816D01*
X79029816Y-32952262D01*
X79125789Y-32799522D01*
X79185368Y-32629255D01*
X79195161Y-32542329D01*
X79222226Y-32477918D01*
X79230690Y-32468543D01*
X80212417Y-31486819D01*
X80273740Y-31453334D01*
X80300098Y-31450500D01*
X113100903Y-31450500D01*
X113167942Y-31470185D01*
X113213697Y-31522989D01*
X113223641Y-31592147D01*
X113194616Y-31655703D01*
X113188584Y-31662181D01*
X112331465Y-32519298D01*
X112270142Y-32552783D01*
X112257668Y-32554837D01*
X112170750Y-32564630D01*
X112000478Y-32624210D01*
X111847737Y-32720184D01*
X111720184Y-32847737D01*
X111624211Y-33000476D01*
X111564631Y-33170745D01*
X111564630Y-33170750D01*
X111544435Y-33349996D01*
X111544435Y-33350003D01*
X111564630Y-33529249D01*
X111564631Y-33529254D01*
X111624211Y-33699523D01*
X111703549Y-33825788D01*
X111720184Y-33852262D01*
X111847738Y-33979816D01*
X112000478Y-34075789D01*
X112170745Y-34135368D01*
X112170750Y-34135369D01*
X112349996Y-34155565D01*
X112350000Y-34155565D01*
X112350004Y-34155565D01*
X112529249Y-34135369D01*
X112529252Y-34135368D01*
X112529255Y-34135368D01*
X112699522Y-34075789D01*
X112852262Y-33979816D01*
X112979816Y-33852262D01*
X113075789Y-33699522D01*
X113135368Y-33529255D01*
X113145161Y-33442329D01*
X113172226Y-33377918D01*
X113180690Y-33368543D01*
X114662416Y-31886819D01*
X114723739Y-31853334D01*
X114750097Y-31850500D01*
X126563331Y-31850500D01*
X126563347Y-31850501D01*
X126570943Y-31850501D01*
X126729054Y-31850501D01*
X126729057Y-31850501D01*
X126881785Y-31809577D01*
X126931904Y-31780639D01*
X127018716Y-31730520D01*
X127130520Y-31618716D01*
X127130520Y-31618714D01*
X127140728Y-31608507D01*
X127140730Y-31608504D01*
X129767072Y-28982161D01*
X129828393Y-28948678D01*
X129898085Y-28953662D01*
X129920719Y-28964848D01*
X129948275Y-28982163D01*
X130067632Y-29057161D01*
X130237902Y-29116741D01*
X130237907Y-29116742D01*
X130417153Y-29136938D01*
X130417157Y-29136938D01*
X130417161Y-29136938D01*
X130596406Y-29116742D01*
X130596409Y-29116741D01*
X130596412Y-29116741D01*
X130766679Y-29057162D01*
X130919419Y-28961189D01*
X131046973Y-28833635D01*
X131142946Y-28680895D01*
X131202525Y-28510628D01*
X131212225Y-28424529D01*
X131239290Y-28360119D01*
X131247754Y-28350744D01*
X132518535Y-27079963D01*
X132579856Y-27046480D01*
X132592311Y-27044428D01*
X132679255Y-27034633D01*
X132849522Y-26975054D01*
X133002262Y-26879081D01*
X133129816Y-26751527D01*
X133225789Y-26598787D01*
X133285368Y-26428520D01*
X133285369Y-26428514D01*
X133305565Y-26249268D01*
X133305565Y-26249261D01*
X133285369Y-26070015D01*
X133285368Y-26070010D01*
X133225787Y-25899738D01*
X133133195Y-25752380D01*
X133114194Y-25685144D01*
X133134561Y-25618309D01*
X133150502Y-25598732D01*
X134087825Y-24661410D01*
X134149148Y-24627925D01*
X134218840Y-24632909D01*
X134274773Y-24674781D01*
X134299190Y-24740245D01*
X134299506Y-24749091D01*
X134299506Y-29263336D01*
X134299505Y-29263354D01*
X134299505Y-29429060D01*
X134299504Y-29429060D01*
X134340429Y-29581791D01*
X134369364Y-29631906D01*
X134369365Y-29631910D01*
X134369366Y-29631910D01*
X134419485Y-29718720D01*
X134419487Y-29718723D01*
X134538355Y-29837591D01*
X134538361Y-29837596D01*
X135446662Y-30745897D01*
X135480147Y-30807220D01*
X135475163Y-30876912D01*
X135446663Y-30921259D01*
X135370183Y-30997739D01*
X135274211Y-31150476D01*
X135214631Y-31320745D01*
X135214630Y-31320750D01*
X135194435Y-31499996D01*
X135194435Y-31500003D01*
X135214630Y-31679249D01*
X135214631Y-31679254D01*
X135274211Y-31849523D01*
X135370185Y-32002263D01*
X135372445Y-32005097D01*
X135373334Y-32007275D01*
X135373889Y-32008158D01*
X135373734Y-32008255D01*
X135398855Y-32069783D01*
X135399500Y-32082412D01*
X135399500Y-32517587D01*
X135379815Y-32584626D01*
X135372450Y-32594896D01*
X135370186Y-32597734D01*
X135274211Y-32750476D01*
X135214631Y-32920745D01*
X135214630Y-32920750D01*
X135194435Y-33099996D01*
X135194435Y-33100003D01*
X135214630Y-33279249D01*
X135214631Y-33279254D01*
X135274211Y-33449523D01*
X135337646Y-33550478D01*
X135370184Y-33602262D01*
X135497738Y-33729816D01*
X135650478Y-33825789D01*
X135820745Y-33885368D01*
X135820750Y-33885369D01*
X135999996Y-33905565D01*
X136000000Y-33905565D01*
X136000004Y-33905565D01*
X136179249Y-33885369D01*
X136179252Y-33885368D01*
X136179255Y-33885368D01*
X136349522Y-33825789D01*
X136502262Y-33729816D01*
X136629816Y-33602262D01*
X136725789Y-33449522D01*
X136785368Y-33279255D01*
X136786390Y-33270184D01*
X136805565Y-33100003D01*
X136805565Y-33099996D01*
X136785369Y-32920750D01*
X136785368Y-32920745D01*
X136759821Y-32847737D01*
X136725789Y-32750478D01*
X136629816Y-32597738D01*
X136629814Y-32597736D01*
X136629813Y-32597734D01*
X136627550Y-32594896D01*
X136626659Y-32592715D01*
X136626111Y-32591842D01*
X136626264Y-32591745D01*
X136601144Y-32530209D01*
X136600500Y-32517587D01*
X136600500Y-32199097D01*
X136620185Y-32132058D01*
X136672989Y-32086303D01*
X136742147Y-32076359D01*
X136805703Y-32105384D01*
X136812181Y-32111416D01*
X138619298Y-33918533D01*
X138652783Y-33979856D01*
X138654837Y-33992330D01*
X138664630Y-34079249D01*
X138724210Y-34249521D01*
X138820184Y-34402262D01*
X138947738Y-34529816D01*
X139100478Y-34625789D01*
X139270745Y-34685368D01*
X139270750Y-34685369D01*
X139449996Y-34705565D01*
X139450000Y-34705565D01*
X139450004Y-34705565D01*
X139629249Y-34685369D01*
X139629252Y-34685368D01*
X139629255Y-34685368D01*
X139799522Y-34625789D01*
X139952262Y-34529816D01*
X140079816Y-34402262D01*
X140175789Y-34249522D01*
X140235368Y-34079255D01*
X140245162Y-33992330D01*
X140255565Y-33900003D01*
X140255565Y-33899996D01*
X140235369Y-33720750D01*
X140235368Y-33720745D01*
X140175788Y-33550476D01*
X140079815Y-33397737D01*
X139952262Y-33270184D01*
X139799521Y-33174210D01*
X139629249Y-33114630D01*
X139542330Y-33104837D01*
X139477916Y-33077770D01*
X139468533Y-33069298D01*
X135536825Y-29137590D01*
X135503340Y-29076267D01*
X135500506Y-29049909D01*
X135500506Y-25599999D01*
X149219464Y-25599999D01*
X149219464Y-25600000D01*
X149239564Y-25816918D01*
X149239564Y-25816920D01*
X149239565Y-25816923D01*
X149299183Y-26026459D01*
X149299184Y-26026462D01*
X149320871Y-26070015D01*
X149396288Y-26221472D01*
X149527573Y-26395322D01*
X149688568Y-26542088D01*
X149688575Y-26542092D01*
X149688576Y-26542093D01*
X149873786Y-26656770D01*
X149873792Y-26656773D01*
X149896664Y-26665633D01*
X150076931Y-26735470D01*
X150291074Y-26775500D01*
X150291076Y-26775500D01*
X150508924Y-26775500D01*
X150508926Y-26775500D01*
X150723069Y-26735470D01*
X150926210Y-26656772D01*
X151111432Y-26542088D01*
X151272427Y-26395322D01*
X151403712Y-26221472D01*
X151500817Y-26026459D01*
X151560435Y-25816923D01*
X151580536Y-25600000D01*
X151560435Y-25383077D01*
X151500817Y-25173541D01*
X151403712Y-24978528D01*
X151321950Y-24870257D01*
X151297259Y-24804898D01*
X151311824Y-24736563D01*
X151346594Y-24696265D01*
X151432190Y-24632186D01*
X151518350Y-24517093D01*
X151518354Y-24517086D01*
X151568596Y-24382379D01*
X151568598Y-24382372D01*
X151574999Y-24322844D01*
X151575000Y-24322827D01*
X151575000Y-23850000D01*
X150715686Y-23850000D01*
X150720080Y-23845606D01*
X150772741Y-23754394D01*
X150800000Y-23652661D01*
X150800000Y-23547339D01*
X150772741Y-23445606D01*
X150720080Y-23354394D01*
X150715686Y-23350000D01*
X151575000Y-23350000D01*
X151575000Y-22877172D01*
X151574999Y-22877155D01*
X151568598Y-22817627D01*
X151568596Y-22817620D01*
X151518354Y-22682913D01*
X151518350Y-22682906D01*
X151432190Y-22567812D01*
X151432187Y-22567809D01*
X151317093Y-22481649D01*
X151317086Y-22481645D01*
X151182379Y-22431403D01*
X151182372Y-22431401D01*
X151122844Y-22425000D01*
X150650000Y-22425000D01*
X150650000Y-23284314D01*
X150645606Y-23279920D01*
X150554394Y-23227259D01*
X150452661Y-23200000D01*
X150347339Y-23200000D01*
X150245606Y-23227259D01*
X150154394Y-23279920D01*
X150150000Y-23284314D01*
X150150000Y-22425000D01*
X149677155Y-22425000D01*
X149617627Y-22431401D01*
X149617620Y-22431403D01*
X149482913Y-22481645D01*
X149482906Y-22481649D01*
X149367812Y-22567809D01*
X149367809Y-22567812D01*
X149281649Y-22682906D01*
X149281645Y-22682913D01*
X149231403Y-22817620D01*
X149231401Y-22817627D01*
X149225000Y-22877155D01*
X149225000Y-23350000D01*
X150084314Y-23350000D01*
X150079920Y-23354394D01*
X150027259Y-23445606D01*
X150000000Y-23547339D01*
X150000000Y-23652661D01*
X150027259Y-23754394D01*
X150079920Y-23845606D01*
X150084314Y-23850000D01*
X149225000Y-23850000D01*
X149225000Y-24322844D01*
X149231401Y-24382372D01*
X149231403Y-24382379D01*
X149281645Y-24517086D01*
X149281649Y-24517093D01*
X149367809Y-24632186D01*
X149453405Y-24696264D01*
X149495276Y-24752198D01*
X149500260Y-24821890D01*
X149478049Y-24870257D01*
X149396288Y-24978528D01*
X149299184Y-25173537D01*
X149239564Y-25383081D01*
X149219464Y-25599999D01*
X135500506Y-25599999D01*
X135500506Y-21682412D01*
X135520191Y-21615373D01*
X135527561Y-21605097D01*
X135529816Y-21602267D01*
X135529822Y-21602262D01*
X135625795Y-21449522D01*
X135685374Y-21279255D01*
X135688191Y-21254254D01*
X135705571Y-21100003D01*
X135705571Y-21099996D01*
X135685375Y-20920750D01*
X135685374Y-20920745D01*
X135641834Y-20796315D01*
X135638273Y-20726536D01*
X135673002Y-20665908D01*
X135717920Y-20638318D01*
X135749522Y-20627261D01*
X135902262Y-20531288D01*
X136029816Y-20403734D01*
X136125789Y-20250994D01*
X136185368Y-20080727D01*
X136190480Y-20035359D01*
X136205565Y-19901475D01*
X136205565Y-19901468D01*
X136185369Y-19722222D01*
X136185368Y-19722217D01*
X136160852Y-19652155D01*
X180900000Y-19652155D01*
X180900000Y-20450000D01*
X181641759Y-20450000D01*
X181628822Y-20481233D01*
X181600000Y-20626131D01*
X181600000Y-20773869D01*
X181628822Y-20918767D01*
X181641759Y-20950000D01*
X180900000Y-20950000D01*
X180900000Y-21747844D01*
X180906401Y-21807372D01*
X180906403Y-21807379D01*
X180956645Y-21942086D01*
X180956649Y-21942093D01*
X181042809Y-22057187D01*
X181042812Y-22057190D01*
X181157906Y-22143350D01*
X181157913Y-22143354D01*
X181292620Y-22193596D01*
X181292627Y-22193598D01*
X181352155Y-22199999D01*
X181352172Y-22200000D01*
X182750000Y-22200000D01*
X182750000Y-21450000D01*
X183250000Y-21450000D01*
X183250000Y-22200000D01*
X184647828Y-22200000D01*
X184647844Y-22199999D01*
X184707372Y-22193598D01*
X184707379Y-22193596D01*
X184842086Y-22143354D01*
X184842093Y-22143350D01*
X184957187Y-22057190D01*
X184957190Y-22057187D01*
X185043350Y-21942093D01*
X185043354Y-21942086D01*
X185093596Y-21807379D01*
X185093598Y-21807372D01*
X185099999Y-21747844D01*
X185100000Y-21747827D01*
X185100000Y-20950000D01*
X184358241Y-20950000D01*
X184371178Y-20918767D01*
X184400000Y-20773869D01*
X184400000Y-20626131D01*
X184371178Y-20481233D01*
X184358241Y-20450000D01*
X185100000Y-20450000D01*
X185100000Y-19652172D01*
X185099999Y-19652155D01*
X185093598Y-19592627D01*
X185093596Y-19592620D01*
X185043354Y-19457913D01*
X185043350Y-19457906D01*
X184957190Y-19342812D01*
X184957187Y-19342809D01*
X184842093Y-19256649D01*
X184842086Y-19256645D01*
X184707379Y-19206403D01*
X184707372Y-19206401D01*
X184647844Y-19200000D01*
X183250000Y-19200000D01*
X183250000Y-19950000D01*
X182750000Y-19950000D01*
X182750000Y-19200000D01*
X181352155Y-19200000D01*
X181292627Y-19206401D01*
X181292620Y-19206403D01*
X181157913Y-19256645D01*
X181157906Y-19256649D01*
X181042812Y-19342809D01*
X181042809Y-19342812D01*
X180956649Y-19457906D01*
X180956645Y-19457913D01*
X180906403Y-19592620D01*
X180906401Y-19592627D01*
X180900000Y-19652155D01*
X136160852Y-19652155D01*
X136139065Y-19589890D01*
X136125789Y-19551950D01*
X136029816Y-19399210D01*
X135902262Y-19271656D01*
X135878372Y-19256645D01*
X135749521Y-19175682D01*
X135579249Y-19116102D01*
X135492330Y-19106309D01*
X135427916Y-19079242D01*
X135418533Y-19070770D01*
X134911081Y-18563318D01*
X134911079Y-18563315D01*
X134792208Y-18444444D01*
X134792207Y-18444443D01*
X134705395Y-18394323D01*
X134705395Y-18394322D01*
X134705391Y-18394321D01*
X134655276Y-18365386D01*
X134502548Y-18324462D01*
X134344434Y-18324462D01*
X134336838Y-18324462D01*
X134336822Y-18324463D01*
X127811706Y-18324463D01*
X127811690Y-18324462D01*
X127804094Y-18324462D01*
X127645980Y-18324462D01*
X127538624Y-18353228D01*
X127493247Y-18365387D01*
X127493246Y-18365388D01*
X127443133Y-18394322D01*
X127443132Y-18394323D01*
X127415790Y-18410109D01*
X127356322Y-18444442D01*
X127356319Y-18444444D01*
X127275982Y-18524782D01*
X127244517Y-18556247D01*
X127244515Y-18556249D01*
X125578862Y-20221903D01*
X123937584Y-21863181D01*
X123876261Y-21896666D01*
X123849903Y-21899500D01*
X92200097Y-21899500D01*
X92133058Y-21879815D01*
X92112416Y-21863181D01*
X91305700Y-21056465D01*
X91272215Y-20995142D01*
X91270163Y-20982686D01*
X91260368Y-20895745D01*
X91200789Y-20725478D01*
X91104816Y-20572738D01*
X90977262Y-20445184D01*
X90914788Y-20405929D01*
X90824523Y-20349211D01*
X90654254Y-20289631D01*
X90654249Y-20289630D01*
X90475004Y-20269435D01*
X90474996Y-20269435D01*
X90295750Y-20289630D01*
X90295745Y-20289631D01*
X90125476Y-20349211D01*
X89972737Y-20445184D01*
X89845184Y-20572737D01*
X89749211Y-20725476D01*
X89689631Y-20895745D01*
X89689630Y-20895750D01*
X89669435Y-21074996D01*
X89669435Y-21075003D01*
X89689630Y-21254249D01*
X89689631Y-21254254D01*
X89749211Y-21424523D01*
X89845184Y-21577262D01*
X89972738Y-21704816D01*
X90125478Y-21800789D01*
X90295745Y-21860368D01*
X90382669Y-21870161D01*
X90447080Y-21897226D01*
X90456465Y-21905700D01*
X91415139Y-22864374D01*
X91415149Y-22864385D01*
X91419479Y-22868715D01*
X91419480Y-22868716D01*
X91531284Y-22980520D01*
X91531286Y-22980521D01*
X91531290Y-22980524D01*
X91668209Y-23059573D01*
X91668216Y-23059577D01*
X91780019Y-23089534D01*
X91820942Y-23100500D01*
X91820943Y-23100500D01*
X124063331Y-23100500D01*
X124063347Y-23100501D01*
X124070943Y-23100501D01*
X124229054Y-23100501D01*
X124229057Y-23100501D01*
X124381785Y-23059577D01*
X124431904Y-23030639D01*
X124518716Y-22980520D01*
X124630520Y-22868716D01*
X124630520Y-22868714D01*
X124640728Y-22858507D01*
X124640729Y-22858504D01*
X127937453Y-19561782D01*
X127998776Y-19528297D01*
X128025134Y-19525463D01*
X134123394Y-19525463D01*
X134190433Y-19545148D01*
X134211075Y-19561782D01*
X134569298Y-19920005D01*
X134602783Y-19981328D01*
X134604837Y-19993802D01*
X134614630Y-20080721D01*
X134658172Y-20205157D01*
X134661733Y-20274936D01*
X134627004Y-20335563D01*
X134582088Y-20363151D01*
X134543914Y-20376510D01*
X134543163Y-20374364D01*
X134484861Y-20383963D01*
X134456412Y-20375609D01*
X134456097Y-20376510D01*
X134279265Y-20314633D01*
X134279252Y-20314630D01*
X134100007Y-20294435D01*
X134099999Y-20294435D01*
X133920753Y-20314630D01*
X133920740Y-20314633D01*
X133743909Y-20376510D01*
X133743160Y-20374369D01*
X133684824Y-20383958D01*
X133656408Y-20375611D01*
X133656094Y-20376510D01*
X133479262Y-20314633D01*
X133479249Y-20314630D01*
X133300004Y-20294435D01*
X133299996Y-20294435D01*
X133120750Y-20314630D01*
X133120737Y-20314633D01*
X132943906Y-20376510D01*
X132943155Y-20374364D01*
X132884856Y-20383962D01*
X132856409Y-20375609D01*
X132856094Y-20376510D01*
X132679262Y-20314633D01*
X132679249Y-20314630D01*
X132500004Y-20294435D01*
X132499996Y-20294435D01*
X132320750Y-20314630D01*
X132320745Y-20314631D01*
X132150476Y-20374211D01*
X131997737Y-20470184D01*
X131870184Y-20597737D01*
X131774211Y-20750476D01*
X131714631Y-20920745D01*
X131714630Y-20920750D01*
X131694435Y-21099996D01*
X131694435Y-21100003D01*
X131714630Y-21279249D01*
X131714631Y-21279254D01*
X131774211Y-21449523D01*
X131774511Y-21450000D01*
X131854475Y-21577262D01*
X131870185Y-21602263D01*
X131872445Y-21605097D01*
X131873334Y-21607275D01*
X131873889Y-21608158D01*
X131873734Y-21608255D01*
X131898855Y-21669783D01*
X131899500Y-21682412D01*
X131899500Y-23968531D01*
X131879815Y-24035570D01*
X131863181Y-24056212D01*
X126106212Y-29813181D01*
X126044889Y-29846666D01*
X126018531Y-29849500D01*
X52582412Y-29849500D01*
X52515373Y-29829815D01*
X52505097Y-29822445D01*
X52502263Y-29820185D01*
X52502262Y-29820184D01*
X52445496Y-29784515D01*
X52349523Y-29724211D01*
X52179254Y-29664631D01*
X52179249Y-29664630D01*
X52000004Y-29644435D01*
X51999996Y-29644435D01*
X51820750Y-29664630D01*
X51820745Y-29664631D01*
X51650476Y-29724211D01*
X51497737Y-29820184D01*
X51370184Y-29947737D01*
X51274211Y-30100476D01*
X51214631Y-30270745D01*
X51214630Y-30270750D01*
X51194435Y-30449996D01*
X500500Y-30449996D01*
X500500Y-19652155D01*
X14900000Y-19652155D01*
X14900000Y-20450000D01*
X15641759Y-20450000D01*
X15628822Y-20481233D01*
X15600000Y-20626131D01*
X15600000Y-20773869D01*
X15628822Y-20918767D01*
X15641759Y-20950000D01*
X14900000Y-20950000D01*
X14900000Y-21747844D01*
X14906401Y-21807372D01*
X14906403Y-21807379D01*
X14956645Y-21942086D01*
X14956649Y-21942093D01*
X15042809Y-22057187D01*
X15042812Y-22057190D01*
X15157906Y-22143350D01*
X15157913Y-22143354D01*
X15292620Y-22193596D01*
X15292627Y-22193598D01*
X15352155Y-22199999D01*
X15352172Y-22200000D01*
X16750000Y-22200000D01*
X16750000Y-21450000D01*
X17250000Y-21450000D01*
X17250000Y-22200000D01*
X18647828Y-22200000D01*
X18647844Y-22199999D01*
X18707372Y-22193598D01*
X18707379Y-22193596D01*
X18842086Y-22143354D01*
X18842093Y-22143350D01*
X18957187Y-22057190D01*
X18957190Y-22057187D01*
X19043350Y-21942093D01*
X19043354Y-21942086D01*
X19093596Y-21807379D01*
X19093598Y-21807372D01*
X19099999Y-21747844D01*
X19100000Y-21747827D01*
X19100000Y-20950000D01*
X18358241Y-20950000D01*
X18371178Y-20918767D01*
X18400000Y-20773869D01*
X18400000Y-20626131D01*
X18371178Y-20481233D01*
X18358241Y-20450000D01*
X19100000Y-20450000D01*
X19100000Y-19652172D01*
X19099999Y-19652155D01*
X19093598Y-19592627D01*
X19093596Y-19592620D01*
X19043354Y-19457913D01*
X19043350Y-19457906D01*
X18957190Y-19342812D01*
X18957187Y-19342809D01*
X18842093Y-19256649D01*
X18842086Y-19256645D01*
X18707379Y-19206403D01*
X18707372Y-19206401D01*
X18647844Y-19200000D01*
X17250000Y-19200000D01*
X17250000Y-19950000D01*
X16750000Y-19950000D01*
X16750000Y-19200000D01*
X15352155Y-19200000D01*
X15292627Y-19206401D01*
X15292620Y-19206403D01*
X15157913Y-19256645D01*
X15157906Y-19256649D01*
X15042812Y-19342809D01*
X15042809Y-19342812D01*
X14956649Y-19457906D01*
X14956645Y-19457913D01*
X14906403Y-19592620D01*
X14906401Y-19592627D01*
X14900000Y-19652155D01*
X500500Y-19652155D01*
X500500Y-17599994D01*
X7994357Y-17599994D01*
X7994357Y-17600005D01*
X8014890Y-17847812D01*
X8014892Y-17847824D01*
X8075936Y-18088881D01*
X8175826Y-18316606D01*
X8311833Y-18524782D01*
X8311836Y-18524785D01*
X8480256Y-18707738D01*
X8676491Y-18860474D01*
X8895190Y-18978828D01*
X9130386Y-19059571D01*
X9375665Y-19100500D01*
X9624335Y-19100500D01*
X9869614Y-19059571D01*
X10104810Y-18978828D01*
X10323509Y-18860474D01*
X10519744Y-18707738D01*
X10688164Y-18524785D01*
X10824173Y-18316607D01*
X10924063Y-18088881D01*
X10985108Y-17847821D01*
X10985109Y-17847812D01*
X11005643Y-17600005D01*
X11005643Y-17599994D01*
X22494357Y-17599994D01*
X22494357Y-17600005D01*
X22514890Y-17847812D01*
X22514892Y-17847824D01*
X22575936Y-18088881D01*
X22675826Y-18316606D01*
X22811833Y-18524782D01*
X22811836Y-18524785D01*
X22980256Y-18707738D01*
X23176491Y-18860474D01*
X23395190Y-18978828D01*
X23630386Y-19059571D01*
X23875665Y-19100500D01*
X24124335Y-19100500D01*
X24369614Y-19059571D01*
X24604810Y-18978828D01*
X24823509Y-18860474D01*
X25019744Y-18707738D01*
X25188164Y-18524785D01*
X25324173Y-18316607D01*
X25424063Y-18088881D01*
X25485108Y-17847821D01*
X25485109Y-17847812D01*
X25505643Y-17600005D01*
X25505643Y-17599994D01*
X25485109Y-17352187D01*
X25485107Y-17352175D01*
X25424063Y-17111118D01*
X25324173Y-16883393D01*
X25188166Y-16675217D01*
X25166557Y-16651744D01*
X25019744Y-16492262D01*
X24823509Y-16339526D01*
X24823507Y-16339525D01*
X24823506Y-16339524D01*
X24604811Y-16221172D01*
X24604802Y-16221169D01*
X24369616Y-16140429D01*
X24124335Y-16099500D01*
X23875665Y-16099500D01*
X23630383Y-16140429D01*
X23395197Y-16221169D01*
X23395188Y-16221172D01*
X23176493Y-16339524D01*
X22980257Y-16492261D01*
X22811833Y-16675217D01*
X22675826Y-16883393D01*
X22575936Y-17111118D01*
X22514892Y-17352175D01*
X22514890Y-17352187D01*
X22494357Y-17599994D01*
X11005643Y-17599994D01*
X10985109Y-17352187D01*
X10985107Y-17352175D01*
X10924063Y-17111118D01*
X10824173Y-16883393D01*
X10688166Y-16675217D01*
X10667860Y-16653159D01*
X10519744Y-16492262D01*
X10418623Y-16413556D01*
X10377810Y-16356846D01*
X10373697Y-16327249D01*
X9629409Y-15582962D01*
X9692993Y-15565925D01*
X9807007Y-15500099D01*
X9900099Y-15407007D01*
X9965925Y-15292993D01*
X9982962Y-15229410D01*
X10723434Y-15969882D01*
X10823731Y-15816369D01*
X10923587Y-15588717D01*
X10984612Y-15347738D01*
X10984614Y-15347729D01*
X11005141Y-15100005D01*
X11005141Y-15099994D01*
X10984614Y-14852270D01*
X10984612Y-14852261D01*
X10923587Y-14611282D01*
X10823732Y-14383632D01*
X10711515Y-14211870D01*
X10691328Y-14144981D01*
X10710508Y-14077795D01*
X10741013Y-14044782D01*
X10742329Y-14043796D01*
X10742331Y-14043796D01*
X10857546Y-13957546D01*
X10943796Y-13842331D01*
X10994091Y-13707483D01*
X11000500Y-13647873D01*
X11000499Y-12599994D01*
X22494357Y-12599994D01*
X22494357Y-12600005D01*
X22514890Y-12847812D01*
X22514892Y-12847824D01*
X22575936Y-13088881D01*
X22675826Y-13316606D01*
X22811833Y-13524782D01*
X22811836Y-13524785D01*
X22980256Y-13707738D01*
X23176491Y-13860474D01*
X23395190Y-13978828D01*
X23630386Y-14059571D01*
X23875665Y-14100500D01*
X24124335Y-14100500D01*
X24369614Y-14059571D01*
X24604810Y-13978828D01*
X24823509Y-13860474D01*
X24938779Y-13770756D01*
X35749500Y-13770756D01*
X35749500Y-14229243D01*
X35789460Y-14685985D01*
X35789460Y-14685987D01*
X35862461Y-15099994D01*
X35869074Y-15137499D01*
X35987739Y-15580360D01*
X35987742Y-15580370D01*
X35987743Y-15580371D01*
X36144546Y-16011189D01*
X36144550Y-16011199D01*
X36338308Y-16426711D01*
X36338316Y-16426727D01*
X36497397Y-16702262D01*
X36567555Y-16823779D01*
X36567559Y-16823785D01*
X36567566Y-16823796D01*
X36830530Y-17199348D01*
X37039614Y-17448524D01*
X37125237Y-17550566D01*
X37449434Y-17874763D01*
X37595469Y-17997301D01*
X37800651Y-18169469D01*
X38176203Y-18432433D01*
X38176210Y-18432437D01*
X38176221Y-18432445D01*
X38573279Y-18661687D01*
X38573288Y-18661691D01*
X38988800Y-18855449D01*
X38988810Y-18855453D01*
X39142583Y-18911421D01*
X39419640Y-19012261D01*
X39862501Y-19130926D01*
X40314019Y-19210540D01*
X40770756Y-19250499D01*
X40770757Y-19250500D01*
X40770758Y-19250500D01*
X41229243Y-19250500D01*
X41229243Y-19250499D01*
X41685981Y-19210540D01*
X42137499Y-19130926D01*
X42580360Y-19012261D01*
X42857417Y-18911421D01*
X93794500Y-18911421D01*
X93794500Y-19088578D01*
X93822214Y-19263556D01*
X93876956Y-19432039D01*
X93876957Y-19432042D01*
X93943064Y-19561782D01*
X93957386Y-19589890D01*
X94061517Y-19733214D01*
X94186786Y-19858483D01*
X94330110Y-19962614D01*
X94391320Y-19993802D01*
X94487957Y-20043042D01*
X94487960Y-20043043D01*
X94572201Y-20070414D01*
X94656445Y-20097786D01*
X94831421Y-20125500D01*
X94831422Y-20125500D01*
X95008578Y-20125500D01*
X95008579Y-20125500D01*
X95183555Y-20097786D01*
X95352042Y-20043042D01*
X95509890Y-19962614D01*
X95653214Y-19858483D01*
X95778483Y-19733214D01*
X95882614Y-19589890D01*
X95963042Y-19432042D01*
X96017786Y-19263555D01*
X96045500Y-19088579D01*
X96045500Y-18911421D01*
X96036165Y-18852486D01*
X97749500Y-18852486D01*
X97749500Y-19147513D01*
X97781571Y-19391113D01*
X97788007Y-19439993D01*
X97844860Y-19652172D01*
X97864361Y-19724951D01*
X97864364Y-19724961D01*
X97977254Y-19997500D01*
X97977258Y-19997510D01*
X98124761Y-20252993D01*
X98304352Y-20487040D01*
X98304358Y-20487047D01*
X98512952Y-20695641D01*
X98512959Y-20695647D01*
X98747006Y-20875238D01*
X99002489Y-21022741D01*
X99002490Y-21022741D01*
X99002493Y-21022743D01*
X99275048Y-21135639D01*
X99560007Y-21211993D01*
X99852494Y-21250500D01*
X99852501Y-21250500D01*
X100147499Y-21250500D01*
X100147506Y-21250500D01*
X100439993Y-21211993D01*
X100724952Y-21135639D01*
X100997507Y-21022743D01*
X101252994Y-20875238D01*
X101487042Y-20695646D01*
X101695646Y-20487042D01*
X101875238Y-20252994D01*
X102022743Y-19997507D01*
X102135639Y-19724952D01*
X102211993Y-19439993D01*
X102250500Y-19147506D01*
X102250500Y-18911421D01*
X103954500Y-18911421D01*
X103954500Y-19088578D01*
X103982214Y-19263556D01*
X104036956Y-19432039D01*
X104036957Y-19432042D01*
X104103064Y-19561782D01*
X104117386Y-19589890D01*
X104221517Y-19733214D01*
X104346786Y-19858483D01*
X104490110Y-19962614D01*
X104551320Y-19993802D01*
X104647957Y-20043042D01*
X104647960Y-20043043D01*
X104732201Y-20070414D01*
X104816445Y-20097786D01*
X104991421Y-20125500D01*
X104991422Y-20125500D01*
X105168578Y-20125500D01*
X105168579Y-20125500D01*
X105343555Y-20097786D01*
X105512042Y-20043042D01*
X105669890Y-19962614D01*
X105813214Y-19858483D01*
X105938483Y-19733214D01*
X105998942Y-19649999D01*
X109094341Y-19649999D01*
X109094341Y-19650000D01*
X109114936Y-19885403D01*
X109114938Y-19885413D01*
X109176094Y-20113655D01*
X109176096Y-20113659D01*
X109176097Y-20113663D01*
X109258153Y-20289632D01*
X109275965Y-20327830D01*
X109275967Y-20327834D01*
X109358137Y-20445184D01*
X109411505Y-20521401D01*
X109578599Y-20688495D01*
X109667117Y-20750476D01*
X109772165Y-20824032D01*
X109772167Y-20824033D01*
X109772170Y-20824035D01*
X109986337Y-20923903D01*
X110214592Y-20985063D01*
X110391034Y-21000500D01*
X110449999Y-21005659D01*
X110450000Y-21005659D01*
X110450001Y-21005659D01*
X110508966Y-21000500D01*
X110685408Y-20985063D01*
X110913663Y-20923903D01*
X111127830Y-20824035D01*
X111321401Y-20688495D01*
X111488495Y-20521401D01*
X111618730Y-20335405D01*
X111673307Y-20291781D01*
X111742805Y-20284587D01*
X111805160Y-20316110D01*
X111821879Y-20335405D01*
X111951890Y-20521078D01*
X112118917Y-20688105D01*
X112312421Y-20823600D01*
X112526507Y-20923429D01*
X112526516Y-20923433D01*
X112740000Y-20980634D01*
X112740000Y-20083012D01*
X112797007Y-20115925D01*
X112924174Y-20150000D01*
X113055826Y-20150000D01*
X113182993Y-20115925D01*
X113240000Y-20083012D01*
X113240000Y-20980633D01*
X113453483Y-20923433D01*
X113453492Y-20923429D01*
X113667578Y-20823600D01*
X113861078Y-20688108D01*
X113983133Y-20566053D01*
X114044456Y-20532568D01*
X114114148Y-20537552D01*
X114170082Y-20579423D01*
X114186997Y-20610401D01*
X114236202Y-20742328D01*
X114236206Y-20742335D01*
X114322452Y-20857544D01*
X114322455Y-20857547D01*
X114437664Y-20943793D01*
X114437671Y-20943797D01*
X114572517Y-20994091D01*
X114572516Y-20994091D01*
X114579444Y-20994835D01*
X114632127Y-21000500D01*
X116427872Y-21000499D01*
X116487483Y-20994091D01*
X116622331Y-20943796D01*
X116737546Y-20857546D01*
X116823796Y-20742331D01*
X116874091Y-20607483D01*
X116880500Y-20547873D01*
X116880499Y-18752128D01*
X116874091Y-18692517D01*
X116873002Y-18689598D01*
X116823797Y-18557671D01*
X116823793Y-18557664D01*
X116737547Y-18442455D01*
X116737544Y-18442452D01*
X116622335Y-18356206D01*
X116622328Y-18356202D01*
X116487482Y-18305908D01*
X116487483Y-18305908D01*
X116427883Y-18299501D01*
X116427881Y-18299500D01*
X116427873Y-18299500D01*
X116427864Y-18299500D01*
X114632129Y-18299500D01*
X114632123Y-18299501D01*
X114572516Y-18305908D01*
X114437671Y-18356202D01*
X114437664Y-18356206D01*
X114322455Y-18442452D01*
X114322452Y-18442455D01*
X114236206Y-18557664D01*
X114236202Y-18557671D01*
X114186997Y-18689598D01*
X114145126Y-18745532D01*
X114079661Y-18769949D01*
X114011388Y-18755097D01*
X113983134Y-18733946D01*
X113861082Y-18611894D01*
X113667578Y-18476399D01*
X113453492Y-18376570D01*
X113453486Y-18376567D01*
X113240000Y-18319364D01*
X113240000Y-19216988D01*
X113182993Y-19184075D01*
X113055826Y-19150000D01*
X112924174Y-19150000D01*
X112797007Y-19184075D01*
X112740000Y-19216988D01*
X112740000Y-18319364D01*
X112739999Y-18319364D01*
X112526513Y-18376567D01*
X112526507Y-18376570D01*
X112312422Y-18476399D01*
X112312420Y-18476400D01*
X112118926Y-18611886D01*
X112118920Y-18611891D01*
X111951891Y-18778920D01*
X111951890Y-18778922D01*
X111821880Y-18964595D01*
X111767303Y-19008219D01*
X111697804Y-19015412D01*
X111635450Y-18983890D01*
X111618730Y-18964594D01*
X111488494Y-18778597D01*
X111321402Y-18611506D01*
X111321395Y-18611501D01*
X111127834Y-18475967D01*
X111127830Y-18475965D01*
X111060229Y-18444442D01*
X110913663Y-18376097D01*
X110913659Y-18376096D01*
X110913655Y-18376094D01*
X110685413Y-18314938D01*
X110685403Y-18314936D01*
X110450001Y-18294341D01*
X110449999Y-18294341D01*
X110214596Y-18314936D01*
X110214586Y-18314938D01*
X109986344Y-18376094D01*
X109986335Y-18376098D01*
X109772171Y-18475964D01*
X109772169Y-18475965D01*
X109578597Y-18611505D01*
X109411505Y-18778597D01*
X109275965Y-18972169D01*
X109275964Y-18972171D01*
X109176098Y-19186335D01*
X109176094Y-19186344D01*
X109114938Y-19414586D01*
X109114936Y-19414596D01*
X109094341Y-19649999D01*
X105998942Y-19649999D01*
X106042614Y-19589890D01*
X106123042Y-19432042D01*
X106177786Y-19263555D01*
X106205500Y-19088579D01*
X106205500Y-18911421D01*
X106177786Y-18736445D01*
X106150414Y-18652201D01*
X106123043Y-18567960D01*
X106123042Y-18567957D01*
X106060108Y-18444444D01*
X106042614Y-18410110D01*
X105938483Y-18266786D01*
X105813214Y-18141517D01*
X105669890Y-18037386D01*
X105512042Y-17956957D01*
X105512039Y-17956956D01*
X105343556Y-17902214D01*
X105256067Y-17888357D01*
X105168579Y-17874500D01*
X104991421Y-17874500D01*
X104933095Y-17883738D01*
X104816443Y-17902214D01*
X104647960Y-17956956D01*
X104647957Y-17956957D01*
X104490109Y-18037386D01*
X104419233Y-18088881D01*
X104346786Y-18141517D01*
X104346784Y-18141519D01*
X104346783Y-18141519D01*
X104221519Y-18266783D01*
X104221519Y-18266784D01*
X104221517Y-18266786D01*
X104186534Y-18314936D01*
X104117386Y-18410109D01*
X104036957Y-18567957D01*
X104036956Y-18567960D01*
X103982214Y-18736443D01*
X103954500Y-18911421D01*
X102250500Y-18911421D01*
X102250500Y-18852494D01*
X102211993Y-18560007D01*
X102135639Y-18275048D01*
X102134615Y-18272577D01*
X102080329Y-18141519D01*
X102022743Y-18002493D01*
X101996453Y-17956958D01*
X101875238Y-17747006D01*
X101695647Y-17512959D01*
X101695641Y-17512952D01*
X101487047Y-17304358D01*
X101487040Y-17304352D01*
X101252993Y-17124761D01*
X100997510Y-16977258D01*
X100997500Y-16977254D01*
X100724961Y-16864364D01*
X100724954Y-16864362D01*
X100724952Y-16864361D01*
X100439993Y-16788007D01*
X100391113Y-16781571D01*
X100147513Y-16749500D01*
X100147506Y-16749500D01*
X99852494Y-16749500D01*
X99852486Y-16749500D01*
X99574085Y-16786153D01*
X99560007Y-16788007D01*
X99403973Y-16829816D01*
X99275048Y-16864361D01*
X99275038Y-16864364D01*
X99002499Y-16977254D01*
X99002489Y-16977258D01*
X98747006Y-17124761D01*
X98512959Y-17304352D01*
X98512952Y-17304358D01*
X98304358Y-17512952D01*
X98304352Y-17512959D01*
X98124761Y-17747006D01*
X97977258Y-18002489D01*
X97977254Y-18002499D01*
X97864364Y-18275038D01*
X97864361Y-18275048D01*
X97788007Y-18560007D01*
X97787571Y-18563318D01*
X97749500Y-18852486D01*
X96036165Y-18852486D01*
X96017786Y-18736445D01*
X95990414Y-18652201D01*
X95963043Y-18567960D01*
X95963040Y-18567952D01*
X95880513Y-18405987D01*
X95867616Y-18337317D01*
X95893892Y-18272577D01*
X95950998Y-18232319D01*
X96007181Y-18226752D01*
X96066564Y-18234570D01*
X96073612Y-18235498D01*
X96073628Y-18235500D01*
X96073635Y-18235500D01*
X96306365Y-18235500D01*
X96306372Y-18235500D01*
X96537126Y-18205121D01*
X96761940Y-18144882D01*
X96897140Y-18088881D01*
X96976960Y-18055819D01*
X96976963Y-18055817D01*
X96976969Y-18055815D01*
X97178532Y-17939442D01*
X97363181Y-17797756D01*
X97527756Y-17633181D01*
X97669442Y-17448532D01*
X97785815Y-17246969D01*
X97805541Y-17199347D01*
X97874879Y-17031947D01*
X97874878Y-17031947D01*
X97874882Y-17031940D01*
X97935121Y-16807126D01*
X97965500Y-16576372D01*
X97965500Y-16343628D01*
X97946591Y-16199996D01*
X133694435Y-16199996D01*
X133694435Y-16200003D01*
X133714630Y-16379249D01*
X133714631Y-16379254D01*
X133774211Y-16549523D01*
X133791088Y-16576382D01*
X133870184Y-16702262D01*
X133997738Y-16829816D01*
X134150478Y-16925789D01*
X134297557Y-16977254D01*
X134320745Y-16985368D01*
X134320750Y-16985369D01*
X134499996Y-17005565D01*
X134500000Y-17005565D01*
X134500004Y-17005565D01*
X134679249Y-16985369D01*
X134679252Y-16985368D01*
X134679255Y-16985368D01*
X134849522Y-16925789D01*
X135002262Y-16829816D01*
X135129816Y-16702262D01*
X135225789Y-16549522D01*
X135285368Y-16379255D01*
X135287893Y-16356846D01*
X135305565Y-16200003D01*
X135305565Y-16199996D01*
X135285369Y-16020750D01*
X135285368Y-16020745D01*
X135267570Y-15969882D01*
X135225789Y-15850478D01*
X135129816Y-15697738D01*
X135129814Y-15697736D01*
X135129813Y-15697734D01*
X135127550Y-15694896D01*
X135126659Y-15692715D01*
X135126111Y-15691842D01*
X135126264Y-15691745D01*
X135101144Y-15630209D01*
X135100500Y-15617587D01*
X135100500Y-14343706D01*
X135120185Y-14276667D01*
X135158529Y-14238712D01*
X135252259Y-14179818D01*
X135252259Y-14179817D01*
X135252262Y-14179816D01*
X135379816Y-14052262D01*
X135475789Y-13899522D01*
X135520846Y-13770756D01*
X153749500Y-13770756D01*
X153749500Y-14229243D01*
X153789460Y-14685985D01*
X153789460Y-14685987D01*
X153862461Y-15099994D01*
X153869074Y-15137499D01*
X153987739Y-15580360D01*
X153987742Y-15580370D01*
X153987743Y-15580371D01*
X154144546Y-16011189D01*
X154144550Y-16011199D01*
X154338308Y-16426711D01*
X154338316Y-16426727D01*
X154497397Y-16702262D01*
X154567555Y-16823779D01*
X154567559Y-16823785D01*
X154567566Y-16823796D01*
X154830530Y-17199348D01*
X155039614Y-17448524D01*
X155125237Y-17550566D01*
X155449434Y-17874763D01*
X155595469Y-17997301D01*
X155800651Y-18169469D01*
X156176203Y-18432433D01*
X156176210Y-18432437D01*
X156176221Y-18432445D01*
X156573279Y-18661687D01*
X156573288Y-18661691D01*
X156988800Y-18855449D01*
X156988810Y-18855453D01*
X157142583Y-18911421D01*
X157419640Y-19012261D01*
X157862501Y-19130926D01*
X158314019Y-19210540D01*
X158770756Y-19250499D01*
X158770757Y-19250500D01*
X158770758Y-19250500D01*
X159229243Y-19250500D01*
X159229243Y-19250499D01*
X159685981Y-19210540D01*
X160137499Y-19130926D01*
X160580360Y-19012261D01*
X160997391Y-18860475D01*
X161011189Y-18855453D01*
X161011199Y-18855449D01*
X161266402Y-18736445D01*
X161426721Y-18661687D01*
X161823779Y-18432445D01*
X162199347Y-18169470D01*
X162550566Y-17874763D01*
X162825335Y-17599994D01*
X173994357Y-17599994D01*
X173994357Y-17600005D01*
X174014890Y-17847812D01*
X174014892Y-17847824D01*
X174075936Y-18088881D01*
X174175826Y-18316606D01*
X174311833Y-18524782D01*
X174311836Y-18524785D01*
X174480256Y-18707738D01*
X174676491Y-18860474D01*
X174895190Y-18978828D01*
X175130386Y-19059571D01*
X175375665Y-19100500D01*
X175624335Y-19100500D01*
X175869614Y-19059571D01*
X176104810Y-18978828D01*
X176323509Y-18860474D01*
X176519744Y-18707738D01*
X176688164Y-18524785D01*
X176824173Y-18316607D01*
X176924063Y-18088881D01*
X176985108Y-17847821D01*
X176985109Y-17847812D01*
X177005643Y-17600005D01*
X177005643Y-17599994D01*
X188494357Y-17599994D01*
X188494357Y-17600005D01*
X188514890Y-17847812D01*
X188514892Y-17847824D01*
X188575936Y-18088881D01*
X188675826Y-18316606D01*
X188811833Y-18524782D01*
X188811836Y-18524785D01*
X188980256Y-18707738D01*
X189176491Y-18860474D01*
X189395190Y-18978828D01*
X189630386Y-19059571D01*
X189875665Y-19100500D01*
X190124335Y-19100500D01*
X190369614Y-19059571D01*
X190604810Y-18978828D01*
X190823509Y-18860474D01*
X191019744Y-18707738D01*
X191188164Y-18524785D01*
X191324173Y-18316607D01*
X191424063Y-18088881D01*
X191485108Y-17847821D01*
X191485109Y-17847812D01*
X191505643Y-17600005D01*
X191505643Y-17599994D01*
X191485109Y-17352187D01*
X191485107Y-17352175D01*
X191424063Y-17111118D01*
X191324173Y-16883393D01*
X191188166Y-16675217D01*
X191166557Y-16651744D01*
X191019744Y-16492262D01*
X190823509Y-16339526D01*
X190823507Y-16339525D01*
X190823506Y-16339524D01*
X190604811Y-16221172D01*
X190604802Y-16221169D01*
X190369616Y-16140429D01*
X190124335Y-16099500D01*
X189875665Y-16099500D01*
X189630383Y-16140429D01*
X189395197Y-16221169D01*
X189395188Y-16221172D01*
X189176493Y-16339524D01*
X188980257Y-16492261D01*
X188811833Y-16675217D01*
X188675826Y-16883393D01*
X188575936Y-17111118D01*
X188514892Y-17352175D01*
X188514890Y-17352187D01*
X188494357Y-17599994D01*
X177005643Y-17599994D01*
X176985109Y-17352187D01*
X176985107Y-17352175D01*
X176924063Y-17111118D01*
X176824173Y-16883393D01*
X176688166Y-16675217D01*
X176667860Y-16653159D01*
X176519744Y-16492262D01*
X176418623Y-16413556D01*
X176377810Y-16356846D01*
X176373697Y-16327249D01*
X175629409Y-15582962D01*
X175692993Y-15565925D01*
X175807007Y-15500099D01*
X175900099Y-15407007D01*
X175965925Y-15292993D01*
X175982962Y-15229410D01*
X176723434Y-15969882D01*
X176823731Y-15816369D01*
X176923587Y-15588717D01*
X176984612Y-15347738D01*
X176984614Y-15347729D01*
X177005141Y-15100005D01*
X177005141Y-15099994D01*
X176984614Y-14852270D01*
X176984612Y-14852261D01*
X176923587Y-14611282D01*
X176823732Y-14383632D01*
X176711515Y-14211870D01*
X176691328Y-14144981D01*
X176710508Y-14077795D01*
X176741013Y-14044782D01*
X176742329Y-14043796D01*
X176742331Y-14043796D01*
X176857546Y-13957546D01*
X176943796Y-13842331D01*
X176994091Y-13707483D01*
X177000500Y-13647873D01*
X177000499Y-12599994D01*
X188494357Y-12599994D01*
X188494357Y-12600005D01*
X188514890Y-12847812D01*
X188514892Y-12847824D01*
X188575936Y-13088881D01*
X188675826Y-13316606D01*
X188811833Y-13524782D01*
X188811836Y-13524785D01*
X188980256Y-13707738D01*
X189176491Y-13860474D01*
X189395190Y-13978828D01*
X189630386Y-14059571D01*
X189875665Y-14100500D01*
X190124335Y-14100500D01*
X190369614Y-14059571D01*
X190604810Y-13978828D01*
X190823509Y-13860474D01*
X191019744Y-13707738D01*
X191188164Y-13524785D01*
X191324173Y-13316607D01*
X191424063Y-13088881D01*
X191485108Y-12847821D01*
X191485109Y-12847812D01*
X191505643Y-12600005D01*
X191505643Y-12599994D01*
X191485109Y-12352187D01*
X191485107Y-12352175D01*
X191424063Y-12111118D01*
X191324173Y-11883393D01*
X191188166Y-11675217D01*
X191166557Y-11651744D01*
X191019744Y-11492262D01*
X190823509Y-11339526D01*
X190823507Y-11339525D01*
X190823506Y-11339524D01*
X190604811Y-11221172D01*
X190604802Y-11221169D01*
X190369616Y-11140429D01*
X190124335Y-11099500D01*
X189875665Y-11099500D01*
X189630383Y-11140429D01*
X189395197Y-11221169D01*
X189395188Y-11221172D01*
X189176493Y-11339524D01*
X189153178Y-11357671D01*
X188980256Y-11492262D01*
X188972693Y-11500478D01*
X188811833Y-11675217D01*
X188675826Y-11883393D01*
X188575936Y-12111118D01*
X188514892Y-12352175D01*
X188514890Y-12352187D01*
X188494357Y-12599994D01*
X177000499Y-12599994D01*
X177000499Y-11552128D01*
X176994091Y-11492517D01*
X176943796Y-11357669D01*
X176943795Y-11357668D01*
X176943793Y-11357664D01*
X176857547Y-11242455D01*
X176857544Y-11242452D01*
X176742335Y-11156206D01*
X176742328Y-11156202D01*
X176607482Y-11105908D01*
X176607483Y-11105908D01*
X176547883Y-11099501D01*
X176547881Y-11099500D01*
X176547873Y-11099500D01*
X176547864Y-11099500D01*
X174452129Y-11099500D01*
X174452123Y-11099501D01*
X174392516Y-11105908D01*
X174257671Y-11156202D01*
X174257664Y-11156206D01*
X174142455Y-11242452D01*
X174142452Y-11242455D01*
X174056206Y-11357664D01*
X174056202Y-11357671D01*
X174005908Y-11492517D01*
X173999501Y-11552116D01*
X173999501Y-11552123D01*
X173999500Y-11552135D01*
X173999500Y-13647870D01*
X173999501Y-13647876D01*
X174005908Y-13707483D01*
X174056202Y-13842328D01*
X174056206Y-13842335D01*
X174142452Y-13957544D01*
X174142455Y-13957547D01*
X174258986Y-14044783D01*
X174300857Y-14100717D01*
X174305841Y-14170408D01*
X174288484Y-14211870D01*
X174176267Y-14383631D01*
X174076412Y-14611282D01*
X174015387Y-14852261D01*
X174015385Y-14852270D01*
X173994859Y-15099994D01*
X173994859Y-15100005D01*
X174015385Y-15347729D01*
X174015387Y-15347738D01*
X174076412Y-15588717D01*
X174176266Y-15816364D01*
X174276564Y-15969882D01*
X175017037Y-15229408D01*
X175034075Y-15292993D01*
X175099901Y-15407007D01*
X175192993Y-15500099D01*
X175307007Y-15565925D01*
X175370590Y-15582962D01*
X174624100Y-16329450D01*
X174613482Y-16376148D01*
X174581376Y-16413556D01*
X174480255Y-16492262D01*
X174311833Y-16675217D01*
X174175826Y-16883393D01*
X174075936Y-17111118D01*
X174014892Y-17352175D01*
X174014890Y-17352187D01*
X173994357Y-17599994D01*
X162825335Y-17599994D01*
X162874763Y-17550566D01*
X163169470Y-17199347D01*
X163432445Y-16823779D01*
X163661687Y-16426721D01*
X163850995Y-16020750D01*
X163855449Y-16011199D01*
X163855453Y-16011189D01*
X163900271Y-15888052D01*
X164012261Y-15580360D01*
X164130926Y-15137499D01*
X164210540Y-14685981D01*
X164250500Y-14229242D01*
X164250500Y-13770758D01*
X164210540Y-13314019D01*
X164201605Y-13263348D01*
X164163588Y-13047737D01*
X164130926Y-12862501D01*
X164012261Y-12419640D01*
X163899969Y-12111118D01*
X163855453Y-11988810D01*
X163855449Y-11988800D01*
X163661691Y-11573288D01*
X163661683Y-11573272D01*
X163537201Y-11357664D01*
X163432445Y-11176221D01*
X163432437Y-11176210D01*
X163432433Y-11176203D01*
X163169469Y-10800651D01*
X162983690Y-10579249D01*
X162874763Y-10449434D01*
X162550566Y-10125237D01*
X162375211Y-9978097D01*
X162199348Y-9830530D01*
X161823796Y-9567566D01*
X161823785Y-9567559D01*
X161823779Y-9567555D01*
X161576039Y-9424522D01*
X161426727Y-9338316D01*
X161426711Y-9338308D01*
X161011199Y-9144550D01*
X161011189Y-9144546D01*
X160580371Y-8987743D01*
X160580370Y-8987742D01*
X160580360Y-8987739D01*
X160237036Y-8895745D01*
X160137500Y-8869074D01*
X160137489Y-8869072D01*
X159685986Y-8789460D01*
X159229243Y-8749500D01*
X159229242Y-8749500D01*
X158770758Y-8749500D01*
X158770757Y-8749500D01*
X158314014Y-8789460D01*
X158314012Y-8789460D01*
X157862510Y-8869072D01*
X157862499Y-8869074D01*
X157625169Y-8932667D01*
X157419640Y-8987739D01*
X157419633Y-8987741D01*
X157419628Y-8987743D01*
X156988810Y-9144546D01*
X156988800Y-9144550D01*
X156573288Y-9338308D01*
X156573272Y-9338316D01*
X156176229Y-9567550D01*
X156176203Y-9567566D01*
X155800651Y-9830530D01*
X155449431Y-10125239D01*
X155125239Y-10449431D01*
X154830530Y-10800651D01*
X154567566Y-11176203D01*
X154567550Y-11176229D01*
X154338316Y-11573272D01*
X154338308Y-11573288D01*
X154144550Y-11988800D01*
X154144546Y-11988810D01*
X154010081Y-12358255D01*
X153987739Y-12419640D01*
X153944170Y-12582242D01*
X153869074Y-12862499D01*
X153869072Y-12862510D01*
X153789460Y-13314012D01*
X153789460Y-13314014D01*
X153749500Y-13770756D01*
X135520846Y-13770756D01*
X135535368Y-13729255D01*
X135536305Y-13720943D01*
X135555565Y-13550003D01*
X135555565Y-13549996D01*
X135535369Y-13370750D01*
X135535368Y-13370745D01*
X135475788Y-13200476D01*
X135379815Y-13047737D01*
X135252261Y-12920183D01*
X135208528Y-12892704D01*
X135162237Y-12840370D01*
X135150500Y-12787710D01*
X135150500Y-12432412D01*
X135170185Y-12365373D01*
X135177555Y-12355097D01*
X135179810Y-12352267D01*
X135179816Y-12352262D01*
X135275789Y-12199522D01*
X135335368Y-12029255D01*
X135339925Y-11988810D01*
X135355565Y-11850003D01*
X135355565Y-11849996D01*
X135335369Y-11670750D01*
X135335368Y-11670745D01*
X135301261Y-11573272D01*
X135275789Y-11500478D01*
X135179816Y-11347738D01*
X135052262Y-11220184D01*
X135028996Y-11205565D01*
X134899523Y-11124211D01*
X134729254Y-11064631D01*
X134729249Y-11064630D01*
X134550004Y-11044435D01*
X134549996Y-11044435D01*
X134370750Y-11064630D01*
X134370745Y-11064631D01*
X134200476Y-11124211D01*
X134047737Y-11220184D01*
X133920184Y-11347737D01*
X133824211Y-11500476D01*
X133764631Y-11670745D01*
X133764630Y-11670750D01*
X133744435Y-11849996D01*
X133744435Y-11850003D01*
X133764630Y-12029249D01*
X133764631Y-12029254D01*
X133824211Y-12199523D01*
X133884515Y-12295496D01*
X133920129Y-12352175D01*
X133920185Y-12352263D01*
X133922445Y-12355097D01*
X133923334Y-12357275D01*
X133923889Y-12358158D01*
X133923734Y-12358255D01*
X133948855Y-12419783D01*
X133949500Y-12432412D01*
X133949500Y-13263330D01*
X133949499Y-13263348D01*
X133949499Y-13429056D01*
X133950560Y-13437114D01*
X133950076Y-13437177D01*
X133952899Y-13474868D01*
X133944844Y-13546361D01*
X133941399Y-13564571D01*
X133899499Y-13720943D01*
X133899499Y-13889046D01*
X133899500Y-13889059D01*
X133899500Y-15617587D01*
X133879815Y-15684626D01*
X133872450Y-15694896D01*
X133870186Y-15697734D01*
X133774211Y-15850476D01*
X133714631Y-16020745D01*
X133714630Y-16020750D01*
X133694435Y-16199996D01*
X97946591Y-16199996D01*
X97935121Y-16112874D01*
X97874882Y-15888060D01*
X97874879Y-15888052D01*
X97785819Y-15673039D01*
X97785811Y-15673023D01*
X97669446Y-15471475D01*
X97669442Y-15471468D01*
X97574494Y-15347729D01*
X97527757Y-15286820D01*
X97527751Y-15286813D01*
X97363186Y-15122248D01*
X97363179Y-15122242D01*
X97178540Y-14980564D01*
X97178538Y-14980562D01*
X97178532Y-14980558D01*
X97178527Y-14980555D01*
X97178524Y-14980553D01*
X96976976Y-14864188D01*
X96976960Y-14864180D01*
X96761947Y-14775120D01*
X96537122Y-14714878D01*
X96306382Y-14684501D01*
X96306377Y-14684500D01*
X96306372Y-14684500D01*
X96073628Y-14684500D01*
X96073622Y-14684500D01*
X96073617Y-14684501D01*
X95842877Y-14714878D01*
X95618052Y-14775120D01*
X95403039Y-14864180D01*
X95403023Y-14864188D01*
X95201475Y-14980553D01*
X95201459Y-14980564D01*
X95016820Y-15122242D01*
X95016813Y-15122248D01*
X94852248Y-15286813D01*
X94852242Y-15286820D01*
X94710564Y-15471459D01*
X94710553Y-15471475D01*
X94594188Y-15673023D01*
X94594180Y-15673039D01*
X94505120Y-15888052D01*
X94444878Y-16112877D01*
X94414501Y-16343617D01*
X94414500Y-16343634D01*
X94414500Y-16576365D01*
X94414501Y-16576382D01*
X94444878Y-16807122D01*
X94505120Y-17031947D01*
X94594180Y-17246960D01*
X94594188Y-17246976D01*
X94710553Y-17448524D01*
X94710564Y-17448540D01*
X94852242Y-17633179D01*
X94852248Y-17633186D01*
X94885636Y-17666574D01*
X94919121Y-17727897D01*
X94914137Y-17797589D01*
X94872265Y-17853522D01*
X94817353Y-17876728D01*
X94656443Y-17902214D01*
X94487960Y-17956956D01*
X94487957Y-17956957D01*
X94330109Y-18037386D01*
X94259233Y-18088881D01*
X94186786Y-18141517D01*
X94186784Y-18141519D01*
X94186783Y-18141519D01*
X94061519Y-18266783D01*
X94061519Y-18266784D01*
X94061517Y-18266786D01*
X94026534Y-18314936D01*
X93957386Y-18410109D01*
X93876957Y-18567957D01*
X93876956Y-18567960D01*
X93822214Y-18736443D01*
X93794500Y-18911421D01*
X42857417Y-18911421D01*
X42997391Y-18860475D01*
X43011189Y-18855453D01*
X43011199Y-18855449D01*
X43266402Y-18736445D01*
X43426721Y-18661687D01*
X43823779Y-18432445D01*
X44199347Y-18169470D01*
X44550566Y-17874763D01*
X44874763Y-17550566D01*
X45169470Y-17199347D01*
X45432445Y-16823779D01*
X45661687Y-16426721D01*
X45850995Y-16020750D01*
X45855449Y-16011199D01*
X45855453Y-16011189D01*
X45900271Y-15888052D01*
X46012261Y-15580360D01*
X46130926Y-15137499D01*
X46210540Y-14685981D01*
X46250500Y-14229242D01*
X46250500Y-13803634D01*
X100764500Y-13803634D01*
X100764500Y-14036365D01*
X100764501Y-14036382D01*
X100789891Y-14229243D01*
X100794879Y-14267126D01*
X100797035Y-14275174D01*
X100855120Y-14491947D01*
X100944180Y-14706960D01*
X100944188Y-14706976D01*
X101060553Y-14908524D01*
X101060564Y-14908540D01*
X101202242Y-15093179D01*
X101202248Y-15093186D01*
X101366813Y-15257751D01*
X101366820Y-15257757D01*
X101404696Y-15286820D01*
X101551468Y-15399442D01*
X101551475Y-15399446D01*
X101753023Y-15515811D01*
X101753039Y-15515819D01*
X101968052Y-15604879D01*
X101968054Y-15604879D01*
X101968060Y-15604882D01*
X102192874Y-15665121D01*
X102423628Y-15695500D01*
X102423635Y-15695500D01*
X102656365Y-15695500D01*
X102656372Y-15695500D01*
X102887126Y-15665121D01*
X103111940Y-15604882D01*
X103171142Y-15580360D01*
X103326960Y-15515819D01*
X103326963Y-15515817D01*
X103326969Y-15515815D01*
X103528532Y-15399442D01*
X103713181Y-15257756D01*
X103877756Y-15093181D01*
X104019442Y-14908532D01*
X104135815Y-14706969D01*
X104144509Y-14685981D01*
X104224879Y-14491947D01*
X104224878Y-14491947D01*
X104224882Y-14491940D01*
X104285121Y-14267126D01*
X104315500Y-14036372D01*
X104315500Y-13803628D01*
X104285121Y-13572874D01*
X104224882Y-13348060D01*
X104211854Y-13316607D01*
X104135819Y-13133039D01*
X104135811Y-13133023D01*
X104019446Y-12931475D01*
X104019442Y-12931468D01*
X103955260Y-12847824D01*
X103877757Y-12746820D01*
X103877751Y-12746813D01*
X103713186Y-12582248D01*
X103713179Y-12582242D01*
X103528540Y-12440564D01*
X103528538Y-12440562D01*
X103528532Y-12440558D01*
X103528527Y-12440555D01*
X103528524Y-12440553D01*
X103326976Y-12324188D01*
X103326960Y-12324180D01*
X103111947Y-12235120D01*
X102979094Y-12199522D01*
X102887126Y-12174879D01*
X102887125Y-12174878D01*
X102887122Y-12174878D01*
X102656382Y-12144501D01*
X102656377Y-12144500D01*
X102656372Y-12144500D01*
X102423628Y-12144500D01*
X102423622Y-12144500D01*
X102423617Y-12144501D01*
X102192877Y-12174878D01*
X101968052Y-12235120D01*
X101753039Y-12324180D01*
X101753023Y-12324188D01*
X101551475Y-12440553D01*
X101551459Y-12440564D01*
X101366820Y-12582242D01*
X101366813Y-12582248D01*
X101202248Y-12746813D01*
X101202242Y-12746820D01*
X101060564Y-12931459D01*
X101060553Y-12931475D01*
X100944188Y-13133023D01*
X100944180Y-13133039D01*
X100855120Y-13348052D01*
X100794878Y-13572877D01*
X100764501Y-13803617D01*
X100764500Y-13803634D01*
X46250500Y-13803634D01*
X46250500Y-13770758D01*
X46210540Y-13314019D01*
X46201605Y-13263348D01*
X46163588Y-13047737D01*
X46130926Y-12862501D01*
X46012261Y-12419640D01*
X45899969Y-12111118D01*
X45855453Y-11988810D01*
X45855449Y-11988800D01*
X45661691Y-11573288D01*
X45661683Y-11573272D01*
X45537201Y-11357664D01*
X45432445Y-11176221D01*
X45432437Y-11176210D01*
X45432433Y-11176203D01*
X45169469Y-10800651D01*
X44983690Y-10579249D01*
X44874763Y-10449434D01*
X44550566Y-10125237D01*
X44375211Y-9978097D01*
X44199348Y-9830530D01*
X43823796Y-9567566D01*
X43823785Y-9567559D01*
X43823779Y-9567555D01*
X43576039Y-9424522D01*
X43426727Y-9338316D01*
X43426711Y-9338308D01*
X43011199Y-9144550D01*
X43011189Y-9144546D01*
X42580371Y-8987743D01*
X42580370Y-8987742D01*
X42580360Y-8987739D01*
X42237036Y-8895745D01*
X42137500Y-8869074D01*
X42137489Y-8869072D01*
X41685986Y-8789460D01*
X41229243Y-8749500D01*
X41229242Y-8749500D01*
X40770758Y-8749500D01*
X40770757Y-8749500D01*
X40314014Y-8789460D01*
X40314012Y-8789460D01*
X39862510Y-8869072D01*
X39862499Y-8869074D01*
X39625169Y-8932667D01*
X39419640Y-8987739D01*
X39419633Y-8987741D01*
X39419628Y-8987743D01*
X38988810Y-9144546D01*
X38988800Y-9144550D01*
X38573288Y-9338308D01*
X38573272Y-9338316D01*
X38176229Y-9567550D01*
X38176203Y-9567566D01*
X37800651Y-9830530D01*
X37449431Y-10125239D01*
X37125239Y-10449431D01*
X36830530Y-10800651D01*
X36567566Y-11176203D01*
X36567550Y-11176229D01*
X36338316Y-11573272D01*
X36338308Y-11573288D01*
X36144550Y-11988800D01*
X36144546Y-11988810D01*
X36010081Y-12358255D01*
X35987739Y-12419640D01*
X35944170Y-12582242D01*
X35869074Y-12862499D01*
X35869072Y-12862510D01*
X35789460Y-13314012D01*
X35789460Y-13314014D01*
X35749500Y-13770756D01*
X24938779Y-13770756D01*
X25019744Y-13707738D01*
X25188164Y-13524785D01*
X25324173Y-13316607D01*
X25424063Y-13088881D01*
X25485108Y-12847821D01*
X25485109Y-12847812D01*
X25505643Y-12600005D01*
X25505643Y-12599994D01*
X25485109Y-12352187D01*
X25485107Y-12352175D01*
X25424063Y-12111118D01*
X25324173Y-11883393D01*
X25188166Y-11675217D01*
X25166557Y-11651744D01*
X25019744Y-11492262D01*
X24823509Y-11339526D01*
X24823507Y-11339525D01*
X24823506Y-11339524D01*
X24604811Y-11221172D01*
X24604802Y-11221169D01*
X24369616Y-11140429D01*
X24124335Y-11099500D01*
X23875665Y-11099500D01*
X23630383Y-11140429D01*
X23395197Y-11221169D01*
X23395188Y-11221172D01*
X23176493Y-11339524D01*
X23153178Y-11357671D01*
X22980256Y-11492262D01*
X22972693Y-11500478D01*
X22811833Y-11675217D01*
X22675826Y-11883393D01*
X22575936Y-12111118D01*
X22514892Y-12352175D01*
X22514890Y-12352187D01*
X22494357Y-12599994D01*
X11000499Y-12599994D01*
X11000499Y-11552128D01*
X10994091Y-11492517D01*
X10943796Y-11357669D01*
X10943795Y-11357668D01*
X10943793Y-11357664D01*
X10857547Y-11242455D01*
X10857544Y-11242452D01*
X10742335Y-11156206D01*
X10742328Y-11156202D01*
X10607482Y-11105908D01*
X10607483Y-11105908D01*
X10547883Y-11099501D01*
X10547881Y-11099500D01*
X10547873Y-11099500D01*
X10547864Y-11099500D01*
X8452129Y-11099500D01*
X8452123Y-11099501D01*
X8392516Y-11105908D01*
X8257671Y-11156202D01*
X8257664Y-11156206D01*
X8142455Y-11242452D01*
X8142452Y-11242455D01*
X8056206Y-11357664D01*
X8056202Y-11357671D01*
X8005908Y-11492517D01*
X7999501Y-11552116D01*
X7999501Y-11552123D01*
X7999500Y-11552135D01*
X7999500Y-13647870D01*
X7999501Y-13647876D01*
X8005908Y-13707483D01*
X8056202Y-13842328D01*
X8056206Y-13842335D01*
X8142452Y-13957544D01*
X8142455Y-13957547D01*
X8258986Y-14044783D01*
X8300857Y-14100717D01*
X8305841Y-14170408D01*
X8288484Y-14211870D01*
X8176267Y-14383631D01*
X8076412Y-14611282D01*
X8015387Y-14852261D01*
X8015385Y-14852270D01*
X7994859Y-15099994D01*
X7994859Y-15100005D01*
X8015385Y-15347729D01*
X8015387Y-15347738D01*
X8076412Y-15588717D01*
X8176266Y-15816364D01*
X8276564Y-15969882D01*
X9017037Y-15229408D01*
X9034075Y-15292993D01*
X9099901Y-15407007D01*
X9192993Y-15500099D01*
X9307007Y-15565925D01*
X9370590Y-15582962D01*
X8624100Y-16329450D01*
X8613482Y-16376148D01*
X8581376Y-16413556D01*
X8480255Y-16492262D01*
X8311833Y-16675217D01*
X8175826Y-16883393D01*
X8075936Y-17111118D01*
X8014892Y-17352175D01*
X8014890Y-17352187D01*
X7994357Y-17599994D01*
X500500Y-17599994D01*
X500500Y-8452155D01*
X14900000Y-8452155D01*
X14900000Y-9250000D01*
X15641759Y-9250000D01*
X15628822Y-9281233D01*
X15600000Y-9426131D01*
X15600000Y-9573869D01*
X15628822Y-9718767D01*
X15641759Y-9750000D01*
X14900000Y-9750000D01*
X14900000Y-10547844D01*
X14906401Y-10607372D01*
X14906403Y-10607379D01*
X14956645Y-10742086D01*
X14956649Y-10742093D01*
X15042809Y-10857187D01*
X15042812Y-10857190D01*
X15157906Y-10943350D01*
X15157913Y-10943354D01*
X15292620Y-10993596D01*
X15292627Y-10993598D01*
X15352155Y-10999999D01*
X15352172Y-11000000D01*
X16750000Y-11000000D01*
X16750000Y-10250000D01*
X17250000Y-10250000D01*
X17250000Y-11000000D01*
X18647828Y-11000000D01*
X18647844Y-10999999D01*
X18707372Y-10993598D01*
X18707379Y-10993596D01*
X18842086Y-10943354D01*
X18842093Y-10943350D01*
X18957187Y-10857190D01*
X18957190Y-10857187D01*
X19043350Y-10742093D01*
X19043354Y-10742086D01*
X19093596Y-10607379D01*
X19093598Y-10607372D01*
X19099999Y-10547844D01*
X19100000Y-10547827D01*
X19100000Y-9750000D01*
X18358241Y-9750000D01*
X18371178Y-9718767D01*
X18400000Y-9573869D01*
X18400000Y-9426131D01*
X18371178Y-9281233D01*
X18358241Y-9250000D01*
X19100000Y-9250000D01*
X19100000Y-8452172D01*
X19099999Y-8452155D01*
X19093598Y-8392627D01*
X19093596Y-8392620D01*
X19043354Y-8257913D01*
X19043350Y-8257906D01*
X18957190Y-8142812D01*
X18957187Y-8142809D01*
X18842093Y-8056649D01*
X18842086Y-8056645D01*
X18707379Y-8006403D01*
X18707372Y-8006401D01*
X18647844Y-8000000D01*
X17250000Y-8000000D01*
X17250000Y-8750000D01*
X16750000Y-8750000D01*
X16750000Y-8000000D01*
X15352155Y-8000000D01*
X15292627Y-8006401D01*
X15292620Y-8006403D01*
X15157913Y-8056645D01*
X15157906Y-8056649D01*
X15042812Y-8142809D01*
X15042809Y-8142812D01*
X14956649Y-8257906D01*
X14956645Y-8257913D01*
X14906403Y-8392620D01*
X14906401Y-8392627D01*
X14900000Y-8452155D01*
X500500Y-8452155D01*
X500500Y-6204234D01*
X96534500Y-6204234D01*
X96534500Y-6355765D01*
X96573719Y-6502136D01*
X96580934Y-6514632D01*
X96649485Y-6633365D01*
X96756635Y-6740515D01*
X96887865Y-6816281D01*
X97034234Y-6855500D01*
X97034236Y-6855500D01*
X97185764Y-6855500D01*
X97185766Y-6855500D01*
X97332135Y-6816281D01*
X97463365Y-6740515D01*
X97570515Y-6633365D01*
X97646281Y-6502135D01*
X97685500Y-6355766D01*
X97685500Y-6204234D01*
X97652211Y-6079996D01*
X101017495Y-6079996D01*
X101017495Y-6080003D01*
X101037690Y-6259249D01*
X101037691Y-6259254D01*
X101097271Y-6429523D01*
X101150749Y-6514632D01*
X101193244Y-6582262D01*
X101320798Y-6709816D01*
X101411140Y-6766582D01*
X101473181Y-6805565D01*
X101473538Y-6805789D01*
X101601315Y-6850500D01*
X101643805Y-6865368D01*
X101643810Y-6865369D01*
X101823056Y-6885565D01*
X101823060Y-6885565D01*
X101823064Y-6885565D01*
X102002309Y-6865369D01*
X102002312Y-6865368D01*
X102002315Y-6865368D01*
X102172582Y-6805789D01*
X102325322Y-6709816D01*
X102327942Y-6707196D01*
X102330055Y-6706041D01*
X102330770Y-6705472D01*
X102330869Y-6705597D01*
X102389263Y-6673707D01*
X102458955Y-6678686D01*
X102503310Y-6707190D01*
X102536635Y-6740515D01*
X102667865Y-6816281D01*
X102814234Y-6855500D01*
X102814236Y-6855500D01*
X102965764Y-6855500D01*
X102965766Y-6855500D01*
X103112135Y-6816281D01*
X103243365Y-6740515D01*
X103350515Y-6633365D01*
X103426281Y-6502135D01*
X103465500Y-6355766D01*
X103465500Y-6204234D01*
X103426281Y-6057865D01*
X103392870Y-5999996D01*
X125294435Y-5999996D01*
X125294435Y-6000003D01*
X125314630Y-6179249D01*
X125314631Y-6179254D01*
X125374211Y-6349523D01*
X125424478Y-6429522D01*
X125470184Y-6502262D01*
X125597738Y-6629816D01*
X125661983Y-6670184D01*
X125725055Y-6709815D01*
X125750478Y-6725789D01*
X125920745Y-6785368D01*
X125920750Y-6785369D01*
X126099996Y-6805565D01*
X126100000Y-6805565D01*
X126100004Y-6805565D01*
X126279249Y-6785369D01*
X126279252Y-6785368D01*
X126279255Y-6785368D01*
X126449522Y-6725789D01*
X126602262Y-6629816D01*
X126602267Y-6629810D01*
X126605097Y-6627555D01*
X126607275Y-6626665D01*
X126608158Y-6626111D01*
X126608255Y-6626265D01*
X126669783Y-6601145D01*
X126682412Y-6600500D01*
X126949903Y-6600500D01*
X127016942Y-6620185D01*
X127037583Y-6636818D01*
X127966897Y-7566133D01*
X128894298Y-8493534D01*
X128927783Y-8554857D01*
X128929837Y-8567331D01*
X128939630Y-8654249D01*
X128999210Y-8824521D01*
X129057593Y-8917437D01*
X129095184Y-8977262D01*
X129222738Y-9104816D01*
X129375478Y-9200789D01*
X129516115Y-9250000D01*
X129545745Y-9260368D01*
X129545750Y-9260369D01*
X129724996Y-9280565D01*
X129725000Y-9280565D01*
X129725004Y-9280565D01*
X129904249Y-9260369D01*
X129904252Y-9260368D01*
X129904255Y-9260368D01*
X130074522Y-9200789D01*
X130227262Y-9104816D01*
X130257082Y-9074996D01*
X132769435Y-9074996D01*
X132769435Y-9075003D01*
X132789630Y-9254249D01*
X132789631Y-9254254D01*
X132849211Y-9424523D01*
X132939085Y-9567555D01*
X132945184Y-9577262D01*
X133072738Y-9704816D01*
X133094941Y-9718767D01*
X133223426Y-9799500D01*
X133225478Y-9800789D01*
X133395742Y-9860367D01*
X133395745Y-9860368D01*
X133395750Y-9860369D01*
X133574996Y-9880565D01*
X133575000Y-9880565D01*
X133575004Y-9880565D01*
X133754249Y-9860369D01*
X133754252Y-9860368D01*
X133754255Y-9860368D01*
X133924522Y-9800789D01*
X134077262Y-9704816D01*
X134204816Y-9577262D01*
X134300789Y-9424522D01*
X134360368Y-9254255D01*
X134370161Y-9167329D01*
X134397226Y-9102918D01*
X134405690Y-9093543D01*
X135461408Y-8037826D01*
X135522730Y-8004342D01*
X135592422Y-8009326D01*
X135648355Y-8051198D01*
X135672772Y-8116662D01*
X135666131Y-8166459D01*
X135664632Y-8170740D01*
X135664630Y-8170750D01*
X135644435Y-8349996D01*
X135644435Y-8350003D01*
X135664630Y-8529249D01*
X135664631Y-8529254D01*
X135724211Y-8699523D01*
X135780723Y-8789460D01*
X135820184Y-8852262D01*
X135947738Y-8979816D01*
X136100478Y-9075789D01*
X136238872Y-9124215D01*
X136270745Y-9135368D01*
X136270750Y-9135369D01*
X136449996Y-9155565D01*
X136450000Y-9155565D01*
X136450004Y-9155565D01*
X136629249Y-9135369D01*
X136629252Y-9135368D01*
X136629255Y-9135368D01*
X136799522Y-9075789D01*
X136952262Y-8979816D01*
X137079816Y-8852262D01*
X137175789Y-8699522D01*
X137235368Y-8529255D01*
X137235936Y-8524216D01*
X137237469Y-8510615D01*
X137264536Y-8446201D01*
X137322132Y-8406647D01*
X137360689Y-8400500D01*
X140379047Y-8400500D01*
X140446086Y-8420185D01*
X140491841Y-8472989D01*
X140501785Y-8542147D01*
X140484041Y-8590472D01*
X140399211Y-8725476D01*
X140339631Y-8895745D01*
X140339630Y-8895750D01*
X140319435Y-9074996D01*
X140319435Y-9075003D01*
X140339630Y-9254249D01*
X140339631Y-9254254D01*
X140399211Y-9424523D01*
X140489085Y-9567555D01*
X140495184Y-9577262D01*
X140622738Y-9704816D01*
X140775478Y-9800789D01*
X140945745Y-9860368D01*
X141032669Y-9870161D01*
X141097080Y-9897226D01*
X141106465Y-9905700D01*
X141965139Y-10764374D01*
X141965149Y-10764385D01*
X141969479Y-10768715D01*
X141969480Y-10768716D01*
X142081284Y-10880520D01*
X142168095Y-10930639D01*
X142168097Y-10930641D01*
X142206151Y-10952611D01*
X142218215Y-10959577D01*
X142370943Y-11000501D01*
X142370946Y-11000501D01*
X142536653Y-11000501D01*
X142536669Y-11000500D01*
X142767588Y-11000500D01*
X142834627Y-11020185D01*
X142844903Y-11027555D01*
X142847736Y-11029814D01*
X142847738Y-11029816D01*
X142958639Y-11099500D01*
X142997966Y-11124211D01*
X143000478Y-11125789D01*
X143144627Y-11176229D01*
X143170745Y-11185368D01*
X143170750Y-11185369D01*
X143349996Y-11205565D01*
X143350000Y-11205565D01*
X143350004Y-11205565D01*
X143529249Y-11185369D01*
X143529252Y-11185368D01*
X143529255Y-11185368D01*
X143699522Y-11125789D01*
X143852262Y-11029816D01*
X143979816Y-10902262D01*
X144075789Y-10749522D01*
X144135368Y-10579255D01*
X144138909Y-10547827D01*
X144155565Y-10400003D01*
X144155565Y-10399996D01*
X144135369Y-10220750D01*
X144135368Y-10220745D01*
X144075788Y-10050476D01*
X143979815Y-9897737D01*
X143852262Y-9770184D01*
X143699523Y-9674211D01*
X143529254Y-9614631D01*
X143529249Y-9614630D01*
X143350004Y-9594435D01*
X143349996Y-9594435D01*
X143170750Y-9614630D01*
X143170745Y-9614631D01*
X143000476Y-9674211D01*
X142847736Y-9770185D01*
X142844903Y-9772445D01*
X142842724Y-9773334D01*
X142841842Y-9773889D01*
X142841744Y-9773734D01*
X142780217Y-9798855D01*
X142767588Y-9799500D01*
X142750097Y-9799500D01*
X142683058Y-9779815D01*
X142662416Y-9763181D01*
X141955700Y-9056465D01*
X141922215Y-8995142D01*
X141920163Y-8982686D01*
X141910368Y-8895745D01*
X141850789Y-8725478D01*
X141754816Y-8572738D01*
X141634233Y-8452155D01*
X180900000Y-8452155D01*
X180900000Y-9250000D01*
X181641759Y-9250000D01*
X181628822Y-9281233D01*
X181600000Y-9426131D01*
X181600000Y-9573869D01*
X181628822Y-9718767D01*
X181641759Y-9750000D01*
X180900000Y-9750000D01*
X180900000Y-10547844D01*
X180906401Y-10607372D01*
X180906403Y-10607379D01*
X180956645Y-10742086D01*
X180956649Y-10742093D01*
X181042809Y-10857187D01*
X181042812Y-10857190D01*
X181157906Y-10943350D01*
X181157913Y-10943354D01*
X181292620Y-10993596D01*
X181292627Y-10993598D01*
X181352155Y-10999999D01*
X181352172Y-11000000D01*
X182750000Y-11000000D01*
X182750000Y-10250000D01*
X183250000Y-10250000D01*
X183250000Y-11000000D01*
X184647828Y-11000000D01*
X184647844Y-10999999D01*
X184707372Y-10993598D01*
X184707379Y-10993596D01*
X184842086Y-10943354D01*
X184842093Y-10943350D01*
X184957187Y-10857190D01*
X184957190Y-10857187D01*
X185043350Y-10742093D01*
X185043354Y-10742086D01*
X185093596Y-10607379D01*
X185093598Y-10607372D01*
X185099999Y-10547844D01*
X185100000Y-10547827D01*
X185100000Y-9750000D01*
X184358241Y-9750000D01*
X184371178Y-9718767D01*
X184400000Y-9573869D01*
X184400000Y-9426131D01*
X184371178Y-9281233D01*
X184358241Y-9250000D01*
X185100000Y-9250000D01*
X185100000Y-8452172D01*
X185099999Y-8452155D01*
X185093598Y-8392627D01*
X185093596Y-8392620D01*
X185043354Y-8257913D01*
X185043350Y-8257906D01*
X184957190Y-8142812D01*
X184957187Y-8142809D01*
X184842093Y-8056649D01*
X184842086Y-8056645D01*
X184707379Y-8006403D01*
X184707372Y-8006401D01*
X184647844Y-8000000D01*
X183250000Y-8000000D01*
X183250000Y-8750000D01*
X182750000Y-8750000D01*
X182750000Y-8000000D01*
X181352155Y-8000000D01*
X181292627Y-8006401D01*
X181292620Y-8006403D01*
X181157913Y-8056645D01*
X181157906Y-8056649D01*
X181042812Y-8142809D01*
X181042809Y-8142812D01*
X180956649Y-8257906D01*
X180956645Y-8257913D01*
X180906403Y-8392620D01*
X180906401Y-8392627D01*
X180900000Y-8452155D01*
X141634233Y-8452155D01*
X141627262Y-8445184D01*
X141565931Y-8406647D01*
X141474519Y-8349209D01*
X141359364Y-8308914D01*
X141302588Y-8268193D01*
X141276841Y-8203240D01*
X141290297Y-8134678D01*
X141338685Y-8084275D01*
X141359355Y-8074835D01*
X141499522Y-8025789D01*
X141652262Y-7929816D01*
X141779816Y-7802262D01*
X141875789Y-7649522D01*
X141935368Y-7479255D01*
X141955565Y-7300000D01*
X141948852Y-7240423D01*
X141935369Y-7120750D01*
X141935368Y-7120745D01*
X141913361Y-7057853D01*
X141875789Y-6950478D01*
X141779816Y-6797738D01*
X141652262Y-6670184D01*
X141599162Y-6636819D01*
X141499523Y-6574211D01*
X141329254Y-6514631D01*
X141329249Y-6514630D01*
X141150004Y-6494435D01*
X141149996Y-6494435D01*
X140970750Y-6514630D01*
X140970745Y-6514631D01*
X140800476Y-6574211D01*
X140647737Y-6670184D01*
X140520184Y-6797737D01*
X140424211Y-6950477D01*
X140366133Y-7116455D01*
X140325411Y-7173231D01*
X140260458Y-7198978D01*
X140249091Y-7199500D01*
X138323902Y-7199500D01*
X138256863Y-7179815D01*
X138211108Y-7127011D01*
X138201164Y-7057853D01*
X138230189Y-6994297D01*
X138257930Y-6970506D01*
X138289807Y-6950476D01*
X138402262Y-6879816D01*
X138529816Y-6752262D01*
X138625789Y-6599522D01*
X138685368Y-6429255D01*
X138693648Y-6355766D01*
X138705565Y-6250003D01*
X138705565Y-6249996D01*
X138685369Y-6070750D01*
X138685368Y-6070745D01*
X138660612Y-5999996D01*
X138625789Y-5900478D01*
X138529816Y-5747738D01*
X138402262Y-5620184D01*
X138356682Y-5591544D01*
X138249523Y-5524211D01*
X138079254Y-5464631D01*
X138079249Y-5464630D01*
X137900004Y-5444435D01*
X137899996Y-5444435D01*
X137720750Y-5464630D01*
X137720745Y-5464631D01*
X137550476Y-5524211D01*
X137397736Y-5620185D01*
X137394903Y-5622445D01*
X137392724Y-5623334D01*
X137391842Y-5623889D01*
X137391744Y-5623734D01*
X137330217Y-5648855D01*
X137317588Y-5649500D01*
X136479057Y-5649500D01*
X136320942Y-5649500D01*
X136168215Y-5690423D01*
X136168214Y-5690423D01*
X136168212Y-5690424D01*
X136168209Y-5690425D01*
X136133066Y-5710716D01*
X136133064Y-5710717D01*
X136031290Y-5769475D01*
X136031282Y-5769481D01*
X135919478Y-5881286D01*
X133556465Y-8244298D01*
X133495142Y-8277783D01*
X133482668Y-8279837D01*
X133395750Y-8289630D01*
X133225478Y-8349210D01*
X133072737Y-8445184D01*
X132945184Y-8572737D01*
X132849211Y-8725476D01*
X132789631Y-8895745D01*
X132789630Y-8895750D01*
X132769435Y-9074996D01*
X130257082Y-9074996D01*
X130354816Y-8977262D01*
X130450789Y-8824522D01*
X130510368Y-8654255D01*
X130520162Y-8567331D01*
X130530565Y-8475003D01*
X130530565Y-8474996D01*
X130510369Y-8295750D01*
X130510368Y-8295745D01*
X130497130Y-8257913D01*
X130450789Y-8125478D01*
X130424899Y-8084275D01*
X130354815Y-7972737D01*
X130227262Y-7845184D01*
X130074521Y-7749210D01*
X129904249Y-7689630D01*
X129817331Y-7679837D01*
X129752917Y-7652770D01*
X129743534Y-7644298D01*
X127737590Y-5638355D01*
X127737588Y-5638352D01*
X127618717Y-5519481D01*
X127618709Y-5519475D01*
X127516936Y-5460717D01*
X127516934Y-5460716D01*
X127481790Y-5440425D01*
X127481789Y-5440424D01*
X127468331Y-5436818D01*
X127329057Y-5399499D01*
X127170943Y-5399499D01*
X127163347Y-5399499D01*
X127163331Y-5399500D01*
X126682412Y-5399500D01*
X126615373Y-5379815D01*
X126605097Y-5372445D01*
X126602263Y-5370185D01*
X126602262Y-5370184D01*
X126482019Y-5294630D01*
X126449523Y-5274211D01*
X126279254Y-5214631D01*
X126279249Y-5214630D01*
X126100004Y-5194435D01*
X126099996Y-5194435D01*
X125920750Y-5214630D01*
X125920745Y-5214631D01*
X125750476Y-5274211D01*
X125597737Y-5370184D01*
X125470184Y-5497737D01*
X125374211Y-5650476D01*
X125314631Y-5820745D01*
X125314630Y-5820750D01*
X125294435Y-5999996D01*
X103392870Y-5999996D01*
X103350515Y-5926635D01*
X103243365Y-5819485D01*
X103186428Y-5786612D01*
X103138214Y-5736045D01*
X103124992Y-5667438D01*
X103150960Y-5602574D01*
X103160737Y-5591556D01*
X103315477Y-5436816D01*
X103376799Y-5403334D01*
X103403157Y-5400500D01*
X106417588Y-5400500D01*
X106484627Y-5420185D01*
X106494903Y-5427555D01*
X106497736Y-5429814D01*
X106497738Y-5429816D01*
X106605834Y-5497737D01*
X106647966Y-5524211D01*
X106650478Y-5525789D01*
X106798937Y-5577737D01*
X106820745Y-5585368D01*
X106820750Y-5585369D01*
X106999996Y-5605565D01*
X107000000Y-5605565D01*
X107000004Y-5605565D01*
X107179249Y-5585369D01*
X107179252Y-5585368D01*
X107179255Y-5585368D01*
X107349522Y-5525789D01*
X107502262Y-5429816D01*
X107629816Y-5302262D01*
X107725789Y-5149522D01*
X107785368Y-4979255D01*
X107805565Y-4800000D01*
X107785368Y-4620745D01*
X107725789Y-4450478D01*
X107629816Y-4297738D01*
X107502262Y-4170184D01*
X107349523Y-4074211D01*
X107179254Y-4014631D01*
X107179249Y-4014630D01*
X107000004Y-3994435D01*
X106999996Y-3994435D01*
X106820750Y-4014630D01*
X106820745Y-4014631D01*
X106650476Y-4074211D01*
X106497736Y-4170185D01*
X106494903Y-4172445D01*
X106492724Y-4173334D01*
X106491842Y-4173889D01*
X106491744Y-4173734D01*
X106430217Y-4198855D01*
X106417588Y-4199500D01*
X103024000Y-4199500D01*
X102983079Y-4210464D01*
X102983079Y-4210465D01*
X102945811Y-4220451D01*
X102871274Y-4240423D01*
X102871269Y-4240426D01*
X102734350Y-4319475D01*
X102734342Y-4319481D01*
X102622538Y-4431286D01*
X101804525Y-5249298D01*
X101743202Y-5282783D01*
X101730728Y-5284837D01*
X101643810Y-5294630D01*
X101473538Y-5354210D01*
X101320797Y-5450184D01*
X101193244Y-5577737D01*
X101097271Y-5730476D01*
X101037691Y-5900745D01*
X101037690Y-5900750D01*
X101017495Y-6079996D01*
X97652211Y-6079996D01*
X97646281Y-6057865D01*
X97570515Y-5926635D01*
X97463365Y-5819485D01*
X97376746Y-5769475D01*
X97332136Y-5743719D01*
X97208968Y-5710717D01*
X97185766Y-5704500D01*
X97034234Y-5704500D01*
X96887863Y-5743719D01*
X96756635Y-5819485D01*
X96756632Y-5819487D01*
X96649487Y-5926632D01*
X96649485Y-5926635D01*
X96573719Y-6057863D01*
X96534500Y-6204234D01*
X500500Y-6204234D01*
X500500Y-3003748D01*
X500726Y-2996262D01*
X518271Y-2706205D01*
X520076Y-2691340D01*
X571780Y-2409201D01*
X575364Y-2394663D01*
X652096Y-2148422D01*
X660696Y-2120822D01*
X665998Y-2106841D01*
X783731Y-1845249D01*
X790676Y-1832016D01*
X939080Y-1586526D01*
X947567Y-1574230D01*
X1124480Y-1348417D01*
X1134395Y-1337226D01*
X1337226Y-1134395D01*
X1348417Y-1124480D01*
X1574230Y-947567D01*
X1586526Y-939080D01*
X1832016Y-790676D01*
X1845249Y-783731D01*
X2106841Y-665998D01*
X2120822Y-660696D01*
X2394668Y-575362D01*
X2409197Y-571780D01*
X2691344Y-520075D01*
X2706201Y-518271D01*
X2996264Y-500726D01*
X3003751Y-500500D01*
X3065892Y-500500D01*
X196934108Y-500500D01*
X196996249Y-500500D01*
X197003736Y-500726D01*
G37*
%TD.AperFunction*%
%TD*%
M02*
