%TF.GenerationSoftware,KiCad,Pcbnew,8.0.4*%
%TF.CreationDate,2024-07-22T04:35:25+08:00*%
%TF.ProjectId,PH-AC,50482d41-432e-46b6-9963-61645f706362,rev?*%
%TF.SameCoordinates,PX405f7e0PY328b740*%
%TF.FileFunction,Soldermask,Top*%
%TF.FilePolarity,Negative*%
%FSLAX46Y46*%
G04 Gerber Fmt 4.6, Leading zero omitted, Abs format (unit mm)*
G04 Created by KiCad (PCBNEW 8.0.4) date 2024-07-22 04:35:25*
%MOMM*%
%LPD*%
G01*
G04 APERTURE LIST*
%ADD10C,1.750000*%
%ADD11C,3.050000*%
%ADD12C,4.000000*%
%ADD13R,2.000000X2.000000*%
%ADD14C,2.000000*%
%ADD15R,3.200000X2.000000*%
%ADD16C,0.650000*%
%ADD17R,0.850000X0.850000*%
%ADD18O,0.850000X0.850000*%
G04 APERTURE END LIST*
D10*
%TO.C,SW4*%
X45420000Y-43000000D03*
D11*
X46690000Y-40460000D03*
D12*
X50500000Y-43000000D03*
D11*
X53040000Y-37920000D03*
D10*
X55580000Y-43000000D03*
%TD*%
%TO.C,SW9*%
X94920000Y-19000000D03*
D11*
X96190000Y-16460000D03*
D12*
X100000000Y-19000000D03*
D11*
X102540000Y-13920000D03*
D10*
X105080000Y-19000000D03*
%TD*%
%TO.C,SW7*%
X144420000Y-43000000D03*
D11*
X145690000Y-40460000D03*
D12*
X149500000Y-43000000D03*
D11*
X152040000Y-37920000D03*
D10*
X154580000Y-43000000D03*
%TD*%
%TO.C,SW5*%
X78420000Y-43000000D03*
D11*
X79690000Y-40460000D03*
D12*
X83500000Y-43000000D03*
D11*
X86040000Y-37920000D03*
D10*
X88580000Y-43000000D03*
%TD*%
%TO.C,SW8*%
X61920000Y-85000000D03*
D11*
X63190000Y-82460000D03*
D12*
X67000000Y-85000000D03*
D11*
X69540000Y-79920000D03*
D10*
X72080000Y-85000000D03*
%TD*%
%TO.C,SW6*%
X111420000Y-43000000D03*
D11*
X112690000Y-40460000D03*
D12*
X116500000Y-43000000D03*
D11*
X119040000Y-37920000D03*
D10*
X121580000Y-43000000D03*
%TD*%
%TO.C,SW10*%
X127920000Y-85000000D03*
D11*
X129190000Y-82460000D03*
D12*
X133000000Y-85000000D03*
D11*
X135540000Y-79920000D03*
D10*
X138080000Y-85000000D03*
%TD*%
D13*
%TO.C,SW3*%
X179000000Y-9600000D03*
D14*
X179000000Y-14600000D03*
X179000000Y-12100000D03*
D15*
X186500000Y-6500000D03*
X186500000Y-17700000D03*
D14*
X193500000Y-14600000D03*
X193500000Y-9600000D03*
%TD*%
D13*
%TO.C,SW2*%
X6500000Y-9600000D03*
D14*
X6500000Y-14600000D03*
X6500000Y-12100000D03*
D15*
X14000000Y-6500000D03*
X14000000Y-17700000D03*
D14*
X21000000Y-14600000D03*
X21000000Y-9600000D03*
%TD*%
D16*
%TO.C,J1*%
X97110000Y-6280000D03*
X102890000Y-6280000D03*
%TD*%
D17*
%TO.C,SW1*%
X145350000Y-29060000D03*
D18*
X145350000Y-28060000D03*
%TD*%
D17*
%TO.C,J2*%
X125100000Y-6200000D03*
D18*
X126100000Y-6200000D03*
X127100000Y-6200000D03*
%TD*%
M02*
