%TF.GenerationSoftware,KiCad,Pcbnew,8.0.4*%
%TF.CreationDate,2024-09-29T20:47:35+08:00*%
%TF.ProjectId,PH-AC,50482d41-432e-46b6-9963-61645f706362,Rev2.2*%
%TF.SameCoordinates,PX405f7e0PY328b740*%
%TF.FileFunction,Copper,L1,Top*%
%TF.FilePolarity,Positive*%
%FSLAX46Y46*%
G04 Gerber Fmt 4.6, Leading zero omitted, Abs format (unit mm)*
G04 Created by KiCad (PCBNEW 8.0.4) date 2024-09-29 20:47:35*
%MOMM*%
%LPD*%
G01*
G04 APERTURE LIST*
%TA.AperFunction,ComponentPad*%
%ADD10R,2.000000X2.000000*%
%TD*%
%TA.AperFunction,ComponentPad*%
%ADD11C,2.000000*%
%TD*%
%TA.AperFunction,ComponentPad*%
%ADD12R,3.200000X2.000000*%
%TD*%
%TA.AperFunction,ComponentPad*%
%ADD13R,1.350000X1.350000*%
%TD*%
%TA.AperFunction,ComponentPad*%
%ADD14O,1.350000X1.350000*%
%TD*%
%TA.AperFunction,ComponentPad*%
%ADD15R,1.700000X1.700000*%
%TD*%
%TA.AperFunction,ComponentPad*%
%ADD16O,1.700000X1.700000*%
%TD*%
%TA.AperFunction,ViaPad*%
%ADD17C,0.600000*%
%TD*%
%TA.AperFunction,Conductor*%
%ADD18C,0.200000*%
%TD*%
G04 APERTURE END LIST*
D10*
%TO.P,VOR-R,A,A*%
%TO.N,ENC1A*%
X161750000Y-10175000D03*
D11*
%TO.P,VOR-R,B,B*%
%TO.N,ENC1B*%
X161750000Y-15175000D03*
%TO.P,VOR-R,C,C*%
%TO.N,GND*%
X161750000Y-12675000D03*
D12*
%TO.P,VOR-R,MP,MP*%
X169250000Y-7075000D03*
X169250000Y-18275000D03*
D11*
%TO.P,VOR-R,S1,S1*%
%TO.N,unconnected-(SW3-PadS1)*%
X176250000Y-15175000D03*
%TO.P,VOR-R,S2,S2*%
%TO.N,unconnected-(SW3-PadS2)*%
X176250000Y-10175000D03*
%TD*%
D10*
%TO.P,VOR-L,A,A*%
%TO.N,ENC2A*%
X-4250000Y-10175000D03*
D11*
%TO.P,VOR-L,B,B*%
%TO.N,ENC2B*%
X-4250000Y-15175000D03*
%TO.P,VOR-L,C,C*%
%TO.N,GND*%
X-4250000Y-12675000D03*
D12*
%TO.P,VOR-L,MP,MP*%
X3250000Y-7075000D03*
X3250000Y-18275000D03*
D11*
%TO.P,VOR-L,S1,S1*%
%TO.N,unconnected-(SW2-PadS1)*%
X10250000Y-15175000D03*
%TO.P,VOR-L,S2,S2*%
%TO.N,unconnected-(SW2-PadS2)*%
X10250000Y-10175000D03*
%TD*%
D13*
%TO.P,JP1,1,1*%
%TO.N,GND*%
X136650000Y-21225000D03*
D14*
%TO.P,JP1,2,2*%
%TO.N,Net-(JP1-Pad2)*%
X136650000Y-23225000D03*
%TD*%
D15*
%TO.P,J2,1,Pin_1*%
%TO.N,Net-(J2-Pin_1)*%
X101780000Y-17225000D03*
D16*
%TO.P,J2,2,Pin_2*%
%TO.N,GND*%
X99240000Y-17225000D03*
%TO.P,J2,3,Pin_3*%
%TO.N,Net-(J2-Pin_3)*%
X96700000Y-17225000D03*
%TD*%
D17*
%TO.N,+3V3*%
X121000000Y-11125000D03*
X113150000Y-3925000D03*
X120800000Y-9425000D03*
X120750000Y-13775000D03*
X115975000Y-6050000D03*
%TO.N,Net-(U1-ADC_AVDD)*%
X127400000Y-4875000D03*
X122700000Y-5925000D03*
%TO.N,VBUS*%
X93250000Y-2375000D03*
X88073060Y-3655000D03*
%TO.N,Net-(D2-A)*%
X127341422Y-6333578D03*
X129600000Y-7975000D03*
%TO.N,Net-(U1-GPIO25)*%
X124150000Y-3825000D03*
X119825000Y-6650000D03*
%TO.N,BT0*%
X118750000Y-18675000D03*
X38250000Y-28025000D03*
%TO.N,BT1*%
X64650000Y-30025000D03*
X119550000Y-18675000D03*
%TO.N,BT2*%
X120350003Y-18675000D03*
X98600000Y-30925000D03*
%TO.N,BT3*%
X121150006Y-18675000D03*
X125700000Y-31475000D03*
%TO.N,BT4*%
X118750000Y-23824265D03*
X116667157Y-25906373D03*
%TO.N,GND*%
X79300000Y-425000D03*
X116450000Y-19075000D03*
X116250735Y-13974265D03*
X118500000Y-11725000D03*
X94100000Y-11475000D03*
X110600000Y-35475000D03*
X129500000Y-11775000D03*
X127800000Y-25575000D03*
X133550000Y-13875000D03*
X96100000Y-8175000D03*
X125000000Y-6475000D03*
X124150000Y-17475000D03*
X105550000Y-13875000D03*
X93200000Y-425000D03*
X79300000Y-4325000D03*
X127100000Y-77475000D03*
X120100000Y-5525000D03*
X91350000Y-6075000D03*
X61100000Y-77475000D03*
X44600000Y-35475000D03*
X112942892Y-11867892D03*
X77600000Y-35475000D03*
X110370000Y-10925000D03*
X143600000Y-35475000D03*
%TO.N,BT5*%
X76725000Y-18650000D03*
X121650000Y-17476472D03*
%TO.N,BT6*%
X122250000Y-29075000D03*
X122250000Y-30675000D03*
%TD*%
D18*
%TO.N,+3V3*%
X121000000Y-11125000D02*
X120750000Y-11375000D01*
X113150000Y-3925000D02*
X113850000Y-3925000D01*
X120800000Y-10925000D02*
X121000000Y-11125000D01*
X113850000Y-3925000D02*
X115975000Y-6050000D01*
X120800000Y-9425000D02*
X120800000Y-10925000D01*
X120750000Y-11375000D02*
X120750000Y-13775000D01*
%TO.N,Net-(U1-ADC_AVDD)*%
X123250000Y-5375000D02*
X122700000Y-5925000D01*
X126900000Y-5375000D02*
X123250000Y-5375000D01*
X127400000Y-4875000D02*
X126900000Y-5375000D01*
%TO.N,VBUS*%
X89353060Y-2375000D02*
X93250000Y-2375000D01*
X88073060Y-3655000D02*
X89353060Y-2375000D01*
%TO.N,Net-(D2-A)*%
X127341422Y-6333578D02*
X128982844Y-7975000D01*
X128982844Y-7975000D02*
X129600000Y-7975000D01*
%TO.N,Net-(U1-GPIO25)*%
X119825000Y-6650000D02*
X122650000Y-3825000D01*
X122650000Y-3825000D02*
X124150000Y-3825000D01*
%TO.N,BT0*%
X118750000Y-21843628D02*
X112568628Y-28025000D01*
X112568628Y-28025000D02*
X38250000Y-28025000D01*
X118750000Y-18675000D02*
X118750000Y-21843628D01*
%TO.N,BT1*%
X66250000Y-28425000D02*
X64650000Y-30025000D01*
X119550000Y-21609314D02*
X112734314Y-28425000D01*
X112734314Y-28425000D02*
X66250000Y-28425000D01*
X119550000Y-18675000D02*
X119550000Y-21609314D01*
%TO.N,BT2*%
X100700000Y-28825000D02*
X98600000Y-30925000D01*
X120350003Y-21374997D02*
X112900000Y-28825000D01*
X120350003Y-18675000D02*
X120350003Y-21374997D01*
X112900000Y-28825000D02*
X100700000Y-28825000D01*
%TO.N,BT3*%
X121150006Y-26925006D02*
X121150006Y-18675000D01*
X125700000Y-31475000D02*
X121150006Y-26925006D01*
%TO.N,BT4*%
X118750000Y-23824265D02*
X116667892Y-25906373D01*
X116667892Y-25906373D02*
X116667157Y-25906373D01*
%TO.N,GND*%
X115049265Y-13974265D02*
X116250735Y-13974265D01*
X112942892Y-11867892D02*
X115049265Y-13974265D01*
X120050000Y-5575000D02*
X120034314Y-5575000D01*
X120100000Y-5525000D02*
X120050000Y-5575000D01*
%TO.N,BT5*%
X120673491Y-16499963D02*
X121650000Y-17476472D01*
X78150000Y-20075000D02*
X110400000Y-20075000D01*
X113975037Y-16499963D02*
X120673491Y-16499963D01*
X76725000Y-18650000D02*
X78150000Y-20075000D01*
X110400000Y-20075000D02*
X113975037Y-16499963D01*
%TO.N,BT6*%
X122250000Y-29075000D02*
X122250000Y-30675000D01*
%TD*%
%TA.AperFunction,Conductor*%
%TO.N,GND*%
G36*
X183253736Y1924274D02*
G01*
X183543796Y1906729D01*
X183558659Y1904924D01*
X183840798Y1853220D01*
X183855335Y1849637D01*
X184129172Y1764305D01*
X184143163Y1759000D01*
X184404743Y1641273D01*
X184417989Y1634320D01*
X184663465Y1485925D01*
X184675776Y1477427D01*
X184901573Y1300527D01*
X184912781Y1290597D01*
X185115596Y1087782D01*
X185125526Y1076574D01*
X185245481Y923462D01*
X185302422Y850783D01*
X185310928Y838460D01*
X185459316Y592996D01*
X185466275Y579737D01*
X185583997Y318169D01*
X185589306Y304168D01*
X185674635Y30337D01*
X185678219Y15799D01*
X185729923Y-266340D01*
X185731728Y-281205D01*
X185749273Y-571261D01*
X185749499Y-578748D01*
X185749499Y-44546465D01*
X185748917Y-44558463D01*
X185691509Y-45148989D01*
X185690717Y-45155402D01*
X185600283Y-45757747D01*
X185599157Y-45764109D01*
X185477477Y-46360883D01*
X185476022Y-46367179D01*
X185323411Y-46956846D01*
X185321629Y-46963057D01*
X185138522Y-47543932D01*
X185136420Y-47550042D01*
X184923289Y-48120629D01*
X184920871Y-48126620D01*
X184678317Y-48685308D01*
X184675590Y-48691166D01*
X184404264Y-49236459D01*
X184401236Y-49242167D01*
X184109510Y-49759055D01*
X184103107Y-49769217D01*
X152601564Y-94771421D01*
X152592076Y-94782129D01*
X152592491Y-94782485D01*
X152587203Y-94788649D01*
X152556774Y-94835291D01*
X152554506Y-94838647D01*
X152536064Y-94864992D01*
X152535345Y-94866007D01*
X152309617Y-95181677D01*
X152303093Y-95190023D01*
X152036994Y-95501984D01*
X152029782Y-95509742D01*
X151738026Y-95797856D01*
X151730178Y-95804971D01*
X151414904Y-96067127D01*
X151406477Y-96073545D01*
X151069973Y-96307841D01*
X151061029Y-96313517D01*
X150705762Y-96518235D01*
X150696367Y-96523127D01*
X150324914Y-96696781D01*
X150315135Y-96700853D01*
X149930227Y-96842167D01*
X149920136Y-96845390D01*
X149524559Y-96953341D01*
X149514230Y-96955690D01*
X149110899Y-97029483D01*
X149100407Y-97030943D01*
X148692243Y-97070043D01*
X148681666Y-97070602D01*
X148294695Y-97074493D01*
X148293448Y-97074499D01*
X148260216Y-97074499D01*
X148256165Y-97074433D01*
X148246463Y-97074115D01*
X148200493Y-97072613D01*
X148200492Y-97072613D01*
X148200489Y-97072613D01*
X148192404Y-97073410D01*
X148192350Y-97072864D01*
X148178139Y-97074499D01*
X24321861Y-97074499D01*
X24307649Y-97072864D01*
X24307596Y-97073410D01*
X24299510Y-97072613D01*
X24299507Y-97072613D01*
X24256060Y-97074033D01*
X24243835Y-97074433D01*
X24239784Y-97074499D01*
X24207744Y-97074499D01*
X24206497Y-97074493D01*
X23818333Y-97070590D01*
X23807756Y-97070031D01*
X23399590Y-97030931D01*
X23389098Y-97029471D01*
X22985773Y-96955679D01*
X22975444Y-96953330D01*
X22579867Y-96845379D01*
X22569776Y-96842156D01*
X22184869Y-96700842D01*
X22175090Y-96696770D01*
X21803638Y-96523116D01*
X21794243Y-96518224D01*
X21758124Y-96497411D01*
X21438971Y-96313503D01*
X21430040Y-96307835D01*
X21093535Y-96073540D01*
X21085110Y-96067122D01*
X20769822Y-95804954D01*
X20761974Y-95797840D01*
X20470226Y-95509734D01*
X20463014Y-95501976D01*
X20196915Y-95190016D01*
X20190391Y-95181670D01*
X19963926Y-94864970D01*
X19963207Y-94863954D01*
X19945498Y-94838656D01*
X19943245Y-94835323D01*
X19912795Y-94788648D01*
X19912794Y-94788647D01*
X19907500Y-94782474D01*
X19907916Y-94782116D01*
X19898428Y-94771413D01*
X12936288Y-84825499D01*
X11298933Y-82486421D01*
X47044500Y-82486421D01*
X47044500Y-82663578D01*
X47072214Y-82838556D01*
X47126956Y-83007039D01*
X47126957Y-83007042D01*
X47207386Y-83164890D01*
X47311517Y-83308214D01*
X47436786Y-83433483D01*
X47580110Y-83537614D01*
X47648577Y-83572500D01*
X47737957Y-83618042D01*
X47737960Y-83618043D01*
X47822201Y-83645414D01*
X47906445Y-83672786D01*
X48081421Y-83700500D01*
X48081422Y-83700500D01*
X48258578Y-83700500D01*
X48258579Y-83700500D01*
X48433555Y-83672786D01*
X48602042Y-83618042D01*
X48759890Y-83537614D01*
X48903214Y-83433483D01*
X49028483Y-83308214D01*
X49132614Y-83164890D01*
X49213042Y-83007042D01*
X49267786Y-82838555D01*
X49295500Y-82663579D01*
X49295500Y-82486421D01*
X49286165Y-82427486D01*
X50999500Y-82427486D01*
X50999500Y-82722513D01*
X51014778Y-82838555D01*
X51038007Y-83014993D01*
X51114361Y-83299951D01*
X51114364Y-83299961D01*
X51227254Y-83572500D01*
X51227258Y-83572510D01*
X51374761Y-83827993D01*
X51554352Y-84062040D01*
X51554358Y-84062047D01*
X51762952Y-84270641D01*
X51762959Y-84270647D01*
X51997006Y-84450238D01*
X52252489Y-84597741D01*
X52252490Y-84597741D01*
X52252493Y-84597743D01*
X52525048Y-84710639D01*
X52810007Y-84786993D01*
X53102494Y-84825500D01*
X53102501Y-84825500D01*
X53397499Y-84825500D01*
X53397506Y-84825500D01*
X53689993Y-84786993D01*
X53974952Y-84710639D01*
X54247507Y-84597743D01*
X54502994Y-84450238D01*
X54737042Y-84270646D01*
X54945646Y-84062042D01*
X55125238Y-83827994D01*
X55272743Y-83572507D01*
X55385639Y-83299952D01*
X55461993Y-83014993D01*
X55500500Y-82722506D01*
X55500500Y-82486421D01*
X57204500Y-82486421D01*
X57204500Y-82663578D01*
X57232214Y-82838556D01*
X57286956Y-83007039D01*
X57286957Y-83007042D01*
X57367386Y-83164890D01*
X57471517Y-83308214D01*
X57596786Y-83433483D01*
X57740110Y-83537614D01*
X57808577Y-83572500D01*
X57897957Y-83618042D01*
X57897960Y-83618043D01*
X57982201Y-83645414D01*
X58066445Y-83672786D01*
X58241421Y-83700500D01*
X58241422Y-83700500D01*
X58418578Y-83700500D01*
X58418579Y-83700500D01*
X58593555Y-83672786D01*
X58762042Y-83618042D01*
X58919890Y-83537614D01*
X59063214Y-83433483D01*
X59188483Y-83308214D01*
X59292614Y-83164890D01*
X59373042Y-83007042D01*
X59427786Y-82838555D01*
X59455500Y-82663579D01*
X59455500Y-82486421D01*
X113044500Y-82486421D01*
X113044500Y-82663578D01*
X113072214Y-82838556D01*
X113126956Y-83007039D01*
X113126957Y-83007042D01*
X113207386Y-83164890D01*
X113311517Y-83308214D01*
X113436786Y-83433483D01*
X113580110Y-83537614D01*
X113648577Y-83572500D01*
X113737957Y-83618042D01*
X113737960Y-83618043D01*
X113822201Y-83645414D01*
X113906445Y-83672786D01*
X114081421Y-83700500D01*
X114081422Y-83700500D01*
X114258578Y-83700500D01*
X114258579Y-83700500D01*
X114433555Y-83672786D01*
X114602042Y-83618042D01*
X114759890Y-83537614D01*
X114903214Y-83433483D01*
X115028483Y-83308214D01*
X115132614Y-83164890D01*
X115213042Y-83007042D01*
X115267786Y-82838555D01*
X115295500Y-82663579D01*
X115295500Y-82486421D01*
X115286165Y-82427486D01*
X116999500Y-82427486D01*
X116999500Y-82722513D01*
X117014778Y-82838555D01*
X117038007Y-83014993D01*
X117114361Y-83299951D01*
X117114364Y-83299961D01*
X117227254Y-83572500D01*
X117227258Y-83572510D01*
X117374761Y-83827993D01*
X117554352Y-84062040D01*
X117554358Y-84062047D01*
X117762952Y-84270641D01*
X117762959Y-84270647D01*
X117997006Y-84450238D01*
X118252489Y-84597741D01*
X118252490Y-84597741D01*
X118252493Y-84597743D01*
X118525048Y-84710639D01*
X118810007Y-84786993D01*
X119102494Y-84825500D01*
X119102501Y-84825500D01*
X119397499Y-84825500D01*
X119397506Y-84825500D01*
X119689993Y-84786993D01*
X119974952Y-84710639D01*
X120247507Y-84597743D01*
X120502994Y-84450238D01*
X120737042Y-84270646D01*
X120945646Y-84062042D01*
X121125238Y-83827994D01*
X121272743Y-83572507D01*
X121385639Y-83299952D01*
X121461993Y-83014993D01*
X121500500Y-82722506D01*
X121500500Y-82486421D01*
X123204500Y-82486421D01*
X123204500Y-82663578D01*
X123232214Y-82838556D01*
X123286956Y-83007039D01*
X123286957Y-83007042D01*
X123367386Y-83164890D01*
X123471517Y-83308214D01*
X123596786Y-83433483D01*
X123740110Y-83537614D01*
X123808577Y-83572500D01*
X123897957Y-83618042D01*
X123897960Y-83618043D01*
X123982201Y-83645414D01*
X124066445Y-83672786D01*
X124241421Y-83700500D01*
X124241422Y-83700500D01*
X124418578Y-83700500D01*
X124418579Y-83700500D01*
X124593555Y-83672786D01*
X124762042Y-83618042D01*
X124919890Y-83537614D01*
X125063214Y-83433483D01*
X125188483Y-83308214D01*
X125292614Y-83164890D01*
X125373042Y-83007042D01*
X125427786Y-82838555D01*
X125455500Y-82663579D01*
X125455500Y-82486421D01*
X125427786Y-82311445D01*
X125373042Y-82142958D01*
X125373042Y-82142957D01*
X125292613Y-81985109D01*
X125289618Y-81980987D01*
X125188483Y-81841786D01*
X125063214Y-81716517D01*
X124919890Y-81612386D01*
X124762042Y-81531957D01*
X124762039Y-81531956D01*
X124593556Y-81477214D01*
X124506067Y-81463357D01*
X124418579Y-81449500D01*
X124241421Y-81449500D01*
X124183095Y-81458738D01*
X124066443Y-81477214D01*
X123897960Y-81531956D01*
X123897957Y-81531957D01*
X123740109Y-81612386D01*
X123658338Y-81671796D01*
X123596786Y-81716517D01*
X123596784Y-81716519D01*
X123596783Y-81716519D01*
X123471519Y-81841783D01*
X123471519Y-81841784D01*
X123471517Y-81841786D01*
X123426796Y-81903338D01*
X123367386Y-81985109D01*
X123286957Y-82142957D01*
X123286956Y-82142960D01*
X123232214Y-82311443D01*
X123204500Y-82486421D01*
X121500500Y-82486421D01*
X121500500Y-82427494D01*
X121461993Y-82135007D01*
X121385639Y-81850048D01*
X121384615Y-81847577D01*
X121330329Y-81716519D01*
X121272743Y-81577493D01*
X121246453Y-81531958D01*
X121125238Y-81322006D01*
X120945647Y-81087959D01*
X120945641Y-81087952D01*
X120737047Y-80879358D01*
X120737040Y-80879352D01*
X120502993Y-80699761D01*
X120247510Y-80552258D01*
X120247500Y-80552254D01*
X119974961Y-80439364D01*
X119974954Y-80439362D01*
X119974952Y-80439361D01*
X119689993Y-80363007D01*
X119641113Y-80356571D01*
X119397513Y-80324500D01*
X119397506Y-80324500D01*
X119102494Y-80324500D01*
X119102486Y-80324500D01*
X118824085Y-80361153D01*
X118810007Y-80363007D01*
X118525048Y-80439361D01*
X118525038Y-80439364D01*
X118252499Y-80552254D01*
X118252489Y-80552258D01*
X117997006Y-80699761D01*
X117762959Y-80879352D01*
X117762952Y-80879358D01*
X117554358Y-81087952D01*
X117554352Y-81087959D01*
X117374761Y-81322006D01*
X117227258Y-81577489D01*
X117227254Y-81577499D01*
X117114364Y-81850038D01*
X117114361Y-81850048D01*
X117078172Y-81985110D01*
X117038008Y-82135004D01*
X117038006Y-82135015D01*
X116999500Y-82427486D01*
X115286165Y-82427486D01*
X115267786Y-82311445D01*
X115213042Y-82142958D01*
X115213040Y-82142952D01*
X115130513Y-81980987D01*
X115117616Y-81912317D01*
X115143892Y-81847577D01*
X115200998Y-81807319D01*
X115257181Y-81801752D01*
X115316564Y-81809570D01*
X115323612Y-81810498D01*
X115323628Y-81810500D01*
X115323635Y-81810500D01*
X115556365Y-81810500D01*
X115556372Y-81810500D01*
X115787126Y-81780121D01*
X116011940Y-81719882D01*
X116069953Y-81695852D01*
X116226960Y-81630819D01*
X116226963Y-81630817D01*
X116226969Y-81630815D01*
X116428532Y-81514442D01*
X116613181Y-81372756D01*
X116777756Y-81208181D01*
X116919442Y-81023532D01*
X117035815Y-80821969D01*
X117124882Y-80606940D01*
X117185121Y-80382126D01*
X117215500Y-80151372D01*
X117215500Y-79918628D01*
X117185121Y-79687874D01*
X117124882Y-79463060D01*
X117124879Y-79463052D01*
X117035819Y-79248039D01*
X117035811Y-79248023D01*
X116919446Y-79046475D01*
X116919442Y-79046468D01*
X116777756Y-78861819D01*
X116777751Y-78861813D01*
X116613186Y-78697248D01*
X116613179Y-78697242D01*
X116428540Y-78555564D01*
X116428538Y-78555562D01*
X116428532Y-78555558D01*
X116428527Y-78555555D01*
X116428524Y-78555553D01*
X116226976Y-78439188D01*
X116226960Y-78439180D01*
X116011947Y-78350120D01*
X115787122Y-78289878D01*
X115556382Y-78259501D01*
X115556377Y-78259500D01*
X115556372Y-78259500D01*
X115323628Y-78259500D01*
X115323622Y-78259500D01*
X115323617Y-78259501D01*
X115092877Y-78289878D01*
X114868052Y-78350120D01*
X114653039Y-78439180D01*
X114653023Y-78439188D01*
X114451475Y-78555553D01*
X114451459Y-78555564D01*
X114266820Y-78697242D01*
X114266813Y-78697248D01*
X114102248Y-78861813D01*
X114102242Y-78861820D01*
X113960564Y-79046459D01*
X113960553Y-79046475D01*
X113844188Y-79248023D01*
X113844180Y-79248039D01*
X113755120Y-79463052D01*
X113694878Y-79687877D01*
X113664501Y-79918617D01*
X113664500Y-79918634D01*
X113664500Y-80151365D01*
X113664501Y-80151382D01*
X113694878Y-80382122D01*
X113755120Y-80606947D01*
X113844180Y-80821960D01*
X113844188Y-80821976D01*
X113960553Y-81023524D01*
X113960564Y-81023540D01*
X114102242Y-81208179D01*
X114102248Y-81208186D01*
X114135636Y-81241574D01*
X114169121Y-81302897D01*
X114164137Y-81372589D01*
X114122265Y-81428522D01*
X114067353Y-81451728D01*
X113906443Y-81477214D01*
X113737960Y-81531956D01*
X113737957Y-81531957D01*
X113580109Y-81612386D01*
X113498338Y-81671796D01*
X113436786Y-81716517D01*
X113436784Y-81716519D01*
X113436783Y-81716519D01*
X113311519Y-81841783D01*
X113311519Y-81841784D01*
X113311517Y-81841786D01*
X113266796Y-81903338D01*
X113207386Y-81985109D01*
X113126957Y-82142957D01*
X113126956Y-82142960D01*
X113072214Y-82311443D01*
X113044500Y-82486421D01*
X59455500Y-82486421D01*
X59427786Y-82311445D01*
X59373042Y-82142958D01*
X59373042Y-82142957D01*
X59292613Y-81985109D01*
X59289618Y-81980987D01*
X59188483Y-81841786D01*
X59063214Y-81716517D01*
X58919890Y-81612386D01*
X58762042Y-81531957D01*
X58762039Y-81531956D01*
X58593556Y-81477214D01*
X58506067Y-81463357D01*
X58418579Y-81449500D01*
X58241421Y-81449500D01*
X58183095Y-81458738D01*
X58066443Y-81477214D01*
X57897960Y-81531956D01*
X57897957Y-81531957D01*
X57740109Y-81612386D01*
X57658338Y-81671796D01*
X57596786Y-81716517D01*
X57596784Y-81716519D01*
X57596783Y-81716519D01*
X57471519Y-81841783D01*
X57471519Y-81841784D01*
X57471517Y-81841786D01*
X57426796Y-81903338D01*
X57367386Y-81985109D01*
X57286957Y-82142957D01*
X57286956Y-82142960D01*
X57232214Y-82311443D01*
X57204500Y-82486421D01*
X55500500Y-82486421D01*
X55500500Y-82427494D01*
X55461993Y-82135007D01*
X55385639Y-81850048D01*
X55384615Y-81847577D01*
X55330329Y-81716519D01*
X55272743Y-81577493D01*
X55246453Y-81531958D01*
X55125238Y-81322006D01*
X54945647Y-81087959D01*
X54945641Y-81087952D01*
X54737047Y-80879358D01*
X54737040Y-80879352D01*
X54502993Y-80699761D01*
X54247510Y-80552258D01*
X54247500Y-80552254D01*
X53974961Y-80439364D01*
X53974954Y-80439362D01*
X53974952Y-80439361D01*
X53689993Y-80363007D01*
X53641113Y-80356571D01*
X53397513Y-80324500D01*
X53397506Y-80324500D01*
X53102494Y-80324500D01*
X53102486Y-80324500D01*
X52824085Y-80361153D01*
X52810007Y-80363007D01*
X52525048Y-80439361D01*
X52525038Y-80439364D01*
X52252499Y-80552254D01*
X52252489Y-80552258D01*
X51997006Y-80699761D01*
X51762959Y-80879352D01*
X51762952Y-80879358D01*
X51554358Y-81087952D01*
X51554352Y-81087959D01*
X51374761Y-81322006D01*
X51227258Y-81577489D01*
X51227254Y-81577499D01*
X51114364Y-81850038D01*
X51114361Y-81850048D01*
X51078172Y-81985110D01*
X51038008Y-82135004D01*
X51038006Y-82135015D01*
X50999500Y-82427486D01*
X49286165Y-82427486D01*
X49267786Y-82311445D01*
X49213042Y-82142958D01*
X49213040Y-82142952D01*
X49130513Y-81980987D01*
X49117616Y-81912317D01*
X49143892Y-81847577D01*
X49200998Y-81807319D01*
X49257181Y-81801752D01*
X49316564Y-81809570D01*
X49323612Y-81810498D01*
X49323628Y-81810500D01*
X49323635Y-81810500D01*
X49556365Y-81810500D01*
X49556372Y-81810500D01*
X49787126Y-81780121D01*
X50011940Y-81719882D01*
X50069953Y-81695852D01*
X50226960Y-81630819D01*
X50226963Y-81630817D01*
X50226969Y-81630815D01*
X50428532Y-81514442D01*
X50613181Y-81372756D01*
X50777756Y-81208181D01*
X50919442Y-81023532D01*
X51035815Y-80821969D01*
X51124882Y-80606940D01*
X51185121Y-80382126D01*
X51215500Y-80151372D01*
X51215500Y-79918628D01*
X51185121Y-79687874D01*
X51124882Y-79463060D01*
X51124879Y-79463052D01*
X51035819Y-79248039D01*
X51035811Y-79248023D01*
X50919446Y-79046475D01*
X50919442Y-79046468D01*
X50777756Y-78861819D01*
X50777751Y-78861813D01*
X50613186Y-78697248D01*
X50613179Y-78697242D01*
X50428540Y-78555564D01*
X50428538Y-78555562D01*
X50428532Y-78555558D01*
X50428527Y-78555555D01*
X50428524Y-78555553D01*
X50226976Y-78439188D01*
X50226960Y-78439180D01*
X50011947Y-78350120D01*
X49787122Y-78289878D01*
X49556382Y-78259501D01*
X49556377Y-78259500D01*
X49556372Y-78259500D01*
X49323628Y-78259500D01*
X49323622Y-78259500D01*
X49323617Y-78259501D01*
X49092877Y-78289878D01*
X48868052Y-78350120D01*
X48653039Y-78439180D01*
X48653023Y-78439188D01*
X48451475Y-78555553D01*
X48451459Y-78555564D01*
X48266820Y-78697242D01*
X48266813Y-78697248D01*
X48102248Y-78861813D01*
X48102242Y-78861820D01*
X47960564Y-79046459D01*
X47960553Y-79046475D01*
X47844188Y-79248023D01*
X47844180Y-79248039D01*
X47755120Y-79463052D01*
X47694878Y-79687877D01*
X47664501Y-79918617D01*
X47664500Y-79918634D01*
X47664500Y-80151365D01*
X47664501Y-80151382D01*
X47694878Y-80382122D01*
X47755120Y-80606947D01*
X47844180Y-80821960D01*
X47844188Y-80821976D01*
X47960553Y-81023524D01*
X47960564Y-81023540D01*
X48102242Y-81208179D01*
X48102248Y-81208186D01*
X48135636Y-81241574D01*
X48169121Y-81302897D01*
X48164137Y-81372589D01*
X48122265Y-81428522D01*
X48067353Y-81451728D01*
X47906443Y-81477214D01*
X47737960Y-81531956D01*
X47737957Y-81531957D01*
X47580109Y-81612386D01*
X47498338Y-81671796D01*
X47436786Y-81716517D01*
X47436784Y-81716519D01*
X47436783Y-81716519D01*
X47311519Y-81841783D01*
X47311519Y-81841784D01*
X47311517Y-81841786D01*
X47266796Y-81903338D01*
X47207386Y-81985109D01*
X47126957Y-82142957D01*
X47126956Y-82142960D01*
X47072214Y-82311443D01*
X47044500Y-82486421D01*
X11298933Y-82486421D01*
X4900468Y-73345756D01*
X15999500Y-73345756D01*
X15999500Y-73804243D01*
X16039460Y-74260985D01*
X16039460Y-74260987D01*
X16119072Y-74712489D01*
X16119074Y-74712499D01*
X16237739Y-75155360D01*
X16237742Y-75155370D01*
X16237743Y-75155371D01*
X16394546Y-75586189D01*
X16394550Y-75586199D01*
X16588308Y-76001711D01*
X16588316Y-76001727D01*
X16596305Y-76015564D01*
X16817555Y-76398779D01*
X16817559Y-76398785D01*
X16817566Y-76398796D01*
X17080530Y-76774348D01*
X17293544Y-77028208D01*
X17375237Y-77125566D01*
X17699434Y-77449763D01*
X17845469Y-77572301D01*
X18050651Y-77744469D01*
X18426203Y-78007433D01*
X18426210Y-78007437D01*
X18426221Y-78007445D01*
X18823279Y-78236687D01*
X18872204Y-78259501D01*
X19238800Y-78430449D01*
X19238810Y-78430453D01*
X19438060Y-78502973D01*
X19669640Y-78587261D01*
X20112501Y-78705926D01*
X20564019Y-78785540D01*
X21020756Y-78825499D01*
X21020757Y-78825500D01*
X21020758Y-78825500D01*
X21479243Y-78825500D01*
X21479243Y-78825499D01*
X21935981Y-78785540D01*
X22387499Y-78705926D01*
X22830360Y-78587261D01*
X23237189Y-78439188D01*
X23261189Y-78430453D01*
X23261199Y-78430449D01*
X23433468Y-78350118D01*
X23676721Y-78236687D01*
X24073779Y-78007445D01*
X24449347Y-77744470D01*
X24800566Y-77449763D01*
X24871695Y-77378634D01*
X54014500Y-77378634D01*
X54014500Y-77611365D01*
X54014501Y-77611382D01*
X54044878Y-77842122D01*
X54105120Y-78066947D01*
X54194180Y-78281960D01*
X54194188Y-78281976D01*
X54310553Y-78483524D01*
X54310564Y-78483540D01*
X54452242Y-78668179D01*
X54452248Y-78668186D01*
X54616813Y-78832751D01*
X54616820Y-78832757D01*
X54654696Y-78861820D01*
X54801468Y-78974442D01*
X54801475Y-78974446D01*
X55003023Y-79090811D01*
X55003039Y-79090819D01*
X55218052Y-79179879D01*
X55218054Y-79179879D01*
X55218060Y-79179882D01*
X55442874Y-79240121D01*
X55673628Y-79270500D01*
X55673635Y-79270500D01*
X55906365Y-79270500D01*
X55906372Y-79270500D01*
X56137126Y-79240121D01*
X56361940Y-79179882D01*
X56419953Y-79155852D01*
X56576960Y-79090819D01*
X56576963Y-79090817D01*
X56576969Y-79090815D01*
X56778532Y-78974442D01*
X56963181Y-78832756D01*
X57127756Y-78668181D01*
X57269442Y-78483532D01*
X57385815Y-78281969D01*
X57395122Y-78259501D01*
X57474879Y-78066947D01*
X57474878Y-78066947D01*
X57474882Y-78066940D01*
X57535121Y-77842126D01*
X57565500Y-77611372D01*
X57565500Y-77378634D01*
X120014500Y-77378634D01*
X120014500Y-77611365D01*
X120014501Y-77611382D01*
X120044878Y-77842122D01*
X120105120Y-78066947D01*
X120194180Y-78281960D01*
X120194188Y-78281976D01*
X120310553Y-78483524D01*
X120310564Y-78483540D01*
X120452242Y-78668179D01*
X120452248Y-78668186D01*
X120616813Y-78832751D01*
X120616820Y-78832757D01*
X120654696Y-78861820D01*
X120801468Y-78974442D01*
X120801475Y-78974446D01*
X121003023Y-79090811D01*
X121003039Y-79090819D01*
X121218052Y-79179879D01*
X121218054Y-79179879D01*
X121218060Y-79179882D01*
X121442874Y-79240121D01*
X121673628Y-79270500D01*
X121673635Y-79270500D01*
X121906365Y-79270500D01*
X121906372Y-79270500D01*
X122137126Y-79240121D01*
X122361940Y-79179882D01*
X122419953Y-79155852D01*
X122576960Y-79090819D01*
X122576963Y-79090817D01*
X122576969Y-79090815D01*
X122778532Y-78974442D01*
X122963181Y-78832756D01*
X123127756Y-78668181D01*
X123269442Y-78483532D01*
X123385815Y-78281969D01*
X123395122Y-78259501D01*
X123474879Y-78066947D01*
X123474878Y-78066947D01*
X123474882Y-78066940D01*
X123535121Y-77842126D01*
X123565500Y-77611372D01*
X123565500Y-77378628D01*
X123535121Y-77147874D01*
X123474882Y-76923060D01*
X123474879Y-76923052D01*
X123385819Y-76708039D01*
X123385811Y-76708023D01*
X123269446Y-76506475D01*
X123269442Y-76506468D01*
X123228647Y-76453303D01*
X123127757Y-76321820D01*
X123127751Y-76321813D01*
X122963186Y-76157248D01*
X122963179Y-76157242D01*
X122778540Y-76015564D01*
X122778538Y-76015562D01*
X122778532Y-76015558D01*
X122778527Y-76015555D01*
X122778524Y-76015553D01*
X122576976Y-75899188D01*
X122576960Y-75899180D01*
X122361947Y-75810120D01*
X122137122Y-75749878D01*
X121906382Y-75719501D01*
X121906377Y-75719500D01*
X121906372Y-75719500D01*
X121673628Y-75719500D01*
X121673622Y-75719500D01*
X121673617Y-75719501D01*
X121442877Y-75749878D01*
X121218052Y-75810120D01*
X121003039Y-75899180D01*
X121003023Y-75899188D01*
X120801475Y-76015553D01*
X120801459Y-76015564D01*
X120616820Y-76157242D01*
X120616813Y-76157248D01*
X120452248Y-76321813D01*
X120452242Y-76321820D01*
X120310564Y-76506459D01*
X120310553Y-76506475D01*
X120194188Y-76708023D01*
X120194180Y-76708039D01*
X120105120Y-76923052D01*
X120044878Y-77147877D01*
X120014501Y-77378617D01*
X120014500Y-77378634D01*
X57565500Y-77378634D01*
X57565500Y-77378628D01*
X57535121Y-77147874D01*
X57474882Y-76923060D01*
X57474879Y-76923052D01*
X57385819Y-76708039D01*
X57385811Y-76708023D01*
X57269446Y-76506475D01*
X57269442Y-76506468D01*
X57228647Y-76453303D01*
X57127757Y-76321820D01*
X57127751Y-76321813D01*
X56963186Y-76157248D01*
X56963179Y-76157242D01*
X56778540Y-76015564D01*
X56778538Y-76015562D01*
X56778532Y-76015558D01*
X56778527Y-76015555D01*
X56778524Y-76015553D01*
X56576976Y-75899188D01*
X56576960Y-75899180D01*
X56361947Y-75810120D01*
X56137122Y-75749878D01*
X55906382Y-75719501D01*
X55906377Y-75719500D01*
X55906372Y-75719500D01*
X55673628Y-75719500D01*
X55673622Y-75719500D01*
X55673617Y-75719501D01*
X55442877Y-75749878D01*
X55218052Y-75810120D01*
X55003039Y-75899180D01*
X55003023Y-75899188D01*
X54801475Y-76015553D01*
X54801459Y-76015564D01*
X54616820Y-76157242D01*
X54616813Y-76157248D01*
X54452248Y-76321813D01*
X54452242Y-76321820D01*
X54310564Y-76506459D01*
X54310553Y-76506475D01*
X54194188Y-76708023D01*
X54194180Y-76708039D01*
X54105120Y-76923052D01*
X54044878Y-77147877D01*
X54014501Y-77378617D01*
X54014500Y-77378634D01*
X24871695Y-77378634D01*
X25124763Y-77125566D01*
X25419470Y-76774347D01*
X25682445Y-76398779D01*
X25911687Y-76001721D01*
X26105451Y-75586194D01*
X26262261Y-75155360D01*
X26380926Y-74712499D01*
X26460540Y-74260981D01*
X26500500Y-73804242D01*
X26500500Y-73345758D01*
X26500500Y-73345756D01*
X145999500Y-73345756D01*
X145999500Y-73804243D01*
X146039460Y-74260985D01*
X146039460Y-74260987D01*
X146119072Y-74712489D01*
X146119074Y-74712499D01*
X146237739Y-75155360D01*
X146237742Y-75155370D01*
X146237743Y-75155371D01*
X146394546Y-75586189D01*
X146394550Y-75586199D01*
X146588308Y-76001711D01*
X146588316Y-76001727D01*
X146596305Y-76015564D01*
X146817555Y-76398779D01*
X146817559Y-76398785D01*
X146817566Y-76398796D01*
X147080530Y-76774348D01*
X147293544Y-77028208D01*
X147375237Y-77125566D01*
X147699434Y-77449763D01*
X147845469Y-77572301D01*
X148050651Y-77744469D01*
X148426203Y-78007433D01*
X148426210Y-78007437D01*
X148426221Y-78007445D01*
X148823279Y-78236687D01*
X148872204Y-78259501D01*
X149238800Y-78430449D01*
X149238810Y-78430453D01*
X149438060Y-78502973D01*
X149669640Y-78587261D01*
X150112501Y-78705926D01*
X150564019Y-78785540D01*
X151020756Y-78825499D01*
X151020757Y-78825500D01*
X151020758Y-78825500D01*
X151479243Y-78825500D01*
X151479243Y-78825499D01*
X151935981Y-78785540D01*
X152387499Y-78705926D01*
X152830360Y-78587261D01*
X153237189Y-78439188D01*
X153261189Y-78430453D01*
X153261199Y-78430449D01*
X153433468Y-78350118D01*
X153676721Y-78236687D01*
X154073779Y-78007445D01*
X154449347Y-77744470D01*
X154800566Y-77449763D01*
X155124763Y-77125566D01*
X155419470Y-76774347D01*
X155682445Y-76398779D01*
X155911687Y-76001721D01*
X156105451Y-75586194D01*
X156262261Y-75155360D01*
X156380926Y-74712499D01*
X156460540Y-74260981D01*
X156500500Y-73804242D01*
X156500500Y-73345758D01*
X156460540Y-72889019D01*
X156380926Y-72437501D01*
X156262261Y-71994640D01*
X156177973Y-71763060D01*
X156105453Y-71563810D01*
X156105449Y-71563800D01*
X155911691Y-71148288D01*
X155911683Y-71148272D01*
X155897288Y-71123340D01*
X155682445Y-70751221D01*
X155682437Y-70751210D01*
X155682433Y-70751203D01*
X155419469Y-70375651D01*
X155124760Y-70024431D01*
X154800568Y-69700239D01*
X154449348Y-69405530D01*
X154073796Y-69142566D01*
X154073785Y-69142559D01*
X154073779Y-69142555D01*
X153955810Y-69074445D01*
X153676727Y-68913316D01*
X153676711Y-68913308D01*
X153261199Y-68719550D01*
X153261189Y-68719546D01*
X152830371Y-68562743D01*
X152830370Y-68562742D01*
X152830360Y-68562739D01*
X152506165Y-68475870D01*
X152387500Y-68444074D01*
X152387489Y-68444072D01*
X151935986Y-68364460D01*
X151479243Y-68324500D01*
X151479242Y-68324500D01*
X151020758Y-68324500D01*
X151020757Y-68324500D01*
X150564014Y-68364460D01*
X150564012Y-68364460D01*
X150112510Y-68444072D01*
X150112499Y-68444074D01*
X149875169Y-68507667D01*
X149669640Y-68562739D01*
X149669633Y-68562741D01*
X149669628Y-68562743D01*
X149238810Y-68719546D01*
X149238800Y-68719550D01*
X148823288Y-68913308D01*
X148823272Y-68913316D01*
X148426229Y-69142550D01*
X148426203Y-69142566D01*
X148050651Y-69405530D01*
X147699431Y-69700239D01*
X147375239Y-70024431D01*
X147080530Y-70375651D01*
X146817566Y-70751203D01*
X146817550Y-70751229D01*
X146588316Y-71148272D01*
X146588308Y-71148288D01*
X146394550Y-71563800D01*
X146394546Y-71563810D01*
X146237743Y-71994628D01*
X146237740Y-71994638D01*
X146119074Y-72437499D01*
X146119072Y-72437510D01*
X146039460Y-72889012D01*
X146039460Y-72889014D01*
X145999500Y-73345756D01*
X26500500Y-73345756D01*
X26460540Y-72889019D01*
X26380926Y-72437501D01*
X26262261Y-71994640D01*
X26177973Y-71763060D01*
X26105453Y-71563810D01*
X26105449Y-71563800D01*
X25911691Y-71148288D01*
X25911683Y-71148272D01*
X25897288Y-71123340D01*
X25682445Y-70751221D01*
X25682437Y-70751210D01*
X25682433Y-70751203D01*
X25419469Y-70375651D01*
X25124760Y-70024431D01*
X24800568Y-69700239D01*
X24449348Y-69405530D01*
X24073796Y-69142566D01*
X24073785Y-69142559D01*
X24073779Y-69142555D01*
X23955810Y-69074445D01*
X23676727Y-68913316D01*
X23676711Y-68913308D01*
X23261199Y-68719550D01*
X23261189Y-68719546D01*
X22830371Y-68562743D01*
X22830370Y-68562742D01*
X22830360Y-68562739D01*
X22506165Y-68475870D01*
X22387500Y-68444074D01*
X22387489Y-68444072D01*
X21935986Y-68364460D01*
X21479243Y-68324500D01*
X21479242Y-68324500D01*
X21020758Y-68324500D01*
X21020757Y-68324500D01*
X20564014Y-68364460D01*
X20564012Y-68364460D01*
X20112510Y-68444072D01*
X20112499Y-68444074D01*
X19875169Y-68507667D01*
X19669640Y-68562739D01*
X19669633Y-68562741D01*
X19669628Y-68562743D01*
X19238810Y-68719546D01*
X19238800Y-68719550D01*
X18823288Y-68913308D01*
X18823272Y-68913316D01*
X18426229Y-69142550D01*
X18426203Y-69142566D01*
X18050651Y-69405530D01*
X17699431Y-69700239D01*
X17375239Y-70024431D01*
X17080530Y-70375651D01*
X16817566Y-70751203D01*
X16817550Y-70751229D01*
X16588316Y-71148272D01*
X16588308Y-71148288D01*
X16394550Y-71563800D01*
X16394546Y-71563810D01*
X16237743Y-71994628D01*
X16237740Y-71994638D01*
X16119074Y-72437499D01*
X16119072Y-72437510D01*
X16039460Y-72889012D01*
X16039460Y-72889014D01*
X15999500Y-73345756D01*
X4900468Y-73345756D01*
X-2799531Y-62345756D01*
X65999500Y-62345756D01*
X65999500Y-62804243D01*
X66039460Y-63260985D01*
X66039460Y-63260987D01*
X66119072Y-63712489D01*
X66119074Y-63712499D01*
X66237739Y-64155360D01*
X66237742Y-64155370D01*
X66237743Y-64155371D01*
X66394546Y-64586189D01*
X66394550Y-64586199D01*
X66588308Y-65001711D01*
X66588313Y-65001721D01*
X66817555Y-65398779D01*
X66817559Y-65398785D01*
X66817566Y-65398796D01*
X67080530Y-65774348D01*
X67293544Y-66028208D01*
X67375237Y-66125566D01*
X67699434Y-66449763D01*
X67845469Y-66572301D01*
X68050651Y-66744469D01*
X68426203Y-67007433D01*
X68426210Y-67007437D01*
X68426221Y-67007445D01*
X68823279Y-67236687D01*
X68823288Y-67236691D01*
X69238800Y-67430449D01*
X69238810Y-67430453D01*
X69438060Y-67502973D01*
X69669640Y-67587261D01*
X70112501Y-67705926D01*
X70564019Y-67785540D01*
X71020756Y-67825499D01*
X71020757Y-67825500D01*
X71020758Y-67825500D01*
X71479243Y-67825500D01*
X71479243Y-67825499D01*
X71935981Y-67785540D01*
X72387499Y-67705926D01*
X72830360Y-67587261D01*
X73261194Y-67430451D01*
X73261199Y-67430449D01*
X73399703Y-67365863D01*
X73676721Y-67236687D01*
X74073779Y-67007445D01*
X74449347Y-66744470D01*
X74800566Y-66449763D01*
X75124763Y-66125566D01*
X75419470Y-65774347D01*
X75682445Y-65398779D01*
X75911687Y-65001721D01*
X76105451Y-64586194D01*
X76262261Y-64155360D01*
X76380926Y-63712499D01*
X76460540Y-63260981D01*
X76500500Y-62804242D01*
X76500500Y-62345758D01*
X76500500Y-62345756D01*
X95999500Y-62345756D01*
X95999500Y-62804243D01*
X96039460Y-63260985D01*
X96039460Y-63260987D01*
X96119072Y-63712489D01*
X96119074Y-63712499D01*
X96237739Y-64155360D01*
X96237742Y-64155370D01*
X96237743Y-64155371D01*
X96394546Y-64586189D01*
X96394550Y-64586199D01*
X96588308Y-65001711D01*
X96588313Y-65001721D01*
X96817555Y-65398779D01*
X96817559Y-65398785D01*
X96817566Y-65398796D01*
X97080530Y-65774348D01*
X97293544Y-66028208D01*
X97375237Y-66125566D01*
X97699434Y-66449763D01*
X97845469Y-66572301D01*
X98050651Y-66744469D01*
X98426203Y-67007433D01*
X98426210Y-67007437D01*
X98426221Y-67007445D01*
X98823279Y-67236687D01*
X98823288Y-67236691D01*
X99238800Y-67430449D01*
X99238810Y-67430453D01*
X99438060Y-67502973D01*
X99669640Y-67587261D01*
X100112501Y-67705926D01*
X100564019Y-67785540D01*
X101020756Y-67825499D01*
X101020757Y-67825500D01*
X101020758Y-67825500D01*
X101479243Y-67825500D01*
X101479243Y-67825499D01*
X101935981Y-67785540D01*
X102387499Y-67705926D01*
X102830360Y-67587261D01*
X103261194Y-67430451D01*
X103261199Y-67430449D01*
X103399703Y-67365863D01*
X103676721Y-67236687D01*
X104073779Y-67007445D01*
X104449347Y-66744470D01*
X104800566Y-66449763D01*
X105124763Y-66125566D01*
X105419470Y-65774347D01*
X105682445Y-65398779D01*
X105911687Y-65001721D01*
X106105451Y-64586194D01*
X106262261Y-64155360D01*
X106380926Y-63712499D01*
X106460540Y-63260981D01*
X106500500Y-62804242D01*
X106500500Y-62345758D01*
X106460540Y-61889019D01*
X106380926Y-61437501D01*
X106262261Y-60994640D01*
X106177973Y-60763060D01*
X106105453Y-60563810D01*
X106105449Y-60563800D01*
X105911691Y-60148288D01*
X105911683Y-60148272D01*
X105897288Y-60123340D01*
X105682445Y-59751221D01*
X105682437Y-59751210D01*
X105682433Y-59751203D01*
X105419469Y-59375651D01*
X105124760Y-59024431D01*
X104800568Y-58700239D01*
X104449348Y-58405530D01*
X104073796Y-58142566D01*
X104073785Y-58142559D01*
X104073779Y-58142555D01*
X103955810Y-58074445D01*
X103676727Y-57913316D01*
X103676711Y-57913308D01*
X103261199Y-57719550D01*
X103261189Y-57719546D01*
X102830371Y-57562743D01*
X102830370Y-57562742D01*
X102830360Y-57562739D01*
X102506165Y-57475870D01*
X102387500Y-57444074D01*
X102387489Y-57444072D01*
X101935986Y-57364460D01*
X101479243Y-57324500D01*
X101479242Y-57324500D01*
X101020758Y-57324500D01*
X101020757Y-57324500D01*
X100564014Y-57364460D01*
X100564012Y-57364460D01*
X100112510Y-57444072D01*
X100112499Y-57444074D01*
X99875169Y-57507667D01*
X99669640Y-57562739D01*
X99669633Y-57562741D01*
X99669628Y-57562743D01*
X99238810Y-57719546D01*
X99238800Y-57719550D01*
X98823288Y-57913308D01*
X98823272Y-57913316D01*
X98426229Y-58142550D01*
X98426203Y-58142566D01*
X98050651Y-58405530D01*
X97699431Y-58700239D01*
X97375239Y-59024431D01*
X97080530Y-59375651D01*
X96817566Y-59751203D01*
X96817550Y-59751229D01*
X96588316Y-60148272D01*
X96588308Y-60148288D01*
X96394550Y-60563800D01*
X96394546Y-60563810D01*
X96237743Y-60994628D01*
X96237740Y-60994638D01*
X96119074Y-61437499D01*
X96119072Y-61437510D01*
X96039460Y-61889012D01*
X96039460Y-61889014D01*
X95999500Y-62345756D01*
X76500500Y-62345756D01*
X76460540Y-61889019D01*
X76380926Y-61437501D01*
X76262261Y-60994640D01*
X76177973Y-60763060D01*
X76105453Y-60563810D01*
X76105449Y-60563800D01*
X75911691Y-60148288D01*
X75911683Y-60148272D01*
X75897288Y-60123340D01*
X75682445Y-59751221D01*
X75682437Y-59751210D01*
X75682433Y-59751203D01*
X75419469Y-59375651D01*
X75124760Y-59024431D01*
X74800568Y-58700239D01*
X74449348Y-58405530D01*
X74073796Y-58142566D01*
X74073785Y-58142559D01*
X74073779Y-58142555D01*
X73955810Y-58074445D01*
X73676727Y-57913316D01*
X73676711Y-57913308D01*
X73261199Y-57719550D01*
X73261189Y-57719546D01*
X72830371Y-57562743D01*
X72830370Y-57562742D01*
X72830360Y-57562739D01*
X72506165Y-57475870D01*
X72387500Y-57444074D01*
X72387489Y-57444072D01*
X71935986Y-57364460D01*
X71479243Y-57324500D01*
X71479242Y-57324500D01*
X71020758Y-57324500D01*
X71020757Y-57324500D01*
X70564014Y-57364460D01*
X70564012Y-57364460D01*
X70112510Y-57444072D01*
X70112499Y-57444074D01*
X69875169Y-57507667D01*
X69669640Y-57562739D01*
X69669633Y-57562741D01*
X69669628Y-57562743D01*
X69238810Y-57719546D01*
X69238800Y-57719550D01*
X68823288Y-57913308D01*
X68823272Y-57913316D01*
X68426229Y-58142550D01*
X68426203Y-58142566D01*
X68050651Y-58405530D01*
X67699431Y-58700239D01*
X67375239Y-59024431D01*
X67080530Y-59375651D01*
X66817566Y-59751203D01*
X66817550Y-59751229D01*
X66588316Y-60148272D01*
X66588308Y-60148288D01*
X66394550Y-60563800D01*
X66394546Y-60563810D01*
X66237743Y-60994628D01*
X66237740Y-60994638D01*
X66119074Y-61437499D01*
X66119072Y-61437510D01*
X66039460Y-61889012D01*
X66039460Y-61889014D01*
X65999500Y-62345756D01*
X-2799531Y-62345756D01*
X-10426728Y-51449760D01*
X-11603232Y-49769040D01*
X-11609635Y-49758879D01*
X-11901263Y-49242175D01*
X-11904291Y-49236467D01*
X-12175620Y-48691177D01*
X-12178347Y-48685319D01*
X-12362574Y-48260985D01*
X-12420911Y-48126616D01*
X-12423325Y-48120633D01*
X-12541507Y-47804243D01*
X-12636458Y-47550042D01*
X-12638556Y-47543944D01*
X-12701030Y-47345756D01*
X999500Y-47345756D01*
X999500Y-47804243D01*
X1039460Y-48260985D01*
X1039460Y-48260987D01*
X1115312Y-48691166D01*
X1119074Y-48712499D01*
X1237739Y-49155360D01*
X1237742Y-49155370D01*
X1237743Y-49155371D01*
X1394546Y-49586189D01*
X1394550Y-49586199D01*
X1588308Y-50001711D01*
X1588313Y-50001721D01*
X1817555Y-50398779D01*
X1817559Y-50398785D01*
X1817566Y-50398796D01*
X2080530Y-50774348D01*
X2293544Y-51028208D01*
X2375237Y-51125566D01*
X2699434Y-51449763D01*
X2845469Y-51572301D01*
X3050651Y-51744469D01*
X3426203Y-52007433D01*
X3426210Y-52007437D01*
X3426221Y-52007445D01*
X3823279Y-52236687D01*
X3823288Y-52236691D01*
X4238800Y-52430449D01*
X4238810Y-52430453D01*
X4438060Y-52502973D01*
X4669640Y-52587261D01*
X5112501Y-52705926D01*
X5564019Y-52785540D01*
X6020756Y-52825499D01*
X6020757Y-52825500D01*
X6020758Y-52825500D01*
X6479243Y-52825500D01*
X6479243Y-52825499D01*
X6935981Y-52785540D01*
X7387499Y-52705926D01*
X7830360Y-52587261D01*
X8261194Y-52430451D01*
X8261199Y-52430449D01*
X8399703Y-52365863D01*
X8676721Y-52236687D01*
X9073779Y-52007445D01*
X9449347Y-51744470D01*
X9800566Y-51449763D01*
X10124763Y-51125566D01*
X10419470Y-50774347D01*
X10682445Y-50398779D01*
X10911687Y-50001721D01*
X11105451Y-49586194D01*
X11262261Y-49155360D01*
X11380926Y-48712499D01*
X11460540Y-48260981D01*
X11500500Y-47804242D01*
X11500500Y-47345758D01*
X11500500Y-47345756D01*
X160999500Y-47345756D01*
X160999500Y-47804243D01*
X161039460Y-48260985D01*
X161039460Y-48260987D01*
X161115312Y-48691166D01*
X161119074Y-48712499D01*
X161237739Y-49155360D01*
X161237742Y-49155370D01*
X161237743Y-49155371D01*
X161394546Y-49586189D01*
X161394550Y-49586199D01*
X161588308Y-50001711D01*
X161588313Y-50001721D01*
X161817555Y-50398779D01*
X161817559Y-50398785D01*
X161817566Y-50398796D01*
X162080530Y-50774348D01*
X162293544Y-51028208D01*
X162375237Y-51125566D01*
X162699434Y-51449763D01*
X162845469Y-51572301D01*
X163050651Y-51744469D01*
X163426203Y-52007433D01*
X163426210Y-52007437D01*
X163426221Y-52007445D01*
X163823279Y-52236687D01*
X163823288Y-52236691D01*
X164238800Y-52430449D01*
X164238810Y-52430453D01*
X164438060Y-52502973D01*
X164669640Y-52587261D01*
X165112501Y-52705926D01*
X165564019Y-52785540D01*
X166020756Y-52825499D01*
X166020757Y-52825500D01*
X166020758Y-52825500D01*
X166479243Y-52825500D01*
X166479243Y-52825499D01*
X166935981Y-52785540D01*
X167387499Y-52705926D01*
X167830360Y-52587261D01*
X168261194Y-52430451D01*
X168261199Y-52430449D01*
X168399703Y-52365863D01*
X168676721Y-52236687D01*
X169073779Y-52007445D01*
X169449347Y-51744470D01*
X169800566Y-51449763D01*
X170124763Y-51125566D01*
X170419470Y-50774347D01*
X170682445Y-50398779D01*
X170911687Y-50001721D01*
X171105451Y-49586194D01*
X171262261Y-49155360D01*
X171380926Y-48712499D01*
X171460540Y-48260981D01*
X171500500Y-47804242D01*
X171500500Y-47345758D01*
X171460540Y-46889019D01*
X171380926Y-46437501D01*
X171262261Y-45994640D01*
X171120966Y-45606433D01*
X171105453Y-45563810D01*
X171105449Y-45563800D01*
X170915013Y-45155411D01*
X170911687Y-45148279D01*
X170682445Y-44751221D01*
X170682437Y-44751210D01*
X170682433Y-44751203D01*
X170419469Y-44375651D01*
X170124760Y-44024431D01*
X169800568Y-43700239D01*
X169449348Y-43405530D01*
X169073796Y-43142566D01*
X169073785Y-43142559D01*
X169073779Y-43142555D01*
X168955810Y-43074445D01*
X168676727Y-42913316D01*
X168676711Y-42913308D01*
X168261199Y-42719550D01*
X168261189Y-42719546D01*
X167830371Y-42562743D01*
X167830370Y-42562742D01*
X167830360Y-42562739D01*
X167506165Y-42475870D01*
X167387500Y-42444074D01*
X167387489Y-42444072D01*
X166935986Y-42364460D01*
X166479243Y-42324500D01*
X166479242Y-42324500D01*
X166020758Y-42324500D01*
X166020757Y-42324500D01*
X165564014Y-42364460D01*
X165564012Y-42364460D01*
X165112510Y-42444072D01*
X165112499Y-42444074D01*
X164875169Y-42507667D01*
X164669640Y-42562739D01*
X164669633Y-42562741D01*
X164669628Y-42562743D01*
X164238810Y-42719546D01*
X164238800Y-42719550D01*
X163823288Y-42913308D01*
X163823272Y-42913316D01*
X163426229Y-43142550D01*
X163426203Y-43142566D01*
X163050651Y-43405530D01*
X162699431Y-43700239D01*
X162375239Y-44024431D01*
X162080530Y-44375651D01*
X161817566Y-44751203D01*
X161817550Y-44751229D01*
X161588316Y-45148272D01*
X161588308Y-45148288D01*
X161394550Y-45563800D01*
X161394546Y-45563810D01*
X161237743Y-45994628D01*
X161237740Y-45994638D01*
X161119074Y-46437499D01*
X161119072Y-46437510D01*
X161039460Y-46889012D01*
X161039460Y-46889014D01*
X160999500Y-47345756D01*
X11500500Y-47345756D01*
X11460540Y-46889019D01*
X11380926Y-46437501D01*
X11262261Y-45994640D01*
X11120966Y-45606433D01*
X11105453Y-45563810D01*
X11105449Y-45563800D01*
X10915013Y-45155411D01*
X10911687Y-45148279D01*
X10682445Y-44751221D01*
X10682437Y-44751210D01*
X10682433Y-44751203D01*
X10419469Y-44375651D01*
X10124760Y-44024431D01*
X9800568Y-43700239D01*
X9449348Y-43405530D01*
X9073796Y-43142566D01*
X9073785Y-43142559D01*
X9073779Y-43142555D01*
X8955810Y-43074445D01*
X8676727Y-42913316D01*
X8676711Y-42913308D01*
X8261199Y-42719550D01*
X8261189Y-42719546D01*
X7830371Y-42562743D01*
X7830370Y-42562742D01*
X7830360Y-42562739D01*
X7506165Y-42475870D01*
X7387500Y-42444074D01*
X7387489Y-42444072D01*
X6935986Y-42364460D01*
X6479243Y-42324500D01*
X6479242Y-42324500D01*
X6020758Y-42324500D01*
X6020757Y-42324500D01*
X5564014Y-42364460D01*
X5564012Y-42364460D01*
X5112510Y-42444072D01*
X5112499Y-42444074D01*
X4875169Y-42507667D01*
X4669640Y-42562739D01*
X4669633Y-42562741D01*
X4669628Y-42562743D01*
X4238810Y-42719546D01*
X4238800Y-42719550D01*
X3823288Y-42913308D01*
X3823272Y-42913316D01*
X3426229Y-43142550D01*
X3426203Y-43142566D01*
X3050651Y-43405530D01*
X2699431Y-43700239D01*
X2375239Y-44024431D01*
X2080530Y-44375651D01*
X1817566Y-44751203D01*
X1817550Y-44751229D01*
X1588316Y-45148272D01*
X1588308Y-45148288D01*
X1394550Y-45563800D01*
X1394546Y-45563810D01*
X1237743Y-45994628D01*
X1237740Y-45994638D01*
X1119074Y-46437499D01*
X1119072Y-46437510D01*
X1039460Y-46889012D01*
X1039460Y-46889014D01*
X999500Y-47345756D01*
X-12701030Y-47345756D01*
X-12821673Y-46963038D01*
X-12823440Y-46956878D01*
X-12976056Y-46367185D01*
X-12977508Y-46360899D01*
X-13099185Y-45764117D01*
X-13100311Y-45757754D01*
X-13123029Y-45606433D01*
X-13190742Y-45155399D01*
X-13191532Y-45148998D01*
X-13191602Y-45148279D01*
X-13248919Y-44558627D01*
X-13249500Y-44546670D01*
X-13249500Y-40486421D01*
X30544500Y-40486421D01*
X30544500Y-40663578D01*
X30572214Y-40838556D01*
X30626956Y-41007039D01*
X30626957Y-41007042D01*
X30707386Y-41164890D01*
X30811517Y-41308214D01*
X30936786Y-41433483D01*
X31080110Y-41537614D01*
X31148577Y-41572500D01*
X31237957Y-41618042D01*
X31237960Y-41618043D01*
X31322201Y-41645414D01*
X31406445Y-41672786D01*
X31581421Y-41700500D01*
X31581422Y-41700500D01*
X31758578Y-41700500D01*
X31758579Y-41700500D01*
X31933555Y-41672786D01*
X32102042Y-41618042D01*
X32259890Y-41537614D01*
X32403214Y-41433483D01*
X32528483Y-41308214D01*
X32632614Y-41164890D01*
X32713042Y-41007042D01*
X32767786Y-40838555D01*
X32795500Y-40663579D01*
X32795500Y-40486421D01*
X32786165Y-40427486D01*
X34499500Y-40427486D01*
X34499500Y-40722513D01*
X34514778Y-40838555D01*
X34538007Y-41014993D01*
X34614361Y-41299951D01*
X34614364Y-41299961D01*
X34727254Y-41572500D01*
X34727258Y-41572510D01*
X34874761Y-41827993D01*
X35054352Y-42062040D01*
X35054358Y-42062047D01*
X35262952Y-42270641D01*
X35262959Y-42270647D01*
X35497006Y-42450238D01*
X35752489Y-42597741D01*
X35752490Y-42597741D01*
X35752493Y-42597743D01*
X36025048Y-42710639D01*
X36310007Y-42786993D01*
X36602494Y-42825500D01*
X36602501Y-42825500D01*
X36897499Y-42825500D01*
X36897506Y-42825500D01*
X37189993Y-42786993D01*
X37474952Y-42710639D01*
X37747507Y-42597743D01*
X38002994Y-42450238D01*
X38237042Y-42270646D01*
X38445646Y-42062042D01*
X38625238Y-41827994D01*
X38772743Y-41572507D01*
X38885639Y-41299952D01*
X38961993Y-41014993D01*
X39000500Y-40722506D01*
X39000500Y-40486421D01*
X40704500Y-40486421D01*
X40704500Y-40663578D01*
X40732214Y-40838556D01*
X40786956Y-41007039D01*
X40786957Y-41007042D01*
X40867386Y-41164890D01*
X40971517Y-41308214D01*
X41096786Y-41433483D01*
X41240110Y-41537614D01*
X41308577Y-41572500D01*
X41397957Y-41618042D01*
X41397960Y-41618043D01*
X41482201Y-41645414D01*
X41566445Y-41672786D01*
X41741421Y-41700500D01*
X41741422Y-41700500D01*
X41918578Y-41700500D01*
X41918579Y-41700500D01*
X42093555Y-41672786D01*
X42262042Y-41618042D01*
X42419890Y-41537614D01*
X42563214Y-41433483D01*
X42688483Y-41308214D01*
X42792614Y-41164890D01*
X42873042Y-41007042D01*
X42927786Y-40838555D01*
X42955500Y-40663579D01*
X42955500Y-40486421D01*
X63544500Y-40486421D01*
X63544500Y-40663578D01*
X63572214Y-40838556D01*
X63626956Y-41007039D01*
X63626957Y-41007042D01*
X63707386Y-41164890D01*
X63811517Y-41308214D01*
X63936786Y-41433483D01*
X64080110Y-41537614D01*
X64148577Y-41572500D01*
X64237957Y-41618042D01*
X64237960Y-41618043D01*
X64322201Y-41645414D01*
X64406445Y-41672786D01*
X64581421Y-41700500D01*
X64581422Y-41700500D01*
X64758578Y-41700500D01*
X64758579Y-41700500D01*
X64933555Y-41672786D01*
X65102042Y-41618042D01*
X65259890Y-41537614D01*
X65403214Y-41433483D01*
X65528483Y-41308214D01*
X65632614Y-41164890D01*
X65713042Y-41007042D01*
X65767786Y-40838555D01*
X65795500Y-40663579D01*
X65795500Y-40486421D01*
X65786165Y-40427486D01*
X67499500Y-40427486D01*
X67499500Y-40722513D01*
X67514778Y-40838555D01*
X67538007Y-41014993D01*
X67614361Y-41299951D01*
X67614364Y-41299961D01*
X67727254Y-41572500D01*
X67727258Y-41572510D01*
X67874761Y-41827993D01*
X68054352Y-42062040D01*
X68054358Y-42062047D01*
X68262952Y-42270641D01*
X68262959Y-42270647D01*
X68497006Y-42450238D01*
X68752489Y-42597741D01*
X68752490Y-42597741D01*
X68752493Y-42597743D01*
X69025048Y-42710639D01*
X69310007Y-42786993D01*
X69602494Y-42825500D01*
X69602501Y-42825500D01*
X69897499Y-42825500D01*
X69897506Y-42825500D01*
X70189993Y-42786993D01*
X70474952Y-42710639D01*
X70747507Y-42597743D01*
X71002994Y-42450238D01*
X71237042Y-42270646D01*
X71445646Y-42062042D01*
X71625238Y-41827994D01*
X71772743Y-41572507D01*
X71885639Y-41299952D01*
X71961993Y-41014993D01*
X72000500Y-40722506D01*
X72000500Y-40486421D01*
X73704500Y-40486421D01*
X73704500Y-40663578D01*
X73732214Y-40838556D01*
X73786956Y-41007039D01*
X73786957Y-41007042D01*
X73867386Y-41164890D01*
X73971517Y-41308214D01*
X74096786Y-41433483D01*
X74240110Y-41537614D01*
X74308577Y-41572500D01*
X74397957Y-41618042D01*
X74397960Y-41618043D01*
X74482201Y-41645414D01*
X74566445Y-41672786D01*
X74741421Y-41700500D01*
X74741422Y-41700500D01*
X74918578Y-41700500D01*
X74918579Y-41700500D01*
X75093555Y-41672786D01*
X75262042Y-41618042D01*
X75419890Y-41537614D01*
X75563214Y-41433483D01*
X75688483Y-41308214D01*
X75792614Y-41164890D01*
X75873042Y-41007042D01*
X75927786Y-40838555D01*
X75955500Y-40663579D01*
X75955500Y-40486421D01*
X96544500Y-40486421D01*
X96544500Y-40663578D01*
X96572214Y-40838556D01*
X96626956Y-41007039D01*
X96626957Y-41007042D01*
X96707386Y-41164890D01*
X96811517Y-41308214D01*
X96936786Y-41433483D01*
X97080110Y-41537614D01*
X97148577Y-41572500D01*
X97237957Y-41618042D01*
X97237960Y-41618043D01*
X97322201Y-41645414D01*
X97406445Y-41672786D01*
X97581421Y-41700500D01*
X97581422Y-41700500D01*
X97758578Y-41700500D01*
X97758579Y-41700500D01*
X97933555Y-41672786D01*
X98102042Y-41618042D01*
X98259890Y-41537614D01*
X98403214Y-41433483D01*
X98528483Y-41308214D01*
X98632614Y-41164890D01*
X98713042Y-41007042D01*
X98767786Y-40838555D01*
X98795500Y-40663579D01*
X98795500Y-40486421D01*
X98786165Y-40427486D01*
X100499500Y-40427486D01*
X100499500Y-40722513D01*
X100514778Y-40838555D01*
X100538007Y-41014993D01*
X100614361Y-41299951D01*
X100614364Y-41299961D01*
X100727254Y-41572500D01*
X100727258Y-41572510D01*
X100874761Y-41827993D01*
X101054352Y-42062040D01*
X101054358Y-42062047D01*
X101262952Y-42270641D01*
X101262959Y-42270647D01*
X101497006Y-42450238D01*
X101752489Y-42597741D01*
X101752490Y-42597741D01*
X101752493Y-42597743D01*
X102025048Y-42710639D01*
X102310007Y-42786993D01*
X102602494Y-42825500D01*
X102602501Y-42825500D01*
X102897499Y-42825500D01*
X102897506Y-42825500D01*
X103189993Y-42786993D01*
X103474952Y-42710639D01*
X103747507Y-42597743D01*
X104002994Y-42450238D01*
X104237042Y-42270646D01*
X104445646Y-42062042D01*
X104625238Y-41827994D01*
X104772743Y-41572507D01*
X104885639Y-41299952D01*
X104961993Y-41014993D01*
X105000500Y-40722506D01*
X105000500Y-40486421D01*
X106704500Y-40486421D01*
X106704500Y-40663578D01*
X106732214Y-40838556D01*
X106786956Y-41007039D01*
X106786957Y-41007042D01*
X106867386Y-41164890D01*
X106971517Y-41308214D01*
X107096786Y-41433483D01*
X107240110Y-41537614D01*
X107308577Y-41572500D01*
X107397957Y-41618042D01*
X107397960Y-41618043D01*
X107482201Y-41645414D01*
X107566445Y-41672786D01*
X107741421Y-41700500D01*
X107741422Y-41700500D01*
X107918578Y-41700500D01*
X107918579Y-41700500D01*
X108093555Y-41672786D01*
X108262042Y-41618042D01*
X108419890Y-41537614D01*
X108563214Y-41433483D01*
X108688483Y-41308214D01*
X108792614Y-41164890D01*
X108873042Y-41007042D01*
X108927786Y-40838555D01*
X108955500Y-40663579D01*
X108955500Y-40486421D01*
X129544500Y-40486421D01*
X129544500Y-40663578D01*
X129572214Y-40838556D01*
X129626956Y-41007039D01*
X129626957Y-41007042D01*
X129707386Y-41164890D01*
X129811517Y-41308214D01*
X129936786Y-41433483D01*
X130080110Y-41537614D01*
X130148577Y-41572500D01*
X130237957Y-41618042D01*
X130237960Y-41618043D01*
X130322201Y-41645414D01*
X130406445Y-41672786D01*
X130581421Y-41700500D01*
X130581422Y-41700500D01*
X130758578Y-41700500D01*
X130758579Y-41700500D01*
X130933555Y-41672786D01*
X131102042Y-41618042D01*
X131259890Y-41537614D01*
X131403214Y-41433483D01*
X131528483Y-41308214D01*
X131632614Y-41164890D01*
X131713042Y-41007042D01*
X131767786Y-40838555D01*
X131795500Y-40663579D01*
X131795500Y-40486421D01*
X131786165Y-40427486D01*
X133499500Y-40427486D01*
X133499500Y-40722513D01*
X133514778Y-40838555D01*
X133538007Y-41014993D01*
X133614361Y-41299951D01*
X133614364Y-41299961D01*
X133727254Y-41572500D01*
X133727258Y-41572510D01*
X133874761Y-41827993D01*
X134054352Y-42062040D01*
X134054358Y-42062047D01*
X134262952Y-42270641D01*
X134262959Y-42270647D01*
X134497006Y-42450238D01*
X134752489Y-42597741D01*
X134752490Y-42597741D01*
X134752493Y-42597743D01*
X135025048Y-42710639D01*
X135310007Y-42786993D01*
X135602494Y-42825500D01*
X135602501Y-42825500D01*
X135897499Y-42825500D01*
X135897506Y-42825500D01*
X136189993Y-42786993D01*
X136474952Y-42710639D01*
X136747507Y-42597743D01*
X137002994Y-42450238D01*
X137237042Y-42270646D01*
X137445646Y-42062042D01*
X137625238Y-41827994D01*
X137772743Y-41572507D01*
X137885639Y-41299952D01*
X137961993Y-41014993D01*
X138000500Y-40722506D01*
X138000500Y-40486421D01*
X139704500Y-40486421D01*
X139704500Y-40663578D01*
X139732214Y-40838556D01*
X139786956Y-41007039D01*
X139786957Y-41007042D01*
X139867386Y-41164890D01*
X139971517Y-41308214D01*
X140096786Y-41433483D01*
X140240110Y-41537614D01*
X140308577Y-41572500D01*
X140397957Y-41618042D01*
X140397960Y-41618043D01*
X140482201Y-41645414D01*
X140566445Y-41672786D01*
X140741421Y-41700500D01*
X140741422Y-41700500D01*
X140918578Y-41700500D01*
X140918579Y-41700500D01*
X141093555Y-41672786D01*
X141262042Y-41618042D01*
X141419890Y-41537614D01*
X141563214Y-41433483D01*
X141688483Y-41308214D01*
X141792614Y-41164890D01*
X141873042Y-41007042D01*
X141927786Y-40838555D01*
X141955500Y-40663579D01*
X141955500Y-40486421D01*
X141927786Y-40311445D01*
X141873042Y-40142958D01*
X141873042Y-40142957D01*
X141792613Y-39985109D01*
X141789618Y-39980987D01*
X141688483Y-39841786D01*
X141563214Y-39716517D01*
X141419890Y-39612386D01*
X141262042Y-39531957D01*
X141262039Y-39531956D01*
X141093556Y-39477214D01*
X141006067Y-39463357D01*
X140918579Y-39449500D01*
X140741421Y-39449500D01*
X140683095Y-39458738D01*
X140566443Y-39477214D01*
X140397960Y-39531956D01*
X140397957Y-39531957D01*
X140240109Y-39612386D01*
X140158338Y-39671796D01*
X140096786Y-39716517D01*
X140096784Y-39716519D01*
X140096783Y-39716519D01*
X139971519Y-39841783D01*
X139971519Y-39841784D01*
X139971517Y-39841786D01*
X139926796Y-39903338D01*
X139867386Y-39985109D01*
X139786957Y-40142957D01*
X139786956Y-40142960D01*
X139732214Y-40311443D01*
X139704500Y-40486421D01*
X138000500Y-40486421D01*
X138000500Y-40427494D01*
X137961993Y-40135007D01*
X137885639Y-39850048D01*
X137884615Y-39847577D01*
X137830329Y-39716519D01*
X137772743Y-39577493D01*
X137746453Y-39531958D01*
X137625238Y-39322006D01*
X137445647Y-39087959D01*
X137445641Y-39087952D01*
X137237047Y-38879358D01*
X137237040Y-38879352D01*
X137002993Y-38699761D01*
X136747510Y-38552258D01*
X136747500Y-38552254D01*
X136474961Y-38439364D01*
X136474954Y-38439362D01*
X136474952Y-38439361D01*
X136189993Y-38363007D01*
X136141113Y-38356571D01*
X135897513Y-38324500D01*
X135897506Y-38324500D01*
X135602494Y-38324500D01*
X135602486Y-38324500D01*
X135324085Y-38361153D01*
X135310007Y-38363007D01*
X135025048Y-38439361D01*
X135025038Y-38439364D01*
X134752499Y-38552254D01*
X134752489Y-38552258D01*
X134497006Y-38699761D01*
X134262959Y-38879352D01*
X134262952Y-38879358D01*
X134054358Y-39087952D01*
X134054352Y-39087959D01*
X133874761Y-39322006D01*
X133727258Y-39577489D01*
X133727254Y-39577499D01*
X133614364Y-39850038D01*
X133614361Y-39850048D01*
X133578172Y-39985110D01*
X133538008Y-40135004D01*
X133538006Y-40135015D01*
X133499500Y-40427486D01*
X131786165Y-40427486D01*
X131767786Y-40311445D01*
X131713042Y-40142958D01*
X131713040Y-40142952D01*
X131630513Y-39980987D01*
X131617616Y-39912317D01*
X131643892Y-39847577D01*
X131700998Y-39807319D01*
X131757181Y-39801752D01*
X131816564Y-39809570D01*
X131823612Y-39810498D01*
X131823628Y-39810500D01*
X131823635Y-39810500D01*
X132056365Y-39810500D01*
X132056372Y-39810500D01*
X132287126Y-39780121D01*
X132511940Y-39719882D01*
X132569953Y-39695852D01*
X132726960Y-39630819D01*
X132726963Y-39630817D01*
X132726969Y-39630815D01*
X132928532Y-39514442D01*
X133113181Y-39372756D01*
X133277756Y-39208181D01*
X133419442Y-39023532D01*
X133535815Y-38821969D01*
X133624882Y-38606940D01*
X133685121Y-38382126D01*
X133715500Y-38151372D01*
X133715500Y-37918628D01*
X133685121Y-37687874D01*
X133624882Y-37463060D01*
X133624879Y-37463052D01*
X133535819Y-37248039D01*
X133535811Y-37248023D01*
X133419446Y-37046475D01*
X133419442Y-37046468D01*
X133277756Y-36861819D01*
X133277751Y-36861813D01*
X133113186Y-36697248D01*
X133113179Y-36697242D01*
X132928540Y-36555564D01*
X132928538Y-36555562D01*
X132928532Y-36555558D01*
X132928527Y-36555555D01*
X132928524Y-36555553D01*
X132726976Y-36439188D01*
X132726960Y-36439180D01*
X132511947Y-36350120D01*
X132287122Y-36289878D01*
X132056382Y-36259501D01*
X132056377Y-36259500D01*
X132056372Y-36259500D01*
X131823628Y-36259500D01*
X131823622Y-36259500D01*
X131823617Y-36259501D01*
X131592877Y-36289878D01*
X131368052Y-36350120D01*
X131153039Y-36439180D01*
X131153023Y-36439188D01*
X130951475Y-36555553D01*
X130951459Y-36555564D01*
X130766820Y-36697242D01*
X130766813Y-36697248D01*
X130602248Y-36861813D01*
X130602242Y-36861820D01*
X130460564Y-37046459D01*
X130460553Y-37046475D01*
X130344188Y-37248023D01*
X130344180Y-37248039D01*
X130255120Y-37463052D01*
X130194878Y-37687877D01*
X130164501Y-37918617D01*
X130164500Y-37918634D01*
X130164500Y-38151365D01*
X130164501Y-38151382D01*
X130194878Y-38382122D01*
X130255120Y-38606947D01*
X130344180Y-38821960D01*
X130344188Y-38821976D01*
X130460553Y-39023524D01*
X130460564Y-39023540D01*
X130602242Y-39208179D01*
X130602248Y-39208186D01*
X130635636Y-39241574D01*
X130669121Y-39302897D01*
X130664137Y-39372589D01*
X130622265Y-39428522D01*
X130567353Y-39451728D01*
X130406443Y-39477214D01*
X130237960Y-39531956D01*
X130237957Y-39531957D01*
X130080109Y-39612386D01*
X129998338Y-39671796D01*
X129936786Y-39716517D01*
X129936784Y-39716519D01*
X129936783Y-39716519D01*
X129811519Y-39841783D01*
X129811519Y-39841784D01*
X129811517Y-39841786D01*
X129766796Y-39903338D01*
X129707386Y-39985109D01*
X129626957Y-40142957D01*
X129626956Y-40142960D01*
X129572214Y-40311443D01*
X129544500Y-40486421D01*
X108955500Y-40486421D01*
X108927786Y-40311445D01*
X108873042Y-40142958D01*
X108873042Y-40142957D01*
X108792613Y-39985109D01*
X108789618Y-39980987D01*
X108688483Y-39841786D01*
X108563214Y-39716517D01*
X108419890Y-39612386D01*
X108262042Y-39531957D01*
X108262039Y-39531956D01*
X108093556Y-39477214D01*
X108006067Y-39463357D01*
X107918579Y-39449500D01*
X107741421Y-39449500D01*
X107683095Y-39458738D01*
X107566443Y-39477214D01*
X107397960Y-39531956D01*
X107397957Y-39531957D01*
X107240109Y-39612386D01*
X107158338Y-39671796D01*
X107096786Y-39716517D01*
X107096784Y-39716519D01*
X107096783Y-39716519D01*
X106971519Y-39841783D01*
X106971519Y-39841784D01*
X106971517Y-39841786D01*
X106926796Y-39903338D01*
X106867386Y-39985109D01*
X106786957Y-40142957D01*
X106786956Y-40142960D01*
X106732214Y-40311443D01*
X106704500Y-40486421D01*
X105000500Y-40486421D01*
X105000500Y-40427494D01*
X104961993Y-40135007D01*
X104885639Y-39850048D01*
X104884615Y-39847577D01*
X104830329Y-39716519D01*
X104772743Y-39577493D01*
X104746453Y-39531958D01*
X104625238Y-39322006D01*
X104445647Y-39087959D01*
X104445641Y-39087952D01*
X104237047Y-38879358D01*
X104237040Y-38879352D01*
X104002993Y-38699761D01*
X103747510Y-38552258D01*
X103747500Y-38552254D01*
X103474961Y-38439364D01*
X103474954Y-38439362D01*
X103474952Y-38439361D01*
X103189993Y-38363007D01*
X103141113Y-38356571D01*
X102897513Y-38324500D01*
X102897506Y-38324500D01*
X102602494Y-38324500D01*
X102602486Y-38324500D01*
X102324085Y-38361153D01*
X102310007Y-38363007D01*
X102025048Y-38439361D01*
X102025038Y-38439364D01*
X101752499Y-38552254D01*
X101752489Y-38552258D01*
X101497006Y-38699761D01*
X101262959Y-38879352D01*
X101262952Y-38879358D01*
X101054358Y-39087952D01*
X101054352Y-39087959D01*
X100874761Y-39322006D01*
X100727258Y-39577489D01*
X100727254Y-39577499D01*
X100614364Y-39850038D01*
X100614361Y-39850048D01*
X100578172Y-39985110D01*
X100538008Y-40135004D01*
X100538006Y-40135015D01*
X100499500Y-40427486D01*
X98786165Y-40427486D01*
X98767786Y-40311445D01*
X98713042Y-40142958D01*
X98713040Y-40142952D01*
X98630513Y-39980987D01*
X98617616Y-39912317D01*
X98643892Y-39847577D01*
X98700998Y-39807319D01*
X98757181Y-39801752D01*
X98816564Y-39809570D01*
X98823612Y-39810498D01*
X98823628Y-39810500D01*
X98823635Y-39810500D01*
X99056365Y-39810500D01*
X99056372Y-39810500D01*
X99287126Y-39780121D01*
X99511940Y-39719882D01*
X99569953Y-39695852D01*
X99726960Y-39630819D01*
X99726963Y-39630817D01*
X99726969Y-39630815D01*
X99928532Y-39514442D01*
X100113181Y-39372756D01*
X100277756Y-39208181D01*
X100419442Y-39023532D01*
X100535815Y-38821969D01*
X100624882Y-38606940D01*
X100685121Y-38382126D01*
X100715500Y-38151372D01*
X100715500Y-37918628D01*
X100685121Y-37687874D01*
X100624882Y-37463060D01*
X100624879Y-37463052D01*
X100535819Y-37248039D01*
X100535811Y-37248023D01*
X100419446Y-37046475D01*
X100419442Y-37046468D01*
X100277756Y-36861819D01*
X100277751Y-36861813D01*
X100113186Y-36697248D01*
X100113179Y-36697242D01*
X99928540Y-36555564D01*
X99928538Y-36555562D01*
X99928532Y-36555558D01*
X99928527Y-36555555D01*
X99928524Y-36555553D01*
X99726976Y-36439188D01*
X99726960Y-36439180D01*
X99511947Y-36350120D01*
X99287122Y-36289878D01*
X99056382Y-36259501D01*
X99056377Y-36259500D01*
X99056372Y-36259500D01*
X98823628Y-36259500D01*
X98823622Y-36259500D01*
X98823617Y-36259501D01*
X98592877Y-36289878D01*
X98368052Y-36350120D01*
X98153039Y-36439180D01*
X98153023Y-36439188D01*
X97951475Y-36555553D01*
X97951459Y-36555564D01*
X97766820Y-36697242D01*
X97766813Y-36697248D01*
X97602248Y-36861813D01*
X97602242Y-36861820D01*
X97460564Y-37046459D01*
X97460553Y-37046475D01*
X97344188Y-37248023D01*
X97344180Y-37248039D01*
X97255120Y-37463052D01*
X97194878Y-37687877D01*
X97164501Y-37918617D01*
X97164500Y-37918634D01*
X97164500Y-38151365D01*
X97164501Y-38151382D01*
X97194878Y-38382122D01*
X97255120Y-38606947D01*
X97344180Y-38821960D01*
X97344188Y-38821976D01*
X97460553Y-39023524D01*
X97460564Y-39023540D01*
X97602242Y-39208179D01*
X97602248Y-39208186D01*
X97635636Y-39241574D01*
X97669121Y-39302897D01*
X97664137Y-39372589D01*
X97622265Y-39428522D01*
X97567353Y-39451728D01*
X97406443Y-39477214D01*
X97237960Y-39531956D01*
X97237957Y-39531957D01*
X97080109Y-39612386D01*
X96998338Y-39671796D01*
X96936786Y-39716517D01*
X96936784Y-39716519D01*
X96936783Y-39716519D01*
X96811519Y-39841783D01*
X96811519Y-39841784D01*
X96811517Y-39841786D01*
X96766796Y-39903338D01*
X96707386Y-39985109D01*
X96626957Y-40142957D01*
X96626956Y-40142960D01*
X96572214Y-40311443D01*
X96544500Y-40486421D01*
X75955500Y-40486421D01*
X75927786Y-40311445D01*
X75873042Y-40142958D01*
X75873042Y-40142957D01*
X75792613Y-39985109D01*
X75789618Y-39980987D01*
X75688483Y-39841786D01*
X75563214Y-39716517D01*
X75419890Y-39612386D01*
X75262042Y-39531957D01*
X75262039Y-39531956D01*
X75093556Y-39477214D01*
X75006067Y-39463357D01*
X74918579Y-39449500D01*
X74741421Y-39449500D01*
X74683095Y-39458738D01*
X74566443Y-39477214D01*
X74397960Y-39531956D01*
X74397957Y-39531957D01*
X74240109Y-39612386D01*
X74158338Y-39671796D01*
X74096786Y-39716517D01*
X74096784Y-39716519D01*
X74096783Y-39716519D01*
X73971519Y-39841783D01*
X73971519Y-39841784D01*
X73971517Y-39841786D01*
X73926796Y-39903338D01*
X73867386Y-39985109D01*
X73786957Y-40142957D01*
X73786956Y-40142960D01*
X73732214Y-40311443D01*
X73704500Y-40486421D01*
X72000500Y-40486421D01*
X72000500Y-40427494D01*
X71961993Y-40135007D01*
X71885639Y-39850048D01*
X71884615Y-39847577D01*
X71830329Y-39716519D01*
X71772743Y-39577493D01*
X71746453Y-39531958D01*
X71625238Y-39322006D01*
X71445647Y-39087959D01*
X71445641Y-39087952D01*
X71237047Y-38879358D01*
X71237040Y-38879352D01*
X71002993Y-38699761D01*
X70747510Y-38552258D01*
X70747500Y-38552254D01*
X70474961Y-38439364D01*
X70474954Y-38439362D01*
X70474952Y-38439361D01*
X70189993Y-38363007D01*
X70141113Y-38356571D01*
X69897513Y-38324500D01*
X69897506Y-38324500D01*
X69602494Y-38324500D01*
X69602486Y-38324500D01*
X69324085Y-38361153D01*
X69310007Y-38363007D01*
X69025048Y-38439361D01*
X69025038Y-38439364D01*
X68752499Y-38552254D01*
X68752489Y-38552258D01*
X68497006Y-38699761D01*
X68262959Y-38879352D01*
X68262952Y-38879358D01*
X68054358Y-39087952D01*
X68054352Y-39087959D01*
X67874761Y-39322006D01*
X67727258Y-39577489D01*
X67727254Y-39577499D01*
X67614364Y-39850038D01*
X67614361Y-39850048D01*
X67578172Y-39985110D01*
X67538008Y-40135004D01*
X67538006Y-40135015D01*
X67499500Y-40427486D01*
X65786165Y-40427486D01*
X65767786Y-40311445D01*
X65713042Y-40142958D01*
X65713040Y-40142952D01*
X65630513Y-39980987D01*
X65617616Y-39912317D01*
X65643892Y-39847577D01*
X65700998Y-39807319D01*
X65757181Y-39801752D01*
X65816564Y-39809570D01*
X65823612Y-39810498D01*
X65823628Y-39810500D01*
X65823635Y-39810500D01*
X66056365Y-39810500D01*
X66056372Y-39810500D01*
X66287126Y-39780121D01*
X66511940Y-39719882D01*
X66569953Y-39695852D01*
X66726960Y-39630819D01*
X66726963Y-39630817D01*
X66726969Y-39630815D01*
X66928532Y-39514442D01*
X67113181Y-39372756D01*
X67277756Y-39208181D01*
X67419442Y-39023532D01*
X67535815Y-38821969D01*
X67624882Y-38606940D01*
X67685121Y-38382126D01*
X67715500Y-38151372D01*
X67715500Y-37918628D01*
X67685121Y-37687874D01*
X67624882Y-37463060D01*
X67624879Y-37463052D01*
X67535819Y-37248039D01*
X67535811Y-37248023D01*
X67419446Y-37046475D01*
X67419442Y-37046468D01*
X67277756Y-36861819D01*
X67277751Y-36861813D01*
X67113186Y-36697248D01*
X67113179Y-36697242D01*
X66928540Y-36555564D01*
X66928538Y-36555562D01*
X66928532Y-36555558D01*
X66928527Y-36555555D01*
X66928524Y-36555553D01*
X66726976Y-36439188D01*
X66726960Y-36439180D01*
X66511947Y-36350120D01*
X66287122Y-36289878D01*
X66056382Y-36259501D01*
X66056377Y-36259500D01*
X66056372Y-36259500D01*
X65823628Y-36259500D01*
X65823622Y-36259500D01*
X65823617Y-36259501D01*
X65592877Y-36289878D01*
X65368052Y-36350120D01*
X65153039Y-36439180D01*
X65153023Y-36439188D01*
X64951475Y-36555553D01*
X64951459Y-36555564D01*
X64766820Y-36697242D01*
X64766813Y-36697248D01*
X64602248Y-36861813D01*
X64602242Y-36861820D01*
X64460564Y-37046459D01*
X64460553Y-37046475D01*
X64344188Y-37248023D01*
X64344180Y-37248039D01*
X64255120Y-37463052D01*
X64194878Y-37687877D01*
X64164501Y-37918617D01*
X64164500Y-37918634D01*
X64164500Y-38151365D01*
X64164501Y-38151382D01*
X64194878Y-38382122D01*
X64255120Y-38606947D01*
X64344180Y-38821960D01*
X64344188Y-38821976D01*
X64460553Y-39023524D01*
X64460564Y-39023540D01*
X64602242Y-39208179D01*
X64602248Y-39208186D01*
X64635636Y-39241574D01*
X64669121Y-39302897D01*
X64664137Y-39372589D01*
X64622265Y-39428522D01*
X64567353Y-39451728D01*
X64406443Y-39477214D01*
X64237960Y-39531956D01*
X64237957Y-39531957D01*
X64080109Y-39612386D01*
X63998338Y-39671796D01*
X63936786Y-39716517D01*
X63936784Y-39716519D01*
X63936783Y-39716519D01*
X63811519Y-39841783D01*
X63811519Y-39841784D01*
X63811517Y-39841786D01*
X63766796Y-39903338D01*
X63707386Y-39985109D01*
X63626957Y-40142957D01*
X63626956Y-40142960D01*
X63572214Y-40311443D01*
X63544500Y-40486421D01*
X42955500Y-40486421D01*
X42927786Y-40311445D01*
X42873042Y-40142958D01*
X42873042Y-40142957D01*
X42792613Y-39985109D01*
X42789618Y-39980987D01*
X42688483Y-39841786D01*
X42563214Y-39716517D01*
X42419890Y-39612386D01*
X42262042Y-39531957D01*
X42262039Y-39531956D01*
X42093556Y-39477214D01*
X42006067Y-39463357D01*
X41918579Y-39449500D01*
X41741421Y-39449500D01*
X41683095Y-39458738D01*
X41566443Y-39477214D01*
X41397960Y-39531956D01*
X41397957Y-39531957D01*
X41240109Y-39612386D01*
X41158338Y-39671796D01*
X41096786Y-39716517D01*
X41096784Y-39716519D01*
X41096783Y-39716519D01*
X40971519Y-39841783D01*
X40971519Y-39841784D01*
X40971517Y-39841786D01*
X40926796Y-39903338D01*
X40867386Y-39985109D01*
X40786957Y-40142957D01*
X40786956Y-40142960D01*
X40732214Y-40311443D01*
X40704500Y-40486421D01*
X39000500Y-40486421D01*
X39000500Y-40427494D01*
X38961993Y-40135007D01*
X38885639Y-39850048D01*
X38884615Y-39847577D01*
X38830329Y-39716519D01*
X38772743Y-39577493D01*
X38746453Y-39531958D01*
X38625238Y-39322006D01*
X38445647Y-39087959D01*
X38445641Y-39087952D01*
X38237047Y-38879358D01*
X38237040Y-38879352D01*
X38002993Y-38699761D01*
X37747510Y-38552258D01*
X37747500Y-38552254D01*
X37474961Y-38439364D01*
X37474954Y-38439362D01*
X37474952Y-38439361D01*
X37189993Y-38363007D01*
X37141113Y-38356571D01*
X36897513Y-38324500D01*
X36897506Y-38324500D01*
X36602494Y-38324500D01*
X36602486Y-38324500D01*
X36324085Y-38361153D01*
X36310007Y-38363007D01*
X36025048Y-38439361D01*
X36025038Y-38439364D01*
X35752499Y-38552254D01*
X35752489Y-38552258D01*
X35497006Y-38699761D01*
X35262959Y-38879352D01*
X35262952Y-38879358D01*
X35054358Y-39087952D01*
X35054352Y-39087959D01*
X34874761Y-39322006D01*
X34727258Y-39577489D01*
X34727254Y-39577499D01*
X34614364Y-39850038D01*
X34614361Y-39850048D01*
X34578172Y-39985110D01*
X34538008Y-40135004D01*
X34538006Y-40135015D01*
X34499500Y-40427486D01*
X32786165Y-40427486D01*
X32767786Y-40311445D01*
X32713042Y-40142958D01*
X32713040Y-40142952D01*
X32630513Y-39980987D01*
X32617616Y-39912317D01*
X32643892Y-39847577D01*
X32700998Y-39807319D01*
X32757181Y-39801752D01*
X32816564Y-39809570D01*
X32823612Y-39810498D01*
X32823628Y-39810500D01*
X32823635Y-39810500D01*
X33056365Y-39810500D01*
X33056372Y-39810500D01*
X33287126Y-39780121D01*
X33511940Y-39719882D01*
X33569953Y-39695852D01*
X33726960Y-39630819D01*
X33726963Y-39630817D01*
X33726969Y-39630815D01*
X33928532Y-39514442D01*
X34113181Y-39372756D01*
X34277756Y-39208181D01*
X34419442Y-39023532D01*
X34535815Y-38821969D01*
X34624882Y-38606940D01*
X34685121Y-38382126D01*
X34715500Y-38151372D01*
X34715500Y-37918628D01*
X34685121Y-37687874D01*
X34624882Y-37463060D01*
X34624879Y-37463052D01*
X34535819Y-37248039D01*
X34535811Y-37248023D01*
X34419446Y-37046475D01*
X34419442Y-37046468D01*
X34277756Y-36861819D01*
X34277751Y-36861813D01*
X34113186Y-36697248D01*
X34113179Y-36697242D01*
X33928540Y-36555564D01*
X33928538Y-36555562D01*
X33928532Y-36555558D01*
X33928527Y-36555555D01*
X33928524Y-36555553D01*
X33726976Y-36439188D01*
X33726960Y-36439180D01*
X33511947Y-36350120D01*
X33287122Y-36289878D01*
X33056382Y-36259501D01*
X33056377Y-36259500D01*
X33056372Y-36259500D01*
X32823628Y-36259500D01*
X32823622Y-36259500D01*
X32823617Y-36259501D01*
X32592877Y-36289878D01*
X32368052Y-36350120D01*
X32153039Y-36439180D01*
X32153023Y-36439188D01*
X31951475Y-36555553D01*
X31951459Y-36555564D01*
X31766820Y-36697242D01*
X31766813Y-36697248D01*
X31602248Y-36861813D01*
X31602242Y-36861820D01*
X31460564Y-37046459D01*
X31460553Y-37046475D01*
X31344188Y-37248023D01*
X31344180Y-37248039D01*
X31255120Y-37463052D01*
X31194878Y-37687877D01*
X31164501Y-37918617D01*
X31164500Y-37918634D01*
X31164500Y-38151365D01*
X31164501Y-38151382D01*
X31194878Y-38382122D01*
X31255120Y-38606947D01*
X31344180Y-38821960D01*
X31344188Y-38821976D01*
X31460553Y-39023524D01*
X31460564Y-39023540D01*
X31602242Y-39208179D01*
X31602248Y-39208186D01*
X31635636Y-39241574D01*
X31669121Y-39302897D01*
X31664137Y-39372589D01*
X31622265Y-39428522D01*
X31567353Y-39451728D01*
X31406443Y-39477214D01*
X31237960Y-39531956D01*
X31237957Y-39531957D01*
X31080109Y-39612386D01*
X30998338Y-39671796D01*
X30936786Y-39716517D01*
X30936784Y-39716519D01*
X30936783Y-39716519D01*
X30811519Y-39841783D01*
X30811519Y-39841784D01*
X30811517Y-39841786D01*
X30766796Y-39903338D01*
X30707386Y-39985109D01*
X30626957Y-40142957D01*
X30626956Y-40142960D01*
X30572214Y-40311443D01*
X30544500Y-40486421D01*
X-13249500Y-40486421D01*
X-13249500Y-35378634D01*
X37514500Y-35378634D01*
X37514500Y-35611365D01*
X37514501Y-35611382D01*
X37544878Y-35842122D01*
X37605120Y-36066947D01*
X37694180Y-36281960D01*
X37694188Y-36281976D01*
X37810553Y-36483524D01*
X37810564Y-36483540D01*
X37952242Y-36668179D01*
X37952248Y-36668186D01*
X38116813Y-36832751D01*
X38116820Y-36832757D01*
X38154696Y-36861820D01*
X38301468Y-36974442D01*
X38301475Y-36974446D01*
X38503023Y-37090811D01*
X38503039Y-37090819D01*
X38718052Y-37179879D01*
X38718054Y-37179879D01*
X38718060Y-37179882D01*
X38942874Y-37240121D01*
X39173628Y-37270500D01*
X39173635Y-37270500D01*
X39406365Y-37270500D01*
X39406372Y-37270500D01*
X39637126Y-37240121D01*
X39861940Y-37179882D01*
X39919953Y-37155852D01*
X40076960Y-37090819D01*
X40076963Y-37090817D01*
X40076969Y-37090815D01*
X40278532Y-36974442D01*
X40463181Y-36832756D01*
X40627756Y-36668181D01*
X40769442Y-36483532D01*
X40885815Y-36281969D01*
X40895122Y-36259501D01*
X40974879Y-36066947D01*
X40974878Y-36066947D01*
X40974882Y-36066940D01*
X41035121Y-35842126D01*
X41065500Y-35611372D01*
X41065500Y-35378634D01*
X70514500Y-35378634D01*
X70514500Y-35611365D01*
X70514501Y-35611382D01*
X70544878Y-35842122D01*
X70605120Y-36066947D01*
X70694180Y-36281960D01*
X70694188Y-36281976D01*
X70810553Y-36483524D01*
X70810564Y-36483540D01*
X70952242Y-36668179D01*
X70952248Y-36668186D01*
X71116813Y-36832751D01*
X71116820Y-36832757D01*
X71154696Y-36861820D01*
X71301468Y-36974442D01*
X71301475Y-36974446D01*
X71503023Y-37090811D01*
X71503039Y-37090819D01*
X71718052Y-37179879D01*
X71718054Y-37179879D01*
X71718060Y-37179882D01*
X71942874Y-37240121D01*
X72173628Y-37270500D01*
X72173635Y-37270500D01*
X72406365Y-37270500D01*
X72406372Y-37270500D01*
X72637126Y-37240121D01*
X72861940Y-37179882D01*
X72919953Y-37155852D01*
X73076960Y-37090819D01*
X73076963Y-37090817D01*
X73076969Y-37090815D01*
X73278532Y-36974442D01*
X73463181Y-36832756D01*
X73627756Y-36668181D01*
X73769442Y-36483532D01*
X73885815Y-36281969D01*
X73895122Y-36259501D01*
X73974879Y-36066947D01*
X73974878Y-36066947D01*
X73974882Y-36066940D01*
X74035121Y-35842126D01*
X74065500Y-35611372D01*
X74065500Y-35378634D01*
X103514500Y-35378634D01*
X103514500Y-35611365D01*
X103514501Y-35611382D01*
X103544878Y-35842122D01*
X103605120Y-36066947D01*
X103694180Y-36281960D01*
X103694188Y-36281976D01*
X103810553Y-36483524D01*
X103810564Y-36483540D01*
X103952242Y-36668179D01*
X103952248Y-36668186D01*
X104116813Y-36832751D01*
X104116820Y-36832757D01*
X104154696Y-36861820D01*
X104301468Y-36974442D01*
X104301475Y-36974446D01*
X104503023Y-37090811D01*
X104503039Y-37090819D01*
X104718052Y-37179879D01*
X104718054Y-37179879D01*
X104718060Y-37179882D01*
X104942874Y-37240121D01*
X105173628Y-37270500D01*
X105173635Y-37270500D01*
X105406365Y-37270500D01*
X105406372Y-37270500D01*
X105637126Y-37240121D01*
X105861940Y-37179882D01*
X105919953Y-37155852D01*
X106076960Y-37090819D01*
X106076963Y-37090817D01*
X106076969Y-37090815D01*
X106278532Y-36974442D01*
X106463181Y-36832756D01*
X106627756Y-36668181D01*
X106769442Y-36483532D01*
X106885815Y-36281969D01*
X106895122Y-36259501D01*
X106974879Y-36066947D01*
X106974878Y-36066947D01*
X106974882Y-36066940D01*
X107035121Y-35842126D01*
X107065500Y-35611372D01*
X107065500Y-35378634D01*
X136514500Y-35378634D01*
X136514500Y-35611365D01*
X136514501Y-35611382D01*
X136544878Y-35842122D01*
X136605120Y-36066947D01*
X136694180Y-36281960D01*
X136694188Y-36281976D01*
X136810553Y-36483524D01*
X136810564Y-36483540D01*
X136952242Y-36668179D01*
X136952248Y-36668186D01*
X137116813Y-36832751D01*
X137116820Y-36832757D01*
X137154696Y-36861820D01*
X137301468Y-36974442D01*
X137301475Y-36974446D01*
X137503023Y-37090811D01*
X137503039Y-37090819D01*
X137718052Y-37179879D01*
X137718054Y-37179879D01*
X137718060Y-37179882D01*
X137942874Y-37240121D01*
X138173628Y-37270500D01*
X138173635Y-37270500D01*
X138406365Y-37270500D01*
X138406372Y-37270500D01*
X138637126Y-37240121D01*
X138861940Y-37179882D01*
X138919953Y-37155852D01*
X139076960Y-37090819D01*
X139076963Y-37090817D01*
X139076969Y-37090815D01*
X139278532Y-36974442D01*
X139463181Y-36832756D01*
X139627756Y-36668181D01*
X139769442Y-36483532D01*
X139885815Y-36281969D01*
X139895122Y-36259501D01*
X139974879Y-36066947D01*
X139974878Y-36066947D01*
X139974882Y-36066940D01*
X140035121Y-35842126D01*
X140065500Y-35611372D01*
X140065500Y-35378628D01*
X140035121Y-35147874D01*
X139974882Y-34923060D01*
X139974879Y-34923052D01*
X139885819Y-34708039D01*
X139885811Y-34708023D01*
X139769446Y-34506475D01*
X139769442Y-34506468D01*
X139627756Y-34321819D01*
X139627751Y-34321813D01*
X139463186Y-34157248D01*
X139463179Y-34157242D01*
X139278540Y-34015564D01*
X139278538Y-34015562D01*
X139278532Y-34015558D01*
X139278527Y-34015555D01*
X139278524Y-34015553D01*
X139076976Y-33899188D01*
X139076960Y-33899180D01*
X138861947Y-33810120D01*
X138637122Y-33749878D01*
X138406382Y-33719501D01*
X138406377Y-33719500D01*
X138406372Y-33719500D01*
X138173628Y-33719500D01*
X138173622Y-33719500D01*
X138173617Y-33719501D01*
X137942877Y-33749878D01*
X137718052Y-33810120D01*
X137503039Y-33899180D01*
X137503023Y-33899188D01*
X137301475Y-34015553D01*
X137301459Y-34015564D01*
X137116820Y-34157242D01*
X137116813Y-34157248D01*
X136952248Y-34321813D01*
X136952242Y-34321820D01*
X136810564Y-34506459D01*
X136810553Y-34506475D01*
X136694188Y-34708023D01*
X136694180Y-34708039D01*
X136605120Y-34923052D01*
X136544878Y-35147877D01*
X136514501Y-35378617D01*
X136514500Y-35378634D01*
X107065500Y-35378634D01*
X107065500Y-35378628D01*
X107035121Y-35147874D01*
X106974882Y-34923060D01*
X106974879Y-34923052D01*
X106885819Y-34708039D01*
X106885811Y-34708023D01*
X106769446Y-34506475D01*
X106769442Y-34506468D01*
X106627756Y-34321819D01*
X106627751Y-34321813D01*
X106463186Y-34157248D01*
X106463179Y-34157242D01*
X106278540Y-34015564D01*
X106278538Y-34015562D01*
X106278532Y-34015558D01*
X106278527Y-34015555D01*
X106278524Y-34015553D01*
X106076976Y-33899188D01*
X106076960Y-33899180D01*
X105861947Y-33810120D01*
X105637122Y-33749878D01*
X105406382Y-33719501D01*
X105406377Y-33719500D01*
X105406372Y-33719500D01*
X105173628Y-33719500D01*
X105173622Y-33719500D01*
X105173617Y-33719501D01*
X104942877Y-33749878D01*
X104718052Y-33810120D01*
X104503039Y-33899180D01*
X104503023Y-33899188D01*
X104301475Y-34015553D01*
X104301459Y-34015564D01*
X104116820Y-34157242D01*
X104116813Y-34157248D01*
X103952248Y-34321813D01*
X103952242Y-34321820D01*
X103810564Y-34506459D01*
X103810553Y-34506475D01*
X103694188Y-34708023D01*
X103694180Y-34708039D01*
X103605120Y-34923052D01*
X103544878Y-35147877D01*
X103514501Y-35378617D01*
X103514500Y-35378634D01*
X74065500Y-35378634D01*
X74065500Y-35378628D01*
X74035121Y-35147874D01*
X73974882Y-34923060D01*
X73974879Y-34923052D01*
X73885819Y-34708039D01*
X73885811Y-34708023D01*
X73769446Y-34506475D01*
X73769442Y-34506468D01*
X73627756Y-34321819D01*
X73627751Y-34321813D01*
X73463186Y-34157248D01*
X73463179Y-34157242D01*
X73278540Y-34015564D01*
X73278538Y-34015562D01*
X73278532Y-34015558D01*
X73278527Y-34015555D01*
X73278524Y-34015553D01*
X73076976Y-33899188D01*
X73076960Y-33899180D01*
X72861947Y-33810120D01*
X72637122Y-33749878D01*
X72406382Y-33719501D01*
X72406377Y-33719500D01*
X72406372Y-33719500D01*
X72173628Y-33719500D01*
X72173622Y-33719500D01*
X72173617Y-33719501D01*
X71942877Y-33749878D01*
X71718052Y-33810120D01*
X71503039Y-33899180D01*
X71503023Y-33899188D01*
X71301475Y-34015553D01*
X71301459Y-34015564D01*
X71116820Y-34157242D01*
X71116813Y-34157248D01*
X70952248Y-34321813D01*
X70952242Y-34321820D01*
X70810564Y-34506459D01*
X70810553Y-34506475D01*
X70694188Y-34708023D01*
X70694180Y-34708039D01*
X70605120Y-34923052D01*
X70544878Y-35147877D01*
X70514501Y-35378617D01*
X70514500Y-35378634D01*
X41065500Y-35378634D01*
X41065500Y-35378628D01*
X41035121Y-35147874D01*
X40974882Y-34923060D01*
X40974879Y-34923052D01*
X40885819Y-34708039D01*
X40885811Y-34708023D01*
X40769446Y-34506475D01*
X40769442Y-34506468D01*
X40627756Y-34321819D01*
X40627751Y-34321813D01*
X40463186Y-34157248D01*
X40463179Y-34157242D01*
X40278540Y-34015564D01*
X40278538Y-34015562D01*
X40278532Y-34015558D01*
X40278527Y-34015555D01*
X40278524Y-34015553D01*
X40076976Y-33899188D01*
X40076960Y-33899180D01*
X39861947Y-33810120D01*
X39637122Y-33749878D01*
X39406382Y-33719501D01*
X39406377Y-33719500D01*
X39406372Y-33719500D01*
X39173628Y-33719500D01*
X39173622Y-33719500D01*
X39173617Y-33719501D01*
X38942877Y-33749878D01*
X38718052Y-33810120D01*
X38503039Y-33899180D01*
X38503023Y-33899188D01*
X38301475Y-34015553D01*
X38301459Y-34015564D01*
X38116820Y-34157242D01*
X38116813Y-34157248D01*
X37952248Y-34321813D01*
X37952242Y-34321820D01*
X37810564Y-34506459D01*
X37810553Y-34506475D01*
X37694188Y-34708023D01*
X37694180Y-34708039D01*
X37605120Y-34923052D01*
X37544878Y-35147877D01*
X37514501Y-35378617D01*
X37514500Y-35378634D01*
X-13249500Y-35378634D01*
X-13249500Y-28024996D01*
X37444435Y-28024996D01*
X37444435Y-28025003D01*
X37464630Y-28204249D01*
X37464631Y-28204254D01*
X37524211Y-28374523D01*
X37620184Y-28527262D01*
X37747738Y-28654816D01*
X37838080Y-28711582D01*
X37860192Y-28725476D01*
X37900478Y-28750789D01*
X38070745Y-28810368D01*
X38070750Y-28810369D01*
X38249996Y-28830565D01*
X38250000Y-28830565D01*
X38250004Y-28830565D01*
X38429249Y-28810369D01*
X38429252Y-28810368D01*
X38429255Y-28810368D01*
X38599522Y-28750789D01*
X38752262Y-28654816D01*
X38752267Y-28654810D01*
X38755097Y-28652555D01*
X38757275Y-28651665D01*
X38758158Y-28651111D01*
X38758255Y-28651265D01*
X38819783Y-28626145D01*
X38832412Y-28625500D01*
X64900902Y-28625500D01*
X64967941Y-28645185D01*
X65013696Y-28697989D01*
X65023640Y-28767147D01*
X64994615Y-28830703D01*
X64988583Y-28837181D01*
X64631465Y-29194298D01*
X64570142Y-29227783D01*
X64557668Y-29229837D01*
X64470750Y-29239630D01*
X64300478Y-29299210D01*
X64147737Y-29395184D01*
X64020184Y-29522737D01*
X63924211Y-29675476D01*
X63864631Y-29845745D01*
X63864630Y-29845750D01*
X63844435Y-30024996D01*
X63844435Y-30025003D01*
X63864630Y-30204249D01*
X63864631Y-30204254D01*
X63924211Y-30374523D01*
X64000384Y-30495750D01*
X64020184Y-30527262D01*
X64147738Y-30654816D01*
X64238080Y-30711582D01*
X64297966Y-30749211D01*
X64300478Y-30750789D01*
X64470745Y-30810368D01*
X64470750Y-30810369D01*
X64649996Y-30830565D01*
X64650000Y-30830565D01*
X64650004Y-30830565D01*
X64829249Y-30810369D01*
X64829252Y-30810368D01*
X64829255Y-30810368D01*
X64999522Y-30750789D01*
X65152262Y-30654816D01*
X65279816Y-30527262D01*
X65375789Y-30374522D01*
X65435368Y-30204255D01*
X65445161Y-30117329D01*
X65472226Y-30052918D01*
X65480690Y-30043543D01*
X66462417Y-29061819D01*
X66523740Y-29028334D01*
X66550098Y-29025500D01*
X99350903Y-29025500D01*
X99417942Y-29045185D01*
X99463697Y-29097989D01*
X99473641Y-29167147D01*
X99444616Y-29230703D01*
X99438584Y-29237181D01*
X98581465Y-30094298D01*
X98520142Y-30127783D01*
X98507668Y-30129837D01*
X98420750Y-30139630D01*
X98250478Y-30199210D01*
X98097737Y-30295184D01*
X97970184Y-30422737D01*
X97874211Y-30575476D01*
X97814631Y-30745745D01*
X97814630Y-30745750D01*
X97794435Y-30924996D01*
X97794435Y-30925003D01*
X97814630Y-31104249D01*
X97814631Y-31104254D01*
X97874211Y-31274523D01*
X97953549Y-31400788D01*
X97970184Y-31427262D01*
X98097738Y-31554816D01*
X98250478Y-31650789D01*
X98420745Y-31710368D01*
X98420750Y-31710369D01*
X98599996Y-31730565D01*
X98600000Y-31730565D01*
X98600004Y-31730565D01*
X98779249Y-31710369D01*
X98779252Y-31710368D01*
X98779255Y-31710368D01*
X98949522Y-31650789D01*
X99102262Y-31554816D01*
X99229816Y-31427262D01*
X99325789Y-31274522D01*
X99385368Y-31104255D01*
X99395161Y-31017329D01*
X99422226Y-30952918D01*
X99430690Y-30943543D01*
X100912416Y-29461819D01*
X100973739Y-29428334D01*
X101000097Y-29425500D01*
X112813331Y-29425500D01*
X112813347Y-29425501D01*
X112820943Y-29425501D01*
X112979054Y-29425501D01*
X112979057Y-29425501D01*
X113131785Y-29384577D01*
X113181904Y-29355639D01*
X113268716Y-29305520D01*
X113380520Y-29193716D01*
X113380520Y-29193714D01*
X113390728Y-29183507D01*
X113390730Y-29183504D01*
X116017072Y-26557161D01*
X116078393Y-26523678D01*
X116148085Y-26528662D01*
X116170719Y-26539848D01*
X116198275Y-26557163D01*
X116317632Y-26632161D01*
X116487902Y-26691741D01*
X116487907Y-26691742D01*
X116667153Y-26711938D01*
X116667157Y-26711938D01*
X116667161Y-26711938D01*
X116846406Y-26691742D01*
X116846409Y-26691741D01*
X116846412Y-26691741D01*
X117016679Y-26632162D01*
X117169419Y-26536189D01*
X117296973Y-26408635D01*
X117392946Y-26255895D01*
X117452525Y-26085628D01*
X117462225Y-25999529D01*
X117489290Y-25935119D01*
X117497754Y-25925744D01*
X118768535Y-24654963D01*
X118829856Y-24621480D01*
X118842311Y-24619428D01*
X118929255Y-24609633D01*
X119099522Y-24550054D01*
X119252262Y-24454081D01*
X119379816Y-24326527D01*
X119475789Y-24173787D01*
X119535368Y-24003520D01*
X119555565Y-23824265D01*
X119535368Y-23645010D01*
X119475789Y-23474743D01*
X119475788Y-23474742D01*
X119475787Y-23474738D01*
X119383195Y-23327380D01*
X119364194Y-23260144D01*
X119384561Y-23193309D01*
X119400502Y-23173732D01*
X120337825Y-22236410D01*
X120399148Y-22202925D01*
X120468840Y-22207909D01*
X120524773Y-22249781D01*
X120549190Y-22315245D01*
X120549506Y-22324091D01*
X120549506Y-26838336D01*
X120549505Y-26838354D01*
X120549505Y-27004060D01*
X120549504Y-27004060D01*
X120590429Y-27156791D01*
X120619364Y-27206906D01*
X120619365Y-27206910D01*
X120619366Y-27206910D01*
X120669485Y-27293720D01*
X120669487Y-27293723D01*
X120788355Y-27412591D01*
X120788361Y-27412596D01*
X121696662Y-28320897D01*
X121730147Y-28382220D01*
X121725163Y-28451912D01*
X121696663Y-28496259D01*
X121620183Y-28572739D01*
X121524211Y-28725476D01*
X121464631Y-28895745D01*
X121464630Y-28895750D01*
X121444435Y-29074996D01*
X121444435Y-29075003D01*
X121464630Y-29254249D01*
X121464631Y-29254254D01*
X121524211Y-29424523D01*
X121620185Y-29577263D01*
X121622445Y-29580097D01*
X121623334Y-29582275D01*
X121623889Y-29583158D01*
X121623734Y-29583255D01*
X121648855Y-29644783D01*
X121649500Y-29657412D01*
X121649500Y-30092587D01*
X121629815Y-30159626D01*
X121622450Y-30169896D01*
X121620186Y-30172734D01*
X121524211Y-30325476D01*
X121464631Y-30495745D01*
X121464630Y-30495750D01*
X121444435Y-30674996D01*
X121444435Y-30675003D01*
X121464630Y-30854249D01*
X121464631Y-30854254D01*
X121524211Y-31024523D01*
X121587646Y-31125478D01*
X121620184Y-31177262D01*
X121747738Y-31304816D01*
X121900478Y-31400789D01*
X122070745Y-31460368D01*
X122070750Y-31460369D01*
X122249996Y-31480565D01*
X122250000Y-31480565D01*
X122250004Y-31480565D01*
X122429249Y-31460369D01*
X122429252Y-31460368D01*
X122429255Y-31460368D01*
X122599522Y-31400789D01*
X122752262Y-31304816D01*
X122879816Y-31177262D01*
X122975789Y-31024522D01*
X123035368Y-30854255D01*
X123036390Y-30845184D01*
X123055565Y-30675003D01*
X123055565Y-30674996D01*
X123035369Y-30495750D01*
X123035368Y-30495745D01*
X123009821Y-30422737D01*
X122975789Y-30325478D01*
X122879816Y-30172738D01*
X122879814Y-30172736D01*
X122879813Y-30172734D01*
X122877550Y-30169896D01*
X122876659Y-30167715D01*
X122876111Y-30166842D01*
X122876264Y-30166745D01*
X122851144Y-30105209D01*
X122850500Y-30092587D01*
X122850500Y-29774097D01*
X122870185Y-29707058D01*
X122922989Y-29661303D01*
X122992147Y-29651359D01*
X123055703Y-29680384D01*
X123062181Y-29686416D01*
X124869298Y-31493533D01*
X124902783Y-31554856D01*
X124904837Y-31567330D01*
X124914630Y-31654249D01*
X124974210Y-31824521D01*
X125070184Y-31977262D01*
X125197738Y-32104816D01*
X125350478Y-32200789D01*
X125520745Y-32260368D01*
X125520750Y-32260369D01*
X125699996Y-32280565D01*
X125700000Y-32280565D01*
X125700004Y-32280565D01*
X125879249Y-32260369D01*
X125879252Y-32260368D01*
X125879255Y-32260368D01*
X126049522Y-32200789D01*
X126202262Y-32104816D01*
X126329816Y-31977262D01*
X126425789Y-31824522D01*
X126485368Y-31654255D01*
X126495162Y-31567330D01*
X126505565Y-31475003D01*
X126505565Y-31474996D01*
X126485369Y-31295750D01*
X126485368Y-31295745D01*
X126425788Y-31125476D01*
X126329815Y-30972737D01*
X126202262Y-30845184D01*
X126049521Y-30749210D01*
X125879249Y-30689630D01*
X125792330Y-30679837D01*
X125727916Y-30652770D01*
X125718533Y-30644298D01*
X121786825Y-26712590D01*
X121753340Y-26651267D01*
X121750506Y-26624909D01*
X121750506Y-23224999D01*
X135469464Y-23224999D01*
X135469464Y-23225000D01*
X135489564Y-23441918D01*
X135489564Y-23441920D01*
X135489565Y-23441923D01*
X135549183Y-23651459D01*
X135646288Y-23846472D01*
X135777573Y-24020322D01*
X135938568Y-24167088D01*
X135938575Y-24167092D01*
X135938576Y-24167093D01*
X136123786Y-24281770D01*
X136123792Y-24281773D01*
X136146664Y-24290633D01*
X136326931Y-24360470D01*
X136541074Y-24400500D01*
X136541076Y-24400500D01*
X136758924Y-24400500D01*
X136758926Y-24400500D01*
X136973069Y-24360470D01*
X137176210Y-24281772D01*
X137361432Y-24167088D01*
X137522427Y-24020322D01*
X137653712Y-23846472D01*
X137750817Y-23651459D01*
X137810435Y-23441923D01*
X137830536Y-23225000D01*
X137810435Y-23008077D01*
X137750817Y-22798541D01*
X137653712Y-22603528D01*
X137571950Y-22495257D01*
X137547259Y-22429898D01*
X137561824Y-22361563D01*
X137596594Y-22321265D01*
X137682190Y-22257186D01*
X137768350Y-22142093D01*
X137768354Y-22142086D01*
X137818596Y-22007379D01*
X137818598Y-22007372D01*
X137824999Y-21947844D01*
X137825000Y-21947827D01*
X137825000Y-21475000D01*
X136965686Y-21475000D01*
X136970080Y-21470606D01*
X137022741Y-21379394D01*
X137050000Y-21277661D01*
X137050000Y-21172339D01*
X137022741Y-21070606D01*
X136970080Y-20979394D01*
X136965686Y-20975000D01*
X137825000Y-20975000D01*
X137825000Y-20502172D01*
X137824999Y-20502155D01*
X137818598Y-20442627D01*
X137818596Y-20442620D01*
X137768354Y-20307913D01*
X137768350Y-20307906D01*
X137682190Y-20192812D01*
X137682187Y-20192809D01*
X137567093Y-20106649D01*
X137567086Y-20106645D01*
X137432379Y-20056403D01*
X137432372Y-20056401D01*
X137372844Y-20050000D01*
X136900000Y-20050000D01*
X136900000Y-20909314D01*
X136895606Y-20904920D01*
X136804394Y-20852259D01*
X136702661Y-20825000D01*
X136597339Y-20825000D01*
X136495606Y-20852259D01*
X136404394Y-20904920D01*
X136400000Y-20909314D01*
X136400000Y-20050000D01*
X135927155Y-20050000D01*
X135867627Y-20056401D01*
X135867620Y-20056403D01*
X135732913Y-20106645D01*
X135732906Y-20106649D01*
X135617812Y-20192809D01*
X135617809Y-20192812D01*
X135531649Y-20307906D01*
X135531645Y-20307913D01*
X135481403Y-20442620D01*
X135481401Y-20442627D01*
X135475000Y-20502155D01*
X135475000Y-20975000D01*
X136334314Y-20975000D01*
X136329920Y-20979394D01*
X136277259Y-21070606D01*
X136250000Y-21172339D01*
X136250000Y-21277661D01*
X136277259Y-21379394D01*
X136329920Y-21470606D01*
X136334314Y-21475000D01*
X135475000Y-21475000D01*
X135475000Y-21947844D01*
X135481401Y-22007372D01*
X135481403Y-22007379D01*
X135531645Y-22142086D01*
X135531649Y-22142093D01*
X135617809Y-22257186D01*
X135703405Y-22321264D01*
X135745276Y-22377198D01*
X135750260Y-22446890D01*
X135728049Y-22495257D01*
X135646288Y-22603528D01*
X135549184Y-22798537D01*
X135489564Y-23008081D01*
X135469464Y-23224999D01*
X121750506Y-23224999D01*
X121750506Y-19257412D01*
X121770191Y-19190373D01*
X121777561Y-19180097D01*
X121779816Y-19177267D01*
X121779822Y-19177262D01*
X121875795Y-19024522D01*
X121935374Y-18854255D01*
X121938191Y-18829254D01*
X121955571Y-18675003D01*
X121955571Y-18674996D01*
X121935375Y-18495750D01*
X121935374Y-18495745D01*
X121891834Y-18371315D01*
X121888273Y-18301536D01*
X121923002Y-18240908D01*
X121967920Y-18213318D01*
X121999522Y-18202261D01*
X122152262Y-18106288D01*
X122279816Y-17978734D01*
X122375789Y-17825994D01*
X122435368Y-17655727D01*
X122440480Y-17610359D01*
X122455565Y-17476475D01*
X122455565Y-17476468D01*
X122435369Y-17297222D01*
X122435368Y-17297217D01*
X122410852Y-17227155D01*
X167150000Y-17227155D01*
X167150000Y-18025000D01*
X167891759Y-18025000D01*
X167878822Y-18056233D01*
X167850000Y-18201131D01*
X167850000Y-18348869D01*
X167878822Y-18493767D01*
X167891759Y-18525000D01*
X167150000Y-18525000D01*
X167150000Y-19322844D01*
X167156401Y-19382372D01*
X167156403Y-19382379D01*
X167206645Y-19517086D01*
X167206649Y-19517093D01*
X167292809Y-19632187D01*
X167292812Y-19632190D01*
X167407906Y-19718350D01*
X167407913Y-19718354D01*
X167542620Y-19768596D01*
X167542627Y-19768598D01*
X167602155Y-19774999D01*
X167602172Y-19775000D01*
X169000000Y-19775000D01*
X169000000Y-19025000D01*
X169500000Y-19025000D01*
X169500000Y-19775000D01*
X170897828Y-19775000D01*
X170897844Y-19774999D01*
X170957372Y-19768598D01*
X170957379Y-19768596D01*
X171092086Y-19718354D01*
X171092093Y-19718350D01*
X171207187Y-19632190D01*
X171207190Y-19632187D01*
X171293350Y-19517093D01*
X171293354Y-19517086D01*
X171343596Y-19382379D01*
X171343598Y-19382372D01*
X171349999Y-19322844D01*
X171350000Y-19322827D01*
X171350000Y-18525000D01*
X170608241Y-18525000D01*
X170621178Y-18493767D01*
X170650000Y-18348869D01*
X170650000Y-18201131D01*
X170621178Y-18056233D01*
X170608241Y-18025000D01*
X171350000Y-18025000D01*
X171350000Y-17227172D01*
X171349999Y-17227155D01*
X171343598Y-17167627D01*
X171343596Y-17167620D01*
X171293354Y-17032913D01*
X171293350Y-17032906D01*
X171207190Y-16917812D01*
X171207187Y-16917809D01*
X171092093Y-16831649D01*
X171092086Y-16831645D01*
X170957379Y-16781403D01*
X170957372Y-16781401D01*
X170897844Y-16775000D01*
X169500000Y-16775000D01*
X169500000Y-17525000D01*
X169000000Y-17525000D01*
X169000000Y-16775000D01*
X167602155Y-16775000D01*
X167542627Y-16781401D01*
X167542620Y-16781403D01*
X167407913Y-16831645D01*
X167407906Y-16831649D01*
X167292812Y-16917809D01*
X167292809Y-16917812D01*
X167206649Y-17032906D01*
X167206645Y-17032913D01*
X167156403Y-17167620D01*
X167156401Y-17167627D01*
X167150000Y-17227155D01*
X122410852Y-17227155D01*
X122389065Y-17164890D01*
X122375789Y-17126950D01*
X122279816Y-16974210D01*
X122152262Y-16846656D01*
X122128372Y-16831645D01*
X121999521Y-16750682D01*
X121829249Y-16691102D01*
X121742330Y-16681309D01*
X121677916Y-16654242D01*
X121668533Y-16645770D01*
X121161081Y-16138318D01*
X121161079Y-16138315D01*
X121042208Y-16019444D01*
X121042207Y-16019443D01*
X120955395Y-15969323D01*
X120955395Y-15969322D01*
X120955391Y-15969321D01*
X120905276Y-15940386D01*
X120752548Y-15899462D01*
X120594434Y-15899462D01*
X120586838Y-15899462D01*
X120586822Y-15899463D01*
X114061706Y-15899463D01*
X114061690Y-15899462D01*
X114054094Y-15899462D01*
X113895980Y-15899462D01*
X113788624Y-15928228D01*
X113743247Y-15940387D01*
X113743246Y-15940388D01*
X113693133Y-15969322D01*
X113693132Y-15969323D01*
X113665790Y-15985109D01*
X113606322Y-16019442D01*
X113606319Y-16019444D01*
X113525982Y-16099782D01*
X113494517Y-16131247D01*
X113494515Y-16131249D01*
X111828862Y-17796903D01*
X110187584Y-19438181D01*
X110126261Y-19471666D01*
X110099903Y-19474500D01*
X78450097Y-19474500D01*
X78383058Y-19454815D01*
X78362416Y-19438181D01*
X77555700Y-18631465D01*
X77522215Y-18570142D01*
X77520163Y-18557686D01*
X77510368Y-18470745D01*
X77450789Y-18300478D01*
X77354816Y-18147738D01*
X77227262Y-18020184D01*
X77164788Y-17980929D01*
X77074523Y-17924211D01*
X76904254Y-17864631D01*
X76904249Y-17864630D01*
X76725004Y-17844435D01*
X76724996Y-17844435D01*
X76545750Y-17864630D01*
X76545745Y-17864631D01*
X76375476Y-17924211D01*
X76222737Y-18020184D01*
X76095184Y-18147737D01*
X75999211Y-18300476D01*
X75939631Y-18470745D01*
X75939630Y-18470750D01*
X75919435Y-18649996D01*
X75919435Y-18650003D01*
X75939630Y-18829249D01*
X75939631Y-18829254D01*
X75999211Y-18999523D01*
X76095184Y-19152262D01*
X76222738Y-19279816D01*
X76375478Y-19375789D01*
X76545745Y-19435368D01*
X76632669Y-19445161D01*
X76697080Y-19472226D01*
X76706465Y-19480700D01*
X77665139Y-20439374D01*
X77665149Y-20439385D01*
X77669479Y-20443715D01*
X77669480Y-20443716D01*
X77781284Y-20555520D01*
X77781286Y-20555521D01*
X77781290Y-20555524D01*
X77918209Y-20634573D01*
X77918216Y-20634577D01*
X78030019Y-20664534D01*
X78070942Y-20675500D01*
X78070943Y-20675500D01*
X110313331Y-20675500D01*
X110313347Y-20675501D01*
X110320943Y-20675501D01*
X110479054Y-20675501D01*
X110479057Y-20675501D01*
X110631785Y-20634577D01*
X110681904Y-20605639D01*
X110768716Y-20555520D01*
X110880520Y-20443716D01*
X110880520Y-20443714D01*
X110890728Y-20433507D01*
X110890729Y-20433504D01*
X114187453Y-17136782D01*
X114248776Y-17103297D01*
X114275134Y-17100463D01*
X120373394Y-17100463D01*
X120440433Y-17120148D01*
X120461075Y-17136782D01*
X120819298Y-17495005D01*
X120852783Y-17556328D01*
X120854837Y-17568802D01*
X120864630Y-17655721D01*
X120908172Y-17780157D01*
X120911733Y-17849936D01*
X120877004Y-17910563D01*
X120832088Y-17938151D01*
X120793914Y-17951510D01*
X120793163Y-17949364D01*
X120734861Y-17958963D01*
X120706412Y-17950609D01*
X120706097Y-17951510D01*
X120529265Y-17889633D01*
X120529252Y-17889630D01*
X120350007Y-17869435D01*
X120349999Y-17869435D01*
X120170753Y-17889630D01*
X120170740Y-17889633D01*
X119993909Y-17951510D01*
X119993160Y-17949369D01*
X119934824Y-17958958D01*
X119906408Y-17950611D01*
X119906094Y-17951510D01*
X119729262Y-17889633D01*
X119729249Y-17889630D01*
X119550004Y-17869435D01*
X119549996Y-17869435D01*
X119370750Y-17889630D01*
X119370737Y-17889633D01*
X119193906Y-17951510D01*
X119193155Y-17949364D01*
X119134856Y-17958962D01*
X119106409Y-17950609D01*
X119106094Y-17951510D01*
X118929262Y-17889633D01*
X118929249Y-17889630D01*
X118750004Y-17869435D01*
X118749996Y-17869435D01*
X118570750Y-17889630D01*
X118570745Y-17889631D01*
X118400476Y-17949211D01*
X118247737Y-18045184D01*
X118120184Y-18172737D01*
X118024211Y-18325476D01*
X117964631Y-18495745D01*
X117964630Y-18495750D01*
X117944435Y-18674996D01*
X117944435Y-18675003D01*
X117964630Y-18854249D01*
X117964631Y-18854254D01*
X118024211Y-19024523D01*
X118024511Y-19025000D01*
X118104475Y-19152262D01*
X118120185Y-19177263D01*
X118122445Y-19180097D01*
X118123334Y-19182275D01*
X118123889Y-19183158D01*
X118123734Y-19183255D01*
X118148855Y-19244783D01*
X118149500Y-19257412D01*
X118149500Y-21543531D01*
X118129815Y-21610570D01*
X118113181Y-21631212D01*
X112356212Y-27388181D01*
X112294889Y-27421666D01*
X112268531Y-27424500D01*
X38832412Y-27424500D01*
X38765373Y-27404815D01*
X38755097Y-27397445D01*
X38752263Y-27395185D01*
X38752262Y-27395184D01*
X38695496Y-27359515D01*
X38599523Y-27299211D01*
X38429254Y-27239631D01*
X38429249Y-27239630D01*
X38250004Y-27219435D01*
X38249996Y-27219435D01*
X38070750Y-27239630D01*
X38070745Y-27239631D01*
X37900476Y-27299211D01*
X37747737Y-27395184D01*
X37620184Y-27522737D01*
X37524211Y-27675476D01*
X37464631Y-27845745D01*
X37464630Y-27845750D01*
X37444435Y-28024996D01*
X-13249500Y-28024996D01*
X-13249500Y-17227155D01*
X1150000Y-17227155D01*
X1150000Y-18025000D01*
X1891759Y-18025000D01*
X1878822Y-18056233D01*
X1850000Y-18201131D01*
X1850000Y-18348869D01*
X1878822Y-18493767D01*
X1891759Y-18525000D01*
X1150000Y-18525000D01*
X1150000Y-19322844D01*
X1156401Y-19382372D01*
X1156403Y-19382379D01*
X1206645Y-19517086D01*
X1206649Y-19517093D01*
X1292809Y-19632187D01*
X1292812Y-19632190D01*
X1407906Y-19718350D01*
X1407913Y-19718354D01*
X1542620Y-19768596D01*
X1542627Y-19768598D01*
X1602155Y-19774999D01*
X1602172Y-19775000D01*
X3000000Y-19775000D01*
X3000000Y-19025000D01*
X3500000Y-19025000D01*
X3500000Y-19775000D01*
X4897828Y-19775000D01*
X4897844Y-19774999D01*
X4957372Y-19768598D01*
X4957379Y-19768596D01*
X5092086Y-19718354D01*
X5092093Y-19718350D01*
X5207187Y-19632190D01*
X5207190Y-19632187D01*
X5293350Y-19517093D01*
X5293354Y-19517086D01*
X5343596Y-19382379D01*
X5343598Y-19382372D01*
X5349999Y-19322844D01*
X5350000Y-19322827D01*
X5350000Y-18525000D01*
X4608241Y-18525000D01*
X4621178Y-18493767D01*
X4650000Y-18348869D01*
X4650000Y-18201131D01*
X4621178Y-18056233D01*
X4608241Y-18025000D01*
X5350000Y-18025000D01*
X5350000Y-17227172D01*
X5349999Y-17227155D01*
X5343598Y-17167627D01*
X5343596Y-17167620D01*
X5293354Y-17032913D01*
X5293350Y-17032906D01*
X5207190Y-16917812D01*
X5207187Y-16917809D01*
X5092093Y-16831649D01*
X5092086Y-16831645D01*
X4957379Y-16781403D01*
X4957372Y-16781401D01*
X4897844Y-16775000D01*
X3500000Y-16775000D01*
X3500000Y-17525000D01*
X3000000Y-17525000D01*
X3000000Y-16775000D01*
X1602155Y-16775000D01*
X1542627Y-16781401D01*
X1542620Y-16781403D01*
X1407913Y-16831645D01*
X1407906Y-16831649D01*
X1292812Y-16917809D01*
X1292809Y-16917812D01*
X1206649Y-17032906D01*
X1206645Y-17032913D01*
X1156403Y-17167620D01*
X1156401Y-17167627D01*
X1150000Y-17227155D01*
X-13249500Y-17227155D01*
X-13249500Y-15174994D01*
X-5755643Y-15174994D01*
X-5755643Y-15175005D01*
X-5735110Y-15422812D01*
X-5735108Y-15422824D01*
X-5674064Y-15663881D01*
X-5574174Y-15891606D01*
X-5438167Y-16099782D01*
X-5438164Y-16099785D01*
X-5269744Y-16282738D01*
X-5073509Y-16435474D01*
X-4854810Y-16553828D01*
X-4619614Y-16634571D01*
X-4374335Y-16675500D01*
X-4125665Y-16675500D01*
X-3880386Y-16634571D01*
X-3645190Y-16553828D01*
X-3426491Y-16435474D01*
X-3230256Y-16282738D01*
X-3061836Y-16099785D01*
X-2925827Y-15891607D01*
X-2825937Y-15663881D01*
X-2764892Y-15422821D01*
X-2764891Y-15422812D01*
X-2744357Y-15175005D01*
X-2744357Y-15174994D01*
X8744357Y-15174994D01*
X8744357Y-15175005D01*
X8764890Y-15422812D01*
X8764892Y-15422824D01*
X8825936Y-15663881D01*
X8925826Y-15891606D01*
X9061833Y-16099782D01*
X9061836Y-16099785D01*
X9230256Y-16282738D01*
X9426491Y-16435474D01*
X9645190Y-16553828D01*
X9880386Y-16634571D01*
X10125665Y-16675500D01*
X10374335Y-16675500D01*
X10619614Y-16634571D01*
X10854810Y-16553828D01*
X11073509Y-16435474D01*
X11269744Y-16282738D01*
X11438164Y-16099785D01*
X11574173Y-15891607D01*
X11674063Y-15663881D01*
X11735108Y-15422821D01*
X11735109Y-15422812D01*
X11755643Y-15175005D01*
X11755643Y-15174994D01*
X11735109Y-14927187D01*
X11735107Y-14927175D01*
X11674063Y-14686118D01*
X11574173Y-14458393D01*
X11438166Y-14250217D01*
X11416557Y-14226744D01*
X11269744Y-14067262D01*
X11073509Y-13914526D01*
X11073507Y-13914525D01*
X11073506Y-13914524D01*
X10854811Y-13796172D01*
X10854802Y-13796169D01*
X10619616Y-13715429D01*
X10374335Y-13674500D01*
X10125665Y-13674500D01*
X9880383Y-13715429D01*
X9645197Y-13796169D01*
X9645188Y-13796172D01*
X9426493Y-13914524D01*
X9230257Y-14067261D01*
X9061833Y-14250217D01*
X8925826Y-14458393D01*
X8825936Y-14686118D01*
X8764892Y-14927175D01*
X8764890Y-14927187D01*
X8744357Y-15174994D01*
X-2744357Y-15174994D01*
X-2764891Y-14927187D01*
X-2764893Y-14927175D01*
X-2825937Y-14686118D01*
X-2925827Y-14458393D01*
X-3061834Y-14250217D01*
X-3082140Y-14228159D01*
X-3230256Y-14067262D01*
X-3331377Y-13988556D01*
X-3372190Y-13931846D01*
X-3376303Y-13902249D01*
X-4120591Y-13157962D01*
X-4057007Y-13140925D01*
X-3942993Y-13075099D01*
X-3849901Y-12982007D01*
X-3784075Y-12867993D01*
X-3767038Y-12804410D01*
X-3026566Y-13544882D01*
X-2926269Y-13391369D01*
X-2826413Y-13163717D01*
X-2765388Y-12922738D01*
X-2765386Y-12922729D01*
X-2744859Y-12675005D01*
X-2744859Y-12674994D01*
X-2765386Y-12427270D01*
X-2765388Y-12427261D01*
X-2826413Y-12186282D01*
X-2926268Y-11958632D01*
X-3038485Y-11786870D01*
X-3058672Y-11719981D01*
X-3039492Y-11652795D01*
X-3008987Y-11619782D01*
X-3007671Y-11618796D01*
X-3007669Y-11618796D01*
X-2892454Y-11532546D01*
X-2806204Y-11417331D01*
X-2755909Y-11282483D01*
X-2749500Y-11222873D01*
X-2749501Y-10174994D01*
X8744357Y-10174994D01*
X8744357Y-10175005D01*
X8764890Y-10422812D01*
X8764892Y-10422824D01*
X8825936Y-10663881D01*
X8925826Y-10891606D01*
X9061833Y-11099782D01*
X9061836Y-11099785D01*
X9230256Y-11282738D01*
X9426491Y-11435474D01*
X9645190Y-11553828D01*
X9880386Y-11634571D01*
X10125665Y-11675500D01*
X10374335Y-11675500D01*
X10619614Y-11634571D01*
X10854810Y-11553828D01*
X11073509Y-11435474D01*
X11188779Y-11345756D01*
X21999500Y-11345756D01*
X21999500Y-11804243D01*
X22039460Y-12260985D01*
X22039460Y-12260987D01*
X22112461Y-12674994D01*
X22119074Y-12712499D01*
X22237739Y-13155360D01*
X22237742Y-13155370D01*
X22237743Y-13155371D01*
X22394546Y-13586189D01*
X22394550Y-13586199D01*
X22588308Y-14001711D01*
X22588316Y-14001727D01*
X22747397Y-14277262D01*
X22817555Y-14398779D01*
X22817559Y-14398785D01*
X22817566Y-14398796D01*
X23080530Y-14774348D01*
X23289614Y-15023524D01*
X23375237Y-15125566D01*
X23699434Y-15449763D01*
X23845469Y-15572301D01*
X24050651Y-15744469D01*
X24426203Y-16007433D01*
X24426210Y-16007437D01*
X24426221Y-16007445D01*
X24823279Y-16236687D01*
X24823288Y-16236691D01*
X25238800Y-16430449D01*
X25238810Y-16430453D01*
X25392583Y-16486421D01*
X25669640Y-16587261D01*
X26112501Y-16705926D01*
X26564019Y-16785540D01*
X27020756Y-16825499D01*
X27020757Y-16825500D01*
X27020758Y-16825500D01*
X27479243Y-16825500D01*
X27479243Y-16825499D01*
X27935981Y-16785540D01*
X28387499Y-16705926D01*
X28830360Y-16587261D01*
X29107417Y-16486421D01*
X80044500Y-16486421D01*
X80044500Y-16663578D01*
X80072214Y-16838556D01*
X80126956Y-17007039D01*
X80126957Y-17007042D01*
X80193064Y-17136782D01*
X80207386Y-17164890D01*
X80311517Y-17308214D01*
X80436786Y-17433483D01*
X80580110Y-17537614D01*
X80641320Y-17568802D01*
X80737957Y-17618042D01*
X80737960Y-17618043D01*
X80822201Y-17645414D01*
X80906445Y-17672786D01*
X81081421Y-17700500D01*
X81081422Y-17700500D01*
X81258578Y-17700500D01*
X81258579Y-17700500D01*
X81433555Y-17672786D01*
X81602042Y-17618042D01*
X81759890Y-17537614D01*
X81903214Y-17433483D01*
X82028483Y-17308214D01*
X82132614Y-17164890D01*
X82213042Y-17007042D01*
X82267786Y-16838555D01*
X82295500Y-16663579D01*
X82295500Y-16486421D01*
X82286165Y-16427486D01*
X83999500Y-16427486D01*
X83999500Y-16722513D01*
X84031571Y-16966113D01*
X84038007Y-17014993D01*
X84094860Y-17227172D01*
X84114361Y-17299951D01*
X84114364Y-17299961D01*
X84227254Y-17572500D01*
X84227258Y-17572510D01*
X84374761Y-17827993D01*
X84554352Y-18062040D01*
X84554358Y-18062047D01*
X84762952Y-18270641D01*
X84762959Y-18270647D01*
X84997006Y-18450238D01*
X85252489Y-18597741D01*
X85252490Y-18597741D01*
X85252493Y-18597743D01*
X85525048Y-18710639D01*
X85810007Y-18786993D01*
X86102494Y-18825500D01*
X86102501Y-18825500D01*
X86397499Y-18825500D01*
X86397506Y-18825500D01*
X86689993Y-18786993D01*
X86974952Y-18710639D01*
X87247507Y-18597743D01*
X87502994Y-18450238D01*
X87737042Y-18270646D01*
X87945646Y-18062042D01*
X88125238Y-17827994D01*
X88272743Y-17572507D01*
X88385639Y-17299952D01*
X88461993Y-17014993D01*
X88500500Y-16722506D01*
X88500500Y-16486421D01*
X90204500Y-16486421D01*
X90204500Y-16663578D01*
X90232214Y-16838556D01*
X90286956Y-17007039D01*
X90286957Y-17007042D01*
X90353064Y-17136782D01*
X90367386Y-17164890D01*
X90471517Y-17308214D01*
X90596786Y-17433483D01*
X90740110Y-17537614D01*
X90801320Y-17568802D01*
X90897957Y-17618042D01*
X90897960Y-17618043D01*
X90982201Y-17645414D01*
X91066445Y-17672786D01*
X91241421Y-17700500D01*
X91241422Y-17700500D01*
X91418578Y-17700500D01*
X91418579Y-17700500D01*
X91593555Y-17672786D01*
X91762042Y-17618042D01*
X91919890Y-17537614D01*
X92063214Y-17433483D01*
X92188483Y-17308214D01*
X92248942Y-17224999D01*
X95344341Y-17224999D01*
X95344341Y-17225000D01*
X95364936Y-17460403D01*
X95364938Y-17460413D01*
X95426094Y-17688655D01*
X95426096Y-17688659D01*
X95426097Y-17688663D01*
X95508153Y-17864632D01*
X95525965Y-17902830D01*
X95525967Y-17902834D01*
X95608137Y-18020184D01*
X95661505Y-18096401D01*
X95828599Y-18263495D01*
X95917117Y-18325476D01*
X96022165Y-18399032D01*
X96022167Y-18399033D01*
X96022170Y-18399035D01*
X96236337Y-18498903D01*
X96464592Y-18560063D01*
X96641034Y-18575500D01*
X96699999Y-18580659D01*
X96700000Y-18580659D01*
X96700001Y-18580659D01*
X96758966Y-18575500D01*
X96935408Y-18560063D01*
X97163663Y-18498903D01*
X97377830Y-18399035D01*
X97571401Y-18263495D01*
X97738495Y-18096401D01*
X97868730Y-17910405D01*
X97923307Y-17866781D01*
X97992805Y-17859587D01*
X98055160Y-17891110D01*
X98071879Y-17910405D01*
X98201890Y-18096078D01*
X98368917Y-18263105D01*
X98562421Y-18398600D01*
X98776507Y-18498429D01*
X98776516Y-18498433D01*
X98990000Y-18555634D01*
X98990000Y-17658012D01*
X99047007Y-17690925D01*
X99174174Y-17725000D01*
X99305826Y-17725000D01*
X99432993Y-17690925D01*
X99490000Y-17658012D01*
X99490000Y-18555633D01*
X99703483Y-18498433D01*
X99703492Y-18498429D01*
X99917578Y-18398600D01*
X100111078Y-18263108D01*
X100233133Y-18141053D01*
X100294456Y-18107568D01*
X100364148Y-18112552D01*
X100420082Y-18154423D01*
X100436997Y-18185401D01*
X100486202Y-18317328D01*
X100486206Y-18317335D01*
X100572452Y-18432544D01*
X100572455Y-18432547D01*
X100687664Y-18518793D01*
X100687671Y-18518797D01*
X100822517Y-18569091D01*
X100822516Y-18569091D01*
X100829444Y-18569835D01*
X100882127Y-18575500D01*
X102677872Y-18575499D01*
X102737483Y-18569091D01*
X102872331Y-18518796D01*
X102987546Y-18432546D01*
X103073796Y-18317331D01*
X103124091Y-18182483D01*
X103130500Y-18122873D01*
X103130499Y-16327128D01*
X103124091Y-16267517D01*
X103123002Y-16264598D01*
X103073797Y-16132671D01*
X103073793Y-16132664D01*
X102987547Y-16017455D01*
X102987544Y-16017452D01*
X102872335Y-15931206D01*
X102872328Y-15931202D01*
X102737482Y-15880908D01*
X102737483Y-15880908D01*
X102677883Y-15874501D01*
X102677881Y-15874500D01*
X102677873Y-15874500D01*
X102677864Y-15874500D01*
X100882129Y-15874500D01*
X100882123Y-15874501D01*
X100822516Y-15880908D01*
X100687671Y-15931202D01*
X100687664Y-15931206D01*
X100572455Y-16017452D01*
X100572452Y-16017455D01*
X100486206Y-16132664D01*
X100486202Y-16132671D01*
X100436997Y-16264598D01*
X100395126Y-16320532D01*
X100329661Y-16344949D01*
X100261388Y-16330097D01*
X100233134Y-16308946D01*
X100111082Y-16186894D01*
X99917578Y-16051399D01*
X99703492Y-15951570D01*
X99703486Y-15951567D01*
X99490000Y-15894364D01*
X99490000Y-16791988D01*
X99432993Y-16759075D01*
X99305826Y-16725000D01*
X99174174Y-16725000D01*
X99047007Y-16759075D01*
X98990000Y-16791988D01*
X98990000Y-15894364D01*
X98989999Y-15894364D01*
X98776513Y-15951567D01*
X98776507Y-15951570D01*
X98562422Y-16051399D01*
X98562420Y-16051400D01*
X98368926Y-16186886D01*
X98368920Y-16186891D01*
X98201891Y-16353920D01*
X98201890Y-16353922D01*
X98071880Y-16539595D01*
X98017303Y-16583219D01*
X97947804Y-16590412D01*
X97885450Y-16558890D01*
X97868730Y-16539594D01*
X97738494Y-16353597D01*
X97571402Y-16186506D01*
X97571395Y-16186501D01*
X97377834Y-16050967D01*
X97377830Y-16050965D01*
X97310229Y-16019442D01*
X97163663Y-15951097D01*
X97163659Y-15951096D01*
X97163655Y-15951094D01*
X96935413Y-15889938D01*
X96935403Y-15889936D01*
X96700001Y-15869341D01*
X96699999Y-15869341D01*
X96464596Y-15889936D01*
X96464586Y-15889938D01*
X96236344Y-15951094D01*
X96236335Y-15951098D01*
X96022171Y-16050964D01*
X96022169Y-16050965D01*
X95828597Y-16186505D01*
X95661505Y-16353597D01*
X95525965Y-16547169D01*
X95525964Y-16547171D01*
X95426098Y-16761335D01*
X95426094Y-16761344D01*
X95364938Y-16989586D01*
X95364936Y-16989596D01*
X95344341Y-17224999D01*
X92248942Y-17224999D01*
X92292614Y-17164890D01*
X92373042Y-17007042D01*
X92427786Y-16838555D01*
X92455500Y-16663579D01*
X92455500Y-16486421D01*
X92427786Y-16311445D01*
X92400414Y-16227201D01*
X92373043Y-16142960D01*
X92373042Y-16142957D01*
X92310108Y-16019444D01*
X92292614Y-15985110D01*
X92188483Y-15841786D01*
X92063214Y-15716517D01*
X91919890Y-15612386D01*
X91762042Y-15531957D01*
X91762039Y-15531956D01*
X91593556Y-15477214D01*
X91506067Y-15463357D01*
X91418579Y-15449500D01*
X91241421Y-15449500D01*
X91183095Y-15458738D01*
X91066443Y-15477214D01*
X90897960Y-15531956D01*
X90897957Y-15531957D01*
X90740109Y-15612386D01*
X90669233Y-15663881D01*
X90596786Y-15716517D01*
X90596784Y-15716519D01*
X90596783Y-15716519D01*
X90471519Y-15841783D01*
X90471519Y-15841784D01*
X90471517Y-15841786D01*
X90436534Y-15889936D01*
X90367386Y-15985109D01*
X90286957Y-16142957D01*
X90286956Y-16142960D01*
X90232214Y-16311443D01*
X90204500Y-16486421D01*
X88500500Y-16486421D01*
X88500500Y-16427494D01*
X88461993Y-16135007D01*
X88385639Y-15850048D01*
X88384615Y-15847577D01*
X88330329Y-15716519D01*
X88272743Y-15577493D01*
X88246453Y-15531958D01*
X88125238Y-15322006D01*
X87945647Y-15087959D01*
X87945641Y-15087952D01*
X87737047Y-14879358D01*
X87737040Y-14879352D01*
X87502993Y-14699761D01*
X87247510Y-14552258D01*
X87247500Y-14552254D01*
X86974961Y-14439364D01*
X86974954Y-14439362D01*
X86974952Y-14439361D01*
X86689993Y-14363007D01*
X86641113Y-14356571D01*
X86397513Y-14324500D01*
X86397506Y-14324500D01*
X86102494Y-14324500D01*
X86102486Y-14324500D01*
X85824085Y-14361153D01*
X85810007Y-14363007D01*
X85653973Y-14404816D01*
X85525048Y-14439361D01*
X85525038Y-14439364D01*
X85252499Y-14552254D01*
X85252489Y-14552258D01*
X84997006Y-14699761D01*
X84762959Y-14879352D01*
X84762952Y-14879358D01*
X84554358Y-15087952D01*
X84554352Y-15087959D01*
X84374761Y-15322006D01*
X84227258Y-15577489D01*
X84227254Y-15577499D01*
X84114364Y-15850038D01*
X84114361Y-15850048D01*
X84038007Y-16135007D01*
X84037571Y-16138318D01*
X83999500Y-16427486D01*
X82286165Y-16427486D01*
X82267786Y-16311445D01*
X82240414Y-16227201D01*
X82213043Y-16142960D01*
X82213040Y-16142952D01*
X82130513Y-15980987D01*
X82117616Y-15912317D01*
X82143892Y-15847577D01*
X82200998Y-15807319D01*
X82257181Y-15801752D01*
X82316564Y-15809570D01*
X82323612Y-15810498D01*
X82323628Y-15810500D01*
X82323635Y-15810500D01*
X82556365Y-15810500D01*
X82556372Y-15810500D01*
X82787126Y-15780121D01*
X83011940Y-15719882D01*
X83147140Y-15663881D01*
X83226960Y-15630819D01*
X83226963Y-15630817D01*
X83226969Y-15630815D01*
X83428532Y-15514442D01*
X83613181Y-15372756D01*
X83777756Y-15208181D01*
X83919442Y-15023532D01*
X84035815Y-14821969D01*
X84055541Y-14774347D01*
X84124879Y-14606947D01*
X84124878Y-14606947D01*
X84124882Y-14606940D01*
X84185121Y-14382126D01*
X84215500Y-14151372D01*
X84215500Y-13918628D01*
X84196591Y-13774996D01*
X119944435Y-13774996D01*
X119944435Y-13775003D01*
X119964630Y-13954249D01*
X119964631Y-13954254D01*
X120024211Y-14124523D01*
X120041088Y-14151382D01*
X120120184Y-14277262D01*
X120247738Y-14404816D01*
X120400478Y-14500789D01*
X120547557Y-14552254D01*
X120570745Y-14560368D01*
X120570750Y-14560369D01*
X120749996Y-14580565D01*
X120750000Y-14580565D01*
X120750004Y-14580565D01*
X120929249Y-14560369D01*
X120929252Y-14560368D01*
X120929255Y-14560368D01*
X121099522Y-14500789D01*
X121252262Y-14404816D01*
X121379816Y-14277262D01*
X121475789Y-14124522D01*
X121535368Y-13954255D01*
X121537893Y-13931846D01*
X121555565Y-13775003D01*
X121555565Y-13774996D01*
X121535369Y-13595750D01*
X121535368Y-13595745D01*
X121517570Y-13544882D01*
X121475789Y-13425478D01*
X121379816Y-13272738D01*
X121379814Y-13272736D01*
X121379813Y-13272734D01*
X121377550Y-13269896D01*
X121376659Y-13267715D01*
X121376111Y-13266842D01*
X121376264Y-13266745D01*
X121351144Y-13205209D01*
X121350500Y-13192587D01*
X121350500Y-11918706D01*
X121370185Y-11851667D01*
X121408529Y-11813712D01*
X121502259Y-11754818D01*
X121502259Y-11754817D01*
X121502262Y-11754816D01*
X121629816Y-11627262D01*
X121725789Y-11474522D01*
X121770846Y-11345756D01*
X139999500Y-11345756D01*
X139999500Y-11804243D01*
X140039460Y-12260985D01*
X140039460Y-12260987D01*
X140112461Y-12674994D01*
X140119074Y-12712499D01*
X140237739Y-13155360D01*
X140237742Y-13155370D01*
X140237743Y-13155371D01*
X140394546Y-13586189D01*
X140394550Y-13586199D01*
X140588308Y-14001711D01*
X140588316Y-14001727D01*
X140747397Y-14277262D01*
X140817555Y-14398779D01*
X140817559Y-14398785D01*
X140817566Y-14398796D01*
X141080530Y-14774348D01*
X141289614Y-15023524D01*
X141375237Y-15125566D01*
X141699434Y-15449763D01*
X141845469Y-15572301D01*
X142050651Y-15744469D01*
X142426203Y-16007433D01*
X142426210Y-16007437D01*
X142426221Y-16007445D01*
X142823279Y-16236687D01*
X142823288Y-16236691D01*
X143238800Y-16430449D01*
X143238810Y-16430453D01*
X143392583Y-16486421D01*
X143669640Y-16587261D01*
X144112501Y-16705926D01*
X144564019Y-16785540D01*
X145020756Y-16825499D01*
X145020757Y-16825500D01*
X145020758Y-16825500D01*
X145479243Y-16825500D01*
X145479243Y-16825499D01*
X145935981Y-16785540D01*
X146387499Y-16705926D01*
X146830360Y-16587261D01*
X147247391Y-16435475D01*
X147261189Y-16430453D01*
X147261199Y-16430449D01*
X147516402Y-16311445D01*
X147676721Y-16236687D01*
X148073779Y-16007445D01*
X148449347Y-15744470D01*
X148800566Y-15449763D01*
X149075335Y-15174994D01*
X160244357Y-15174994D01*
X160244357Y-15175005D01*
X160264890Y-15422812D01*
X160264892Y-15422824D01*
X160325936Y-15663881D01*
X160425826Y-15891606D01*
X160561833Y-16099782D01*
X160561836Y-16099785D01*
X160730256Y-16282738D01*
X160926491Y-16435474D01*
X161145190Y-16553828D01*
X161380386Y-16634571D01*
X161625665Y-16675500D01*
X161874335Y-16675500D01*
X162119614Y-16634571D01*
X162354810Y-16553828D01*
X162573509Y-16435474D01*
X162769744Y-16282738D01*
X162938164Y-16099785D01*
X163074173Y-15891607D01*
X163174063Y-15663881D01*
X163235108Y-15422821D01*
X163235109Y-15422812D01*
X163255643Y-15175005D01*
X163255643Y-15174994D01*
X174744357Y-15174994D01*
X174744357Y-15175005D01*
X174764890Y-15422812D01*
X174764892Y-15422824D01*
X174825936Y-15663881D01*
X174925826Y-15891606D01*
X175061833Y-16099782D01*
X175061836Y-16099785D01*
X175230256Y-16282738D01*
X175426491Y-16435474D01*
X175645190Y-16553828D01*
X175880386Y-16634571D01*
X176125665Y-16675500D01*
X176374335Y-16675500D01*
X176619614Y-16634571D01*
X176854810Y-16553828D01*
X177073509Y-16435474D01*
X177269744Y-16282738D01*
X177438164Y-16099785D01*
X177574173Y-15891607D01*
X177674063Y-15663881D01*
X177735108Y-15422821D01*
X177735109Y-15422812D01*
X177755643Y-15175005D01*
X177755643Y-15174994D01*
X177735109Y-14927187D01*
X177735107Y-14927175D01*
X177674063Y-14686118D01*
X177574173Y-14458393D01*
X177438166Y-14250217D01*
X177416557Y-14226744D01*
X177269744Y-14067262D01*
X177073509Y-13914526D01*
X177073507Y-13914525D01*
X177073506Y-13914524D01*
X176854811Y-13796172D01*
X176854802Y-13796169D01*
X176619616Y-13715429D01*
X176374335Y-13674500D01*
X176125665Y-13674500D01*
X175880383Y-13715429D01*
X175645197Y-13796169D01*
X175645188Y-13796172D01*
X175426493Y-13914524D01*
X175230257Y-14067261D01*
X175061833Y-14250217D01*
X174925826Y-14458393D01*
X174825936Y-14686118D01*
X174764892Y-14927175D01*
X174764890Y-14927187D01*
X174744357Y-15174994D01*
X163255643Y-15174994D01*
X163235109Y-14927187D01*
X163235107Y-14927175D01*
X163174063Y-14686118D01*
X163074173Y-14458393D01*
X162938166Y-14250217D01*
X162917860Y-14228159D01*
X162769744Y-14067262D01*
X162668623Y-13988556D01*
X162627810Y-13931846D01*
X162623697Y-13902249D01*
X161879409Y-13157962D01*
X161942993Y-13140925D01*
X162057007Y-13075099D01*
X162150099Y-12982007D01*
X162215925Y-12867993D01*
X162232962Y-12804410D01*
X162973434Y-13544882D01*
X163073731Y-13391369D01*
X163173587Y-13163717D01*
X163234612Y-12922738D01*
X163234614Y-12922729D01*
X163255141Y-12675005D01*
X163255141Y-12674994D01*
X163234614Y-12427270D01*
X163234612Y-12427261D01*
X163173587Y-12186282D01*
X163073732Y-11958632D01*
X162961515Y-11786870D01*
X162941328Y-11719981D01*
X162960508Y-11652795D01*
X162991013Y-11619782D01*
X162992329Y-11618796D01*
X162992331Y-11618796D01*
X163107546Y-11532546D01*
X163193796Y-11417331D01*
X163244091Y-11282483D01*
X163250500Y-11222873D01*
X163250499Y-10174994D01*
X174744357Y-10174994D01*
X174744357Y-10175005D01*
X174764890Y-10422812D01*
X174764892Y-10422824D01*
X174825936Y-10663881D01*
X174925826Y-10891606D01*
X175061833Y-11099782D01*
X175061836Y-11099785D01*
X175230256Y-11282738D01*
X175426491Y-11435474D01*
X175645190Y-11553828D01*
X175880386Y-11634571D01*
X176125665Y-11675500D01*
X176374335Y-11675500D01*
X176619614Y-11634571D01*
X176854810Y-11553828D01*
X177073509Y-11435474D01*
X177269744Y-11282738D01*
X177438164Y-11099785D01*
X177574173Y-10891607D01*
X177674063Y-10663881D01*
X177735108Y-10422821D01*
X177735109Y-10422812D01*
X177755643Y-10175005D01*
X177755643Y-10174994D01*
X177735109Y-9927187D01*
X177735107Y-9927175D01*
X177674063Y-9686118D01*
X177574173Y-9458393D01*
X177438166Y-9250217D01*
X177416557Y-9226744D01*
X177269744Y-9067262D01*
X177073509Y-8914526D01*
X177073507Y-8914525D01*
X177073506Y-8914524D01*
X176854811Y-8796172D01*
X176854802Y-8796169D01*
X176619616Y-8715429D01*
X176374335Y-8674500D01*
X176125665Y-8674500D01*
X175880383Y-8715429D01*
X175645197Y-8796169D01*
X175645188Y-8796172D01*
X175426493Y-8914524D01*
X175403178Y-8932671D01*
X175230256Y-9067262D01*
X175222693Y-9075478D01*
X175061833Y-9250217D01*
X174925826Y-9458393D01*
X174825936Y-9686118D01*
X174764892Y-9927175D01*
X174764890Y-9927187D01*
X174744357Y-10174994D01*
X163250499Y-10174994D01*
X163250499Y-9127128D01*
X163244091Y-9067517D01*
X163193796Y-8932669D01*
X163193795Y-8932668D01*
X163193793Y-8932664D01*
X163107547Y-8817455D01*
X163107544Y-8817452D01*
X162992335Y-8731206D01*
X162992328Y-8731202D01*
X162857482Y-8680908D01*
X162857483Y-8680908D01*
X162797883Y-8674501D01*
X162797881Y-8674500D01*
X162797873Y-8674500D01*
X162797864Y-8674500D01*
X160702129Y-8674500D01*
X160702123Y-8674501D01*
X160642516Y-8680908D01*
X160507671Y-8731202D01*
X160507664Y-8731206D01*
X160392455Y-8817452D01*
X160392452Y-8817455D01*
X160306206Y-8932664D01*
X160306202Y-8932671D01*
X160255908Y-9067517D01*
X160249501Y-9127116D01*
X160249501Y-9127123D01*
X160249500Y-9127135D01*
X160249500Y-11222870D01*
X160249501Y-11222876D01*
X160255908Y-11282483D01*
X160306202Y-11417328D01*
X160306206Y-11417335D01*
X160392452Y-11532544D01*
X160392455Y-11532547D01*
X160508986Y-11619783D01*
X160550857Y-11675717D01*
X160555841Y-11745408D01*
X160538484Y-11786870D01*
X160426267Y-11958631D01*
X160326412Y-12186282D01*
X160265387Y-12427261D01*
X160265385Y-12427270D01*
X160244859Y-12674994D01*
X160244859Y-12675005D01*
X160265385Y-12922729D01*
X160265387Y-12922738D01*
X160326412Y-13163717D01*
X160426266Y-13391364D01*
X160526564Y-13544882D01*
X161267037Y-12804408D01*
X161284075Y-12867993D01*
X161349901Y-12982007D01*
X161442993Y-13075099D01*
X161557007Y-13140925D01*
X161620590Y-13157962D01*
X160874100Y-13904450D01*
X160863482Y-13951148D01*
X160831376Y-13988556D01*
X160730255Y-14067262D01*
X160561833Y-14250217D01*
X160425826Y-14458393D01*
X160325936Y-14686118D01*
X160264892Y-14927175D01*
X160264890Y-14927187D01*
X160244357Y-15174994D01*
X149075335Y-15174994D01*
X149124763Y-15125566D01*
X149419470Y-14774347D01*
X149682445Y-14398779D01*
X149911687Y-14001721D01*
X150100995Y-13595750D01*
X150105449Y-13586199D01*
X150105453Y-13586189D01*
X150150271Y-13463052D01*
X150262261Y-13155360D01*
X150380926Y-12712499D01*
X150460540Y-12260981D01*
X150500500Y-11804242D01*
X150500500Y-11345758D01*
X150460540Y-10889019D01*
X150451605Y-10838348D01*
X150413588Y-10622737D01*
X150380926Y-10437501D01*
X150262261Y-9994640D01*
X150149969Y-9686118D01*
X150105453Y-9563810D01*
X150105449Y-9563800D01*
X149911691Y-9148288D01*
X149911683Y-9148272D01*
X149787201Y-8932664D01*
X149682445Y-8751221D01*
X149682437Y-8751210D01*
X149682433Y-8751203D01*
X149419469Y-8375651D01*
X149233690Y-8154249D01*
X149124763Y-8024434D01*
X148800566Y-7700237D01*
X148529443Y-7472738D01*
X148449348Y-7405530D01*
X148073796Y-7142566D01*
X148073785Y-7142559D01*
X148073779Y-7142555D01*
X147955810Y-7074445D01*
X147676727Y-6913316D01*
X147676711Y-6913308D01*
X147261199Y-6719550D01*
X147261189Y-6719546D01*
X146830371Y-6562743D01*
X146830370Y-6562742D01*
X146830360Y-6562739D01*
X146487036Y-6470745D01*
X146387500Y-6444074D01*
X146387489Y-6444072D01*
X145935986Y-6364460D01*
X145479243Y-6324500D01*
X145479242Y-6324500D01*
X145020758Y-6324500D01*
X145020757Y-6324500D01*
X144564014Y-6364460D01*
X144564012Y-6364460D01*
X144112510Y-6444072D01*
X144112499Y-6444074D01*
X143875169Y-6507667D01*
X143669640Y-6562739D01*
X143669633Y-6562741D01*
X143669628Y-6562743D01*
X143238810Y-6719546D01*
X143238800Y-6719550D01*
X142823288Y-6913308D01*
X142823272Y-6913316D01*
X142426229Y-7142550D01*
X142426203Y-7142566D01*
X142050651Y-7405530D01*
X141699431Y-7700239D01*
X141375239Y-8024431D01*
X141080530Y-8375651D01*
X140817566Y-8751203D01*
X140817550Y-8751229D01*
X140588316Y-9148272D01*
X140588308Y-9148288D01*
X140394550Y-9563800D01*
X140394546Y-9563810D01*
X140260081Y-9933255D01*
X140237739Y-9994640D01*
X140194170Y-10157242D01*
X140119074Y-10437499D01*
X140119072Y-10437510D01*
X140039460Y-10889012D01*
X140039460Y-10889014D01*
X139999500Y-11345756D01*
X121770846Y-11345756D01*
X121785368Y-11304255D01*
X121786305Y-11295943D01*
X121805565Y-11125003D01*
X121805565Y-11124996D01*
X121785369Y-10945750D01*
X121785368Y-10945745D01*
X121725788Y-10775476D01*
X121629815Y-10622737D01*
X121502261Y-10495183D01*
X121458528Y-10467704D01*
X121412237Y-10415370D01*
X121400500Y-10362710D01*
X121400500Y-10007412D01*
X121420185Y-9940373D01*
X121427555Y-9930097D01*
X121429810Y-9927267D01*
X121429816Y-9927262D01*
X121525789Y-9774522D01*
X121585368Y-9604255D01*
X121589925Y-9563810D01*
X121605565Y-9425003D01*
X121605565Y-9424996D01*
X121585369Y-9245750D01*
X121585368Y-9245745D01*
X121551261Y-9148272D01*
X121525789Y-9075478D01*
X121429816Y-8922738D01*
X121302262Y-8795184D01*
X121278996Y-8780565D01*
X121149523Y-8699211D01*
X120979254Y-8639631D01*
X120979249Y-8639630D01*
X120800004Y-8619435D01*
X120799996Y-8619435D01*
X120620750Y-8639630D01*
X120620745Y-8639631D01*
X120450476Y-8699211D01*
X120297737Y-8795184D01*
X120170184Y-8922737D01*
X120074211Y-9075476D01*
X120014631Y-9245745D01*
X120014630Y-9245750D01*
X119994435Y-9424996D01*
X119994435Y-9425003D01*
X120014630Y-9604249D01*
X120014631Y-9604254D01*
X120074211Y-9774523D01*
X120134515Y-9870496D01*
X120170129Y-9927175D01*
X120170185Y-9927263D01*
X120172445Y-9930097D01*
X120173334Y-9932275D01*
X120173889Y-9933158D01*
X120173734Y-9933255D01*
X120198855Y-9994783D01*
X120199500Y-10007412D01*
X120199500Y-10838330D01*
X120199499Y-10838348D01*
X120199499Y-11004056D01*
X120200560Y-11012114D01*
X120200076Y-11012177D01*
X120202899Y-11049868D01*
X120194844Y-11121361D01*
X120191399Y-11139571D01*
X120149499Y-11295943D01*
X120149499Y-11464046D01*
X120149500Y-11464059D01*
X120149500Y-13192587D01*
X120129815Y-13259626D01*
X120122450Y-13269896D01*
X120120186Y-13272734D01*
X120024211Y-13425476D01*
X119964631Y-13595745D01*
X119964630Y-13595750D01*
X119944435Y-13774996D01*
X84196591Y-13774996D01*
X84185121Y-13687874D01*
X84124882Y-13463060D01*
X84124879Y-13463052D01*
X84035819Y-13248039D01*
X84035811Y-13248023D01*
X83919446Y-13046475D01*
X83919442Y-13046468D01*
X83824494Y-12922729D01*
X83777757Y-12861820D01*
X83777751Y-12861813D01*
X83613186Y-12697248D01*
X83613179Y-12697242D01*
X83428540Y-12555564D01*
X83428538Y-12555562D01*
X83428532Y-12555558D01*
X83428527Y-12555555D01*
X83428524Y-12555553D01*
X83226976Y-12439188D01*
X83226960Y-12439180D01*
X83011947Y-12350120D01*
X82787122Y-12289878D01*
X82556382Y-12259501D01*
X82556377Y-12259500D01*
X82556372Y-12259500D01*
X82323628Y-12259500D01*
X82323622Y-12259500D01*
X82323617Y-12259501D01*
X82092877Y-12289878D01*
X81868052Y-12350120D01*
X81653039Y-12439180D01*
X81653023Y-12439188D01*
X81451475Y-12555553D01*
X81451459Y-12555564D01*
X81266820Y-12697242D01*
X81266813Y-12697248D01*
X81102248Y-12861813D01*
X81102242Y-12861820D01*
X80960564Y-13046459D01*
X80960553Y-13046475D01*
X80844188Y-13248023D01*
X80844180Y-13248039D01*
X80755120Y-13463052D01*
X80694878Y-13687877D01*
X80664501Y-13918617D01*
X80664500Y-13918634D01*
X80664500Y-14151365D01*
X80664501Y-14151382D01*
X80694878Y-14382122D01*
X80755120Y-14606947D01*
X80844180Y-14821960D01*
X80844188Y-14821976D01*
X80960553Y-15023524D01*
X80960564Y-15023540D01*
X81102242Y-15208179D01*
X81102248Y-15208186D01*
X81135636Y-15241574D01*
X81169121Y-15302897D01*
X81164137Y-15372589D01*
X81122265Y-15428522D01*
X81067353Y-15451728D01*
X80906443Y-15477214D01*
X80737960Y-15531956D01*
X80737957Y-15531957D01*
X80580109Y-15612386D01*
X80509233Y-15663881D01*
X80436786Y-15716517D01*
X80436784Y-15716519D01*
X80436783Y-15716519D01*
X80311519Y-15841783D01*
X80311519Y-15841784D01*
X80311517Y-15841786D01*
X80276534Y-15889936D01*
X80207386Y-15985109D01*
X80126957Y-16142957D01*
X80126956Y-16142960D01*
X80072214Y-16311443D01*
X80044500Y-16486421D01*
X29107417Y-16486421D01*
X29247391Y-16435475D01*
X29261189Y-16430453D01*
X29261199Y-16430449D01*
X29516402Y-16311445D01*
X29676721Y-16236687D01*
X30073779Y-16007445D01*
X30449347Y-15744470D01*
X30800566Y-15449763D01*
X31124763Y-15125566D01*
X31419470Y-14774347D01*
X31682445Y-14398779D01*
X31911687Y-14001721D01*
X32100995Y-13595750D01*
X32105449Y-13586199D01*
X32105453Y-13586189D01*
X32150271Y-13463052D01*
X32262261Y-13155360D01*
X32380926Y-12712499D01*
X32460540Y-12260981D01*
X32500500Y-11804242D01*
X32500500Y-11378634D01*
X87014500Y-11378634D01*
X87014500Y-11611365D01*
X87014501Y-11611382D01*
X87039891Y-11804243D01*
X87044879Y-11842126D01*
X87047035Y-11850174D01*
X87105120Y-12066947D01*
X87194180Y-12281960D01*
X87194188Y-12281976D01*
X87310553Y-12483524D01*
X87310564Y-12483540D01*
X87452242Y-12668179D01*
X87452248Y-12668186D01*
X87616813Y-12832751D01*
X87616820Y-12832757D01*
X87654696Y-12861820D01*
X87801468Y-12974442D01*
X87801475Y-12974446D01*
X88003023Y-13090811D01*
X88003039Y-13090819D01*
X88218052Y-13179879D01*
X88218054Y-13179879D01*
X88218060Y-13179882D01*
X88442874Y-13240121D01*
X88673628Y-13270500D01*
X88673635Y-13270500D01*
X88906365Y-13270500D01*
X88906372Y-13270500D01*
X89137126Y-13240121D01*
X89361940Y-13179882D01*
X89421142Y-13155360D01*
X89576960Y-13090819D01*
X89576963Y-13090817D01*
X89576969Y-13090815D01*
X89778532Y-12974442D01*
X89963181Y-12832756D01*
X90127756Y-12668181D01*
X90269442Y-12483532D01*
X90385815Y-12281969D01*
X90394509Y-12260981D01*
X90474879Y-12066947D01*
X90474878Y-12066947D01*
X90474882Y-12066940D01*
X90535121Y-11842126D01*
X90565500Y-11611372D01*
X90565500Y-11378628D01*
X90535121Y-11147874D01*
X90474882Y-10923060D01*
X90461854Y-10891607D01*
X90385819Y-10708039D01*
X90385811Y-10708023D01*
X90269446Y-10506475D01*
X90269442Y-10506468D01*
X90205260Y-10422824D01*
X90127757Y-10321820D01*
X90127751Y-10321813D01*
X89963186Y-10157248D01*
X89963179Y-10157242D01*
X89778540Y-10015564D01*
X89778538Y-10015562D01*
X89778532Y-10015558D01*
X89778527Y-10015555D01*
X89778524Y-10015553D01*
X89576976Y-9899188D01*
X89576960Y-9899180D01*
X89361947Y-9810120D01*
X89229094Y-9774522D01*
X89137126Y-9749879D01*
X89137125Y-9749878D01*
X89137122Y-9749878D01*
X88906382Y-9719501D01*
X88906377Y-9719500D01*
X88906372Y-9719500D01*
X88673628Y-9719500D01*
X88673622Y-9719500D01*
X88673617Y-9719501D01*
X88442877Y-9749878D01*
X88218052Y-9810120D01*
X88003039Y-9899180D01*
X88003023Y-9899188D01*
X87801475Y-10015553D01*
X87801459Y-10015564D01*
X87616820Y-10157242D01*
X87616813Y-10157248D01*
X87452248Y-10321813D01*
X87452242Y-10321820D01*
X87310564Y-10506459D01*
X87310553Y-10506475D01*
X87194188Y-10708023D01*
X87194180Y-10708039D01*
X87105120Y-10923052D01*
X87044878Y-11147877D01*
X87014501Y-11378617D01*
X87014500Y-11378634D01*
X32500500Y-11378634D01*
X32500500Y-11345758D01*
X32460540Y-10889019D01*
X32451605Y-10838348D01*
X32413588Y-10622737D01*
X32380926Y-10437501D01*
X32262261Y-9994640D01*
X32149969Y-9686118D01*
X32105453Y-9563810D01*
X32105449Y-9563800D01*
X31911691Y-9148288D01*
X31911683Y-9148272D01*
X31787201Y-8932664D01*
X31682445Y-8751221D01*
X31682437Y-8751210D01*
X31682433Y-8751203D01*
X31419469Y-8375651D01*
X31233690Y-8154249D01*
X31124763Y-8024434D01*
X30800566Y-7700237D01*
X30529443Y-7472738D01*
X30449348Y-7405530D01*
X30073796Y-7142566D01*
X30073785Y-7142559D01*
X30073779Y-7142555D01*
X29955810Y-7074445D01*
X29676727Y-6913316D01*
X29676711Y-6913308D01*
X29261199Y-6719550D01*
X29261189Y-6719546D01*
X28830371Y-6562743D01*
X28830370Y-6562742D01*
X28830360Y-6562739D01*
X28487036Y-6470745D01*
X28387500Y-6444074D01*
X28387489Y-6444072D01*
X27935986Y-6364460D01*
X27479243Y-6324500D01*
X27479242Y-6324500D01*
X27020758Y-6324500D01*
X27020757Y-6324500D01*
X26564014Y-6364460D01*
X26564012Y-6364460D01*
X26112510Y-6444072D01*
X26112499Y-6444074D01*
X25875169Y-6507667D01*
X25669640Y-6562739D01*
X25669633Y-6562741D01*
X25669628Y-6562743D01*
X25238810Y-6719546D01*
X25238800Y-6719550D01*
X24823288Y-6913308D01*
X24823272Y-6913316D01*
X24426229Y-7142550D01*
X24426203Y-7142566D01*
X24050651Y-7405530D01*
X23699431Y-7700239D01*
X23375239Y-8024431D01*
X23080530Y-8375651D01*
X22817566Y-8751203D01*
X22817550Y-8751229D01*
X22588316Y-9148272D01*
X22588308Y-9148288D01*
X22394550Y-9563800D01*
X22394546Y-9563810D01*
X22260081Y-9933255D01*
X22237739Y-9994640D01*
X22194170Y-10157242D01*
X22119074Y-10437499D01*
X22119072Y-10437510D01*
X22039460Y-10889012D01*
X22039460Y-10889014D01*
X21999500Y-11345756D01*
X11188779Y-11345756D01*
X11269744Y-11282738D01*
X11438164Y-11099785D01*
X11574173Y-10891607D01*
X11674063Y-10663881D01*
X11735108Y-10422821D01*
X11735109Y-10422812D01*
X11755643Y-10175005D01*
X11755643Y-10174994D01*
X11735109Y-9927187D01*
X11735107Y-9927175D01*
X11674063Y-9686118D01*
X11574173Y-9458393D01*
X11438166Y-9250217D01*
X11416557Y-9226744D01*
X11269744Y-9067262D01*
X11073509Y-8914526D01*
X11073507Y-8914525D01*
X11073506Y-8914524D01*
X10854811Y-8796172D01*
X10854802Y-8796169D01*
X10619616Y-8715429D01*
X10374335Y-8674500D01*
X10125665Y-8674500D01*
X9880383Y-8715429D01*
X9645197Y-8796169D01*
X9645188Y-8796172D01*
X9426493Y-8914524D01*
X9403178Y-8932671D01*
X9230256Y-9067262D01*
X9222693Y-9075478D01*
X9061833Y-9250217D01*
X8925826Y-9458393D01*
X8825936Y-9686118D01*
X8764892Y-9927175D01*
X8764890Y-9927187D01*
X8744357Y-10174994D01*
X-2749501Y-10174994D01*
X-2749501Y-9127128D01*
X-2755909Y-9067517D01*
X-2806204Y-8932669D01*
X-2806205Y-8932668D01*
X-2806207Y-8932664D01*
X-2892453Y-8817455D01*
X-2892456Y-8817452D01*
X-3007665Y-8731206D01*
X-3007672Y-8731202D01*
X-3142518Y-8680908D01*
X-3142517Y-8680908D01*
X-3202117Y-8674501D01*
X-3202119Y-8674500D01*
X-3202127Y-8674500D01*
X-3202136Y-8674500D01*
X-5297871Y-8674500D01*
X-5297877Y-8674501D01*
X-5357484Y-8680908D01*
X-5492329Y-8731202D01*
X-5492336Y-8731206D01*
X-5607545Y-8817452D01*
X-5607548Y-8817455D01*
X-5693794Y-8932664D01*
X-5693798Y-8932671D01*
X-5744092Y-9067517D01*
X-5750499Y-9127116D01*
X-5750499Y-9127123D01*
X-5750500Y-9127135D01*
X-5750500Y-11222870D01*
X-5750499Y-11222876D01*
X-5744092Y-11282483D01*
X-5693798Y-11417328D01*
X-5693794Y-11417335D01*
X-5607548Y-11532544D01*
X-5607545Y-11532547D01*
X-5491014Y-11619783D01*
X-5449143Y-11675717D01*
X-5444159Y-11745408D01*
X-5461516Y-11786870D01*
X-5573733Y-11958631D01*
X-5673588Y-12186282D01*
X-5734613Y-12427261D01*
X-5734615Y-12427270D01*
X-5755141Y-12674994D01*
X-5755141Y-12675005D01*
X-5734615Y-12922729D01*
X-5734613Y-12922738D01*
X-5673588Y-13163717D01*
X-5573734Y-13391364D01*
X-5473436Y-13544882D01*
X-4732963Y-12804408D01*
X-4715925Y-12867993D01*
X-4650099Y-12982007D01*
X-4557007Y-13075099D01*
X-4442993Y-13140925D01*
X-4379410Y-13157962D01*
X-5125900Y-13904450D01*
X-5136518Y-13951148D01*
X-5168624Y-13988556D01*
X-5269745Y-14067262D01*
X-5438167Y-14250217D01*
X-5574174Y-14458393D01*
X-5674064Y-14686118D01*
X-5735108Y-14927175D01*
X-5735110Y-14927187D01*
X-5755643Y-15174994D01*
X-13249500Y-15174994D01*
X-13249500Y-6027155D01*
X1150000Y-6027155D01*
X1150000Y-6825000D01*
X1891759Y-6825000D01*
X1878822Y-6856233D01*
X1850000Y-7001131D01*
X1850000Y-7148869D01*
X1878822Y-7293767D01*
X1891759Y-7325000D01*
X1150000Y-7325000D01*
X1150000Y-8122844D01*
X1156401Y-8182372D01*
X1156403Y-8182379D01*
X1206645Y-8317086D01*
X1206649Y-8317093D01*
X1292809Y-8432187D01*
X1292812Y-8432190D01*
X1407906Y-8518350D01*
X1407913Y-8518354D01*
X1542620Y-8568596D01*
X1542627Y-8568598D01*
X1602155Y-8574999D01*
X1602172Y-8575000D01*
X3000000Y-8575000D01*
X3000000Y-7825000D01*
X3500000Y-7825000D01*
X3500000Y-8575000D01*
X4897828Y-8575000D01*
X4897844Y-8574999D01*
X4957372Y-8568598D01*
X4957379Y-8568596D01*
X5092086Y-8518354D01*
X5092093Y-8518350D01*
X5207187Y-8432190D01*
X5207190Y-8432187D01*
X5293350Y-8317093D01*
X5293354Y-8317086D01*
X5343596Y-8182379D01*
X5343598Y-8182372D01*
X5349999Y-8122844D01*
X5350000Y-8122827D01*
X5350000Y-7325000D01*
X4608241Y-7325000D01*
X4621178Y-7293767D01*
X4650000Y-7148869D01*
X4650000Y-7001131D01*
X4621178Y-6856233D01*
X4608241Y-6825000D01*
X5350000Y-6825000D01*
X5350000Y-6027172D01*
X5349999Y-6027155D01*
X5343598Y-5967627D01*
X5343596Y-5967620D01*
X5293354Y-5832913D01*
X5293350Y-5832906D01*
X5207190Y-5717812D01*
X5207187Y-5717809D01*
X5092093Y-5631649D01*
X5092086Y-5631645D01*
X4957379Y-5581403D01*
X4957372Y-5581401D01*
X4897844Y-5575000D01*
X3500000Y-5575000D01*
X3500000Y-6325000D01*
X3000000Y-6325000D01*
X3000000Y-5575000D01*
X1602155Y-5575000D01*
X1542627Y-5581401D01*
X1542620Y-5581403D01*
X1407913Y-5631645D01*
X1407906Y-5631649D01*
X1292812Y-5717809D01*
X1292809Y-5717812D01*
X1206649Y-5832906D01*
X1206645Y-5832913D01*
X1156403Y-5967620D01*
X1156401Y-5967627D01*
X1150000Y-6027155D01*
X-13249500Y-6027155D01*
X-13249500Y-3779234D01*
X82784500Y-3779234D01*
X82784500Y-3930765D01*
X82823719Y-4077136D01*
X82861602Y-4142750D01*
X82899485Y-4208365D01*
X83006635Y-4315515D01*
X83137865Y-4391281D01*
X83284234Y-4430500D01*
X83284236Y-4430500D01*
X83435764Y-4430500D01*
X83435766Y-4430500D01*
X83582135Y-4391281D01*
X83713365Y-4315515D01*
X83820515Y-4208365D01*
X83896281Y-4077135D01*
X83935500Y-3930766D01*
X83935500Y-3779234D01*
X83902211Y-3654996D01*
X87267495Y-3654996D01*
X87267495Y-3655003D01*
X87287690Y-3834249D01*
X87287691Y-3834254D01*
X87347271Y-4004523D01*
X87409937Y-4104254D01*
X87443244Y-4157262D01*
X87570798Y-4284816D01*
X87723538Y-4380789D01*
X87851315Y-4425500D01*
X87893805Y-4440368D01*
X87893810Y-4440369D01*
X88073056Y-4460565D01*
X88073060Y-4460565D01*
X88073064Y-4460565D01*
X88252309Y-4440369D01*
X88252312Y-4440368D01*
X88252315Y-4440368D01*
X88422582Y-4380789D01*
X88575322Y-4284816D01*
X88577942Y-4282196D01*
X88580055Y-4281041D01*
X88580770Y-4280472D01*
X88580869Y-4280597D01*
X88639263Y-4248707D01*
X88708955Y-4253686D01*
X88753310Y-4282190D01*
X88786635Y-4315515D01*
X88917865Y-4391281D01*
X89064234Y-4430500D01*
X89064236Y-4430500D01*
X89215764Y-4430500D01*
X89215766Y-4430500D01*
X89362135Y-4391281D01*
X89493365Y-4315515D01*
X89600515Y-4208365D01*
X89676281Y-4077135D01*
X89715500Y-3930766D01*
X89715500Y-3924996D01*
X112344435Y-3924996D01*
X112344435Y-3925003D01*
X112364630Y-4104249D01*
X112364631Y-4104254D01*
X112424211Y-4274523D01*
X112519077Y-4425500D01*
X112520184Y-4427262D01*
X112647738Y-4554816D01*
X112716212Y-4597841D01*
X112800474Y-4650787D01*
X112800478Y-4650789D01*
X112916695Y-4691455D01*
X112970745Y-4710368D01*
X112970750Y-4710369D01*
X113149996Y-4730565D01*
X113150000Y-4730565D01*
X113150004Y-4730565D01*
X113329249Y-4710369D01*
X113329252Y-4710368D01*
X113329255Y-4710368D01*
X113499522Y-4650789D01*
X113555216Y-4615793D01*
X113622451Y-4596792D01*
X113689287Y-4617158D01*
X113708870Y-4633105D01*
X115144298Y-6068533D01*
X115177783Y-6129856D01*
X115179837Y-6142330D01*
X115189630Y-6229249D01*
X115249210Y-6399521D01*
X115307593Y-6492437D01*
X115345184Y-6552262D01*
X115472738Y-6679816D01*
X115625478Y-6775789D01*
X115766115Y-6825000D01*
X115795745Y-6835368D01*
X115795750Y-6835369D01*
X115974996Y-6855565D01*
X115975000Y-6855565D01*
X115975004Y-6855565D01*
X116154249Y-6835369D01*
X116154252Y-6835368D01*
X116154255Y-6835368D01*
X116324522Y-6775789D01*
X116477262Y-6679816D01*
X116507082Y-6649996D01*
X119019435Y-6649996D01*
X119019435Y-6650003D01*
X119039630Y-6829249D01*
X119039631Y-6829254D01*
X119099211Y-6999523D01*
X119189085Y-7142555D01*
X119195184Y-7152262D01*
X119322738Y-7279816D01*
X119475478Y-7375789D01*
X119645745Y-7435368D01*
X119645750Y-7435369D01*
X119824996Y-7455565D01*
X119825000Y-7455565D01*
X119825004Y-7455565D01*
X120004249Y-7435369D01*
X120004252Y-7435368D01*
X120004255Y-7435368D01*
X120174522Y-7375789D01*
X120327262Y-7279816D01*
X120454816Y-7152262D01*
X120550789Y-6999522D01*
X120610368Y-6829255D01*
X120620161Y-6742329D01*
X120647226Y-6677918D01*
X120655690Y-6668543D01*
X121711408Y-5612826D01*
X121772730Y-5579342D01*
X121842422Y-5584326D01*
X121898355Y-5626198D01*
X121922772Y-5691662D01*
X121916131Y-5741459D01*
X121914632Y-5745740D01*
X121914630Y-5745750D01*
X121894435Y-5924996D01*
X121894435Y-5925003D01*
X121914630Y-6104249D01*
X121914631Y-6104254D01*
X121974211Y-6274523D01*
X122030723Y-6364460D01*
X122070184Y-6427262D01*
X122197738Y-6554816D01*
X122350478Y-6650789D01*
X122488872Y-6699215D01*
X122520745Y-6710368D01*
X122520750Y-6710369D01*
X122699996Y-6730565D01*
X122700000Y-6730565D01*
X122700004Y-6730565D01*
X122879249Y-6710369D01*
X122879252Y-6710368D01*
X122879255Y-6710368D01*
X123049522Y-6650789D01*
X123202262Y-6554816D01*
X123329816Y-6427262D01*
X123425789Y-6274522D01*
X123485368Y-6104255D01*
X123485936Y-6099215D01*
X123487469Y-6085615D01*
X123514536Y-6021201D01*
X123572132Y-5981647D01*
X123610689Y-5975500D01*
X126443865Y-5975500D01*
X126510904Y-5995185D01*
X126556659Y-6047989D01*
X126566603Y-6117147D01*
X126560906Y-6140457D01*
X126556054Y-6154322D01*
X126556052Y-6154328D01*
X126535857Y-6333574D01*
X126535857Y-6333581D01*
X126556052Y-6512827D01*
X126556053Y-6512832D01*
X126615633Y-6683101D01*
X126673873Y-6775788D01*
X126711606Y-6835840D01*
X126839160Y-6963394D01*
X126991900Y-7059367D01*
X127162167Y-7118946D01*
X127249091Y-7128739D01*
X127313502Y-7155804D01*
X127322887Y-7164278D01*
X128497983Y-8339374D01*
X128497993Y-8339385D01*
X128502323Y-8343715D01*
X128502324Y-8343716D01*
X128614128Y-8455520D01*
X128700939Y-8505639D01*
X128700941Y-8505641D01*
X128751057Y-8534576D01*
X128751059Y-8534577D01*
X128903786Y-8575500D01*
X128903787Y-8575500D01*
X129017588Y-8575500D01*
X129084627Y-8595185D01*
X129094903Y-8602555D01*
X129097736Y-8604814D01*
X129097738Y-8604816D01*
X129208639Y-8674500D01*
X129247966Y-8699211D01*
X129250478Y-8700789D01*
X129394627Y-8751229D01*
X129420745Y-8760368D01*
X129420750Y-8760369D01*
X129599996Y-8780565D01*
X129600000Y-8780565D01*
X129600004Y-8780565D01*
X129779249Y-8760369D01*
X129779252Y-8760368D01*
X129779255Y-8760368D01*
X129949522Y-8700789D01*
X130102262Y-8604816D01*
X130229816Y-8477262D01*
X130325789Y-8324522D01*
X130385368Y-8154255D01*
X130388909Y-8122827D01*
X130405565Y-7975003D01*
X130405565Y-7974996D01*
X130385369Y-7795750D01*
X130385368Y-7795745D01*
X130325788Y-7625476D01*
X130229815Y-7472737D01*
X130102262Y-7345184D01*
X129949523Y-7249211D01*
X129779254Y-7189631D01*
X129779249Y-7189630D01*
X129600004Y-7169435D01*
X129599996Y-7169435D01*
X129420750Y-7189630D01*
X129420745Y-7189631D01*
X129250475Y-7249211D01*
X129245656Y-7252240D01*
X129178419Y-7271239D01*
X129111584Y-7250870D01*
X129092005Y-7234926D01*
X128172122Y-6315043D01*
X128138637Y-6253720D01*
X128136585Y-6241264D01*
X128126790Y-6154323D01*
X128082292Y-6027155D01*
X167150000Y-6027155D01*
X167150000Y-6825000D01*
X167891759Y-6825000D01*
X167878822Y-6856233D01*
X167850000Y-7001131D01*
X167850000Y-7148869D01*
X167878822Y-7293767D01*
X167891759Y-7325000D01*
X167150000Y-7325000D01*
X167150000Y-8122844D01*
X167156401Y-8182372D01*
X167156403Y-8182379D01*
X167206645Y-8317086D01*
X167206649Y-8317093D01*
X167292809Y-8432187D01*
X167292812Y-8432190D01*
X167407906Y-8518350D01*
X167407913Y-8518354D01*
X167542620Y-8568596D01*
X167542627Y-8568598D01*
X167602155Y-8574999D01*
X167602172Y-8575000D01*
X169000000Y-8575000D01*
X169000000Y-7825000D01*
X169500000Y-7825000D01*
X169500000Y-8575000D01*
X170897828Y-8575000D01*
X170897844Y-8574999D01*
X170957372Y-8568598D01*
X170957379Y-8568596D01*
X171092086Y-8518354D01*
X171092093Y-8518350D01*
X171207187Y-8432190D01*
X171207190Y-8432187D01*
X171293350Y-8317093D01*
X171293354Y-8317086D01*
X171343596Y-8182379D01*
X171343598Y-8182372D01*
X171349999Y-8122844D01*
X171350000Y-8122827D01*
X171350000Y-7325000D01*
X170608241Y-7325000D01*
X170621178Y-7293767D01*
X170650000Y-7148869D01*
X170650000Y-7001131D01*
X170621178Y-6856233D01*
X170608241Y-6825000D01*
X171350000Y-6825000D01*
X171350000Y-6027172D01*
X171349999Y-6027155D01*
X171343598Y-5967627D01*
X171343596Y-5967620D01*
X171293354Y-5832913D01*
X171293350Y-5832906D01*
X171207190Y-5717812D01*
X171207187Y-5717809D01*
X171092093Y-5631649D01*
X171092086Y-5631645D01*
X170957379Y-5581403D01*
X170957372Y-5581401D01*
X170897844Y-5575000D01*
X169500000Y-5575000D01*
X169500000Y-6325000D01*
X169000000Y-6325000D01*
X169000000Y-5575000D01*
X167602155Y-5575000D01*
X167542627Y-5581401D01*
X167542620Y-5581403D01*
X167407913Y-5631645D01*
X167407906Y-5631649D01*
X167292812Y-5717809D01*
X167292809Y-5717812D01*
X167206649Y-5832906D01*
X167206645Y-5832913D01*
X167156403Y-5967620D01*
X167156401Y-5967627D01*
X167150000Y-6027155D01*
X128082292Y-6027155D01*
X128067211Y-5984056D01*
X127971238Y-5831316D01*
X127854059Y-5714137D01*
X127820574Y-5652814D01*
X127825558Y-5583122D01*
X127867430Y-5527189D01*
X127875752Y-5521473D01*
X127902262Y-5504816D01*
X128029816Y-5377262D01*
X128125789Y-5224522D01*
X128185368Y-5054255D01*
X128205565Y-4875000D01*
X128198852Y-4815423D01*
X128185369Y-4695750D01*
X128185368Y-4695745D01*
X128169637Y-4650788D01*
X128125789Y-4525478D01*
X128029816Y-4372738D01*
X127902262Y-4245184D01*
X127749523Y-4149211D01*
X127579254Y-4089631D01*
X127579249Y-4089630D01*
X127400004Y-4069435D01*
X127399996Y-4069435D01*
X127220750Y-4089630D01*
X127220745Y-4089631D01*
X127050476Y-4149211D01*
X126897737Y-4245184D01*
X126770184Y-4372737D01*
X126674211Y-4525477D01*
X126616133Y-4691455D01*
X126575411Y-4748231D01*
X126510458Y-4773978D01*
X126499091Y-4774500D01*
X124573902Y-4774500D01*
X124506863Y-4754815D01*
X124461108Y-4702011D01*
X124451164Y-4632853D01*
X124480189Y-4569297D01*
X124507930Y-4545506D01*
X124539807Y-4525476D01*
X124652262Y-4454816D01*
X124779816Y-4327262D01*
X124875789Y-4174522D01*
X124935368Y-4004255D01*
X124943648Y-3930766D01*
X124955565Y-3825003D01*
X124955565Y-3824996D01*
X124935369Y-3645750D01*
X124935368Y-3645745D01*
X124930860Y-3632863D01*
X124875789Y-3475478D01*
X124779816Y-3322738D01*
X124652262Y-3195184D01*
X124606682Y-3166544D01*
X124499523Y-3099211D01*
X124329254Y-3039631D01*
X124329249Y-3039630D01*
X124150004Y-3019435D01*
X124149996Y-3019435D01*
X123970750Y-3039630D01*
X123970745Y-3039631D01*
X123800476Y-3099211D01*
X123647736Y-3195185D01*
X123644903Y-3197445D01*
X123642724Y-3198334D01*
X123641842Y-3198889D01*
X123641744Y-3198734D01*
X123580217Y-3223855D01*
X123567588Y-3224500D01*
X122729057Y-3224500D01*
X122570942Y-3224500D01*
X122418215Y-3265423D01*
X122418214Y-3265423D01*
X122418212Y-3265424D01*
X122418209Y-3265425D01*
X122383066Y-3285716D01*
X122383064Y-3285717D01*
X122281290Y-3344475D01*
X122281282Y-3344481D01*
X122169478Y-3456286D01*
X119806465Y-5819298D01*
X119745142Y-5852783D01*
X119732668Y-5854837D01*
X119645750Y-5864630D01*
X119475478Y-5924210D01*
X119322737Y-6020184D01*
X119195184Y-6147737D01*
X119099211Y-6300476D01*
X119039631Y-6470745D01*
X119039630Y-6470750D01*
X119019435Y-6649996D01*
X116507082Y-6649996D01*
X116604816Y-6552262D01*
X116700789Y-6399522D01*
X116760368Y-6229255D01*
X116770373Y-6140457D01*
X116780565Y-6050003D01*
X116780565Y-6049996D01*
X116760369Y-5870750D01*
X116760368Y-5870745D01*
X116747130Y-5832913D01*
X116700789Y-5700478D01*
X116604816Y-5547738D01*
X116477262Y-5420184D01*
X116408952Y-5377262D01*
X116324521Y-5324210D01*
X116154249Y-5264630D01*
X116067330Y-5254837D01*
X116002916Y-5227770D01*
X115993533Y-5219298D01*
X114337590Y-3563355D01*
X114337588Y-3563352D01*
X114218717Y-3444481D01*
X114218709Y-3444475D01*
X114116936Y-3385717D01*
X114116934Y-3385716D01*
X114081790Y-3365425D01*
X114081789Y-3365424D01*
X114067566Y-3361613D01*
X113929057Y-3324499D01*
X113770943Y-3324499D01*
X113763347Y-3324499D01*
X113763331Y-3324500D01*
X113732412Y-3324500D01*
X113665373Y-3304815D01*
X113655097Y-3297445D01*
X113652263Y-3295185D01*
X113652262Y-3295184D01*
X113595496Y-3259515D01*
X113499523Y-3199211D01*
X113329254Y-3139631D01*
X113329249Y-3139630D01*
X113150004Y-3119435D01*
X113149996Y-3119435D01*
X112970750Y-3139630D01*
X112970745Y-3139631D01*
X112800476Y-3199211D01*
X112647737Y-3295184D01*
X112520184Y-3422737D01*
X112424211Y-3575476D01*
X112364631Y-3745745D01*
X112364630Y-3745750D01*
X112344435Y-3924996D01*
X89715500Y-3924996D01*
X89715500Y-3779234D01*
X89676281Y-3632865D01*
X89600515Y-3501635D01*
X89493365Y-3394485D01*
X89436428Y-3361612D01*
X89388214Y-3311045D01*
X89374992Y-3242438D01*
X89400960Y-3177574D01*
X89410737Y-3166556D01*
X89565477Y-3011816D01*
X89626799Y-2978334D01*
X89653157Y-2975500D01*
X92667588Y-2975500D01*
X92734627Y-2995185D01*
X92744903Y-3002555D01*
X92747736Y-3004814D01*
X92747738Y-3004816D01*
X92861270Y-3076152D01*
X92897966Y-3099211D01*
X92900478Y-3100789D01*
X93011479Y-3139630D01*
X93070745Y-3160368D01*
X93070750Y-3160369D01*
X93249996Y-3180565D01*
X93250000Y-3180565D01*
X93250004Y-3180565D01*
X93429249Y-3160369D01*
X93429252Y-3160368D01*
X93429255Y-3160368D01*
X93599522Y-3100789D01*
X93752262Y-3004816D01*
X93879816Y-2877262D01*
X93975789Y-2724522D01*
X94035368Y-2554255D01*
X94055565Y-2375000D01*
X94035368Y-2195745D01*
X93975789Y-2025478D01*
X93879816Y-1872738D01*
X93752262Y-1745184D01*
X93599523Y-1649211D01*
X93429254Y-1589631D01*
X93429249Y-1589630D01*
X93250004Y-1569435D01*
X93249996Y-1569435D01*
X93070750Y-1589630D01*
X93070745Y-1589631D01*
X92900476Y-1649211D01*
X92747736Y-1745185D01*
X92744903Y-1747445D01*
X92742724Y-1748334D01*
X92741842Y-1748889D01*
X92741744Y-1748734D01*
X92680217Y-1773855D01*
X92667588Y-1774500D01*
X89274000Y-1774500D01*
X89233079Y-1785464D01*
X89233079Y-1785465D01*
X89195811Y-1795451D01*
X89121274Y-1815423D01*
X89121269Y-1815426D01*
X88984350Y-1894475D01*
X88984342Y-1894481D01*
X88872538Y-2006286D01*
X88054525Y-2824298D01*
X87993202Y-2857783D01*
X87980728Y-2859837D01*
X87893810Y-2869630D01*
X87723538Y-2929210D01*
X87570797Y-3025184D01*
X87443244Y-3152737D01*
X87347271Y-3305476D01*
X87287691Y-3475745D01*
X87287690Y-3475750D01*
X87267495Y-3654996D01*
X83902211Y-3654996D01*
X83896281Y-3632865D01*
X83820515Y-3501635D01*
X83713365Y-3394485D01*
X83626746Y-3344475D01*
X83582136Y-3318719D01*
X83458968Y-3285717D01*
X83435766Y-3279500D01*
X83284234Y-3279500D01*
X83137863Y-3318719D01*
X83006635Y-3394485D01*
X83006632Y-3394487D01*
X82899487Y-3501632D01*
X82899485Y-3501635D01*
X82823719Y-3632863D01*
X82784500Y-3779234D01*
X-13249500Y-3779234D01*
X-13249500Y-578748D01*
X-13249274Y-571262D01*
X-13231729Y-281205D01*
X-13229924Y-266340D01*
X-13178220Y15799D01*
X-13174636Y30337D01*
X-13097904Y276578D01*
X-13089304Y304178D01*
X-13084002Y318159D01*
X-12966269Y579751D01*
X-12959324Y592984D01*
X-12810920Y838474D01*
X-12802433Y850770D01*
X-12625520Y1076583D01*
X-12615605Y1087774D01*
X-12412774Y1290605D01*
X-12401583Y1300520D01*
X-12175770Y1477433D01*
X-12163474Y1485920D01*
X-11917984Y1634324D01*
X-11904751Y1641269D01*
X-11643159Y1759002D01*
X-11629178Y1764304D01*
X-11355332Y1849638D01*
X-11340803Y1853220D01*
X-11058656Y1904925D01*
X-11043799Y1906729D01*
X-10753736Y1924274D01*
X-10746249Y1924500D01*
X-10684108Y1924500D01*
X183184108Y1924500D01*
X183246249Y1924500D01*
X183253736Y1924274D01*
G37*
%TD.AperFunction*%
%TD*%
M02*
