%TF.GenerationSoftware,KiCad,Pcbnew,8.0.4*%
%TF.CreationDate,2024-07-22T04:35:25+08:00*%
%TF.ProjectId,PH-AC,50482d41-432e-46b6-9963-61645f706362,rev?*%
%TF.SameCoordinates,PX405f7e0PY328b740*%
%TF.FileFunction,Legend,Top*%
%TF.FilePolarity,Positive*%
%FSLAX46Y46*%
G04 Gerber Fmt 4.6, Leading zero omitted, Abs format (unit mm)*
G04 Created by KiCad (PCBNEW 8.0.4) date 2024-07-22 04:35:25*
%MOMM*%
%LPD*%
G01*
G04 APERTURE LIST*
%ADD10C,0.150000*%
%ADD11C,0.120000*%
G04 APERTURE END LIST*
D10*
X49166667Y-35407200D02*
X49309524Y-35454819D01*
X49309524Y-35454819D02*
X49547619Y-35454819D01*
X49547619Y-35454819D02*
X49642857Y-35407200D01*
X49642857Y-35407200D02*
X49690476Y-35359580D01*
X49690476Y-35359580D02*
X49738095Y-35264342D01*
X49738095Y-35264342D02*
X49738095Y-35169104D01*
X49738095Y-35169104D02*
X49690476Y-35073866D01*
X49690476Y-35073866D02*
X49642857Y-35026247D01*
X49642857Y-35026247D02*
X49547619Y-34978628D01*
X49547619Y-34978628D02*
X49357143Y-34931009D01*
X49357143Y-34931009D02*
X49261905Y-34883390D01*
X49261905Y-34883390D02*
X49214286Y-34835771D01*
X49214286Y-34835771D02*
X49166667Y-34740533D01*
X49166667Y-34740533D02*
X49166667Y-34645295D01*
X49166667Y-34645295D02*
X49214286Y-34550057D01*
X49214286Y-34550057D02*
X49261905Y-34502438D01*
X49261905Y-34502438D02*
X49357143Y-34454819D01*
X49357143Y-34454819D02*
X49595238Y-34454819D01*
X49595238Y-34454819D02*
X49738095Y-34502438D01*
X50071429Y-34454819D02*
X50309524Y-35454819D01*
X50309524Y-35454819D02*
X50500000Y-34740533D01*
X50500000Y-34740533D02*
X50690476Y-35454819D01*
X50690476Y-35454819D02*
X50928572Y-34454819D01*
X51738095Y-34788152D02*
X51738095Y-35454819D01*
X51500000Y-34407200D02*
X51261905Y-35121485D01*
X51261905Y-35121485D02*
X51880952Y-35121485D01*
X98666667Y-11407200D02*
X98809524Y-11454819D01*
X98809524Y-11454819D02*
X99047619Y-11454819D01*
X99047619Y-11454819D02*
X99142857Y-11407200D01*
X99142857Y-11407200D02*
X99190476Y-11359580D01*
X99190476Y-11359580D02*
X99238095Y-11264342D01*
X99238095Y-11264342D02*
X99238095Y-11169104D01*
X99238095Y-11169104D02*
X99190476Y-11073866D01*
X99190476Y-11073866D02*
X99142857Y-11026247D01*
X99142857Y-11026247D02*
X99047619Y-10978628D01*
X99047619Y-10978628D02*
X98857143Y-10931009D01*
X98857143Y-10931009D02*
X98761905Y-10883390D01*
X98761905Y-10883390D02*
X98714286Y-10835771D01*
X98714286Y-10835771D02*
X98666667Y-10740533D01*
X98666667Y-10740533D02*
X98666667Y-10645295D01*
X98666667Y-10645295D02*
X98714286Y-10550057D01*
X98714286Y-10550057D02*
X98761905Y-10502438D01*
X98761905Y-10502438D02*
X98857143Y-10454819D01*
X98857143Y-10454819D02*
X99095238Y-10454819D01*
X99095238Y-10454819D02*
X99238095Y-10502438D01*
X99571429Y-10454819D02*
X99809524Y-11454819D01*
X99809524Y-11454819D02*
X100000000Y-10740533D01*
X100000000Y-10740533D02*
X100190476Y-11454819D01*
X100190476Y-11454819D02*
X100428572Y-10454819D01*
X100857143Y-11454819D02*
X101047619Y-11454819D01*
X101047619Y-11454819D02*
X101142857Y-11407200D01*
X101142857Y-11407200D02*
X101190476Y-11359580D01*
X101190476Y-11359580D02*
X101285714Y-11216723D01*
X101285714Y-11216723D02*
X101333333Y-11026247D01*
X101333333Y-11026247D02*
X101333333Y-10645295D01*
X101333333Y-10645295D02*
X101285714Y-10550057D01*
X101285714Y-10550057D02*
X101238095Y-10502438D01*
X101238095Y-10502438D02*
X101142857Y-10454819D01*
X101142857Y-10454819D02*
X100952381Y-10454819D01*
X100952381Y-10454819D02*
X100857143Y-10502438D01*
X100857143Y-10502438D02*
X100809524Y-10550057D01*
X100809524Y-10550057D02*
X100761905Y-10645295D01*
X100761905Y-10645295D02*
X100761905Y-10883390D01*
X100761905Y-10883390D02*
X100809524Y-10978628D01*
X100809524Y-10978628D02*
X100857143Y-11026247D01*
X100857143Y-11026247D02*
X100952381Y-11073866D01*
X100952381Y-11073866D02*
X101142857Y-11073866D01*
X101142857Y-11073866D02*
X101238095Y-11026247D01*
X101238095Y-11026247D02*
X101285714Y-10978628D01*
X101285714Y-10978628D02*
X101333333Y-10883390D01*
X148166667Y-35407200D02*
X148309524Y-35454819D01*
X148309524Y-35454819D02*
X148547619Y-35454819D01*
X148547619Y-35454819D02*
X148642857Y-35407200D01*
X148642857Y-35407200D02*
X148690476Y-35359580D01*
X148690476Y-35359580D02*
X148738095Y-35264342D01*
X148738095Y-35264342D02*
X148738095Y-35169104D01*
X148738095Y-35169104D02*
X148690476Y-35073866D01*
X148690476Y-35073866D02*
X148642857Y-35026247D01*
X148642857Y-35026247D02*
X148547619Y-34978628D01*
X148547619Y-34978628D02*
X148357143Y-34931009D01*
X148357143Y-34931009D02*
X148261905Y-34883390D01*
X148261905Y-34883390D02*
X148214286Y-34835771D01*
X148214286Y-34835771D02*
X148166667Y-34740533D01*
X148166667Y-34740533D02*
X148166667Y-34645295D01*
X148166667Y-34645295D02*
X148214286Y-34550057D01*
X148214286Y-34550057D02*
X148261905Y-34502438D01*
X148261905Y-34502438D02*
X148357143Y-34454819D01*
X148357143Y-34454819D02*
X148595238Y-34454819D01*
X148595238Y-34454819D02*
X148738095Y-34502438D01*
X149071429Y-34454819D02*
X149309524Y-35454819D01*
X149309524Y-35454819D02*
X149500000Y-34740533D01*
X149500000Y-34740533D02*
X149690476Y-35454819D01*
X149690476Y-35454819D02*
X149928572Y-34454819D01*
X150214286Y-34454819D02*
X150880952Y-34454819D01*
X150880952Y-34454819D02*
X150452381Y-35454819D01*
X82166667Y-35407200D02*
X82309524Y-35454819D01*
X82309524Y-35454819D02*
X82547619Y-35454819D01*
X82547619Y-35454819D02*
X82642857Y-35407200D01*
X82642857Y-35407200D02*
X82690476Y-35359580D01*
X82690476Y-35359580D02*
X82738095Y-35264342D01*
X82738095Y-35264342D02*
X82738095Y-35169104D01*
X82738095Y-35169104D02*
X82690476Y-35073866D01*
X82690476Y-35073866D02*
X82642857Y-35026247D01*
X82642857Y-35026247D02*
X82547619Y-34978628D01*
X82547619Y-34978628D02*
X82357143Y-34931009D01*
X82357143Y-34931009D02*
X82261905Y-34883390D01*
X82261905Y-34883390D02*
X82214286Y-34835771D01*
X82214286Y-34835771D02*
X82166667Y-34740533D01*
X82166667Y-34740533D02*
X82166667Y-34645295D01*
X82166667Y-34645295D02*
X82214286Y-34550057D01*
X82214286Y-34550057D02*
X82261905Y-34502438D01*
X82261905Y-34502438D02*
X82357143Y-34454819D01*
X82357143Y-34454819D02*
X82595238Y-34454819D01*
X82595238Y-34454819D02*
X82738095Y-34502438D01*
X83071429Y-34454819D02*
X83309524Y-35454819D01*
X83309524Y-35454819D02*
X83500000Y-34740533D01*
X83500000Y-34740533D02*
X83690476Y-35454819D01*
X83690476Y-35454819D02*
X83928572Y-34454819D01*
X84785714Y-34454819D02*
X84309524Y-34454819D01*
X84309524Y-34454819D02*
X84261905Y-34931009D01*
X84261905Y-34931009D02*
X84309524Y-34883390D01*
X84309524Y-34883390D02*
X84404762Y-34835771D01*
X84404762Y-34835771D02*
X84642857Y-34835771D01*
X84642857Y-34835771D02*
X84738095Y-34883390D01*
X84738095Y-34883390D02*
X84785714Y-34931009D01*
X84785714Y-34931009D02*
X84833333Y-35026247D01*
X84833333Y-35026247D02*
X84833333Y-35264342D01*
X84833333Y-35264342D02*
X84785714Y-35359580D01*
X84785714Y-35359580D02*
X84738095Y-35407200D01*
X84738095Y-35407200D02*
X84642857Y-35454819D01*
X84642857Y-35454819D02*
X84404762Y-35454819D01*
X84404762Y-35454819D02*
X84309524Y-35407200D01*
X84309524Y-35407200D02*
X84261905Y-35359580D01*
X65666667Y-77407200D02*
X65809524Y-77454819D01*
X65809524Y-77454819D02*
X66047619Y-77454819D01*
X66047619Y-77454819D02*
X66142857Y-77407200D01*
X66142857Y-77407200D02*
X66190476Y-77359580D01*
X66190476Y-77359580D02*
X66238095Y-77264342D01*
X66238095Y-77264342D02*
X66238095Y-77169104D01*
X66238095Y-77169104D02*
X66190476Y-77073866D01*
X66190476Y-77073866D02*
X66142857Y-77026247D01*
X66142857Y-77026247D02*
X66047619Y-76978628D01*
X66047619Y-76978628D02*
X65857143Y-76931009D01*
X65857143Y-76931009D02*
X65761905Y-76883390D01*
X65761905Y-76883390D02*
X65714286Y-76835771D01*
X65714286Y-76835771D02*
X65666667Y-76740533D01*
X65666667Y-76740533D02*
X65666667Y-76645295D01*
X65666667Y-76645295D02*
X65714286Y-76550057D01*
X65714286Y-76550057D02*
X65761905Y-76502438D01*
X65761905Y-76502438D02*
X65857143Y-76454819D01*
X65857143Y-76454819D02*
X66095238Y-76454819D01*
X66095238Y-76454819D02*
X66238095Y-76502438D01*
X66571429Y-76454819D02*
X66809524Y-77454819D01*
X66809524Y-77454819D02*
X67000000Y-76740533D01*
X67000000Y-76740533D02*
X67190476Y-77454819D01*
X67190476Y-77454819D02*
X67428572Y-76454819D01*
X67952381Y-76883390D02*
X67857143Y-76835771D01*
X67857143Y-76835771D02*
X67809524Y-76788152D01*
X67809524Y-76788152D02*
X67761905Y-76692914D01*
X67761905Y-76692914D02*
X67761905Y-76645295D01*
X67761905Y-76645295D02*
X67809524Y-76550057D01*
X67809524Y-76550057D02*
X67857143Y-76502438D01*
X67857143Y-76502438D02*
X67952381Y-76454819D01*
X67952381Y-76454819D02*
X68142857Y-76454819D01*
X68142857Y-76454819D02*
X68238095Y-76502438D01*
X68238095Y-76502438D02*
X68285714Y-76550057D01*
X68285714Y-76550057D02*
X68333333Y-76645295D01*
X68333333Y-76645295D02*
X68333333Y-76692914D01*
X68333333Y-76692914D02*
X68285714Y-76788152D01*
X68285714Y-76788152D02*
X68238095Y-76835771D01*
X68238095Y-76835771D02*
X68142857Y-76883390D01*
X68142857Y-76883390D02*
X67952381Y-76883390D01*
X67952381Y-76883390D02*
X67857143Y-76931009D01*
X67857143Y-76931009D02*
X67809524Y-76978628D01*
X67809524Y-76978628D02*
X67761905Y-77073866D01*
X67761905Y-77073866D02*
X67761905Y-77264342D01*
X67761905Y-77264342D02*
X67809524Y-77359580D01*
X67809524Y-77359580D02*
X67857143Y-77407200D01*
X67857143Y-77407200D02*
X67952381Y-77454819D01*
X67952381Y-77454819D02*
X68142857Y-77454819D01*
X68142857Y-77454819D02*
X68238095Y-77407200D01*
X68238095Y-77407200D02*
X68285714Y-77359580D01*
X68285714Y-77359580D02*
X68333333Y-77264342D01*
X68333333Y-77264342D02*
X68333333Y-77073866D01*
X68333333Y-77073866D02*
X68285714Y-76978628D01*
X68285714Y-76978628D02*
X68238095Y-76931009D01*
X68238095Y-76931009D02*
X68142857Y-76883390D01*
X115166667Y-35407200D02*
X115309524Y-35454819D01*
X115309524Y-35454819D02*
X115547619Y-35454819D01*
X115547619Y-35454819D02*
X115642857Y-35407200D01*
X115642857Y-35407200D02*
X115690476Y-35359580D01*
X115690476Y-35359580D02*
X115738095Y-35264342D01*
X115738095Y-35264342D02*
X115738095Y-35169104D01*
X115738095Y-35169104D02*
X115690476Y-35073866D01*
X115690476Y-35073866D02*
X115642857Y-35026247D01*
X115642857Y-35026247D02*
X115547619Y-34978628D01*
X115547619Y-34978628D02*
X115357143Y-34931009D01*
X115357143Y-34931009D02*
X115261905Y-34883390D01*
X115261905Y-34883390D02*
X115214286Y-34835771D01*
X115214286Y-34835771D02*
X115166667Y-34740533D01*
X115166667Y-34740533D02*
X115166667Y-34645295D01*
X115166667Y-34645295D02*
X115214286Y-34550057D01*
X115214286Y-34550057D02*
X115261905Y-34502438D01*
X115261905Y-34502438D02*
X115357143Y-34454819D01*
X115357143Y-34454819D02*
X115595238Y-34454819D01*
X115595238Y-34454819D02*
X115738095Y-34502438D01*
X116071429Y-34454819D02*
X116309524Y-35454819D01*
X116309524Y-35454819D02*
X116500000Y-34740533D01*
X116500000Y-34740533D02*
X116690476Y-35454819D01*
X116690476Y-35454819D02*
X116928572Y-34454819D01*
X117738095Y-34454819D02*
X117547619Y-34454819D01*
X117547619Y-34454819D02*
X117452381Y-34502438D01*
X117452381Y-34502438D02*
X117404762Y-34550057D01*
X117404762Y-34550057D02*
X117309524Y-34692914D01*
X117309524Y-34692914D02*
X117261905Y-34883390D01*
X117261905Y-34883390D02*
X117261905Y-35264342D01*
X117261905Y-35264342D02*
X117309524Y-35359580D01*
X117309524Y-35359580D02*
X117357143Y-35407200D01*
X117357143Y-35407200D02*
X117452381Y-35454819D01*
X117452381Y-35454819D02*
X117642857Y-35454819D01*
X117642857Y-35454819D02*
X117738095Y-35407200D01*
X117738095Y-35407200D02*
X117785714Y-35359580D01*
X117785714Y-35359580D02*
X117833333Y-35264342D01*
X117833333Y-35264342D02*
X117833333Y-35026247D01*
X117833333Y-35026247D02*
X117785714Y-34931009D01*
X117785714Y-34931009D02*
X117738095Y-34883390D01*
X117738095Y-34883390D02*
X117642857Y-34835771D01*
X117642857Y-34835771D02*
X117452381Y-34835771D01*
X117452381Y-34835771D02*
X117357143Y-34883390D01*
X117357143Y-34883390D02*
X117309524Y-34931009D01*
X117309524Y-34931009D02*
X117261905Y-35026247D01*
X131190476Y-77407200D02*
X131333333Y-77454819D01*
X131333333Y-77454819D02*
X131571428Y-77454819D01*
X131571428Y-77454819D02*
X131666666Y-77407200D01*
X131666666Y-77407200D02*
X131714285Y-77359580D01*
X131714285Y-77359580D02*
X131761904Y-77264342D01*
X131761904Y-77264342D02*
X131761904Y-77169104D01*
X131761904Y-77169104D02*
X131714285Y-77073866D01*
X131714285Y-77073866D02*
X131666666Y-77026247D01*
X131666666Y-77026247D02*
X131571428Y-76978628D01*
X131571428Y-76978628D02*
X131380952Y-76931009D01*
X131380952Y-76931009D02*
X131285714Y-76883390D01*
X131285714Y-76883390D02*
X131238095Y-76835771D01*
X131238095Y-76835771D02*
X131190476Y-76740533D01*
X131190476Y-76740533D02*
X131190476Y-76645295D01*
X131190476Y-76645295D02*
X131238095Y-76550057D01*
X131238095Y-76550057D02*
X131285714Y-76502438D01*
X131285714Y-76502438D02*
X131380952Y-76454819D01*
X131380952Y-76454819D02*
X131619047Y-76454819D01*
X131619047Y-76454819D02*
X131761904Y-76502438D01*
X132095238Y-76454819D02*
X132333333Y-77454819D01*
X132333333Y-77454819D02*
X132523809Y-76740533D01*
X132523809Y-76740533D02*
X132714285Y-77454819D01*
X132714285Y-77454819D02*
X132952381Y-76454819D01*
X133857142Y-77454819D02*
X133285714Y-77454819D01*
X133571428Y-77454819D02*
X133571428Y-76454819D01*
X133571428Y-76454819D02*
X133476190Y-76597676D01*
X133476190Y-76597676D02*
X133380952Y-76692914D01*
X133380952Y-76692914D02*
X133285714Y-76740533D01*
X134476190Y-76454819D02*
X134571428Y-76454819D01*
X134571428Y-76454819D02*
X134666666Y-76502438D01*
X134666666Y-76502438D02*
X134714285Y-76550057D01*
X134714285Y-76550057D02*
X134761904Y-76645295D01*
X134761904Y-76645295D02*
X134809523Y-76835771D01*
X134809523Y-76835771D02*
X134809523Y-77073866D01*
X134809523Y-77073866D02*
X134761904Y-77264342D01*
X134761904Y-77264342D02*
X134714285Y-77359580D01*
X134714285Y-77359580D02*
X134666666Y-77407200D01*
X134666666Y-77407200D02*
X134571428Y-77454819D01*
X134571428Y-77454819D02*
X134476190Y-77454819D01*
X134476190Y-77454819D02*
X134380952Y-77407200D01*
X134380952Y-77407200D02*
X134333333Y-77359580D01*
X134333333Y-77359580D02*
X134285714Y-77264342D01*
X134285714Y-77264342D02*
X134238095Y-77073866D01*
X134238095Y-77073866D02*
X134238095Y-76835771D01*
X134238095Y-76835771D02*
X134285714Y-76645295D01*
X134285714Y-76645295D02*
X134333333Y-76550057D01*
X134333333Y-76550057D02*
X134380952Y-76502438D01*
X134380952Y-76502438D02*
X134476190Y-76454819D01*
X180466667Y-5307200D02*
X180609524Y-5354819D01*
X180609524Y-5354819D02*
X180847619Y-5354819D01*
X180847619Y-5354819D02*
X180942857Y-5307200D01*
X180942857Y-5307200D02*
X180990476Y-5259580D01*
X180990476Y-5259580D02*
X181038095Y-5164342D01*
X181038095Y-5164342D02*
X181038095Y-5069104D01*
X181038095Y-5069104D02*
X180990476Y-4973866D01*
X180990476Y-4973866D02*
X180942857Y-4926247D01*
X180942857Y-4926247D02*
X180847619Y-4878628D01*
X180847619Y-4878628D02*
X180657143Y-4831009D01*
X180657143Y-4831009D02*
X180561905Y-4783390D01*
X180561905Y-4783390D02*
X180514286Y-4735771D01*
X180514286Y-4735771D02*
X180466667Y-4640533D01*
X180466667Y-4640533D02*
X180466667Y-4545295D01*
X180466667Y-4545295D02*
X180514286Y-4450057D01*
X180514286Y-4450057D02*
X180561905Y-4402438D01*
X180561905Y-4402438D02*
X180657143Y-4354819D01*
X180657143Y-4354819D02*
X180895238Y-4354819D01*
X180895238Y-4354819D02*
X181038095Y-4402438D01*
X181371429Y-4354819D02*
X181609524Y-5354819D01*
X181609524Y-5354819D02*
X181800000Y-4640533D01*
X181800000Y-4640533D02*
X181990476Y-5354819D01*
X181990476Y-5354819D02*
X182228572Y-4354819D01*
X182514286Y-4354819D02*
X183133333Y-4354819D01*
X183133333Y-4354819D02*
X182800000Y-4735771D01*
X182800000Y-4735771D02*
X182942857Y-4735771D01*
X182942857Y-4735771D02*
X183038095Y-4783390D01*
X183038095Y-4783390D02*
X183085714Y-4831009D01*
X183085714Y-4831009D02*
X183133333Y-4926247D01*
X183133333Y-4926247D02*
X183133333Y-5164342D01*
X183133333Y-5164342D02*
X183085714Y-5259580D01*
X183085714Y-5259580D02*
X183038095Y-5307200D01*
X183038095Y-5307200D02*
X182942857Y-5354819D01*
X182942857Y-5354819D02*
X182657143Y-5354819D01*
X182657143Y-5354819D02*
X182561905Y-5307200D01*
X182561905Y-5307200D02*
X182514286Y-5259580D01*
X7966667Y-5307200D02*
X8109524Y-5354819D01*
X8109524Y-5354819D02*
X8347619Y-5354819D01*
X8347619Y-5354819D02*
X8442857Y-5307200D01*
X8442857Y-5307200D02*
X8490476Y-5259580D01*
X8490476Y-5259580D02*
X8538095Y-5164342D01*
X8538095Y-5164342D02*
X8538095Y-5069104D01*
X8538095Y-5069104D02*
X8490476Y-4973866D01*
X8490476Y-4973866D02*
X8442857Y-4926247D01*
X8442857Y-4926247D02*
X8347619Y-4878628D01*
X8347619Y-4878628D02*
X8157143Y-4831009D01*
X8157143Y-4831009D02*
X8061905Y-4783390D01*
X8061905Y-4783390D02*
X8014286Y-4735771D01*
X8014286Y-4735771D02*
X7966667Y-4640533D01*
X7966667Y-4640533D02*
X7966667Y-4545295D01*
X7966667Y-4545295D02*
X8014286Y-4450057D01*
X8014286Y-4450057D02*
X8061905Y-4402438D01*
X8061905Y-4402438D02*
X8157143Y-4354819D01*
X8157143Y-4354819D02*
X8395238Y-4354819D01*
X8395238Y-4354819D02*
X8538095Y-4402438D01*
X8871429Y-4354819D02*
X9109524Y-5354819D01*
X9109524Y-5354819D02*
X9300000Y-4640533D01*
X9300000Y-4640533D02*
X9490476Y-5354819D01*
X9490476Y-5354819D02*
X9728572Y-4354819D01*
X10061905Y-4450057D02*
X10109524Y-4402438D01*
X10109524Y-4402438D02*
X10204762Y-4354819D01*
X10204762Y-4354819D02*
X10442857Y-4354819D01*
X10442857Y-4354819D02*
X10538095Y-4402438D01*
X10538095Y-4402438D02*
X10585714Y-4450057D01*
X10585714Y-4450057D02*
X10633333Y-4545295D01*
X10633333Y-4545295D02*
X10633333Y-4640533D01*
X10633333Y-4640533D02*
X10585714Y-4783390D01*
X10585714Y-4783390D02*
X10014286Y-5354819D01*
X10014286Y-5354819D02*
X10633333Y-5354819D01*
D11*
%TO.C,SW4*%
X43400000Y-35900000D02*
X43400000Y-50100000D01*
X43400000Y-50100000D02*
X57600000Y-50100000D01*
X57600000Y-35900000D02*
X43400000Y-35900000D01*
X57600000Y-50100000D02*
X57600000Y-35900000D01*
%TO.C,SW9*%
X92900000Y-11900000D02*
X92900000Y-26100000D01*
X92900000Y-26100000D02*
X107100000Y-26100000D01*
X107100000Y-11900000D02*
X92900000Y-11900000D01*
X107100000Y-26100000D02*
X107100000Y-11900000D01*
%TO.C,SW7*%
X142400000Y-35900000D02*
X142400000Y-50100000D01*
X142400000Y-50100000D02*
X156600000Y-50100000D01*
X156600000Y-35900000D02*
X142400000Y-35900000D01*
X156600000Y-50100000D02*
X156600000Y-35900000D01*
%TO.C,SW5*%
X76400000Y-35900000D02*
X76400000Y-50100000D01*
X76400000Y-50100000D02*
X90600000Y-50100000D01*
X90600000Y-35900000D02*
X76400000Y-35900000D01*
X90600000Y-50100000D02*
X90600000Y-35900000D01*
%TO.C,SW8*%
X59900000Y-77900000D02*
X59900000Y-92100000D01*
X59900000Y-92100000D02*
X74100000Y-92100000D01*
X74100000Y-77900000D02*
X59900000Y-77900000D01*
X74100000Y-92100000D02*
X74100000Y-77900000D01*
%TO.C,SW6*%
X109400000Y-35900000D02*
X109400000Y-50100000D01*
X109400000Y-50100000D02*
X123600000Y-50100000D01*
X123600000Y-35900000D02*
X109400000Y-35900000D01*
X123600000Y-50100000D02*
X123600000Y-35900000D01*
%TO.C,SW10*%
X125900000Y-77900000D02*
X125900000Y-92100000D01*
X125900000Y-92100000D02*
X140100000Y-92100000D01*
X140100000Y-77900000D02*
X125900000Y-77900000D01*
X140100000Y-92100000D02*
X140100000Y-77900000D01*
%TO.C,SW3*%
X178700000Y-8000000D02*
X179300000Y-8000000D01*
X179000000Y-8300000D02*
X178700000Y-8000000D01*
X179300000Y-8000000D02*
X179000000Y-8300000D01*
X180400000Y-6200000D02*
X180400000Y-18000000D01*
X184500000Y-6200000D02*
X180400000Y-6200000D01*
X184500000Y-18000000D02*
X180400000Y-18000000D01*
X186000000Y-12100000D02*
X187000000Y-12100000D01*
X186500000Y-11600000D02*
X186500000Y-12600000D01*
X188500000Y-6200000D02*
X192600000Y-6200000D01*
X192600000Y-6200000D02*
X192600000Y-8600000D01*
X192600000Y-10800000D02*
X192600000Y-13400000D01*
X192600000Y-15600000D02*
X192600000Y-18000000D01*
X192600000Y-18000000D02*
X188500000Y-18000000D01*
X189500000Y-12100000D02*
G75*
G02*
X183500000Y-12100000I-3000000J0D01*
G01*
X183500000Y-12100000D02*
G75*
G02*
X189500000Y-12100000I3000000J0D01*
G01*
%TO.C,SW2*%
X6200000Y-8000000D02*
X6800000Y-8000000D01*
X6500000Y-8300000D02*
X6200000Y-8000000D01*
X6800000Y-8000000D02*
X6500000Y-8300000D01*
X7900000Y-6200000D02*
X7900000Y-18000000D01*
X12000000Y-6200000D02*
X7900000Y-6200000D01*
X12000000Y-18000000D02*
X7900000Y-18000000D01*
X13500000Y-12100000D02*
X14500000Y-12100000D01*
X14000000Y-11600000D02*
X14000000Y-12600000D01*
X16000000Y-6200000D02*
X20100000Y-6200000D01*
X20100000Y-6200000D02*
X20100000Y-8600000D01*
X20100000Y-10800000D02*
X20100000Y-13400000D01*
X20100000Y-15600000D02*
X20100000Y-18000000D01*
X20100000Y-18000000D02*
X16000000Y-18000000D01*
X17000000Y-12100000D02*
G75*
G02*
X11000000Y-12100000I-3000000J0D01*
G01*
X11000000Y-12100000D02*
G75*
G02*
X17000000Y-12100000I3000000J0D01*
G01*
%TD*%
M02*
