%TF.GenerationSoftware,KiCad,Pcbnew,8.0.4*%
%TF.CreationDate,2024-07-22T08:35:10+08:00*%
%TF.ProjectId,PH-AC,50482d41-432e-46b6-9963-61645f706362,rev?*%
%TF.SameCoordinates,PX405f7e0PY328b740*%
%TF.FileFunction,Copper,L1,Top*%
%TF.FilePolarity,Positive*%
%FSLAX46Y46*%
G04 Gerber Fmt 4.6, Leading zero omitted, Abs format (unit mm)*
G04 Created by KiCad (PCBNEW 8.0.4) date 2024-07-22 08:35:10*
%MOMM*%
%LPD*%
G01*
G04 APERTURE LIST*
%TA.AperFunction,ComponentPad*%
%ADD10C,2.000000*%
%TD*%
%TA.AperFunction,ComponentPad*%
%ADD11R,3.200000X2.000000*%
%TD*%
%TA.AperFunction,ComponentPad*%
%ADD12R,2.000000X2.000000*%
%TD*%
%TA.AperFunction,ComponentPad*%
%ADD13R,0.850000X0.850000*%
%TD*%
%TA.AperFunction,ComponentPad*%
%ADD14O,0.850000X0.850000*%
%TD*%
%TA.AperFunction,ViaPad*%
%ADD15C,0.600000*%
%TD*%
%TA.AperFunction,Conductor*%
%ADD16C,0.200000*%
%TD*%
G04 APERTURE END LIST*
D10*
%TO.P,SW3,S2,S2*%
%TO.N,unconnected-(SW3-PadS2)*%
X190000000Y-12600000D03*
%TO.P,SW3,S1,S1*%
%TO.N,unconnected-(SW3-PadS1)*%
X190000000Y-17600000D03*
D11*
%TO.P,SW3,MP,MP*%
%TO.N,GND*%
X183000000Y-20700000D03*
X183000000Y-9500000D03*
D10*
%TO.P,SW3,C,C*%
X175500000Y-15100000D03*
%TO.P,SW3,B,B*%
%TO.N,ENC2B*%
X175500000Y-17600000D03*
D12*
%TO.P,SW3,A,A*%
%TO.N,ENC2A*%
X175500000Y-12600000D03*
%TD*%
%TO.P,SW2,A,A*%
%TO.N,ENC1A*%
X9500000Y-12600000D03*
D10*
%TO.P,SW2,B,B*%
%TO.N,ENC1B*%
X9500000Y-17600000D03*
%TO.P,SW2,C,C*%
%TO.N,GND*%
X9500000Y-15100000D03*
D11*
%TO.P,SW2,MP,MP*%
X17000000Y-9500000D03*
X17000000Y-20700000D03*
D10*
%TO.P,SW2,S1,S1*%
%TO.N,unconnected-(SW2-PadS1)*%
X24000000Y-17600000D03*
%TO.P,SW2,S2,S2*%
%TO.N,unconnected-(SW2-PadS2)*%
X24000000Y-12600000D03*
%TD*%
D13*
%TO.P,SW1,1,1*%
%TO.N,GND*%
X145350000Y-29060000D03*
D14*
%TO.P,SW1,2,2*%
%TO.N,Net-(R9-Pad1)*%
X145350000Y-28060000D03*
%TD*%
D13*
%TO.P,J2,1,Pin_1*%
%TO.N,Net-(J2-Pin_1)*%
X125100000Y-6200000D03*
D14*
%TO.P,J2,2,Pin_2*%
%TO.N,GND*%
X126100000Y-6200000D03*
%TO.P,J2,3,Pin_3*%
%TO.N,Net-(J2-Pin_3)*%
X127100000Y-6200000D03*
%TD*%
D15*
%TO.N,+3V3*%
X139700000Y-2350000D03*
X134750000Y-11650000D03*
X134550000Y-9950000D03*
X146000000Y-5800000D03*
X134500000Y-14300000D03*
%TO.N,Net-(U1-ADC_AVDD)*%
X136450000Y-6450000D03*
X145950000Y-3450000D03*
%TO.N,/VSYS*%
X126950000Y-2800000D03*
X132493556Y-2384466D03*
X136050000Y-4250000D03*
%TO.N,VBUS*%
X107000000Y-4800000D03*
X101823060Y-6080000D03*
%TO.N,ROW0*%
X138600000Y-45450000D03*
X60350000Y-47300000D03*
X73500000Y-45450000D03*
X129000000Y-45450000D03*
X134000000Y-19300000D03*
%TO.N,ROW1*%
X133150000Y-19400000D03*
X97350000Y-86600000D03*
X94750000Y-31050000D03*
%TO.N,/GPIO29_ADC3*%
X133900003Y-7650000D03*
X142400000Y-6650000D03*
%TO.N,/GPIO24*%
X131650000Y-6050000D03*
X129450000Y-4400000D03*
%TO.N,Net-(U2-EN)*%
X132050735Y-3050735D03*
X133350000Y-4450000D03*
%TO.N,/GPIO23*%
X132250000Y-6750000D03*
X132250735Y-4199265D03*
%TO.N,Net-(U1-GPIO25)*%
X137900000Y-4350000D03*
X133100000Y-7650000D03*
%TO.N,ENC1B*%
X131424265Y-17724265D03*
%TO.N,ENC1A*%
X130426471Y-20426471D03*
%TO.N,COL0*%
X134893292Y-16796208D03*
X65000000Y-11100000D03*
%TO.N,COL1*%
X134896785Y-17648231D03*
X110550000Y-13900000D03*
%TO.N,COL2*%
X122250000Y-31350000D03*
X134903186Y-18448208D03*
%TO.N,COL3*%
X153400000Y-35150000D03*
X134797842Y-19241241D03*
%TO.N,GND*%
X93050000Y-2850000D03*
X130200000Y-19600000D03*
X130000735Y-14499265D03*
X137150000Y-2520000D03*
X132250000Y-12250000D03*
X143250000Y-12300000D03*
X141550000Y-25750000D03*
X147300000Y-14400000D03*
X141800000Y-5400000D03*
X120750000Y-13550000D03*
X145950000Y-2550000D03*
X137800000Y-15850000D03*
X130050000Y-3200000D03*
X106950000Y-2850000D03*
X93050000Y-6750000D03*
X125050000Y-3750000D03*
X133800000Y-6100000D03*
X105100000Y-8500000D03*
X132478810Y-1521190D03*
X129600000Y-6400000D03*
X122300000Y-10850000D03*
%TD*%
D16*
%TO.N,ENC1A*%
X4200000Y-15200000D02*
X6800000Y-12600000D01*
X6800000Y-12600000D02*
X9500000Y-12600000D01*
X4200000Y-22350000D02*
X4200000Y-15200000D01*
X9550000Y-27700000D02*
X4200000Y-22350000D01*
X130426471Y-20426471D02*
X123152942Y-27700000D01*
X123152942Y-27700000D02*
X9550000Y-27700000D01*
%TO.N,+3V3*%
X134750000Y-11650000D02*
X134500000Y-11900000D01*
X146198529Y-1950000D02*
X147050000Y-2801471D01*
X147050000Y-2801471D02*
X147050000Y-4750000D01*
X140100000Y-1950000D02*
X146198529Y-1950000D01*
X134550000Y-11450000D02*
X134750000Y-11650000D01*
X147050000Y-4750000D02*
X146000000Y-5800000D01*
X139700000Y-2350000D02*
X140100000Y-1950000D01*
X134550000Y-9950000D02*
X134550000Y-11450000D01*
X134500000Y-11900000D02*
X134500000Y-14300000D01*
%TO.N,Net-(U1-ADC_AVDD)*%
X136450000Y-6450000D02*
X137700000Y-7700000D01*
X143550000Y-7700000D02*
X145200000Y-6050000D01*
X145200000Y-4200000D02*
X145950000Y-3450000D01*
X137700000Y-7700000D02*
X143550000Y-7700000D01*
X145200000Y-6050000D02*
X145200000Y-4200000D01*
%TO.N,/VSYS*%
X136050000Y-4250000D02*
X134359090Y-4250000D01*
X134359090Y-4250000D02*
X132493556Y-2384466D01*
X132493556Y-2384466D02*
X131809090Y-1700000D01*
X131809090Y-1700000D02*
X128600000Y-1700000D01*
X128600000Y-1700000D02*
X127500000Y-2800000D01*
X127500000Y-2800000D02*
X126950000Y-2800000D01*
%TO.N,VBUS*%
X103103060Y-4800000D02*
X107000000Y-4800000D01*
X101823060Y-6080000D02*
X103103060Y-4800000D01*
%TO.N,ROW0*%
X62200000Y-45450000D02*
X60350000Y-47300000D01*
X134000000Y-19300000D02*
X134000000Y-40850000D01*
X134000000Y-40850000D02*
X138600000Y-45450000D01*
X73500000Y-45450000D02*
X62200000Y-45450000D01*
X138600000Y-45450000D02*
X129000000Y-45450000D01*
%TO.N,ROW1*%
X97350000Y-72200000D02*
X97350000Y-86600000D01*
X133184313Y-19434313D02*
X133184313Y-36365687D01*
X133184313Y-36365687D02*
X97350000Y-72200000D01*
X133150000Y-19400000D02*
X133184313Y-19434313D01*
X94750000Y-84000000D02*
X97350000Y-86600000D01*
X94750000Y-31050000D02*
X94750000Y-84000000D01*
%TO.N,/GPIO29_ADC3*%
X137498529Y-6650000D02*
X142400000Y-6650000D01*
X133900003Y-7650000D02*
X134401471Y-7650000D01*
X134401471Y-7650000D02*
X136201471Y-5850000D01*
X136201471Y-5850000D02*
X136698529Y-5850000D01*
X136698529Y-5850000D02*
X137498529Y-6650000D01*
%TO.N,/GPIO24*%
X131650000Y-6050000D02*
X130000000Y-4400000D01*
X130000000Y-4400000D02*
X129450000Y-4400000D01*
%TO.N,Net-(U2-EN)*%
X132050735Y-3150735D02*
X133350000Y-4450000D01*
X132050735Y-3050735D02*
X132050735Y-3150735D01*
%TO.N,/GPIO23*%
X132250000Y-6750000D02*
X132250000Y-4200000D01*
X132250000Y-4200000D02*
X132250735Y-4199265D01*
%TO.N,Net-(U1-GPIO25)*%
X134250000Y-6900000D02*
X133550000Y-6900000D01*
X133100000Y-7350000D02*
X133100000Y-7650000D01*
X136800000Y-4350000D02*
X134250000Y-6900000D01*
X133550000Y-6900000D02*
X133100000Y-7350000D01*
X137900000Y-4350000D02*
X136800000Y-4350000D01*
%TO.N,COL0*%
X111500000Y-11100000D02*
X65000000Y-11100000D01*
X126450000Y-19750000D02*
X120150000Y-19750000D01*
X134497084Y-16400000D02*
X129800000Y-16400000D01*
X120150000Y-19750000D02*
X111500000Y-11100000D01*
X134893292Y-16796208D02*
X134497084Y-16400000D01*
X129800000Y-16400000D02*
X126450000Y-19750000D01*
%TO.N,COL1*%
X127584314Y-20150000D02*
X116800000Y-20150000D01*
X134896785Y-17648231D02*
X134372819Y-17124265D01*
X134372819Y-17124265D02*
X130610049Y-17124265D01*
X130610049Y-17124265D02*
X127584314Y-20150000D01*
X116800000Y-20150000D02*
X110550000Y-13900000D01*
%TO.N,COL2*%
X134903186Y-18448208D02*
X133253263Y-18448208D01*
X122250000Y-29451471D02*
X122250000Y-31350000D01*
X133253263Y-18448208D02*
X122250000Y-29451471D01*
%TO.N,COL3*%
X143200000Y-31750000D02*
X150000000Y-31750000D01*
X134797842Y-19241241D02*
X134797842Y-23347842D01*
X150000000Y-31750000D02*
X153400000Y-35150000D01*
X134797842Y-23347842D02*
X143200000Y-31750000D01*
%TO.N,GND*%
X130550000Y-7350000D02*
X129600000Y-6400000D01*
X133784314Y-6100000D02*
X132534314Y-7350000D01*
X132534314Y-7350000D02*
X130550000Y-7350000D01*
X133800000Y-6100000D02*
X133784314Y-6100000D01*
%TO.N,ENC1B*%
X131424265Y-17724265D02*
X130575735Y-17724265D01*
X130575735Y-17724265D02*
X124200000Y-24100000D01*
X124200000Y-24100000D02*
X16000000Y-24100000D01*
X16000000Y-24100000D02*
X9500000Y-17600000D01*
%TD*%
%TA.AperFunction,Conductor*%
%TO.N,GND*%
G36*
X7942540Y-13220185D02*
G01*
X7988295Y-13272989D01*
X7999501Y-13324500D01*
X7999501Y-13647876D01*
X8005908Y-13707483D01*
X8056202Y-13842328D01*
X8056206Y-13842335D01*
X8142452Y-13957544D01*
X8142455Y-13957547D01*
X8258986Y-14044783D01*
X8300857Y-14100717D01*
X8305841Y-14170408D01*
X8288484Y-14211870D01*
X8176267Y-14383631D01*
X8076412Y-14611282D01*
X8015387Y-14852261D01*
X8015385Y-14852270D01*
X7994859Y-15099994D01*
X7994859Y-15100005D01*
X8015385Y-15347729D01*
X8015387Y-15347738D01*
X8076412Y-15588717D01*
X8176266Y-15816364D01*
X8276564Y-15969882D01*
X9017037Y-15229408D01*
X9034075Y-15292993D01*
X9099901Y-15407007D01*
X9192993Y-15500099D01*
X9307007Y-15565925D01*
X9370590Y-15582962D01*
X8624100Y-16329450D01*
X8613482Y-16376148D01*
X8581376Y-16413556D01*
X8480255Y-16492262D01*
X8311833Y-16675217D01*
X8175826Y-16883393D01*
X8075936Y-17111118D01*
X8014892Y-17352175D01*
X8014890Y-17352187D01*
X7994357Y-17599994D01*
X7994357Y-17600005D01*
X8014890Y-17847812D01*
X8014892Y-17847824D01*
X8075936Y-18088881D01*
X8175826Y-18316606D01*
X8311833Y-18524782D01*
X8311836Y-18524785D01*
X8480256Y-18707738D01*
X8676491Y-18860474D01*
X8895190Y-18978828D01*
X9130386Y-19059571D01*
X9375665Y-19100500D01*
X9624335Y-19100500D01*
X9869608Y-19059572D01*
X9869607Y-19059572D01*
X9869614Y-19059571D01*
X9975607Y-19023182D01*
X10045402Y-19020033D01*
X10103548Y-19052783D01*
X15515139Y-24464374D01*
X15515149Y-24464385D01*
X15519479Y-24468715D01*
X15519480Y-24468716D01*
X15631284Y-24580520D01*
X15718095Y-24630639D01*
X15718097Y-24630641D01*
X15756151Y-24652611D01*
X15768215Y-24659577D01*
X15920943Y-24700500D01*
X16079057Y-24700500D01*
X124113331Y-24700500D01*
X124113347Y-24700501D01*
X124120943Y-24700501D01*
X124279054Y-24700501D01*
X124279057Y-24700501D01*
X124431785Y-24659577D01*
X124481904Y-24630639D01*
X124568716Y-24580520D01*
X124680520Y-24468716D01*
X124680520Y-24468714D01*
X124690728Y-24458507D01*
X124690729Y-24458504D01*
X130774180Y-18375054D01*
X130835501Y-18341571D01*
X130905193Y-18346555D01*
X130927831Y-18357743D01*
X131071809Y-18448211D01*
X131074743Y-18450054D01*
X131245010Y-18509633D01*
X131245015Y-18509634D01*
X131424261Y-18529830D01*
X131424265Y-18529830D01*
X131424269Y-18529830D01*
X131603514Y-18509634D01*
X131603517Y-18509633D01*
X131603520Y-18509633D01*
X131773787Y-18450054D01*
X131926527Y-18354081D01*
X132054081Y-18226527D01*
X132150054Y-18073787D01*
X132209633Y-17903520D01*
X132210469Y-17896106D01*
X132217367Y-17834882D01*
X132244433Y-17770468D01*
X132302028Y-17730913D01*
X132340587Y-17724765D01*
X132842528Y-17724765D01*
X132909567Y-17744450D01*
X132955322Y-17797254D01*
X132965266Y-17866412D01*
X132936241Y-17929968D01*
X132904528Y-17956151D01*
X132899321Y-17959157D01*
X132884547Y-17967687D01*
X132884545Y-17967689D01*
X131076555Y-19775678D01*
X131015232Y-19809163D01*
X130945540Y-19804179D01*
X130922902Y-19792991D01*
X130775994Y-19700682D01*
X130605725Y-19641102D01*
X130605720Y-19641101D01*
X130426475Y-19620906D01*
X130426467Y-19620906D01*
X130247221Y-19641101D01*
X130247216Y-19641102D01*
X130076947Y-19700682D01*
X129924208Y-19796655D01*
X129796655Y-19924208D01*
X129700681Y-20076949D01*
X129641101Y-20247221D01*
X129631308Y-20334139D01*
X129604241Y-20398553D01*
X129595769Y-20407936D01*
X122940526Y-27063181D01*
X122879203Y-27096666D01*
X122852845Y-27099500D01*
X9850098Y-27099500D01*
X9783059Y-27079815D01*
X9762417Y-27063181D01*
X4836819Y-22137583D01*
X4803334Y-22076260D01*
X4800500Y-22049902D01*
X4800500Y-15500097D01*
X4820185Y-15433058D01*
X4836819Y-15412416D01*
X7012416Y-13236819D01*
X7073739Y-13203334D01*
X7100097Y-13200500D01*
X7875501Y-13200500D01*
X7942540Y-13220185D01*
G37*
%TD.AperFunction*%
%TA.AperFunction,Conductor*%
G36*
X134166197Y-4819997D02*
G01*
X134220432Y-4834530D01*
X134220431Y-4834530D01*
X134233026Y-4837904D01*
X134280032Y-4850500D01*
X134280033Y-4850500D01*
X135150902Y-4850500D01*
X135217941Y-4870185D01*
X135263696Y-4922989D01*
X135273640Y-4992147D01*
X135244615Y-5055703D01*
X135238583Y-5062181D01*
X134037584Y-6263181D01*
X133976261Y-6296666D01*
X133949903Y-6299500D01*
X133470943Y-6299500D01*
X133318214Y-6340423D01*
X133285040Y-6359577D01*
X133285039Y-6359577D01*
X133181287Y-6419477D01*
X133181281Y-6419482D01*
X133172332Y-6428431D01*
X133111008Y-6461914D01*
X133041316Y-6456927D01*
X132985384Y-6415054D01*
X132979944Y-6406091D01*
X132979494Y-6406374D01*
X132912955Y-6300478D01*
X132879816Y-6247738D01*
X132879814Y-6247736D01*
X132879813Y-6247734D01*
X132877550Y-6244896D01*
X132876659Y-6242715D01*
X132876111Y-6241842D01*
X132876264Y-6241745D01*
X132851144Y-6180209D01*
X132850500Y-6167587D01*
X132850500Y-5298071D01*
X132870185Y-5231032D01*
X132922989Y-5185277D01*
X132992147Y-5175333D01*
X133015455Y-5181030D01*
X133170737Y-5235366D01*
X133170743Y-5235367D01*
X133170745Y-5235368D01*
X133170746Y-5235368D01*
X133170750Y-5235369D01*
X133349996Y-5255565D01*
X133350000Y-5255565D01*
X133350004Y-5255565D01*
X133529249Y-5235369D01*
X133529252Y-5235368D01*
X133529255Y-5235368D01*
X133699522Y-5175789D01*
X133852262Y-5079816D01*
X133979816Y-4952262D01*
X134029116Y-4873800D01*
X134081449Y-4827511D01*
X134150503Y-4816862D01*
X134166197Y-4819997D01*
G37*
%TD.AperFunction*%
%TA.AperFunction,Conductor*%
G36*
X197003736Y-500726D02*
G01*
X197293796Y-518271D01*
X197308659Y-520076D01*
X197590798Y-571780D01*
X197605335Y-575363D01*
X197879172Y-660695D01*
X197893163Y-666000D01*
X198154743Y-783727D01*
X198167989Y-790680D01*
X198413465Y-939075D01*
X198425776Y-947573D01*
X198619696Y-1099499D01*
X198651573Y-1124473D01*
X198662781Y-1134403D01*
X198865596Y-1337218D01*
X198875526Y-1348426D01*
X198884957Y-1360464D01*
X199044912Y-1564632D01*
X199052422Y-1574217D01*
X199060926Y-1586537D01*
X199162554Y-1754650D01*
X199209316Y-1832004D01*
X199216275Y-1845263D01*
X199333997Y-2106831D01*
X199339306Y-2120832D01*
X199424635Y-2394663D01*
X199428219Y-2409201D01*
X199479923Y-2691340D01*
X199481728Y-2706205D01*
X199499273Y-2996261D01*
X199499499Y-3003748D01*
X199499499Y-46971471D01*
X199498917Y-46983469D01*
X199441512Y-47573993D01*
X199440720Y-47580405D01*
X199350288Y-48182747D01*
X199349162Y-48189110D01*
X199227483Y-48785891D01*
X199226028Y-48792186D01*
X199073421Y-49381844D01*
X199071639Y-49388056D01*
X198888530Y-49968935D01*
X198886428Y-49975044D01*
X198673300Y-50545624D01*
X198670882Y-50551617D01*
X198428324Y-51110310D01*
X198425597Y-51116168D01*
X198154270Y-51661459D01*
X198151242Y-51667167D01*
X197859512Y-52184053D01*
X197853109Y-52194214D01*
X166351564Y-97196421D01*
X166342076Y-97207129D01*
X166342491Y-97207485D01*
X166337203Y-97213649D01*
X166306774Y-97260291D01*
X166304506Y-97263647D01*
X166286064Y-97289992D01*
X166285345Y-97291007D01*
X166059617Y-97606677D01*
X166053093Y-97615023D01*
X165786994Y-97926984D01*
X165779782Y-97934742D01*
X165488026Y-98222856D01*
X165480178Y-98229971D01*
X165164904Y-98492127D01*
X165156477Y-98498545D01*
X164819973Y-98732841D01*
X164811029Y-98738517D01*
X164455762Y-98943235D01*
X164446367Y-98948127D01*
X164074914Y-99121781D01*
X164065135Y-99125853D01*
X163680227Y-99267167D01*
X163670136Y-99270390D01*
X163274559Y-99378341D01*
X163264230Y-99380690D01*
X162860899Y-99454483D01*
X162850407Y-99455943D01*
X162442243Y-99495043D01*
X162431666Y-99495602D01*
X162044695Y-99499493D01*
X162043448Y-99499499D01*
X162010216Y-99499499D01*
X162006165Y-99499433D01*
X161996463Y-99499115D01*
X161950493Y-99497613D01*
X161950492Y-99497613D01*
X161950489Y-99497613D01*
X161942404Y-99498410D01*
X161942350Y-99497864D01*
X161928139Y-99499499D01*
X38071861Y-99499499D01*
X38057649Y-99497864D01*
X38057596Y-99498410D01*
X38049510Y-99497613D01*
X38049507Y-99497613D01*
X38006060Y-99499033D01*
X37993835Y-99499433D01*
X37989784Y-99499499D01*
X37957744Y-99499499D01*
X37956497Y-99499493D01*
X37568333Y-99495590D01*
X37557756Y-99495031D01*
X37149590Y-99455931D01*
X37139098Y-99454471D01*
X36735773Y-99380679D01*
X36725444Y-99378330D01*
X36329867Y-99270379D01*
X36319776Y-99267156D01*
X35934869Y-99125842D01*
X35925090Y-99121770D01*
X35553638Y-98948116D01*
X35544243Y-98943224D01*
X35508124Y-98922411D01*
X35188971Y-98738503D01*
X35180040Y-98732835D01*
X34843535Y-98498540D01*
X34835110Y-98492122D01*
X34519822Y-98229954D01*
X34511974Y-98222840D01*
X34220226Y-97934734D01*
X34213014Y-97926976D01*
X33946915Y-97615016D01*
X33940391Y-97606670D01*
X33713926Y-97289970D01*
X33713207Y-97288954D01*
X33695498Y-97263656D01*
X33693245Y-97260323D01*
X33662795Y-97213648D01*
X33662794Y-97213647D01*
X33657500Y-97207474D01*
X33657916Y-97207116D01*
X33648428Y-97196413D01*
X26780697Y-87385369D01*
X25048933Y-84911421D01*
X60794500Y-84911421D01*
X60794500Y-85088578D01*
X60822214Y-85263556D01*
X60876956Y-85432039D01*
X60876957Y-85432042D01*
X60957386Y-85589890D01*
X61061517Y-85733214D01*
X61186786Y-85858483D01*
X61330110Y-85962614D01*
X61398577Y-85997500D01*
X61487957Y-86043042D01*
X61487960Y-86043043D01*
X61566071Y-86068422D01*
X61656445Y-86097786D01*
X61831421Y-86125500D01*
X61831422Y-86125500D01*
X62008578Y-86125500D01*
X62008579Y-86125500D01*
X62183555Y-86097786D01*
X62352042Y-86043042D01*
X62509890Y-85962614D01*
X62653214Y-85858483D01*
X62778483Y-85733214D01*
X62882614Y-85589890D01*
X62963042Y-85432042D01*
X63017786Y-85263555D01*
X63045500Y-85088579D01*
X63045500Y-84911421D01*
X63036165Y-84852486D01*
X64749500Y-84852486D01*
X64749500Y-85147513D01*
X64764778Y-85263555D01*
X64788007Y-85439993D01*
X64864361Y-85724951D01*
X64864364Y-85724961D01*
X64977254Y-85997500D01*
X64977258Y-85997510D01*
X65124761Y-86252993D01*
X65304352Y-86487040D01*
X65304358Y-86487047D01*
X65512952Y-86695641D01*
X65512959Y-86695647D01*
X65747006Y-86875238D01*
X66002489Y-87022741D01*
X66002490Y-87022741D01*
X66002493Y-87022743D01*
X66275048Y-87135639D01*
X66560007Y-87211993D01*
X66852494Y-87250500D01*
X66852501Y-87250500D01*
X67147499Y-87250500D01*
X67147506Y-87250500D01*
X67439993Y-87211993D01*
X67724952Y-87135639D01*
X67997507Y-87022743D01*
X68252994Y-86875238D01*
X68487042Y-86695646D01*
X68695646Y-86487042D01*
X68875238Y-86252994D01*
X69022743Y-85997507D01*
X69135639Y-85724952D01*
X69211993Y-85439993D01*
X69250500Y-85147506D01*
X69250500Y-84911421D01*
X70954500Y-84911421D01*
X70954500Y-85088578D01*
X70982214Y-85263556D01*
X71036956Y-85432039D01*
X71036957Y-85432042D01*
X71117386Y-85589890D01*
X71221517Y-85733214D01*
X71346786Y-85858483D01*
X71490110Y-85962614D01*
X71558577Y-85997500D01*
X71647957Y-86043042D01*
X71647960Y-86043043D01*
X71726071Y-86068422D01*
X71816445Y-86097786D01*
X71991421Y-86125500D01*
X71991422Y-86125500D01*
X72168578Y-86125500D01*
X72168579Y-86125500D01*
X72343555Y-86097786D01*
X72512042Y-86043042D01*
X72669890Y-85962614D01*
X72813214Y-85858483D01*
X72938483Y-85733214D01*
X73042614Y-85589890D01*
X73123042Y-85432042D01*
X73177786Y-85263555D01*
X73205500Y-85088579D01*
X73205500Y-84911421D01*
X73177786Y-84736445D01*
X73123042Y-84567958D01*
X73123042Y-84567957D01*
X73042613Y-84410109D01*
X73012539Y-84368716D01*
X72938483Y-84266786D01*
X72813214Y-84141517D01*
X72669890Y-84037386D01*
X72512042Y-83956957D01*
X72512039Y-83956956D01*
X72343556Y-83902214D01*
X72256067Y-83888357D01*
X72168579Y-83874500D01*
X71991421Y-83874500D01*
X71933095Y-83883738D01*
X71816443Y-83902214D01*
X71647960Y-83956956D01*
X71647957Y-83956957D01*
X71490109Y-84037386D01*
X71432759Y-84079054D01*
X71346786Y-84141517D01*
X71346784Y-84141519D01*
X71346783Y-84141519D01*
X71221519Y-84266783D01*
X71221519Y-84266784D01*
X71221517Y-84266786D01*
X71176796Y-84328338D01*
X71117386Y-84410109D01*
X71036957Y-84567957D01*
X71036956Y-84567960D01*
X70982214Y-84736443D01*
X70954500Y-84911421D01*
X69250500Y-84911421D01*
X69250500Y-84852494D01*
X69211993Y-84560007D01*
X69135639Y-84275048D01*
X69134615Y-84272577D01*
X69080329Y-84141519D01*
X69022743Y-84002493D01*
X68996453Y-83956958D01*
X68875238Y-83747006D01*
X68695647Y-83512959D01*
X68695641Y-83512952D01*
X68487047Y-83304358D01*
X68487040Y-83304352D01*
X68252993Y-83124761D01*
X67997510Y-82977258D01*
X67997500Y-82977254D01*
X67724961Y-82864364D01*
X67724954Y-82864362D01*
X67724952Y-82864361D01*
X67439993Y-82788007D01*
X67391113Y-82781571D01*
X67147513Y-82749500D01*
X67147506Y-82749500D01*
X66852494Y-82749500D01*
X66852486Y-82749500D01*
X66574085Y-82786153D01*
X66560007Y-82788007D01*
X66275048Y-82864361D01*
X66275038Y-82864364D01*
X66002499Y-82977254D01*
X66002489Y-82977258D01*
X65747006Y-83124761D01*
X65512959Y-83304352D01*
X65512952Y-83304358D01*
X65304358Y-83512952D01*
X65304352Y-83512959D01*
X65124761Y-83747006D01*
X64977258Y-84002489D01*
X64977254Y-84002499D01*
X64864364Y-84275038D01*
X64864361Y-84275048D01*
X64828172Y-84410110D01*
X64788008Y-84560004D01*
X64788006Y-84560015D01*
X64749500Y-84852486D01*
X63036165Y-84852486D01*
X63017786Y-84736445D01*
X62963042Y-84567958D01*
X62963040Y-84567952D01*
X62880513Y-84405987D01*
X62867616Y-84337317D01*
X62893892Y-84272577D01*
X62950998Y-84232319D01*
X63007181Y-84226752D01*
X63066564Y-84234570D01*
X63073612Y-84235498D01*
X63073628Y-84235500D01*
X63073635Y-84235500D01*
X63306365Y-84235500D01*
X63306372Y-84235500D01*
X63537126Y-84205121D01*
X63761940Y-84144882D01*
X63819953Y-84120852D01*
X63976960Y-84055819D01*
X63976963Y-84055817D01*
X63976969Y-84055815D01*
X64178532Y-83939442D01*
X64363181Y-83797756D01*
X64527756Y-83633181D01*
X64669442Y-83448532D01*
X64785815Y-83246969D01*
X64874882Y-83031940D01*
X64935121Y-82807126D01*
X64965500Y-82576372D01*
X64965500Y-82343628D01*
X64935121Y-82112874D01*
X64874882Y-81888060D01*
X64874879Y-81888052D01*
X64785819Y-81673039D01*
X64785811Y-81673023D01*
X64669446Y-81471475D01*
X64669442Y-81471468D01*
X64527756Y-81286819D01*
X64527751Y-81286813D01*
X64363186Y-81122248D01*
X64363179Y-81122242D01*
X64178540Y-80980564D01*
X64178538Y-80980562D01*
X64178532Y-80980558D01*
X64178527Y-80980555D01*
X64178524Y-80980553D01*
X63976976Y-80864188D01*
X63976960Y-80864180D01*
X63761947Y-80775120D01*
X63537122Y-80714878D01*
X63306382Y-80684501D01*
X63306377Y-80684500D01*
X63306372Y-80684500D01*
X63073628Y-80684500D01*
X63073622Y-80684500D01*
X63073617Y-80684501D01*
X62842877Y-80714878D01*
X62618052Y-80775120D01*
X62403039Y-80864180D01*
X62403023Y-80864188D01*
X62201475Y-80980553D01*
X62201459Y-80980564D01*
X62016820Y-81122242D01*
X62016813Y-81122248D01*
X61852248Y-81286813D01*
X61852242Y-81286820D01*
X61710564Y-81471459D01*
X61710553Y-81471475D01*
X61594188Y-81673023D01*
X61594180Y-81673039D01*
X61505120Y-81888052D01*
X61444878Y-82112877D01*
X61414501Y-82343617D01*
X61414500Y-82343634D01*
X61414500Y-82576365D01*
X61414501Y-82576382D01*
X61444878Y-82807122D01*
X61505120Y-83031947D01*
X61594180Y-83246960D01*
X61594188Y-83246976D01*
X61710553Y-83448524D01*
X61710564Y-83448540D01*
X61852242Y-83633179D01*
X61852248Y-83633186D01*
X61885636Y-83666574D01*
X61919121Y-83727897D01*
X61914137Y-83797589D01*
X61872265Y-83853522D01*
X61817353Y-83876728D01*
X61656443Y-83902214D01*
X61487960Y-83956956D01*
X61487957Y-83956957D01*
X61330109Y-84037386D01*
X61272759Y-84079054D01*
X61186786Y-84141517D01*
X61186784Y-84141519D01*
X61186783Y-84141519D01*
X61061519Y-84266783D01*
X61061519Y-84266784D01*
X61061517Y-84266786D01*
X61016796Y-84328338D01*
X60957386Y-84410109D01*
X60876957Y-84567957D01*
X60876956Y-84567960D01*
X60822214Y-84736443D01*
X60794500Y-84911421D01*
X25048933Y-84911421D01*
X21473482Y-79803634D01*
X67764500Y-79803634D01*
X67764500Y-80036365D01*
X67764501Y-80036382D01*
X67794878Y-80267122D01*
X67855120Y-80491947D01*
X67944180Y-80706960D01*
X67944188Y-80706976D01*
X68060553Y-80908524D01*
X68060564Y-80908540D01*
X68202242Y-81093179D01*
X68202248Y-81093186D01*
X68366813Y-81257751D01*
X68366820Y-81257757D01*
X68404696Y-81286820D01*
X68551468Y-81399442D01*
X68551475Y-81399446D01*
X68753023Y-81515811D01*
X68753039Y-81515819D01*
X68968052Y-81604879D01*
X68968054Y-81604879D01*
X68968060Y-81604882D01*
X69192874Y-81665121D01*
X69423628Y-81695500D01*
X69423635Y-81695500D01*
X69656365Y-81695500D01*
X69656372Y-81695500D01*
X69887126Y-81665121D01*
X70111940Y-81604882D01*
X70169953Y-81580852D01*
X70326960Y-81515819D01*
X70326963Y-81515817D01*
X70326969Y-81515815D01*
X70528532Y-81399442D01*
X70713181Y-81257756D01*
X70877756Y-81093181D01*
X71019442Y-80908532D01*
X71135815Y-80706969D01*
X71145122Y-80684501D01*
X71224879Y-80491947D01*
X71224878Y-80491947D01*
X71224882Y-80491940D01*
X71285121Y-80267126D01*
X71315500Y-80036372D01*
X71315500Y-79803628D01*
X71285121Y-79572874D01*
X71224882Y-79348060D01*
X71224879Y-79348052D01*
X71135819Y-79133039D01*
X71135811Y-79133023D01*
X71019446Y-78931475D01*
X71019442Y-78931468D01*
X70877756Y-78746819D01*
X70877751Y-78746813D01*
X70713186Y-78582248D01*
X70713179Y-78582242D01*
X70528540Y-78440564D01*
X70528538Y-78440562D01*
X70528532Y-78440558D01*
X70528527Y-78440555D01*
X70528524Y-78440553D01*
X70326976Y-78324188D01*
X70326960Y-78324180D01*
X70111947Y-78235120D01*
X69887122Y-78174878D01*
X69656382Y-78144501D01*
X69656377Y-78144500D01*
X69656372Y-78144500D01*
X69423628Y-78144500D01*
X69423622Y-78144500D01*
X69423617Y-78144501D01*
X69192877Y-78174878D01*
X68968052Y-78235120D01*
X68753039Y-78324180D01*
X68753023Y-78324188D01*
X68551475Y-78440553D01*
X68551459Y-78440564D01*
X68366820Y-78582242D01*
X68366813Y-78582248D01*
X68202248Y-78746813D01*
X68202242Y-78746820D01*
X68060564Y-78931459D01*
X68060553Y-78931475D01*
X67944188Y-79133023D01*
X67944180Y-79133039D01*
X67855120Y-79348052D01*
X67794878Y-79572877D01*
X67764501Y-79803617D01*
X67764500Y-79803634D01*
X21473482Y-79803634D01*
X2146773Y-52194047D01*
X2140370Y-52183886D01*
X1848742Y-51667175D01*
X1845714Y-51661467D01*
X1574386Y-51116176D01*
X1571659Y-51110318D01*
X1329098Y-50551617D01*
X1326680Y-50545625D01*
X1116131Y-49981950D01*
X1113549Y-49975038D01*
X1111454Y-49968947D01*
X928345Y-49388065D01*
X926563Y-49381854D01*
X773952Y-48792187D01*
X772497Y-48785891D01*
X752772Y-48689149D01*
X650816Y-48189099D01*
X649693Y-48182750D01*
X626976Y-48031435D01*
X559259Y-47580391D01*
X558470Y-47573997D01*
X549260Y-47479254D01*
X531834Y-47299996D01*
X59544435Y-47299996D01*
X59544435Y-47300003D01*
X59564630Y-47479249D01*
X59564631Y-47479254D01*
X59624211Y-47649523D01*
X59720184Y-47802262D01*
X59847738Y-47929816D01*
X60000478Y-48025789D01*
X60170745Y-48085368D01*
X60170750Y-48085369D01*
X60349996Y-48105565D01*
X60350000Y-48105565D01*
X60350004Y-48105565D01*
X60529249Y-48085369D01*
X60529252Y-48085368D01*
X60529255Y-48085368D01*
X60699522Y-48025789D01*
X60852262Y-47929816D01*
X60979816Y-47802262D01*
X61075789Y-47649522D01*
X61135368Y-47479255D01*
X61145161Y-47392329D01*
X61172226Y-47327918D01*
X61180690Y-47318543D01*
X62412416Y-46086819D01*
X62473739Y-46053334D01*
X62500097Y-46050500D01*
X72917588Y-46050500D01*
X72984627Y-46070185D01*
X72994903Y-46077555D01*
X72997736Y-46079814D01*
X72997738Y-46079816D01*
X73150478Y-46175789D01*
X73320745Y-46235368D01*
X73320750Y-46235369D01*
X73499996Y-46255565D01*
X73500000Y-46255565D01*
X73500004Y-46255565D01*
X73679249Y-46235369D01*
X73679252Y-46235368D01*
X73679255Y-46235368D01*
X73849522Y-46175789D01*
X74002262Y-46079816D01*
X74129816Y-45952262D01*
X74225789Y-45799522D01*
X74285368Y-45629255D01*
X74305565Y-45450000D01*
X74285368Y-45270745D01*
X74225789Y-45100478D01*
X74129816Y-44947738D01*
X74002262Y-44820184D01*
X73849523Y-44724211D01*
X73679254Y-44664631D01*
X73679249Y-44664630D01*
X73500004Y-44644435D01*
X73499996Y-44644435D01*
X73320750Y-44664630D01*
X73320745Y-44664631D01*
X73150476Y-44724211D01*
X72997736Y-44820185D01*
X72994903Y-44822445D01*
X72992724Y-44823334D01*
X72991842Y-44823889D01*
X72991744Y-44823734D01*
X72930217Y-44848855D01*
X72917588Y-44849500D01*
X62279057Y-44849500D01*
X62120943Y-44849500D01*
X61968215Y-44890423D01*
X61968214Y-44890423D01*
X61968212Y-44890424D01*
X61968209Y-44890425D01*
X61933066Y-44910716D01*
X61933064Y-44910717D01*
X61831290Y-44969475D01*
X61831282Y-44969481D01*
X61719478Y-45081286D01*
X60331465Y-46469298D01*
X60270142Y-46502783D01*
X60257668Y-46504837D01*
X60170750Y-46514630D01*
X60000478Y-46574210D01*
X59847737Y-46670184D01*
X59720184Y-46797737D01*
X59624211Y-46950476D01*
X59564631Y-47120745D01*
X59564630Y-47120750D01*
X59544435Y-47299996D01*
X531834Y-47299996D01*
X501081Y-46983644D01*
X500500Y-46971685D01*
X500500Y-42911421D01*
X44294500Y-42911421D01*
X44294500Y-43088578D01*
X44322214Y-43263556D01*
X44376956Y-43432039D01*
X44376957Y-43432042D01*
X44457386Y-43589890D01*
X44561517Y-43733214D01*
X44686786Y-43858483D01*
X44830110Y-43962614D01*
X44898577Y-43997500D01*
X44987957Y-44043042D01*
X44987960Y-44043043D01*
X45072201Y-44070414D01*
X45156445Y-44097786D01*
X45331421Y-44125500D01*
X45331422Y-44125500D01*
X45508578Y-44125500D01*
X45508579Y-44125500D01*
X45683555Y-44097786D01*
X45852042Y-44043042D01*
X46009890Y-43962614D01*
X46153214Y-43858483D01*
X46278483Y-43733214D01*
X46382614Y-43589890D01*
X46463042Y-43432042D01*
X46517786Y-43263555D01*
X46545500Y-43088579D01*
X46545500Y-42911421D01*
X46536165Y-42852486D01*
X48249500Y-42852486D01*
X48249500Y-43147513D01*
X48264778Y-43263555D01*
X48288007Y-43439993D01*
X48364361Y-43724951D01*
X48364364Y-43724961D01*
X48477254Y-43997500D01*
X48477258Y-43997510D01*
X48624761Y-44252993D01*
X48804352Y-44487040D01*
X48804358Y-44487047D01*
X49012952Y-44695641D01*
X49012959Y-44695647D01*
X49247006Y-44875238D01*
X49502489Y-45022741D01*
X49502490Y-45022741D01*
X49502493Y-45022743D01*
X49775048Y-45135639D01*
X50060007Y-45211993D01*
X50352494Y-45250500D01*
X50352501Y-45250500D01*
X50647499Y-45250500D01*
X50647506Y-45250500D01*
X50939993Y-45211993D01*
X51224952Y-45135639D01*
X51497507Y-45022743D01*
X51752994Y-44875238D01*
X51987042Y-44695646D01*
X52195646Y-44487042D01*
X52375238Y-44252994D01*
X52522743Y-43997507D01*
X52635639Y-43724952D01*
X52711993Y-43439993D01*
X52750500Y-43147506D01*
X52750500Y-42911421D01*
X54454500Y-42911421D01*
X54454500Y-43088578D01*
X54482214Y-43263556D01*
X54536956Y-43432039D01*
X54536957Y-43432042D01*
X54617386Y-43589890D01*
X54721517Y-43733214D01*
X54846786Y-43858483D01*
X54990110Y-43962614D01*
X55058577Y-43997500D01*
X55147957Y-44043042D01*
X55147960Y-44043043D01*
X55232201Y-44070414D01*
X55316445Y-44097786D01*
X55491421Y-44125500D01*
X55491422Y-44125500D01*
X55668578Y-44125500D01*
X55668579Y-44125500D01*
X55843555Y-44097786D01*
X56012042Y-44043042D01*
X56169890Y-43962614D01*
X56313214Y-43858483D01*
X56438483Y-43733214D01*
X56542614Y-43589890D01*
X56623042Y-43432042D01*
X56677786Y-43263555D01*
X56705500Y-43088579D01*
X56705500Y-42911421D01*
X77294500Y-42911421D01*
X77294500Y-43088578D01*
X77322214Y-43263556D01*
X77376956Y-43432039D01*
X77376957Y-43432042D01*
X77457386Y-43589890D01*
X77561517Y-43733214D01*
X77686786Y-43858483D01*
X77830110Y-43962614D01*
X77898577Y-43997500D01*
X77987957Y-44043042D01*
X77987960Y-44043043D01*
X78072201Y-44070414D01*
X78156445Y-44097786D01*
X78331421Y-44125500D01*
X78331422Y-44125500D01*
X78508578Y-44125500D01*
X78508579Y-44125500D01*
X78683555Y-44097786D01*
X78852042Y-44043042D01*
X79009890Y-43962614D01*
X79153214Y-43858483D01*
X79278483Y-43733214D01*
X79382614Y-43589890D01*
X79463042Y-43432042D01*
X79517786Y-43263555D01*
X79545500Y-43088579D01*
X79545500Y-42911421D01*
X79536165Y-42852486D01*
X81249500Y-42852486D01*
X81249500Y-43147513D01*
X81264778Y-43263555D01*
X81288007Y-43439993D01*
X81364361Y-43724951D01*
X81364364Y-43724961D01*
X81477254Y-43997500D01*
X81477258Y-43997510D01*
X81624761Y-44252993D01*
X81804352Y-44487040D01*
X81804358Y-44487047D01*
X82012952Y-44695641D01*
X82012959Y-44695647D01*
X82247006Y-44875238D01*
X82502489Y-45022741D01*
X82502490Y-45022741D01*
X82502493Y-45022743D01*
X82775048Y-45135639D01*
X83060007Y-45211993D01*
X83352494Y-45250500D01*
X83352501Y-45250500D01*
X83647499Y-45250500D01*
X83647506Y-45250500D01*
X83939993Y-45211993D01*
X84224952Y-45135639D01*
X84497507Y-45022743D01*
X84752994Y-44875238D01*
X84987042Y-44695646D01*
X85195646Y-44487042D01*
X85375238Y-44252994D01*
X85522743Y-43997507D01*
X85635639Y-43724952D01*
X85711993Y-43439993D01*
X85750500Y-43147506D01*
X85750500Y-42911421D01*
X87454500Y-42911421D01*
X87454500Y-43088578D01*
X87482214Y-43263556D01*
X87536956Y-43432039D01*
X87536957Y-43432042D01*
X87617386Y-43589890D01*
X87721517Y-43733214D01*
X87846786Y-43858483D01*
X87990110Y-43962614D01*
X88058577Y-43997500D01*
X88147957Y-44043042D01*
X88147960Y-44043043D01*
X88232201Y-44070414D01*
X88316445Y-44097786D01*
X88491421Y-44125500D01*
X88491422Y-44125500D01*
X88668578Y-44125500D01*
X88668579Y-44125500D01*
X88843555Y-44097786D01*
X89012042Y-44043042D01*
X89169890Y-43962614D01*
X89313214Y-43858483D01*
X89438483Y-43733214D01*
X89542614Y-43589890D01*
X89623042Y-43432042D01*
X89677786Y-43263555D01*
X89705500Y-43088579D01*
X89705500Y-42911421D01*
X89677786Y-42736445D01*
X89623042Y-42567958D01*
X89623042Y-42567957D01*
X89542613Y-42410109D01*
X89539618Y-42405987D01*
X89438483Y-42266786D01*
X89313214Y-42141517D01*
X89169890Y-42037386D01*
X89012042Y-41956957D01*
X89012039Y-41956956D01*
X88843556Y-41902214D01*
X88756067Y-41888357D01*
X88668579Y-41874500D01*
X88491421Y-41874500D01*
X88433095Y-41883738D01*
X88316443Y-41902214D01*
X88147960Y-41956956D01*
X88147957Y-41956957D01*
X87990109Y-42037386D01*
X87908338Y-42096796D01*
X87846786Y-42141517D01*
X87846784Y-42141519D01*
X87846783Y-42141519D01*
X87721519Y-42266783D01*
X87721519Y-42266784D01*
X87721517Y-42266786D01*
X87676796Y-42328338D01*
X87617386Y-42410109D01*
X87536957Y-42567957D01*
X87536956Y-42567960D01*
X87482214Y-42736443D01*
X87454500Y-42911421D01*
X85750500Y-42911421D01*
X85750500Y-42852494D01*
X85711993Y-42560007D01*
X85635639Y-42275048D01*
X85634615Y-42272577D01*
X85580329Y-42141519D01*
X85522743Y-42002493D01*
X85496453Y-41956958D01*
X85375238Y-41747006D01*
X85195647Y-41512959D01*
X85195641Y-41512952D01*
X84987047Y-41304358D01*
X84987040Y-41304352D01*
X84752993Y-41124761D01*
X84497510Y-40977258D01*
X84497500Y-40977254D01*
X84224961Y-40864364D01*
X84224954Y-40864362D01*
X84224952Y-40864361D01*
X83939993Y-40788007D01*
X83891113Y-40781571D01*
X83647513Y-40749500D01*
X83647506Y-40749500D01*
X83352494Y-40749500D01*
X83352486Y-40749500D01*
X83074085Y-40786153D01*
X83060007Y-40788007D01*
X82775048Y-40864361D01*
X82775038Y-40864364D01*
X82502499Y-40977254D01*
X82502489Y-40977258D01*
X82247006Y-41124761D01*
X82012959Y-41304352D01*
X82012952Y-41304358D01*
X81804358Y-41512952D01*
X81804352Y-41512959D01*
X81624761Y-41747006D01*
X81477258Y-42002489D01*
X81477254Y-42002499D01*
X81364364Y-42275038D01*
X81364361Y-42275048D01*
X81328172Y-42410110D01*
X81288008Y-42560004D01*
X81288006Y-42560015D01*
X81249500Y-42852486D01*
X79536165Y-42852486D01*
X79517786Y-42736445D01*
X79463042Y-42567958D01*
X79463040Y-42567952D01*
X79380513Y-42405987D01*
X79367616Y-42337317D01*
X79393892Y-42272577D01*
X79450998Y-42232319D01*
X79507181Y-42226752D01*
X79566564Y-42234570D01*
X79573612Y-42235498D01*
X79573628Y-42235500D01*
X79573635Y-42235500D01*
X79806365Y-42235500D01*
X79806372Y-42235500D01*
X80037126Y-42205121D01*
X80261940Y-42144882D01*
X80319953Y-42120852D01*
X80476960Y-42055819D01*
X80476963Y-42055817D01*
X80476969Y-42055815D01*
X80678532Y-41939442D01*
X80863181Y-41797756D01*
X81027756Y-41633181D01*
X81169442Y-41448532D01*
X81285815Y-41246969D01*
X81374882Y-41031940D01*
X81435121Y-40807126D01*
X81465500Y-40576372D01*
X81465500Y-40343628D01*
X81435121Y-40112874D01*
X81374882Y-39888060D01*
X81374879Y-39888052D01*
X81285819Y-39673039D01*
X81285811Y-39673023D01*
X81169446Y-39471475D01*
X81169442Y-39471468D01*
X81027756Y-39286819D01*
X81027751Y-39286813D01*
X80863186Y-39122248D01*
X80863179Y-39122242D01*
X80678540Y-38980564D01*
X80678538Y-38980562D01*
X80678532Y-38980558D01*
X80678527Y-38980555D01*
X80678524Y-38980553D01*
X80476976Y-38864188D01*
X80476960Y-38864180D01*
X80261947Y-38775120D01*
X80037122Y-38714878D01*
X79806382Y-38684501D01*
X79806377Y-38684500D01*
X79806372Y-38684500D01*
X79573628Y-38684500D01*
X79573622Y-38684500D01*
X79573617Y-38684501D01*
X79342877Y-38714878D01*
X79118052Y-38775120D01*
X78903039Y-38864180D01*
X78903023Y-38864188D01*
X78701475Y-38980553D01*
X78701459Y-38980564D01*
X78516820Y-39122242D01*
X78516813Y-39122248D01*
X78352248Y-39286813D01*
X78352242Y-39286820D01*
X78210564Y-39471459D01*
X78210553Y-39471475D01*
X78094188Y-39673023D01*
X78094180Y-39673039D01*
X78005120Y-39888052D01*
X77944878Y-40112877D01*
X77914501Y-40343617D01*
X77914500Y-40343634D01*
X77914500Y-40576365D01*
X77914501Y-40576382D01*
X77942361Y-40788006D01*
X77944879Y-40807126D01*
X77977550Y-40929057D01*
X78005120Y-41031947D01*
X78094180Y-41246960D01*
X78094188Y-41246976D01*
X78210553Y-41448524D01*
X78210564Y-41448540D01*
X78352242Y-41633179D01*
X78352248Y-41633186D01*
X78385636Y-41666574D01*
X78419121Y-41727897D01*
X78414137Y-41797589D01*
X78372265Y-41853522D01*
X78317353Y-41876728D01*
X78156443Y-41902214D01*
X77987960Y-41956956D01*
X77987957Y-41956957D01*
X77830109Y-42037386D01*
X77748338Y-42096796D01*
X77686786Y-42141517D01*
X77686784Y-42141519D01*
X77686783Y-42141519D01*
X77561519Y-42266783D01*
X77561519Y-42266784D01*
X77561517Y-42266786D01*
X77516796Y-42328338D01*
X77457386Y-42410109D01*
X77376957Y-42567957D01*
X77376956Y-42567960D01*
X77322214Y-42736443D01*
X77294500Y-42911421D01*
X56705500Y-42911421D01*
X56677786Y-42736445D01*
X56623042Y-42567958D01*
X56623042Y-42567957D01*
X56542613Y-42410109D01*
X56539618Y-42405987D01*
X56438483Y-42266786D01*
X56313214Y-42141517D01*
X56169890Y-42037386D01*
X56012042Y-41956957D01*
X56012039Y-41956956D01*
X55843556Y-41902214D01*
X55756067Y-41888357D01*
X55668579Y-41874500D01*
X55491421Y-41874500D01*
X55433095Y-41883738D01*
X55316443Y-41902214D01*
X55147960Y-41956956D01*
X55147957Y-41956957D01*
X54990109Y-42037386D01*
X54908338Y-42096796D01*
X54846786Y-42141517D01*
X54846784Y-42141519D01*
X54846783Y-42141519D01*
X54721519Y-42266783D01*
X54721519Y-42266784D01*
X54721517Y-42266786D01*
X54676796Y-42328338D01*
X54617386Y-42410109D01*
X54536957Y-42567957D01*
X54536956Y-42567960D01*
X54482214Y-42736443D01*
X54454500Y-42911421D01*
X52750500Y-42911421D01*
X52750500Y-42852494D01*
X52711993Y-42560007D01*
X52635639Y-42275048D01*
X52634615Y-42272577D01*
X52580329Y-42141519D01*
X52522743Y-42002493D01*
X52496453Y-41956958D01*
X52375238Y-41747006D01*
X52195647Y-41512959D01*
X52195641Y-41512952D01*
X51987047Y-41304358D01*
X51987040Y-41304352D01*
X51752993Y-41124761D01*
X51497510Y-40977258D01*
X51497500Y-40977254D01*
X51224961Y-40864364D01*
X51224954Y-40864362D01*
X51224952Y-40864361D01*
X50939993Y-40788007D01*
X50891113Y-40781571D01*
X50647513Y-40749500D01*
X50647506Y-40749500D01*
X50352494Y-40749500D01*
X50352486Y-40749500D01*
X50074085Y-40786153D01*
X50060007Y-40788007D01*
X49775048Y-40864361D01*
X49775038Y-40864364D01*
X49502499Y-40977254D01*
X49502489Y-40977258D01*
X49247006Y-41124761D01*
X49012959Y-41304352D01*
X49012952Y-41304358D01*
X48804358Y-41512952D01*
X48804352Y-41512959D01*
X48624761Y-41747006D01*
X48477258Y-42002489D01*
X48477254Y-42002499D01*
X48364364Y-42275038D01*
X48364361Y-42275048D01*
X48328172Y-42410110D01*
X48288008Y-42560004D01*
X48288006Y-42560015D01*
X48249500Y-42852486D01*
X46536165Y-42852486D01*
X46517786Y-42736445D01*
X46463042Y-42567958D01*
X46463040Y-42567952D01*
X46380513Y-42405987D01*
X46367616Y-42337317D01*
X46393892Y-42272577D01*
X46450998Y-42232319D01*
X46507181Y-42226752D01*
X46566564Y-42234570D01*
X46573612Y-42235498D01*
X46573628Y-42235500D01*
X46573635Y-42235500D01*
X46806365Y-42235500D01*
X46806372Y-42235500D01*
X47037126Y-42205121D01*
X47261940Y-42144882D01*
X47319953Y-42120852D01*
X47476960Y-42055819D01*
X47476963Y-42055817D01*
X47476969Y-42055815D01*
X47678532Y-41939442D01*
X47863181Y-41797756D01*
X48027756Y-41633181D01*
X48169442Y-41448532D01*
X48285815Y-41246969D01*
X48374882Y-41031940D01*
X48435121Y-40807126D01*
X48465500Y-40576372D01*
X48465500Y-40343628D01*
X48435121Y-40112874D01*
X48374882Y-39888060D01*
X48374879Y-39888052D01*
X48285819Y-39673039D01*
X48285811Y-39673023D01*
X48169446Y-39471475D01*
X48169442Y-39471468D01*
X48027756Y-39286819D01*
X48027751Y-39286813D01*
X47863186Y-39122248D01*
X47863179Y-39122242D01*
X47678540Y-38980564D01*
X47678538Y-38980562D01*
X47678532Y-38980558D01*
X47678527Y-38980555D01*
X47678524Y-38980553D01*
X47476976Y-38864188D01*
X47476960Y-38864180D01*
X47261947Y-38775120D01*
X47037122Y-38714878D01*
X46806382Y-38684501D01*
X46806377Y-38684500D01*
X46806372Y-38684500D01*
X46573628Y-38684500D01*
X46573622Y-38684500D01*
X46573617Y-38684501D01*
X46342877Y-38714878D01*
X46118052Y-38775120D01*
X45903039Y-38864180D01*
X45903023Y-38864188D01*
X45701475Y-38980553D01*
X45701459Y-38980564D01*
X45516820Y-39122242D01*
X45516813Y-39122248D01*
X45352248Y-39286813D01*
X45352242Y-39286820D01*
X45210564Y-39471459D01*
X45210553Y-39471475D01*
X45094188Y-39673023D01*
X45094180Y-39673039D01*
X45005120Y-39888052D01*
X44944878Y-40112877D01*
X44914501Y-40343617D01*
X44914500Y-40343634D01*
X44914500Y-40576365D01*
X44914501Y-40576382D01*
X44942361Y-40788006D01*
X44944879Y-40807126D01*
X44977550Y-40929057D01*
X45005120Y-41031947D01*
X45094180Y-41246960D01*
X45094188Y-41246976D01*
X45210553Y-41448524D01*
X45210564Y-41448540D01*
X45352242Y-41633179D01*
X45352248Y-41633186D01*
X45385636Y-41666574D01*
X45419121Y-41727897D01*
X45414137Y-41797589D01*
X45372265Y-41853522D01*
X45317353Y-41876728D01*
X45156443Y-41902214D01*
X44987960Y-41956956D01*
X44987957Y-41956957D01*
X44830109Y-42037386D01*
X44748338Y-42096796D01*
X44686786Y-42141517D01*
X44686784Y-42141519D01*
X44686783Y-42141519D01*
X44561519Y-42266783D01*
X44561519Y-42266784D01*
X44561517Y-42266786D01*
X44516796Y-42328338D01*
X44457386Y-42410109D01*
X44376957Y-42567957D01*
X44376956Y-42567960D01*
X44322214Y-42736443D01*
X44294500Y-42911421D01*
X500500Y-42911421D01*
X500500Y-37803634D01*
X51264500Y-37803634D01*
X51264500Y-38036365D01*
X51264501Y-38036382D01*
X51294878Y-38267122D01*
X51355120Y-38491947D01*
X51444180Y-38706960D01*
X51444188Y-38706976D01*
X51560553Y-38908524D01*
X51560564Y-38908540D01*
X51702242Y-39093179D01*
X51702248Y-39093186D01*
X51866813Y-39257751D01*
X51866820Y-39257757D01*
X51904696Y-39286820D01*
X52051468Y-39399442D01*
X52051475Y-39399446D01*
X52253023Y-39515811D01*
X52253039Y-39515819D01*
X52468052Y-39604879D01*
X52468054Y-39604879D01*
X52468060Y-39604882D01*
X52692874Y-39665121D01*
X52923628Y-39695500D01*
X52923635Y-39695500D01*
X53156365Y-39695500D01*
X53156372Y-39695500D01*
X53387126Y-39665121D01*
X53611940Y-39604882D01*
X53669953Y-39580852D01*
X53826960Y-39515819D01*
X53826963Y-39515817D01*
X53826969Y-39515815D01*
X54028532Y-39399442D01*
X54213181Y-39257756D01*
X54377756Y-39093181D01*
X54519442Y-38908532D01*
X54635815Y-38706969D01*
X54645122Y-38684501D01*
X54724879Y-38491947D01*
X54724878Y-38491947D01*
X54724882Y-38491940D01*
X54785121Y-38267126D01*
X54815500Y-38036372D01*
X54815500Y-37803634D01*
X84264500Y-37803634D01*
X84264500Y-38036365D01*
X84264501Y-38036382D01*
X84294878Y-38267122D01*
X84355120Y-38491947D01*
X84444180Y-38706960D01*
X84444188Y-38706976D01*
X84560553Y-38908524D01*
X84560564Y-38908540D01*
X84702242Y-39093179D01*
X84702248Y-39093186D01*
X84866813Y-39257751D01*
X84866820Y-39257757D01*
X84904696Y-39286820D01*
X85051468Y-39399442D01*
X85051475Y-39399446D01*
X85253023Y-39515811D01*
X85253039Y-39515819D01*
X85468052Y-39604879D01*
X85468054Y-39604879D01*
X85468060Y-39604882D01*
X85692874Y-39665121D01*
X85923628Y-39695500D01*
X85923635Y-39695500D01*
X86156365Y-39695500D01*
X86156372Y-39695500D01*
X86387126Y-39665121D01*
X86611940Y-39604882D01*
X86669953Y-39580852D01*
X86826960Y-39515819D01*
X86826963Y-39515817D01*
X86826969Y-39515815D01*
X87028532Y-39399442D01*
X87213181Y-39257756D01*
X87377756Y-39093181D01*
X87519442Y-38908532D01*
X87635815Y-38706969D01*
X87645122Y-38684501D01*
X87724879Y-38491947D01*
X87724878Y-38491947D01*
X87724882Y-38491940D01*
X87785121Y-38267126D01*
X87815500Y-38036372D01*
X87815500Y-37803628D01*
X87785121Y-37572874D01*
X87724882Y-37348060D01*
X87700937Y-37290251D01*
X87635819Y-37133039D01*
X87635811Y-37133023D01*
X87519446Y-36931475D01*
X87519442Y-36931468D01*
X87377756Y-36746819D01*
X87377751Y-36746813D01*
X87213186Y-36582248D01*
X87213179Y-36582242D01*
X87028540Y-36440564D01*
X87028538Y-36440562D01*
X87028532Y-36440558D01*
X87028527Y-36440555D01*
X87028524Y-36440553D01*
X86826976Y-36324188D01*
X86826960Y-36324180D01*
X86611947Y-36235120D01*
X86387122Y-36174878D01*
X86156382Y-36144501D01*
X86156377Y-36144500D01*
X86156372Y-36144500D01*
X85923628Y-36144500D01*
X85923622Y-36144500D01*
X85923617Y-36144501D01*
X85692877Y-36174878D01*
X85468052Y-36235120D01*
X85253039Y-36324180D01*
X85253023Y-36324188D01*
X85051475Y-36440553D01*
X85051459Y-36440564D01*
X84866820Y-36582242D01*
X84866813Y-36582248D01*
X84702248Y-36746813D01*
X84702242Y-36746820D01*
X84560564Y-36931459D01*
X84560553Y-36931475D01*
X84444188Y-37133023D01*
X84444180Y-37133039D01*
X84355120Y-37348052D01*
X84294878Y-37572877D01*
X84264501Y-37803617D01*
X84264500Y-37803634D01*
X54815500Y-37803634D01*
X54815500Y-37803628D01*
X54785121Y-37572874D01*
X54724882Y-37348060D01*
X54700937Y-37290251D01*
X54635819Y-37133039D01*
X54635811Y-37133023D01*
X54519446Y-36931475D01*
X54519442Y-36931468D01*
X54377756Y-36746819D01*
X54377751Y-36746813D01*
X54213186Y-36582248D01*
X54213179Y-36582242D01*
X54028540Y-36440564D01*
X54028538Y-36440562D01*
X54028532Y-36440558D01*
X54028527Y-36440555D01*
X54028524Y-36440553D01*
X53826976Y-36324188D01*
X53826960Y-36324180D01*
X53611947Y-36235120D01*
X53387122Y-36174878D01*
X53156382Y-36144501D01*
X53156377Y-36144500D01*
X53156372Y-36144500D01*
X52923628Y-36144500D01*
X52923622Y-36144500D01*
X52923617Y-36144501D01*
X52692877Y-36174878D01*
X52468052Y-36235120D01*
X52253039Y-36324180D01*
X52253023Y-36324188D01*
X52051475Y-36440553D01*
X52051459Y-36440564D01*
X51866820Y-36582242D01*
X51866813Y-36582248D01*
X51702248Y-36746813D01*
X51702242Y-36746820D01*
X51560564Y-36931459D01*
X51560553Y-36931475D01*
X51444188Y-37133023D01*
X51444180Y-37133039D01*
X51355120Y-37348052D01*
X51294878Y-37572877D01*
X51264501Y-37803617D01*
X51264500Y-37803634D01*
X500500Y-37803634D01*
X500500Y-22429054D01*
X3599498Y-22429054D01*
X3640423Y-22581785D01*
X3669358Y-22631900D01*
X3669359Y-22631904D01*
X3669360Y-22631904D01*
X3719479Y-22718714D01*
X3719481Y-22718717D01*
X3838349Y-22837585D01*
X3838354Y-22837589D01*
X9181284Y-28180520D01*
X9181286Y-28180521D01*
X9181290Y-28180524D01*
X9307659Y-28253482D01*
X9318216Y-28259577D01*
X9470943Y-28300501D01*
X9470945Y-28300501D01*
X9636654Y-28300501D01*
X9636670Y-28300500D01*
X122252374Y-28300500D01*
X122319413Y-28320185D01*
X122365168Y-28372989D01*
X122375112Y-28442147D01*
X122346087Y-28505703D01*
X122340055Y-28512181D01*
X121881286Y-28970949D01*
X121769481Y-29082753D01*
X121769479Y-29082756D01*
X121719361Y-29169565D01*
X121719359Y-29169567D01*
X121690425Y-29219680D01*
X121690424Y-29219681D01*
X121690423Y-29219686D01*
X121649499Y-29372414D01*
X121649499Y-29372416D01*
X121649499Y-29540517D01*
X121649500Y-29540530D01*
X121649500Y-30767587D01*
X121629815Y-30834626D01*
X121622450Y-30844896D01*
X121620186Y-30847734D01*
X121524211Y-31000476D01*
X121464631Y-31170745D01*
X121464630Y-31170750D01*
X121444435Y-31349996D01*
X121444435Y-31350003D01*
X121464630Y-31529249D01*
X121464631Y-31529254D01*
X121524211Y-31699523D01*
X121620184Y-31852262D01*
X121747738Y-31979816D01*
X121900478Y-32075789D01*
X122070745Y-32135368D01*
X122070750Y-32135369D01*
X122249996Y-32155565D01*
X122250000Y-32155565D01*
X122250004Y-32155565D01*
X122429249Y-32135369D01*
X122429252Y-32135368D01*
X122429255Y-32135368D01*
X122599522Y-32075789D01*
X122752262Y-31979816D01*
X122879816Y-31852262D01*
X122975789Y-31699522D01*
X123035368Y-31529255D01*
X123049985Y-31399523D01*
X123055565Y-31350003D01*
X123055565Y-31349996D01*
X123035369Y-31170750D01*
X123035368Y-31170745D01*
X123015225Y-31113181D01*
X122975789Y-31000478D01*
X122879816Y-30847738D01*
X122879814Y-30847736D01*
X122879813Y-30847734D01*
X122877550Y-30844896D01*
X122876659Y-30842715D01*
X122876111Y-30841842D01*
X122876264Y-30841745D01*
X122851144Y-30780209D01*
X122850500Y-30767587D01*
X122850500Y-29751568D01*
X122870185Y-29684529D01*
X122886819Y-29663887D01*
X132372132Y-20178574D01*
X132433455Y-20145089D01*
X132503147Y-20150073D01*
X132559080Y-20191945D01*
X132583497Y-20257409D01*
X132583813Y-20266255D01*
X132583813Y-36065589D01*
X132564128Y-36132628D01*
X132547494Y-36153270D01*
X96869481Y-71831282D01*
X96869479Y-71831285D01*
X96819361Y-71918094D01*
X96819359Y-71918096D01*
X96790425Y-71968209D01*
X96790424Y-71968210D01*
X96790423Y-71968215D01*
X96749499Y-72120943D01*
X96749499Y-72120945D01*
X96749499Y-72289046D01*
X96749500Y-72289059D01*
X96749500Y-84850903D01*
X96729815Y-84917942D01*
X96677011Y-84963697D01*
X96607853Y-84973641D01*
X96544297Y-84944616D01*
X96537819Y-84938584D01*
X95386819Y-83787584D01*
X95353334Y-83726261D01*
X95350500Y-83699903D01*
X95350500Y-42911421D01*
X110294500Y-42911421D01*
X110294500Y-43088578D01*
X110322214Y-43263556D01*
X110376956Y-43432039D01*
X110376957Y-43432042D01*
X110457386Y-43589890D01*
X110561517Y-43733214D01*
X110686786Y-43858483D01*
X110830110Y-43962614D01*
X110898577Y-43997500D01*
X110987957Y-44043042D01*
X110987960Y-44043043D01*
X111072201Y-44070414D01*
X111156445Y-44097786D01*
X111331421Y-44125500D01*
X111331422Y-44125500D01*
X111508578Y-44125500D01*
X111508579Y-44125500D01*
X111683555Y-44097786D01*
X111852042Y-44043042D01*
X112009890Y-43962614D01*
X112153214Y-43858483D01*
X112278483Y-43733214D01*
X112382614Y-43589890D01*
X112463042Y-43432042D01*
X112517786Y-43263555D01*
X112545500Y-43088579D01*
X112545500Y-42911421D01*
X112536165Y-42852486D01*
X114249500Y-42852486D01*
X114249500Y-43147513D01*
X114264778Y-43263555D01*
X114288007Y-43439993D01*
X114364361Y-43724951D01*
X114364364Y-43724961D01*
X114477254Y-43997500D01*
X114477258Y-43997510D01*
X114624761Y-44252993D01*
X114804352Y-44487040D01*
X114804358Y-44487047D01*
X115012952Y-44695641D01*
X115012959Y-44695647D01*
X115247006Y-44875238D01*
X115502489Y-45022741D01*
X115502490Y-45022741D01*
X115502493Y-45022743D01*
X115775048Y-45135639D01*
X116060007Y-45211993D01*
X116352494Y-45250500D01*
X116352501Y-45250500D01*
X116647499Y-45250500D01*
X116647506Y-45250500D01*
X116939993Y-45211993D01*
X117224952Y-45135639D01*
X117497507Y-45022743D01*
X117752994Y-44875238D01*
X117987042Y-44695646D01*
X118195646Y-44487042D01*
X118375238Y-44252994D01*
X118522743Y-43997507D01*
X118635639Y-43724952D01*
X118711993Y-43439993D01*
X118750500Y-43147506D01*
X118750500Y-42911421D01*
X120454500Y-42911421D01*
X120454500Y-43088578D01*
X120482214Y-43263556D01*
X120536956Y-43432039D01*
X120536957Y-43432042D01*
X120617386Y-43589890D01*
X120721517Y-43733214D01*
X120846786Y-43858483D01*
X120990110Y-43962614D01*
X121058577Y-43997500D01*
X121147957Y-44043042D01*
X121147960Y-44043043D01*
X121232201Y-44070414D01*
X121316445Y-44097786D01*
X121491421Y-44125500D01*
X121491422Y-44125500D01*
X121668578Y-44125500D01*
X121668579Y-44125500D01*
X121843555Y-44097786D01*
X122012042Y-44043042D01*
X122169890Y-43962614D01*
X122313214Y-43858483D01*
X122438483Y-43733214D01*
X122542614Y-43589890D01*
X122623042Y-43432042D01*
X122677786Y-43263555D01*
X122705500Y-43088579D01*
X122705500Y-42911421D01*
X122677786Y-42736445D01*
X122623042Y-42567958D01*
X122623042Y-42567957D01*
X122542613Y-42410109D01*
X122539618Y-42405987D01*
X122438483Y-42266786D01*
X122313214Y-42141517D01*
X122169890Y-42037386D01*
X122012042Y-41956957D01*
X122012039Y-41956956D01*
X121843556Y-41902214D01*
X121756067Y-41888357D01*
X121668579Y-41874500D01*
X121491421Y-41874500D01*
X121433095Y-41883738D01*
X121316443Y-41902214D01*
X121147960Y-41956956D01*
X121147957Y-41956957D01*
X120990109Y-42037386D01*
X120908338Y-42096796D01*
X120846786Y-42141517D01*
X120846784Y-42141519D01*
X120846783Y-42141519D01*
X120721519Y-42266783D01*
X120721519Y-42266784D01*
X120721517Y-42266786D01*
X120676796Y-42328338D01*
X120617386Y-42410109D01*
X120536957Y-42567957D01*
X120536956Y-42567960D01*
X120482214Y-42736443D01*
X120454500Y-42911421D01*
X118750500Y-42911421D01*
X118750500Y-42852494D01*
X118711993Y-42560007D01*
X118635639Y-42275048D01*
X118634615Y-42272577D01*
X118580329Y-42141519D01*
X118522743Y-42002493D01*
X118496453Y-41956958D01*
X118375238Y-41747006D01*
X118195647Y-41512959D01*
X118195641Y-41512952D01*
X117987047Y-41304358D01*
X117987040Y-41304352D01*
X117752993Y-41124761D01*
X117497510Y-40977258D01*
X117497500Y-40977254D01*
X117224961Y-40864364D01*
X117224954Y-40864362D01*
X117224952Y-40864361D01*
X116939993Y-40788007D01*
X116891113Y-40781571D01*
X116647513Y-40749500D01*
X116647506Y-40749500D01*
X116352494Y-40749500D01*
X116352486Y-40749500D01*
X116074085Y-40786153D01*
X116060007Y-40788007D01*
X115775048Y-40864361D01*
X115775038Y-40864364D01*
X115502499Y-40977254D01*
X115502489Y-40977258D01*
X115247006Y-41124761D01*
X115012959Y-41304352D01*
X115012952Y-41304358D01*
X114804358Y-41512952D01*
X114804352Y-41512959D01*
X114624761Y-41747006D01*
X114477258Y-42002489D01*
X114477254Y-42002499D01*
X114364364Y-42275038D01*
X114364361Y-42275048D01*
X114328172Y-42410110D01*
X114288008Y-42560004D01*
X114288006Y-42560015D01*
X114249500Y-42852486D01*
X112536165Y-42852486D01*
X112517786Y-42736445D01*
X112463042Y-42567958D01*
X112463040Y-42567952D01*
X112380513Y-42405987D01*
X112367616Y-42337317D01*
X112393892Y-42272577D01*
X112450998Y-42232319D01*
X112507181Y-42226752D01*
X112566564Y-42234570D01*
X112573612Y-42235498D01*
X112573628Y-42235500D01*
X112573635Y-42235500D01*
X112806365Y-42235500D01*
X112806372Y-42235500D01*
X113037126Y-42205121D01*
X113261940Y-42144882D01*
X113319953Y-42120852D01*
X113476960Y-42055819D01*
X113476963Y-42055817D01*
X113476969Y-42055815D01*
X113678532Y-41939442D01*
X113863181Y-41797756D01*
X114027756Y-41633181D01*
X114169442Y-41448532D01*
X114285815Y-41246969D01*
X114374882Y-41031940D01*
X114435121Y-40807126D01*
X114465500Y-40576372D01*
X114465500Y-40343628D01*
X114435121Y-40112874D01*
X114374882Y-39888060D01*
X114374879Y-39888052D01*
X114285819Y-39673039D01*
X114285811Y-39673023D01*
X114169446Y-39471475D01*
X114169442Y-39471468D01*
X114027756Y-39286819D01*
X114027751Y-39286813D01*
X113863186Y-39122248D01*
X113863179Y-39122242D01*
X113678540Y-38980564D01*
X113678538Y-38980562D01*
X113678532Y-38980558D01*
X113678527Y-38980555D01*
X113678524Y-38980553D01*
X113476976Y-38864188D01*
X113476960Y-38864180D01*
X113261947Y-38775120D01*
X113037122Y-38714878D01*
X112806382Y-38684501D01*
X112806377Y-38684500D01*
X112806372Y-38684500D01*
X112573628Y-38684500D01*
X112573622Y-38684500D01*
X112573617Y-38684501D01*
X112342877Y-38714878D01*
X112118052Y-38775120D01*
X111903039Y-38864180D01*
X111903023Y-38864188D01*
X111701475Y-38980553D01*
X111701459Y-38980564D01*
X111516820Y-39122242D01*
X111516813Y-39122248D01*
X111352248Y-39286813D01*
X111352242Y-39286820D01*
X111210564Y-39471459D01*
X111210553Y-39471475D01*
X111094188Y-39673023D01*
X111094180Y-39673039D01*
X111005120Y-39888052D01*
X110944878Y-40112877D01*
X110914501Y-40343617D01*
X110914500Y-40343634D01*
X110914500Y-40576365D01*
X110914501Y-40576382D01*
X110942361Y-40788006D01*
X110944879Y-40807126D01*
X110977550Y-40929057D01*
X111005120Y-41031947D01*
X111094180Y-41246960D01*
X111094188Y-41246976D01*
X111210553Y-41448524D01*
X111210564Y-41448540D01*
X111352242Y-41633179D01*
X111352248Y-41633186D01*
X111385636Y-41666574D01*
X111419121Y-41727897D01*
X111414137Y-41797589D01*
X111372265Y-41853522D01*
X111317353Y-41876728D01*
X111156443Y-41902214D01*
X110987960Y-41956956D01*
X110987957Y-41956957D01*
X110830109Y-42037386D01*
X110748338Y-42096796D01*
X110686786Y-42141517D01*
X110686784Y-42141519D01*
X110686783Y-42141519D01*
X110561519Y-42266783D01*
X110561519Y-42266784D01*
X110561517Y-42266786D01*
X110516796Y-42328338D01*
X110457386Y-42410109D01*
X110376957Y-42567957D01*
X110376956Y-42567960D01*
X110322214Y-42736443D01*
X110294500Y-42911421D01*
X95350500Y-42911421D01*
X95350500Y-37803634D01*
X117264500Y-37803634D01*
X117264500Y-38036365D01*
X117264501Y-38036382D01*
X117294878Y-38267122D01*
X117355120Y-38491947D01*
X117444180Y-38706960D01*
X117444188Y-38706976D01*
X117560553Y-38908524D01*
X117560564Y-38908540D01*
X117702242Y-39093179D01*
X117702248Y-39093186D01*
X117866813Y-39257751D01*
X117866820Y-39257757D01*
X117904696Y-39286820D01*
X118051468Y-39399442D01*
X118051475Y-39399446D01*
X118253023Y-39515811D01*
X118253039Y-39515819D01*
X118468052Y-39604879D01*
X118468054Y-39604879D01*
X118468060Y-39604882D01*
X118692874Y-39665121D01*
X118923628Y-39695500D01*
X118923635Y-39695500D01*
X119156365Y-39695500D01*
X119156372Y-39695500D01*
X119387126Y-39665121D01*
X119611940Y-39604882D01*
X119669953Y-39580852D01*
X119826960Y-39515819D01*
X119826963Y-39515817D01*
X119826969Y-39515815D01*
X120028532Y-39399442D01*
X120213181Y-39257756D01*
X120377756Y-39093181D01*
X120519442Y-38908532D01*
X120635815Y-38706969D01*
X120645122Y-38684501D01*
X120724879Y-38491947D01*
X120724878Y-38491947D01*
X120724882Y-38491940D01*
X120785121Y-38267126D01*
X120815500Y-38036372D01*
X120815500Y-37803628D01*
X120785121Y-37572874D01*
X120724882Y-37348060D01*
X120700937Y-37290251D01*
X120635819Y-37133039D01*
X120635811Y-37133023D01*
X120519446Y-36931475D01*
X120519442Y-36931468D01*
X120377756Y-36746819D01*
X120377751Y-36746813D01*
X120213186Y-36582248D01*
X120213179Y-36582242D01*
X120028540Y-36440564D01*
X120028538Y-36440562D01*
X120028532Y-36440558D01*
X120028527Y-36440555D01*
X120028524Y-36440553D01*
X119826976Y-36324188D01*
X119826960Y-36324180D01*
X119611947Y-36235120D01*
X119387122Y-36174878D01*
X119156382Y-36144501D01*
X119156377Y-36144500D01*
X119156372Y-36144500D01*
X118923628Y-36144500D01*
X118923622Y-36144500D01*
X118923617Y-36144501D01*
X118692877Y-36174878D01*
X118468052Y-36235120D01*
X118253039Y-36324180D01*
X118253023Y-36324188D01*
X118051475Y-36440553D01*
X118051459Y-36440564D01*
X117866820Y-36582242D01*
X117866813Y-36582248D01*
X117702248Y-36746813D01*
X117702242Y-36746820D01*
X117560564Y-36931459D01*
X117560553Y-36931475D01*
X117444188Y-37133023D01*
X117444180Y-37133039D01*
X117355120Y-37348052D01*
X117294878Y-37572877D01*
X117264501Y-37803617D01*
X117264500Y-37803634D01*
X95350500Y-37803634D01*
X95350500Y-31632412D01*
X95370185Y-31565373D01*
X95377555Y-31555097D01*
X95379810Y-31552267D01*
X95379816Y-31552262D01*
X95475789Y-31399522D01*
X95535368Y-31229255D01*
X95536483Y-31219358D01*
X95555565Y-31050003D01*
X95555565Y-31049996D01*
X95535369Y-30870750D01*
X95535368Y-30870745D01*
X95475789Y-30700478D01*
X95379816Y-30547738D01*
X95252262Y-30420184D01*
X95099523Y-30324211D01*
X94929254Y-30264631D01*
X94929249Y-30264630D01*
X94750004Y-30244435D01*
X94749996Y-30244435D01*
X94570750Y-30264630D01*
X94570745Y-30264631D01*
X94400476Y-30324211D01*
X94247737Y-30420184D01*
X94120184Y-30547737D01*
X94024211Y-30700476D01*
X93964631Y-30870745D01*
X93964630Y-30870750D01*
X93944435Y-31049996D01*
X93944435Y-31050003D01*
X93964630Y-31229249D01*
X93964631Y-31229254D01*
X94024211Y-31399523D01*
X94120185Y-31552263D01*
X94122445Y-31555097D01*
X94123334Y-31557275D01*
X94123889Y-31558158D01*
X94123734Y-31558255D01*
X94148855Y-31619783D01*
X94149500Y-31632412D01*
X94149500Y-83913330D01*
X94149499Y-83913348D01*
X94149499Y-84079054D01*
X94149498Y-84079054D01*
X94149499Y-84079057D01*
X94190423Y-84231785D01*
X94192562Y-84235490D01*
X94192565Y-84235501D01*
X94192568Y-84235500D01*
X94269477Y-84368712D01*
X94269481Y-84368717D01*
X94388349Y-84487585D01*
X94388355Y-84487590D01*
X96519298Y-86618533D01*
X96552783Y-86679856D01*
X96554837Y-86692330D01*
X96564630Y-86779249D01*
X96624210Y-86949521D01*
X96670219Y-87022743D01*
X96720184Y-87102262D01*
X96847738Y-87229816D01*
X97000478Y-87325789D01*
X97170745Y-87385368D01*
X97170750Y-87385369D01*
X97349996Y-87405565D01*
X97350000Y-87405565D01*
X97350004Y-87405565D01*
X97529249Y-87385369D01*
X97529252Y-87385368D01*
X97529255Y-87385368D01*
X97699522Y-87325789D01*
X97852262Y-87229816D01*
X97979816Y-87102262D01*
X98075789Y-86949522D01*
X98135368Y-86779255D01*
X98135369Y-86779249D01*
X98155565Y-86600003D01*
X98155565Y-86599996D01*
X98135369Y-86420750D01*
X98135368Y-86420745D01*
X98075788Y-86250476D01*
X97979846Y-86097786D01*
X97979816Y-86097738D01*
X97979814Y-86097736D01*
X97979813Y-86097734D01*
X97977550Y-86094896D01*
X97976659Y-86092715D01*
X97976111Y-86091842D01*
X97976264Y-86091745D01*
X97951144Y-86030209D01*
X97950500Y-86017587D01*
X97950500Y-84911421D01*
X126794500Y-84911421D01*
X126794500Y-85088578D01*
X126822214Y-85263556D01*
X126876956Y-85432039D01*
X126876957Y-85432042D01*
X126957386Y-85589890D01*
X127061517Y-85733214D01*
X127186786Y-85858483D01*
X127330110Y-85962614D01*
X127398577Y-85997500D01*
X127487957Y-86043042D01*
X127487960Y-86043043D01*
X127566071Y-86068422D01*
X127656445Y-86097786D01*
X127831421Y-86125500D01*
X127831422Y-86125500D01*
X128008578Y-86125500D01*
X128008579Y-86125500D01*
X128183555Y-86097786D01*
X128352042Y-86043042D01*
X128509890Y-85962614D01*
X128653214Y-85858483D01*
X128778483Y-85733214D01*
X128882614Y-85589890D01*
X128963042Y-85432042D01*
X129017786Y-85263555D01*
X129045500Y-85088579D01*
X129045500Y-84911421D01*
X129036165Y-84852486D01*
X130749500Y-84852486D01*
X130749500Y-85147513D01*
X130764778Y-85263555D01*
X130788007Y-85439993D01*
X130864361Y-85724951D01*
X130864364Y-85724961D01*
X130977254Y-85997500D01*
X130977258Y-85997510D01*
X131124761Y-86252993D01*
X131304352Y-86487040D01*
X131304358Y-86487047D01*
X131512952Y-86695641D01*
X131512959Y-86695647D01*
X131747006Y-86875238D01*
X132002489Y-87022741D01*
X132002490Y-87022741D01*
X132002493Y-87022743D01*
X132275048Y-87135639D01*
X132560007Y-87211993D01*
X132852494Y-87250500D01*
X132852501Y-87250500D01*
X133147499Y-87250500D01*
X133147506Y-87250500D01*
X133439993Y-87211993D01*
X133724952Y-87135639D01*
X133997507Y-87022743D01*
X134252994Y-86875238D01*
X134487042Y-86695646D01*
X134695646Y-86487042D01*
X134875238Y-86252994D01*
X135022743Y-85997507D01*
X135135639Y-85724952D01*
X135211993Y-85439993D01*
X135250500Y-85147506D01*
X135250500Y-84911421D01*
X136954500Y-84911421D01*
X136954500Y-85088578D01*
X136982214Y-85263556D01*
X137036956Y-85432039D01*
X137036957Y-85432042D01*
X137117386Y-85589890D01*
X137221517Y-85733214D01*
X137346786Y-85858483D01*
X137490110Y-85962614D01*
X137558577Y-85997500D01*
X137647957Y-86043042D01*
X137647960Y-86043043D01*
X137726071Y-86068422D01*
X137816445Y-86097786D01*
X137991421Y-86125500D01*
X137991422Y-86125500D01*
X138168578Y-86125500D01*
X138168579Y-86125500D01*
X138343555Y-86097786D01*
X138512042Y-86043042D01*
X138669890Y-85962614D01*
X138813214Y-85858483D01*
X138938483Y-85733214D01*
X139042614Y-85589890D01*
X139123042Y-85432042D01*
X139177786Y-85263555D01*
X139205500Y-85088579D01*
X139205500Y-84911421D01*
X139177786Y-84736445D01*
X139123042Y-84567958D01*
X139123042Y-84567957D01*
X139042613Y-84410109D01*
X139012539Y-84368716D01*
X138938483Y-84266786D01*
X138813214Y-84141517D01*
X138669890Y-84037386D01*
X138512042Y-83956957D01*
X138512039Y-83956956D01*
X138343556Y-83902214D01*
X138256067Y-83888357D01*
X138168579Y-83874500D01*
X137991421Y-83874500D01*
X137933095Y-83883738D01*
X137816443Y-83902214D01*
X137647960Y-83956956D01*
X137647957Y-83956957D01*
X137490109Y-84037386D01*
X137432759Y-84079054D01*
X137346786Y-84141517D01*
X137346784Y-84141519D01*
X137346783Y-84141519D01*
X137221519Y-84266783D01*
X137221519Y-84266784D01*
X137221517Y-84266786D01*
X137176796Y-84328338D01*
X137117386Y-84410109D01*
X137036957Y-84567957D01*
X137036956Y-84567960D01*
X136982214Y-84736443D01*
X136954500Y-84911421D01*
X135250500Y-84911421D01*
X135250500Y-84852494D01*
X135211993Y-84560007D01*
X135135639Y-84275048D01*
X135134615Y-84272577D01*
X135080329Y-84141519D01*
X135022743Y-84002493D01*
X134996453Y-83956958D01*
X134875238Y-83747006D01*
X134695647Y-83512959D01*
X134695641Y-83512952D01*
X134487047Y-83304358D01*
X134487040Y-83304352D01*
X134252993Y-83124761D01*
X133997510Y-82977258D01*
X133997500Y-82977254D01*
X133724961Y-82864364D01*
X133724954Y-82864362D01*
X133724952Y-82864361D01*
X133439993Y-82788007D01*
X133391113Y-82781571D01*
X133147513Y-82749500D01*
X133147506Y-82749500D01*
X132852494Y-82749500D01*
X132852486Y-82749500D01*
X132574085Y-82786153D01*
X132560007Y-82788007D01*
X132275048Y-82864361D01*
X132275038Y-82864364D01*
X132002499Y-82977254D01*
X132002489Y-82977258D01*
X131747006Y-83124761D01*
X131512959Y-83304352D01*
X131512952Y-83304358D01*
X131304358Y-83512952D01*
X131304352Y-83512959D01*
X131124761Y-83747006D01*
X130977258Y-84002489D01*
X130977254Y-84002499D01*
X130864364Y-84275038D01*
X130864361Y-84275048D01*
X130828172Y-84410110D01*
X130788008Y-84560004D01*
X130788006Y-84560015D01*
X130749500Y-84852486D01*
X129036165Y-84852486D01*
X129017786Y-84736445D01*
X128963042Y-84567958D01*
X128963040Y-84567952D01*
X128880513Y-84405987D01*
X128867616Y-84337317D01*
X128893892Y-84272577D01*
X128950998Y-84232319D01*
X129007181Y-84226752D01*
X129066564Y-84234570D01*
X129073612Y-84235498D01*
X129073628Y-84235500D01*
X129073635Y-84235500D01*
X129306365Y-84235500D01*
X129306372Y-84235500D01*
X129537126Y-84205121D01*
X129761940Y-84144882D01*
X129819953Y-84120852D01*
X129976960Y-84055819D01*
X129976963Y-84055817D01*
X129976969Y-84055815D01*
X130178532Y-83939442D01*
X130363181Y-83797756D01*
X130527756Y-83633181D01*
X130669442Y-83448532D01*
X130785815Y-83246969D01*
X130874882Y-83031940D01*
X130935121Y-82807126D01*
X130965500Y-82576372D01*
X130965500Y-82343628D01*
X130935121Y-82112874D01*
X130874882Y-81888060D01*
X130874879Y-81888052D01*
X130785819Y-81673039D01*
X130785811Y-81673023D01*
X130669446Y-81471475D01*
X130669442Y-81471468D01*
X130527756Y-81286819D01*
X130527751Y-81286813D01*
X130363186Y-81122248D01*
X130363179Y-81122242D01*
X130178540Y-80980564D01*
X130178538Y-80980562D01*
X130178532Y-80980558D01*
X130178527Y-80980555D01*
X130178524Y-80980553D01*
X129976976Y-80864188D01*
X129976960Y-80864180D01*
X129761947Y-80775120D01*
X129537122Y-80714878D01*
X129306382Y-80684501D01*
X129306377Y-80684500D01*
X129306372Y-80684500D01*
X129073628Y-80684500D01*
X129073622Y-80684500D01*
X129073617Y-80684501D01*
X128842877Y-80714878D01*
X128618052Y-80775120D01*
X128403039Y-80864180D01*
X128403023Y-80864188D01*
X128201475Y-80980553D01*
X128201459Y-80980564D01*
X128016820Y-81122242D01*
X128016813Y-81122248D01*
X127852248Y-81286813D01*
X127852242Y-81286820D01*
X127710564Y-81471459D01*
X127710553Y-81471475D01*
X127594188Y-81673023D01*
X127594180Y-81673039D01*
X127505120Y-81888052D01*
X127444878Y-82112877D01*
X127414501Y-82343617D01*
X127414500Y-82343634D01*
X127414500Y-82576365D01*
X127414501Y-82576382D01*
X127444878Y-82807122D01*
X127505120Y-83031947D01*
X127594180Y-83246960D01*
X127594188Y-83246976D01*
X127710553Y-83448524D01*
X127710564Y-83448540D01*
X127852242Y-83633179D01*
X127852248Y-83633186D01*
X127885636Y-83666574D01*
X127919121Y-83727897D01*
X127914137Y-83797589D01*
X127872265Y-83853522D01*
X127817353Y-83876728D01*
X127656443Y-83902214D01*
X127487960Y-83956956D01*
X127487957Y-83956957D01*
X127330109Y-84037386D01*
X127272759Y-84079054D01*
X127186786Y-84141517D01*
X127186784Y-84141519D01*
X127186783Y-84141519D01*
X127061519Y-84266783D01*
X127061519Y-84266784D01*
X127061517Y-84266786D01*
X127016796Y-84328338D01*
X126957386Y-84410109D01*
X126876957Y-84567957D01*
X126876956Y-84567960D01*
X126822214Y-84736443D01*
X126794500Y-84911421D01*
X97950500Y-84911421D01*
X97950500Y-79803634D01*
X133764500Y-79803634D01*
X133764500Y-80036365D01*
X133764501Y-80036382D01*
X133794878Y-80267122D01*
X133855120Y-80491947D01*
X133944180Y-80706960D01*
X133944188Y-80706976D01*
X134060553Y-80908524D01*
X134060564Y-80908540D01*
X134202242Y-81093179D01*
X134202248Y-81093186D01*
X134366813Y-81257751D01*
X134366820Y-81257757D01*
X134404696Y-81286820D01*
X134551468Y-81399442D01*
X134551475Y-81399446D01*
X134753023Y-81515811D01*
X134753039Y-81515819D01*
X134968052Y-81604879D01*
X134968054Y-81604879D01*
X134968060Y-81604882D01*
X135192874Y-81665121D01*
X135423628Y-81695500D01*
X135423635Y-81695500D01*
X135656365Y-81695500D01*
X135656372Y-81695500D01*
X135887126Y-81665121D01*
X136111940Y-81604882D01*
X136169953Y-81580852D01*
X136326960Y-81515819D01*
X136326963Y-81515817D01*
X136326969Y-81515815D01*
X136528532Y-81399442D01*
X136713181Y-81257756D01*
X136877756Y-81093181D01*
X137019442Y-80908532D01*
X137135815Y-80706969D01*
X137145122Y-80684501D01*
X137224879Y-80491947D01*
X137224878Y-80491947D01*
X137224882Y-80491940D01*
X137285121Y-80267126D01*
X137315500Y-80036372D01*
X137315500Y-79803628D01*
X137285121Y-79572874D01*
X137224882Y-79348060D01*
X137224879Y-79348052D01*
X137135819Y-79133039D01*
X137135811Y-79133023D01*
X137019446Y-78931475D01*
X137019442Y-78931468D01*
X136877756Y-78746819D01*
X136877751Y-78746813D01*
X136713186Y-78582248D01*
X136713179Y-78582242D01*
X136528540Y-78440564D01*
X136528538Y-78440562D01*
X136528532Y-78440558D01*
X136528527Y-78440555D01*
X136528524Y-78440553D01*
X136326976Y-78324188D01*
X136326960Y-78324180D01*
X136111947Y-78235120D01*
X135887122Y-78174878D01*
X135656382Y-78144501D01*
X135656377Y-78144500D01*
X135656372Y-78144500D01*
X135423628Y-78144500D01*
X135423622Y-78144500D01*
X135423617Y-78144501D01*
X135192877Y-78174878D01*
X134968052Y-78235120D01*
X134753039Y-78324180D01*
X134753023Y-78324188D01*
X134551475Y-78440553D01*
X134551459Y-78440564D01*
X134366820Y-78582242D01*
X134366813Y-78582248D01*
X134202248Y-78746813D01*
X134202242Y-78746820D01*
X134060564Y-78931459D01*
X134060553Y-78931475D01*
X133944188Y-79133023D01*
X133944180Y-79133039D01*
X133855120Y-79348052D01*
X133794878Y-79572877D01*
X133764501Y-79803617D01*
X133764500Y-79803634D01*
X97950500Y-79803634D01*
X97950500Y-72500097D01*
X97970185Y-72433058D01*
X97986819Y-72412416D01*
X133187819Y-37211416D01*
X133249142Y-37177931D01*
X133318834Y-37182915D01*
X133374767Y-37224787D01*
X133399184Y-37290251D01*
X133399500Y-37299097D01*
X133399500Y-40763330D01*
X133399499Y-40763348D01*
X133399499Y-40929054D01*
X133399498Y-40929054D01*
X133440424Y-41081789D01*
X133440425Y-41081790D01*
X133465235Y-41124761D01*
X133465236Y-41124763D01*
X133519475Y-41218709D01*
X133519481Y-41218717D01*
X133638349Y-41337585D01*
X133638355Y-41337590D01*
X136938584Y-44637819D01*
X136972069Y-44699142D01*
X136967085Y-44768834D01*
X136925213Y-44824767D01*
X136859749Y-44849184D01*
X136850903Y-44849500D01*
X129582412Y-44849500D01*
X129515373Y-44829815D01*
X129505097Y-44822445D01*
X129502263Y-44820185D01*
X129502262Y-44820184D01*
X129420539Y-44768834D01*
X129349523Y-44724211D01*
X129179254Y-44664631D01*
X129179249Y-44664630D01*
X129000004Y-44644435D01*
X128999996Y-44644435D01*
X128820750Y-44664630D01*
X128820745Y-44664631D01*
X128650476Y-44724211D01*
X128497737Y-44820184D01*
X128370184Y-44947737D01*
X128274211Y-45100476D01*
X128214631Y-45270745D01*
X128214630Y-45270750D01*
X128194435Y-45449996D01*
X128194435Y-45450003D01*
X128214630Y-45629249D01*
X128214631Y-45629254D01*
X128274211Y-45799523D01*
X128370184Y-45952262D01*
X128497738Y-46079816D01*
X128650478Y-46175789D01*
X128820745Y-46235368D01*
X128820750Y-46235369D01*
X128999996Y-46255565D01*
X129000000Y-46255565D01*
X129000004Y-46255565D01*
X129179249Y-46235369D01*
X129179252Y-46235368D01*
X129179255Y-46235368D01*
X129349522Y-46175789D01*
X129502262Y-46079816D01*
X129502267Y-46079810D01*
X129505097Y-46077555D01*
X129507275Y-46076665D01*
X129508158Y-46076111D01*
X129508255Y-46076265D01*
X129569783Y-46051145D01*
X129582412Y-46050500D01*
X138017588Y-46050500D01*
X138084627Y-46070185D01*
X138094903Y-46077555D01*
X138097736Y-46079814D01*
X138097738Y-46079816D01*
X138250478Y-46175789D01*
X138420745Y-46235368D01*
X138420750Y-46235369D01*
X138599996Y-46255565D01*
X138600000Y-46255565D01*
X138600004Y-46255565D01*
X138779249Y-46235369D01*
X138779252Y-46235368D01*
X138779255Y-46235368D01*
X138949522Y-46175789D01*
X139102262Y-46079816D01*
X139229816Y-45952262D01*
X139325789Y-45799522D01*
X139385368Y-45629255D01*
X139405565Y-45450000D01*
X139385368Y-45270745D01*
X139325789Y-45100478D01*
X139229816Y-44947738D01*
X139102262Y-44820184D01*
X139020539Y-44768834D01*
X138949521Y-44724210D01*
X138779249Y-44664630D01*
X138692330Y-44654837D01*
X138627916Y-44627770D01*
X138618533Y-44619298D01*
X136910656Y-42911421D01*
X143294500Y-42911421D01*
X143294500Y-43088578D01*
X143322214Y-43263556D01*
X143376956Y-43432039D01*
X143376957Y-43432042D01*
X143457386Y-43589890D01*
X143561517Y-43733214D01*
X143686786Y-43858483D01*
X143830110Y-43962614D01*
X143898577Y-43997500D01*
X143987957Y-44043042D01*
X143987960Y-44043043D01*
X144072201Y-44070414D01*
X144156445Y-44097786D01*
X144331421Y-44125500D01*
X144331422Y-44125500D01*
X144508578Y-44125500D01*
X144508579Y-44125500D01*
X144683555Y-44097786D01*
X144852042Y-44043042D01*
X145009890Y-43962614D01*
X145153214Y-43858483D01*
X145278483Y-43733214D01*
X145382614Y-43589890D01*
X145463042Y-43432042D01*
X145517786Y-43263555D01*
X145545500Y-43088579D01*
X145545500Y-42911421D01*
X145536165Y-42852486D01*
X147249500Y-42852486D01*
X147249500Y-43147513D01*
X147264778Y-43263555D01*
X147288007Y-43439993D01*
X147364361Y-43724951D01*
X147364364Y-43724961D01*
X147477254Y-43997500D01*
X147477258Y-43997510D01*
X147624761Y-44252993D01*
X147804352Y-44487040D01*
X147804358Y-44487047D01*
X148012952Y-44695641D01*
X148012959Y-44695647D01*
X148247006Y-44875238D01*
X148502489Y-45022741D01*
X148502490Y-45022741D01*
X148502493Y-45022743D01*
X148775048Y-45135639D01*
X149060007Y-45211993D01*
X149352494Y-45250500D01*
X149352501Y-45250500D01*
X149647499Y-45250500D01*
X149647506Y-45250500D01*
X149939993Y-45211993D01*
X150224952Y-45135639D01*
X150497507Y-45022743D01*
X150752994Y-44875238D01*
X150987042Y-44695646D01*
X151195646Y-44487042D01*
X151375238Y-44252994D01*
X151522743Y-43997507D01*
X151635639Y-43724952D01*
X151711993Y-43439993D01*
X151750500Y-43147506D01*
X151750500Y-42911421D01*
X153454500Y-42911421D01*
X153454500Y-43088578D01*
X153482214Y-43263556D01*
X153536956Y-43432039D01*
X153536957Y-43432042D01*
X153617386Y-43589890D01*
X153721517Y-43733214D01*
X153846786Y-43858483D01*
X153990110Y-43962614D01*
X154058577Y-43997500D01*
X154147957Y-44043042D01*
X154147960Y-44043043D01*
X154232201Y-44070414D01*
X154316445Y-44097786D01*
X154491421Y-44125500D01*
X154491422Y-44125500D01*
X154668578Y-44125500D01*
X154668579Y-44125500D01*
X154843555Y-44097786D01*
X155012042Y-44043042D01*
X155169890Y-43962614D01*
X155313214Y-43858483D01*
X155438483Y-43733214D01*
X155542614Y-43589890D01*
X155623042Y-43432042D01*
X155677786Y-43263555D01*
X155705500Y-43088579D01*
X155705500Y-42911421D01*
X155677786Y-42736445D01*
X155623042Y-42567958D01*
X155623042Y-42567957D01*
X155542613Y-42410109D01*
X155539618Y-42405987D01*
X155438483Y-42266786D01*
X155313214Y-42141517D01*
X155169890Y-42037386D01*
X155012042Y-41956957D01*
X155012039Y-41956956D01*
X154843556Y-41902214D01*
X154756067Y-41888357D01*
X154668579Y-41874500D01*
X154491421Y-41874500D01*
X154433095Y-41883738D01*
X154316443Y-41902214D01*
X154147960Y-41956956D01*
X154147957Y-41956957D01*
X153990109Y-42037386D01*
X153908338Y-42096796D01*
X153846786Y-42141517D01*
X153846784Y-42141519D01*
X153846783Y-42141519D01*
X153721519Y-42266783D01*
X153721519Y-42266784D01*
X153721517Y-42266786D01*
X153676796Y-42328338D01*
X153617386Y-42410109D01*
X153536957Y-42567957D01*
X153536956Y-42567960D01*
X153482214Y-42736443D01*
X153454500Y-42911421D01*
X151750500Y-42911421D01*
X151750500Y-42852494D01*
X151711993Y-42560007D01*
X151635639Y-42275048D01*
X151634615Y-42272577D01*
X151580329Y-42141519D01*
X151522743Y-42002493D01*
X151496453Y-41956958D01*
X151375238Y-41747006D01*
X151195647Y-41512959D01*
X151195641Y-41512952D01*
X150987047Y-41304358D01*
X150987040Y-41304352D01*
X150752993Y-41124761D01*
X150497510Y-40977258D01*
X150497500Y-40977254D01*
X150224961Y-40864364D01*
X150224954Y-40864362D01*
X150224952Y-40864361D01*
X149939993Y-40788007D01*
X149891113Y-40781571D01*
X149647513Y-40749500D01*
X149647506Y-40749500D01*
X149352494Y-40749500D01*
X149352486Y-40749500D01*
X149074085Y-40786153D01*
X149060007Y-40788007D01*
X148775048Y-40864361D01*
X148775038Y-40864364D01*
X148502499Y-40977254D01*
X148502489Y-40977258D01*
X148247006Y-41124761D01*
X148012959Y-41304352D01*
X148012952Y-41304358D01*
X147804358Y-41512952D01*
X147804352Y-41512959D01*
X147624761Y-41747006D01*
X147477258Y-42002489D01*
X147477254Y-42002499D01*
X147364364Y-42275038D01*
X147364361Y-42275048D01*
X147328172Y-42410110D01*
X147288008Y-42560004D01*
X147288006Y-42560015D01*
X147249500Y-42852486D01*
X145536165Y-42852486D01*
X145517786Y-42736445D01*
X145463042Y-42567958D01*
X145463040Y-42567952D01*
X145380513Y-42405987D01*
X145367616Y-42337317D01*
X145393892Y-42272577D01*
X145450998Y-42232319D01*
X145507181Y-42226752D01*
X145566564Y-42234570D01*
X145573612Y-42235498D01*
X145573628Y-42235500D01*
X145573635Y-42235500D01*
X145806365Y-42235500D01*
X145806372Y-42235500D01*
X146037126Y-42205121D01*
X146261940Y-42144882D01*
X146319953Y-42120852D01*
X146476960Y-42055819D01*
X146476963Y-42055817D01*
X146476969Y-42055815D01*
X146678532Y-41939442D01*
X146863181Y-41797756D01*
X147027756Y-41633181D01*
X147169442Y-41448532D01*
X147285815Y-41246969D01*
X147374882Y-41031940D01*
X147435121Y-40807126D01*
X147465500Y-40576372D01*
X147465500Y-40343628D01*
X147435121Y-40112874D01*
X147374882Y-39888060D01*
X147374879Y-39888052D01*
X147285819Y-39673039D01*
X147285811Y-39673023D01*
X147169446Y-39471475D01*
X147169442Y-39471468D01*
X147027756Y-39286819D01*
X147027751Y-39286813D01*
X146863186Y-39122248D01*
X146863179Y-39122242D01*
X146678540Y-38980564D01*
X146678538Y-38980562D01*
X146678532Y-38980558D01*
X146678527Y-38980555D01*
X146678524Y-38980553D01*
X146476976Y-38864188D01*
X146476960Y-38864180D01*
X146261947Y-38775120D01*
X146037122Y-38714878D01*
X145806382Y-38684501D01*
X145806377Y-38684500D01*
X145806372Y-38684500D01*
X145573628Y-38684500D01*
X145573622Y-38684500D01*
X145573617Y-38684501D01*
X145342877Y-38714878D01*
X145118052Y-38775120D01*
X144903039Y-38864180D01*
X144903023Y-38864188D01*
X144701475Y-38980553D01*
X144701459Y-38980564D01*
X144516820Y-39122242D01*
X144516813Y-39122248D01*
X144352248Y-39286813D01*
X144352242Y-39286820D01*
X144210564Y-39471459D01*
X144210553Y-39471475D01*
X144094188Y-39673023D01*
X144094180Y-39673039D01*
X144005120Y-39888052D01*
X143944878Y-40112877D01*
X143914501Y-40343617D01*
X143914500Y-40343634D01*
X143914500Y-40576365D01*
X143914501Y-40576382D01*
X143942361Y-40788006D01*
X143944879Y-40807126D01*
X143977550Y-40929057D01*
X144005120Y-41031947D01*
X144094180Y-41246960D01*
X144094188Y-41246976D01*
X144210553Y-41448524D01*
X144210564Y-41448540D01*
X144352242Y-41633179D01*
X144352248Y-41633186D01*
X144385636Y-41666574D01*
X144419121Y-41727897D01*
X144414137Y-41797589D01*
X144372265Y-41853522D01*
X144317353Y-41876728D01*
X144156443Y-41902214D01*
X143987960Y-41956956D01*
X143987957Y-41956957D01*
X143830109Y-42037386D01*
X143748338Y-42096796D01*
X143686786Y-42141517D01*
X143686784Y-42141519D01*
X143686783Y-42141519D01*
X143561519Y-42266783D01*
X143561519Y-42266784D01*
X143561517Y-42266786D01*
X143516796Y-42328338D01*
X143457386Y-42410109D01*
X143376957Y-42567957D01*
X143376956Y-42567960D01*
X143322214Y-42736443D01*
X143294500Y-42911421D01*
X136910656Y-42911421D01*
X134636819Y-40637584D01*
X134603334Y-40576261D01*
X134600500Y-40549903D01*
X134600500Y-37803634D01*
X150264500Y-37803634D01*
X150264500Y-38036365D01*
X150264501Y-38036382D01*
X150294878Y-38267122D01*
X150355120Y-38491947D01*
X150444180Y-38706960D01*
X150444188Y-38706976D01*
X150560553Y-38908524D01*
X150560564Y-38908540D01*
X150702242Y-39093179D01*
X150702248Y-39093186D01*
X150866813Y-39257751D01*
X150866820Y-39257757D01*
X150904696Y-39286820D01*
X151051468Y-39399442D01*
X151051475Y-39399446D01*
X151253023Y-39515811D01*
X151253039Y-39515819D01*
X151468052Y-39604879D01*
X151468054Y-39604879D01*
X151468060Y-39604882D01*
X151692874Y-39665121D01*
X151923628Y-39695500D01*
X151923635Y-39695500D01*
X152156365Y-39695500D01*
X152156372Y-39695500D01*
X152387126Y-39665121D01*
X152611940Y-39604882D01*
X152669953Y-39580852D01*
X152826960Y-39515819D01*
X152826963Y-39515817D01*
X152826969Y-39515815D01*
X153028532Y-39399442D01*
X153213181Y-39257756D01*
X153377756Y-39093181D01*
X153519442Y-38908532D01*
X153635815Y-38706969D01*
X153645122Y-38684501D01*
X153724879Y-38491947D01*
X153724878Y-38491947D01*
X153724882Y-38491940D01*
X153785121Y-38267126D01*
X153815500Y-38036372D01*
X153815500Y-37803628D01*
X153785121Y-37572874D01*
X153724882Y-37348060D01*
X153700937Y-37290251D01*
X153635819Y-37133039D01*
X153635811Y-37133023D01*
X153519446Y-36931475D01*
X153519442Y-36931468D01*
X153377756Y-36746819D01*
X153377751Y-36746813D01*
X153213186Y-36582248D01*
X153213179Y-36582242D01*
X153028540Y-36440564D01*
X153028538Y-36440562D01*
X153028532Y-36440558D01*
X153028527Y-36440555D01*
X153028524Y-36440553D01*
X152826976Y-36324188D01*
X152826960Y-36324180D01*
X152611947Y-36235120D01*
X152387122Y-36174878D01*
X152156382Y-36144501D01*
X152156377Y-36144500D01*
X152156372Y-36144500D01*
X151923628Y-36144500D01*
X151923622Y-36144500D01*
X151923617Y-36144501D01*
X151692877Y-36174878D01*
X151468052Y-36235120D01*
X151253039Y-36324180D01*
X151253023Y-36324188D01*
X151051475Y-36440553D01*
X151051459Y-36440564D01*
X150866820Y-36582242D01*
X150866813Y-36582248D01*
X150702248Y-36746813D01*
X150702242Y-36746820D01*
X150560564Y-36931459D01*
X150560553Y-36931475D01*
X150444188Y-37133023D01*
X150444180Y-37133039D01*
X150355120Y-37348052D01*
X150294878Y-37572877D01*
X150264501Y-37803617D01*
X150264500Y-37803634D01*
X134600500Y-37803634D01*
X134600500Y-24299097D01*
X134620185Y-24232058D01*
X134672989Y-24186303D01*
X134742147Y-24176359D01*
X134805703Y-24205384D01*
X134812180Y-24211415D01*
X142831284Y-32230520D01*
X142968215Y-32309577D01*
X143120943Y-32350501D01*
X143120946Y-32350501D01*
X143286654Y-32350501D01*
X143286670Y-32350500D01*
X149699903Y-32350500D01*
X149766942Y-32370185D01*
X149787584Y-32386819D01*
X152569298Y-35168533D01*
X152602783Y-35229856D01*
X152604837Y-35242330D01*
X152614630Y-35329249D01*
X152674210Y-35499521D01*
X152770184Y-35652262D01*
X152897738Y-35779816D01*
X153050478Y-35875789D01*
X153220745Y-35935368D01*
X153220750Y-35935369D01*
X153399996Y-35955565D01*
X153400000Y-35955565D01*
X153400004Y-35955565D01*
X153579249Y-35935369D01*
X153579252Y-35935368D01*
X153579255Y-35935368D01*
X153749522Y-35875789D01*
X153902262Y-35779816D01*
X154029816Y-35652262D01*
X154125789Y-35499522D01*
X154185368Y-35329255D01*
X154195162Y-35242330D01*
X154205565Y-35150003D01*
X154205565Y-35149996D01*
X154185369Y-34970750D01*
X154185368Y-34970745D01*
X154125788Y-34800476D01*
X154029815Y-34647737D01*
X153902262Y-34520184D01*
X153749521Y-34424210D01*
X153579249Y-34364630D01*
X153492330Y-34354837D01*
X153427916Y-34327770D01*
X153418533Y-34319298D01*
X150487590Y-31388355D01*
X150487588Y-31388352D01*
X150368717Y-31269481D01*
X150368716Y-31269480D01*
X150281904Y-31219360D01*
X150281904Y-31219359D01*
X150281900Y-31219358D01*
X150231785Y-31190423D01*
X150079057Y-31149499D01*
X149920943Y-31149499D01*
X149913347Y-31149499D01*
X149913331Y-31149500D01*
X143500098Y-31149500D01*
X143433059Y-31129815D01*
X143412417Y-31113181D01*
X141832080Y-29532844D01*
X144425000Y-29532844D01*
X144431401Y-29592372D01*
X144431403Y-29592379D01*
X144481645Y-29727086D01*
X144481649Y-29727093D01*
X144567809Y-29842187D01*
X144567812Y-29842190D01*
X144682906Y-29928350D01*
X144682913Y-29928354D01*
X144817620Y-29978596D01*
X144817627Y-29978598D01*
X144877155Y-29984999D01*
X144877172Y-29985000D01*
X145100000Y-29985000D01*
X145600000Y-29985000D01*
X145822828Y-29985000D01*
X145822844Y-29984999D01*
X145882372Y-29978598D01*
X145882379Y-29978596D01*
X146017086Y-29928354D01*
X146017093Y-29928350D01*
X146132187Y-29842190D01*
X146132190Y-29842187D01*
X146218350Y-29727093D01*
X146218354Y-29727086D01*
X146268596Y-29592379D01*
X146268598Y-29592372D01*
X146274999Y-29532844D01*
X146275000Y-29532827D01*
X146275000Y-29310000D01*
X145600000Y-29310000D01*
X145600000Y-29985000D01*
X145100000Y-29985000D01*
X145100000Y-29310000D01*
X144425000Y-29310000D01*
X144425000Y-29532844D01*
X141832080Y-29532844D01*
X140359235Y-28059999D01*
X144419402Y-28059999D01*
X144439738Y-28253483D01*
X144439740Y-28253488D01*
X144470096Y-28346917D01*
X144472091Y-28416758D01*
X144468347Y-28428566D01*
X144431403Y-28527617D01*
X144431401Y-28527627D01*
X144425000Y-28587155D01*
X144425000Y-28810000D01*
X144767441Y-28810000D01*
X144834480Y-28829685D01*
X144840327Y-28833682D01*
X144884702Y-28865923D01*
X144952926Y-28896297D01*
X145062429Y-28945051D01*
X145121788Y-28957668D01*
X145100000Y-29010272D01*
X145100000Y-29109728D01*
X145138060Y-29201614D01*
X145208386Y-29271940D01*
X145300272Y-29310000D01*
X145399728Y-29310000D01*
X145491614Y-29271940D01*
X145561940Y-29201614D01*
X145600000Y-29109728D01*
X145600000Y-29010272D01*
X145578211Y-28957668D01*
X145637571Y-28945051D01*
X145815299Y-28865922D01*
X145859673Y-28833681D01*
X145925480Y-28810202D01*
X145932559Y-28810000D01*
X146275000Y-28810000D01*
X146275000Y-28587172D01*
X146274999Y-28587155D01*
X146268598Y-28527627D01*
X146268596Y-28527620D01*
X146231652Y-28428567D01*
X146226668Y-28358876D01*
X146229897Y-28346934D01*
X146260262Y-28253482D01*
X146280598Y-28060000D01*
X146260262Y-27866518D01*
X146200144Y-27681492D01*
X146200143Y-27681491D01*
X146200143Y-27681489D01*
X146200142Y-27681488D01*
X146166202Y-27622703D01*
X146102870Y-27513008D01*
X146051882Y-27456381D01*
X145972697Y-27368435D01*
X145972694Y-27368433D01*
X145972693Y-27368432D01*
X145972692Y-27368431D01*
X145893995Y-27311254D01*
X145815297Y-27254076D01*
X145678848Y-27193326D01*
X145637571Y-27174949D01*
X145637569Y-27174948D01*
X145447274Y-27134500D01*
X145252726Y-27134500D01*
X145062431Y-27174948D01*
X144884702Y-27254076D01*
X144727305Y-27368433D01*
X144727302Y-27368435D01*
X144597129Y-27513009D01*
X144499857Y-27681488D01*
X144499856Y-27681489D01*
X144439738Y-27866516D01*
X144419402Y-28059999D01*
X140359235Y-28059999D01*
X135434661Y-23135425D01*
X135401176Y-23074102D01*
X135398342Y-23047744D01*
X135398342Y-19823653D01*
X135418027Y-19756614D01*
X135425397Y-19746338D01*
X135427652Y-19743508D01*
X135427658Y-19743503D01*
X135485056Y-19652155D01*
X180900000Y-19652155D01*
X180900000Y-20450000D01*
X181641759Y-20450000D01*
X181628822Y-20481233D01*
X181600000Y-20626131D01*
X181600000Y-20773869D01*
X181628822Y-20918767D01*
X181641759Y-20950000D01*
X180900000Y-20950000D01*
X180900000Y-21747844D01*
X180906401Y-21807372D01*
X180906403Y-21807379D01*
X180956645Y-21942086D01*
X180956649Y-21942093D01*
X181042809Y-22057187D01*
X181042812Y-22057190D01*
X181157906Y-22143350D01*
X181157913Y-22143354D01*
X181292620Y-22193596D01*
X181292627Y-22193598D01*
X181352155Y-22199999D01*
X181352172Y-22200000D01*
X182750000Y-22200000D01*
X182750000Y-21450000D01*
X183250000Y-21450000D01*
X183250000Y-22200000D01*
X184647828Y-22200000D01*
X184647844Y-22199999D01*
X184707372Y-22193598D01*
X184707379Y-22193596D01*
X184842086Y-22143354D01*
X184842093Y-22143350D01*
X184957187Y-22057190D01*
X184957190Y-22057187D01*
X185043350Y-21942093D01*
X185043354Y-21942086D01*
X185093596Y-21807379D01*
X185093598Y-21807372D01*
X185099999Y-21747844D01*
X185100000Y-21747827D01*
X185100000Y-20950000D01*
X184358241Y-20950000D01*
X184371178Y-20918767D01*
X184400000Y-20773869D01*
X184400000Y-20626131D01*
X184371178Y-20481233D01*
X184358241Y-20450000D01*
X185100000Y-20450000D01*
X185100000Y-19652172D01*
X185099999Y-19652155D01*
X185093598Y-19592627D01*
X185093596Y-19592620D01*
X185043354Y-19457913D01*
X185043350Y-19457906D01*
X184957190Y-19342812D01*
X184957187Y-19342809D01*
X184842093Y-19256649D01*
X184842086Y-19256645D01*
X184707379Y-19206403D01*
X184707372Y-19206401D01*
X184647844Y-19200000D01*
X183250000Y-19200000D01*
X183250000Y-19950000D01*
X182750000Y-19950000D01*
X182750000Y-19200000D01*
X181352155Y-19200000D01*
X181292627Y-19206401D01*
X181292620Y-19206403D01*
X181157913Y-19256645D01*
X181157906Y-19256649D01*
X181042812Y-19342809D01*
X181042809Y-19342812D01*
X180956649Y-19457906D01*
X180956645Y-19457913D01*
X180906403Y-19592620D01*
X180906401Y-19592627D01*
X180900000Y-19652155D01*
X135485056Y-19652155D01*
X135523631Y-19590763D01*
X135583210Y-19420496D01*
X135591963Y-19342809D01*
X135603407Y-19241244D01*
X135603407Y-19241237D01*
X135583211Y-19061994D01*
X135583209Y-19061983D01*
X135559910Y-18995399D01*
X135556348Y-18925620D01*
X135571958Y-18888471D01*
X135628974Y-18797732D01*
X135628975Y-18797730D01*
X135688554Y-18627463D01*
X135688555Y-18627457D01*
X135708751Y-18448211D01*
X135708751Y-18448204D01*
X135688555Y-18268958D01*
X135688552Y-18268945D01*
X135628978Y-18098693D01*
X135627101Y-18094796D01*
X135615744Y-18025856D01*
X135621776Y-18000030D01*
X135622571Y-17997757D01*
X135622574Y-17997753D01*
X135675033Y-17847833D01*
X135682152Y-17827490D01*
X135682154Y-17827480D01*
X135702350Y-17648234D01*
X135702350Y-17648227D01*
X135696915Y-17599994D01*
X173994357Y-17599994D01*
X173994357Y-17600005D01*
X174014890Y-17847812D01*
X174014892Y-17847824D01*
X174075936Y-18088881D01*
X174175826Y-18316606D01*
X174311833Y-18524782D01*
X174311836Y-18524785D01*
X174480256Y-18707738D01*
X174676491Y-18860474D01*
X174895190Y-18978828D01*
X175130386Y-19059571D01*
X175375665Y-19100500D01*
X175624335Y-19100500D01*
X175869614Y-19059571D01*
X176104810Y-18978828D01*
X176323509Y-18860474D01*
X176519744Y-18707738D01*
X176688164Y-18524785D01*
X176824173Y-18316607D01*
X176924063Y-18088881D01*
X176985108Y-17847821D01*
X176985109Y-17847812D01*
X177005643Y-17600005D01*
X177005643Y-17599994D01*
X188494357Y-17599994D01*
X188494357Y-17600005D01*
X188514890Y-17847812D01*
X188514892Y-17847824D01*
X188575936Y-18088881D01*
X188675826Y-18316606D01*
X188811833Y-18524782D01*
X188811836Y-18524785D01*
X188980256Y-18707738D01*
X189176491Y-18860474D01*
X189395190Y-18978828D01*
X189630386Y-19059571D01*
X189875665Y-19100500D01*
X190124335Y-19100500D01*
X190369614Y-19059571D01*
X190604810Y-18978828D01*
X190823509Y-18860474D01*
X191019744Y-18707738D01*
X191188164Y-18524785D01*
X191324173Y-18316607D01*
X191424063Y-18088881D01*
X191485108Y-17847821D01*
X191485109Y-17847812D01*
X191505643Y-17600005D01*
X191505643Y-17599994D01*
X191485109Y-17352187D01*
X191485107Y-17352175D01*
X191424063Y-17111118D01*
X191324173Y-16883393D01*
X191188166Y-16675217D01*
X191166557Y-16651744D01*
X191019744Y-16492262D01*
X190823509Y-16339526D01*
X190823507Y-16339525D01*
X190823506Y-16339524D01*
X190604811Y-16221172D01*
X190604802Y-16221169D01*
X190369616Y-16140429D01*
X190124335Y-16099500D01*
X189875665Y-16099500D01*
X189630383Y-16140429D01*
X189395197Y-16221169D01*
X189395188Y-16221172D01*
X189176493Y-16339524D01*
X188980257Y-16492261D01*
X188811833Y-16675217D01*
X188675826Y-16883393D01*
X188575936Y-17111118D01*
X188514892Y-17352175D01*
X188514890Y-17352187D01*
X188494357Y-17599994D01*
X177005643Y-17599994D01*
X176985109Y-17352187D01*
X176985107Y-17352175D01*
X176924063Y-17111118D01*
X176824173Y-16883393D01*
X176688166Y-16675217D01*
X176667860Y-16653159D01*
X176519744Y-16492262D01*
X176418623Y-16413556D01*
X176377810Y-16356846D01*
X176373697Y-16327249D01*
X175629409Y-15582962D01*
X175692993Y-15565925D01*
X175807007Y-15500099D01*
X175900099Y-15407007D01*
X175965925Y-15292993D01*
X175982962Y-15229410D01*
X176723434Y-15969882D01*
X176823731Y-15816369D01*
X176923587Y-15588717D01*
X176984612Y-15347738D01*
X176984614Y-15347729D01*
X177005141Y-15100005D01*
X177005141Y-15099994D01*
X176984614Y-14852270D01*
X176984612Y-14852261D01*
X176923587Y-14611282D01*
X176823732Y-14383632D01*
X176711515Y-14211870D01*
X176691328Y-14144981D01*
X176710508Y-14077795D01*
X176741013Y-14044782D01*
X176742329Y-14043796D01*
X176742331Y-14043796D01*
X176857546Y-13957546D01*
X176943796Y-13842331D01*
X176994091Y-13707483D01*
X177000500Y-13647873D01*
X177000499Y-12599994D01*
X188494357Y-12599994D01*
X188494357Y-12600005D01*
X188514890Y-12847812D01*
X188514892Y-12847824D01*
X188575936Y-13088881D01*
X188675826Y-13316606D01*
X188811833Y-13524782D01*
X188811836Y-13524785D01*
X188980256Y-13707738D01*
X189176491Y-13860474D01*
X189395190Y-13978828D01*
X189630386Y-14059571D01*
X189875665Y-14100500D01*
X190124335Y-14100500D01*
X190369614Y-14059571D01*
X190604810Y-13978828D01*
X190823509Y-13860474D01*
X191019744Y-13707738D01*
X191188164Y-13524785D01*
X191324173Y-13316607D01*
X191424063Y-13088881D01*
X191485108Y-12847821D01*
X191493477Y-12746820D01*
X191505643Y-12600005D01*
X191505643Y-12599994D01*
X191485109Y-12352187D01*
X191485107Y-12352175D01*
X191424063Y-12111118D01*
X191324173Y-11883393D01*
X191188166Y-11675217D01*
X191095788Y-11574868D01*
X191019744Y-11492262D01*
X190823509Y-11339526D01*
X190823507Y-11339525D01*
X190823506Y-11339524D01*
X190604811Y-11221172D01*
X190604802Y-11221169D01*
X190369616Y-11140429D01*
X190124335Y-11099500D01*
X189875665Y-11099500D01*
X189630383Y-11140429D01*
X189395197Y-11221169D01*
X189395188Y-11221172D01*
X189176493Y-11339524D01*
X188980257Y-11492261D01*
X188811833Y-11675217D01*
X188675826Y-11883393D01*
X188575936Y-12111118D01*
X188514892Y-12352175D01*
X188514890Y-12352187D01*
X188494357Y-12599994D01*
X177000499Y-12599994D01*
X177000499Y-11552128D01*
X176994091Y-11492517D01*
X176985972Y-11470750D01*
X176943797Y-11357671D01*
X176943793Y-11357664D01*
X176857547Y-11242455D01*
X176857544Y-11242452D01*
X176742335Y-11156206D01*
X176742328Y-11156202D01*
X176607482Y-11105908D01*
X176607483Y-11105908D01*
X176547883Y-11099501D01*
X176547881Y-11099500D01*
X176547873Y-11099500D01*
X176547864Y-11099500D01*
X174452129Y-11099500D01*
X174452123Y-11099501D01*
X174392516Y-11105908D01*
X174257671Y-11156202D01*
X174257664Y-11156206D01*
X174142455Y-11242452D01*
X174142452Y-11242455D01*
X174056206Y-11357664D01*
X174056202Y-11357671D01*
X174005908Y-11492517D01*
X174001980Y-11529056D01*
X173999501Y-11552123D01*
X173999500Y-11552135D01*
X173999500Y-13647870D01*
X173999501Y-13647876D01*
X174005908Y-13707483D01*
X174056202Y-13842328D01*
X174056206Y-13842335D01*
X174142452Y-13957544D01*
X174142455Y-13957547D01*
X174258986Y-14044783D01*
X174300857Y-14100717D01*
X174305841Y-14170408D01*
X174288484Y-14211870D01*
X174176267Y-14383631D01*
X174076412Y-14611282D01*
X174015387Y-14852261D01*
X174015385Y-14852270D01*
X173994859Y-15099994D01*
X173994859Y-15100005D01*
X174015385Y-15347729D01*
X174015387Y-15347738D01*
X174076412Y-15588717D01*
X174176266Y-15816364D01*
X174276564Y-15969882D01*
X175017037Y-15229408D01*
X175034075Y-15292993D01*
X175099901Y-15407007D01*
X175192993Y-15500099D01*
X175307007Y-15565925D01*
X175370590Y-15582962D01*
X174624100Y-16329450D01*
X174613482Y-16376148D01*
X174581376Y-16413556D01*
X174480255Y-16492262D01*
X174311833Y-16675217D01*
X174175826Y-16883393D01*
X174075936Y-17111118D01*
X174014892Y-17352175D01*
X174014890Y-17352187D01*
X173994357Y-17599994D01*
X135696915Y-17599994D01*
X135682154Y-17468981D01*
X135682153Y-17468976D01*
X135674999Y-17448532D01*
X135622574Y-17298709D01*
X135622572Y-17298706D01*
X135622572Y-17298705D01*
X135614220Y-17285413D01*
X135595218Y-17218177D01*
X135614221Y-17153463D01*
X135619081Y-17145730D01*
X135678032Y-16977258D01*
X135678658Y-16975470D01*
X135678661Y-16975457D01*
X135698857Y-16796211D01*
X135698857Y-16796204D01*
X135678661Y-16616958D01*
X135678660Y-16616953D01*
X135619080Y-16446684D01*
X135551748Y-16339526D01*
X135523108Y-16293946D01*
X135395554Y-16166392D01*
X135354234Y-16140429D01*
X135242813Y-16070418D01*
X135072541Y-16010838D01*
X134985623Y-16001045D01*
X134921209Y-15973978D01*
X134911826Y-15965506D01*
X134865801Y-15919481D01*
X134865800Y-15919480D01*
X134778988Y-15869360D01*
X134778988Y-15869359D01*
X134778984Y-15869358D01*
X134728869Y-15840423D01*
X134576141Y-15799499D01*
X134418027Y-15799499D01*
X134410431Y-15799499D01*
X134410415Y-15799500D01*
X129720940Y-15799500D01*
X129680019Y-15810464D01*
X129680019Y-15810465D01*
X129642751Y-15820451D01*
X129568214Y-15840423D01*
X129568209Y-15840426D01*
X129431290Y-15919475D01*
X129431282Y-15919481D01*
X129319478Y-16031286D01*
X126237584Y-19113181D01*
X126176261Y-19146666D01*
X126149903Y-19149500D01*
X120450097Y-19149500D01*
X120383058Y-19129815D01*
X120362416Y-19113181D01*
X115549231Y-14299996D01*
X133694435Y-14299996D01*
X133694435Y-14300003D01*
X133714630Y-14479249D01*
X133714631Y-14479254D01*
X133774211Y-14649523D01*
X133864360Y-14792993D01*
X133870184Y-14802262D01*
X133997738Y-14929816D01*
X134150478Y-15025789D01*
X134320745Y-15085368D01*
X134320750Y-15085369D01*
X134499996Y-15105565D01*
X134500000Y-15105565D01*
X134500004Y-15105565D01*
X134679249Y-15085369D01*
X134679252Y-15085368D01*
X134679255Y-15085368D01*
X134849522Y-15025789D01*
X135002262Y-14929816D01*
X135129816Y-14802262D01*
X135225789Y-14649522D01*
X135285368Y-14479255D01*
X135305565Y-14300000D01*
X135295635Y-14211870D01*
X135285369Y-14120750D01*
X135285368Y-14120745D01*
X135255848Y-14036382D01*
X135225789Y-13950478D01*
X135129816Y-13797738D01*
X135129814Y-13797736D01*
X135129813Y-13797734D01*
X135127550Y-13794896D01*
X135126659Y-13792715D01*
X135126111Y-13791842D01*
X135126264Y-13791745D01*
X135101144Y-13730209D01*
X135100500Y-13717587D01*
X135100500Y-12443706D01*
X135120185Y-12376667D01*
X135158529Y-12338712D01*
X135252259Y-12279818D01*
X135252259Y-12279817D01*
X135252262Y-12279816D01*
X135379816Y-12152262D01*
X135475789Y-11999522D01*
X135535368Y-11829255D01*
X135546572Y-11729815D01*
X135555565Y-11650003D01*
X135555565Y-11649996D01*
X135535369Y-11470750D01*
X135535368Y-11470745D01*
X135497782Y-11363330D01*
X135475789Y-11300478D01*
X135379816Y-11147738D01*
X135252262Y-11020184D01*
X135252261Y-11020183D01*
X135208528Y-10992704D01*
X135162237Y-10940370D01*
X135150500Y-10887710D01*
X135150500Y-10532412D01*
X135170185Y-10465373D01*
X135177555Y-10455097D01*
X135179810Y-10452267D01*
X135179816Y-10452262D01*
X135275789Y-10299522D01*
X135335368Y-10129255D01*
X135340629Y-10082563D01*
X135355565Y-9950003D01*
X135355565Y-9949996D01*
X135335369Y-9770750D01*
X135335368Y-9770745D01*
X135275788Y-9600476D01*
X135179815Y-9447737D01*
X135052262Y-9320184D01*
X134899523Y-9224211D01*
X134729254Y-9164631D01*
X134729249Y-9164630D01*
X134550004Y-9144435D01*
X134549996Y-9144435D01*
X134370750Y-9164630D01*
X134370745Y-9164631D01*
X134200476Y-9224211D01*
X134047737Y-9320184D01*
X133920184Y-9447737D01*
X133824211Y-9600476D01*
X133764631Y-9770745D01*
X133764630Y-9770750D01*
X133744435Y-9949996D01*
X133744435Y-9950003D01*
X133764630Y-10129249D01*
X133764631Y-10129254D01*
X133824211Y-10299523D01*
X133920185Y-10452263D01*
X133922445Y-10455097D01*
X133923334Y-10457275D01*
X133923889Y-10458158D01*
X133923734Y-10458255D01*
X133948855Y-10519783D01*
X133949500Y-10532412D01*
X133949500Y-11363330D01*
X133949499Y-11363348D01*
X133949499Y-11529056D01*
X133950560Y-11537114D01*
X133950076Y-11537177D01*
X133952899Y-11574868D01*
X133944844Y-11646361D01*
X133941399Y-11664571D01*
X133899499Y-11820943D01*
X133899499Y-11989046D01*
X133899500Y-11989059D01*
X133899500Y-13717587D01*
X133879815Y-13784626D01*
X133872450Y-13794896D01*
X133870186Y-13797734D01*
X133774211Y-13950476D01*
X133714631Y-14120745D01*
X133714630Y-14120750D01*
X133694435Y-14299996D01*
X115549231Y-14299996D01*
X111987590Y-10738355D01*
X111987588Y-10738352D01*
X111868717Y-10619481D01*
X111868716Y-10619480D01*
X111781904Y-10569360D01*
X111781904Y-10569359D01*
X111781900Y-10569358D01*
X111731785Y-10540423D01*
X111579057Y-10499499D01*
X111420943Y-10499499D01*
X111413347Y-10499499D01*
X111413331Y-10499500D01*
X65582412Y-10499500D01*
X65515373Y-10479815D01*
X65505097Y-10472445D01*
X65502263Y-10470185D01*
X65502262Y-10470184D01*
X65445496Y-10434515D01*
X65349523Y-10374211D01*
X65179254Y-10314631D01*
X65179249Y-10314630D01*
X65000004Y-10294435D01*
X64999996Y-10294435D01*
X64820750Y-10314630D01*
X64820745Y-10314631D01*
X64650476Y-10374211D01*
X64497737Y-10470184D01*
X64370184Y-10597737D01*
X64274211Y-10750476D01*
X64214631Y-10920745D01*
X64214630Y-10920750D01*
X64194435Y-11099996D01*
X64194435Y-11100003D01*
X64214630Y-11279249D01*
X64214631Y-11279254D01*
X64274211Y-11449523D01*
X64338683Y-11552129D01*
X64370184Y-11602262D01*
X64497738Y-11729816D01*
X64588080Y-11786582D01*
X64642765Y-11820943D01*
X64650478Y-11825789D01*
X64792544Y-11875500D01*
X64820745Y-11885368D01*
X64820750Y-11885369D01*
X64999996Y-11905565D01*
X65000000Y-11905565D01*
X65000004Y-11905565D01*
X65179249Y-11885369D01*
X65179252Y-11885368D01*
X65179255Y-11885368D01*
X65349522Y-11825789D01*
X65502262Y-11729816D01*
X65502267Y-11729810D01*
X65505097Y-11727555D01*
X65507275Y-11726665D01*
X65508158Y-11726111D01*
X65508255Y-11726265D01*
X65569783Y-11701145D01*
X65582412Y-11700500D01*
X111199903Y-11700500D01*
X111266942Y-11720185D01*
X111287584Y-11736819D01*
X118888584Y-19337819D01*
X118922069Y-19399142D01*
X118917085Y-19468834D01*
X118875213Y-19524767D01*
X118809749Y-19549184D01*
X118800903Y-19549500D01*
X117100098Y-19549500D01*
X117033059Y-19529815D01*
X117012417Y-19513181D01*
X111380700Y-13881465D01*
X111347215Y-13820142D01*
X111345163Y-13807686D01*
X111335368Y-13720745D01*
X111275789Y-13550478D01*
X111179816Y-13397738D01*
X111052262Y-13270184D01*
X110999162Y-13236819D01*
X110899523Y-13174211D01*
X110729254Y-13114631D01*
X110729249Y-13114630D01*
X110550004Y-13094435D01*
X110549996Y-13094435D01*
X110370750Y-13114630D01*
X110370745Y-13114631D01*
X110200476Y-13174211D01*
X110047737Y-13270184D01*
X109920184Y-13397737D01*
X109824211Y-13550476D01*
X109764631Y-13720745D01*
X109764630Y-13720750D01*
X109744435Y-13899996D01*
X109744435Y-13900003D01*
X109764630Y-14079249D01*
X109764631Y-14079254D01*
X109824211Y-14249523D01*
X109835272Y-14267126D01*
X109920184Y-14402262D01*
X110047738Y-14529816D01*
X110200478Y-14625789D01*
X110370745Y-14685368D01*
X110457669Y-14695161D01*
X110522080Y-14722226D01*
X110531464Y-14730699D01*
X116431284Y-20630520D01*
X116431286Y-20630521D01*
X116431290Y-20630524D01*
X116544088Y-20695647D01*
X116568216Y-20709577D01*
X116720943Y-20750501D01*
X116720945Y-20750501D01*
X116886654Y-20750501D01*
X116886670Y-20750500D01*
X126400903Y-20750500D01*
X126467942Y-20770185D01*
X126513697Y-20822989D01*
X126523641Y-20892147D01*
X126494616Y-20955703D01*
X126488584Y-20962181D01*
X123987584Y-23463181D01*
X123926261Y-23496666D01*
X123899903Y-23499500D01*
X16300097Y-23499500D01*
X16233058Y-23479815D01*
X16212416Y-23463181D01*
X15137824Y-22388589D01*
X15104339Y-22327266D01*
X15109323Y-22257574D01*
X15151195Y-22201641D01*
X15216659Y-22177224D01*
X15268840Y-22184727D01*
X15292619Y-22193596D01*
X15292627Y-22193598D01*
X15352155Y-22199999D01*
X15352172Y-22200000D01*
X16750000Y-22200000D01*
X16750000Y-21450000D01*
X17250000Y-21450000D01*
X17250000Y-22200000D01*
X18647828Y-22200000D01*
X18647844Y-22199999D01*
X18707372Y-22193598D01*
X18707379Y-22193596D01*
X18842086Y-22143354D01*
X18842093Y-22143350D01*
X18957187Y-22057190D01*
X18957190Y-22057187D01*
X19043350Y-21942093D01*
X19043354Y-21942086D01*
X19093596Y-21807379D01*
X19093598Y-21807372D01*
X19099999Y-21747844D01*
X19100000Y-21747827D01*
X19100000Y-20950000D01*
X18358241Y-20950000D01*
X18371178Y-20918767D01*
X18400000Y-20773869D01*
X18400000Y-20626131D01*
X18371178Y-20481233D01*
X18358241Y-20450000D01*
X19100000Y-20450000D01*
X19100000Y-19652172D01*
X19099999Y-19652155D01*
X19093598Y-19592627D01*
X19093596Y-19592620D01*
X19043354Y-19457913D01*
X19043350Y-19457906D01*
X18957190Y-19342812D01*
X18957187Y-19342809D01*
X18842093Y-19256649D01*
X18842086Y-19256645D01*
X18707379Y-19206403D01*
X18707372Y-19206401D01*
X18647844Y-19200000D01*
X17250000Y-19200000D01*
X17250000Y-19950000D01*
X16750000Y-19950000D01*
X16750000Y-19200000D01*
X15352155Y-19200000D01*
X15292627Y-19206401D01*
X15292620Y-19206403D01*
X15157913Y-19256645D01*
X15157906Y-19256649D01*
X15042812Y-19342809D01*
X15042809Y-19342812D01*
X14956649Y-19457906D01*
X14956645Y-19457913D01*
X14906403Y-19592620D01*
X14906401Y-19592627D01*
X14900000Y-19652155D01*
X14900000Y-20450000D01*
X15641759Y-20450000D01*
X15628822Y-20481233D01*
X15600000Y-20626131D01*
X15600000Y-20773869D01*
X15628822Y-20918767D01*
X15641759Y-20950000D01*
X14900000Y-20950000D01*
X14900000Y-21747844D01*
X14906401Y-21807372D01*
X14906403Y-21807379D01*
X14915273Y-21831161D01*
X14920257Y-21900853D01*
X14886772Y-21962176D01*
X14825449Y-21995660D01*
X14755757Y-21990676D01*
X14711410Y-21962175D01*
X10956516Y-18207281D01*
X10923031Y-18145958D01*
X10923992Y-18089159D01*
X10924061Y-18088884D01*
X10924063Y-18088881D01*
X10985108Y-17847821D01*
X10985109Y-17847812D01*
X11005643Y-17600005D01*
X11005643Y-17599994D01*
X22494357Y-17599994D01*
X22494357Y-17600005D01*
X22514890Y-17847812D01*
X22514892Y-17847824D01*
X22575936Y-18088881D01*
X22675826Y-18316606D01*
X22811833Y-18524782D01*
X22811836Y-18524785D01*
X22980256Y-18707738D01*
X23176491Y-18860474D01*
X23395190Y-18978828D01*
X23630386Y-19059571D01*
X23875665Y-19100500D01*
X24124335Y-19100500D01*
X24369614Y-19059571D01*
X24604810Y-18978828D01*
X24729367Y-18911421D01*
X93794500Y-18911421D01*
X93794500Y-19088578D01*
X93822214Y-19263556D01*
X93876956Y-19432039D01*
X93876957Y-19432042D01*
X93924204Y-19524767D01*
X93957386Y-19589890D01*
X94061517Y-19733214D01*
X94186786Y-19858483D01*
X94330110Y-19962614D01*
X94361920Y-19978822D01*
X94487957Y-20043042D01*
X94487960Y-20043043D01*
X94572201Y-20070414D01*
X94656445Y-20097786D01*
X94831421Y-20125500D01*
X94831422Y-20125500D01*
X95008578Y-20125500D01*
X95008579Y-20125500D01*
X95183555Y-20097786D01*
X95352042Y-20043042D01*
X95509890Y-19962614D01*
X95653214Y-19858483D01*
X95778483Y-19733214D01*
X95882614Y-19589890D01*
X95963042Y-19432042D01*
X96017786Y-19263555D01*
X96045500Y-19088579D01*
X96045500Y-18911421D01*
X96036165Y-18852486D01*
X97749500Y-18852486D01*
X97749500Y-19147513D01*
X97763869Y-19256649D01*
X97788007Y-19439993D01*
X97844860Y-19652172D01*
X97864361Y-19724951D01*
X97864364Y-19724961D01*
X97977254Y-19997500D01*
X97977258Y-19997510D01*
X98124761Y-20252993D01*
X98304352Y-20487040D01*
X98304358Y-20487047D01*
X98512952Y-20695641D01*
X98512959Y-20695647D01*
X98747006Y-20875238D01*
X99002489Y-21022741D01*
X99002490Y-21022741D01*
X99002493Y-21022743D01*
X99275048Y-21135639D01*
X99560007Y-21211993D01*
X99852494Y-21250500D01*
X99852501Y-21250500D01*
X100147499Y-21250500D01*
X100147506Y-21250500D01*
X100439993Y-21211993D01*
X100724952Y-21135639D01*
X100997507Y-21022743D01*
X101252994Y-20875238D01*
X101487042Y-20695646D01*
X101695646Y-20487042D01*
X101875238Y-20252994D01*
X102022743Y-19997507D01*
X102135639Y-19724952D01*
X102211993Y-19439993D01*
X102250500Y-19147506D01*
X102250500Y-18911421D01*
X103954500Y-18911421D01*
X103954500Y-19088578D01*
X103982214Y-19263556D01*
X104036956Y-19432039D01*
X104036957Y-19432042D01*
X104084204Y-19524767D01*
X104117386Y-19589890D01*
X104221517Y-19733214D01*
X104346786Y-19858483D01*
X104490110Y-19962614D01*
X104521920Y-19978822D01*
X104647957Y-20043042D01*
X104647960Y-20043043D01*
X104732201Y-20070414D01*
X104816445Y-20097786D01*
X104991421Y-20125500D01*
X104991422Y-20125500D01*
X105168578Y-20125500D01*
X105168579Y-20125500D01*
X105343555Y-20097786D01*
X105512042Y-20043042D01*
X105669890Y-19962614D01*
X105813214Y-19858483D01*
X105938483Y-19733214D01*
X106042614Y-19589890D01*
X106123042Y-19432042D01*
X106177786Y-19263555D01*
X106205500Y-19088579D01*
X106205500Y-18911421D01*
X106177786Y-18736445D01*
X106123042Y-18567958D01*
X106123042Y-18567957D01*
X106082061Y-18487529D01*
X106042614Y-18410110D01*
X105938483Y-18266786D01*
X105813214Y-18141517D01*
X105669890Y-18037386D01*
X105512042Y-17956957D01*
X105512039Y-17956956D01*
X105343556Y-17902214D01*
X105256067Y-17888357D01*
X105168579Y-17874500D01*
X104991421Y-17874500D01*
X104933095Y-17883738D01*
X104816443Y-17902214D01*
X104647960Y-17956956D01*
X104647957Y-17956957D01*
X104490109Y-18037386D01*
X104411092Y-18094796D01*
X104346786Y-18141517D01*
X104346784Y-18141519D01*
X104346783Y-18141519D01*
X104221519Y-18266783D01*
X104221519Y-18266784D01*
X104221517Y-18266786D01*
X104185321Y-18316606D01*
X104117386Y-18410109D01*
X104036957Y-18567957D01*
X104036956Y-18567960D01*
X103982214Y-18736443D01*
X103954500Y-18911421D01*
X102250500Y-18911421D01*
X102250500Y-18852494D01*
X102211993Y-18560007D01*
X102135639Y-18275048D01*
X102134615Y-18272577D01*
X102087562Y-18158981D01*
X102022743Y-18002493D01*
X102020006Y-17997753D01*
X101875238Y-17747006D01*
X101695647Y-17512959D01*
X101695641Y-17512952D01*
X101487047Y-17304358D01*
X101487040Y-17304352D01*
X101252993Y-17124761D01*
X100997510Y-16977258D01*
X100997500Y-16977254D01*
X100724961Y-16864364D01*
X100724954Y-16864362D01*
X100724952Y-16864361D01*
X100439993Y-16788007D01*
X100391113Y-16781571D01*
X100147513Y-16749500D01*
X100147506Y-16749500D01*
X99852494Y-16749500D01*
X99852486Y-16749500D01*
X99574085Y-16786153D01*
X99560007Y-16788007D01*
X99275048Y-16864361D01*
X99275038Y-16864364D01*
X99002499Y-16977254D01*
X99002489Y-16977258D01*
X98747006Y-17124761D01*
X98512959Y-17304352D01*
X98512952Y-17304358D01*
X98304358Y-17512952D01*
X98304352Y-17512959D01*
X98124761Y-17747006D01*
X97977258Y-18002489D01*
X97977254Y-18002499D01*
X97864364Y-18275038D01*
X97864361Y-18275048D01*
X97797446Y-18524782D01*
X97788008Y-18560004D01*
X97788006Y-18560015D01*
X97749500Y-18852486D01*
X96036165Y-18852486D01*
X96017786Y-18736445D01*
X95963042Y-18567958D01*
X95963040Y-18567952D01*
X95880513Y-18405987D01*
X95867616Y-18337317D01*
X95893892Y-18272577D01*
X95950998Y-18232319D01*
X96007181Y-18226752D01*
X96066564Y-18234570D01*
X96073612Y-18235498D01*
X96073628Y-18235500D01*
X96073635Y-18235500D01*
X96306365Y-18235500D01*
X96306372Y-18235500D01*
X96537126Y-18205121D01*
X96761940Y-18144882D01*
X96897140Y-18088881D01*
X96976960Y-18055819D01*
X96976963Y-18055817D01*
X96976969Y-18055815D01*
X97178532Y-17939442D01*
X97363181Y-17797756D01*
X97527756Y-17633181D01*
X97669442Y-17448532D01*
X97785815Y-17246969D01*
X97874882Y-17031940D01*
X97935121Y-16807126D01*
X97965500Y-16576372D01*
X97965500Y-16343628D01*
X97935121Y-16112874D01*
X97874882Y-15888060D01*
X97874879Y-15888052D01*
X97785819Y-15673039D01*
X97785811Y-15673023D01*
X97669446Y-15471475D01*
X97669442Y-15471468D01*
X97574494Y-15347729D01*
X97527757Y-15286820D01*
X97527751Y-15286813D01*
X97363186Y-15122248D01*
X97363179Y-15122242D01*
X97178540Y-14980564D01*
X97178538Y-14980562D01*
X97178532Y-14980558D01*
X97178527Y-14980555D01*
X97178524Y-14980553D01*
X96976976Y-14864188D01*
X96976960Y-14864180D01*
X96761947Y-14775120D01*
X96596170Y-14730700D01*
X96537126Y-14714879D01*
X96537125Y-14714878D01*
X96537122Y-14714878D01*
X96306382Y-14684501D01*
X96306377Y-14684500D01*
X96306372Y-14684500D01*
X96073628Y-14684500D01*
X96073622Y-14684500D01*
X96073617Y-14684501D01*
X95842877Y-14714878D01*
X95618052Y-14775120D01*
X95403039Y-14864180D01*
X95403023Y-14864188D01*
X95201475Y-14980553D01*
X95201459Y-14980564D01*
X95016820Y-15122242D01*
X95016813Y-15122248D01*
X94852248Y-15286813D01*
X94852242Y-15286820D01*
X94710564Y-15471459D01*
X94710553Y-15471475D01*
X94594188Y-15673023D01*
X94594180Y-15673039D01*
X94505120Y-15888052D01*
X94444878Y-16112877D01*
X94414501Y-16343617D01*
X94414500Y-16343634D01*
X94414500Y-16576365D01*
X94414501Y-16576382D01*
X94444878Y-16807122D01*
X94505120Y-17031947D01*
X94594180Y-17246960D01*
X94594188Y-17246976D01*
X94710553Y-17448524D01*
X94710564Y-17448540D01*
X94852242Y-17633179D01*
X94852248Y-17633186D01*
X94885636Y-17666574D01*
X94919121Y-17727897D01*
X94914137Y-17797589D01*
X94872265Y-17853522D01*
X94817353Y-17876728D01*
X94656443Y-17902214D01*
X94487960Y-17956956D01*
X94487957Y-17956957D01*
X94330109Y-18037386D01*
X94251092Y-18094796D01*
X94186786Y-18141517D01*
X94186784Y-18141519D01*
X94186783Y-18141519D01*
X94061519Y-18266783D01*
X94061519Y-18266784D01*
X94061517Y-18266786D01*
X94025321Y-18316606D01*
X93957386Y-18410109D01*
X93876957Y-18567957D01*
X93876956Y-18567960D01*
X93822214Y-18736443D01*
X93794500Y-18911421D01*
X24729367Y-18911421D01*
X24823509Y-18860474D01*
X25019744Y-18707738D01*
X25188164Y-18524785D01*
X25324173Y-18316607D01*
X25424063Y-18088881D01*
X25485108Y-17847821D01*
X25485109Y-17847812D01*
X25505643Y-17600005D01*
X25505643Y-17599994D01*
X25485109Y-17352187D01*
X25485107Y-17352175D01*
X25424063Y-17111118D01*
X25324173Y-16883393D01*
X25188166Y-16675217D01*
X25166557Y-16651744D01*
X25019744Y-16492262D01*
X24823509Y-16339526D01*
X24823507Y-16339525D01*
X24823506Y-16339524D01*
X24604811Y-16221172D01*
X24604802Y-16221169D01*
X24369616Y-16140429D01*
X24124335Y-16099500D01*
X23875665Y-16099500D01*
X23630383Y-16140429D01*
X23395197Y-16221169D01*
X23395188Y-16221172D01*
X23176493Y-16339524D01*
X22980257Y-16492261D01*
X22811833Y-16675217D01*
X22675826Y-16883393D01*
X22575936Y-17111118D01*
X22514892Y-17352175D01*
X22514890Y-17352187D01*
X22494357Y-17599994D01*
X11005643Y-17599994D01*
X10985109Y-17352187D01*
X10985107Y-17352175D01*
X10924063Y-17111118D01*
X10824173Y-16883393D01*
X10688166Y-16675217D01*
X10667860Y-16653159D01*
X10519744Y-16492262D01*
X10418623Y-16413556D01*
X10377810Y-16356846D01*
X10373697Y-16327249D01*
X9629409Y-15582962D01*
X9692993Y-15565925D01*
X9807007Y-15500099D01*
X9900099Y-15407007D01*
X9965925Y-15292993D01*
X9982962Y-15229410D01*
X10723434Y-15969882D01*
X10823731Y-15816369D01*
X10923587Y-15588717D01*
X10984612Y-15347738D01*
X10984614Y-15347729D01*
X11005141Y-15100005D01*
X11005141Y-15099994D01*
X10984614Y-14852270D01*
X10984612Y-14852261D01*
X10923587Y-14611282D01*
X10823732Y-14383632D01*
X10711515Y-14211870D01*
X10691328Y-14144981D01*
X10710508Y-14077795D01*
X10741013Y-14044782D01*
X10742329Y-14043796D01*
X10742331Y-14043796D01*
X10857546Y-13957546D01*
X10943796Y-13842331D01*
X10994091Y-13707483D01*
X11000500Y-13647873D01*
X11000499Y-12599994D01*
X22494357Y-12599994D01*
X22494357Y-12600005D01*
X22514890Y-12847812D01*
X22514892Y-12847824D01*
X22575936Y-13088881D01*
X22675826Y-13316606D01*
X22811833Y-13524782D01*
X22811836Y-13524785D01*
X22980256Y-13707738D01*
X23176491Y-13860474D01*
X23395190Y-13978828D01*
X23630386Y-14059571D01*
X23875665Y-14100500D01*
X24124335Y-14100500D01*
X24369614Y-14059571D01*
X24604810Y-13978828D01*
X24823509Y-13860474D01*
X24896537Y-13803634D01*
X100764500Y-13803634D01*
X100764500Y-14036365D01*
X100764501Y-14036382D01*
X100792561Y-14249523D01*
X100794879Y-14267126D01*
X100851717Y-14479249D01*
X100855120Y-14491947D01*
X100944180Y-14706960D01*
X100944188Y-14706976D01*
X101060553Y-14908524D01*
X101060557Y-14908531D01*
X101060559Y-14908533D01*
X101202242Y-15093179D01*
X101202248Y-15093186D01*
X101366813Y-15257751D01*
X101366820Y-15257757D01*
X101404696Y-15286820D01*
X101551468Y-15399442D01*
X101551475Y-15399446D01*
X101753023Y-15515811D01*
X101753039Y-15515819D01*
X101968052Y-15604879D01*
X101968054Y-15604879D01*
X101968060Y-15604882D01*
X102192874Y-15665121D01*
X102423628Y-15695500D01*
X102423635Y-15695500D01*
X102656365Y-15695500D01*
X102656372Y-15695500D01*
X102887126Y-15665121D01*
X103111940Y-15604882D01*
X103169953Y-15580852D01*
X103326960Y-15515819D01*
X103326963Y-15515817D01*
X103326969Y-15515815D01*
X103528532Y-15399442D01*
X103713181Y-15257756D01*
X103877756Y-15093181D01*
X104019442Y-14908532D01*
X104135815Y-14706969D01*
X104140707Y-14695160D01*
X104224879Y-14491947D01*
X104224878Y-14491947D01*
X104224882Y-14491940D01*
X104285121Y-14267126D01*
X104315500Y-14036372D01*
X104315500Y-13803628D01*
X104285121Y-13572874D01*
X104224882Y-13348060D01*
X104224879Y-13348052D01*
X104135819Y-13133039D01*
X104135811Y-13133023D01*
X104019446Y-12931475D01*
X104019442Y-12931468D01*
X103955260Y-12847824D01*
X103877757Y-12746820D01*
X103877751Y-12746813D01*
X103713186Y-12582248D01*
X103713179Y-12582242D01*
X103528540Y-12440564D01*
X103528538Y-12440562D01*
X103528532Y-12440558D01*
X103528527Y-12440555D01*
X103528524Y-12440553D01*
X103326976Y-12324188D01*
X103326960Y-12324180D01*
X103111947Y-12235120D01*
X103097638Y-12231286D01*
X102887126Y-12174879D01*
X102887125Y-12174878D01*
X102887122Y-12174878D01*
X102656382Y-12144501D01*
X102656377Y-12144500D01*
X102656372Y-12144500D01*
X102423628Y-12144500D01*
X102423622Y-12144500D01*
X102423617Y-12144501D01*
X102192877Y-12174878D01*
X101968052Y-12235120D01*
X101753039Y-12324180D01*
X101753023Y-12324188D01*
X101551475Y-12440553D01*
X101551459Y-12440564D01*
X101366820Y-12582242D01*
X101366813Y-12582248D01*
X101202248Y-12746813D01*
X101202242Y-12746820D01*
X101060564Y-12931459D01*
X101060553Y-12931475D01*
X100944188Y-13133023D01*
X100944180Y-13133039D01*
X100855120Y-13348052D01*
X100794878Y-13572877D01*
X100764501Y-13803617D01*
X100764500Y-13803634D01*
X24896537Y-13803634D01*
X25019744Y-13707738D01*
X25188164Y-13524785D01*
X25324173Y-13316607D01*
X25424063Y-13088881D01*
X25485108Y-12847821D01*
X25493477Y-12746820D01*
X25505643Y-12600005D01*
X25505643Y-12599994D01*
X25485109Y-12352187D01*
X25485107Y-12352175D01*
X25424063Y-12111118D01*
X25324173Y-11883393D01*
X25188166Y-11675217D01*
X25095788Y-11574868D01*
X25019744Y-11492262D01*
X24823509Y-11339526D01*
X24823507Y-11339525D01*
X24823506Y-11339524D01*
X24604811Y-11221172D01*
X24604802Y-11221169D01*
X24369616Y-11140429D01*
X24124335Y-11099500D01*
X23875665Y-11099500D01*
X23630383Y-11140429D01*
X23395197Y-11221169D01*
X23395188Y-11221172D01*
X23176493Y-11339524D01*
X22980257Y-11492261D01*
X22811833Y-11675217D01*
X22675826Y-11883393D01*
X22575936Y-12111118D01*
X22514892Y-12352175D01*
X22514890Y-12352187D01*
X22494357Y-12599994D01*
X11000499Y-12599994D01*
X11000499Y-11552128D01*
X10994091Y-11492517D01*
X10985972Y-11470750D01*
X10943797Y-11357671D01*
X10943793Y-11357664D01*
X10857547Y-11242455D01*
X10857544Y-11242452D01*
X10742335Y-11156206D01*
X10742328Y-11156202D01*
X10607482Y-11105908D01*
X10607483Y-11105908D01*
X10547883Y-11099501D01*
X10547881Y-11099500D01*
X10547873Y-11099500D01*
X10547864Y-11099500D01*
X8452129Y-11099500D01*
X8452123Y-11099501D01*
X8392516Y-11105908D01*
X8257671Y-11156202D01*
X8257664Y-11156206D01*
X8142455Y-11242452D01*
X8142452Y-11242455D01*
X8056206Y-11357664D01*
X8056202Y-11357671D01*
X8005908Y-11492517D01*
X8001980Y-11529056D01*
X7999501Y-11552123D01*
X7999500Y-11552135D01*
X7999500Y-11875500D01*
X7979815Y-11942539D01*
X7927011Y-11988294D01*
X7875500Y-11999500D01*
X6879057Y-11999500D01*
X6720942Y-11999500D01*
X6568215Y-12040423D01*
X6568214Y-12040423D01*
X6568212Y-12040424D01*
X6568209Y-12040425D01*
X6518096Y-12069359D01*
X6518095Y-12069360D01*
X6474689Y-12094420D01*
X6431285Y-12119479D01*
X6431282Y-12119481D01*
X3719481Y-14831282D01*
X3719475Y-14831290D01*
X3674881Y-14908531D01*
X3674881Y-14908532D01*
X3640423Y-14968215D01*
X3599499Y-15120943D01*
X3599499Y-15120945D01*
X3599499Y-15289046D01*
X3599500Y-15289059D01*
X3599500Y-22263330D01*
X3599499Y-22263348D01*
X3599499Y-22429054D01*
X3599498Y-22429054D01*
X500500Y-22429054D01*
X500500Y-8452155D01*
X14900000Y-8452155D01*
X14900000Y-9250000D01*
X15641759Y-9250000D01*
X15628822Y-9281233D01*
X15600000Y-9426131D01*
X15600000Y-9573869D01*
X15628822Y-9718767D01*
X15641759Y-9750000D01*
X14900000Y-9750000D01*
X14900000Y-10547844D01*
X14906401Y-10607372D01*
X14906403Y-10607379D01*
X14956645Y-10742086D01*
X14956649Y-10742093D01*
X15042809Y-10857187D01*
X15042812Y-10857190D01*
X15157906Y-10943350D01*
X15157913Y-10943354D01*
X15292620Y-10993596D01*
X15292627Y-10993598D01*
X15352155Y-10999999D01*
X15352172Y-11000000D01*
X16750000Y-11000000D01*
X16750000Y-10250000D01*
X17250000Y-10250000D01*
X17250000Y-11000000D01*
X18647828Y-11000000D01*
X18647844Y-10999999D01*
X18707372Y-10993598D01*
X18707379Y-10993596D01*
X18842086Y-10943354D01*
X18842093Y-10943350D01*
X18957187Y-10857190D01*
X18957190Y-10857187D01*
X19043350Y-10742093D01*
X19043354Y-10742086D01*
X19093596Y-10607379D01*
X19093598Y-10607372D01*
X19099999Y-10547844D01*
X19100000Y-10547827D01*
X19100000Y-9750000D01*
X18358241Y-9750000D01*
X18371178Y-9718767D01*
X18400000Y-9573869D01*
X18400000Y-9426131D01*
X18371178Y-9281233D01*
X18358241Y-9250000D01*
X19100000Y-9250000D01*
X19100000Y-8452172D01*
X19099999Y-8452155D01*
X19093598Y-8392627D01*
X19093596Y-8392620D01*
X19043354Y-8257913D01*
X19043350Y-8257906D01*
X18957190Y-8142812D01*
X18957187Y-8142809D01*
X18842093Y-8056649D01*
X18842086Y-8056645D01*
X18707379Y-8006403D01*
X18707372Y-8006401D01*
X18647844Y-8000000D01*
X17250000Y-8000000D01*
X17250000Y-8750000D01*
X16750000Y-8750000D01*
X16750000Y-8000000D01*
X15352155Y-8000000D01*
X15292627Y-8006401D01*
X15292620Y-8006403D01*
X15157913Y-8056645D01*
X15157906Y-8056649D01*
X15042812Y-8142809D01*
X15042809Y-8142812D01*
X14956649Y-8257906D01*
X14956645Y-8257913D01*
X14906403Y-8392620D01*
X14906401Y-8392627D01*
X14900000Y-8452155D01*
X500500Y-8452155D01*
X500500Y-6204234D01*
X96534500Y-6204234D01*
X96534500Y-6355766D01*
X96547984Y-6406091D01*
X96573719Y-6502136D01*
X96595520Y-6539895D01*
X96649485Y-6633365D01*
X96756635Y-6740515D01*
X96887865Y-6816281D01*
X97034234Y-6855500D01*
X97034236Y-6855500D01*
X97185764Y-6855500D01*
X97185766Y-6855500D01*
X97332135Y-6816281D01*
X97463365Y-6740515D01*
X97570515Y-6633365D01*
X97646281Y-6502135D01*
X97685500Y-6355766D01*
X97685500Y-6204234D01*
X97652211Y-6079996D01*
X101017495Y-6079996D01*
X101017495Y-6080003D01*
X101037690Y-6259249D01*
X101037691Y-6259254D01*
X101097271Y-6429523D01*
X101166623Y-6539895D01*
X101193244Y-6582262D01*
X101320798Y-6709816D01*
X101473538Y-6805789D01*
X101583522Y-6844274D01*
X101643805Y-6865368D01*
X101643810Y-6865369D01*
X101823056Y-6885565D01*
X101823060Y-6885565D01*
X101823064Y-6885565D01*
X102002309Y-6865369D01*
X102002312Y-6865368D01*
X102002315Y-6865368D01*
X102172582Y-6805789D01*
X102325322Y-6709816D01*
X102327942Y-6707196D01*
X102330055Y-6706041D01*
X102330770Y-6705472D01*
X102330869Y-6705597D01*
X102389263Y-6673707D01*
X102458955Y-6678686D01*
X102503310Y-6707190D01*
X102536635Y-6740515D01*
X102667865Y-6816281D01*
X102814234Y-6855500D01*
X102814236Y-6855500D01*
X102965764Y-6855500D01*
X102965766Y-6855500D01*
X103112135Y-6816281D01*
X103243365Y-6740515D01*
X103350515Y-6633365D01*
X103426281Y-6502135D01*
X103465500Y-6355766D01*
X103465500Y-6204234D01*
X103426281Y-6057865D01*
X103421451Y-6049500D01*
X103404526Y-6020184D01*
X103350515Y-5926635D01*
X103243365Y-5819485D01*
X103186428Y-5786612D01*
X103138214Y-5736045D01*
X103136497Y-5727135D01*
X124174500Y-5727135D01*
X124174500Y-6672870D01*
X124174501Y-6672876D01*
X124180908Y-6732483D01*
X124231202Y-6867328D01*
X124231206Y-6867335D01*
X124317452Y-6982544D01*
X124317455Y-6982547D01*
X124432664Y-7068793D01*
X124432671Y-7068797D01*
X124567517Y-7119091D01*
X124567516Y-7119091D01*
X124574444Y-7119835D01*
X124627127Y-7125500D01*
X125572872Y-7125499D01*
X125632483Y-7119091D01*
X125725275Y-7084481D01*
X125794962Y-7079498D01*
X125806929Y-7082735D01*
X125812586Y-7084573D01*
X125849999Y-7092524D01*
X125850000Y-7092524D01*
X125850000Y-7066454D01*
X125869685Y-6999415D01*
X125877435Y-6989798D01*
X125877231Y-6989646D01*
X125882547Y-6982544D01*
X125968796Y-6867331D01*
X126019091Y-6732483D01*
X126025500Y-6672873D01*
X126025499Y-6652688D01*
X126045181Y-6585652D01*
X126097983Y-6539895D01*
X126167141Y-6529948D01*
X126230698Y-6558971D01*
X126256886Y-6590686D01*
X126308345Y-6679815D01*
X126325666Y-6709816D01*
X126333387Y-6723188D01*
X126350000Y-6785189D01*
X126350000Y-7092524D01*
X126387414Y-7084573D01*
X126387415Y-7084573D01*
X126548949Y-7012653D01*
X126618199Y-7003368D01*
X126649809Y-7012648D01*
X126812429Y-7085051D01*
X126812432Y-7085051D01*
X126812433Y-7085052D01*
X127002726Y-7125500D01*
X127197274Y-7125500D01*
X127387571Y-7085051D01*
X127565299Y-7005922D01*
X127722692Y-6891569D01*
X127744513Y-6867335D01*
X127755170Y-6855499D01*
X127852870Y-6746992D01*
X127950144Y-6578508D01*
X128010262Y-6393482D01*
X128030598Y-6200000D01*
X128010262Y-6006518D01*
X127950144Y-5821492D01*
X127950143Y-5821491D01*
X127950143Y-5821489D01*
X127950142Y-5821488D01*
X127895667Y-5727135D01*
X127852870Y-5653008D01*
X127801882Y-5596381D01*
X127722697Y-5508435D01*
X127722694Y-5508433D01*
X127722693Y-5508432D01*
X127722692Y-5508431D01*
X127642522Y-5450184D01*
X127565297Y-5394076D01*
X127424076Y-5331202D01*
X127387571Y-5314949D01*
X127387569Y-5314948D01*
X127197274Y-5274500D01*
X127002726Y-5274500D01*
X126812430Y-5314948D01*
X126812427Y-5314949D01*
X126649817Y-5387346D01*
X126580567Y-5396630D01*
X126548948Y-5387346D01*
X126387414Y-5315426D01*
X126350000Y-5307473D01*
X126350000Y-5614811D01*
X126333387Y-5676811D01*
X126256886Y-5809314D01*
X126206319Y-5857530D01*
X126137712Y-5870752D01*
X126072847Y-5844784D01*
X126032319Y-5787870D01*
X126025499Y-5747314D01*
X126025499Y-5727129D01*
X126025498Y-5727123D01*
X126025497Y-5727116D01*
X126019091Y-5667517D01*
X126013679Y-5653008D01*
X125968797Y-5532671D01*
X125968793Y-5532664D01*
X125877232Y-5410355D01*
X125879468Y-5408680D01*
X125852834Y-5359904D01*
X125850000Y-5333546D01*
X125850000Y-5307473D01*
X125812585Y-5315426D01*
X125806921Y-5317267D01*
X125737079Y-5319260D01*
X125725273Y-5315517D01*
X125632482Y-5280908D01*
X125632483Y-5280908D01*
X125572883Y-5274501D01*
X125572881Y-5274500D01*
X125572873Y-5274500D01*
X125572864Y-5274500D01*
X124627129Y-5274500D01*
X124627123Y-5274501D01*
X124567516Y-5280908D01*
X124432671Y-5331202D01*
X124432664Y-5331206D01*
X124317455Y-5417452D01*
X124317452Y-5417455D01*
X124231206Y-5532664D01*
X124231202Y-5532671D01*
X124180908Y-5667517D01*
X124175069Y-5721834D01*
X124174501Y-5727123D01*
X124174500Y-5727135D01*
X103136497Y-5727135D01*
X103124992Y-5667438D01*
X103150960Y-5602574D01*
X103160737Y-5591556D01*
X103315477Y-5436816D01*
X103376799Y-5403334D01*
X103403157Y-5400500D01*
X106417588Y-5400500D01*
X106484627Y-5420185D01*
X106494903Y-5427555D01*
X106497736Y-5429814D01*
X106497738Y-5429816D01*
X106650478Y-5525789D01*
X106670146Y-5532671D01*
X106820745Y-5585368D01*
X106820750Y-5585369D01*
X106999996Y-5605565D01*
X107000000Y-5605565D01*
X107000004Y-5605565D01*
X107179249Y-5585369D01*
X107179252Y-5585368D01*
X107179255Y-5585368D01*
X107349522Y-5525789D01*
X107502262Y-5429816D01*
X107629816Y-5302262D01*
X107725789Y-5149522D01*
X107785368Y-4979255D01*
X107786643Y-4967942D01*
X107805565Y-4800003D01*
X107805565Y-4799996D01*
X107785369Y-4620750D01*
X107785368Y-4620745D01*
X107725788Y-4450476D01*
X107629815Y-4297737D01*
X107502262Y-4170184D01*
X107349523Y-4074211D01*
X107179254Y-4014631D01*
X107179249Y-4014630D01*
X107000004Y-3994435D01*
X106999996Y-3994435D01*
X106820750Y-4014630D01*
X106820745Y-4014631D01*
X106650476Y-4074211D01*
X106497736Y-4170185D01*
X106494903Y-4172445D01*
X106492724Y-4173334D01*
X106491842Y-4173889D01*
X106491744Y-4173734D01*
X106430217Y-4198855D01*
X106417588Y-4199500D01*
X103024000Y-4199500D01*
X102983079Y-4210464D01*
X102983079Y-4210465D01*
X102945811Y-4220451D01*
X102871274Y-4240423D01*
X102871269Y-4240426D01*
X102734350Y-4319475D01*
X102734342Y-4319481D01*
X102622538Y-4431286D01*
X101804525Y-5249298D01*
X101743202Y-5282783D01*
X101730728Y-5284837D01*
X101643810Y-5294630D01*
X101473538Y-5354210D01*
X101320797Y-5450184D01*
X101193244Y-5577737D01*
X101097271Y-5730476D01*
X101037691Y-5900745D01*
X101037690Y-5900750D01*
X101017495Y-6079996D01*
X97652211Y-6079996D01*
X97646281Y-6057865D01*
X97641451Y-6049500D01*
X97624526Y-6020184D01*
X97570515Y-5926635D01*
X97463365Y-5819485D01*
X97397750Y-5781602D01*
X97332136Y-5743719D01*
X97250458Y-5721834D01*
X97185766Y-5704500D01*
X97034234Y-5704500D01*
X96887863Y-5743719D01*
X96756635Y-5819485D01*
X96756632Y-5819487D01*
X96649487Y-5926632D01*
X96649485Y-5926635D01*
X96573719Y-6057863D01*
X96567789Y-6079996D01*
X96534500Y-6204234D01*
X500500Y-6204234D01*
X500500Y-3003748D01*
X500726Y-2996262D01*
X512598Y-2799996D01*
X126144435Y-2799996D01*
X126144435Y-2800003D01*
X126164630Y-2979249D01*
X126164631Y-2979254D01*
X126224211Y-3149523D01*
X126320184Y-3302262D01*
X126447738Y-3429816D01*
X126538080Y-3486582D01*
X126597966Y-3524211D01*
X126600478Y-3525789D01*
X126678234Y-3552997D01*
X126770745Y-3585368D01*
X126770750Y-3585369D01*
X126949996Y-3605565D01*
X126950000Y-3605565D01*
X126950004Y-3605565D01*
X127129249Y-3585369D01*
X127129252Y-3585368D01*
X127129255Y-3585368D01*
X127299522Y-3525789D01*
X127452262Y-3429816D01*
X127452266Y-3429811D01*
X127455097Y-3427555D01*
X127457275Y-3426665D01*
X127458158Y-3426111D01*
X127458255Y-3426265D01*
X127519784Y-3401146D01*
X127532411Y-3400501D01*
X127579054Y-3400501D01*
X127579057Y-3400501D01*
X127731785Y-3359577D01*
X127781904Y-3330639D01*
X127868716Y-3280520D01*
X127980520Y-3168716D01*
X127980520Y-3168714D01*
X127990728Y-3158507D01*
X127990729Y-3158504D01*
X128812416Y-2336819D01*
X128873739Y-2303334D01*
X128900097Y-2300500D01*
X131369530Y-2300500D01*
X131436569Y-2320185D01*
X131482324Y-2372989D01*
X131492268Y-2442147D01*
X131463243Y-2505703D01*
X131457211Y-2512181D01*
X131420919Y-2548472D01*
X131324946Y-2701211D01*
X131265366Y-2871480D01*
X131265365Y-2871485D01*
X131245170Y-3050731D01*
X131245170Y-3050738D01*
X131265365Y-3229984D01*
X131265366Y-3229989D01*
X131324946Y-3400258D01*
X131420919Y-3552997D01*
X131529388Y-3661466D01*
X131562873Y-3722789D01*
X131557889Y-3792481D01*
X131546702Y-3815117D01*
X131524944Y-3849745D01*
X131465368Y-4020002D01*
X131465365Y-4020015D01*
X131445170Y-4199261D01*
X131445170Y-4199268D01*
X131465365Y-4378514D01*
X131465366Y-4378519D01*
X131524946Y-4548788D01*
X131620917Y-4701524D01*
X131622443Y-4703437D01*
X131623043Y-4704907D01*
X131624624Y-4707423D01*
X131624183Y-4707699D01*
X131648855Y-4768123D01*
X131649500Y-4780755D01*
X131649500Y-4900903D01*
X131629815Y-4967942D01*
X131577011Y-5013697D01*
X131507853Y-5023641D01*
X131444297Y-4994616D01*
X131437819Y-4988584D01*
X130487590Y-4038355D01*
X130487588Y-4038352D01*
X130368717Y-3919481D01*
X130368716Y-3919480D01*
X130259285Y-3856300D01*
X130259283Y-3856299D01*
X130231785Y-3840423D01*
X130231784Y-3840422D01*
X130231783Y-3840422D01*
X130175881Y-3825443D01*
X130079057Y-3799499D01*
X130079054Y-3799499D01*
X130032411Y-3799499D01*
X129965372Y-3779814D01*
X129955097Y-3772445D01*
X129952262Y-3770184D01*
X129799523Y-3674211D01*
X129629254Y-3614631D01*
X129629249Y-3614630D01*
X129450004Y-3594435D01*
X129449996Y-3594435D01*
X129270750Y-3614630D01*
X129270745Y-3614631D01*
X129100476Y-3674211D01*
X128947737Y-3770184D01*
X128820184Y-3897737D01*
X128724211Y-4050476D01*
X128664631Y-4220745D01*
X128664630Y-4220750D01*
X128644435Y-4399996D01*
X128644435Y-4400003D01*
X128664630Y-4579249D01*
X128664631Y-4579254D01*
X128724211Y-4749523D01*
X128800029Y-4870185D01*
X128820184Y-4902262D01*
X128947738Y-5029816D01*
X129100478Y-5125789D01*
X129229604Y-5170972D01*
X129270745Y-5185368D01*
X129270750Y-5185369D01*
X129449996Y-5205565D01*
X129450000Y-5205565D01*
X129450004Y-5205565D01*
X129629249Y-5185369D01*
X129629251Y-5185368D01*
X129629255Y-5185368D01*
X129629258Y-5185366D01*
X129629262Y-5185366D01*
X129783044Y-5131555D01*
X129852823Y-5127993D01*
X129911680Y-5160915D01*
X130819298Y-6068533D01*
X130852783Y-6129856D01*
X130854837Y-6142330D01*
X130864630Y-6229249D01*
X130924210Y-6399521D01*
X130984872Y-6496064D01*
X131020184Y-6552262D01*
X131147738Y-6679816D01*
X131300478Y-6775789D01*
X131379826Y-6803553D01*
X131436601Y-6844274D01*
X131462091Y-6906711D01*
X131464630Y-6929249D01*
X131524210Y-7099521D01*
X131618775Y-7250019D01*
X131620184Y-7252262D01*
X131747738Y-7379816D01*
X131900478Y-7475789D01*
X132070745Y-7535368D01*
X132070750Y-7535369D01*
X132185963Y-7548350D01*
X132250377Y-7575416D01*
X132289932Y-7633011D01*
X132295300Y-7657686D01*
X132314630Y-7829250D01*
X132314631Y-7829254D01*
X132374211Y-7999523D01*
X132456524Y-8130522D01*
X132470184Y-8152262D01*
X132597738Y-8279816D01*
X132630658Y-8300501D01*
X132746817Y-8373489D01*
X132750478Y-8375789D01*
X132920739Y-8435366D01*
X132920745Y-8435368D01*
X132920750Y-8435369D01*
X133099996Y-8455565D01*
X133100000Y-8455565D01*
X133100004Y-8455565D01*
X133279249Y-8435369D01*
X133279251Y-8435368D01*
X133279255Y-8435368D01*
X133279258Y-8435366D01*
X133279262Y-8435366D01*
X133456095Y-8373489D01*
X133456846Y-8375637D01*
X133515128Y-8366035D01*
X133543592Y-8374391D01*
X133543908Y-8373489D01*
X133720748Y-8435368D01*
X133720753Y-8435369D01*
X133899999Y-8455565D01*
X133900003Y-8455565D01*
X133900007Y-8455565D01*
X133930272Y-8452155D01*
X180900000Y-8452155D01*
X180900000Y-9250000D01*
X181641759Y-9250000D01*
X181628822Y-9281233D01*
X181600000Y-9426131D01*
X181600000Y-9573869D01*
X181628822Y-9718767D01*
X181641759Y-9750000D01*
X180900000Y-9750000D01*
X180900000Y-10547844D01*
X180906401Y-10607372D01*
X180906403Y-10607379D01*
X180956645Y-10742086D01*
X180956649Y-10742093D01*
X181042809Y-10857187D01*
X181042812Y-10857190D01*
X181157906Y-10943350D01*
X181157913Y-10943354D01*
X181292620Y-10993596D01*
X181292627Y-10993598D01*
X181352155Y-10999999D01*
X181352172Y-11000000D01*
X182750000Y-11000000D01*
X182750000Y-10250000D01*
X183250000Y-10250000D01*
X183250000Y-11000000D01*
X184647828Y-11000000D01*
X184647844Y-10999999D01*
X184707372Y-10993598D01*
X184707379Y-10993596D01*
X184842086Y-10943354D01*
X184842093Y-10943350D01*
X184957187Y-10857190D01*
X184957190Y-10857187D01*
X185043350Y-10742093D01*
X185043354Y-10742086D01*
X185093596Y-10607379D01*
X185093598Y-10607372D01*
X185099999Y-10547844D01*
X185100000Y-10547827D01*
X185100000Y-9750000D01*
X184358241Y-9750000D01*
X184371178Y-9718767D01*
X184400000Y-9573869D01*
X184400000Y-9426131D01*
X184371178Y-9281233D01*
X184358241Y-9250000D01*
X185100000Y-9250000D01*
X185100000Y-8452172D01*
X185099999Y-8452155D01*
X185093598Y-8392627D01*
X185093596Y-8392620D01*
X185043354Y-8257913D01*
X185043350Y-8257906D01*
X184957190Y-8142812D01*
X184957187Y-8142809D01*
X184842093Y-8056649D01*
X184842086Y-8056645D01*
X184707379Y-8006403D01*
X184707372Y-8006401D01*
X184647844Y-8000000D01*
X183250000Y-8000000D01*
X183250000Y-8750000D01*
X182750000Y-8750000D01*
X182750000Y-8000000D01*
X181352155Y-8000000D01*
X181292627Y-8006401D01*
X181292620Y-8006403D01*
X181157913Y-8056645D01*
X181157906Y-8056649D01*
X181042812Y-8142809D01*
X181042809Y-8142812D01*
X180956649Y-8257906D01*
X180956645Y-8257913D01*
X180906403Y-8392620D01*
X180906401Y-8392627D01*
X180900000Y-8452155D01*
X133930272Y-8452155D01*
X134079252Y-8435369D01*
X134079255Y-8435368D01*
X134079258Y-8435368D01*
X134249525Y-8375789D01*
X134402265Y-8279816D01*
X134402269Y-8279811D01*
X134405100Y-8277555D01*
X134407278Y-8276665D01*
X134408161Y-8276111D01*
X134408258Y-8276265D01*
X134469787Y-8251146D01*
X134479328Y-8250658D01*
X134480525Y-8250501D01*
X134480528Y-8250501D01*
X134633256Y-8209577D01*
X134646891Y-8201704D01*
X134683562Y-8180533D01*
X134683576Y-8180524D01*
X134683585Y-8180519D01*
X134770187Y-8130520D01*
X134881991Y-8018716D01*
X134881991Y-8018714D01*
X134892195Y-8008511D01*
X134892198Y-8008506D01*
X135799916Y-7100789D01*
X135861237Y-7067306D01*
X135930929Y-7072290D01*
X135953567Y-7083479D01*
X136100474Y-7175788D01*
X136197711Y-7209812D01*
X136270745Y-7235368D01*
X136357669Y-7245161D01*
X136422080Y-7272226D01*
X136431465Y-7280700D01*
X137215139Y-8064374D01*
X137215149Y-8064385D01*
X137219479Y-8068715D01*
X137219480Y-8068716D01*
X137331284Y-8180520D01*
X137331286Y-8180521D01*
X137331290Y-8180524D01*
X137381610Y-8209576D01*
X137381615Y-8209578D01*
X137468209Y-8259574D01*
X137468210Y-8259575D01*
X137468212Y-8259575D01*
X137468215Y-8259577D01*
X137620943Y-8300501D01*
X137620946Y-8300501D01*
X137786653Y-8300501D01*
X137786669Y-8300500D01*
X143463331Y-8300500D01*
X143463347Y-8300501D01*
X143470943Y-8300501D01*
X143629054Y-8300501D01*
X143629057Y-8300501D01*
X143781785Y-8259577D01*
X143868387Y-8209577D01*
X143868391Y-8209575D01*
X143918709Y-8180524D01*
X143918708Y-8180524D01*
X143918716Y-8180520D01*
X144030520Y-8068716D01*
X144030520Y-8068714D01*
X144040724Y-8058511D01*
X144040728Y-8058506D01*
X145538320Y-6560913D01*
X145599641Y-6527430D01*
X145666954Y-6531555D01*
X145820737Y-6585366D01*
X145820743Y-6585367D01*
X145820745Y-6585368D01*
X145820746Y-6585368D01*
X145820750Y-6585369D01*
X145999996Y-6605565D01*
X146000000Y-6605565D01*
X146000004Y-6605565D01*
X146179249Y-6585369D01*
X146179252Y-6585368D01*
X146179255Y-6585368D01*
X146349522Y-6525789D01*
X146502262Y-6429816D01*
X146629816Y-6302262D01*
X146725789Y-6149522D01*
X146785368Y-5979255D01*
X146795161Y-5892329D01*
X146822226Y-5827918D01*
X146830690Y-5818543D01*
X147408506Y-5240728D01*
X147408511Y-5240724D01*
X147418714Y-5230520D01*
X147418716Y-5230520D01*
X147530520Y-5118716D01*
X147581846Y-5029816D01*
X147585412Y-5023641D01*
X147609574Y-4981790D01*
X147609573Y-4981790D01*
X147609577Y-4981785D01*
X147650500Y-4829058D01*
X147650500Y-4670943D01*
X147650500Y-2890530D01*
X147650501Y-2890517D01*
X147650501Y-2722416D01*
X147650501Y-2722414D01*
X147609577Y-2569686D01*
X147566732Y-2495477D01*
X147530520Y-2432755D01*
X147418716Y-2320951D01*
X147418715Y-2320950D01*
X147414385Y-2316620D01*
X147414374Y-2316610D01*
X146686119Y-1588355D01*
X146686117Y-1588352D01*
X146567246Y-1469481D01*
X146567245Y-1469480D01*
X146480433Y-1419360D01*
X146480433Y-1419359D01*
X146480429Y-1419358D01*
X146430314Y-1390423D01*
X146277586Y-1349499D01*
X146119472Y-1349499D01*
X146111876Y-1349499D01*
X146111860Y-1349500D01*
X140020940Y-1349500D01*
X139980019Y-1360464D01*
X139980019Y-1360465D01*
X139942751Y-1370451D01*
X139868214Y-1390423D01*
X139868209Y-1390426D01*
X139731285Y-1469478D01*
X139681462Y-1519300D01*
X139620138Y-1552784D01*
X139607666Y-1554837D01*
X139520750Y-1564630D01*
X139350478Y-1624210D01*
X139197737Y-1720184D01*
X139070184Y-1847737D01*
X138974211Y-2000476D01*
X138914631Y-2170745D01*
X138914630Y-2170750D01*
X138894435Y-2349996D01*
X138894435Y-2350003D01*
X138914630Y-2529249D01*
X138914631Y-2529254D01*
X138974211Y-2699523D01*
X139037347Y-2800003D01*
X139070184Y-2852262D01*
X139197738Y-2979816D01*
X139223910Y-2996261D01*
X139310609Y-3050738D01*
X139350478Y-3075789D01*
X139520745Y-3135368D01*
X139520750Y-3135369D01*
X139699996Y-3155565D01*
X139700000Y-3155565D01*
X139700004Y-3155565D01*
X139879249Y-3135369D01*
X139879252Y-3135368D01*
X139879255Y-3135368D01*
X140049522Y-3075789D01*
X140202262Y-2979816D01*
X140329816Y-2852262D01*
X140425789Y-2699522D01*
X140448875Y-2633546D01*
X140489597Y-2576770D01*
X140554549Y-2551022D01*
X140565917Y-2550500D01*
X145446524Y-2550500D01*
X145513563Y-2570185D01*
X145559318Y-2622989D01*
X145569262Y-2692147D01*
X145540237Y-2755703D01*
X145512496Y-2779494D01*
X145447737Y-2820184D01*
X145320184Y-2947737D01*
X145224210Y-3100478D01*
X145164630Y-3270750D01*
X145154837Y-3357668D01*
X145127770Y-3422082D01*
X145119298Y-3431465D01*
X144831286Y-3719478D01*
X144719481Y-3831282D01*
X144719477Y-3831287D01*
X144697429Y-3869478D01*
X144697428Y-3869480D01*
X144640423Y-3968215D01*
X144599499Y-4120943D01*
X144599499Y-4120945D01*
X144599499Y-4289046D01*
X144599500Y-4289059D01*
X144599500Y-5749903D01*
X144579815Y-5816942D01*
X144563181Y-5837584D01*
X143361679Y-7039085D01*
X143300356Y-7072570D01*
X143230664Y-7067586D01*
X143174731Y-7025714D01*
X143150314Y-6960250D01*
X143156957Y-6910448D01*
X143185367Y-6829259D01*
X143185369Y-6829249D01*
X143205565Y-6650003D01*
X143205565Y-6649996D01*
X143185369Y-6470750D01*
X143185368Y-6470745D01*
X143167430Y-6419480D01*
X143125789Y-6300478D01*
X143125174Y-6299500D01*
X143029815Y-6147737D01*
X142902262Y-6020184D01*
X142749523Y-5924211D01*
X142579254Y-5864631D01*
X142579249Y-5864630D01*
X142400004Y-5844435D01*
X142399996Y-5844435D01*
X142220750Y-5864630D01*
X142220745Y-5864631D01*
X142050476Y-5924211D01*
X141897736Y-6020185D01*
X141894903Y-6022445D01*
X141892724Y-6023334D01*
X141891842Y-6023889D01*
X141891744Y-6023734D01*
X141830217Y-6048855D01*
X141817588Y-6049500D01*
X137798626Y-6049500D01*
X137731587Y-6029815D01*
X137710945Y-6013181D01*
X137186119Y-5488355D01*
X137186117Y-5488352D01*
X137067246Y-5369481D01*
X137067245Y-5369480D01*
X136963489Y-5309577D01*
X136930314Y-5290423D01*
X136929836Y-5290147D01*
X136881621Y-5239579D01*
X136868399Y-5170972D01*
X136894367Y-5106107D01*
X136904140Y-5095095D01*
X137012419Y-4986816D01*
X137073740Y-4953334D01*
X137100098Y-4950500D01*
X137317588Y-4950500D01*
X137384627Y-4970185D01*
X137394903Y-4977555D01*
X137397736Y-4979814D01*
X137397738Y-4979816D01*
X137550478Y-5075789D01*
X137709848Y-5131555D01*
X137720745Y-5135368D01*
X137720750Y-5135369D01*
X137899996Y-5155565D01*
X137900000Y-5155565D01*
X137900004Y-5155565D01*
X138079249Y-5135369D01*
X138079252Y-5135368D01*
X138079255Y-5135368D01*
X138249522Y-5075789D01*
X138402262Y-4979816D01*
X138529816Y-4852262D01*
X138625789Y-4699522D01*
X138685368Y-4529255D01*
X138685369Y-4529249D01*
X138705565Y-4350003D01*
X138705565Y-4349996D01*
X138685369Y-4170750D01*
X138685368Y-4170745D01*
X138667942Y-4120945D01*
X138625789Y-4000478D01*
X138529816Y-3847738D01*
X138402262Y-3720184D01*
X138339187Y-3680551D01*
X138249523Y-3624211D01*
X138079254Y-3564631D01*
X138079249Y-3564630D01*
X137900004Y-3544435D01*
X137899996Y-3544435D01*
X137720750Y-3564630D01*
X137720745Y-3564631D01*
X137550476Y-3624211D01*
X137397736Y-3720185D01*
X137394903Y-3722445D01*
X137392724Y-3723334D01*
X137391842Y-3723889D01*
X137391744Y-3723734D01*
X137330217Y-3748855D01*
X137317588Y-3749500D01*
X136886670Y-3749500D01*
X136886654Y-3749499D01*
X136879058Y-3749499D01*
X136732940Y-3749499D01*
X136665901Y-3729814D01*
X136645259Y-3713181D01*
X136606289Y-3674211D01*
X136552262Y-3620184D01*
X136463850Y-3564631D01*
X136399523Y-3524211D01*
X136229254Y-3464631D01*
X136229249Y-3464630D01*
X136050004Y-3444435D01*
X136049996Y-3444435D01*
X135870750Y-3464630D01*
X135870745Y-3464631D01*
X135700476Y-3524211D01*
X135547736Y-3620185D01*
X135544903Y-3622445D01*
X135542724Y-3623334D01*
X135541842Y-3623889D01*
X135541744Y-3623734D01*
X135480217Y-3648855D01*
X135467588Y-3649500D01*
X134659187Y-3649500D01*
X134592148Y-3629815D01*
X134571506Y-3613181D01*
X133324256Y-2365931D01*
X133290771Y-2304608D01*
X133288719Y-2292152D01*
X133278924Y-2205211D01*
X133219345Y-2034944D01*
X133123372Y-1882204D01*
X132995818Y-1754650D01*
X132940966Y-1720184D01*
X132843077Y-1658676D01*
X132672805Y-1599096D01*
X132585886Y-1589303D01*
X132521472Y-1562236D01*
X132512089Y-1553764D01*
X132296680Y-1338355D01*
X132296678Y-1338352D01*
X132177807Y-1219481D01*
X132177806Y-1219480D01*
X132090994Y-1169360D01*
X132090994Y-1169359D01*
X132090990Y-1169358D01*
X132040875Y-1140423D01*
X131888147Y-1099499D01*
X131730033Y-1099499D01*
X131722437Y-1099499D01*
X131722421Y-1099500D01*
X128686669Y-1099500D01*
X128686653Y-1099499D01*
X128679057Y-1099499D01*
X128520943Y-1099499D01*
X128413587Y-1128265D01*
X128368210Y-1140424D01*
X128368209Y-1140425D01*
X128318096Y-1169359D01*
X128318095Y-1169360D01*
X128274689Y-1194420D01*
X128231285Y-1219479D01*
X128231282Y-1219481D01*
X128119478Y-1331286D01*
X127411679Y-2039084D01*
X127350356Y-2072569D01*
X127283043Y-2068444D01*
X127129262Y-2014633D01*
X127129249Y-2014630D01*
X126950004Y-1994435D01*
X126949996Y-1994435D01*
X126770750Y-2014630D01*
X126770745Y-2014631D01*
X126600476Y-2074211D01*
X126447737Y-2170184D01*
X126320184Y-2297737D01*
X126224211Y-2450476D01*
X126164631Y-2620745D01*
X126164630Y-2620750D01*
X126144435Y-2799996D01*
X512598Y-2799996D01*
X517182Y-2724211D01*
X518271Y-2706202D01*
X520076Y-2691340D01*
X524971Y-2664632D01*
X571780Y-2409197D01*
X575364Y-2394663D01*
X583091Y-2369866D01*
X660696Y-2120822D01*
X665998Y-2106841D01*
X783731Y-1845249D01*
X790676Y-1832016D01*
X939080Y-1586526D01*
X947567Y-1574230D01*
X1124480Y-1348417D01*
X1134395Y-1337226D01*
X1337226Y-1134395D01*
X1348417Y-1124480D01*
X1574230Y-947567D01*
X1586526Y-939080D01*
X1832016Y-790676D01*
X1845249Y-783731D01*
X2106841Y-665998D01*
X2120822Y-660696D01*
X2394668Y-575362D01*
X2409197Y-571780D01*
X2691344Y-520075D01*
X2706201Y-518271D01*
X2996264Y-500726D01*
X3003751Y-500500D01*
X3065892Y-500500D01*
X196934108Y-500500D01*
X196996249Y-500500D01*
X197003736Y-500726D01*
G37*
%TD.AperFunction*%
%TD*%
M02*
