%TF.GenerationSoftware,KiCad,Pcbnew,8.0.4*%
%TF.CreationDate,2024-09-29T20:48:18+08:00*%
%TF.ProjectId,PH-AC,50482d41-432e-46b6-9963-61645f706362,Rev2.2*%
%TF.SameCoordinates,PX405f7e0PY328b740*%
%TF.FileFunction,Component,L1,Top*%
%TF.FilePolarity,Positive*%
%FSLAX46Y46*%
G04 Gerber Fmt 4.6, Leading zero omitted, Abs format (unit mm)*
G04 Created by KiCad (PCBNEW 8.0.4) date 2024-09-29 20:48:18*
%MOMM*%
%LPD*%
G01*
G04 APERTURE LIST*
%TA.AperFunction,ComponentMain*%
%ADD10C,0.300000*%
%TD*%
%TA.AperFunction,ComponentOutline,Courtyard*%
%ADD11C,0.100000*%
%TD*%
%TA.AperFunction,ComponentPin*%
%ADD12C,0.100000*%
%TD*%
%TA.AperFunction,Profile*%
%ADD13C,0.050000*%
%TD*%
G04 APERTURE END LIST*
D10*
%TO.C,BT-A*%
%TO.CFtp,SW_Hotswap_Kailh_MX_1.50u*%
%TO.CVal,SW_Push*%
%TO.CLbN,PCM_Switch_Keyboard_Hotswap_Kailh*%
%TO.CMnt,SMD*%
%TO.CRot,0*%
X36750000Y-40575000D03*
D11*
X43999999Y-33325001D02*
X43999999Y-47824999D01*
X29500001Y-47824999D01*
X29500001Y-33325001D01*
X43999999Y-33325001D01*
D12*
%TO.P,BT-A,*%
X31670000Y-40575000D03*
X32940000Y-38035000D03*
X36750000Y-40575000D03*
X39290000Y-35495000D03*
X41830000Y-40575000D03*
%TD*%
D10*
%TO.C,START*%
%TO.CFtp,SW_Hotswap_Kailh_MX_1.00u*%
%TO.CVal,SW_Push*%
%TO.CLbN,PCM_Switch_Keyboard_Hotswap_Kailh*%
%TO.CMnt,SMD*%
%TO.CRot,0*%
X86250000Y-16575000D03*
D11*
X93499999Y-9325001D02*
X93499999Y-23824999D01*
X79000001Y-23824999D01*
X79000001Y-9325001D01*
X93499999Y-9325001D01*
D12*
%TO.P,START,*%
X81170000Y-16575000D03*
X82440000Y-14035000D03*
X86250000Y-16575000D03*
X88790000Y-11495000D03*
X91330000Y-16575000D03*
%TD*%
D10*
%TO.C,BT-D*%
%TO.CFtp,SW_Hotswap_Kailh_MX_1.50u*%
%TO.CVal,SW_Push*%
%TO.CLbN,PCM_Switch_Keyboard_Hotswap_Kailh*%
%TO.CMnt,SMD*%
%TO.CRot,0*%
X135750000Y-40575000D03*
D11*
X142999999Y-33325001D02*
X142999999Y-47824999D01*
X128500001Y-47824999D01*
X128500001Y-33325001D01*
X142999999Y-33325001D01*
D12*
%TO.P,BT-D,*%
X130670000Y-40575000D03*
X131940000Y-38035000D03*
X135750000Y-40575000D03*
X138290000Y-35495000D03*
X140830000Y-40575000D03*
%TD*%
D10*
%TO.C,BT-B*%
%TO.CFtp,SW_Hotswap_Kailh_MX_1.50u*%
%TO.CVal,SW_Push*%
%TO.CLbN,PCM_Switch_Keyboard_Hotswap_Kailh*%
%TO.CMnt,SMD*%
%TO.CRot,0*%
X69750000Y-40575000D03*
D11*
X76999999Y-33325001D02*
X76999999Y-47824999D01*
X62500001Y-47824999D01*
X62500001Y-33325001D01*
X76999999Y-33325001D01*
D12*
%TO.P,BT-B,*%
X64670000Y-40575000D03*
X65940000Y-38035000D03*
X69750000Y-40575000D03*
X72290000Y-35495000D03*
X74830000Y-40575000D03*
%TD*%
D10*
%TO.C,FX-L*%
%TO.CFtp,SW_Hotswap_Kailh_MX_2.25u*%
%TO.CVal,SW_Push*%
%TO.CLbN,PCM_Switch_Keyboard_Hotswap_Kailh*%
%TO.CMnt,SMD*%
%TO.CRot,0*%
X53250000Y-82575000D03*
D11*
X60499999Y-75325001D02*
X60499999Y-89824999D01*
X46000001Y-89824999D01*
X46000001Y-75325001D01*
X60499999Y-75325001D01*
D12*
%TO.P,FX-L,*%
X48170000Y-82575000D03*
X49440000Y-80035000D03*
X53250000Y-82575000D03*
X55790000Y-77495000D03*
X58330000Y-82575000D03*
%TD*%
D10*
%TO.C,BT-C*%
%TO.CFtp,SW_Hotswap_Kailh_MX_1.50u*%
%TO.CVal,SW_Push*%
%TO.CLbN,PCM_Switch_Keyboard_Hotswap_Kailh*%
%TO.CMnt,SMD*%
%TO.CRot,0*%
X102750000Y-40575000D03*
D11*
X109999999Y-33325001D02*
X109999999Y-47824999D01*
X95500001Y-47824999D01*
X95500001Y-33325001D01*
X109999999Y-33325001D01*
D12*
%TO.P,BT-C,*%
X97670000Y-40575000D03*
X98940000Y-38035000D03*
X102750000Y-40575000D03*
X105290000Y-35495000D03*
X107830000Y-40575000D03*
%TD*%
D10*
%TO.C,FX-R*%
%TO.CFtp,SW_Hotswap_Kailh_MX_2.25u*%
%TO.CVal,SW_Push*%
%TO.CLbN,PCM_Switch_Keyboard_Hotswap_Kailh*%
%TO.CMnt,SMD*%
%TO.CRot,0*%
X119250000Y-82575000D03*
D11*
X126499999Y-75325001D02*
X126499999Y-89824999D01*
X112000001Y-89824999D01*
X112000001Y-75325001D01*
X126499999Y-75325001D01*
D12*
%TO.P,FX-R,*%
X114170000Y-82575000D03*
X115440000Y-80035000D03*
X119250000Y-82575000D03*
X121790000Y-77495000D03*
X124330000Y-82575000D03*
%TD*%
D10*
%TO.C,VOR-R*%
%TO.CFtp,RotaryEncoder_Alps_EC11E-Switch_Vertical_H20mm*%
%TO.CVal,RotaryEncoder_Switch_MP*%
%TO.CLbN,Rotary_Encoder*%
%TO.CMnt,TH*%
%TO.CRot,0*%
X161750000Y-10175000D03*
D11*
X177749999Y-5575001D02*
X177749999Y-19774999D01*
X160250001Y-19774999D01*
X160250001Y-5575001D01*
X177749999Y-5575001D01*
D12*
%TO.P,VOR-R,A,A*%
X161750000Y-10175000D03*
%TO.P,VOR-R,B,B*%
X161750000Y-15175000D03*
%TO.P,VOR-R,C,C*%
X161750000Y-12675000D03*
%TO.P,VOR-R,MP,MP*%
X169250000Y-7075000D03*
X169250000Y-18275000D03*
%TO.P,VOR-R,S1,S1*%
X176250000Y-15175000D03*
%TO.P,VOR-R,S2,S2*%
X176250000Y-10175000D03*
%TD*%
D10*
%TO.C,VOR-L*%
%TO.CFtp,RotaryEncoder_Alps_EC11E-Switch_Vertical_H20mm*%
%TO.CVal,RotaryEncoder_Switch_MP*%
%TO.CLbN,Rotary_Encoder*%
%TO.CMnt,TH*%
%TO.CRot,0*%
X-4250000Y-10175000D03*
D11*
X11749999Y-5575001D02*
X11749999Y-19774999D01*
X-5749999Y-19774999D01*
X-5749999Y-5575001D01*
X11749999Y-5575001D01*
D12*
%TO.P,VOR-L,A,A*%
X-4250000Y-10175000D03*
%TO.P,VOR-L,B,B*%
X-4250000Y-15175000D03*
%TO.P,VOR-L,C,C*%
X-4250000Y-12675000D03*
%TO.P,VOR-L,MP,MP*%
X3250000Y-7075000D03*
X3250000Y-18275000D03*
%TO.P,VOR-L,S1,S1*%
X10250000Y-15175000D03*
%TO.P,VOR-L,S2,S2*%
X10250000Y-10175000D03*
%TD*%
D13*
X184529613Y-50032695D02*
X152970386Y-95117304D01*
X-10750000Y2425000D02*
X183250000Y2425000D01*
X-13749998Y-44575000D02*
X-13750000Y-575000D01*
X24250000Y-97574999D02*
G75*
G02*
X19529624Y-95117297I-177200J5421599D01*
G01*
X-12029612Y-50032695D02*
G75*
G02*
X-13750014Y-44575001I10561312J6329195D01*
G01*
X-13750000Y-575000D02*
G75*
G02*
X-10750000Y2425000I3000000J0D01*
G01*
X183250000Y2425000D02*
G75*
G02*
X186250000Y-575000I0J-3000000D01*
G01*
X148250000Y-97574999D02*
X24250000Y-97574999D01*
X186249999Y-44575000D02*
G75*
G02*
X184529595Y-50032684I-12282299J871700D01*
G01*
X19529614Y-95117304D02*
X-12029612Y-50032695D01*
X186250000Y-575000D02*
X186249999Y-44575000D01*
X152970386Y-95117304D02*
G75*
G02*
X148250000Y-97575011I-4543186J2963904D01*
G01*
M02*
